<?xml version="1.0" encoding="utf-8"?>
<!-- Generator: Adobe Illustrator 23.1.1, SVG Export Plug-In . SVG Version: 6.00 Build 0)  -->
<svg version="1.1" id="Layer_1" xmlns="http://www.w3.org/2000/svg" xmlns:xlink="http://www.w3.org/1999/xlink" x="0px" y="0px"
	 viewBox="0 0 148 94" style="enable-background:new 0 0 148 94;" xml:space="preserve">
<style type="text/css">
	.st0{fill:#FFFFFF;}
	.st1{fill:#E8E8E8;}
</style>
<g>
	<g>
		<path class="st0" d="M49.9,49.6H14c-3.3,0-6-2.7-6-6V13.9c0-3.3,2.7-6,6-6h35.9c3.3,0,6,2.7,6,6v29.7
			C55.9,46.9,53.2,49.6,49.9,49.6z"/>
		<g>
			<line class="st0" x1="65.1" y1="12" x2="135.9" y2="12"/>
			<path class="st0" d="M135.9,15.5H65.1c-1.9,0-3.5-1.6-3.5-3.5s1.6-3.5,3.5-3.5h70.8c1.9,0,3.5,1.6,3.5,3.5S137.8,15.5,135.9,15.5
				z"/>
		</g>
		<g>
			<line class="st0" x1="65.1" y1="29.1" x2="135.9" y2="29.1"/>
			<path class="st0" d="M135.9,32.6H65.1c-1.9,0-3.5-1.6-3.5-3.5s1.6-3.5,3.5-3.5h70.8c1.9,0,3.5,1.6,3.5,3.5S137.8,32.6,135.9,32.6
				z"/>
		</g>
		<g>
			<line class="st0" x1="65.1" y1="46.2" x2="135.9" y2="46.2"/>
			<path class="st0" d="M135.9,49.7H65.1c-1.9,0-3.5-1.6-3.5-3.5s1.6-3.5,3.5-3.5h70.8c1.9,0,3.5,1.6,3.5,3.5S137.8,49.7,135.9,49.7
				z"/>
		</g>
		<g>
			<line class="st0" x1="12.5" y1="63.4" x2="135.9" y2="63.4"/>
			<path class="st0" d="M135.9,66.9H12.5c-1.9,0-3.5-1.6-3.5-3.5s1.6-3.5,3.5-3.5h123.3c1.9,0,3.5,1.6,3.5,3.5
				S137.8,66.9,135.9,66.9z"/>
		</g>
		<g>
			<line class="st0" x1="12.5" y1="80.5" x2="135.9" y2="80.5"/>
			<path class="st0" d="M135.9,84H12.5C10.6,84,9,82.4,9,80.5s1.6-3.5,3.5-3.5h123.3c1.9,0,3.5,1.6,3.5,3.5S137.8,84,135.9,84z"/>
		</g>
	</g>
	<g>
		<polygon class="st1" points="14.6,14.6 15.4,16.2 17.2,16.5 15.9,17.8 16.2,19.6 14.6,18.7 13,19.6 13.3,17.8 12,16.5 13.8,16.2 
					"/>
		<polygon class="st1" points="31.5,14.6 32.3,16.2 34.1,16.5 32.8,17.8 33.1,19.6 31.5,18.7 29.8,19.6 30.2,17.8 28.8,16.5 
			30.7,16.2 		"/>
		<polygon class="st1" points="48.3,14.6 49.2,16.2 51,16.5 49.7,17.8 50,19.6 48.3,18.7 46.7,19.6 47,17.8 45.7,16.5 47.5,16.2 		
			"/>
		<polygon class="st1" points="23.2,21.9 24,23.6 25.9,23.8 24.5,25.1 24.9,26.9 23.2,26.1 21.6,26.9 21.9,25.1 20.6,23.8 
			22.4,23.6 		"/>
		<polygon class="st1" points="40.1,21.9 40.9,23.6 42.7,23.8 41.4,25.1 41.7,26.9 40.1,26.1 38.5,26.9 38.8,25.1 37.5,23.8 
			39.3,23.6 		"/>
		<polygon class="st1" points="14.6,29.3 15.4,30.9 17.2,31.2 15.9,32.5 16.2,34.3 14.6,33.4 13,34.3 13.3,32.5 12,31.2 13.8,30.9 
					"/>
		<polygon class="st1" points="31.5,29.3 32.3,30.9 34.1,31.2 32.8,32.5 33.1,34.3 31.5,33.4 29.8,34.3 30.2,32.5 28.8,31.2 
			30.7,30.9 		"/>
		<polygon class="st1" points="48.3,29.3 49.2,30.9 51,31.2 49.7,32.5 50,34.3 48.3,33.4 46.7,34.3 47,32.5 45.7,31.2 47.5,30.9 		
			"/>
		<polygon class="st1" points="23.2,36.7 24,38.3 25.9,38.6 24.5,39.8 24.9,41.6 23.2,40.8 21.6,41.6 21.9,39.8 20.6,38.6 
			22.4,38.3 		"/>
		<polygon class="st1" points="40.1,36.7 40.9,38.3 42.7,38.6 41.4,39.8 41.7,41.6 40.1,40.8 38.5,41.6 38.8,39.8 37.5,38.6 
			39.3,38.3 		"/>
	</g>
</g>
</svg>
