<?xml version="1.0" encoding="UTF-8" standalone="no"?>
<!-- Generator: Adobe Illustrator 23.0.0, SVG Export Plug-In . SVG Version: 6.00 Build 0)  -->

<svg
   xmlns:dc="http://purl.org/dc/elements/1.1/"
   xmlns:cc="http://creativecommons.org/ns#"
   xmlns:rdf="http://www.w3.org/1999/02/22-rdf-syntax-ns#"
   xmlns:svg="http://www.w3.org/2000/svg"
   xmlns="http://www.w3.org/2000/svg"
   xmlns:sodipodi="http://sodipodi.sourceforge.net/DTD/sodipodi-0.dtd"
   xmlns:inkscape="http://www.inkscape.org/namespaces/inkscape"
   version="1.1"
   id="Layer_1"
   x="0px"
   y="0px"
   viewBox="0 0 80.000002 40.000001"
   xml:space="preserve"
   sodipodi:docname="Bitpay.svg"
   width="80"
   height="40"
   inkscape:version="0.92.3 (2405546, 2018-03-11)"><metadata
   id="metadata52"><rdf:RDF><cc:Work
       rdf:about=""><dc:format>image/svg+xml</dc:format><dc:type
         rdf:resource="http://purl.org/dc/dcmitype/StillImage" /><dc:title>packages</dc:title></cc:Work></rdf:RDF></metadata><defs
   id="defs50" /><sodipodi:namedview
   pagecolor="#ffffff"
   bordercolor="#666666"
   borderopacity="1"
   objecttolerance="10"
   gridtolerance="10"
   guidetolerance="10"
   inkscape:pageopacity="0"
   inkscape:pageshadow="2"
   inkscape:window-width="2560"
   inkscape:window-height="1356"
   id="namedview48"
   showgrid="false"
   inkscape:zoom="1.9633944"
   inkscape:cx="-101.5144"
   inkscape:cy="9.2000015"
   inkscape:window-x="-8"
   inkscape:window-y="-8"
   inkscape:window-maximized="1"
   inkscape:current-layer="Layer_1" />
<style
   type="text/css"
   id="style2">
	.st0{fill:#00A9CE;}
	.st1{fill:#00A9CE;stroke:#FFFFFF;stroke-linecap:round;stroke-linejoin:round;stroke-miterlimit:10;}
	.st2{fill:#FFFFFF;}
	.st3{fill:#002855;}
</style>
<title
   id="title4">packages</title>
<path
   class="st0"
   d="m 423.4,5560.3 v 93 c 0,1.7 -1.3,3 -3,3 h -60 c -1.7,0 -3,-1.3 -3,-3 v -93 c 0,-1.7 1.3,-3 3,-3 h 60 c 1.7,0 3,1.3 3,3 z"
   id="path6"
   inkscape:connector-curvature="0"
   style="fill:#00a9ce" />
<g
   id="g30"
   transform="translate(-29.7,-29.3)">
	
		<ellipse
   transform="matrix(0.9699,-0.2435,0.2435,0.9699,-1356.5619,271.5286)"
   class="st1"
   cx="420"
   cy="5623"
   rx="22.5"
   ry="22"
   id="ellipse8"
   style="fill:#00a9ce;stroke:#ffffff;stroke-linecap:round;stroke-linejoin:round;stroke-miterlimit:10" />
	<g
   id="g28">
		<path
   class="st2"
   d="m 401.3,5612.5 c -0.1,0.4 0.2,0.9 0.3,1.3 0.1,0.5 -0.1,1 0,1.4 0.3,1.1 0.3,1.1 0.1,2 0,0.2 0,0.3 -0.1,0.5 -0.1,1.1 -0.2,2.2 0.6,3.2 0.4,0.6 1,0.6 1.4,1.1 0.1,0.3 0.2,0.7 0.2,1 0,0.3 0.8,0.4 0.4,0.8 0.3,0.2 0.7,0.3 1,0.5 0,-0.2 0,-0.5 -0.1,-1 0.3,0.2 0.5,0.3 0.7,0.5 0.4,0.4 0.7,0.8 1.1,1.2 0.4,0.4 1,0.6 0.7,1.3 1.1,0.6 2.2,1.2 3.6,1 0.6,-0.1 1.2,-0.3 1.8,0.2 0.3,0.3 0.8,0.3 1.2,0.4 0.1,0 0.2,-0.2 0.4,-0.3 2,1.8 2,1.8 4.3,1 0,-0.1 0,-0.2 0,-0.2 -0.3,0 -0.7,0 -1,0.1 -1.1,0 -1.3,-0.2 -1.5,-1.3 -0.1,-0.3 -0.3,-0.6 -0.5,-0.9 -0.7,0.1 -1.2,0.2 -1.8,0.3 0.1,-0.8 0.1,-1.4 0.2,-2.1 -0.4,0.1 -0.8,0.2 -1.1,0.3 -0.2,0.5 -0.1,1.1 -0.8,1.3 -0.8,0.2 -1.2,-0.2 -1.7,-0.5 -0.2,-0.9 -0.5,-1.8 -0.7,-2.7 1,-1.2 1,-1.2 2.4,-1.2 0,-0.2 0,-0.4 0.1,-0.8 0.7,0 1.5,0 2.1,-0.1 0.6,0.6 1.1,1.2 1.6,1.8 0.2,-1.1 -0.6,-1.7 -0.9,-2.7 0.4,-0.5 0.9,-1 1.3,-1.6 0.4,-0.5 0.4,-0.6 -0.3,-1.4 0.2,-0.2 0.6,-0.4 0.7,-0.7 0.1,-0.8 0.7,-1.1 1.2,-1.5 0,-0.3 -0.1,-0.5 -0.1,-0.8 0.4,-0.2 0.8,-0.4 1.2,-0.6 0.1,0.2 0.2,0.4 0.3,0.6 0.6,-0.6 1.1,-1.1 1.7,-1.6 -0.1,-0.1 -0.1,-0.2 -0.2,-0.2 -0.3,0.2 -0.6,0.4 -0.9,0.7 -0.2,-0.2 -0.5,-0.3 -0.9,-0.6 0.5,-0.6 0.9,-1 1.2,-1.5 0.3,-0.6 1,-0.7 1.3,-1.1 -0.5,-0.6 -1,-0.8 -1.7,-0.9 -0.5,0 -0.9,-0.2 -1.2,-0.7 -0.2,-0.3 -0.4,-0.5 -0.7,-0.7 -0.1,-0.1 -0.3,-0.1 -0.5,-0.1 -0.1,0.3 -0.2,0.6 -0.3,1 -1.1,-0.3 -1.7,-2.1 -3.1,-1.1 0.1,0.7 -0.3,1.4 0.4,2 0.1,0.1 0.1,0.4 0.1,0.5 -0.7,0.6 -0.2,1.4 -0.3,2 -1.2,0.2 -1,-0.9 -1.3,-1.4 -0.6,0 -1,0.1 -1.4,0 -0.4,-0.1 -0.8,-0.3 -1.2,-0.4 -0.4,-0.2 -0.5,-0.6 -0.4,-1 0.2,-0.7 0.8,-1.1 1.1,-1.7 0.1,-0.4 0.8,0 1.2,0 0.3,0 0.6,-0.1 1.3,-0.3 -0.6,-0.2 -1,-0.4 -1.2,-0.5 0.2,-0.4 0.4,-0.7 0.5,-1 0.4,-1.2 0.6,-1.3 1.6,-0.7 0.2,0.1 0.3,0.2 0.5,0.3 -0.4,0.5 -0.7,0.9 -1.1,1.4 1.2,-0.2 1.2,-0.2 2.5,0.6 0.3,-0.3 0.6,-0.5 0.9,-0.8 -0.2,-0.2 -0.3,-0.3 -0.5,-0.5 0.2,-0.4 0.3,-0.7 0.5,-1 -1.4,-0.6 -2.6,-1.1 -3.8,-1.7 -0.7,0.1 -1.2,0.2 -1.8,0.4 0,-0.1 0,-0.2 -0.1,-0.3 0.5,-0.1 1.1,-0.3 1.5,-0.4 0.1,-0.3 0.2,-0.5 0.3,-0.7 -0.3,0.1 -0.6,0.2 -0.9,0.3 0,0.1 0.1,0.1 0.1,0.2 -0.3,0 -0.6,0 -0.8,0 -0.5,0.2 -0.9,0.4 -1.4,0.6 -0.2,0.4 -0.5,0.7 -0.7,1.1 0.2,0.3 0.4,0.5 0.8,1.1 -0.7,-0.2 -1,-0.3 -1.3,-0.4 0.1,-0.3 0.1,-0.6 0.2,-0.8 -0.3,-0.1 -0.5,-0.1 -0.8,-0.2 -0.7,0.4 -1.3,0.8 -1.9,1.3 0.2,0 0.3,0.1 0.5,0.1 -0.2,0.3 -0.3,0.4 -0.4,0.6 -0.2,-0.1 -0.5,-0.2 -0.7,-0.2 -2,1.6 -3.8,3.5 -5.2,5.6 0.2,0.5 0.3,0.8 0.2,1.3 z m 10.2,-8.6 c 0.3,0.4 0.6,0.9 0.9,1.3 -0.1,0.1 -0.2,0.2 -0.3,0.3 -0.5,-0.4 -1,-0.8 -1.6,-1.3 0.4,-0.1 0.7,-0.2 1,-0.3 z"
   id="path10"
   inkscape:connector-curvature="0"
   style="fill:#ffffff" />
		<path
   class="st2"
   d="m 415.3,5601.9 c 0.6,-0.2 1.2,-0.1 1.7,0.5 0.4,0.4 1.1,0.3 1.5,0.8 0.1,0.1 0.3,0 0.5,0 -0.1,0.2 -0.2,0.4 -0.3,0.8 0.6,0.2 1.4,0.3 1.7,0.7 0.7,1 1.7,1.2 3.1,1.2 -0.3,-0.4 -0.7,-0.8 -0.7,-1 0.1,-0.5 0.3,-0.8 -0.4,-1 0.2,-0.2 0.4,-0.3 0.6,-0.5 -0.1,-0.2 -0.1,-0.5 -0.2,-0.7 0.1,-0.1 0.3,-0.1 0.4,-0.2 0.1,-0.1 0.1,-0.3 0.2,-0.5 -0.4,-0.1 -0.8,-0.2 -1.1,-0.5 -0.1,-0.1 -0.2,-0.2 -0.3,-0.3 -2.4,-0.2 -4.8,0 -7.2,0.6 -0.1,0 -0.2,0 -0.2,0.1 0.1,0 0.4,0.1 0.7,0 z"
   id="path12"
   inkscape:connector-curvature="0"
   style="fill:#ffffff" />
		<path
   class="st2"
   d="m 427.3,5641.6 c 0.4,-0.2 0.6,-0.5 0.7,-0.8 0.1,-0.2 0.1,-0.4 0.2,-0.5 1.2,-0.5 1.8,-1.6 2.1,-2.8 0.2,-0.7 0.7,-1.1 1.2,-1.2 1.1,-0.3 1.3,-1.1 1.6,-1.9 0.4,-1.3 0.7,-2.7 1.6,-3.8 l 0.1,-0.1 c 0,-0.3 0,-0.5 0,-0.9 -0.7,0.1 -1.2,-0.7 -1.9,-0.4 -0.7,0.3 -1.3,0.1 -1.9,-0.1 -0.2,-0.1 -0.5,0.2 -0.9,0.3 -0.4,-0.6 -0.9,-1.2 -1.5,-1.9 -0.6,0 -1.3,0 -2.1,0 -0.8,-0.4 -1.7,-0.7 -2.6,-1.1 -0.3,0.3 -0.4,0.6 -1,0.5 -0.6,-0.2 -1.4,-0.5 -2,0.3 -0.1,-0.2 -0.2,-0.4 -0.3,-0.6 -0.3,0.4 -0.4,1 -1,1 -0.7,0.1 0,1.2 -0.8,1.3 0.2,0.6 0.3,1.2 0.5,2.1 -0.3,0.4 -0.6,1 -1,1.6 0.6,0.4 0.1,1.1 0.3,1.5 0.6,0.4 1.2,0.8 1.7,1.2 0.5,0.4 0.8,0.9 1.3,1.2 0.5,0.3 1.2,0.5 1.7,0.7 0.6,1.9 0.8,3.6 0.4,5.4 0.1,0.2 0.4,0.4 0.4,0.6 0,0.5 0,1 0.1,1.5 0,0.1 0,0.2 0,0.2 0.4,-0.1 0.7,-0.2 1.1,-0.3 0.1,0 0.2,0 0.2,-0.1 0.5,-1.2 0.8,-2.2 1.8,-2.9 z"
   id="path14"
   inkscape:connector-curvature="0"
   style="fill:#ffffff" />
		<path
   class="st2"
   d="m 438.4,5611.6 c -0.7,0.6 -0.7,1.3 -0.5,2 0.1,0.3 0.2,0.7 0.1,1 -0.4,1.3 0,2.6 -0.4,4 0.3,0 0.5,0 0.8,0 0.1,0.7 0.5,1.2 0.1,1.9 -0.1,0.2 0,0.8 0.2,1 1.1,0.6 1.1,2 2.2,2.4 0.5,-0.4 1,-0.8 1.6,-1.2 0,-1.7 -0.2,-3.4 -0.7,-5.1 -0.6,-2.5 -1.7,-4.8 -3.1,-6.9 h -0.1 c 0.1,0.2 0,0.7 -0.2,0.9 z"
   id="path16"
   inkscape:connector-curvature="0"
   style="fill:#ffffff" />
		<path
   class="st2"
   d="m 431.9,5605.4 c 0.3,0.3 0.5,0.7 0.7,0.9 0.8,0 1.4,0.1 2.2,0.1 -0.1,0.4 -0.1,0.6 -0.3,1.2 0.5,0.3 1.1,0.6 1.7,0.9 -0.2,0.3 -0.5,0.6 -0.7,0.8 0.5,0.8 0.8,1.4 1.2,2.1 0.3,0.1 0.7,0.1 1.2,0.2 -0.2,-0.6 0.6,-1.2 -0.3,-1.7 0,-0.4 -0.2,-0.7 -0.3,-1.1 -1.2,-1.4 -2.6,-2.7 -4.2,-3.8 -0.3,-0.1 -0.7,-0.1 -1.2,0.4 z"
   id="path18"
   inkscape:connector-curvature="0"
   style="fill:#ffffff" />
		<path
   class="st2"
   d="m 418.4,5623.5 c -0.4,0 -0.9,0.2 -1.1,0.1 -1,-0.6 -1.7,0 -2.6,0.2 0.5,1.1 0.8,0.2 1.1,0 1,-0.1 1.9,1.1 3,0.1 -0.1,-0.1 -0.2,-0.4 -0.4,-0.4 z"
   id="path20"
   inkscape:connector-curvature="0"
   style="fill:#ffffff" />
		<path
   class="st2"
   d="m 421.4,5610.9 c 0,0.2 -0.1,0.4 -0.2,0.6 0.7,0 1.2,0 1.8,0 -0.1,-0.3 -0.1,-0.5 -0.2,-0.7 -0.5,-0.2 -1,-0.4 -1.4,-0.5 0.1,0.2 0.1,0.4 0,0.6 z"
   id="path22"
   inkscape:connector-curvature="0"
   style="fill:#ffffff" />
		<path
   class="st2"
   d="m 419.5,5624.3 c 0.2,0.2 0.5,0.4 0.7,0.5 0.6,-0.9 1.7,-0.5 2.6,-1.2 -1.2,0.1 -2.2,0.2 -3.1,0.3 -0.1,0 -0.1,0.2 -0.2,0.4 z"
   id="path24"
   inkscape:connector-curvature="0"
   style="fill:#ffffff" />
		<path
   class="st2"
   d="m 424.9,5602.8 c 1.2,0.8 1.2,0.8 2.1,-0.1 -0.8,-0.4 -0.8,-0.4 -2.1,0.1 z"
   id="path26"
   inkscape:connector-curvature="0"
   style="fill:#ffffff" />
	</g>
</g>
<g
   id="g34"
   transform="translate(-29.7,-29.3)">
	<text
   transform="translate(393.157,5668.8198)"
   class="st2"
   style="font-size:10px;font-family:Montserrat-Regular;fill:#ffffff"
   id="text32">PASSPORT</text>

</g>
<g
   id="g45"
   transform="translate(-17.7,-39.3)">
	<g
   id="g43">
		<path
   id="y_2_"
   class="st3"
   d="m 88.6,53.7 h -3.1 l -1.8,7.5 v 0 l -0.2,1 c -0.2,0 -0.3,0.1 -0.5,0.1 -0.3,0.1 -0.6,0.1 -1,0.1 -0.4,0 -0.7,-0.1 -0.9,-0.2 -0.2,-0.1 -0.4,-0.3 -0.5,-0.5 -0.1,-0.2 -0.1,-0.4 -0.1,-0.7 0,-0.3 0.1,-0.6 0.2,-0.9 l 0.9,-3.9 0.6,-2.6 v 0 h -3.1 l -1.4,6 c -0.2,0.7 -0.3,1.4 -0.3,2 0,0.7 0.1,1.2 0.3,1.7 0.2,0.5 0.6,0.9 1.1,1.2 0.5,0.3 1.3,0.4 2.2,0.4 0.7,0 1.3,-0.1 1.8,-0.2 0,0 0,0 0.1,0 v 0 c -0.1,0.6 -0.4,1.1 -0.9,1.5 -0.4,0.4 -1.1,0.6 -2,0.6 -0.4,0 -0.7,0 -1,-0.1 l -0.6,2.5 c 0.4,0 0.9,0.1 1.3,0.1 0.9,0 1.7,-0.1 2.4,-0.3 0.7,-0.2 1.3,-0.5 1.8,-1 0.5,-0.4 0.9,-1 1.3,-1.6 0.3,-0.7 0.6,-1.4 0.8,-2.3 l 2.1,-8.9 v 0 z"
   inkscape:connector-curvature="0"
   style="fill:#002855" />
		<path
   id="a_2_"
   class="st3"
   d="m 75.8,60.1 c -0.2,0.8 -0.2,1.6 -0.2,2.3 0.1,0.8 0.4,2 0.7,2.6 H 73.4 C 73,64.4 73,64.1 73,63.9 c -0.4,0.3 -0.8,0.6 -1.3,0.8 -0.5,0.2 -1,0.3 -1.6,0.3 -0.7,0 -1.3,-0.1 -1.8,-0.4 -0.5,-0.2 -0.9,-0.6 -1.2,-1 -0.3,-0.4 -0.5,-0.9 -0.7,-1.4 -0.1,-0.5 -0.2,-1.1 -0.2,-1.7 0,-0.9 0.2,-1.8 0.5,-2.7 0.3,-0.8 0.8,-1.6 1.4,-2.2 0.6,-0.6 2,-2 4.4,-2 1,0 2.4,0 4.7,0 z m -2.1,-3.8 c -1.4,0 -1.7,0 -2.3,0.3 -0.4,0.2 -0.8,0.5 -1.1,0.9 -0.3,0.4 -0.5,0.8 -0.7,1.3 -0.2,0.5 -0.3,1 -0.3,1.5 0,0.7 0.1,1.2 0.3,1.6 0.2,0.4 0.6,0.6 1.2,0.6 0.3,0 0.6,-0.1 0.9,-0.2 0.3,-0.1 0.5,-0.3 0.8,-0.6 0,-0.3 0.1,-0.7 0.1,-1.1 0.1,-0.4 0.1,-0.7 0.2,-1 l 0.9,-3.3"
   inkscape:connector-curvature="0"
   style="fill:#002855" />
		<path
   id="p_2_"
   class="st3"
   d="m 65.5,58.2 c 0,1 -0.2,1.9 -0.5,2.8 -0.3,0.9 -0.8,1.6 -1.4,2.2 -0.6,0.6 -1.3,1.1 -2.1,1.4 -0.8,0.3 -1.7,0.5 -2.7,0.5 -0.5,0 -0.9,0 -1.4,-0.1 l -0.9,3.7 h -3.1 l 3.6,-15 c 0.5,0 3.2,0 4.1,0 0.8,0 1.4,0.1 2,0.4 0.6,0.2 1,0.6 1.4,1 0.4,0.4 0.6,0.9 0.8,1.4 0.1,0.5 0.2,1.1 0.2,1.7 z M 58,62.4 c 0.2,0.1 0.5,0.1 0.9,0.1 0.5,0 1,-0.1 1.5,-0.3 0.4,-0.2 0.8,-0.5 1.1,-0.8 0.3,-0.4 0.5,-0.8 0.7,-1.3 0.2,-0.5 0.3,-1.1 0.3,-1.7 0,-0.6 -0.1,-1.1 -0.4,-1.5 -0.3,-0.4 -0.7,-0.6 -1.4,-0.6 -0.4,0 -1.2,0 -1.2,0 z"
   inkscape:connector-curvature="0"
   style="fill:#002855" />
		<path
   id="t_2_"
   class="st3"
   d="m 51.6,62.4 c -0.4,0 -0.7,-0.1 -0.9,-0.2 C 50.5,62.1 50.3,61.9 50.2,61.7 50.1,61.6 50,61.3 50,61 c 0,-0.3 0.1,-0.6 0.2,-0.9 l 0.9,-3.9 h 3.5 l 0.6,-2.6 h -3.5 l 0.8,-3.3 -3.2,0.7 -2.1,8.7 c -0.2,0.7 -0.3,1.4 -0.3,2 0,0.7 0.1,1.2 0.3,1.7 0.2,0.5 0.6,0.9 1.1,1.2 0.5,0.3 1.3,0.4 2.2,0.4 0.7,0 1.3,-0.1 1.8,-0.2 0,0 0.1,0 0.2,0 l 0.6,-2.7 c -0.2,0.1 -0.4,0.1 -0.6,0.2 -0.3,0.1 -0.6,0.1 -0.9,0.1 z"
   inkscape:connector-curvature="0"
   style="fill:#002855" />
		<polygon
   id="i_bottom_2_"
   class="st3"
   points="41.1,65 44.2,65 46.8,53.7 43.8,53.7 "
   style="fill:#002855" />
		<polygon
   id="i_top_2_"
   class="st3"
   points="47.6,50.4 44.6,50.4 44.1,52.4 47.2,52.4 "
   style="fill:#002855" />
		<path
   id="b_2_"
   class="st3"
   d="m 37,53.7 c 0.7,0 1.2,0.1 1.7,0.4 0.5,0.2 0.9,0.5 1.2,0.9 0.3,0.4 0.5,0.9 0.7,1.4 0.2,0.5 0.2,1.1 0.2,1.7 0,0.9 -0.2,1.8 -0.5,2.7 -0.4,0.8 -0.8,1.6 -1.4,2.2 -0.6,0.6 -1.3,1.1 -2.1,1.5 -0.8,0.4 -1.7,0.5 -2.7,0.5 -0.1,0 -0.3,0 -0.7,0 -0.3,0 -0.7,0 -1.1,-0.1 -0.4,-0.1 -0.8,-0.1 -1.3,-0.2 -0.4,-0.1 -0.9,-0.3 -1.3,-0.4 l 3.6,-14.9 3.2,-0.5 -1.3,5.3 c 0.3,-0.1 0.5,-0.2 0.8,-0.3 0.4,-0.1 0.7,-0.2 1,-0.2 z m -2.6,8.8 c 0.5,0 0.9,-0.1 1.3,-0.4 0.4,-0.2 0.8,-0.5 1.1,-0.9 0.3,-0.4 0.6,-0.8 0.7,-1.3 0.2,-0.5 0.3,-1 0.3,-1.5 0,-0.7 -0.1,-1.2 -0.3,-1.5 -0.2,-0.4 -0.7,-0.5 -1.3,-0.5 -0.2,0 -0.4,0 -0.7,0.1 -0.3,0.1 -0.6,0.2 -0.8,0.4 l -1.3,5.6 c 0.4,0.1 0.5,0.1 0.6,0.1 0.1,-0.1 0.2,-0.1 0.4,-0.1 z"
   inkscape:connector-curvature="0"
   style="fill:#002855" />
	</g>
</g>
</svg>