<?xml version="1.0" encoding="utf-8"?>
<!-- Generator: Adobe Illustrator 23.0.0, SVG Export Plug-In . SVG Version: 6.00 Build 0)  -->
<svg version="1.1" id="Layer_1" xmlns="http://www.w3.org/2000/svg" xmlns:xlink="http://www.w3.org/1999/xlink" x="0px" y="0px"
	 viewBox="0 0 120.2 120.2" style="enable-background:new 0 0 120.2 120.2;" xml:space="preserve">
<style type="text/css">
	.st0{fill:#00A9CE;}
	.st1{fill:#00A9CE;stroke:#FFFFFF;stroke-linecap:round;stroke-linejoin:round;stroke-miterlimit:10;}
	.st2{fill:#FFFFFF;}
	.st3{fill:#3D3D3D;}
</style>
<title>packages</title>
<path class="st0" d="M453.1,5589.6v93c0,1.7-1.3,3-3,3h-60c-1.7,0-3-1.3-3-3v-93c0-1.7,1.3-3,3-3h60
	C451.8,5586.6,453.1,5587.9,453.1,5589.6z"/>
<g>
	
		<ellipse transform="matrix(0.9699 -0.2435 0.2435 0.9699 -1356.5619 271.5286)" class="st1" cx="420" cy="5623" rx="22.5" ry="22"/>
	<g>
		<path class="st2" d="M401.3,5612.5c-0.1,0.4,0.2,0.9,0.3,1.3c0.1,0.5-0.1,1,0,1.4c0.3,1.1,0.3,1.1,0.1,2c0,0.2,0,0.3-0.1,0.5
			c-0.1,1.1-0.2,2.2,0.6,3.2c0.4,0.6,1,0.6,1.4,1.1c0.1,0.3,0.2,0.7,0.2,1s0.8,0.4,0.4,0.8c0.3,0.2,0.7,0.3,1,0.5c0-0.2,0-0.5-0.1-1
			c0.3,0.2,0.5,0.3,0.7,0.5c0.4,0.4,0.7,0.8,1.1,1.2c0.4,0.4,1,0.6,0.7,1.3c1.1,0.6,2.2,1.2,3.6,1c0.6-0.1,1.2-0.3,1.8,0.2
			c0.3,0.3,0.8,0.3,1.2,0.4c0.1,0,0.2-0.2,0.4-0.3c2,1.8,2,1.8,4.3,1c0-0.1,0-0.2,0-0.2c-0.3,0-0.7,0-1,0.1c-1.1,0-1.3-0.2-1.5-1.3
			c-0.1-0.3-0.3-0.6-0.5-0.9c-0.7,0.1-1.2,0.2-1.8,0.3c0.1-0.8,0.1-1.4,0.2-2.1c-0.4,0.1-0.8,0.2-1.1,0.3c-0.2,0.5-0.1,1.1-0.8,1.3
			c-0.8,0.2-1.2-0.2-1.7-0.5c-0.2-0.9-0.5-1.8-0.7-2.7c1-1.2,1-1.2,2.4-1.2c0-0.2,0-0.4,0.1-0.8c0.7,0,1.5,0,2.1-0.1
			c0.6,0.6,1.1,1.2,1.6,1.8c0.2-1.1-0.6-1.7-0.9-2.7c0.4-0.5,0.9-1,1.3-1.6c0.4-0.5,0.4-0.6-0.3-1.4c0.2-0.2,0.6-0.4,0.7-0.7
			c0.1-0.8,0.7-1.1,1.2-1.5c0-0.3-0.1-0.5-0.1-0.8c0.4-0.2,0.8-0.4,1.2-0.6c0.1,0.2,0.2,0.4,0.3,0.6c0.6-0.6,1.1-1.1,1.7-1.6
			c-0.1-0.1-0.1-0.2-0.2-0.2c-0.3,0.2-0.6,0.4-0.9,0.7c-0.2-0.2-0.5-0.3-0.9-0.6c0.5-0.6,0.9-1,1.2-1.5c0.3-0.6,1-0.7,1.3-1.1
			c-0.5-0.6-1-0.8-1.7-0.9c-0.5,0-0.9-0.2-1.2-0.7c-0.2-0.3-0.4-0.5-0.7-0.7c-0.1-0.1-0.3-0.1-0.5-0.1c-0.1,0.3-0.2,0.6-0.3,1
			c-1.1-0.3-1.7-2.1-3.1-1.1c0.1,0.7-0.3,1.4,0.4,2c0.1,0.1,0.1,0.4,0.1,0.5c-0.7,0.6-0.2,1.4-0.3,2c-1.2,0.2-1-0.9-1.3-1.4
			c-0.6,0-1,0.1-1.4,0s-0.8-0.3-1.2-0.4c-0.4-0.2-0.5-0.6-0.4-1c0.2-0.7,0.8-1.1,1.1-1.7c0.1-0.4,0.8,0,1.2,0c0.3,0,0.6-0.1,1.3-0.3
			c-0.6-0.2-1-0.4-1.2-0.5c0.2-0.4,0.4-0.7,0.5-1c0.4-1.2,0.6-1.3,1.6-0.7c0.2,0.1,0.3,0.2,0.5,0.3c-0.4,0.5-0.7,0.9-1.1,1.4
			c1.2-0.2,1.2-0.2,2.5,0.6c0.3-0.3,0.6-0.5,0.9-0.8c-0.2-0.2-0.3-0.3-0.5-0.5c0.2-0.4,0.3-0.7,0.5-1c-1.4-0.6-2.6-1.1-3.8-1.7
			c-0.7,0.1-1.2,0.2-1.8,0.4c0-0.1,0-0.2-0.1-0.3c0.5-0.1,1.1-0.3,1.5-0.4c0.1-0.3,0.2-0.5,0.3-0.7c-0.3,0.1-0.6,0.2-0.9,0.3
			c0,0.1,0.1,0.1,0.1,0.2c-0.3,0-0.6,0-0.8,0c-0.5,0.2-0.9,0.4-1.4,0.6c-0.2,0.4-0.5,0.7-0.7,1.1c0.2,0.3,0.4,0.5,0.8,1.1
			c-0.7-0.2-1-0.3-1.3-0.4c0.1-0.3,0.1-0.6,0.2-0.8c-0.3-0.1-0.5-0.1-0.8-0.2c-0.7,0.4-1.3,0.8-1.9,1.3c0.2,0,0.3,0.1,0.5,0.1
			c-0.2,0.3-0.3,0.4-0.4,0.6c-0.2-0.1-0.5-0.2-0.7-0.2c-2,1.6-3.8,3.5-5.2,5.6C401.3,5611.7,401.4,5612,401.3,5612.5z M411.5,5603.9
			c0.3,0.4,0.6,0.9,0.9,1.3c-0.1,0.1-0.2,0.2-0.3,0.3c-0.5-0.4-1-0.8-1.6-1.3C410.9,5604.1,411.2,5604,411.5,5603.9z"/>
		<path class="st2" d="M415.3,5601.9c0.6-0.2,1.2-0.1,1.7,0.5c0.4,0.4,1.1,0.3,1.5,0.8c0.1,0.1,0.3,0,0.5,0
			c-0.1,0.2-0.2,0.4-0.3,0.8c0.6,0.2,1.4,0.3,1.7,0.7c0.7,1,1.7,1.2,3.1,1.2c-0.3-0.4-0.7-0.8-0.7-1c0.1-0.5,0.3-0.8-0.4-1
			c0.2-0.2,0.4-0.3,0.6-0.5c-0.1-0.2-0.1-0.5-0.2-0.7c0.1-0.1,0.3-0.1,0.4-0.2s0.1-0.3,0.2-0.5c-0.4-0.1-0.8-0.2-1.1-0.5
			c-0.1-0.1-0.2-0.2-0.3-0.3c-2.4-0.2-4.8,0-7.2,0.6c-0.1,0-0.2,0-0.2,0.1C414.7,5601.9,415,5602,415.3,5601.9z"/>
		<path class="st2" d="M427.3,5641.6c0.4-0.2,0.6-0.5,0.7-0.8c0.1-0.2,0.1-0.4,0.2-0.5c1.2-0.5,1.8-1.6,2.1-2.8
			c0.2-0.7,0.7-1.1,1.2-1.2c1.1-0.3,1.3-1.1,1.6-1.9c0.4-1.3,0.7-2.7,1.6-3.8l0.1-0.1c0-0.3,0-0.5,0-0.9c-0.7,0.1-1.2-0.7-1.9-0.4
			c-0.7,0.3-1.3,0.1-1.9-0.1c-0.2-0.1-0.5,0.2-0.9,0.3c-0.4-0.6-0.9-1.2-1.5-1.9c-0.6,0-1.3,0-2.1,0c-0.8-0.4-1.7-0.7-2.6-1.1
			c-0.3,0.3-0.4,0.6-1,0.5c-0.6-0.2-1.4-0.5-2,0.3c-0.1-0.2-0.2-0.4-0.3-0.6c-0.3,0.4-0.4,1-1,1c-0.7,0.1,0,1.2-0.8,1.3
			c0.2,0.6,0.3,1.2,0.5,2.1c-0.3,0.4-0.6,1-1,1.6c0.6,0.4,0.1,1.1,0.3,1.5c0.6,0.4,1.2,0.8,1.7,1.2c0.5,0.4,0.8,0.9,1.3,1.2
			c0.5,0.3,1.2,0.5,1.7,0.7c0.6,1.9,0.8,3.6,0.4,5.4c0.1,0.2,0.4,0.4,0.4,0.6c0,0.5,0,1,0.1,1.5c0,0.1,0,0.2,0,0.2
			c0.4-0.1,0.7-0.2,1.1-0.3c0.1,0,0.2,0,0.2-0.1C426,5643.3,426.3,5642.3,427.3,5641.6z"/>
		<path class="st2" d="M438.4,5611.6c-0.7,0.6-0.7,1.3-0.5,2c0.1,0.3,0.2,0.7,0.1,1c-0.4,1.3,0,2.6-0.4,4c0.3,0,0.5,0,0.8,0
			c0.1,0.7,0.5,1.2,0.1,1.9c-0.1,0.2,0,0.8,0.2,1c1.1,0.6,1.1,2,2.2,2.4c0.5-0.4,1-0.8,1.6-1.2c0-1.7-0.2-3.4-0.7-5.1
			c-0.6-2.5-1.7-4.8-3.1-6.9h-0.1C438.7,5610.9,438.6,5611.4,438.4,5611.6z"/>
		<path class="st2" d="M431.9,5605.4c0.3,0.3,0.5,0.7,0.7,0.9c0.8,0,1.4,0.1,2.2,0.1c-0.1,0.4-0.1,0.6-0.3,1.2
			c0.5,0.3,1.1,0.6,1.7,0.9c-0.2,0.3-0.5,0.6-0.7,0.8c0.5,0.8,0.8,1.4,1.2,2.1c0.3,0.1,0.7,0.1,1.2,0.2c-0.2-0.6,0.6-1.2-0.3-1.7
			c0-0.4-0.2-0.7-0.3-1.1c-1.2-1.4-2.6-2.7-4.2-3.8C432.8,5604.9,432.4,5604.9,431.9,5605.4z"/>
		<path class="st2" d="M418.4,5623.5c-0.4,0-0.9,0.2-1.1,0.1c-1-0.6-1.7,0-2.6,0.2c0.5,1.1,0.8,0.2,1.1,0c1-0.1,1.9,1.1,3,0.1
			C418.7,5623.8,418.6,5623.5,418.4,5623.5z"/>
		<path class="st2" d="M421.4,5610.9c0,0.2-0.1,0.4-0.2,0.6c0.7,0,1.2,0,1.8,0c-0.1-0.3-0.1-0.5-0.2-0.7c-0.5-0.2-1-0.4-1.4-0.5
			C421.5,5610.5,421.5,5610.7,421.4,5610.9z"/>
		<path class="st2" d="M419.5,5624.3c0.2,0.2,0.5,0.4,0.7,0.5c0.6-0.9,1.7-0.5,2.6-1.2c-1.2,0.1-2.2,0.2-3.1,0.3
			C419.6,5623.9,419.6,5624.1,419.5,5624.3z"/>
		<path class="st2" d="M424.9,5602.8c1.2,0.8,1.2,0.8,2.1-0.1C426.2,5602.3,426.2,5602.3,424.9,5602.8z"/>
	</g>
</g>
<g>
	<text transform="matrix(1 0 0 1 393.157 5668.8198)" class="st2" style="font-family:'Montserrat-Regular'; font-size:10px;">PASSPORT</text>
</g>
<g>
	<path class="st0" d="M110.9,31.5c0-1.2-1-2.2-2.2-2.2H14.1c-1.2,0-2.2,1-2.2,2.2v18.6h99V31.5z"/>
</g>
<path class="st0" d="M107.9,95.3h-93c-1.9,0-3.5-1.6-3.5-3.5v-60c0-1.9,1.6-3.5,3.5-3.5h93c1.9,0,3.5,1.6,3.5,3.5v60
	C111.4,93.7,109.9,95.3,107.9,95.3z M14.9,29.3c-1.4,0-2.5,1.1-2.5,2.5v60c0,1.4,1.1,2.5,2.5,2.5h93c1.4,0,2.5-1.1,2.5-2.5v-60
	c0-1.4-1.1-2.5-2.5-2.5C107.9,29.3,14.9,29.3,14.9,29.3z"/>
<g>
	<g>
		<path class="st2" d="M23.3,36c2.1,0,3.6,1.5,3.6,3.5S25.4,43,23.3,43h-2.8v-7H23.3z M21.6,41.9h1.7c1.4,0,2.4-1,2.4-2.4
			s-1.1-2.4-2.4-2.4h-1.7V41.9z"/>
		<path class="st2" d="M31.3,40.9c-0.1,0-0.2,0-0.3,0h-1.7V43h-1.2v-7H31c1.8,0,2.8,0.9,2.8,2.4c0,1.1-0.5,1.9-1.4,2.3L34,43h-1.3
			L31.3,40.9z M31,39.8c1.1,0,1.7-0.5,1.7-1.4S32.1,37,31,37h-1.7v2.8C29.3,39.8,31,39.8,31,39.8z"/>
		<path class="st2" d="M35.4,43v-7h1.2v7H35.4z"/>
		<path class="st2" d="M40.3,43l-2.8-7h1.3l2.2,5.7l2.2-5.7h1.2l-2.8,7H40.3z"/>
		<path class="st2" d="M46.5,37v1.9h3.4V40h-3.4v1.9h3.9V43h-5.1v-7h5v1H46.5z"/>
		<path class="st2" d="M55,40.9c-0.1,0-0.2,0-0.3,0H53V43h-1.2v-7h2.8c1.8,0,2.8,0.9,2.8,2.4c0,1.1-0.5,1.9-1.4,2.3l1.6,2.3h-1.3
			L55,40.9z M54.7,39.8c1.1,0,1.7-0.5,1.7-1.4S55.8,37,54.7,37H53v2.8C53,39.8,54.7,39.8,54.7,39.8z"/>
		<path class="st2" d="M65.9,41.9V43h-4.2v-7h1.2v5.9H65.9z"/>
		<path class="st2" d="M67,43v-7h1.2v7H67z"/>
		<path class="st2" d="M75.8,37l-0.7,0.9c-0.5-0.5-1.2-0.9-1.9-0.9c-1.4,0-2.5,1.1-2.5,2.5s1.1,2.5,2.5,2.5c0.7,0,1.4-0.3,1.9-0.8
			l0.7,0.8c-0.7,0.7-1.7,1.1-2.7,1.1c-2,0-3.6-1.5-3.6-3.6c0-2,1.6-3.5,3.7-3.5C74.1,35.9,75.1,36.4,75.8,37z"/>
		<path class="st2" d="M78.2,37v1.9h3.4V40h-3.4v1.9h3.9V43H77v-7h5v1H78.2z"/>
		<path class="st2" d="M88.5,43l-3.7-5v5h-1.2v-7h1.2l3.7,5v-5h1.2v7H88.5z"/>
		<path class="st2" d="M96.3,36.6l-0.5,1c-0.8-0.5-1.5-0.6-2-0.6c-0.7,0-1.1,0.3-1.1,0.7c0,1.5,3.8,0.7,3.8,3.2c0,1.2-1.1,2-2.6,2
			c-1.1,0-2.1-0.5-2.9-1.1l0.5-1c0.7,0.7,1.6,1,2.4,1s1.3-0.3,1.3-0.8c0-1.6-3.8-0.7-3.8-3.2c0-1.2,1-1.9,2.5-1.9
			C94.7,35.9,95.6,36.2,96.3,36.6z"/>
		<path class="st2" d="M98.9,37v1.9h3.4V40h-3.4v1.9h3.9V43h-5.1v-7h5v1H98.9z"/>
	</g>
</g>
<path class="st0" d="M30.2,58.2c3.2,0,5.9,2.6,5.9,5.8c0,3.2-2.6,5.9-5.8,5.9s-5.9-2.6-5.9-5.8c0,0,0,0,0,0
	C24.3,60.8,27,58.2,30.2,58.2"/>
<path class="st0" d="M34.6,72.8c0.7,0,1.3,0.4,1.6,0.9l3,5.9c1,1.9,0.2,4.2-1.7,5.1c-0.5,0.3-1.1,0.4-1.7,0.4H24.6
	c-2.1,0-3.8-1.7-3.8-3.8c0-0.6,0.1-1.2,0.4-1.7l3-5.9c0.3-0.6,0.9-1,1.6-1L34.6,72.8"/>
<g>
	<path class="st3" d="M69.3,73H46.2c-0.3,0-0.5-0.2-0.5-0.5S46,72,46.2,72h23.1c0.3,0,0.5,0.2,0.5,0.5S69.6,73,69.3,73z"/>
	<path class="st3" d="M59.5,82.5H46.2c-0.3,0-0.5-0.2-0.5-0.5s0.2-0.5,0.5-0.5h13.3c0.3,0,0.5,0.2,0.5,0.5S59.8,82.5,59.5,82.5z"/>
	<path class="st3" d="M69.3,62.9H46.2c-0.3,0-0.5-0.2-0.5-0.5s0.2-0.5,0.5-0.5h23.1c0.3,0,0.5,0.2,0.5,0.5S69.6,62.9,69.3,62.9z"/>
</g>
<path class="st0" d="M103.5,77.5H75.7c-0.8,0-1.4-0.6-1.4-1.4v-4.6c0-0.8,0.6-1.4,1.4-1.4c0,0,6.3-0.2,9.1-1.8l1.4-0.8
	c3.3-1.9,4.2-2.4,6.7-2.4h0c1.2,0,4.4,0.5,6.6,1.8c1.4,0.8,2.3,2,2.9,2.8c0.3,0.3,0.5,0.7,0.7,0.8c0.4,0.3,0.8,0.4,1.1,0.4
	c0.2,0,0.7,0.1,0.7,0.6v4.6C104.9,76.9,104.3,77.5,103.5,77.5z M92.8,66.1c-2.2,0-3,0.4-6.1,2.2l-1.4,0.8c-3,1.7-9.4,1.9-9.6,2
	c-0.2,0-0.4,0.2-0.4,0.4v4.6c0,0.2,0.2,0.4,0.4,0.4h27.9c0.2,0,0.4-0.2,0.4-0.4v-4.2c-0.3-0.1-0.8-0.2-1.4-0.6
	c-0.3-0.2-0.5-0.5-0.9-1c-0.6-0.8-1.4-1.8-2.6-2.6C97,66.5,94,66.1,92.8,66.1C92.9,66.1,92.9,66.1,92.8,66.1z"/>
<g>
	<circle class="st2" cx="80.9" cy="77" r="3"/>
	<path class="st0" d="M80.9,80.5c-2,0-3.5-1.6-3.5-3.5s1.6-3.5,3.5-3.5s3.5,1.6,3.5,3.5S82.9,80.5,80.9,80.5z M80.9,74.5
		c-1.4,0-2.5,1.1-2.5,2.5s1.1,2.5,2.5,2.5s2.5-1.1,2.5-2.5S82.3,74.5,80.9,74.5z"/>
</g>
<g>
	<circle class="st2" cx="98.1" cy="77" r="3"/>
	<path class="st0" d="M98.1,80.5c-2,0-3.5-1.6-3.5-3.5s1.6-3.5,3.5-3.5s3.5,1.6,3.5,3.5S100.1,80.5,98.1,80.5z M98.1,74.5
		c-1.4,0-2.5,1.1-2.5,2.5s1.1,2.5,2.5,2.5s2.5-1.1,2.5-2.5S99.5,74.5,98.1,74.5z"/>
</g>
</svg>
