<?xml version="1.0" encoding="utf-8"?>
<!-- Generator: Adobe Illustrator 23.0.0, SVG Export Plug-In . SVG Version: 6.00 Build 0)  -->
<svg version="1.1" id="Layer_1" xmlns="http://www.w3.org/2000/svg" xmlns:xlink="http://www.w3.org/1999/xlink" x="0px" y="0px"
	 viewBox="0 0 120.2 120.2" style="enable-background:new 0 0 120.2 120.2;" xml:space="preserve">
<style type="text/css">
	.st0{fill:#00A9CE;}
	.st1{fill:#00A9CE;stroke:#FFFFFF;stroke-linecap:round;stroke-linejoin:round;stroke-miterlimit:10;}
	.st2{fill:#FFFFFF;}
</style>
<title>packages</title>
<path class="st0" d="M453.1,5589.6v93c0,1.7-1.3,3-3,3h-60c-1.7,0-3-1.3-3-3v-93c0-1.7,1.3-3,3-3h60
	C451.8,5586.6,453.1,5587.9,453.1,5589.6z"/>
<g>
	
		<ellipse transform="matrix(0.9699 -0.2435 0.2435 0.9699 -1356.6122 271.5598)" class="st1" cx="420.1" cy="5623" rx="22.5" ry="22"/>
	<g>
		<path class="st2" d="M401.3,5612.5c-0.1,0.4,0.2,0.9,0.3,1.3c0.1,0.5-0.1,1,0,1.4c0.3,1.1,0.3,1.1,0.1,2c0,0.2,0,0.3-0.1,0.5
			c-0.1,1.1-0.2,2.2,0.6,3.2c0.4,0.6,1,0.6,1.4,1.1c0.1,0.3,0.2,0.7,0.2,1c0,0.3,0.8,0.4,0.4,0.8c0.3,0.2,0.7,0.3,1,0.5
			c0-0.2,0-0.5-0.1-1c0.3,0.2,0.5,0.3,0.7,0.5c0.4,0.4,0.7,0.8,1.1,1.2c0.4,0.4,1,0.6,0.7,1.3c1.1,0.6,2.2,1.2,3.6,1
			c0.6-0.1,1.2-0.3,1.8,0.2c0.3,0.3,0.8,0.3,1.2,0.4c0.1,0,0.2-0.2,0.4-0.3c2,1.8,2,1.8,4.3,1c0-0.1,0-0.2,0-0.2c-0.3,0-0.7,0-1,0.1
			c-1.1,0-1.3-0.2-1.5-1.3c-0.1-0.3-0.3-0.6-0.5-0.9c-0.7,0.1-1.2,0.2-1.8,0.3c0.1-0.8,0.1-1.4,0.2-2.1c-0.4,0.1-0.8,0.2-1.1,0.3
			c-0.2,0.5-0.1,1.1-0.8,1.3c-0.8,0.2-1.2-0.2-1.7-0.5c-0.2-0.9-0.5-1.8-0.7-2.7c1-1.2,1-1.2,2.4-1.2c0-0.2,0-0.4,0.1-0.8
			c0.7,0,1.5,0,2.1-0.1c0.6,0.6,1.1,1.2,1.6,1.8c0.2-1.1-0.6-1.7-0.9-2.7c0.4-0.5,0.9-1,1.3-1.6c0.4-0.5,0.4-0.6-0.3-1.4
			c0.2-0.2,0.6-0.4,0.7-0.7c0.1-0.8,0.7-1.1,1.2-1.5c0-0.3-0.1-0.5-0.1-0.8c0.4-0.2,0.8-0.4,1.2-0.6c0.1,0.2,0.2,0.4,0.3,0.6
			c0.6-0.6,1.1-1.1,1.7-1.6c-0.1-0.1-0.1-0.2-0.2-0.2c-0.3,0.2-0.6,0.4-0.9,0.7c-0.2-0.2-0.5-0.3-0.9-0.6c0.5-0.6,0.9-1,1.2-1.5
			c0.3-0.6,1-0.7,1.3-1.1c-0.5-0.6-1-0.8-1.7-0.9c-0.5,0-0.9-0.2-1.2-0.7c-0.2-0.3-0.4-0.5-0.7-0.7c-0.1-0.1-0.3-0.1-0.5-0.1
			c-0.1,0.3-0.2,0.6-0.3,1c-1.1-0.3-1.7-2.1-3.1-1.1c0.1,0.7-0.3,1.4,0.4,2c0.1,0.1,0.1,0.4,0.1,0.5c-0.7,0.6-0.2,1.4-0.3,2
			c-1.2,0.2-1-0.9-1.3-1.4c-0.6,0-1,0.1-1.4,0c-0.4-0.1-0.8-0.3-1.2-0.4c-0.4-0.2-0.5-0.6-0.4-1c0.2-0.7,0.8-1.1,1.1-1.7
			c0.1-0.4,0.8,0,1.2,0c0.3,0,0.6-0.1,1.3-0.3c-0.6-0.2-1-0.4-1.2-0.5c0.2-0.4,0.4-0.7,0.5-1c0.4-1.2,0.6-1.3,1.6-0.7
			c0.2,0.1,0.3,0.2,0.5,0.3c-0.4,0.5-0.7,0.9-1.1,1.4c1.2-0.2,1.2-0.2,2.5,0.6c0.3-0.3,0.6-0.5,0.9-0.8c-0.2-0.2-0.3-0.3-0.5-0.5
			c0.2-0.4,0.3-0.7,0.5-1c-1.4-0.6-2.6-1.1-3.8-1.7c-0.7,0.1-1.2,0.2-1.8,0.4c0-0.1,0-0.2-0.1-0.3c0.5-0.1,1.1-0.3,1.5-0.4
			c0.1-0.3,0.2-0.5,0.3-0.7c-0.3,0.1-0.6,0.2-0.9,0.3c0,0.1,0.1,0.1,0.1,0.2c-0.3,0-0.6,0-0.8,0c-0.5,0.2-0.9,0.4-1.4,0.6
			c-0.2,0.4-0.5,0.7-0.7,1.1c0.2,0.3,0.4,0.5,0.8,1.1c-0.7-0.2-1-0.3-1.3-0.4c0.1-0.3,0.1-0.6,0.2-0.8c-0.3-0.1-0.5-0.1-0.8-0.2
			c-0.7,0.4-1.3,0.8-1.9,1.3c0.2,0,0.3,0.1,0.5,0.1c-0.2,0.3-0.3,0.4-0.4,0.6c-0.2-0.1-0.5-0.2-0.7-0.2c-2,1.6-3.8,3.5-5.2,5.6
			C401.3,5611.7,401.4,5612,401.3,5612.5z M411.5,5603.9c0.3,0.4,0.6,0.9,0.9,1.3c-0.1,0.1-0.2,0.2-0.3,0.3c-0.5-0.4-1-0.8-1.6-1.3
			C410.9,5604.1,411.2,5604,411.5,5603.9z"/>
		<path class="st2" d="M415.3,5601.9c0.6-0.2,1.2-0.1,1.7,0.5c0.4,0.4,1.1,0.3,1.5,0.8c0.1,0.1,0.3,0,0.5,0
			c-0.1,0.2-0.2,0.4-0.3,0.8c0.6,0.2,1.4,0.3,1.7,0.7c0.7,1,1.7,1.2,3.1,1.2c-0.3-0.4-0.7-0.8-0.7-1c0.1-0.5,0.3-0.8-0.4-1
			c0.2-0.2,0.4-0.3,0.6-0.5c-0.1-0.2-0.1-0.5-0.2-0.7c0.1-0.1,0.3-0.1,0.4-0.2c0.1-0.1,0.1-0.3,0.2-0.5c-0.4-0.1-0.8-0.2-1.1-0.5
			c-0.1-0.1-0.2-0.2-0.3-0.3c-2.4-0.2-4.8,0-7.2,0.6c-0.1,0-0.2,0-0.2,0.1C414.7,5601.9,415,5602,415.3,5601.9z"/>
		<path class="st2" d="M427.3,5641.6c0.4-0.2,0.6-0.5,0.7-0.8c0.1-0.2,0.1-0.4,0.2-0.5c1.2-0.5,1.8-1.6,2.1-2.8
			c0.2-0.7,0.7-1.1,1.2-1.2c1.1-0.3,1.3-1.1,1.6-1.9c0.4-1.3,0.7-2.7,1.6-3.8c0,0,0.1-0.1,0.1-0.1c0-0.3,0-0.5,0-0.9
			c-0.7,0.1-1.2-0.7-1.9-0.4c-0.7,0.3-1.3,0.1-1.9-0.1c-0.2-0.1-0.5,0.2-0.9,0.3c-0.4-0.6-0.9-1.2-1.5-1.9c-0.6,0-1.3,0-2.1,0
			c-0.8-0.4-1.7-0.7-2.6-1.1c-0.3,0.3-0.4,0.6-1,0.5c-0.6-0.2-1.4-0.5-2,0.3c-0.1-0.2-0.2-0.4-0.3-0.6c-0.3,0.4-0.4,1-1,1
			c-0.7,0.1,0,1.2-0.8,1.3c0.2,0.6,0.3,1.2,0.5,2.1c-0.3,0.4-0.6,1-1,1.6c0.6,0.4,0.1,1.1,0.3,1.5c0.6,0.4,1.2,0.8,1.7,1.2
			c0.5,0.4,0.8,0.9,1.3,1.2c0.5,0.3,1.2,0.5,1.7,0.7c0.6,1.9,0.8,3.6,0.4,5.4c0.1,0.2,0.4,0.4,0.4,0.6c0,0.5,0,1,0.1,1.5
			c0,0.1,0,0.2,0,0.2c0.4-0.1,0.7-0.2,1.1-0.3c0.1,0,0.2,0,0.2-0.1C426,5643.3,426.3,5642.3,427.3,5641.6z"/>
		<path class="st2" d="M438.4,5611.6c-0.7,0.6-0.7,1.3-0.5,2c0.1,0.3,0.2,0.7,0.1,1c-0.4,1.3,0,2.6-0.4,4c0.3,0,0.5,0,0.8,0
			c0.1,0.7,0.5,1.2,0.1,1.9c-0.1,0.2,0,0.8,0.2,1c1.1,0.6,1.1,2,2.2,2.4c0.5-0.4,1-0.8,1.6-1.2c0-1.7-0.2-3.4-0.7-5.1
			c-0.6-2.5-1.7-4.8-3.1-6.9c0,0-0.1,0-0.1,0C438.7,5610.9,438.6,5611.4,438.4,5611.6z"/>
		<path class="st2" d="M431.9,5605.4c0.3,0.3,0.5,0.7,0.7,0.9c0.8,0,1.4,0.1,2.2,0.1c-0.1,0.4-0.1,0.6-0.3,1.2
			c0.5,0.3,1.1,0.6,1.7,0.9c-0.2,0.3-0.5,0.6-0.7,0.8c0.5,0.8,0.8,1.4,1.2,2.1c0.3,0.1,0.7,0.1,1.2,0.2c-0.2-0.6,0.6-1.2-0.3-1.7
			c0-0.4-0.2-0.7-0.3-1.1c-1.2-1.4-2.6-2.7-4.2-3.8C432.8,5604.9,432.4,5604.9,431.9,5605.4z"/>
		<path class="st2" d="M418.4,5623.5c-0.4,0-0.9,0.2-1.1,0.1c-1-0.6-1.7,0-2.6,0.2c0.5,1.1,0.8,0.2,1.1,0c1-0.1,1.9,1.1,3,0.1
			C418.7,5623.8,418.6,5623.5,418.4,5623.5z"/>
		<path class="st2" d="M421.4,5610.9c0,0.2-0.1,0.4-0.2,0.6c0.7,0,1.2,0,1.8,0c-0.1-0.3-0.1-0.5-0.2-0.7c-0.5-0.2-1-0.4-1.4-0.5
			C421.5,5610.5,421.5,5610.7,421.4,5610.9z"/>
		<path class="st2" d="M419.5,5624.3c0.2,0.2,0.5,0.4,0.7,0.5c0.6-0.9,1.7-0.5,2.6-1.2c-1.2,0.1-2.2,0.2-3.1,0.3
			C419.6,5623.9,419.6,5624.1,419.5,5624.3z"/>
		<path class="st2" d="M424.9,5602.8c1.2,0.8,1.2,0.8,2.1-0.1C426.2,5602.3,426.2,5602.3,424.9,5602.8z"/>
	</g>
</g>
<g>
	<text transform="matrix(1 0 0 1 393.157 5668.8198)" class="st2" style="font-family:'Montserrat-Regular'; font-size:10px;">PASSPORT</text>
</g>
<path class="st0" d="M93.1,13.6v93c0,1.7-1.3,3-3,3h-60c-1.7,0-3-1.3-3-3v-93c0-1.7,1.3-3,3-3h60C91.8,10.6,93.1,11.9,93.1,13.6z"/>
<g>
	<g>
		<ellipse transform="matrix(0.9699 -0.2435 0.2435 0.9699 -9.6465 16.0526)" class="st0" cx="60.1" cy="47" rx="22.5" ry="22"/>
		<path class="st2" d="M59.8,69.6c-4.1,0-8.1-1.1-11.6-3.1c-5.3-3.1-9-8-10.4-13.8c-3-12,4.5-24.4,16.9-27.5
			c6-1.5,12.1-0.6,17.4,2.4c5.3,3.1,9,8,10.4,13.8c3,12-4.5,24.4-16.9,27.5C63.7,69.4,61.7,69.6,59.8,69.6z M60.4,25.5
			c-1.8,0-3.7,0.2-5.5,0.7c-11.8,3-19,14.7-16.1,26.2c1.4,5.6,4.9,10.3,10,13.2c5,2.9,10.9,3.8,16.7,2.3c11.8-3,19-14.7,16.1-26.2
			l0,0c-1.4-5.6-4.9-10.3-10-13.2C68.1,26.5,64.3,25.5,60.4,25.5z"/>
	</g>
	<g>
		<path class="st2" d="M41.3,36.5c-0.1,0.4,0.2,0.9,0.3,1.3c0.1,0.5-0.1,1,0,1.4c0.3,1.1,0.3,1.1,0.1,2c0,0.2,0,0.3-0.1,0.5
			c-0.1,1.1-0.2,2.2,0.6,3.2c0.4,0.6,1,0.6,1.4,1.1c0.1,0.3,0.2,0.7,0.2,1c0,0.3,0.8,0.4,0.4,0.8c0.3,0.2,0.7,0.3,1,0.5
			c0-0.2,0-0.5-0.1-1c0.3,0.2,0.5,0.3,0.7,0.5c0.4,0.4,0.7,0.8,1.1,1.2c0.4,0.4,1,0.6,0.7,1.3c1.1,0.6,2.2,1.2,3.6,1
			c0.6-0.1,1.2-0.3,1.8,0.2c0.3,0.3,0.8,0.3,1.2,0.4c0.1,0,0.2-0.2,0.4-0.3c2,1.8,2,1.8,4.3,1c0-0.1,0-0.2,0-0.2c-0.3,0-0.7,0-1,0.1
			c-1.1,0-1.3-0.2-1.5-1.3c-0.1-0.3-0.3-0.6-0.5-0.9c-0.7,0.1-1.2,0.2-1.8,0.3c0.1-0.8,0.1-1.4,0.2-2.1c-0.4,0.1-0.8,0.2-1.1,0.3
			c-0.2,0.5-0.1,1.1-0.8,1.3c-0.8,0.2-1.2-0.2-1.7-0.5c-0.2-0.9-0.5-1.8-0.7-2.7c1-1.2,1-1.2,2.4-1.2c0-0.2,0-0.4,0.1-0.8
			c0.7,0,1.5,0,2.1-0.1c0.6,0.6,1.1,1.2,1.6,1.8c0.2-1.1-0.6-1.7-0.9-2.7c0.4-0.5,0.9-1,1.3-1.6c0.4-0.5,0.4-0.6-0.3-1.4
			c0.2-0.2,0.6-0.4,0.7-0.7c0.1-0.8,0.7-1.1,1.2-1.5c0-0.3-0.1-0.5-0.1-0.8c0.4-0.2,0.8-0.4,1.2-0.6c0.1,0.2,0.2,0.4,0.3,0.6
			c0.6-0.6,1.1-1.1,1.7-1.6c-0.1-0.1-0.1-0.2-0.2-0.2c-0.3,0.2-0.6,0.4-0.9,0.7c-0.2-0.2-0.5-0.3-0.9-0.6c0.5-0.6,0.9-1,1.2-1.5
			c0.3-0.6,1-0.7,1.3-1.1c-0.5-0.6-1-0.8-1.7-0.9c-0.5,0-0.9-0.2-1.2-0.7c-0.2-0.3-0.4-0.5-0.7-0.7c-0.1-0.1-0.3-0.1-0.5-0.1
			c-0.1,0.3-0.2,0.6-0.3,1c-1.1-0.3-1.7-2.1-3.1-1.1c0.1,0.7-0.3,1.4,0.4,2c0.1,0.1,0.1,0.4,0.1,0.5c-0.7,0.6-0.2,1.4-0.3,2
			c-1.2,0.2-1-0.9-1.3-1.4c-0.6,0-1,0.1-1.4,0c-0.4-0.1-0.8-0.3-1.2-0.4c-0.4-0.2-0.5-0.6-0.4-1c0.2-0.7,0.8-1.1,1.1-1.7
			c0.1-0.4,0.8,0,1.2,0c0.3,0,0.6-0.1,1.3-0.3c-0.6-0.2-1-0.4-1.2-0.5c0.2-0.4,0.4-0.7,0.5-1c0.4-1.2,0.6-1.3,1.6-0.7
			c0.2,0.1,0.3,0.2,0.5,0.3c-0.4,0.5-0.7,0.9-1.1,1.4c1.2-0.2,1.2-0.2,2.5,0.6c0.3-0.3,0.6-0.5,0.9-0.8c-0.2-0.2-0.3-0.3-0.5-0.5
			c0.2-0.4,0.3-0.7,0.5-1c-1.4-0.6-2.6-1.1-3.8-1.7c-0.7,0.1-1.2,0.2-1.8,0.4c0-0.1,0-0.2-0.1-0.3c0.5-0.1,1.1-0.3,1.5-0.4
			c0.1-0.3,0.2-0.5,0.3-0.7c-0.3,0.1-0.6,0.2-0.9,0.3c0,0.1,0.1,0.1,0.1,0.2c-0.3,0-0.6,0-0.8,0c-0.5,0.2-0.9,0.4-1.4,0.6
			c-0.2,0.4-0.5,0.7-0.7,1.1c0.2,0.3,0.4,0.5,0.8,1.1c-0.7-0.2-1-0.3-1.3-0.4c0.1-0.3,0.1-0.6,0.2-0.8c-0.3-0.1-0.5-0.1-0.8-0.2
			c-0.7,0.4-1.3,0.8-1.9,1.3c0.2,0,0.3,0.1,0.5,0.1c-0.2,0.3-0.3,0.4-0.4,0.6c-0.2-0.1-0.5-0.2-0.7-0.2c-2,1.6-3.8,3.5-5.2,5.6
			C41.3,35.7,41.4,36,41.3,36.5z M51.5,27.9c0.3,0.4,0.6,0.9,0.9,1.3c-0.1,0.1-0.2,0.2-0.3,0.3c-0.5-0.4-1-0.8-1.6-1.3
			C50.9,28.1,51.2,28,51.5,27.9z"/>
		<path class="st2" d="M55.3,25.9c0.6-0.2,1.2-0.1,1.7,0.5c0.4,0.4,1.1,0.3,1.5,0.8c0.1,0.1,0.3,0,0.5,0c-0.1,0.2-0.2,0.4-0.3,0.8
			c0.6,0.2,1.4,0.3,1.7,0.7c0.7,1,1.7,1.2,3.1,1.2c-0.3-0.4-0.7-0.8-0.7-1c0.1-0.5,0.3-0.8-0.4-1c0.2-0.2,0.4-0.3,0.6-0.5
			c-0.1-0.2-0.1-0.5-0.2-0.7c0.1-0.1,0.3-0.1,0.4-0.2c0.1-0.1,0.1-0.3,0.2-0.5c-0.4-0.1-0.8-0.2-1.1-0.5c-0.1-0.1-0.2-0.2-0.3-0.3
			c-2.4-0.2-4.8,0-7.2,0.6c-0.1,0-0.2,0-0.2,0.1C54.7,25.9,55,26,55.3,25.9z"/>
		<path class="st2" d="M67.3,65.6c0.4-0.2,0.6-0.5,0.7-0.8c0.1-0.2,0.1-0.4,0.2-0.5c1.2-0.5,1.8-1.6,2.1-2.8
			c0.2-0.7,0.7-1.1,1.2-1.2c1.1-0.3,1.3-1.1,1.6-1.9c0.4-1.3,0.7-2.7,1.6-3.8c0,0,0.1-0.1,0.1-0.1c0-0.3,0-0.5,0-0.9
			c-0.7,0.1-1.2-0.7-1.9-0.4c-0.7,0.3-1.3,0.1-1.9-0.1c-0.2-0.1-0.5,0.2-0.9,0.3c-0.4-0.5-0.9-1.2-1.5-1.9c-0.6,0-1.3,0-2.1,0
			c-0.8-0.4-1.7-0.7-2.6-1.1c-0.3,0.3-0.4,0.6-1,0.5c-0.6-0.2-1.4-0.5-2,0.3c-0.1-0.2-0.2-0.4-0.3-0.6c-0.3,0.4-0.4,1-1,1
			c-0.7,0.1,0,1.2-0.8,1.3c0.2,0.6,0.3,1.2,0.5,2.1c-0.3,0.4-0.6,1-1,1.6c0.6,0.4,0.1,1.1,0.3,1.5c0.6,0.4,1.2,0.8,1.7,1.2
			c0.5,0.4,0.8,0.9,1.3,1.2c0.5,0.3,1.2,0.5,1.7,0.7c0.6,1.9,0.8,3.6,0.4,5.4c0.1,0.2,0.4,0.4,0.4,0.6c0,0.5,0,1,0.1,1.5
			c0,0.1,0,0.2,0,0.2c0.4-0.1,0.7-0.2,1.1-0.3c0.1,0,0.2,0,0.2-0.1C66,67.3,66.3,66.3,67.3,65.6z"/>
		<path class="st2" d="M78.4,35.6c-0.7,0.6-0.7,1.3-0.5,2c0.1,0.3,0.2,0.7,0.1,1c-0.4,1.3,0,2.6-0.4,4c0.3,0,0.5,0,0.8,0
			c0.1,0.7,0.5,1.2,0.1,1.9c-0.1,0.2,0,0.8,0.2,1c1.1,0.6,1.1,2,2.2,2.4c0.5-0.4,1-0.8,1.6-1.2c0-1.7-0.2-3.4-0.7-5.1
			c-0.6-2.5-1.7-4.8-3.1-6.9c0,0-0.1,0-0.1,0C78.7,34.9,78.6,35.4,78.4,35.6z"/>
		<path class="st2" d="M71.9,29.4c0.3,0.3,0.5,0.7,0.7,0.9c0.8,0,1.4,0.1,2.2,0.1c-0.1,0.4-0.1,0.6-0.3,1.2c0.5,0.3,1.1,0.6,1.7,0.9
			c-0.2,0.3-0.5,0.6-0.7,0.8c0.5,0.8,0.8,1.4,1.2,2.1c0.3,0.1,0.7,0.1,1.2,0.2c-0.2-0.6,0.6-1.2-0.3-1.7c0-0.4-0.2-0.7-0.3-1.1
			c-1.2-1.4-2.6-2.7-4.2-3.8C72.8,28.9,72.4,28.9,71.9,29.4z"/>
		<path class="st2" d="M58.4,47.5c-0.4,0-0.9,0.2-1.1,0.1c-1-0.6-1.7,0-2.6,0.2c0.5,1.1,0.8,0.2,1.1,0c1-0.1,1.9,1.1,3,0.1
			C58.7,47.8,58.6,47.5,58.4,47.5z"/>
		<path class="st2" d="M61.4,34.9c0,0.2-0.1,0.4-0.2,0.6c0.7,0,1.2,0,1.8,0c-0.1-0.3-0.1-0.5-0.2-0.7c-0.5-0.2-1-0.4-1.4-0.5
			C61.5,34.5,61.5,34.7,61.4,34.9z"/>
		<path class="st2" d="M59.5,48.3c0.2,0.2,0.5,0.4,0.7,0.5c0.6-0.9,1.7-0.5,2.6-1.2c-1.2,0.1-2.2,0.2-3.1,0.3
			C59.6,47.9,59.6,48.1,59.5,48.3z"/>
		<path class="st2" d="M64.9,26.8c1.2,0.8,1.2,0.8,2.1-0.1C66.2,26.3,66.2,26.3,64.9,26.8z"/>
	</g>
</g>
<g>
	<g>
		<path class="st2" d="M36.9,85.8c1.8,0,2.8,0.9,2.8,2.4c0,1.6-1,2.5-2.8,2.5h-1.6v2.1h-1.2v-7H36.9z M35.3,89.7h1.6
			c1.1,0,1.7-0.5,1.7-1.4c0-0.9-0.6-1.4-1.7-1.4h-1.6V89.7z"/>
		<path class="st2" d="M41.4,91.2l-0.7,1.6h-1.2l3.1-7h1.2l3.1,7h-1.3l-0.7-1.6H41.4z M43.1,87.1l-1.3,3.1h2.6L43.1,87.1z"/>
		<path class="st2" d="M52.4,86.5l-0.5,1c-0.8-0.5-1.5-0.6-2-0.6c-0.7,0-1.1,0.3-1.1,0.7c0,1.5,3.8,0.7,3.8,3.2c0,1.2-1.1,2-2.6,2
			c-1.1,0-2.1-0.5-2.9-1.1l0.5-1c0.7,0.7,1.6,1,2.4,1c0.8,0,1.3-0.3,1.3-0.8c0-1.6-3.8-0.7-3.8-3.2c0-1.2,1-1.9,2.5-1.9
			C50.9,85.8,51.8,86.1,52.4,86.5z"/>
		<path class="st2" d="M58.7,86.5l-0.5,1c-0.8-0.5-1.5-0.6-2-0.6c-0.7,0-1.1,0.3-1.1,0.7c0,1.5,3.8,0.7,3.8,3.2c0,1.2-1.1,2-2.6,2
			c-1.1,0-2.1-0.5-2.9-1.1l0.5-1c0.7,0.7,1.6,1,2.4,1c0.8,0,1.3-0.3,1.3-0.8c0-1.6-3.8-0.7-3.8-3.2c0-1.2,1-1.9,2.5-1.9
			C57.1,85.8,58,86.1,58.7,86.5z"/>
		<path class="st2" d="M62.9,85.8c1.8,0,2.8,0.9,2.8,2.4c0,1.6-1,2.5-2.8,2.5h-1.6v2.1h-1.2v-7H62.9z M61.3,89.7h1.6
			c1.1,0,1.7-0.5,1.7-1.4c0-0.9-0.6-1.4-1.7-1.4h-1.6V89.7z"/>
		<path class="st2" d="M73.7,89.3c0,2-1.6,3.5-3.7,3.5s-3.7-1.5-3.7-3.5c0-2,1.6-3.5,3.7-3.5S73.7,87.3,73.7,89.3z M67.5,89.3
			c0,1.4,1.1,2.5,2.5,2.5s2.5-1.1,2.5-2.5s-1.1-2.5-2.5-2.5C68.6,86.9,67.5,87.9,67.5,89.3z"/>
		<path class="st2" d="M78.1,90.7c-0.1,0-0.2,0-0.3,0h-1.7v2.1H75v-7h2.8c1.8,0,2.8,0.9,2.8,2.4c0,1.1-0.5,1.9-1.4,2.3l1.6,2.3h-1.3
			L78.1,90.7z M77.8,89.7c1.1,0,1.7-0.5,1.7-1.4c0-0.9-0.6-1.4-1.7-1.4h-1.7v2.8H77.8z"/>
		<path class="st2" d="M84.7,86.9v5.9h-1.2v-5.9h-2.2v-1.1H87v1.1H84.7z"/>
	</g>
</g>
</svg>
