<?xml version="1.0" encoding="utf-8"?>
<!-- Generator: Adobe Illustrator 22.1.0, SVG Export Plug-In . SVG Version: 6.00 Build 0)  -->
<svg version="1.1" xmlns="http://www.w3.org/2000/svg" xmlns:xlink="http://www.w3.org/1999/xlink" x="0px" y="0px"
	 viewBox="0 0 373.4 232.5" style="enable-background:new 0 0 373.4 232.5;" xml:space="preserve">
<style type="text/css">
	.st0{fill:#4C4B4B;}
	.st1{fill:#5E5D5D;}
	.st2{fill:#3F3B39;}
	.st3{fill:#F6F6F6;}
	.st4{fill:#888888;}
	.st5{fill:#ACD7F2;}
	.st6{fill:#FFFFFF;}
	.st7{fill:#EDEEEE;}
	.st8{fill:#DCDCDC;}
	.st9{fill:#2EA7E0;}
	.st10{fill:#00AAD0;}
	.st11{fill:#929090;}
	.st12{fill:#78CDE7;stroke:#156081;stroke-width:0.5;stroke-linecap:round;stroke-linejoin:round;stroke-miterlimit:10;}
	.st13{fill:#A7003D;}
	.st14{fill:#D60051;}
	.st15{fill:#BF2345;}
	.st16{fill:#252221;}
	.st17{fill:#595757;}
	.st18{fill:#9E9EA0;}
	.st19{fill:#C8C8C9;}
	.st20{fill:#F29600;}
	.st21{fill:#F7B52D;}
	.st22{fill:#EA5515;}
	.st23{fill:#045993;}
	.st24{fill:#066EB7;}
	.st25{fill:#0462A4;}
	.st26{fill:#C30E24;}
	.st27{fill:#156081;}
	.st28{fill:#0D435D;}
	.st29{fill:#980C22;}
	.st30{fill:none;stroke:#000000;stroke-miterlimit:10;}
	.st31{fill:#FFFFFF;stroke:#00A9CE;stroke-linecap:round;stroke-linejoin:round;stroke-miterlimit:10;}
	.st32{fill:#00A9CE;}
	.st33{fill:#B2CC46;}
	.st34{fill:#FCD89F;}
	.st35{fill:#331907;}
	.st36{fill:#BA8663;}
	.st37{fill:#3A1E0A;}
	.st38{fill:#605F6D;}
	.st39{fill:#7FA5B2;}
	.st40{fill:#C6A273;}
	.st41{fill:#AACC42;}
	.st42{fill:#FFD4AE;}
	.st43{fill:#3C313F;}
	.st44{fill:#B71C1C;}
	.st45{fill:#968D81;}
	.st46{fill:#C93131;}
	.st47{fill:#EFEAE4;}
	.st48{fill:#C68E75;}
	.st49{fill:#AA3131;}
	.st50{fill:#AA3570;}
	.st51{fill:#91B3BC;}
	.st52{fill:#A37246;}
	.st53{fill:#4C414F;}
	.st54{fill:#6D4524;}
	.st55{fill:#B5AC9E;}
	.st56{fill:#6BA534;}
	.st57{fill:#FFCC99;}
	.st58{fill:#473224;}
	.st59{fill:#597A1A;}
	.st60{fill:#93867C;}
	.st61{opacity:0.6;fill:#CC9A75;enable-background:new    ;}
	.st62{fill:#E0AA79;}
	.st63{fill:#8E5A46;}
	.st64{fill:#D66A18;}
	.st65{fill:#994710;}
	.st66{fill:#D67B30;}
	.st67{fill:#66666D;}
	.st68{fill:#9B6937;}
	.st69{fill:#F9D45F;}
	.st70{opacity:0.35;fill:#00A9CE;enable-background:new    ;}
	.st71{opacity:0.66;fill:#00A9CE;enable-background:new    ;}
	.st72{opacity:0.95;fill:#00A9CE;enable-background:new    ;}
	.st73{opacity:0.79;fill:#00A9CE;enable-background:new    ;}
	.st74{opacity:0.47;fill:#00A9CE;enable-background:new    ;}
	.st75{opacity:0.15;}
	.st76{fill:#070707;}
	.st77{opacity:0.5;fill:#070707;enable-background:new    ;}
	.st78{opacity:7.000000e-02;fill:#070707;enable-background:new    ;}
	.st79{fill:#FFFFFF;stroke:#D3D3D3;stroke-miterlimit:10;}
	.st80{fill:#EDEDEF;}
	.st81{opacity:0.5;fill:#A0B5AC;enable-background:new    ;}
	.st82{fill:#333333;}
	.st83{fill:#8ED1EB;}
	.st84{opacity:7.000000e-02;enable-background:new    ;}
	.st85{fill:none;stroke:#FFFFFF;stroke-width:0.19;stroke-miterlimit:10;}
	.st86{opacity:0.3;fill:#070707;enable-background:new    ;}
	.st87{fill:#C4C7D8;}
	.st88{fill:#C9905C;}
	.st89{fill:#EABD8D;}
	.st90{fill:#A5714E;}
	.st91{fill:#4A2808;}
	.st92{opacity:0.3;fill:#FFFFFF;enable-background:new    ;}
	.st93{fill:#C4925C;}
	.st94{fill:#EABC8C;}
	.st95{fill:#945C49;}
	.st96{fill:#AF784A;}
	.st97{fill:#A5714F;}
	.st98{fill:#BF8D5E;}
	.st99{fill:#242E3F;}
	.st100{fill:#364765;}
	.st101{fill:#5A82AB;}
	.st102{fill:#8E745D;}
	.st103{fill:#1F272D;}
	.st104{fill:#67CDF1;}
	.st105{fill:#19C2ED;}
	.st106{fill:#767676;}
	.st107{fill:#0391C5;}
	.st108{fill:#DB4B42;}
	.st109{fill:#F1D418;}
	.st110{fill:#3AB986;}
	.st111{fill:#98989A;}
	.st112{fill:#D2A06F;}
	.st113{fill:#BD9700;}
	.st114{fill:#876C00;}
	.st115{fill:#693319;}
	.st116{fill:#1B507B;}
	.st117{fill:#D9D9D9;}
	.st118{fill:#606060;}
	.st119{fill:#F6CA9F;}
	.st120{fill:#91633E;}
	.st121{fill:#FF6600;}
	.st122{fill:#CF5200;}
	.st123{fill:#353535;}
	.st124{fill:#9E3E00;}
	.st125{fill:#CCCCCC;}
	.st126{fill:#666666;}
	.st127{fill:url(#SVGID_1_);}
	.st128{fill:url(#SVGID_2_);}
	.st129{fill:#FDA972;}
	.st130{fill:#FFD9B5;}
	.st131{fill:url(#SVGID_3_);}
	.st132{fill:url(#SVGID_4_);}
	.st133{fill:url(#SVGID_5_);}
	.st134{fill:#F3CDAA;}
	.st135{fill:#FFF6ED;}
	.st136{fill:url(#SVGID_6_);}
	.st137{fill:#E1E1E1;}
	.st138{fill:url(#SVGID_7_);}
	.st139{fill:url(#SVGID_8_);}
	.st140{fill:#9E6C42;}
	.st141{fill:#E3E3E3;}
	.st142{fill:#C3C2C2;}
	.st143{fill:#CC0000;}
	.st144{fill:#990000;}
	.st145{fill:#FFCC00;}
	.st146{fill:#E4B600;}
	.st147{fill:#969696;}
	.st148{fill:#737373;}
	.st149{fill:#EA0000;}
	.st150{fill:#FF1010;}
	.st151{fill:#A30000;}
	.st152{fill:#5D5D5D;}
	.st153{fill:#858585;}
	.st154{fill:#CED8D8;}
	.st155{fill:#ABCDDD;}
	.st156{fill:#E6E3DE;}
	.st157{fill:#1A1D22;}
	.st158{fill:#BA6336;}
	.st159{fill:#93432C;}
	.st160{fill:#E2A472;}
	.st161{fill:#3D7795;}
	.st162{fill:#CA895C;}
	.st163{fill:#A25E36;}
	.st164{fill:#88472D;}
	.st165{fill:#683325;}
	.st166{fill:#8A4A28;}
	.st167{fill:#7C8884;}
	.st168{fill:#934C36;}
	.st169{fill:#E5AB60;}
	.st170{fill:#BB753D;}
	.st171{fill:#CAD1D9;}
	.st172{opacity:0.6;fill:#DBA98E;enable-background:new    ;}
	.st173{fill:#708895;}
	.st174{opacity:0.2;fill:#89949B;enable-background:new    ;}
	.st175{fill:#758190;}
	.st176{fill:#F2B136;}
	.st177{fill:#E3912F;}
	.st178{fill:#363D48;}
	.st179{fill:#4F566B;}
	.st180{fill:#FCCF8E;}
	.st181{fill:#D8874F;}
	.st182{fill:#843B2F;}
	.st183{fill:#9A3933;}
	.st184{fill:#0497AF;}
	.st185{fill:#98B3C5;}
	.st186{fill-rule:evenodd;clip-rule:evenodd;fill:#FABF61;}
	.st187{fill-rule:evenodd;clip-rule:evenodd;fill:#F5B382;}
	.st188{fill-rule:evenodd;clip-rule:evenodd;fill:#E3A370;}
	.st189{fill-rule:evenodd;clip-rule:evenodd;fill:#F0DBB8;}
	.st190{fill-rule:evenodd;clip-rule:evenodd;fill:#E6E6E6;}
	.st191{fill-rule:evenodd;clip-rule:evenodd;}
	.st192{fill-rule:evenodd;clip-rule:evenodd;fill:#895531;}
	.st193{fill:#FFFFFF;stroke:#000000;stroke-width:4;stroke-miterlimit:10;}
	.st194{fill:#F4F4F4;}
	.st195{fill:none;stroke:#FFFFFF;stroke-width:8;stroke-linecap:round;stroke-linejoin:round;stroke-miterlimit:10;}
	.st196{fill:#F5B382;}
	.st197{fill:#475769;}
	.st198{fill:#F05B4C;}
	.st199{fill:#9CA8B5;}
	.st200{fill:#D7D7D7;}
	.st201{fill:#828C95;}
	.st202{fill:#5B6975;}
	.st203{fill:#A89B7A;}
	.st204{fill:#D6D6D6;}
	.st205{fill:#AEB8A5;}
	.st206{fill:#F5A8B3;}
	.st207{fill:#9EBEA2;}
	.st208{fill:#B4CDB8;}
	.st209{fill:#F8BCC3;}
	.st210{fill:#ECABB3;}
	.st211{fill:#E7D3CE;}
	.st212{fill:#D8C8BB;}
	.st213{fill:#946C5E;}
	.st214{fill:#A88774;}
	.st215{fill:#E96058;}
	.st216{fill:#F79C98;}
	.st217{fill:#F07C78;}
	.st218{fill:#D9C9BA;}
	.st219{fill:#E1D7CD;}
	.st220{fill:#9F8A75;}
	.st221{fill:#816549;}
	.st222{fill:#F5A788;}
	.st223{fill:#F38961;}
	.st224{fill:#D19278;}
	.st225{fill:#F7A588;}
	.st226{fill:#414141;}
	.st227{fill:#DBF0FA;}
	.st228{fill:#0B0B0B;}
	.st229{fill:#D2EBF7;}
	.st230{fill:#929292;}
	.st231{clip-path:url(#SVGID_10_);}
	.st232{fill:#E6CC80;}
	.st233{fill:#C2AB5C;}
	.st234{opacity:0.5;fill:#FFFFFF;enable-background:new    ;}
	.st235{fill-rule:evenodd;clip-rule:evenodd;fill:#CC8575;}
	.st236{fill-rule:evenodd;clip-rule:evenodd;fill:#AB6154;}
	.st237{fill-rule:evenodd;clip-rule:evenodd;fill:#F0A696;}
	.st238{fill-rule:evenodd;clip-rule:evenodd;fill:#CCCCCC;}
	.st239{fill-rule:evenodd;clip-rule:evenodd;fill:#666666;}
	.st240{fill-rule:evenodd;clip-rule:evenodd;fill:#2E5273;}
	.st241{fill-rule:evenodd;clip-rule:evenodd;fill:#698099;}
	.st242{fill-rule:evenodd;clip-rule:evenodd;fill:#ABABAB;}
	.st243{fill-rule:evenodd;clip-rule:evenodd;fill:#454545;}
	.st244{fill-rule:evenodd;clip-rule:evenodd;fill:#D19161;}
	.st245{fill-rule:evenodd;clip-rule:evenodd;fill:#EDC9C2;}
	.st246{fill-rule:evenodd;clip-rule:evenodd;fill:#361200;}
	.st247{fill-rule:evenodd;clip-rule:evenodd;fill:#57331A;}
	.st248{fill-rule:evenodd;clip-rule:evenodd;fill:#3B210F;}
	.st249{fill-rule:evenodd;clip-rule:evenodd;fill:#FFFFFF;}
	.st250{fill-rule:evenodd;clip-rule:evenodd;fill:#4F7396;}
	.st251{fill-rule:evenodd;clip-rule:evenodd;fill:#8AA3BA;}
	.st252{fill:#403D3C;}
	.st253{fill:#F7F7F7;}
	.st254{fill:#B9D7F2;}
	.st255{fill:#EEEFEF;}
	.st256{fill:#65A6DE;}
	.st257{fill:#919090;}
	.st258{fill:#96CDE6;stroke:#3A6080;stroke-width:0.5;stroke-linecap:round;stroke-linejoin:round;stroke-miterlimit:10;}
	.st259{fill:#8F003E;}
	.st260{fill:#B80050;}
	.st261{fill:#C54354;}
	.st262{fill:#292726;}
	.st263{fill:#595858;}
	.st264{fill:#9E9E9F;}
	.st265{fill:#DD9610;}
	.st266{fill:#E7B53E;}
	.st267{fill:#CD5621;}
	.st268{fill:#335991;}
	.st269{fill:#3F6EB4;}
	.st270{fill:#3862A1;}
	.st271{fill:#A71628;}
	.st272{fill:#3A6080;}
	.st273{fill:#2A455C;}
	.st274{fill:#DB4665;}
	.st275{fill:#D1D1D1;}
	.st276{opacity:0.6;}
	.st277{opacity:0.68;fill:#FFFFFF;}
	.st278{fill:#BCBECC;}
	.st279{fill:#E5E6EB;}
	.st280{fill:#373A47;}
	.st281{fill:#00A9CE;stroke:#00A9CE;stroke-miterlimit:10;}
	.st282{fill:#D7D8DB;}
	.st283{opacity:0.22;fill:#DFF3FD;enable-background:new    ;}
	.st284{fill:#5B5567;}
	.st285{fill:#A6A6A6;}
	.st286{opacity:0.65;fill:#C8C7CE;enable-background:new    ;}
	.st287{fill:#B9C3CE;}
	.st288{fill:#E6E7E8;}
	.st289{fill:#BEC7DD;}
	.st290{fill:#C3CAD1;}
	.st291{fill:#D8E2E5;}
	.st292{fill:#C2CCDB;}
	.st293{fill:#B1BFC3;}
	.st294{fill:#F1F2F2;}
	.st295{fill:#9D0E0D;}
	.st296{fill:#E2342B;}
	.st297{fill:#E7E4E5;}
	.st298{fill:#FFD8B5;}
	.st299{opacity:0.49;fill:#FFFFFF;}
	.st300{opacity:0.58;fill:#FFFFFF;}
	.st301{fill:url(#SVGID_11_);}
	.st302{fill:#333745;}
	.st303{fill:#242530;}
	.st304{fill:url(#SVGID_12_);}
	.st305{fill-rule:evenodd;clip-rule:evenodd;fill:#780000;}
	.st306{fill-rule:evenodd;clip-rule:evenodd;fill:#2B2B2B;}
	.st307{fill-rule:evenodd;clip-rule:evenodd;fill:#787878;}
	.st308{fill-rule:evenodd;clip-rule:evenodd;fill:#618CC7;}
	.st309{fill-rule:evenodd;clip-rule:evenodd;fill:#406BA3;}
	.st310{fill-rule:evenodd;clip-rule:evenodd;fill:#4D4D4D;}
	.st311{fill-rule:evenodd;clip-rule:evenodd;fill:#990000;}
	.st312{fill-rule:evenodd;clip-rule:evenodd;fill:#999999;}
	.st313{fill-rule:evenodd;clip-rule:evenodd;fill:#A6BDDE;}
	.st314{fill-rule:evenodd;clip-rule:evenodd;fill:#F7C7A1;}
	.st315{fill-rule:evenodd;clip-rule:evenodd;fill:#9CB5D6;}
</style>
<g id="Layer_1">
	<g>
		<path class="st186" d="M307.1,148.1c1.7,7.2,24.4,47.3,31,72c-18.2,13.7-49.8,16.8-53.3,5.5c-4.5-14.2-22.8-44.9-29.7-44.8
			c-3.7,0-19.9,15.8-27.2,15.6c-7.3-0.2-18.3-8.6-23.7-11c-0.2,1.3,1.6-8.3,4.9-9.9c0.4-1.9,0.1-0.6,1.4-1.1
			c11.4,6.2,12.3,4.9,19.2,6.5c6.9,1.6,20.6-28.4,22.8-32.5c0.6-2.7,9.4-11.6,11.9-10.5c3.7-1.1,14.9-6.1,16.1-6.9
			c1.2-0.8,14.9-5.2,17.2-6.9c2.3-1.8,23.9-19.1,31.5-18c7.6,1.1,23.8,21.9,20.3,20.7c-0.7,0.2-5.4,4.3-8.4,5.6
			c-5.8-5.6-10.2-5.8-15.6-5.7C319.8,126.7,305.4,140.9,307.1,148.1L307.1,148.1z"/>
		<path class="st187" d="M209.8,186.5c4.2,0.8,7.1-10.2,2.4-10.7c-2.3-1.4-17.3-9.6-17.8-10.9c-0.5-1.3,0.3-10.1-1-10.2
			c-1.3-0.1-8-5.1-10.1-4.2c-2.1,0.9-8,9.1-8,10.4c0,1.3,3.8,3.8,5.1,3.2c1.3-0.6,4.3-5.4,5.6-6.7c1.3-1.3,2.4-0.2,1.3,2.1
			c-1.1,2.3-6.5,12.3-7.6,15.5c-1.1,3.3,6.9-0.2,9.9,1.6c3,1.8,14.7,6.7,20.5,10.1C209.9,186.5,209.6,186.3,209.8,186.5L209.8,186.5
			z"/>
		<path class="st188" d="M181.5,151.9c-2.4-1.5-5.1-2.6-6.9-2.2c-2.9,0.6-3.4,3.8-3,5.1c0.5,1.3,1.7,1.9,2.3,2
			c-2.6,1-4.6,10.8-4,12.6c0.6,1.6,6.3,6.2,9.7,6.5c0-0.2,0-0.4,0.1-0.8c1.1-3.3,6.5-13.2,7.6-15.5c1.1-2.3,0-3.3-1.3-2.1
			c-1.3,1.3-4.3,6.1-5.6,6.7c-1.3,0.6-5.1-1.9-5.1-3.2C175.2,159.8,178.9,154.5,181.5,151.9L181.5,151.9z"/>
		<path class="st187" d="M356.5,160.4c1.8,2.3,3.9,4.2,5.7,4.5c2.9,0.5,4.5-2.3,4.5-3.7c0-1.4-1-2.4-1.4-2.6
			c2.8-0.1,8.1-8.5,8.1-10.4c0.2-9.1-14.7-12.2-15.9-13.7c-2.2-2.7-11.4-11.4-15.7-16.7c0.2,0.3,0.4,0.5,0.2,0.3
			c-3.7-2.2-10.2,7.1-6,9.2c1.7,2.1,12.9,15.1,12.9,16.4c0,1.4-3.8,9.3-2.6,9.9c1.2,0.6,5.7,7.5,8,7.5
			C354.8,161.1,355.6,160.8,356.5,160.4L356.5,160.4z"/>
		<polygon class="st189" points="334.1,131.8 349.4,118 358.7,128.2 343.3,142.1 334.1,131.8 		"/>
		<polygon class="st189" points="199.9,189 207,169.6 220,174.3 212.8,193.8 199.9,189 		"/>
		<path class="st189" d="M258.1,132.2c5.1-0.6,10.9,2.9,11.5,3.9c-2.3,11-6.2,26.8-8.1,30.4l-7.4-10.6l-3.9,9.3
			C245.7,157.1,253,132.8,258.1,132.2L258.1,132.2z"/>
		<path class="st188" d="M242.3,139.8c4.9,3.9,6.8,7,11.3,12.1c-1,3.1,9.4-8.5,6.5-11.7c-3.2-3.4-7.9-8.8-11.1-14.5
			c-1.1-0.1-2.3-0.2-3.6-0.5C245.2,127.2,244.5,134.5,242.3,139.8L242.3,139.8z"/>
		<path class="st189" d="M261.9,170.6c0.9,1.4,1.1,3,0.3,3.5c-0.8,0.5-2.2-0.2-3.1-1.6c-0.9-1.4-1.1-3-0.3-3.5
			C259.6,168.5,261,169.2,261.9,170.6L261.9,170.6z"/>
		<path class="st189" d="M272.8,182.7c1.1,1.3,1.4,2.8,0.7,3.4c-0.7,0.6-2.2,0.1-3.3-1.2c-1.1-1.3-1.4-2.8-0.7-3.4
			C270.3,180.9,271.7,181.4,272.8,182.7L272.8,182.7z"/>
		<path class="st189" d="M286.2,197.4c0.9,1.4,1,3,0.2,3.5c-0.8,0.5-2.2-0.2-3.1-1.7c-0.9-1.4-1-3-0.2-3.5
			C283.9,195.3,285.3,196,286.2,197.4L286.2,197.4z"/>
		<path class="st187" d="M250.2,96.4c4,0.1-25.8-11.4-37.2-7.7c-11.5,3.7-23.2,31.8-22.9,35c0.5,5,8.8,7.7,10.4,8.9
			c1.6,1.2-0.6,6.8,1.9,10c5.4,2.3,13.1-2.6,14.2-1.4c1.1,1.2-3.6,5.8-11,9.9c-0.4,2.1,5.5,17,8.2,16.7c2.7-0.4,25.4-12.9,29.4-18.1
			c4-5.2,5.1-17.2,5.6-19.9c23.4,5.6,15.9-29.6-5.1-7.7c-1.1-1.9,1.6-12.5-6.8-15.4C228.6,103.7,234.6,92.7,250.2,96.4L250.2,96.4z"
			/>
		<path class="st190" d="M206.1,143.2c0.6,1.9,1.8,4,3,5.8c5.3-3.5,8.3-6.7,7.4-7.8C215.7,140.3,210.8,143,206.1,143.2L206.1,143.2z
			"/>
		<path class="st191" d="M211,107c1.4,0.3,2,2.7,1.4,5.2c-0.6,2.5-2.2,4.3-3.6,4c-1.4-0.3-2-2.7-1.4-5.2
			C207.9,108.5,209.6,106.7,211,107L211,107z"/>
		<path class="st191" d="M210.3,93c6-1.7,6,0.2,9,5.4C216.2,94.6,215.2,92.4,210.3,93L210.3,93z"/>
		<path class="st192" d="M263.1,122.9c12-7.9,16.7-25.8,9.2-30c2.1-20.6-19.6-31.9-38.2-28.8c4.1-2.8,11.6-4.9,11.6-4.9
			c-13.6-4.1-26.7-0.7-32.3,12.9c-0.8-10.7,12.4-14.4,11.9-14.4c-1.5,0-2.3,0.3-3.8,0.3c-16.4,0.7-18.7,9.4-17.5,19.5
			c-2-3.6-3.7-8.8-0.2-15.6c-7,9.1-3.5,22,6,28.5c1.1-0.7,2.1-1.3,3.2-1.6c11.5-3.7,41.3,7.8,37.2,7.7c-15.6-3.7-21.7,7.3-13.3,10.3
			c8.3,3,5.6,13.5,6.8,15.4C256,109.3,263.7,116.2,263.1,122.9L263.1,122.9z"/>
		<path d="M192.9,179.3l-5.1,3.2c-0.9,0.6-2.2,0.3-2.8-0.7l-25.5-41.5c-0.6-0.9-0.3-2.2,0.7-2.8l5.1-3.2c0.9-0.6,2.2-0.3,2.8,0.7
			l25.5,41.5C194.2,177.5,193.9,178.7,192.9,179.3z"/>
		<path class="st82" d="M189.3,176L189.3,176c-0.8,0.5-1.8,0.2-2.3-0.6l-22.4-36.5c-0.5-0.8-0.2-1.8,0.6-2.3l0,0
			c0.8-0.5,1.8-0.2,2.3,0.6l22.4,36.5C190.4,174.4,190.1,175.5,189.3,176z"/>
		<circle class="st193" cx="154.2" cy="123.1" r="26.1"/>
		<circle class="st194" cx="154.2" cy="123.1" r="25.5"/>
		<path class="st195" d="M158.8,105.2c10.4,2.5,16.9,13,14.4,23.4"/>
		<g>
			<path class="st196" d="M187.5,151.4c-1.7-0.9-3.4-1.5-4.2-1.2c-2.1,0.9-8,9.1-8,10.4c0,1.3,3.8,3.8,5.1,3.2
				c1.3-0.6,4.3-5.4,5.6-6.7c0.3-0.3,0.7-0.5,0.9-0.5c0-0.1,0-0.2,0.1-0.2C187.5,154.7,187.6,153,187.5,151.4z"/>
		</g>
		<g>
			<g id="Layer_1_18_">
				
					<rect x="78.9" y="184.8" transform="matrix(1.745293e-03 -1 1 1.745293e-03 -129.8106 291.9112)" class="st197" width="4.8" height="52.4"/>
				<path class="st198" d="M107.1,163.5c0.3-3,0.4-6,0.1-8.9l6.7-25.4c0,0-21.9-14.8-33-14.8s-33,14.8-33,14.8l6.7,25.4
					c-0.3,3-0.2,6,0.1,8.9c-0.9,2.9-1.9,10.3-0.3,14.9c-3.1,8.3-1.9,31-1.9,31h56c0,0,1.9-22.8-1.3-31
					C109,173.8,108,166.4,107.1,163.5z"/>
				
					<rect x="34.4" y="199.2" transform="matrix(0.1321 -0.9912 0.9912 0.1321 -171.6478 214.7353)" class="st197" width="4.8" height="12.4"/>
				
					<rect x="118.9" y="202.9" transform="matrix(0.9912 -0.1321 0.1321 0.9912 -26.0263 18.323)" class="st197" width="12.4" height="4.8"/>
				<polygon class="st199" points="78.9,148.9 80.9,151.2 83,148.9 83,213.5 78.9,213.5 				"/>
				<path class="st198" d="M47.9,129.1c-3.4,2.8-10.3,16.1-9.6,26c-3.8,2.8-4.8,11.7-3.4,16c-2.4,1.3-4.3,11.9-2.9,16.2
					c-3.2,4.6-2.4,15.2-2.4,15.2l14.6,2.1c0,0,4.6-7.1,3.4-15.5c1.7-2.4,4.2-11.9,3.2-15c1.8-2.9,3.8-11.1,2.9-13.5
					c1.3-4.2,1.2-5.5,1.2-5.5S57.4,140.5,47.9,129.1z"/>
				<path class="st200" d="M32.4,187.9c2.6,1.9,10.4,3.8,14.5,1.7C44.2,194.1,35.4,193.3,32.4,187.9z"/>
				<path class="st201" d="M68.1,141.1H56.7V155c0,1.8,1.5,3.2,3.2,3.2h9.2c1.8,0,3.2-1.5,3.2-3.2v-13.9H68.1z"/>
				<polygon class="st199" points="65.3,140.2 56.1,140.2 56.1,142 65.3,142 72.8,142 72.8,140.2 				"/>
				<polygon class="st200" points="65.3,141.5 56.1,141.5 56.1,142 65.3,142 72.8,142 72.8,141.5 				"/>
				<polygon class="st200" points="56.7,145.1 56.7,147 64.5,153.1 72.3,147 72.3,145.1 64.8,142.4 				"/>
				<polygon class="st199" points="65.3,142 56.1,142 56.1,144.8 64.5,150.6 72.8,144.8 72.8,142 				"/>
				<path class="st201" d="M93.9,141.1h11.4V155c0,1.8-1.5,3.2-3.2,3.2h-9.2c-1.8,0-3.2-1.5-3.2-3.2v-13.9H93.9z"/>
				<polygon class="st199" points="96.7,140.2 105.8,140.2 105.8,142 96.7,142 89.1,142 89.1,140.2 				"/>
				<polygon class="st200" points="96.7,141.5 105.8,141.5 105.8,142 96.7,142 89.1,142 89.1,141.5 				"/>
				<polygon class="st200" points="105.3,145.1 105.3,147 97.5,153.1 89.6,147 89.6,145.1 97.1,142.4 				"/>
				<polygon class="st199" points="96.7,142 105.8,142 105.8,144.8 97.5,150.6 89.1,144.8 89.1,142 				"/>
				<path class="st200" d="M35.4,171.5c2.5,2.1,10.5,4.4,14.8,2.6C47.3,178.4,38.2,177.1,35.4,171.5z"/>
				<path class="st197" d="M59.9,122l21,29.2l20.9-29.3c-6.9-3.8-15.3-7.5-20.9-7.5C75.3,114.4,66.9,118.2,59.9,122z"/>
				<path class="st200" d="M49.9,130.2l28.6,19L62,120.9c-4.5,2.4-7.8,4.3-10.3,6L49.9,130.2z"/>
				<path class="st200" d="M38.8,155.5c2.1,2.4,9.9,6.1,14.6,5C49.3,163.9,40.6,161.4,38.8,155.5z"/>
				<path class="st199" d="M80.9,106.5c-4.6,0.3-9.6,1.1-16.5,6.2c-10.5,7.9-11.5,15.8-11.5,15.8l28,22.7l-14-28.5
					C66.9,122.6,69.5,111.2,80.9,106.5z"/>
				<path class="st201" d="M51.5,193v12h5.1c1.2,0,2.1-0.9,2.1-2.1l0,0V193H51.5z"/>
				<path class="st199" d="M50.8,185.1v8.3h7.9c1.2,0,2.1-0.9,2.1-2.1v-6.2H50.8z"/>
				<path class="st200" d="M55.3,164.1c3,1.9,12,3.3,18.5,2.1C68.4,168.3,60.5,168.9,55.3,164.1z"/>
				<path class="st200" d="M55.3,178.4c3,1.9,11.8,3.7,18.4,2.7C68.1,183,59.7,183,55.3,178.4z"/>
				<path class="st198" d="M88.5,90.5c0,0-4.5-1.6-7.7-1.6c-3.2,0-7.7,1.6-7.7,1.6l-18,21.7h51.5L88.5,90.5z"/>
				<path class="st198" d="M114,129.1c3.3,2.8,10.3,16.1,9.6,26c3.8,2.8,4.8,11.7,3.4,16c2.4,1.3,4.3,11.9,2.9,16.2
					c3.2,4.6,2.4,15.2,2.4,15.2l-14.6,2.1c0,0-4.6-7.1-3.4-15.5c-1.7-2.4-4.2-11.9-3.2-15c-1.8-2.9-3.8-11.1-2.9-13.5
					c-1.3-4.2-1.2-5.5-1.2-5.5S104.5,140.5,114,129.1z"/>
				<path class="st200" d="M129.6,187.9c-2.5,1.9-10.4,3.8-14.5,1.7C117.7,194.1,126.6,193.3,129.6,187.9z"/>
				<path class="st200" d="M126.5,171.5c-2.5,2.1-10.5,4.4-14.8,2.6C114.7,178.4,123.7,177.1,126.5,171.5z"/>
				<path class="st200" d="M112.1,130.2l-28.6,19l16.4-28.3c4.5,2.3,7.8,4.3,10.3,6L112.1,130.2z"/>
				<path class="st200" d="M123.1,155.5c-2.1,2.4-9.9,6.1-14.5,5C112.7,163.9,121.3,161.4,123.1,155.5z"/>
				<path class="st199" d="M81,106.5c4.6,0.3,9.6,1.1,16.5,6.2c10.5,7.9,11.5,15.8,11.5,15.8L81,151.2l14.1-28.5
					C95,122.6,92.4,111.2,81,106.5z"/>
				<path class="st201" d="M110,193v12h-5.1c-1.2,0-2.1-0.9-2.1-2.1V193H110z"/>
				<path class="st199" d="M110.8,185.1v8.3h-7.9c-1.2,0-2.1-1-2.1-2.1v-6.2H110.8z"/>
				<path class="st200" d="M106.7,164.1c-3,1.9-12,3.3-18.5,2.1C93.3,168.9,101.6,169.1,106.7,164.1z"/>
				<path class="st200" d="M106.7,178.4c-3,1.9-11.8,3.7-18.4,2.7C93.9,183.3,101.6,183,106.7,178.4z"/>
				<rect x="75.3" y="115.3" class="st202" width="11.2" height="9.1"/>
				<path class="st200" d="M108.1,125.5c-1.2-3-4-7.9-10.6-12.8c-7-5.2-26.2-5.2-33.1,0c-6.6,4.9-9.4,9.8-10.6,12.8l-1.4,0.9
					c2.4,0.8,5.1,0.5,7.3-0.9c13-8,29.3-8,42.3,0c2.2,1.4,5,1.7,7.4,0.9L108.1,125.5z"/>
				<path class="st203" d="M112,121.8c-2.3,3-6.6,3.2-10.1,1.2c-13-8-29.3-8-42.3,0c-3.4,2.1-7.9,1.9-10.1-1.2
					c-2.3-3-0.6-8.7,4-11.5c16.7-10.3,37.7-10.3,54.4,0C112.6,113.1,114.3,118.8,112,121.8z"/>
				<rect x="51.5" y="193.4" class="st200" width="7.2" height="1.5"/>
				<rect x="102.8" y="193.4" class="st200" width="7.2" height="1.5"/>
			</g>
		</g>
		<g>
			<rect x="70" y="5" class="st194" width="100.8" height="58.4"/>
			<polygon class="st204" points="74.8,0 70,5 170.9,5 174.5,0 			"/>
			<polygon class="st125" points="174.5,61.1 170.9,63.4 170.9,5 174.5,0 			"/>
			<circle class="st205" cx="101.2" cy="44.9" r="13"/>
			<circle class="st206" cx="101.2" cy="44.9" r="11.1"/>
			<path class="st207" d="M97.4,25.6L81,45.7c5.7,4.4,13.9,3.2,18.2-2.4C103.3,37.8,102.5,30.1,97.4,25.6z"/>
			<path class="st208" d="M88.8,22.4c-7.1,0-13,5.8-13,13c0,4,1.9,7.9,5.1,10.3l16.5-20.1C95,23.6,92,22.4,88.8,22.4z"/>
			<path class="st209" d="M122.2,44.7v10.9c0,1.2,1,2.1,2.1,2.1h1.3v-13H122.2z"/>
			<path class="st210" d="M125.6,57.8h2.6c1.2,0,2.1-0.9,2.1-2.1V44.8h-4.8V57.8z"/>
			<polygon class="st211" points="125.6,41.8 123,41.8 122.2,41.8 122.2,44.7 125.6,44.7 			"/>
			<polygon class="st212" points="129.6,41.8 125.6,41.8 125.6,44.7 130.3,44.7 130.3,41.8 			"/>
			<rect x="125.6" y="39.3" class="st213" width="3.9" height="2.4"/>
			<rect x="123" y="39.3" class="st214" width="2.6" height="2.4"/>
			<path class="st215" d="M126.2,33.5c-0.5,0-0.9-0.1-1.3-0.3l-0.9,1.1l0.9-1.1c-0.5-0.2-1-0.5-1.4-1v7h5.3v-7
				C128.2,33.1,127.3,33.5,126.2,33.5z"/>
			<path class="st216" d="M128.3,27.5h-0.9c-2.1,0-3.8,1.7-3.8,3.8l0,0v1c0.4,0.4,0.9,0.7,1.4,1l4-5v-0.1
				C129,27.8,128.6,27.5,128.3,27.5z"/>
			<path class="st217" d="M126.2,33.5c1,0,2-0.5,2.6-1.3v-4l-4,5C125.4,33.4,125.8,33.5,126.2,33.5z"/>
			<polygon class="st218" points="145.8,40.6 146.4,30.4 142.9,30.4 142.9,40.6 			"/>
			<polygon class="st219" points="142.9,30.4 138.8,30.4 139.4,40.6 142.9,40.6 			"/>
			<path class="st220" d="M139.4,40.6l0.8,15.5c0,1.4,1.1,2.4,2.4,2.4c0.1,0,0.2,0,0.3,0V40.6L139.4,40.6z"/>
			<path class="st221" d="M142.9,40.6v17.9c1.2-0.1,2.1-1.2,2.1-2.4l0,0l0.8-15.4H142.9z"/>
			<path class="st222" d="M145.6,16.7h-6.2c-2.6,0-4.6,2.1-4.6,4.7c0,0.7,0.1,1.3,0.5,1.9l2.6,5.4l10.8-10.8
				C148,17.1,146.8,16.7,145.6,16.7z"/>
			<path class="st223" d="M148.8,17.9L138,28.7l0.9,1.7h7.5l3.4-7.1C150.7,21.5,150.3,19.3,148.8,17.9z"/>
			<path class="st220" d="M155.1,29.5l0.5,27.7c0,0.5,0.3,0.8,0.8,0.8l0,0c0.2,0,0.3-0.1,0.5-0.1V29.5L155.1,29.5L155.1,29.5z"/>
			<path class="st221" d="M156.8,57.8c0.2-0.1,0.3-0.4,0.3-0.7l0.5-27.7h-0.9L156.8,57.8z"/>
			<polygon class="st219" points="156.8,19.6 154.9,19.6 155.1,29.5 156.8,29.5 			"/>
			<polygon class="st218" points="156.8,19.6 156.8,29.5 157.7,29.5 157.9,19.6 			"/>
			<path class="st224" d="M158.9,13.2c-1,5.4-3.6,5.6-4.2,5.6l0.3,0.8h3l1.6-5.2C159.6,13.9,159.3,13.4,158.9,13.2z"/>
			<path class="st225" d="M158.9,13.2c-0.1-0.1-0.2-0.1-0.3-0.1H158c-2.1,0-3.7,1.7-3.7,3.7c0,0.4,0.1,0.7,0.2,1.1l0.3,0.9
				C155.2,18.8,157.9,18.5,158.9,13.2z"/>
			<path class="st225" d="M166.4,18.7c-0.1,1-0.6,2-1.3,2.6c-0.7-0.7-1.2-1.7-1.3-2.6c0.1-1,0.6-2,1.3-2.6
				C165.8,16.7,166.3,17.6,166.4,18.7z"/>
			<path class="st220" d="M163.9,29.5l0.5,27.7c0,0.4,0.3,0.8,0.7,0.8l0,0c0.1,0,0.3-0.1,0.4-0.1V29.5L163.9,29.5L163.9,29.5z"/>
			<path class="st221" d="M165.5,57.8c0.2-0.1,0.3-0.4,0.3-0.7l0.4-27.7h-0.7V57.8z"/>
			<polygon class="st219" points="165.5,19.6 163.7,19.6 163.9,29.5 165.5,29.5 			"/>
			<polygon class="st218" points="165.5,19.6 165.5,29.5 166.2,29.5 166.4,19.6 			"/>
		</g>
		<rect y="12.7" class="st194" width="45.3" height="69.6"/>
		<polygon class="st204" points="2.2,6.8 0,12.7 45.4,12.7 47.1,6.8 		"/>
		<polygon class="st125" points="47.1,79.6 45.4,82.3 45.4,12.7 47.1,6.8 		"/>
		<path class="st226" d="M11.1,27.4h17.3l2.6-5.9h-0.3H13.6c-2.2,0-4,1.8-4,4v44.2c0,0.1,0,0.1,0,0.3l1.5-3.3V27.4z"/>
		<polygon class="st227" points="11.1,66.6 28.4,27.4 11.1,27.4 		"/>
		<path class="st228" d="M31,21.5l-2.6,6h4.8v39.3H11.1v-0.1l-1.5,3.3c0.1,2.1,1.9,3.7,4,3.7h17.1c2.2,0,4-1.8,4-4V25.5
			C34.6,23.4,33.1,21.7,31,21.5z"/>
		<polygon class="st229" points="11.1,66.8 33.2,66.8 33.2,27.4 28.4,27.4 11.1,66.6 		"/>
		<path class="st230" d="M19.5,23.7h5.4c0.3,0,0.5,0.3,0.5,0.5l0,0c0,0.3-0.3,0.5-0.5,0.5h-5.4c-0.3,0-0.5-0.3-0.5-0.5l0,0
			C18.9,23.9,19.1,23.7,19.5,23.7z"/>
		<g>
			<defs>
				<circle id="SVGID_9_" cx="154.2" cy="123.1" r="25.5"/>
			</defs>
			<clipPath id="SVGID_1_">
				<use xlink:href="#SVGID_9_"  style="overflow:visible;"/>
			</clipPath>
			<g style="clip-path:url(#SVGID_1_);">
				<g id="Layer_1_17_">
					
						<rect x="101.8" y="191.7" transform="matrix(1.745293e-03 -1 1 1.745293e-03 -121.4746 330.7645)" class="st197" width="6.3" height="69.1"/>
					<path class="st198" d="M139,163.6c0.4-3.9,0.5-7.9,0.2-11.8l8.8-33.4c0,0-28.9-19.5-43.5-19.5S61,118.4,61,118.4l8.8,33.4
						c-0.3,3.9-0.3,7.9,0.2,11.8c-1.1,3.8-2.4,13.6-0.3,19.6c-4.1,10.9-2.5,40.9-2.5,40.9H141c0,0,2.4-30-1.7-40.9
						C141.5,177.2,140.1,167.4,139,163.6z"/>
					
						<rect x="43.1" y="210.7" transform="matrix(0.1321 -0.9912 0.9912 0.1321 -176.8147 235.7723)" class="st197" width="6.3" height="16.3"/>
					
						<rect x="154.5" y="215.6" transform="matrix(0.9912 -0.1321 0.1321 0.9912 -27.4728 23.4073)" class="st197" width="16.3" height="6.3"/>
					<polygon class="st199" points="101.8,144.3 104.4,147.4 107.2,144.3 107.2,229.6 101.8,229.6 					"/>
					<path class="st198" d="M60.9,118.3c-4.5,3.8-13.6,21.2-12.7,34.3c-5,3.7-6.4,15.5-4.5,21c-3.2,1.7-5.7,15.7-3.8,21.3
						c-4.2,6.1-3.1,20.1-3.1,20.1l19.2,2.7c0,0,6.1-9.4,4.5-20.4c2.3-3.1,5.5-15.7,4.3-19.8c2.4-3.8,5-14.7,3.8-17.8
						c1.7-5.5,1.6-7.2,1.6-7.2S73.4,133.3,60.9,118.3z"/>
					<path class="st200" d="M40.4,195.8c3.4,2.5,13.7,5.1,19.1,2.3C56,204,44.3,202.9,40.4,195.8z"/>
					<path class="st201" d="M87.5,134.1h-15v18.3c0,2.4,1.9,4.2,4.2,4.2h12.1c2.4,0,4.2-1.9,4.2-4.2v-18.3H87.5z"/>
					<polygon class="st199" points="83.8,132.8 71.8,132.8 71.8,135.3 83.8,135.3 93.8,135.3 93.8,132.8 					"/>
					<polygon class="st200" points="83.8,134.6 71.8,134.6 71.8,135.3 83.8,135.3 93.8,135.3 93.8,134.6 					"/>
					<polygon class="st200" points="72.5,139.4 72.5,141.8 82.8,149.9 93.1,141.8 93.1,139.4 83.2,135.7 					"/>
					<polygon class="st199" points="83.8,135.3 71.8,135.3 71.8,139 82.8,146.6 93.8,139 93.8,135.3 					"/>
					<path class="st201" d="M121.5,134.1h15v18.3c0,2.4-1.9,4.2-4.2,4.2h-12.1c-2.4,0-4.2-1.9-4.2-4.2v-18.3H121.5z"/>
					<polygon class="st199" points="125.2,132.8 137.2,132.8 137.2,135.3 125.2,135.3 115.2,135.3 115.2,132.8 					"/>
					<polygon class="st200" points="125.2,134.6 137.2,134.6 137.2,135.3 125.2,135.3 115.2,135.3 115.2,134.6 					"/>
					<polygon class="st200" points="136.5,139.4 136.5,141.8 126.2,149.9 115.9,141.8 115.9,139.4 125.8,135.7 					"/>
					<polygon class="st199" points="125.2,135.3 137.2,135.3 137.2,139 126.2,146.6 115.2,139 115.2,135.3 					"/>
					<path class="st200" d="M44.4,174.1c3.3,2.7,13.9,5.8,19.6,3.4C60.1,183.3,48.1,181.5,44.4,174.1z"/>
					<path class="st197" d="M76.7,108.8l27.7,38.5l27.6-38.6c-9.1-5-20.2-10-27.5-10C97.1,98.8,85.9,103.9,76.7,108.8z"/>
					<path class="st200" d="M63.5,119.7l37.7,25.1l-21.7-37.3c-5.9,3.1-10.3,5.7-13.6,7.9L63.5,119.7z"/>
					<path class="st200" d="M48.9,153c2.8,3.2,13.1,8,19.2,6.6C62.7,164.1,51.2,160.9,48.9,153z"/>
					<path class="st199" d="M104.4,88.4c-6.1,0.4-12.7,1.4-21.7,8.2c-13.9,10.4-15.2,20.8-15.2,20.8l36.9,29.9L86,109.7
						C86,109.7,89.4,94.6,104.4,88.4z"/>
					<path class="st201" d="M65.6,202.5v15.9h6.7c1.6,0,2.8-1.2,2.8-2.8l0,0v-13.1H65.6z"/>
					<path class="st199" d="M64.7,192.1V203h10.5c1.6,0,2.8-1.2,2.8-2.8v-8.1H64.7z"/>
					<path class="st200" d="M70.6,164.5c4,2.4,15.8,4.4,24.4,2.8C87.9,170,77.5,170.7,70.6,164.5z"/>
					<path class="st200" d="M70.6,183.3c3.9,2.5,15.6,4.9,24.3,3.6C87.5,189.3,76.4,189.3,70.6,183.3z"/>
					<path class="st198" d="M114.4,67.4c0,0-5.9-2.1-10.2-2.1c-4.3,0-10.2,2.1-10.2,2.1L70.3,96h67.9L114.4,67.4z"/>
					<path class="st198" d="M148.1,118.3c4.4,3.8,13.6,21.2,12.7,34.3c5,3.7,6.4,15.5,4.5,21c3.2,1.7,5.7,15.7,3.8,21.3
						c4.2,6.1,3.1,20.1,3.1,20.1l-19.2,2.7c0,0-6.1-9.4-4.5-20.4c-2.3-3.1-5.5-15.7-4.3-19.8c-2.4-3.8-5-14.7-3.8-17.8
						c-1.7-5.5-1.6-7.2-1.6-7.2S135.6,133.3,148.1,118.3z"/>
					<path class="st200" d="M168.6,195.8c-3.3,2.5-13.7,5.1-19.1,2.3C152.9,204,164.6,202.9,168.6,195.8z"/>
					<path class="st200" d="M164.6,174.1c-3.3,2.7-13.9,5.8-19.6,3.4C148.9,183.3,160.9,181.5,164.6,174.1z"/>
					<path class="st200" d="M145.5,119.7l-37.7,25.1l21.7-37.3c5.9,3.1,10.3,5.7,13.6,7.9L145.5,119.7z"/>
					<path class="st200" d="M160.1,153c-2.8,3.2-13.1,8-19.1,6.6C146.3,164.1,157.8,160.9,160.1,153z"/>
					<path class="st199" d="M104.6,88.4c6.1,0.4,12.7,1.4,21.7,8.2c13.9,10.4,15.2,20.8,15.2,20.8l-37,29.9l18.6-37.6
						C123,109.7,119.6,94.6,104.6,88.4z"/>
					<path class="st201" d="M142.8,202.5v15.9h-6.7c-1.6,0-2.8-1.2-2.8-2.8v-13.1H142.8z"/>
					<path class="st199" d="M143.8,192.1V203h-10.5c-1.6,0-2.8-1.3-2.8-2.8v-8.1H143.8z"/>
					<path class="st200" d="M138.5,164.5c-4,2.4-15.8,4.4-24.4,2.8C120.8,170.7,131.7,171,138.5,164.5z"/>
					<path class="st200" d="M138.4,183.3c-3.9,2.5-15.6,4.9-24.3,3.6C121.5,189.7,131.7,189.3,138.4,183.3z"/>
					<rect x="97" y="100" class="st202" width="14.8" height="12"/>
					<path class="st200" d="M140.3,113.5c-1.6-3.9-5.3-10.4-14-16.9c-9.2-6.8-34.6-6.8-43.7,0c-8.6,6.5-12.4,12.9-14,16.9l-1.8,1.1
						c3.2,1,6.7,0.6,9.6-1.2c17.1-10.6,38.7-10.6,55.8,0c2.9,1.8,6.5,2.3,9.8,1.1L140.3,113.5z"/>
					<path class="st203" d="M145.4,108.7c-3,4-8.7,4.3-13.4,1.6c-17.1-10.6-38.7-10.6-55.8,0c-4.5,2.7-10.4,2.4-13.4-1.6
						c-3-4-0.8-11.4,5.3-15.2c22-13.5,49.8-13.5,71.8,0C146.2,97.1,148.4,104.6,145.4,108.7z"/>
					<rect x="65.6" y="203" class="st200" width="9.5" height="2"/>
					<rect x="133.3" y="203" class="st200" width="9.5" height="2"/>
				</g>
			</g>
		</g>
	</g>
</g>
<g id="Layer_2">
</g>
</svg>
