<?xml version="1.0" encoding="utf-8"?>
<!-- Generator: Adobe Illustrator 22.1.0, SVG Export Plug-In . SVG Version: 6.00 Build 0)  -->
<svg version="1.1" xmlns="http://www.w3.org/2000/svg" xmlns:xlink="http://www.w3.org/1999/xlink" x="0px" y="0px"
	 viewBox="0 0 222.3 134.1" style="enable-background:new 0 0 222.3 134.1;" xml:space="preserve">
<style type="text/css">
	.st0{fill:#4C4B4B;}
	.st1{fill:#5E5D5D;}
	.st2{fill:#3F3B39;}
	.st3{fill:#F6F6F6;}
	.st4{fill:#888888;}
	.st5{fill:#ACD7F2;}
	.st6{fill:#FFFFFF;}
	.st7{fill:#EDEEEE;}
	.st8{fill:#DCDCDC;}
	.st9{fill:#2EA7E0;}
	.st10{fill:#00AAD0;}
	.st11{fill:#929090;}
	.st12{fill:#78CDE7;stroke:#156081;stroke-width:0.5;stroke-linecap:round;stroke-linejoin:round;stroke-miterlimit:10;}
	.st13{fill:#A7003D;}
	.st14{fill:#D60051;}
	.st15{fill:#BF2345;}
	.st16{fill:#252221;}
	.st17{fill:#595757;}
	.st18{fill:#9E9EA0;}
	.st19{fill:#C8C8C9;}
	.st20{fill:#F29600;}
	.st21{fill:#F7B52D;}
	.st22{fill:#EA5515;}
	.st23{fill:#045993;}
	.st24{fill:#066EB7;}
	.st25{fill:#0462A4;}
	.st26{fill:#C30E24;}
	.st27{fill:#156081;}
	.st28{fill:#0D435D;}
	.st29{fill:#980C22;}
	.st30{fill:none;stroke:#000000;stroke-miterlimit:10;}
	.st31{fill:#FFFFFF;stroke:#00A9CE;stroke-linecap:round;stroke-linejoin:round;stroke-miterlimit:10;}
	.st32{fill:#00A9CE;}
	.st33{fill:#B2CC46;}
	.st34{fill:#FCD89F;}
	.st35{fill:#331907;}
	.st36{fill:#BA8663;}
	.st37{fill:#3A1E0A;}
	.st38{fill:#605F6D;}
	.st39{fill:#7FA5B2;}
	.st40{fill:#C6A273;}
	.st41{fill:#AACC42;}
	.st42{fill:#FFD4AE;}
	.st43{fill:#3C313F;}
	.st44{fill:#B71C1C;}
	.st45{fill:#968D81;}
	.st46{fill:#C93131;}
	.st47{fill:#EFEAE4;}
	.st48{fill:#C68E75;}
	.st49{fill:#AA3131;}
	.st50{fill:#AA3570;}
	.st51{fill:#91B3BC;}
	.st52{fill:#A37246;}
	.st53{fill:#4C414F;}
	.st54{fill:#6D4524;}
	.st55{fill:#B5AC9E;}
	.st56{fill:#6BA534;}
	.st57{fill:#FFCC99;}
	.st58{fill:#473224;}
	.st59{fill:#597A1A;}
	.st60{fill:#93867C;}
	.st61{opacity:0.6;fill:#CC9A75;enable-background:new    ;}
	.st62{fill:#E0AA79;}
	.st63{fill:#8E5A46;}
	.st64{fill:#D66A18;}
	.st65{fill:#994710;}
	.st66{fill:#D67B30;}
	.st67{fill:#66666D;}
	.st68{fill:#9B6937;}
	.st69{fill:#F9D45F;}
	.st70{opacity:0.35;fill:#00A9CE;enable-background:new    ;}
	.st71{opacity:0.66;fill:#00A9CE;enable-background:new    ;}
	.st72{opacity:0.95;fill:#00A9CE;enable-background:new    ;}
	.st73{opacity:0.79;fill:#00A9CE;enable-background:new    ;}
	.st74{opacity:0.47;fill:#00A9CE;enable-background:new    ;}
	.st75{opacity:0.15;}
	.st76{fill:#070707;}
	.st77{opacity:0.5;fill:#070707;enable-background:new    ;}
	.st78{opacity:7.000000e-02;fill:#070707;enable-background:new    ;}
	.st79{fill:#FFFFFF;stroke:#D3D3D3;stroke-miterlimit:10;}
	.st80{fill:#EDEDEF;}
	.st81{opacity:0.5;fill:#A0B5AC;enable-background:new    ;}
	.st82{fill:#333333;}
	.st83{fill:#8ED1EB;}
	.st84{opacity:7.000000e-02;enable-background:new    ;}
	.st85{fill:none;stroke:#FFFFFF;stroke-width:0.19;stroke-miterlimit:10;}
	.st86{opacity:0.3;fill:#070707;enable-background:new    ;}
	.st87{fill:#C4C7D8;}
	.st88{fill:#C9905C;}
	.st89{fill:#EABD8D;}
	.st90{fill:#A5714E;}
	.st91{fill:#4A2808;}
	.st92{opacity:0.3;fill:#FFFFFF;enable-background:new    ;}
	.st93{fill:#C4925C;}
	.st94{fill:#EABC8C;}
	.st95{fill:#945C49;}
	.st96{fill:#AF784A;}
	.st97{fill:#A5714F;}
	.st98{fill:#BF8D5E;}
	.st99{fill:#242E3F;}
	.st100{fill:#364765;}
	.st101{fill:#5A82AB;}
	.st102{fill:#8E745D;}
	.st103{fill:#1F272D;}
	.st104{fill:#67CDF1;}
	.st105{fill:#19C2ED;}
	.st106{fill:#767676;}
	.st107{fill:#0391C5;}
	.st108{fill:#DB4B42;}
	.st109{fill:#F1D418;}
	.st110{fill:#3AB986;}
	.st111{fill:#98989A;}
	.st112{fill:#D2A06F;}
	.st113{fill:#BD9700;}
	.st114{fill:#876C00;}
	.st115{fill:#693319;}
	.st116{fill:#1B507B;}
	.st117{fill:#D9D9D9;}
	.st118{fill:#606060;}
	.st119{fill:#F6CA9F;}
	.st120{fill:#91633E;}
	.st121{fill:#FF6600;}
	.st122{fill:#CF5200;}
	.st123{fill:#353535;}
	.st124{fill:#9E3E00;}
	.st125{fill:#CCCCCC;}
	.st126{fill:#666666;}
	.st127{fill:url(#SVGID_1_);}
	.st128{fill:url(#SVGID_2_);}
	.st129{fill:#FDA972;}
	.st130{fill:#FFD9B5;}
	.st131{fill:url(#SVGID_3_);}
	.st132{fill:url(#SVGID_4_);}
	.st133{fill:url(#SVGID_5_);}
	.st134{fill:#F3CDAA;}
	.st135{fill:#FFF6ED;}
	.st136{fill:url(#SVGID_6_);}
	.st137{fill:#E1E1E1;}
	.st138{fill:url(#SVGID_7_);}
	.st139{fill:url(#SVGID_8_);}
	.st140{fill:#9E6C42;}
	.st141{fill:#E3E3E3;}
	.st142{fill:#C3C2C2;}
	.st143{fill:#CC0000;}
	.st144{fill:#990000;}
	.st145{fill:#FFCC00;}
	.st146{fill:#E4B600;}
	.st147{fill:#969696;}
	.st148{fill:#737373;}
	.st149{fill:#EA0000;}
	.st150{fill:#FF1010;}
	.st151{fill:#A30000;}
	.st152{fill:#5D5D5D;}
	.st153{fill:#858585;}
	.st154{fill:#CED8D8;}
	.st155{fill:#ABCDDD;}
	.st156{fill:#E6E3DE;}
	.st157{fill:#1A1D22;}
	.st158{fill:#BA6336;}
	.st159{fill:#93432C;}
	.st160{fill:#E2A472;}
	.st161{fill:#3D7795;}
	.st162{fill:#CA895C;}
	.st163{fill:#A25E36;}
	.st164{fill:#88472D;}
	.st165{fill:#683325;}
	.st166{fill:#8A4A28;}
	.st167{fill:#7C8884;}
	.st168{fill:#934C36;}
	.st169{fill:#E5AB60;}
	.st170{fill:#BB753D;}
	.st171{fill:#CAD1D9;}
	.st172{opacity:0.6;fill:#DBA98E;enable-background:new    ;}
	.st173{fill:#708895;}
	.st174{opacity:0.2;fill:#89949B;enable-background:new    ;}
	.st175{fill:#758190;}
	.st176{fill:#F2B136;}
	.st177{fill:#E3912F;}
	.st178{fill:#363D48;}
	.st179{fill:#4F566B;}
	.st180{fill:#FCCF8E;}
	.st181{fill:#D8874F;}
	.st182{fill:#843B2F;}
	.st183{fill:#9A3933;}
	.st184{fill:#0497AF;}
	.st185{fill:#98B3C5;}
	.st186{fill-rule:evenodd;clip-rule:evenodd;fill:#FABF61;}
	.st187{fill-rule:evenodd;clip-rule:evenodd;fill:#F5B382;}
	.st188{fill-rule:evenodd;clip-rule:evenodd;fill:#E3A370;}
	.st189{fill-rule:evenodd;clip-rule:evenodd;fill:#F0DBB8;}
	.st190{fill-rule:evenodd;clip-rule:evenodd;fill:#E6E6E6;}
	.st191{fill-rule:evenodd;clip-rule:evenodd;}
	.st192{fill-rule:evenodd;clip-rule:evenodd;fill:#895531;}
	.st193{fill:#FFFFFF;stroke:#000000;stroke-width:4;stroke-miterlimit:10;}
	.st194{fill:#F4F4F4;}
	.st195{fill:none;stroke:#FFFFFF;stroke-width:8;stroke-linecap:round;stroke-linejoin:round;stroke-miterlimit:10;}
	.st196{fill:#F5B382;}
	.st197{fill:#475769;}
	.st198{fill:#F05B4C;}
	.st199{fill:#9CA8B5;}
	.st200{fill:#D7D7D7;}
	.st201{fill:#828C95;}
	.st202{fill:#5B6975;}
	.st203{fill:#A89B7A;}
	.st204{fill:#D6D6D6;}
	.st205{fill:#AEB8A5;}
	.st206{fill:#F5A8B3;}
	.st207{fill:#9EBEA2;}
	.st208{fill:#B4CDB8;}
	.st209{fill:#F8BCC3;}
	.st210{fill:#ECABB3;}
	.st211{fill:#E7D3CE;}
	.st212{fill:#D8C8BB;}
	.st213{fill:#946C5E;}
	.st214{fill:#A88774;}
	.st215{fill:#E96058;}
	.st216{fill:#F79C98;}
	.st217{fill:#F07C78;}
	.st218{fill:#D9C9BA;}
	.st219{fill:#E1D7CD;}
	.st220{fill:#9F8A75;}
	.st221{fill:#816549;}
	.st222{fill:#F5A788;}
	.st223{fill:#F38961;}
	.st224{fill:#D19278;}
	.st225{fill:#F7A588;}
	.st226{fill:#414141;}
	.st227{fill:#DBF0FA;}
	.st228{fill:#0B0B0B;}
	.st229{fill:#D2EBF7;}
	.st230{fill:#929292;}
	.st231{clip-path:url(#SVGID_10_);}
	.st232{fill:#E6CC80;}
	.st233{fill:#C2AB5C;}
	.st234{opacity:0.5;fill:#FFFFFF;enable-background:new    ;}
	.st235{fill-rule:evenodd;clip-rule:evenodd;fill:#CC8575;}
	.st236{fill-rule:evenodd;clip-rule:evenodd;fill:#AB6154;}
	.st237{fill-rule:evenodd;clip-rule:evenodd;fill:#F0A696;}
	.st238{fill-rule:evenodd;clip-rule:evenodd;fill:#CCCCCC;}
	.st239{fill-rule:evenodd;clip-rule:evenodd;fill:#666666;}
	.st240{fill-rule:evenodd;clip-rule:evenodd;fill:#2E5273;}
	.st241{fill-rule:evenodd;clip-rule:evenodd;fill:#698099;}
	.st242{fill-rule:evenodd;clip-rule:evenodd;fill:#ABABAB;}
	.st243{fill-rule:evenodd;clip-rule:evenodd;fill:#454545;}
	.st244{fill-rule:evenodd;clip-rule:evenodd;fill:#D19161;}
	.st245{fill-rule:evenodd;clip-rule:evenodd;fill:#EDC9C2;}
	.st246{fill-rule:evenodd;clip-rule:evenodd;fill:#361200;}
	.st247{fill-rule:evenodd;clip-rule:evenodd;fill:#57331A;}
	.st248{fill-rule:evenodd;clip-rule:evenodd;fill:#3B210F;}
	.st249{fill-rule:evenodd;clip-rule:evenodd;fill:#FFFFFF;}
	.st250{fill-rule:evenodd;clip-rule:evenodd;fill:#4F7396;}
	.st251{fill-rule:evenodd;clip-rule:evenodd;fill:#8AA3BA;}
	.st252{fill:#403D3C;}
	.st253{fill:#F7F7F7;}
	.st254{fill:#B9D7F2;}
	.st255{fill:#EEEFEF;}
	.st256{fill:#65A6DE;}
	.st257{fill:#919090;}
	.st258{fill:#96CDE6;stroke:#3A6080;stroke-width:0.5;stroke-linecap:round;stroke-linejoin:round;stroke-miterlimit:10;}
	.st259{fill:#8F003E;}
	.st260{fill:#B80050;}
	.st261{fill:#C54354;}
	.st262{fill:#292726;}
	.st263{fill:#595858;}
	.st264{fill:#9E9E9F;}
	.st265{fill:#DD9610;}
	.st266{fill:#E7B53E;}
	.st267{fill:#CD5621;}
	.st268{fill:#335991;}
	.st269{fill:#3F6EB4;}
	.st270{fill:#3862A1;}
	.st271{fill:#A71628;}
	.st272{fill:#3A6080;}
	.st273{fill:#2A455C;}
	.st274{fill:#DB4665;}
	.st275{fill:#D1D1D1;}
	.st276{opacity:0.6;}
	.st277{opacity:0.68;fill:#FFFFFF;}
	.st278{fill:#BCBECC;}
	.st279{fill:#E5E6EB;}
	.st280{fill:#373A47;}
	.st281{fill:#00A9CE;stroke:#00A9CE;stroke-miterlimit:10;}
	.st282{fill:#D7D8DB;}
	.st283{opacity:0.22;fill:#DFF3FD;enable-background:new    ;}
	.st284{fill:#5B5567;}
	.st285{fill:#A6A6A6;}
	.st286{opacity:0.65;fill:#C8C7CE;enable-background:new    ;}
	.st287{fill:#B9C3CE;}
	.st288{fill:#E6E7E8;}
	.st289{fill:#BEC7DD;}
	.st290{fill:#C3CAD1;}
	.st291{fill:#D8E2E5;}
	.st292{fill:#C2CCDB;}
	.st293{fill:#B1BFC3;}
	.st294{fill:#F1F2F2;}
	.st295{fill:#9D0E0D;}
	.st296{fill:#E2342B;}
	.st297{fill:#E7E4E5;}
	.st298{fill:#FFD8B5;}
	.st299{opacity:0.49;fill:#FFFFFF;}
	.st300{opacity:0.58;fill:#FFFFFF;}
	.st301{fill:url(#SVGID_11_);}
	.st302{fill:#333745;}
	.st303{fill:#242530;}
	.st304{fill:url(#SVGID_12_);}
	.st305{fill-rule:evenodd;clip-rule:evenodd;fill:#780000;}
	.st306{fill-rule:evenodd;clip-rule:evenodd;fill:#2B2B2B;}
	.st307{fill-rule:evenodd;clip-rule:evenodd;fill:#787878;}
	.st308{fill-rule:evenodd;clip-rule:evenodd;fill:#618CC7;}
	.st309{fill-rule:evenodd;clip-rule:evenodd;fill:#406BA3;}
	.st310{fill-rule:evenodd;clip-rule:evenodd;fill:#4D4D4D;}
	.st311{fill-rule:evenodd;clip-rule:evenodd;fill:#990000;}
	.st312{fill-rule:evenodd;clip-rule:evenodd;fill:#999999;}
	.st313{fill-rule:evenodd;clip-rule:evenodd;fill:#A6BDDE;}
	.st314{fill-rule:evenodd;clip-rule:evenodd;fill:#F7C7A1;}
	.st315{fill-rule:evenodd;clip-rule:evenodd;fill:#9CB5D6;}
</style>
<g id="Layer_1">
	<g>
		<path class="st2" d="M46.3,133.7H0.9c-0.5,0-0.9-0.4-0.9-0.9V46.2c0-0.5,0.4-0.9,0.9-0.9h45.4c0.5,0,0.9,0.4,0.9,0.9v86.6
			C47.2,133.3,46.7,133.7,46.3,133.7z"/>
		<rect x="2.6" y="55.9" class="st3" width="42" height="65.8"/>
		<g>
			<path class="st4" d="M28,51.8h-8.8c-0.4,0-0.6-0.3-0.6-0.6c0-0.4,0.3-0.6,0.6-0.6H28c0.4,0,0.6,0.3,0.6,0.6S28.2,51.8,28,51.8z"
				/>
			<path class="st4" d="M17.2,51.2c0-0.4-0.4-0.8-0.8-0.8s-0.8,0.4-0.8,0.8S16,52,16.4,52C16.9,52,17.2,51.6,17.2,51.2z"/>
		</g>
		<g>
			<path class="st5" d="M5.3,73.1v21.8c0,0.7,0.5,1.2,1.2,1.2h33.9c0.7,0,1.2-0.5,1.2-1.2V73.1H5.3z"/>
			<g>
				<path class="st3" d="M16.2,81.1c1.2-0.7,7.1-3.3,7.3-3.4c0.9-0.7,3.2-1.9,3.6-2c0.4-0.1,0.5,0.5,0.8,0.8c0.2,0.4,2.4,2,0.6,3.2
					c-1.8,1.2-13.3,4.2-13.7,3.5C14.2,82,15.5,81.4,16.2,81.1z"/>
				<g>
					<path class="st2" d="M27,77.2c-0.1-0.4-0.3-0.9-0.4-1.3c-0.9,0.4-2.4,1.2-3.1,1.8c0,0-0.2,0.1-0.4,0.2c0.3,0.5,0.5,1.1,0.7,1.2
						C24.2,79.3,27.1,77.8,27,77.2z"/>
				</g>
				<path class="st6" d="M9.5,89.2c-0.7,0-0.9-1.4-0.7-1.9c-0.3-4.4,3.5-5.3,5.9-4.9c0.4-0.1,8.9-4.3,10.5-4.8
					c2-0.7,3.8,2.8,5.6,2.8c2,0.1,4.5-1.1,4.7-1.8c0.3-0.9,0.9-2.2,1.8-0.9c0.9,1.4,1.7,7.6,0.9,9.5c0.2,0.3,0.2,1.9-0.2,1.9
					c-4.6,0-14.6,0-19.4,0C16,89.2,10.5,89.2,9.5,89.2z"/>
				<g>
					<path class="st2" d="M33.7,81.4c0.6,0,1.7-0.2,2.2-0.4c0.5,0.6,1.2,0.7,2.1,0.8c-0.3-1.7-0.6-3.2-1-3.8c-0.9-1.4-1.5,0-1.8,0.9
						c-0.2,0.5-1.8,1.4-3.4,1.7C32.3,81.4,32.6,81.4,33.7,81.4z"/>
					<path class="st7" d="M27.4,78.2c-0.7-0.5-1.4-0.9-2.2-0.6c-1.6,0.5-10,4.7-10.5,4.8c-0.1,0.2-0.3,0.9-0.4,1.9
						C15.5,83.8,24,79.7,27.4,78.2z"/>
					<path class="st6" d="M14.2,87.3h23.9c0.4-1.1,0.4-3.5,0.1-5.7c-1,0-1.6-0.2-2.1-0.8c-0.6,0.3-1.6,0.4-2.2,0.4
						c-1.2,0-1.4,0-1.7-1c-0.4,0.1-0.9,0.1-1.3,0.1c-1.1,0-2.2-1.4-3.4-2.2c-3.4,1.5-11.9,5.6-13.1,6C14.2,85.2,14.1,86.2,14.2,87.3
						z"/>
					<path class="st3" d="M14.3,84.3C14.2,84.3,14.2,84.3,14.3,84.3C14.2,84.3,14.2,84.3,14.3,84.3c0.1-1,0.3-1.7,0.4-1.9
						c-2.4-0.4-6.1,0.4-5.9,4.9h5.4C14.1,86.2,14.2,85.2,14.3,84.3z"/>
					<path class="st8" d="M38.1,87.3H14.2H8.8c-0.2,0.4,0,1.9,0.7,1.9c0.5,0,2.8,0,5,0c1.5,0,3.1,0,4.2,0c4.8,0,14.7,0,19.4,0
						C38.3,89.2,38.3,87.7,38.1,87.3z"/>
				</g>
				<path class="st6" d="M15.5,83.1c-0.2-0.1-0.3-0.3-0.2-0.4l0,0l0.5-1.8c0-0.1,0.1-0.2,0.2-0.2l0,0c0.1,0,0.2,0,0.3,0l0,0l1.2,0.7
					l0.6-1.6c0.1-0.2,0.3-0.3,0.4-0.2l0,0l1.6,0.6l0.8-1.7c0.1-0.2,0.3-0.3,0.4-0.2l0,0l1.4,0.6l0.4-1.4c0-0.1,0.1-0.2,0.2-0.2l0,0
					c0.1,0,0.2-0.1,0.3,0l0,0l2,0.6c0.2,0.1,0.3,0.3,0.2,0.4l0,0c-0.1,0.2-0.3,0.3-0.4,0.2l0,0l-1.6-0.5l-0.4,1.4
					c0,0.1-0.1,0.2-0.2,0.2l0,0c-0.1,0-0.2,0-0.3,0l0,0l-1.4-0.6l-0.8,1.7c-0.1,0.2-0.3,0.3-0.4,0.2l0,0l-1.5-0.6l-0.7,1.7
					c0,0.1-0.1,0.2-0.2,0.2l0,0c-0.1,0-0.2,0-0.3,0l0,0l-1.2-0.6L16.2,83l0,0C15.9,83.1,15.8,83.2,15.5,83.1L15.5,83.1
					C15.6,83.2,15.5,83.2,15.5,83.1L15.5,83.1z"/>
				<g>
					<path class="st2" d="M19,82.1l2,5.2h1.8l-2.2-6C20.1,81.6,19.5,81.9,19,82.1z"/>
					<path class="st2" d="M22.1,80.6l2.5,6.7h1.8l-2.8-7.4C23.1,80.2,22.6,80.4,22.1,80.6z"/>
				</g>
			</g>
			<path class="st9" d="M40.5,71.1H6.6c-0.7,0-1.2,0.5-1.2,1.2v1.2h36.4v-1.2C41.7,71.6,41.2,71.1,40.5,71.1z"/>
		</g>
		<rect x="11.4" y="106.8" class="st10" width="23.4" height="10.1"/>
		<g>
			<path class="st6" d="M18.6,109.5c0.9,0,1.4,0.4,1.4,1.1c0,0.5-0.3,0.9-0.8,1c0.6,0.1,1,0.5,1,1.1c0,0.7-0.6,1.2-1.6,1.2h-1.9
				v-4.4L18.6,109.5L18.6,109.5z M17.2,111.5h1.3c0.6,0,0.9-0.3,0.9-0.7c0-0.4-0.4-0.7-0.9-0.7h-1.3V111.5z M17.2,113.4h1.3
				c0.7,0,1.2-0.3,1.2-0.8c0-0.4-0.4-0.8-1.2-0.8h-1.3V113.4z"/>
			<path class="st6" d="M24.8,112.1c0,1.2-0.7,1.9-1.9,1.9c-1.2,0-1.9-0.7-1.9-1.9v-2.6h0.5v2.6c0,0.9,0.5,1.3,1.3,1.3
				s1.3-0.5,1.3-1.3v-2.6h0.5V112.1z"/>
			<path class="st6" d="M27.5,114H27v-1.5l-1.7-2.9h0.5l1.4,2.3l1.4-2.3h0.5l-1.7,2.8L27.5,114L27.5,114z"/>
		</g>
		<g>
			<path class="st11" d="M209.6,97.5H79.2c-1,0-1.7-0.8-1.7-1.7V1.7c0-1,0.8-1.7,1.7-1.7h130.4c1,0,1.7,0.8,1.7,1.7v94.1
				C211.3,96.7,210.6,97.5,209.6,97.5z"/>
			<path class="st7" d="M66.7,94.2h155.5v8.3c0,0.4-0.3,0.7-0.7,0.7H67.3c-0.4,0-0.7-0.3-0.7-0.7L66.7,94.2L66.7,94.2z"/>
			<g>
				<path class="st11" d="M66.7,100.7c0,1.3,1.2,2.5,2.8,2.5h150.1c1.5,0,2.8-1.1,2.8-2.5v-0.5H66.7V100.7z"/>
			</g>
			<rect x="84.3" y="6.7" class="st12" width="120.5" height="80.4"/>
			<rect x="97.8" y="16" class="st6" width="38.6" height="41.2"/>
			<rect x="139.8" y="16" class="st6" width="25.2" height="27.4"/>
			<rect x="139.8" y="46.5" class="st6" width="25.2" height="27.5"/>
			<rect x="168.3" y="16" class="st6" width="25.2" height="27.4"/>
			<rect x="168.3" y="46.5" class="st6" width="25.2" height="27.5"/>
			<g>
				<g>
					<path class="st13" d="M143.4,34.6l-0.3,1.2c-0.2,0.8,0,1.1,0.7,1.2c0.4,0.1,1.2,0.3,1.2-0.2l0.4-1.9L143.4,34.6z"/>
				</g>
				<g>
					<path class="st13" d="M161.5,34.6l0.3,1.2c0.2,0.8,0,1.1-0.7,1.2c-0.4,0.1-1.2,0.3-1.2-0.2l-0.4-1.9L161.5,34.6z"/>
				</g>
				<path class="st13" d="M157.6,25.7c-0.2-0.8-0.4-1.6-0.9-2c-1.2-0.9-2.8-1.1-4.1-1.1c-1.3,0-3,0.2-4.1,1.1
					c-0.4,0.3-0.7,1.2-0.9,2c-1,4.7-0.7,13.5-0.7,13.5c0,0.4,0.3,0.7,0.6,0.7h10c0.4,0,0.6-0.4,0.6-0.7
					C158.2,39.2,158.4,30.3,157.6,25.7z"/>
				<g>
					<path class="st14" d="M161.6,34.5l-2-9.3c-0.4-1.7-1.2-4-2.4-4.2c-0.8-0.2-0.9,1.2-0.7,2.1l2.7,12.8c0.1,0.4,1.1,0.3,1.5,0.2
						C161.6,35.9,161.9,35.5,161.6,34.5z"/>
					<path class="st14" d="M147.5,21c-1.1,0.3-2,2.6-2.4,4.2l-2,9.3c-0.2,1,0,1.3,0.9,1.5c0.4,0.1,1.4,0.3,1.5-0.2l2.7-12.8
						C148.4,22.1,148.3,20.9,147.5,21z"/>
				</g>
				<path class="st15" d="M157.9,22.9c-0.2-0.8-0.5-1.8-0.9-2.1c-1.2-1-3-1.2-4.5-1.2c-1.4,0-3.3,0.3-4.5,1.2
					c-0.4,0.4-0.8,1.2-0.9,2.1c-1.1,5.1-0.7,14.7-0.7,14.7c0,0.4,0.4,0.8,0.7,0.8H158c0.4,0,0.7-0.4,0.7-0.8
					C158.7,37.6,159,28,157.9,22.9z"/>
				<g>
					<g>
						<path class="st14" d="M154.8,34.2h-4.4c-0.2,0-0.3-0.2-0.3-0.4s0.1-0.4,0.3-0.4h4.4c0.2,0,0.3,0.2,0.3,0.4
							C155.1,34.1,154.9,34.2,154.8,34.2z"/>
					</g>
					<path class="st14" d="M156.3,27c-0.4-0.6-1.2-0.2-2.1,1.2c-0.4,0.5-0.6,1.2-0.8,1.9c0.1-0.6,0.2-1.3,0.2-2c0-2-0.4-3.3-1-3.3
						s-1,1.2-1,3.3c0,0.6,0.1,1.3,0.2,2c-0.2-0.6-0.4-1.3-0.8-1.9c-0.9-1.4-1.8-1.9-2.1-1.2c-0.4,0.6-0.1,2,0.8,3.4
						c0.9,1.4,2.5,2,2.9,2s2-0.4,2.9-1.9C156.4,29,156.7,27.6,156.3,27z"/>
				</g>
				<g>
					<path class="st13" d="M152.5,22.4c1.2,0,2.1-1,2.3-2.5c-0.8-0.2-1.6-0.3-2.3-0.3c-0.7,0-1.5,0.1-2.3,0.3
						C150.5,21.4,151.3,22.4,152.5,22.4z"/>
				</g>
				<g>
					<path class="st14" d="M152.5,22.8c-1.5,0-2.6-1.2-2.6-2.8c0-0.3,0.2-0.4,0.4-0.4s0.4,0.2,0.4,0.4c0,1.2,0.7,2,1.8,2
						s1.8-0.8,1.8-2c0-0.3,0.2-0.4,0.4-0.4s0.4,0.2,0.4,0.4C155.2,21.6,154.1,22.8,152.5,22.8z"/>
				</g>
			</g>
			<g>
				<rect x="111.7" y="45.8" class="st16" width="9.9" height="6.3"/>
				<g>
					<path class="st17" d="M131.4,44.1l0.4,2c0.3,1.2,0,1.7-1.2,2c-0.5,0.2-1.9,0.4-2-0.2l-0.6-2.9L131.4,44.1z"/>
				</g>
				<g>
					<path class="st17" d="M102.8,44.1l-0.4,2c-0.3,1.2,0,1.7,1.2,2c0.5,0.2,1.9,0.4,2-0.2l0.6-2.9L102.8,44.1z"/>
				</g>
				<g>
					<path class="st2" d="M102.4,44.1l3.2-14.4c0.5-2.6,2-6,3.8-6.4c1.2-0.3,1.4,1.8,1.1,3.3l-4.3,19.6c-0.2,0.7-1.7,0.4-2.4,0.3
						C102.4,46,102,45.5,102.4,44.1z"/>
					<path class="st2" d="M125,23.2c1.8,0.4,3.3,3.9,3.8,6.4L132,44c0.4,1.5,0,2-1.4,2.4c-0.7,0.2-2.2,0.4-2.4-0.3l-4.4-19.6
						C123.5,25,123.7,23,125,23.2z"/>
				</g>
				<path class="st16" d="M108.4,26.1c0.3-1.2,0.8-2.7,1.5-3.2c2-1.5,4.9-1.8,7.2-1.8s5.2,0.4,7.2,1.8c0.7,0.5,1.2,2,1.5,3.2
					c1.5,7.8,1.1,22.6,1.1,22.6c0,0.6-0.5,1.2-1.2,1.2h-17.4c-0.6,0-1.2-0.5-1.2-1.2C107.1,48.7,106.8,33.9,108.4,26.1z"/>
				<g>
					<path class="st2" d="M119.1,48.6h6.9c0,1.5,0,2.5,0,2.5c0,0.6-0.5,1.1-1.1,1.1h-5.9V48.6z"/>
					<path class="st2" d="M114.8,48.6v3.6H109c-0.5,0-1.1-0.5-1.1-1.1c0,0,0-1,0-2.5L114.8,48.6z"/>
				</g>
				<g>
					<path class="st16" d="M117,25.3c-2,0-3.4-1.5-3.7-3.8c1.2-0.3,2.6-0.4,3.7-0.4c1.2,0,2.5,0.1,3.7,0.4
						C120.3,23.8,118.9,25.3,117,25.3z"/>
				</g>
				<g>
					<path class="st17" d="M120.3,21.4c-0.4-0.1-0.7-0.1-1.1-0.2C119.6,21.3,120,21.3,120.3,21.4z"/>
					<path class="st17" d="M120.7,21.5c1.2,0.3,2.5,0.7,3.5,1.4c0.7,0.5,1.2,2,1.5,3.2c1.6,7.8,1.2,22.6,1.2,22.6
						c0,0.6-0.5,1.2-1.2,1.2h-7.2V25C119.6,24.4,120.4,23.2,120.7,21.5z"/>
				</g>
				<g>
					<g>
						<g>
							<path class="st2" d="M118.2,25.4c0.2,0,0.3,0,0.4,0c0.9-0.3,3.1-1.2,3.4-3.7c0-0.2-0.2-0.3-0.7-0.4c-0.5-0.2-0.8-0.3-0.9,0
								c-0.4,1.6-1.1,2.1-2.3,2.6c-0.4,0.2-0.4,0.5-0.3,1C117.9,25.1,117.9,25.4,118.2,25.4z"/>
						</g>
					</g>
					<g>
						<path class="st17" d="M119.1,25.4c-0.1,0-0.1,0-0.2-0.1l-0.7-1.5c0-0.1,0-0.2,0.1-0.2s0.2,0,0.3,0.1l0.7,1.5
							C119.3,25.2,119.3,25.3,119.1,25.4C119.2,25.4,119.1,25.4,119.1,25.4z"/>
					</g>
					<g>
						<path class="st17" d="M120.3,24.7C120.3,24.7,120.3,24.7,120.3,24.7l-1.2-1.3c-0.1-0.1-0.1-0.2,0-0.3c0.1-0.1,0.2-0.1,0.3,0
							l1.2,1.2c0.1,0.1,0.1,0.2,0,0.3C120.4,24.6,120.3,24.7,120.3,24.7z"/>
					</g>
					<g>
						<path class="st17" d="M121.3,23.6L121.3,23.6l-1.5-0.9c-0.1-0.1-0.1-0.2-0.1-0.3c0.1-0.1,0.2-0.1,0.3-0.1l1.4,0.9
							c0.1,0.1,0.1,0.2,0.1,0.3C121.4,23.6,121.3,23.6,121.3,23.6z"/>
					</g>
					<g>
						<path class="st17" d="M121.9,22.4L121.9,22.4l-1.7-0.4c-0.1,0-0.2-0.1-0.1-0.2c0-0.1,0.1-0.2,0.2-0.1l1.7,0.4
							c0.1,0,0.2,0.1,0.1,0.2C122,22.4,121.9,22.4,121.9,22.4z"/>
					</g>
				</g>
				<g>
					<path class="st17" d="M113.7,21.4c0.4-0.1,0.7-0.1,1.1-0.2C114.4,21.3,114,21.3,113.7,21.4z"/>
					<path class="st17" d="M113.2,21.5c-1.2,0.3-2.5,0.7-3.5,1.4c-0.7,0.5-1.2,2-1.5,3.2c-1.6,7.8-1.2,22.6-1.2,22.6
						c0,0.6,0.5,1.2,1.2,1.2h7.2V25C114.3,24.4,113.5,23.2,113.2,21.5z"/>
				</g>
				<g>
					<g>
						<g>
							<path class="st2" d="M115.8,25.4c-0.2,0-0.3,0-0.4,0c-0.9-0.3-3.1-1.2-3.4-3.7c0-0.2,0.2-0.3,0.7-0.4c0.5-0.2,0.8-0.3,0.9,0
								c0.4,1.6,1.1,2.1,2.3,2.6c0.4,0.2,0.4,0.5,0.3,1C116.1,25.1,116.1,25.4,115.8,25.4z"/>
						</g>
					</g>
					<g>
						<path class="st17" d="M114.8,25.4L114.8,25.4c-0.2-0.1-0.2-0.2-0.2-0.3l0.7-1.5c0-0.1,0.2-0.1,0.3-0.1s0.1,0.2,0.1,0.2
							l-0.7,1.5C115,25.3,114.9,25.4,114.8,25.4z"/>
					</g>
					<g>
						<path class="st17" d="M113.6,24.7C113.6,24.7,113.5,24.7,113.6,24.7c-0.2-0.2-0.2-0.3-0.1-0.4l1.2-1.2c0.1-0.1,0.2-0.1,0.3,0
							c0.1,0.1,0.1,0.2,0,0.3l-1.2,1.2C113.7,24.6,113.7,24.7,113.6,24.7z"/>
					</g>
					<g>
						<path class="st17" d="M112.7,23.6c-0.1,0-0.1,0-0.2-0.1c-0.1-0.1,0-0.2,0.1-0.3l1.4-0.9c0.1-0.1,0.2,0,0.3,0.1
							c0.1,0.1,0,0.2-0.1,0.3L112.7,23.6C112.7,23.6,112.7,23.6,112.7,23.6z"/>
					</g>
					<g>
						<path class="st17" d="M112.1,22.4c-0.1,0-0.2-0.1-0.2-0.1c0-0.1,0-0.2,0.1-0.2l1.7-0.4c0.1,0,0.2,0,0.2,0.1s0,0.2-0.1,0.2
							L112.1,22.4C112.2,22.4,112.2,22.4,112.1,22.4z"/>
					</g>
				</g>
				<path class="st2" d="M122,48c-0.6-1-0.9-3-0.8-6.3c1.1-0.1,1.7-0.4,4.3-0.6c0.4,3.6,0.5,5.9-0.1,6.9H122z"/>
				<path class="st2" d="M111.9,48c0.6-1,0.9-3,0.8-6.3c-1.1-0.1-1.7-0.4-4.3-0.6c-0.4,3.6-0.5,5.9,0.1,6.9H111.9z"/>
				<g>
					<path class="st16" d="M123.9,29.5c0,0.9-0.7,1.6-1.7,1.6c-0.9,0-1.7-0.7-1.7-1.6c0-0.9,0.7-1.6,1.7-1.6
						C123.1,27.9,123.9,28.6,123.9,29.5z"/>
					<path class="st2" d="M123.6,29.5c0,0.7-0.6,1.3-1.4,1.3c-0.8,0-1.4-0.6-1.4-1.3c0-0.7,0.6-1.3,1.4-1.3S123.6,28.7,123.6,29.5z"
						/>
					<polygon class="st17" points="122.2,28.3 122.6,29 123.4,29.1 122.8,29.7 122.9,30.4 122.2,30.1 121.5,30.4 121.6,29.7 
						121.1,29.1 121.9,29 					"/>
				</g>
			</g>
			<g>
				<g>
					<path class="st2" d="M143.9,65l-0.3,1.2c-0.2,0.8,0,1.1,0.7,1.2c0.4,0.1,1.1,0.3,1.2-0.2l0.4-1.8L143.9,65z"/>
				</g>
				<g>
					<path class="st2" d="M160.9,65l0.3,1.2c0.2,0.8,0,1.1-0.7,1.2c-0.4,0.1-1.1,0.3-1.2-0.2l-0.4-1.8L160.9,65z"/>
				</g>
				<path class="st18" d="M157.3,56.5c-0.2-0.7-0.4-1.5-0.8-1.9c-1.1-0.8-2.7-1.1-3.9-1.1s-2.8,0.2-3.9,1.1
					c-0.4,0.3-0.6,1.2-0.8,1.9c-0.9,4.4-0.6,12.9-0.6,12.9c0,0.4,0.3,0.7,0.6,0.7h9.5c0.4,0,0.6-0.3,0.6-0.7
					C157.9,69.4,158.2,60.9,157.3,56.5z"/>
				<g>
					<path class="st17" d="M161.2,64.9l-1.9-8.9c-0.3-1.6-1.2-3.7-2.2-4c-0.7-0.2-0.9,1.1-0.6,2l2.6,12.2c0.1,0.4,1,0.3,1.4,0.2
						C161.2,66.2,161.4,65.9,161.2,64.9z"/>
					<path class="st17" d="M147.8,52c-1.1,0.2-2,2.4-2.2,4l-1.9,8.9c-0.2,0.9,0,1.2,0.8,1.5c0.4,0.1,1.3,0.3,1.4-0.2l2.6-12.2
						C148.7,53.2,148.5,51.9,147.8,52z"/>
				</g>
				<path class="st7" d="M157.6,53.8c-0.2-0.8-0.4-1.7-0.9-2c-1.2-0.9-2.9-1.2-4.3-1.2s-3.1,0.2-4.3,1.2c-0.4,0.4-0.7,1.2-0.9,2
					c-1,4.8-0.7,13.9-0.7,13.9c0,0.4,0.4,0.7,0.7,0.7h10.3c0.4,0,0.6-0.4,0.7-0.7C158.4,67.9,158.6,58.7,157.6,53.8z"/>
				<g>
					<path class="st18" d="M152.5,53.4c1.2,0,2-1,2.2-2.4c-0.7-0.2-1.5-0.2-2.2-0.2s-1.4,0.1-2.2,0.2
						C150.5,52.4,151.3,53.4,152.5,53.4z"/>
				</g>
				<g>
					<path class="st19" d="M152.5,53.7c-1.4,0-2.5-1.1-2.5-2.7c0-0.3,0.2-0.4,0.4-0.4s0.4,0.2,0.4,0.4c0,1.2,0.6,1.9,1.7,1.9
						c1,0,1.7-0.7,1.7-1.9c0-0.3,0.2-0.4,0.4-0.4s0.4,0.2,0.4,0.4C155,52.7,154,53.7,152.5,53.7z"/>
				</g>
				<g>
					<g>
						<path class="st19" d="M153.4,55.8v2.1h0.5V59h-0.6v0.3h0.4v1.2h-2v-1.2h0.4V59h-1.8v-0.9l1.7-2.3H153.4z M152.1,57.5l-0.4,0.4
							h0.4V57.5z"/>
					</g>
					<g>
						<path class="st19" d="M151.4,61.9v0.6l-0.1,0.1l0.1,0.1v0.6l-0.4,0.4h-1.3v-0.6h0.2V62h-0.2v-0.6h1.4L151.4,61.9z M150.7,62.1
							h-0.3v0.2h0.3V62.1z M150.7,62.9h-0.3v0.3h0.3V62.9z"/>
						<path class="st19" d="M153.5,61.9v1.4l-0.4,0.4h-0.9l-0.4-0.4v-1.5l0.4-0.4h0.9L153.5,61.9z M152.8,62.1h-0.3v1.1h0.3V62.1z"
							/>
						<path class="st19" d="M155.7,61.5v0.6h-0.2l-0.4,0.8v0.3h0.2v0.5h-1v-0.6h0.2v-0.3l-0.4-0.8h-0.2v-0.6h0.9V62h-0.1l0.2,0.3
							L155,62h-0.1v-0.5L155.7,61.5L155.7,61.5z"/>
					</g>
					<g>
						<path class="st2" d="M151.4,61.9v0.6l-0.1,0.1l0.1,0.1v0.6l-0.4,0.4h-1.3v-0.6h0.2V62h-0.2v-0.6h1.4L151.4,61.9z M151.2,62
							l-0.3-0.3h-1.1v0.2h0.2v1.4h-0.2v0.2h1.1l0.4-0.4v-0.4l-0.2-0.2l0.2-0.2L151.2,62L151.2,62z M150.8,61.9L150.8,61.9l0.1,0.4
							l-0.1,0.1h-0.5v-0.6L150.8,61.9L150.8,61.9z M150.8,62.7L150.8,62.7l0.1,0.4l-0.2,0.2h-0.5v-0.6H150.8z M150.7,62.1h-0.3v0.2
							h0.3V62.1z M150.7,62.9h-0.3v0.3h0.3V62.9z"/>
						<path class="st2" d="M153.5,61.9v1.4l-0.4,0.4h-0.9l-0.4-0.4v-1.5l0.4-0.4h0.9L153.5,61.9z M153.3,62l-0.3-0.3h-0.6l-0.3,0.3
							v1.2l0.3,0.3h0.7l0.3-0.3L153.3,62L153.3,62z M153,62.1v1.2l-0.1,0.2h-0.4l-0.1-0.2v-1.2l0.2-0.1L153,62.1L153,62.1z
							 M152.8,62.1h-0.3v1.1h0.3V62.1z"/>
						<path class="st2" d="M155.7,61.5v0.6h-0.2l-0.4,0.8v0.3h0.2v0.5h-1v-0.6h0.2v-0.3l-0.4-0.8h-0.2v-0.6h0.9V62h-0.1l0.2,0.3
							L155,62h-0.1v-0.5L155.7,61.5L155.7,61.5z M155.5,61.7H155v0.2h0.1l-0.4,0.7l-0.4-0.7h0.1v-0.2h-0.5v0.2h0.1l0.5,1v0.5h-0.2
							v0.2h0.6v-0.2h-0.2v-0.5l0.5-1h0.1L155.5,61.7L155.5,61.7z"/>
					</g>
					<g>
						<path class="st2" d="M153.4,55.8v2.1h0.5V59h-0.6v0.3h0.4v1.2h-2v-1.2h0.4V59h-1.8v-0.9l1.7-2.3H153.4z M152.9,56.2h-0.9
							l-1.4,2v0.5h1.8v1h-0.4v0.4h1.2v-0.4h-0.4v-1h0.6v-0.4h-0.6V56.2z M152.4,56.6v1.6h-1.3L152.4,56.6L152.4,56.6z M152.1,57.5
							l-0.4,0.4h0.4V57.5z"/>
					</g>
				</g>
			</g>
			<g>
				<g>
					<path class="st20" d="M189.4,34.4l0.3,1.2c0.2,0.8,0,1-0.7,1.2c-0.4,0.1-1.1,0.3-1.2-0.1l-0.4-1.8L189.4,34.4z"/>
				</g>
				<g>
					<path class="st20" d="M172.4,34.4l-0.3,1.2c-0.2,0.8,0,1,0.7,1.2c0.4,0.1,1.1,0.3,1.2-0.1l0.4-1.8L172.4,34.4z"/>
				</g>
				<path class="st20" d="M176.1,25.8c0.2-0.7,0.4-1.5,0.8-1.9c1.1-0.8,2.7-1.1,3.9-1.1s2.8,0.2,3.9,1.1c0.4,0.3,0.6,1.1,0.8,1.9
					c0.9,4.4,0.6,12.8,0.6,12.8c0,0.4-0.3,0.7-0.6,0.7h-9.4c-0.4,0-0.6-0.3-0.6-0.7C175.4,38.6,175.2,30.3,176.1,25.8z"/>
				<g>
					<path class="st21" d="M172.1,34.3l1.9-8.9c0.3-1.6,1.2-3.7,2.2-4c0.7-0.2,0.8,1.1,0.6,2l-2.5,12.1c-0.1,0.4-1,0.3-1.4,0.2
						C172.2,35.5,171.9,35.2,172.1,34.3z"/>
					<path class="st21" d="M185.4,21.4c1.1,0.2,2,2.4,2.2,4l1.9,8.9c0.2,0.9,0,1.2-0.8,1.4c-0.4,0.1-1.3,0.3-1.4-0.2l-2.5-12.1
						C184.6,22.5,184.7,21.2,185.4,21.4z"/>
				</g>
				<path class="st7" d="M175.7,23.3c0.2-0.8,0.4-1.7,0.9-2c1.2-0.9,2.8-1.2,4.3-1.2s3.1,0.2,4.3,1.2c0.4,0.4,0.7,1.2,0.9,2
					c1,4.8,0.7,13.9,0.7,13.9c0,0.4-0.4,0.7-0.7,0.7h-10.3c-0.4,0-0.6-0.4-0.7-0.7C175,37.1,174.7,28.1,175.7,23.3z"/>
				<g>
					<path class="st20" d="M180.8,22.7c-1.2,0-2-0.9-2.2-2.4c0.7-0.2,1.5-0.2,2.2-0.2s1.4,0.1,2.2,0.2
						C182.8,21.8,182,22.7,180.8,22.7z"/>
				</g>
				<g>
					<path class="st21" d="M180.8,23.2c1.4,0,2.5-1.1,2.5-2.7c0-0.3-0.2-0.4-0.4-0.4s-0.4,0.2-0.4,0.4c0,1.2-0.6,1.9-1.7,1.9
						c-1,0-1.7-0.7-1.7-1.9c0-0.3-0.2-0.4-0.4-0.4s-0.3,0.2-0.3,0.4C178.3,22,179.3,23.2,180.8,23.2z"/>
				</g>
				<path class="st22" d="M183.2,27.8L183.2,27.8c0.3-0.1,0.4-0.2,0.5-0.4s0.2-0.4,0.2-0.5c0-0.2,0-0.3-0.1-0.4
					c-0.1-0.1-0.2-0.2-0.3-0.3c-0.1-0.1-0.3-0.1-0.4-0.2c-0.1,0-0.3,0-0.5,0h-0.8H181h-0.2l-0.4,2.1l0,0l-0.9-2.1h-1.1l-0.8,3.6h1.1
					l0.4-2.1l0,0l0.9,2.1h0.2h0.9h1.3c0.4,0,0.8-0.1,1.1-0.4c0.3-0.3,0.4-0.5,0.4-0.8C183.8,28.2,183.7,28,183.2,27.8z M182.1,29
					h-0.6l0.2-0.7h0.6c0.2,0,0.4,0,0.4,0.1c0.1,0.1,0.1,0.2,0.1,0.3C182.8,28.8,182.5,29,182.1,29z M182.8,27.4
					c-0.1,0.1-0.1,0.1-0.2,0.2c-0.1,0-0.2,0-0.4,0h-0.4l0.2-0.7h0.4c0.2,0,0.3,0,0.4,0.1s0.1,0.1,0.1,0.2
					C182.9,27.2,182.9,27.3,182.8,27.4z"/>
				<g>
					<path class="st22" d="M183.3,31.4h-5.1c-0.2,0-0.3-0.2-0.3-0.3c0-0.2,0.2-0.3,0.3-0.3h5.1c0.2,0,0.3,0.2,0.3,0.3
						C183.7,31.4,183.5,31.4,183.3,31.4z"/>
				</g>
			</g>
			<g>
				<rect x="178.1" y="66.3" class="st23" width="6.2" height="4.1"/>
				<g>
					<path class="st24" d="M171.9,65.2l-0.3,1.2c-0.2,0.8,0,1.1,0.7,1.2c0.4,0.1,1.2,0.3,1.2-0.2l0.4-1.9L171.9,65.2z"/>
				</g>
				<g>
					<path class="st24" d="M189.8,65.2l0.3,1.2c0.2,0.8,0,1.1-0.7,1.2c-0.4,0.1-1.2,0.3-1.2-0.2l-0.4-1.9L189.8,65.2z"/>
				</g>
				<g>
					<path class="st25" d="M190.1,65.1l-2-9.3c-0.4-1.6-1.2-3.9-2.3-4.2c-0.8-0.2-0.9,1.2-0.7,2.1l2.7,12.7c0.1,0.4,1.1,0.3,1.5,0.2
						C190.1,66.4,190.2,66.1,190.1,65.1z"/>
					<path class="st25" d="M176,51.6c-1.1,0.3-2,2.5-2.3,4.2l-2,9.3c-0.2,1,0,1.3,0.9,1.5c0.4,0.1,1.4,0.3,1.5-0.2l2.7-12.7
						C176.9,52.8,176.8,51.5,176,51.6z"/>
				</g>
				<path class="st23" d="M186.3,53.6c-0.2-0.8-0.5-1.8-0.9-2c-1.2-1-3-1.2-4.4-1.2s-3.2,0.3-4.4,1.2c-0.4,0.4-0.8,1.2-0.9,2
					c-1,5.1-0.7,14.6-0.7,14.6c0,0.4,0.4,0.8,0.7,0.8h10.8c0.4,0,0.7-0.4,0.7-0.8C187.1,68.1,187.4,58.5,186.3,53.6z"/>
				<g>
					<path class="st25" d="M179.7,68.1h-4.4c0,1,0,1.6,0,1.6c0,0.4,0.3,0.7,0.6,0.7h3.6L179.7,68.1L179.7,68.1z"/>
					<path class="st25" d="M182.3,68.1v2.3h3.6c0.4,0,0.6-0.4,0.6-0.7c0,0,0-0.6,0-1.6C186.6,68.1,182.3,68.1,182.3,68.1z"/>
				</g>
				<g>
					<path class="st23" d="M181,53c1.2,0,2.1-1,2.3-2.5c-0.8-0.2-1.6-0.3-2.3-0.3c-0.7,0-1.5,0.1-2.3,0.3C178.9,52,179.8,53,181,53z
						"/>
				</g>
				<g>
					<path class="st24" d="M178.9,50.4c0.2,0,0.4-0.1,0.6-0.1C179.3,50.4,179.1,50.4,178.9,50.4z"/>
					<path class="st24" d="M178.7,50.5c-0.8,0.2-1.5,0.4-2.1,0.9c-0.4,0.4-0.8,1.2-0.9,2c-1,5.1-0.7,14.6-0.7,14.6
						c0,0.4,0.4,0.8,0.7,0.8h4.4V52.8C179.3,52.4,178.9,51.6,178.7,50.5z"/>
				</g>
				<g>
					<g>
						<path class="st25" d="M180.2,53.1c-0.1,0-0.2,0-0.3,0c-0.5-0.2-2-0.8-2-2.4c0-0.1,0.1-0.2,0.4-0.3c0.4-0.1,0.5-0.2,0.5,0
							c0.2,1,0.7,1.4,1.4,1.7c0.3,0.1,0.3,0.4,0.2,0.6C180.5,52.8,180.5,53,180.2,53.1z"/>
					</g>
					<path class="st24" d="M179.5,53.3c-0.2-0.1-0.4-0.4-0.3-0.5l0,0l0.4-1c0.1-0.2,0.4-0.4,0.5-0.2l0,0c0.2,0.1,0.4,0.4,0.2,0.5
						l0,0l-0.4,1C179.9,53.3,179.7,53.4,179.5,53.3L179.5,53.3C179.6,53.4,179.6,53.4,179.5,53.3L179.5,53.3z"/>
					<path class="st24" d="M178.6,52.8c-0.2-0.2-0.2-0.4,0-0.6l0,0l0.7-0.8c0.2-0.2,0.4-0.2,0.6,0l0,0c0.2,0.2,0.2,0.4,0,0.6l0,0
						l-0.7,0.8c-0.1,0.1-0.2,0.2-0.4,0.2l0,0C178.8,52.9,178.7,52.8,178.6,52.8L178.6,52.8z"/>
					<path class="st24" d="M178,52c-0.1-0.2-0.1-0.4,0.1-0.6l0,0l0.9-0.6c0.2-0.1,0.4-0.1,0.6,0.1l0,0c0.1,0.2,0.1,0.4-0.1,0.6l0,0
						l-0.9,0.6c-0.1,0.1-0.2,0.1-0.3,0.1l0,0C178.2,52.2,178.1,52.1,178,52L178,52z"/>
					<path class="st24" d="M177.5,51.2c-0.1-0.3,0.1-0.4,0.3-0.5l0,0l1.1-0.3c0.3-0.1,0.4,0.1,0.5,0.3l0,0c0.1,0.3-0.1,0.4-0.3,0.5
						l0,0l-1.1,0.3H178l0,0C177.8,51.4,177.6,51.3,177.5,51.2L177.5,51.2z"/>
				</g>
				<g>
					<path class="st24" d="M183,50.4c-0.2,0-0.4-0.1-0.6-0.1C182.6,50.4,182.9,50.4,183,50.4z"/>
					<path class="st24" d="M183.3,50.5c0.8,0.2,1.5,0.4,2.1,0.9c0.4,0.4,0.8,1.2,0.9,2c1,5.1,0.7,14.6,0.7,14.6
						c0,0.4-0.4,0.8-0.7,0.8h-4.4V52.8C182.6,52.4,183.1,51.6,183.3,50.5z"/>
				</g>
				<g>
					<g>
						<path class="st25" d="M181.7,53.1c0.1,0,0.2,0,0.3,0c0.5-0.2,2-0.8,2-2.4c0-0.1-0.1-0.2-0.4-0.3c-0.4-0.1-0.5-0.2-0.5,0
							c-0.2,1-0.7,1.4-1.4,1.7c-0.3,0.1-0.3,0.4-0.2,0.6C181.5,52.8,181.5,53,181.7,53.1z"/>
					</g>
					<path class="st24" d="M181.9,53.1l-0.4-1c-0.1-0.2,0-0.4,0.3-0.5l0,0c0.2-0.1,0.4,0,0.5,0.3l0,0l0.4,1c0.1,0.2,0,0.4-0.3,0.5
						l0,0c-0.1,0-0.1,0-0.2,0l0,0C182.2,53.4,182,53.3,181.9,53.1L181.9,53.1z"/>
					<path class="st24" d="M182.8,52.8l-0.7-0.8c-0.2-0.2-0.2-0.4,0-0.6l0,0c0.2-0.2,0.4-0.2,0.6,0l0,0l0.7,0.8
						c0.2,0.2,0.2,0.4,0,0.6l0,0c-0.1,0.1-0.2,0.1-0.3,0.1l0,0C183,52.9,182.9,52.8,182.8,52.8L182.8,52.8z"/>
					<path class="st24" d="M183.4,52.1l-0.9-0.6c-0.2-0.1-0.3-0.4-0.1-0.6l0,0c0.1-0.2,0.4-0.3,0.6-0.1l0,0l0.9,0.6
						c0.2,0.1,0.3,0.4,0.1,0.6l0,0c-0.1,0.1-0.2,0.2-0.4,0.2l0,0C183.6,52.2,183.5,52.2,183.4,52.1L183.4,52.1z"/>
					<path class="st24" d="M183.8,51.4l-1.1-0.3c-0.3-0.1-0.4-0.3-0.3-0.5l0,0c0.1-0.3,0.3-0.4,0.5-0.3l0,0l1.1,0.3
						c0.3,0.1,0.4,0.3,0.3,0.5l0,0C184.3,51.3,184.1,51.5,183.8,51.4L183.8,51.4C183.9,51.4,183.9,51.4,183.8,51.4L183.8,51.4z"/>
				</g>
				<path class="st25" d="M177.9,67.7c0.4-0.6,0.5-2,0.5-4.1c-0.6,0-1.1-0.2-2.7-0.4c-0.3,2.3-0.4,3.8,0.1,4.5H177.9z"/>
				<path class="st25" d="M184.1,67.7c-0.4-0.6-0.5-2-0.5-4.1c0.6,0,1.1-0.2,2.7-0.4c0.3,2.3,0.4,3.8-0.1,4.5H184.1z"/>
				<g>
					<g>
						<path class="st6" d="M177.7,54.1c-0.6,0-1.2,0.4-1.2,1s0.5,1,1.2,1c0.6,0,1.2-0.4,1.2-1C178.9,54.5,178.3,54.1,177.7,54.1z
							 M177.9,55.6v-1.2c0.4,0,0.7,0.3,0.7,0.6C178.6,55.3,178.3,55.6,177.9,55.6z"/>
						<path class="st23" d="M177.6,54.4v1.2c-0.4,0-0.7-0.3-0.7-0.6C176.9,54.7,177.2,54.4,177.6,54.4z"/>
					</g>
					<g>
						<path class="st23" d="M178.5,56.8H177c-0.1,0-0.1-0.1-0.1-0.1c0-0.1,0.1-0.1,0.1-0.1h1.5C178.6,56.6,178.6,56.7,178.5,56.8
							C178.6,56.7,178.5,56.8,178.5,56.8z"/>
					</g>
				</g>
			</g>
			<rect x="97.6" y="61" class="st10" width="38.9" height="13.8"/>
			<g>
				<path class="st6" d="M110.6,65.5c1.2,0,2,0.5,2,1.5c0,0.7-0.4,1.2-1.1,1.3c0.9,0.1,1.3,0.7,1.3,1.5c0,1-0.8,1.6-2.1,1.6h-2.6v-6
					H110.6z M108.8,68h1.8c0.8,0,1.2-0.4,1.2-1s-0.4-1-1.2-1h-1.8V68z M108.8,70.7h1.8c1,0,1.5-0.4,1.5-1.1c0-0.6-0.5-1.1-1.5-1.1
					h-1.8V70.7z"/>
				<path class="st6" d="M119,68.9c0,1.5-1,2.5-2.5,2.5c-1.6,0-2.5-1-2.5-2.5v-3.5h0.7v3.5c0,1.2,0.7,1.9,1.9,1.9s1.8-0.7,1.8-1.9
					v-3.5h0.7L119,68.9L119,68.9z"/>
				<path class="st6" d="M122.8,71.4h-0.7v-2l-2.3-3.9h0.7l2,3.1l1.9-3.1h0.7l-2.2,3.9V71.4z"/>
			</g>
			<path class="st11" d="M157.1,98.7h-25.4c-0.1,0-0.2-0.1-0.2-0.2v-1.1c0-0.1,0.1-0.2,0.2-0.2h25.4c0.1,0,0.2,0.1,0.2,0.2v1.1
				C157.3,98.6,157.2,98.7,157.1,98.7z"/>
		</g>
		<circle class="st4" cx="23.8" cy="128" r="2.9"/>
		<g>
			<g>
				<path class="st8" d="M105.4,109.7V97.5c0-4.8-3.9-8.7-8.7-8.7l0,0c-4.8,0-8.7,3.9-8.7,8.7l0,0v12.2c0,0.4-0.3,0.7-0.7,0.7l0,0
					c-0.4,0-0.7-0.3-0.7-0.7l0,0V97.5c0-5.6,4.5-10,10-10l0,0c5.6,0,10,4.5,10,10l0,0v12.2c0,0.4-0.3,0.7-0.7,0.7l0,0
					C105.7,110.3,105.4,110,105.4,109.7L105.4,109.7z"/>
			</g>
			<rect x="80.7" y="104.6" class="st21" width="43.5" height="29.5"/>
			<rect x="80.7" y="104.6" class="st26" width="8.3" height="29.5"/>
			<g>
				<path class="st7" d="M115.7,108.7V96.5c0-4.8-3.9-8.7-8.7-8.7l0,0c-4.8,0-8.7,3.9-8.7,8.7l0,0v12.2c0,0.4-0.3,0.7-0.7,0.7l0,0
					c-0.4,0-0.7-0.3-0.7-0.7l0,0V96.5c0-5.6,4.5-10,10-10l0,0c5.6,0,10,4.5,10,10l0,0v12.2c0,0.4-0.3,0.7-0.7,0.7l0,0
					C116,109.4,115.7,109.2,115.7,108.7L115.7,108.7z"/>
			</g>
			<g>
				<rect x="106.8" y="118.4" class="st6" width="4.2" height="2.4"/>
				<rect x="101.2" y="118.4" class="st6" width="4.2" height="2.4"/>
				<rect x="95.7" y="118.4" class="st6" width="4.2" height="2.4"/>
				<rect x="106.8" y="118.4" class="st6" width="4.2" height="2.4"/>
				<rect x="106.8" y="122.2" class="st6" width="4.2" height="2.4"/>
				<rect x="101.2" y="122.2" class="st6" width="4.2" height="2.4"/>
				<rect x="95.7" y="122.2" class="st6" width="4.2" height="2.4"/>
				<rect x="112.3" y="122.2" class="st6" width="4.2" height="2.4"/>
				<rect x="106.8" y="122.2" class="st6" width="4.2" height="2.4"/>
				<rect x="101.2" y="126.1" class="st6" width="4.2" height="2.4"/>
				<rect x="95.7" y="126.1" class="st6" width="4.2" height="2.4"/>
			</g>
			<rect x="95.7" y="115.1" class="st6" width="13.1" height="1.2"/>
		</g>
		<g>
			<g>
				<path class="st8" d="M74.2,98.4V84.7c0-4.3-3.5-7.7-7.7-7.7l0,0c-4.3,0-7.7,3.5-7.7,7.7l0,0v13.7c0,0.4-0.3,0.7-0.7,0.7l0,0
					c-0.4,0-0.7-0.3-0.7-0.7l0,0V84.7c0-5.1,4.1-9.1,9.1-9.1l0,0c5.1,0,9.1,4.1,9.1,9.1l0,0v13.7c0,0.4-0.3,0.7-0.7,0.7l0,0
					C74.5,99,74.2,98.8,74.2,98.4L74.2,98.4z"/>
			</g>
			<rect x="51.7" y="93.2" class="st27" width="39.8" height="40.9"/>
			<polygon class="st28" points="51.7,134.1 59.7,134.1 59.7,93.3 55.7,95.9 51.7,93.3 			"/>
			<g>
				<path class="st7" d="M83.4,97.6V83.9c0-4.3-3.5-7.7-7.7-7.7l0,0c-4.3,0-7.7,3.5-7.7,7.7l0,0v13.7c0,0.4-0.3,0.7-0.7,0.7l0,0
					c-0.4,0-0.7-0.3-0.7-0.7l0,0V83.9c0-5.1,4.1-9.1,9.1-9.1l0,0c5.1,0,9.1,4.1,9.1,9.1l0,0v13.7c0,0.4-0.3,0.7-0.7,0.7l0,0
					C83.8,98.2,83.4,98,83.4,97.6L83.4,97.6z"/>
			</g>
			<rect x="59.6" y="105.8" class="st6" width="31.8" height="4"/>
			<rect x="59.6" y="113.7" class="st6" width="31.8" height="10.6"/>
		</g>
		<g>
			<g>
				<path class="st8" d="M136.5,116v-9c0-3.5-2.8-6.3-6.3-6.3l0,0c-3.5,0-6.3,2.8-6.3,6.3l0,0v9c0,0.4-0.3,0.7-0.7,0.7l0,0
					c-0.4,0-0.7-0.3-0.7-0.7l0,0v-9c0-4.2,3.4-7.6,7.6-7.6l0,0c4.2,0,7.6,3.4,7.6,7.6l0,0v9c0,0.4-0.3,0.7-0.7,0.7l0,0
					C136.8,116.7,136.5,116.3,136.5,116L136.5,116z"/>
			</g>
			<rect x="117.3" y="112.3" class="st15" width="34.4" height="21.8"/>
			<rect x="117.3" y="112.3" class="st29" width="6.6" height="21.8"/>
			<g>
				<path class="st7" d="M144.1,115.4v-9c0-3.5-2.8-6.3-6.3-6.3l0,0c-3.5,0-6.3,2.8-6.3,6.3l0,0v9c0,0.4-0.3,0.7-0.7,0.7l0,0
					c-0.4,0-0.7-0.3-0.7-0.7l0,0v-9c0-4.2,3.4-7.6,7.6-7.6l0,0c4.2,0,7.6,3.4,7.6,7.6l0,0v9c0,0.4-0.3,0.7-0.7,0.7l0,0
					C144.4,116,144.1,115.7,144.1,115.4L144.1,115.4z"/>
			</g>
			<g>
				<rect x="141" y="121.1" class="st6" width="4.5" height="6.3"/>
				<rect x="134.8" y="121.1" class="st6" width="4.6" height="6.3"/>
				<rect x="128.8" y="121.1" class="st6" width="4.5" height="6.3"/>
			</g>
		</g>
	</g>
</g>
<g id="Layer_2">
</g>
</svg>
