<?xml version="1.0" encoding="utf-8"?>
<!-- Generator: Adobe Illustrator 22.1.0, SVG Export Plug-In . SVG Version: 6.00 Build 0)  -->
<svg version="1.1" id="Layer_1" xmlns="http://www.w3.org/2000/svg" xmlns:xlink="http://www.w3.org/1999/xlink" x="0px" y="0px"
	 viewBox="0 0 391.3 391.3" style="enable-background:new 0 0 391.3 391.3;" xml:space="preserve">
<style type="text/css">
	.st0{fill:#E7E7E7;}
	.st1{clip-path:url(#SVGID_2_);}
	.st2{fill-rule:evenodd;clip-rule:evenodd;fill:#FABF61;}
	.st3{fill-rule:evenodd;clip-rule:evenodd;fill:#F5B382;}
	.st4{fill-rule:evenodd;clip-rule:evenodd;fill:#E3A370;}
	.st5{fill-rule:evenodd;clip-rule:evenodd;fill:#F0DBB8;}
	.st6{fill-rule:evenodd;clip-rule:evenodd;fill:#E6E6E6;}
	.st7{fill-rule:evenodd;clip-rule:evenodd;}
	.st8{fill-rule:evenodd;clip-rule:evenodd;fill:#895531;}
	.st9{fill:#333333;}
	.st10{fill:#FFFFFF;}
	.st11{fill:#F4F4F4;}
	.st12{fill:#F5B382;}
	.st13{fill:#475769;}
	.st14{fill:#F05B4C;}
	.st15{fill:#9CA8B5;}
	.st16{fill:#D7D7D7;}
	.st17{fill:#828C95;}
	.st18{fill:#5B6975;}
	.st19{fill:#A89B7A;}
	.st20{fill:#D6D6D6;}
	.st21{fill:#CCCCCC;}
	.st22{fill:#AEB8A5;}
	.st23{fill:#F5A8B3;}
	.st24{fill:#9EBEA2;}
	.st25{fill:#B4CDB8;}
	.st26{fill:#F8BCC3;}
	.st27{fill:#ECABB3;}
	.st28{fill:#E7D3CE;}
	.st29{fill:#D8C8BB;}
	.st30{fill:#946C5E;}
	.st31{fill:#A88774;}
	.st32{fill:#E96058;}
	.st33{fill:#F79C98;}
	.st34{fill:#F07C78;}
	.st35{fill:#D9C9BA;}
	.st36{fill:#E1D7CD;}
	.st37{fill:#9F8A75;}
	.st38{fill:#816549;}
	.st39{fill:#F5A788;}
	.st40{fill:#F38961;}
	.st41{fill:#D19278;}
	.st42{fill:#F7A588;}
	.st43{fill:#414141;}
	.st44{fill:#DBF0FA;}
	.st45{fill:#0B0B0B;}
	.st46{fill:#D2EBF7;}
	.st47{fill:#929292;}
	.st48{clip-path:url(#SVGID_4_);}
</style>
<rect x="-0.4" y="0" class="st0" width="391.3" height="391.3"/>
<g>
	<defs>
		<rect id="SVGID_1_" x="-0.4" y="0" width="391.3" height="391.3"/>
	</defs>
	<clipPath id="SVGID_2_">
		<use xlink:href="#SVGID_1_"  style="overflow:visible;"/>
	</clipPath>
	<g class="st1">
		<path class="st2" d="M413.5,287.9c2,8.5,28.9,55.8,36.6,85c-21.5,16.2-58.7,19.8-62.9,6.5c-5.3-16.7-27-53-35.1-52.9
			c-4.4,0-23.5,18.7-32.2,18.4c-8.6-0.2-21.6-10.2-28-13c-0.3,1.6,1.9-9.8,5.8-11.7c0.5-2.3,0.2-0.7,1.6-1.3
			c13.4,7.3,14.5,5.8,22.6,7.7c8.1,1.9,24.4-33.5,26.9-38.4c0.8-3.2,11.1-13.7,14-12.4c4.3-1.3,17.6-7.2,19-8.2
			c1.5-1,17.6-6.1,20.4-8.2c2.8-2.1,28.2-22.6,37.2-21.3c9,1.3,28.2,25.8,24,24.4c-0.9,0.3-6.4,5.1-10,6.7
			c-6.8-6.6-12.1-6.8-18.5-6.7C428.6,262.6,411.5,279.4,413.5,287.9L413.5,287.9z"/>
		<path class="st3" d="M298.7,333.1c5,1,8.3-12.1,2.8-12.7c-2.8-1.6-20.5-11.4-21.1-12.9c-0.6-1.5,0.3-11.9-1.2-12
			c-1.6-0.2-9.4-6-11.9-5c-2.4,1-9.5,10.7-9.5,12.3c0,1.5,4.5,4.5,6.1,3.8c1.6-0.7,5.1-6.4,6.6-7.9c1.6-1.5,2.9-0.3,1.6,2.4
			c-1.3,2.7-7.7,14.5-9,18.3c-1.3,3.9,8.2-0.3,11.7,1.8c3.5,2.1,17.3,7.9,24.2,11.9C298.8,333.1,298.4,332.9,298.7,333.1
			L298.7,333.1z"/>
		<path class="st4" d="M265.3,292.3c-2.9-1.8-6-3-8.2-2.6c-3.4,0.7-4.1,4.5-3.5,6c0.6,1.5,2,2.2,2.7,2.3c-3,1.2-5.4,12.8-4.7,14.8
			c0.7,1.9,7.5,7.3,11.5,7.7c-0.1-0.2,0-0.5,0.1-0.9c1.3-3.9,7.7-15.6,9-18.3c1.3-2.7,0-3.9-1.6-2.4c-1.6,1.5-5.1,7.2-6.6,7.9
			c-1.6,0.7-6-2.3-6.1-3.8C257.8,301.7,262.2,295.4,265.3,292.3L265.3,292.3z"/>
		<path class="st3" d="M471.9,302.4c2.1,2.7,4.6,4.9,6.7,5.3c3.5,0.6,5.4-2.8,5.4-4.4c0-1.6-1.1-2.8-1.7-3.1
			c3.3-0.1,9.5-10.1,9.6-12.3c0.2-10.7-17.4-14.4-18.8-16.2c-2.6-3.2-13.5-13.4-18.5-19.7c0.2,0.3,0.5,0.6,0.3,0.3
			c-4.3-2.6-12,8.4-7,10.9c2,2.5,15.2,17.8,15.3,19.4c0,1.6-4.5,11-3,11.7c1.4,0.7,6.8,8.9,9.4,8.8
			C469.9,303.2,470.8,302.9,471.9,302.4L471.9,302.4z"/>
		<polygon class="st5" points="445.4,268.7 463.5,252.3 474.4,264.4 456.3,280.7 445.4,268.7 		"/>
		<polygon class="st5" points="287,336.1 295.4,313.2 310.7,318.8 302.3,341.8 287,336.1 		"/>
		<path class="st5" d="M355.7,269.1c6-0.7,12.9,3.4,13.6,4.6c-2.7,13-7.3,31.6-9.6,35.9l-8.7-12.5l-4.6,10.9
			C341.1,298.5,349.7,269.8,355.7,269.1L355.7,269.1z"/>
		<path class="st4" d="M337.1,278.1c5.8,4.6,8.1,8.2,13.4,14.3c-1.2,3.6,11.1-10,7.6-13.8c-3.8-4-9.4-10.4-13-17.1
			c-1.3-0.1-2.7-0.3-4.2-0.6C340.5,263.2,339.6,271.8,337.1,278.1L337.1,278.1z"/>
		<path class="st5" d="M360.2,314.4c1.1,1.7,1.3,3.5,0.3,4.1c-0.9,0.6-2.6-0.2-3.7-1.9c-1.1-1.7-1.3-3.5-0.3-4.1
			C357.5,311.9,359.1,312.8,360.2,314.4L360.2,314.4z"/>
		<path class="st5" d="M373.1,328.7c1.3,1.5,1.7,3.3,0.8,4.1c-0.9,0.7-2.6,0.1-3.9-1.4c-1.3-1.5-1.7-3.3-0.8-4.1
			C370.1,326.5,371.8,327.2,373.1,328.7L373.1,328.7z"/>
		<path class="st5" d="M388.9,346.1c1.1,1.7,1.2,3.5,0.2,4.1c-0.9,0.6-2.6-0.3-3.6-2c-1.1-1.7-1.2-3.5-0.2-4.1
			C386.2,343.5,387.8,344.4,388.9,346.1L388.9,346.1z"/>
		<path class="st3" d="M346.4,226.8c4.8,0.1-30.4-13.4-44-9.1c-13.5,4.3-27.4,37.6-27.1,41.3c0.5,5.9,10.4,9.1,12.3,10.6
			s-0.7,8,2.3,11.8c6.3,2.7,15.5-3.1,16.7-1.6c1.3,1.4-4.2,6.8-13,11.7c-0.4,2.5,6.5,20.1,9.6,19.7c3.2-0.4,30-15.2,34.7-21.4
			c4.8-6.1,6.1-20.3,6.6-23.5c27.7,6.6,18.7-34.9-6-9.1c-1.3-2.3,1.9-14.7-8-18.2C320.8,235.5,328,222.4,346.4,226.8L346.4,226.8z"
			/>
		<path class="st6" d="M294.3,282.1c0.7,2.3,2.1,4.7,3.6,6.8c6.2-4.1,9.8-8,8.8-9.2C305.7,278.6,299.9,281.9,294.3,282.1
			L294.3,282.1z"/>
		<path class="st7" d="M300.1,239.4c1.7,0.4,2.4,3.2,1.7,6.2s-2.6,5.1-4.3,4.7c-1.7-0.4-2.4-3.2-1.7-6.2
			C296.5,241.1,298.4,239,300.1,239.4L300.1,239.4z"/>
		<path class="st7" d="M299.3,222.9c7-2,7.1,0.2,10.6,6.4C306.3,224.7,305,222.1,299.3,222.9L299.3,222.9z"/>
		<path class="st8" d="M361.7,258.1c14.2-9.3,19.7-30.5,10.8-35.5c2.5-24.3-23.1-37.7-45.1-34c4.9-3.3,13.7-5.8,13.7-5.8
			c-16-4.8-31.5-0.9-38.2,15.3c-0.9-12.6,14.6-17,14-17c-1.7,0-2.7,0.3-4.5,0.4c-19.4,0.9-22.1,11.1-20.7,23
			c-2.4-4.3-4.3-10.4-0.2-18.5c-8.3,10.8-4.1,26,7.1,33.6c1.3-0.9,2.5-1.5,3.8-1.9c13.5-4.3,48.7,9.2,44,9.1
			c-18.4-4.4-25.6,8.6-15.7,12.1c9.8,3.5,6.7,16,8,18.2C353.2,242,362.3,250.2,361.7,258.1L361.7,258.1z"/>
		<path d="M279.1,324.5l-6.7,4.1c-0.9,0.6-2.2,0.3-2.8-0.7l-30.5-49.6c-0.6-0.9-0.3-2.2,0.7-2.8l6.7-4.1c0.9-0.6,2.2-0.3,2.8,0.7
			l30.5,49.6C280.3,322.7,280,323.9,279.1,324.5z"/>
		<path class="st9" d="M274.6,320.7l-0.2,0.1c-0.9,0.5-2,0.3-2.6-0.6l-26.6-43.3c-0.5-0.9-0.3-2,0.6-2.6l0.2-0.1
			c0.9-0.5,2-0.3,2.6,0.6l26.6,43.3C275.7,319,275.5,320.1,274.6,320.7z"/>
		<g>
			<circle class="st10" cx="233" cy="258.3" r="30.8"/>
			<path d="M233,291.1c-2.5,0-5.1-0.3-7.6-0.9c-17.6-4.2-28.5-21.9-24.3-39.5c4.2-17.6,21.9-28.5,39.5-24.3
				c17.6,4.2,28.5,21.9,24.3,39.5C261.3,281,247.8,291.1,233,291.1z M232.9,229.5c-5.3,0-10.4,1.5-15,4.3
				c-6.6,4-11.1,10.4-12.9,17.9c-1.8,7.5-0.5,15.2,3.5,21.8c4,6.6,10.4,11.1,17.9,12.9c15.4,3.7,31-5.9,34.7-21.3
				c1.8-7.5,0.5-15.2-3.5-21.8c-4-6.6-10.4-11.1-17.9-12.9C237.4,229.7,235.2,229.5,232.9,229.5z"/>
		</g>
		<circle class="st11" cx="233" cy="258.3" r="30.1"/>
		<path class="st10" d="M255.5,268.8c-0.3,0-0.6,0-0.9-0.1c-2.1-0.5-3.5-2.7-3-4.8c1.2-4.9,0.4-10-2.3-14.3
			c-2.7-4.3-6.8-7.3-11.7-8.5c-2.1-0.5-3.5-2.7-3-4.8c0.5-2.1,2.7-3.5,4.8-3c7,1.7,12.9,6,16.7,12.1c3.8,6.1,4.9,13.4,3.3,20.4
			C258.9,267.6,257.3,268.8,255.5,268.8z"/>
		<g>
			<path class="st12" d="M272.4,291.8c-2-1-4-1.8-5-1.4c-2.4,1-9.5,10.7-9.5,12.3c0,1.5,4.5,4.5,6.1,3.8c1.6-0.7,5.1-6.4,6.6-7.9
				c0.4-0.4,0.8-0.6,1.1-0.6c0-0.1,0.1-0.2,0.1-0.3C272.3,295.7,272.5,293.7,272.4,291.8z"/>
		</g>
		<g>
			<g id="Layer_1_9_">
				
					<rect x="144.2" y="331.1" transform="matrix(1.745293e-03 -1 1 1.745293e-03 -215.3634 508.424)" class="st13" width="5.6" height="61.9"/>
				<path class="st14" d="M177.4,306c0.4-3.5,0.5-7,0.2-10.5l7.9-29.9c0,0-25.9-17.4-38.9-17.4s-38.9,17.4-38.9,17.4l7.9,29.9
					c-0.3,3.5-0.2,7,0.2,10.5c-1,3.4-2.2,12.2-0.3,17.6c-3.7,9.8-2.3,36.7-2.3,36.7h66.1c0,0,2.2-26.9-1.5-36.7
					C179.7,318.2,178.5,309.5,177.4,306z"/>
				
					<rect x="91.6" y="348.2" transform="matrix(0.1321 -0.9912 0.9912 0.1321 -270.4135 402.1307)" class="st13" width="5.6" height="14.6"/>
				
					<rect x="191.3" y="352.6" transform="matrix(0.9912 -0.1321 0.1321 0.9912 -45.2083 29.3581)" class="st13" width="14.6" height="5.6"/>
				<polygon class="st15" points="144.2,288.7 146.5,291.6 149,288.7 149,365.1 144.2,365.1 				"/>
				<path class="st14" d="M107.6,265.5c-4,3.4-12.2,19-11.3,30.7c-4.5,3.3-5.7,13.8-4,18.8c-2.9,1.6-5.1,14.1-3.4,19.1
					c-3.8,5.5-2.8,18-2.8,18l17.2,2.4c0,0,5.5-8.4,4-18.3c2-2.8,4.9-14.1,3.8-17.7c2.1-3.4,4.5-13.1,3.4-15.9
					c1.6-4.9,1.4-6.5,1.4-6.5S118.8,278.9,107.6,265.5z"/>
				<path class="st16" d="M89.2,334.8c3,2.3,12.3,4.5,17.1,2C103.2,342.2,92.7,341.2,89.2,334.8z"/>
				<path class="st17" d="M131.3,279.6h-13.4V296c0,2.1,1.7,3.8,3.8,3.8h10.9c2.1,0,3.8-1.7,3.8-3.8v-16.4H131.3z"/>
				<polygon class="st15" points="128.1,278.5 117.3,278.5 117.3,280.7 128.1,280.7 137,280.7 137,278.5 				"/>
				<polygon class="st16" points="128.1,280.1 117.3,280.1 117.3,280.7 128.1,280.7 137,280.7 137,280.1 				"/>
				<polygon class="st16" points="117.9,284.4 117.9,286.6 127.1,293.7 136.3,286.6 136.3,284.4 127.5,281.1 				"/>
				<polygon class="st15" points="128.1,280.7 117.3,280.7 117.3,284 127.1,290.8 137,284 137,280.7 				"/>
				<path class="st17" d="M161.8,279.6h13.4V296c0,2.1-1.7,3.8-3.8,3.8h-10.9c-2.1,0-3.8-1.7-3.8-3.8v-16.4H161.8z"/>
				<polygon class="st15" points="165.1,278.5 175.9,278.5 175.9,280.7 165.1,280.7 156.2,280.7 156.2,278.5 				"/>
				<polygon class="st16" points="165.1,280.1 175.9,280.1 175.9,280.7 165.1,280.7 156.2,280.7 156.2,280.1 				"/>
				<polygon class="st16" points="175.3,284.4 175.3,286.6 166,293.7 156.8,286.6 156.8,284.4 165.6,281.1 				"/>
				<polygon class="st15" points="165.1,280.7 175.9,280.7 175.9,284 166,290.8 156.2,284 156.2,280.7 				"/>
				<path class="st16" d="M92.8,315.5c3,2.4,12.4,5.2,17.5,3C106.8,323.7,96.1,322,92.8,315.5z"/>
				<path class="st13" d="M121.7,257l24.8,34.5l24.7-34.5c-8.1-4.5-18.1-8.9-24.6-8.9C139.9,248,129.9,252.6,121.7,257z"/>
				<path class="st16" d="M109.9,266.7l33.8,22.4l-19.4-33.4c-5.3,2.8-9.2,5.1-12.2,7L109.9,266.7z"/>
				<path class="st16" d="M96.8,296.6c2.5,2.9,11.7,7.2,17.2,5.9C109.1,306.5,98.9,303.6,96.8,296.6z"/>
				<path class="st15" d="M146.5,238.7c-5.5,0.4-11.3,1.3-19.5,7.3c-12.4,9.3-13.6,18.6-13.6,18.6l33.1,26.8L130,257.8
					C130,257.8,133.1,244.3,146.5,238.7z"/>
				<path class="st17" d="M111.8,340.9v14.2h6c1.4,0,2.5-1.1,2.5-2.5l0,0v-11.7H111.8z"/>
				<path class="st15" d="M110.9,331.6v9.8h9.4c1.4,0,2.5-1.1,2.5-2.5v-7.3H110.9z"/>
				<path class="st16" d="M116.3,306.8c3.6,2.2,14.1,3.9,21.8,2.5C131.7,311.7,122.4,312.4,116.3,306.8z"/>
				<path class="st16" d="M116.3,323.7c3.5,2.3,14,4.4,21.7,3.2C131.3,329.1,121.4,329.1,116.3,323.7z"/>
				<path class="st14" d="M155.5,219.9c0,0-5.3-1.9-9.1-1.9c-3.8,0-9.1,1.9-9.1,1.9l-21.3,25.6h60.8L155.5,219.9z"/>
				<path class="st14" d="M185.6,265.5c3.9,3.4,12.2,19,11.3,30.7c4.5,3.3,5.7,13.8,4,18.8c2.9,1.6,5.1,14.1,3.4,19.1
					c3.8,5.5,2.8,18,2.8,18l-17.2,2.4c0,0-5.5-8.4-4-18.3c-2-2.8-4.9-14.1-3.8-17.7c-2.1-3.4-4.5-13.1-3.4-15.9
					c-1.6-4.9-1.4-6.5-1.4-6.5S174.4,278.9,185.6,265.5z"/>
				<path class="st16" d="M203.9,334.8c-3,2.3-12.3,4.5-17.1,2C190,342.2,200.4,341.2,203.9,334.8z"/>
				<path class="st16" d="M200.3,315.5c-3,2.4-12.4,5.2-17.5,3C186.4,323.7,197.1,322,200.3,315.5z"/>
				<path class="st16" d="M183.3,266.7l-33.8,22.4l19.4-33.4c5.3,2.7,9.2,5.1,12.2,7L183.3,266.7z"/>
				<path class="st16" d="M196.4,296.6c-2.5,2.9-11.7,7.2-17.1,5.9C184,306.5,194.2,303.6,196.4,296.6z"/>
				<path class="st15" d="M146.7,238.7c5.5,0.4,11.3,1.3,19.5,7.3c12.4,9.3,13.6,18.6,13.6,18.6l-33.1,26.8l16.6-33.7
					C163.1,257.8,160.1,244.3,146.7,238.7z"/>
				<path class="st17" d="M180.9,340.9v14.2h-6c-1.4,0-2.5-1.1-2.5-2.5v-11.7H180.9z"/>
				<path class="st15" d="M181.7,331.6v9.8h-9.4c-1.4,0-2.5-1.2-2.5-2.5v-7.3H181.7z"/>
				<path class="st16" d="M177,306.8c-3.6,2.2-14.1,3.9-21.8,2.5C161.2,312.4,171,312.7,177,306.8z"/>
				<path class="st16" d="M176.9,323.7c-3.5,2.3-14,4.4-21.7,3.2C161.8,329.4,171,329.1,176.9,323.7z"/>
				<rect x="139.9" y="249.1" class="st18" width="13.2" height="10.7"/>
				<path class="st16" d="M178.6,261.2c-1.4-3.5-4.8-9.3-12.5-15.1c-8.2-6.1-30.9-6.1-39.1,0c-7.7,5.8-11.1,11.6-12.5,15.1l-1.6,1
					c2.9,0.9,6,0.5,8.6-1.1c15.3-9.5,34.6-9.5,49.9,0c2.6,1.6,5.9,2,8.8,1L178.6,261.2z"/>
				<path class="st19" d="M183.2,256.9c-2.7,3.6-7.8,3.8-12,1.4c-15.3-9.5-34.6-9.5-49.9,0c-4.1,2.4-9.3,2.2-12-1.4
					s-0.7-10.2,4.8-13.6c19.7-12.1,44.5-12.1,64.2,0C183.9,246.5,185.9,253.3,183.2,256.9z"/>
				<rect x="111.8" y="341.3" class="st16" width="8.5" height="1.8"/>
				<rect x="172.4" y="341.3" class="st16" width="8.5" height="1.8"/>
			</g>
		</g>
		<g>
			<rect x="133.6" y="118.9" class="st11" width="119" height="69"/>
			<polygon class="st20" points="139.3,113 133.6,118.9 252.7,118.9 257,113 			"/>
			<polygon class="st21" points="257,185.1 252.7,187.9 252.7,118.9 257,113 			"/>
			<circle class="st22" cx="170.5" cy="166.1" r="15.4"/>
			<circle class="st23" cx="170.5" cy="166.1" r="13.1"/>
			<path class="st24" d="M166,143.2L146.6,167c6.7,5.2,16.4,3.8,21.5-2.9C172.9,157.6,172.1,148.6,166,143.2z"/>
			<path class="st25" d="M155.9,139.5c-8.4,0-15.4,6.8-15.4,15.3c0,4.8,2.2,9.3,6,12.2l19.5-23.8
				C163.1,140.8,159.6,139.5,155.9,139.5z"/>
			<path class="st26" d="M195.3,165.8v12.8c0,1.4,1.2,2.5,2.5,2.5h1.5v-15.3H195.3z"/>
			<path class="st27" d="M199.3,181.2h3.1c1.4,0,2.5-1.1,2.5-2.5v-12.8h-5.6V181.2z"/>
			<polygon class="st28" points="199.3,162.3 196.2,162.3 195.3,162.3 195.3,165.8 199.3,165.8 			"/>
			<polygon class="st29" points="203.9,162.3 199.3,162.3 199.3,165.8 204.9,165.8 204.9,162.3 			"/>
			<rect x="199.3" y="159.4" class="st30" width="4.6" height="2.9"/>
			<rect x="196.2" y="159.4" class="st31" width="3" height="2.9"/>
			<path class="st32" d="M200,152.5c-0.5,0-1.1-0.1-1.6-0.3l-1,1.3l1-1.3c-0.6-0.2-1.2-0.6-1.6-1.2v8.3h6.3v-8.3
				C202.4,152.1,201.3,152.5,200,152.5z"/>
			<path class="st33" d="M202.5,145.5h-1c-2.5,0-4.5,2-4.5,4.5l0,0v1.2c0.5,0.5,1,0.9,1.6,1.2l4.7-5.9v-0.1
				C203.2,145.8,202.8,145.5,202.5,145.5z"/>
			<path class="st34" d="M200,152.5c1.2,0,2.3-0.5,3.1-1.5v-4.8l-4.7,5.9C199,152.5,199.5,152.5,200,152.5z"/>
			<polygon class="st35" points="223.2,160.9 223.8,148.9 219.7,148.9 219.7,160.9 			"/>
			<polygon class="st36" points="219.7,148.9 214.9,148.9 215.5,160.9 219.7,160.9 			"/>
			<path class="st37" d="M215.5,160.9l0.9,18.3c0,1.6,1.3,2.9,2.9,2.9c0.2,0,0.2,0,0.4,0V161L215.5,160.9z"/>
			<path class="st38" d="M219.7,160.9V182c1.4-0.2,2.5-1.4,2.5-2.9l0,0l0.9-18.2H219.7z"/>
			<path class="st39" d="M222.9,132.8h-7.3c-3,0-5.5,2.5-5.4,5.5c0,0.8,0.2,1.6,0.5,2.3l3,6.3l12.7-12.7
				C225.7,133.2,224.3,132.8,222.9,132.8z"/>
			<path class="st40" d="M226.6,134.2l-12.7,12.7l1,2h8.9l4.1-8.4C228.9,138.4,228.4,135.8,226.6,134.2z"/>
			<path class="st37" d="M234.1,147.8l0.5,32.7c0,0.5,0.4,0.9,0.9,0.9l0,0c0.2,0,0.4-0.1,0.5-0.2v-33.4L234.1,147.8L234.1,147.8z"/>
			<path class="st38" d="M236.1,181.2c0.2-0.2,0.4-0.5,0.4-0.8l0.5-32.7h-1L236.1,181.2z"/>
			<polygon class="st36" points="236.1,136.1 233.9,136.1 234.1,147.8 236.1,147.8 			"/>
			<polygon class="st35" points="236.1,136.1 236.1,147.8 237.2,147.8 237.4,136.1 			"/>
			<path class="st41" d="M238.6,128.6c-1.2,6.3-4.3,6.6-5,6.6l0.3,0.9h3.5l1.9-6.2C239.4,129.4,239.1,128.8,238.6,128.6z"/>
			<path class="st42" d="M238.6,128.6c-0.2-0.1-0.2-0.1-0.4-0.1h-0.7c-2.4,0-4.4,2-4.4,4.4c0,0.5,0.1,0.9,0.2,1.3l0.3,1
				C234.3,135.2,237.4,134.9,238.6,128.6z"/>
			<path class="st42" d="M247.4,135c-0.2,1.2-0.7,2.3-1.6,3.1c-0.9-0.8-1.4-2-1.6-3.1c0.2-1.2,0.7-2.3,1.6-3.1
				C246.8,132.7,247.3,133.8,247.4,135z"/>
			<path class="st37" d="M244.5,147.8l0.5,32.7c0,0.5,0.4,0.9,0.9,0.9l0,0c0.2,0,0.4-0.1,0.5-0.2v-33.4L244.5,147.8L244.5,147.8z"/>
			<path class="st38" d="M246.4,181.2c0.2-0.2,0.4-0.5,0.4-0.8l0.5-32.7h-0.9V181.2z"/>
			<polygon class="st36" points="246.4,136.1 244.3,136.1 244.5,147.8 246.4,147.8 			"/>
			<polygon class="st35" points="246.4,136.1 246.4,147.8 247.2,147.8 247.4,136.1 			"/>
		</g>
		<rect x="51" y="128" class="st11" width="53.5" height="82.2"/>
		<polygon class="st20" points="53.6,121 51,128 104.6,128 106.5,121 		"/>
		<polygon class="st21" points="106.5,207 104.6,210.2 104.6,128 106.5,121 		"/>
		<path class="st43" d="M64,145.3h20.5l3.1-7h-0.4H67c-2.6,0-4.7,2.1-4.7,4.7v52.2c0,0.1,0,0.2,0,0.3l1.7-3.9V145.3z"/>
		<polygon class="st44" points="64,191.7 84.5,145.3 64,145.3 		"/>
		<path class="st45" d="M87.6,138.4l-3.1,7h5.6v46.4H64v-0.2l-1.7,3.9c0.2,2.5,2.2,4.4,4.7,4.4h20.2c2.6,0,4.7-2.1,4.7-4.7v-52.2
			C91.9,140.6,90.1,138.6,87.6,138.4z"/>
		<polygon class="st46" points="64,191.8 90.1,191.8 90.1,145.3 84.5,145.3 64,191.7 		"/>
		<path class="st47" d="M74,140.9h6.3c0.4,0,0.6,0.3,0.6,0.6l0,0c0,0.4-0.3,0.6-0.6,0.6H74c-0.4,0-0.6-0.3-0.6-0.6l0,0
			C73.3,141.3,73.6,140.9,74,140.9z"/>
		<g>
			<defs>
				<circle id="SVGID_3_" cx="233" cy="258.3" r="30.1"/>
			</defs>
			<clipPath id="SVGID_4_">
				<use xlink:href="#SVGID_3_"  style="overflow:visible;"/>
			</clipPath>
			<g class="st48">
				<g id="Layer_1_5_">
					
						<rect x="171.2" y="339.3" transform="matrix(1.745293e-03 -1 1 1.745293e-03 -205.5217 554.2952)" class="st13" width="7.4" height="81.6"/>
					<path class="st14" d="M215.1,306.1c0.5-4.6,0.6-9.3,0.2-13.9l10.4-39.5c0,0-34.1-23-51.3-23s-51.3,23-51.3,23l10.4,39.5
						c-0.4,4.6-0.3,9.3,0.2,13.9c-1.3,4.5-2.9,16.1-0.4,23.2c-4.8,12.9-3,48.3-3,48.3h87.2c0,0,2.9-35.5-2-48.3
						C218.1,322.2,216.4,310.7,215.1,306.1z"/>
					
						<rect x="101.9" y="361.8" transform="matrix(0.1321 -0.9912 0.9912 0.1321 -276.5137 426.9676)" class="st13" width="7.4" height="19.3"/>
					
						<rect x="233.4" y="367.6" transform="matrix(0.9912 -0.1321 0.1321 0.9912 -46.9162 35.3607)" class="st13" width="19.3" height="7.4"/>
					<polygon class="st15" points="171.2,283.3 174.2,287.1 177.5,283.3 177.5,384.1 171.2,384.1 					"/>
					<path class="st14" d="M122.9,252.6c-5.3,4.4-16.1,25-14.9,40.5c-5.9,4.3-7.5,18.2-5.3,24.8c-3.8,2.1-6.7,18.6-4.5,25.2
						c-4.9,7.2-3.7,23.7-3.7,23.7l22.7,3.2c0,0,7.2-11.1,5.3-24.1c2.7-3.7,6.5-18.6,5.1-23.4c2.8-4.5,5.9-17.3,4.5-21
						c2.1-6.5,1.9-8.6,1.9-8.6S137.7,270.4,122.9,252.6z"/>
					<path class="st16" d="M98.7,344.2c4,3,16.2,6,22.6,2.7C117.1,353.9,103.3,352.5,98.7,344.2z"/>
					<path class="st17" d="M154.2,271.3h-17.7v21.6c0,2.8,2.3,4.9,4.9,4.9h14.3c2.8,0,4.9-2.3,4.9-4.9v-21.6H154.2z"/>
					<polygon class="st15" points="149.9,269.8 135.7,269.8 135.7,272.7 149.9,272.7 161.7,272.7 161.7,269.8 					"/>
					<polygon class="st16" points="149.9,271.9 135.7,271.9 135.7,272.7 149.9,272.7 161.7,272.7 161.7,271.9 					"/>
					<polygon class="st16" points="136.5,277.6 136.5,280.5 148.7,289.9 160.8,280.5 160.8,277.6 149.2,273.2 					"/>
					<polygon class="st15" points="149.9,272.7 135.7,272.7 135.7,277.1 148.7,286 161.7,277.1 161.7,272.7 					"/>
					<path class="st17" d="M194.5,271.3h17.7v21.6c0,2.8-2.3,4.9-4.9,4.9h-14.3c-2.8,0-4.9-2.3-4.9-4.9v-21.6H194.5z"/>
					<polygon class="st15" points="198.8,269.8 213,269.8 213,272.7 198.8,272.7 187,272.7 187,269.8 					"/>
					<polygon class="st16" points="198.8,271.9 213,271.9 213,272.7 198.8,272.7 187,272.7 187,271.9 					"/>
					<polygon class="st16" points="212.2,277.6 212.2,280.5 200,289.9 187.9,280.5 187.9,277.6 199.5,273.2 					"/>
					<polygon class="st15" points="198.8,272.7 213,272.7 213,277.1 200,286 187,277.1 187,272.7 					"/>
					<path class="st16" d="M103.4,318.6c3.9,3.2,16.4,6.9,23.1,4C121.9,329.4,107.8,327.3,103.4,318.6z"/>
					<path class="st13" d="M141.6,241.5l32.7,45.5l32.6-45.6c-10.7-5.9-23.8-11.8-32.5-11.8C165.6,229.6,152.4,235.6,141.6,241.5z"
						/>
					<path class="st16" d="M125.9,254.3l44.5,29.6l-25.6-44c-7,3.7-12.2,6.7-16.1,9.3L125.9,254.3z"/>
					<path class="st16" d="M108.7,293.7c3.3,3.8,15.5,9.5,22.7,7.8C125,306.7,111.5,302.9,108.7,293.7z"/>
					<path class="st15" d="M174.2,217.4c-7.2,0.5-14.9,1.6-25.7,9.7c-16.4,12.3-17.9,24.5-17.9,24.5l43.6,35.4l-21.7-44.4
						C152.5,242.5,156.5,224.7,174.2,217.4z"/>
					<path class="st17" d="M128.5,352.1v18.8h7.9c1.9,0,3.3-1.4,3.3-3.3l0,0v-15.5H128.5z"/>
					<path class="st15" d="M127.3,339.8v12.9h12.4c1.9,0,3.3-1.4,3.3-3.3v-9.6H127.3z"/>
					<path class="st16" d="M134.4,307.2c4.7,2.9,18.7,5.2,28.8,3.3C154.8,313.7,142.5,314.6,134.4,307.2z"/>
					<path class="st16" d="M134.4,329.4c4.6,3,18.5,5.8,28.7,4.2C154.2,336.5,141.2,336.5,134.4,329.4z"/>
					<path class="st14" d="M186.1,192.5c0,0-7-2.5-12.1-2.5c-5.1,0-12.1,2.5-12.1,2.5l-28,33.8h80.2L186.1,192.5z"/>
					<path class="st14" d="M225.8,252.6c5.2,4.4,16.1,25,14.9,40.5c5.9,4.3,7.5,18.2,5.3,24.8c3.8,2.1,6.7,18.6,4.5,25.2
						c4.9,7.2,3.7,23.7,3.7,23.7l-22.7,3.2c0,0-7.2-11.1-5.3-24.1c-2.7-3.7-6.5-18.6-5.1-23.4c-2.8-4.5-5.9-17.3-4.5-21
						c-2.1-6.5-1.9-8.6-1.9-8.6S211,270.4,225.8,252.6z"/>
					<path class="st16" d="M250,344.2c-3.9,3-16.2,6-22.6,2.7C231.6,353.9,245.4,352.5,250,344.2z"/>
					<path class="st16" d="M245.3,318.6c-3.9,3.2-16.4,6.9-23.1,4C226.8,329.4,240.9,327.3,245.3,318.6z"/>
					<path class="st16" d="M222.8,254.3l-44.5,29.6l25.6-44c7,3.6,12.2,6.7,16.1,9.3L222.8,254.3z"/>
					<path class="st16" d="M240,293.7c-3.3,3.8-15.5,9.5-22.6,7.8C223.7,306.7,237.2,302.9,240,293.7z"/>
					<path class="st15" d="M174.5,217.4c7.2,0.5,14.9,1.6,25.7,9.7c16.4,12.3,17.9,24.5,17.9,24.5L174.4,287l22-44.4
						C196.2,242.5,192.2,224.7,174.5,217.4z"/>
					<path class="st17" d="M219.6,352.1v18.8h-7.9c-1.9,0-3.3-1.4-3.3-3.3v-15.5H219.6z"/>
					<path class="st15" d="M220.7,339.8v12.9h-12.4c-1.9,0-3.3-1.5-3.3-3.3v-9.6H220.7z"/>
					<path class="st16" d="M214.4,307.2c-4.7,2.9-18.7,5.2-28.8,3.3C193.6,314.6,206.5,314.9,214.4,307.2z"/>
					<path class="st16" d="M214.3,329.4c-4.6,3-18.5,5.8-28.7,4.2C194.5,336.9,206.5,336.5,214.3,329.4z"/>
					<rect x="165.5" y="231.1" class="st18" width="17.4" height="14.1"/>
					<path class="st16" d="M216.6,247c-1.9-4.6-6.3-12.3-16.5-19.9c-10.8-8-40.8-8-51.5,0c-10.2,7.6-14.6,15.3-16.5,19.9l-2.2,1.3
						c3.8,1.2,7.9,0.7,11.3-1.4c20.2-12.5,45.7-12.5,65.9,0c3.4,2.2,7.7,2.7,11.5,1.3L216.6,247z"/>
					<path class="st19" d="M222.7,241.3c-3.5,4.7-10.3,5.1-15.8,1.9c-20.2-12.5-45.7-12.5-65.9,0c-5.4,3.2-12.3,2.9-15.8-1.9
						c-3.5-4.7-0.9-13.5,6.3-17.9c26-16,58.8-16,84.7,0C223.6,227.7,226.2,236.6,222.7,241.3z"/>
					<rect x="128.5" y="352.7" class="st16" width="11.2" height="2.4"/>
					<rect x="208.4" y="352.7" class="st16" width="11.2" height="2.4"/>
				</g>
			</g>
		</g>
	</g>
</g>
</svg>
