<?xml version="1.0" encoding="UTF-8"?>
<svg width="88px" height="52px" viewBox="0 0 88 52" version="1.1" xmlns="http://www.w3.org/2000/svg" xmlns:xlink="http://www.w3.org/1999/xlink">
    <title>cargo-logo</title>
    <g id="logo" stroke="none" stroke-width="1" fill="none" fill-rule="evenodd">
        <g id="cargo-logo" transform="translate(-0.000000, 0.000000)">
            <path d="M62.8539635,28.6005249 C64.2986976,28.6005249 65.7434318,28.603853 67.1881659,28.5980726 C67.5176452,28.5968465 67.6999885,28.6828509 67.6912305,29.0690826 C67.666883,30.1465025 67.7344954,31.2272505 67.4437269,32.2862785 C66.696662,35.0065405 64.9699175,36.8905803 62.4209637,37.98937 C59.4623065,39.2645475 56.5623285,39.0131904 53.8573056,37.2699807 C52.1979983,36.2007933 50.9935861,34.7000074 50.3362041,32.8143912 C49.2911891,29.8159723 49.6623568,26.9736226 51.5315079,24.4201145 C52.9930575,22.4236209 55.0063667,21.2002912 57.4938387,20.8653819 C60.7387102,20.4285285 63.4372521,21.4759958 65.6069808,23.9142474 C65.9723682,24.3248265 65.9672885,24.3439192 65.5337632,24.6896885 C64.6894835,25.3628351 63.8445032,26.0349307 63.0060039,26.7149087 C62.7285477,26.9399915 62.5269365,26.9399915 62.2724265,26.6478217 C60.965895,25.1473861 59.3135942,24.6973956 57.444268,25.2780568 C55.5852763,25.8555651 54.4181735,27.1643737 54.1568322,29.1042901 C53.8851563,31.1202267 54.7049133,32.7141987 56.4360369,33.771475 C58.2959044,34.9072238 60.5877208,34.592283 62.1058477,33.0660986 C62.184145,32.987451 62.3288286,32.9175614 62.2792578,32.791445 C62.2233812,32.6493888 62.0713408,32.7392468 61.9646673,32.7381958 C60.8119278,32.7268103 59.658838,32.7098196 58.5062737,32.7220809 C58.1132107,32.72646 57.9567913,32.5994677 57.9646735,32.1946689 C57.9849923,31.144399 57.9816642,30.0934285 57.9723807,29.0429835 C57.9690526,28.6714654 58.174167,28.6176908 58.4770217,28.6187417 C59.9359439,28.6253979 61.3948661,28.6217195 62.8539635,28.6217195 C62.8539635,28.614713 62.8539635,28.6077065 62.8539635,28.6005249" id="Combined-Shape" fill="#EE6517"></path>
            <path d="M72.5824475,22.7536933 C75.9631022,19.5690106 81.2394683,19.5690106 84.620123,22.7536933 C88.0007776,25.938376 88.315491,31.2053481 85.3381203,34.769937 L85.3381203,34.769937 L78.6003794,44.7343292 L71.8644502,34.769937 C68.8870795,31.2053481 69.2017928,25.938376 72.5824475,22.7536933 Z M78.6003794,24.2993553 C75.922432,24.2993553 73.7515267,26.4702606 73.7515267,29.148208 C73.7515267,31.8261554 75.922432,33.9970607 78.6003794,33.9970607 C81.2783268,33.9970607 83.4492321,31.8261554 83.4492321,29.148208 C83.4492321,26.4702606 81.2783268,24.2993553 78.6003794,24.2993553 Z" id="Combined-Shape" fill="#EE6517" fill-rule="nonzero"></path>
            <path d="M81.5422939,49.0906884 C81.5422939,50.6958602 80.2422415,51.9977424 78.6370713,52 L78.6370713,52 C77.0303029,52 75.7277597,50.6974568 75.7277597,49.0906884 L75.7277597,49.0906884 C75.7277597,47.4839199 77.0303029,46.1813768 78.6370713,46.1813768 L78.6370713,46.1813768 C79.408293,46.1813768 80.1478678,46.4880224 80.6928199,47.0337421 C81.2377721,47.5794618 81.5433773,48.3194675 81.5422939,49.0906884 L81.5422939,49.0906884 Z" id="Path" fill="#EE6517" fill-rule="nonzero"></path>
            <path d="M42.7747435,15.2446851 C43.1135494,16.6857091 42.2245105,18.1296053 40.7890188,18.4697188 C39.3535266,18.8098303 37.9151732,17.9173654 37.5763653,16.4763419 C37.2375594,15.0353179 38.1265983,13.5914217 39.5620901,13.2513082 C40.9975822,12.9111967 42.4359356,13.8036616 42.7747435,15.2446851 Z M5.07453387,14.8215198 C5.63896862,13.4536093 7.20118599,12.804024 8.56384734,13.3706292 C9.92650675,13.937239 10.5735984,15.5054765 10.0091683,16.873389 C9.44473355,18.2412996 7.88251618,18.8908848 6.51985483,18.3242796 C5.15719542,17.7576698 4.5101038,16.1894323 5.07453387,14.8215198 Z M35.0601098,0 C35.4587991,0 35.7882912,0.297409729 35.8404379,0.683278719 L35.847627,0.790551934 L35.847627,12.0976891 L36.4736659,12.0976891 L36.4736659,9.70857627 C36.4736607,9.57482301 36.5657093,9.46249366 36.6898957,9.43226722 L36.7543897,9.42427684 L36.9034465,9.42427684 L36.9034465,5.00267249 C36.9047426,4.13680653 37.5669318,3.42656208 38.4107699,3.3530303 L38.5530093,3.34675298 L43.2731437,3.34675298 C43.7897948,3.3474278 44.2704042,3.59971879 44.5663428,4.01717497 L44.6494356,4.14728033 L46.8852887,8.06512603 C46.9859701,8.24117098 47.0483277,8.43600805 47.0689707,8.63681739 L47.0765784,8.78834389 L47.0765784,13.9231907 L47.2107296,13.9231907 C47.3711073,13.9243789 47.5046601,14.0384703 47.5364486,14.190237 L47.5436233,14.2573672 L47.5436233,15.3746141 C47.5436233,15.6662821 47.3322315,15.9085607 47.0546111,15.9551008 L46.9598172,15.9631638 L46.410791,15.9631638 C46.3225021,15.9631638 46.2378293,15.927956 46.1753996,15.8652858 C46.1285774,15.8182831 46.0971434,15.7587204 46.0843529,15.6944863 L46.0778973,15.6289873 L46.0778973,15.496813 L43.7476415,15.496813 C43.5734473,13.5885015 41.9354941,12.1548528 40.0284993,12.2415652 C38.1850709,12.3253873 36.7199648,13.8012682 36.6228772,15.630559 L36.6177542,15.8210141 L33.8005792,15.8210141 L33.8005792,15.8833605 C33.8005792,16.1049556 33.6415136,16.2892558 33.4317503,16.3274757 L33.3509243,16.3347482 L13.4275404,16.3347482 C13.2067959,16.3347482 13.0232031,16.1750696 12.98513,15.964498 L12.9778855,15.8833605 L12.9778855,15.8210141 L11.1246116,15.8210141 C11.1246116,13.8390536 9.52408299,12.2323572 7.54973086,12.2323572 C5.6390675,12.2323572 4.07849899,13.7370677 3.97980536,15.6304243 L3.97485009,15.8210141 L1.55516012,15.8210141 C1.38433429,15.8198149 1.24236205,15.6977284 1.20954134,15.5359298 L1.20239218,15.4643929 L1.20239218,14.1825516 L0.355252258,14.1825516 C0.184422251,14.1825558 0.041600061,14.0614725 0.00764908194,13.899909 L0,13.8284242 L0,12.4518164 C0,12.3559239 0.0384285902,12.2640634 0.106672011,12.1969647 C0.157854577,12.1466406 0.222561276,12.1134257 0.292006189,12.1008122 L0.362705102,12.0951952 L0.802422889,12.0951952 L0.802422889,0.790551934 C0.802422889,0.390326305 1.09869092,0.0595644401 1.48307864,0.00721680735 L1.58994006,0 L35.0601098,0 Z M43.2333952,4.64355741 L39.0672555,4.64355741 C38.8940245,4.64355741 38.7491991,4.76634726 38.7147848,4.93018265 L38.7070347,5.00267249 L38.7169719,7.84816068 C38.7169719,8.01085636 38.8319334,8.14659786 38.9847595,8.17799111 L39.0523498,8.18483106 L41.6757509,8.18483106 C42.199339,8.18578643 42.6818037,8.45714426 42.9573159,8.896392 L43.0271999,9.02027238 L43.372515,9.74349023 C43.4177143,9.8340987 43.5006313,9.89795354 43.5965951,9.91978253 L43.6706287,9.9280358 L45.4444056,9.9280358 C45.6064767,9.9280358 45.7416971,9.81263101 45.7729699,9.65921594 L45.7797836,9.5913651 L45.7797836,8.84320869 C45.7796824,8.80410502 45.7727977,8.76547135 45.7595819,8.72899828 L45.7350665,8.67612043 L43.5240561,4.81313953 C43.4644249,4.70842642 43.3535479,4.64373679 43.2333952,4.64355741 Z" id="Combined-Shape" fill="#161D40" fill-rule="nonzero"></path>
            <path d="M9.49298066,38.7908216 C4.90800309,38.7562519 1.5554029,36.1527839 0.400177415,32.2664786 C-0.731611689,28.4593432 0.589208093,24.3726058 3.70573377,22.0990716 C6.40416807,20.1305739 9.31216127,19.8760484 12.3173214,21.1433024 C14.052469,21.8751751 15.3852636,23.1773569 16.3485502,24.8741339 C16.4836943,25.1123597 16.4901949,25.2649676 16.2293155,25.4084404 C15.2123134,25.9674651 14.1978772,26.5324007 13.1923367,27.1139941 C12.8893744,27.2891707 12.7718503,27.1299355 12.6177176,26.896725 C11.092471,24.5889794 8.14581633,24.0602255 6.0435557,25.7652418 C4.53832409,26.9861044 3.90383108,28.6363109 4.33595008,30.5971066 C4.7766225,32.5967707 6.03021236,33.8468294 7.95131146,34.2684712 C9.90593998,34.6974569 11.6903554,33.8373362 12.72857,32.0379251 C12.8556739,31.8174319 12.9663552,31.7799964 13.1704399,31.8983928 C14.1918898,32.490196 15.2119712,33.0854023 16.243001,33.6591146 C16.5386073,33.8235442 16.540318,33.9763311 16.377974,34.2521716 C14.636839,37.2102916 12.0769701,38.6572001 9.49298066,38.7908216 M40.7585218,24.7184545 L40.7585218,24.7167936 C40.282946,24.7167936 39.8072021,24.7208535 39.3316263,24.7149482 C39.1141722,24.7123647 38.9864557,24.7887637 38.9872918,25.054684 C38.9904889,26.1143053 38.9883042,27.1742956 38.987464,28.2339169 C38.9872918,28.4252836 39.0338452,28.5695928 39.2427289,28.5675629 C40.2357245,28.558705 41.2325852,28.6057624 42.2207074,28.5243808 C43.0760717,28.4538871 43.7638921,27.5147696 43.7168387,26.6524202 C43.6529805,25.478754 43.0164147,24.7496415 42.0180415,24.7204844 C41.5985937,24.7081203 41.1784737,24.7184545 40.7585218,24.7184545 L40.7585218,24.7184545 Z M34.8343259,29.6135283 C34.8343259,26.7391534 34.8344939,23.8649629 34.8341578,20.990588 C34.8341578,20.4046776 34.8670952,20.3648172 35.4453484,20.3651838 C37.671144,20.3672162 39.8971078,20.3603883 42.1227354,20.3801339 C44.7311764,20.4033858 47.0841844,22.6148977 47.5243021,25.4377864 C47.9163581,27.9513881 47.1922393,30.0121319 45.3934535,31.6076536 C45.0970169,31.8706213 45.2299428,32.0819181 45.3479125,32.3173895 C46.0696787,33.7580832 46.7985028,35.1947171 47.5248062,36.6328273 C47.8165376,37.2102489 48.1023872,37.7917304 48.4011765,38.3649076 C48.5467061,38.6441147 48.5307415,38.7786434 48.1966621,38.776798 C46.8668983,38.7686783 45.5369665,38.7662793 44.2070347,38.7790125 C43.9353011,38.781596 43.8116178,38.6348878 43.6936481,38.4021844 C42.8498791,36.7369071 41.9884651,35.0821485 41.1559553,33.4104123 C40.9756398,33.0483474 40.7874261,32.8372351 40.3856233,32.8807862 C40.0532244,32.9171403 39.7139355,32.8959184 39.3788478,32.8756191 C39.0903094,32.8582725 38.9795657,32.9780381 38.9822545,33.2998736 C38.9936818,34.6374102 38.9896486,35.9749468 38.9908249,37.3122988 C38.990993,37.4962839 38.9916652,37.6804535 38.9869598,37.8642541 C38.9636012,38.7740299 38.962929,38.7731073 38.1152949,38.7742145 C37.2054831,38.7755063 36.294999,38.7583442 35.3858594,38.7897157 C34.9645631,38.8042943 34.8365105,38.6596159 34.8395353,38.1899649 C34.8583567,35.3312758 34.848946,32.472402 34.848946,29.6135283 L34.8343259,29.6135283 Z M25.572029,27.2072125 C25.5276905,27.2600009 25.4886265,27.2869489 25.4759348,27.3249713 C25.0686469,28.5287682 24.6666335,29.7349647 24.2573677,30.9380234 C24.1625921,31.2167314 24.2583566,31.2935145 24.4943891,31.2914842 C25.1785866,31.2855778 25.8632786,31.2780102 26.5471464,31.2953602 C26.874658,31.3038507 26.8723504,31.1521302 26.7816955,30.8767445 C26.5123679,30.0566786 26.2616658,29.2288605 25.9918438,28.4089792 C25.8613007,28.0119587 25.7811947,27.5903899 25.572029,27.2072125 M31.522454,38.7828224 C30.932208,38.7826378 30.3414674,38.7678718 29.7518807,38.7890979 C29.4680484,38.7994341 29.3322308,38.6726312 29.2420704,38.3841408 C28.9926869,37.5869621 28.7124807,36.8015963 28.4670531,36.0031256 C28.3757389,35.7057756 28.2325041,35.6029674 27.9555944,35.6049977 C26.3360029,35.6168105 24.7160816,35.615703 23.0963252,35.6059206 C22.8387004,35.6042594 22.7038718,35.6945165 22.6166782,35.9776543 C22.3705913,36.7759404 22.0839569,37.5587222 21.8388589,38.3573774 C21.7445778,38.6641408 21.6158478,38.7953735 21.311412,38.7907013 C20.1449303,38.7713788 18.9777892,38.7719325 17.8113075,38.7892825 C17.4490174,38.7944506 17.3923168,38.6713392 17.5134648,38.3068039 C18.1356873,36.434477 18.7447236,34.5567973 19.3554082,32.6796714 C20.6234235,28.7823741 21.8935815,24.885815 23.150883,20.9839033 C23.2890082,20.555136 23.4635601,20.3478585 23.9130437,20.366316 C24.9822775,20.4098756 26.0548077,20.407107 27.1242063,20.3672388 C27.5605038,20.3509963 27.7657136,20.5237583 27.9028498,20.965815 C28.3304114,22.3447735 28.7797302,23.7156107 29.2295435,25.0860787 C30.5883785,29.2253536 31.9513342,33.3625982 33.3116527,37.5011348 C33.3541781,37.6305218 33.3851656,37.7647077 33.4258779,37.8950175 C33.7039413,38.7831915 33.704271,38.7831915 32.8816187,38.7831915 C32.4285088,38.7831915 31.975399,38.7831915 31.522454,38.7828224" id="Combined-Shape" fill="#161D40"></path>
        </g>
    </g>
</svg>