<svg width="64px" height="38px" viewBox="0 0 64 38" version="1.1" xmlns="http://www.w3.org/2000/svg" xmlns:xlink="http://www.w3.org/1999/xlink">
    <title>cargo-logo-small-h38</title>
    <g id="logo" stroke="none" stroke-width="1" fill="none" fill-rule="evenodd">
        <g id="cargo-logo-small-h38" transform="translate(-0.000000, 0.000000)">
            <path d="M45.9317426,20.9003836 C46.9875098,20.9003836 48.0432771,20.9028156 49.0990443,20.8985915 C49.3398176,20.8976955 49.4730686,20.9605449 49.4666684,21.2427911 C49.448876,22.0301365 49.4982851,22.8199139 49.2858004,23.5938189 C48.7398684,25.5817027 47.4780166,26.958501 45.6153196,27.7614627 C43.453224,28.6933232 41.3340093,28.5096391 39.3572618,27.2357551 C38.1446911,26.4544259 37.2645437,25.3576977 36.7841491,23.9797474 C36.0204843,21.7885951 36.2917223,19.7114934 37.6576404,17.8454683 C38.7256959,16.3864922 40.1969603,15.4925205 42.0147283,15.2477791 C44.3859805,14.9285401 46.357992,15.6939969 47.9435629,17.4757962 C48.2105767,17.7758348 48.2068647,17.7897871 47.8900577,18.0424647 C47.2730841,18.5343795 46.6555985,19.0255263 46.042849,19.5224332 C45.8400926,19.6869169 45.6927613,19.6869169 45.5067732,19.4734082 C44.5520002,18.376936 43.3445496,18.0480968 41.9785035,18.4724261 C40.6200096,18.8944514 39.7671268,19.8508885 39.5761466,21.2685197 C39.3776142,22.7417041 39.9766674,23.9065298 41.2417193,24.6791548 C42.6008532,25.5091251 44.2756421,25.278976 45.3850425,24.1636874 C45.4422598,24.1062142 45.5479901,24.0551411 45.5117653,23.962979 C45.4709324,23.8591687 45.359826,23.9248342 45.2818723,23.9240662 C44.4394857,23.915746 43.5968432,23.9033297 42.7545846,23.9122899 C42.4673463,23.91549 42.3530398,23.8226879 42.3587999,23.5268734 C42.3736482,22.7593685 42.3712162,21.9913516 42.364432,21.2237187 C42.362,20.9522247 42.5118913,20.9129279 42.7332081,20.9136959 C43.7993436,20.91856 44.8654791,20.9158719 45.9317426,20.9158719 C45.9317426,20.9107518 45.9317426,20.9056317 45.9317426,20.9003836" id="Combined-Shape" fill="#EE6517"></path>
            <path d="M53.0410193,16.627699 C55.5114977,14.3004309 59.3673037,14.3004309 61.8377822,16.627699 C64.3082606,18.9549671 64.5382434,22.8039082 62.3624725,25.4088001 L62.3624725,25.4088001 L57.4387388,32.6904714 L52.516329,25.4088001 C50.3405581,22.8039082 50.5705409,18.9549671 53.0410193,16.627699 Z M57.4387388,17.7572212 C55.4817772,17.7572212 53.8953464,19.343652 53.8953464,21.3006135 C53.8953464,23.2575751 55.4817772,24.8440059 57.4387388,24.8440059 C59.3957003,24.8440059 60.9821311,23.2575751 60.9821311,21.3006135 C60.9821311,19.343652 59.3957003,17.7572212 57.4387388,17.7572212 Z" id="Combined-Shape" fill="#EE6517" fill-rule="nonzero"></path>
            <path d="M59.5885994,35.8739646 C59.5885994,37.0469748 58.6385611,37.9983502 57.4655521,38 L57.4655521,38 C56.2913752,38 55.3395167,37.0481415 55.3395167,35.8739646 L55.3395167,35.8739646 C55.3395167,34.6997877 56.2913752,33.7479292 57.4655521,33.7479292 L57.4655521,33.7479292 C58.0291372,33.7479292 58.5695957,33.9720164 58.96783,34.3708115 C59.3660642,34.7696067 59.5893911,35.3103801 59.5885994,35.8739646 L59.5885994,35.8739646 Z" id="Path" fill="#EE6517" fill-rule="nonzero"></path>
            <path d="M31.2584664,11.1403468 C31.5060553,12.1934028 30.8563731,13.2485577 29.8073599,13.4971022 C28.7583464,13.7456452 27.7072419,13.0934594 27.4596516,12.0404037 C27.2120627,10.9873477 27.8617449,9.93219278 28.9107581,9.68364831 C29.9597716,9.43510528 31.010876,10.0872912 31.2584664,11.1403468 Z M3.70831321,10.8311106 C4.12078476,9.8314837 5.26240515,9.35678679 6.25819613,9.77084441 C7.2539857,10.1849054 7.72686035,11.3309252 7.31439222,12.3305535 C6.90192067,13.3301804 5.76030029,13.8048774 4.7645093,13.3908197 C3.76871973,12.9767587 3.29584508,11.830739 3.70831321,10.8311106 Z M25.6208495,0 C25.906902,0 26.1442096,0.20950653 26.1888106,0.484003299 L26.1963428,0.577711028 L26.1963428,8.84061892 L26.6538327,8.84061892 L26.6538327,7.09472881 C26.6538291,6.99970113 26.7174101,6.91947168 26.8043395,6.89478931 L26.8589771,6.88697153 L26.9679032,6.88697153 L26.9679032,3.65579913 C26.9688405,3.02964205 27.4427289,2.51485149 28.050182,2.45212165 L28.173353,2.4457041 L31.622682,2.4457041 C31.9918446,2.44618628 32.3358267,2.62246047 32.5530958,2.91546976 L32.6284337,3.03070486 L34.2623264,5.89374595 C34.3313028,6.01435366 34.3756647,6.14703114 34.3933704,6.28405909 L34.402115,6.42225131 L34.402115,10.1746393 L34.5001485,10.1746393 C34.6117668,10.1754663 34.7056046,10.2511288 34.7343554,10.354138 L34.743417,10.4188453 L34.743417,11.2352949 C34.743417,11.4458056 34.5927292,11.6211095 34.3935536,11.6581719 L34.3167895,11.6653889 L33.915578,11.6653889 C33.8510592,11.6653889 33.7891829,11.6396602 33.7435613,11.5938627 C33.7131468,11.563331 33.6916175,11.5255472 33.6806441,11.4845601 L33.6723096,11.421183 L33.6723096,11.3245941 L31.9694303,11.3245941 C31.8421346,9.93005881 30.6451688,8.88239244 29.2515956,8.94575922 C27.9137654,9.00659132 26.8486012,10.0707143 26.7644821,11.394711 L26.7591281,11.5615103 L24.7004233,11.5615103 L24.7004233,11.6070711 C24.7004233,11.7664758 24.5877872,11.8994715 24.4380524,11.9302298 L24.3718293,11.9369313 L9.81243335,11.9369313 C9.65364059,11.9369313 9.5211554,11.8238612 9.49051524,11.6735494 L9.48383937,11.6070711 L9.48383937,11.5615103 L8.12952388,11.5615103 C8.12952388,10.1131546 6.9599068,8.93903027 5.51711101,8.93903027 C4.12980737,8.93903027 2.9950728,10.0245742 2.90983775,11.3956605 L2.90469814,11.5615103 L1.13646316,11.5615103 C1.01417654,11.5606518 0.912123392,11.4750217 0.885463192,11.3603818 L0.878671205,11.3009025 L0.878671205,10.3641723 L0.259607419,10.3641723 C0.137317807,10.3641753 0.0346685716,10.2792661 0.00720761954,10.1648169 L0,10.1053869 L0,9.0994043 C0,9.02932903 0.0280824313,8.9622002 0.0779526237,8.91316651 C0.111199419,8.88047738 0.152255019,8.85766703 0.196610119,8.84652785 L0.265053728,8.83879649 L0.586385957,8.83879649 L0.586385957,0.577711028 C0.586385957,0.290556137 0.795088235,0.052334117 1.06853127,0.00756126204 L1.16187927,0 L25.6208495,0 Z M31.593635,3.39336888 L28.5491483,3.39336888 C28.4251399,3.39336888 28.3210508,3.4794748 28.2932135,3.59553361 L28.28591,3.65579913 L28.2931717,5.73519434 C28.2931717,5.85166095 28.3737881,5.94922604 28.4820602,5.97472491 L28.5382557,5.9812227 L30.4553564,5.9812227 C30.8263839,5.9818997 31.1691533,6.16838408 31.3731682,6.47236881 L31.4429538,6.59173751 L31.6952994,7.12024286 C31.7283297,7.18645674 31.7889229,7.23311989 31.8590503,7.24907185 L31.9131518,7.25510308 L33.2093733,7.25510308 C33.3253928,7.25510308 33.4225834,7.17417591 33.4479844,7.06548655 L33.4544572,7.0090745 L33.4544572,6.46234482 C33.4543833,6.43376905 33.4493522,6.40553676 33.4396945,6.37888336 L33.4217794,6.34024185 L31.806041,3.51729427 C31.7624643,3.44077315 31.6814389,3.39349996 31.593635,3.39336888 Z" id="Combined-Shape" fill="#161D40" fill-rule="nonzero"></path>
            <path d="M6.93717817,28.3471388 C3.58661764,28.3218764 1.13664058,26.4193421 0.292437342,23.5793498 C-0.534639311,20.7972123 0.430575145,17.8107504 2.70803622,16.1493215 C4.67996898,14.710804 6.80504093,14.5248046 9.00111946,15.4508748 C10.269112,15.9857049 11.2430772,16.9372993 11.9470175,18.1772517 C12.0457766,18.3513398 12.0505271,18.4628609 11.8598844,18.5677065 C11.1166905,18.9762245 10.3753718,19.389062 9.64055372,19.8140726 C9.4191582,19.9420863 9.33327524,19.8257221 9.2206398,19.655299 C8.1060365,17.9688695 5.95271193,17.5824725 4.41644455,18.8284459 C3.31646761,19.7206148 2.85279963,20.9265349 3.1685789,22.3594241 C3.49060875,23.820717 4.40669365,24.7342215 5.81057376,25.0423444 C7.23895614,25.3558339 8.542952,24.7272842 9.30164731,23.4123299 C9.39453092,23.2512002 9.47541342,23.2238435 9.62455224,23.310364 C10.3709964,23.7428355 11.1164405,24.177794 11.8698853,24.5970453 C12.0859054,24.7172054 12.0871555,24.8288574 11.9685195,25.0304331 C10.6961516,27.1921362 8.82547818,28.2494924 6.93717817,28.3471388 M29.7850736,18.063486 L29.7850736,18.0622723 C29.4375374,18.0622723 29.0898785,18.0652391 28.7423423,18.0609237 C28.5834335,18.0590357 28.4901022,18.1148658 28.4907133,18.3091922 C28.4930495,19.0835308 28.4914531,19.8581391 28.4908391,20.6324777 C28.4907133,20.7723226 28.5247331,20.8777794 28.6773788,20.876296 C29.4030294,20.8698229 30.1315046,20.904211 30.8535939,20.8447399 C31.4786678,20.7932252 31.9813058,20.106947 31.9469206,19.4767686 C31.9002549,18.6190894 31.4350722,18.0862765 30.7054919,18.0649694 C30.3989723,18.0559341 30.0919616,18.063486 29.7850736,18.063486 L29.7850736,18.063486 Z M25.4558535,21.6406553 C25.4558535,19.5401505 25.4559763,17.4397806 25.4557307,15.3392758 C25.4557307,14.9111105 25.4798003,14.8819818 25.90237,14.8822497 C27.528913,14.8837349 29.1555788,14.8787453 30.781999,14.8931748 C32.6881674,14.9101665 34.4076732,16.5262714 34.7292977,18.5891516 C35.0158001,20.4260144 34.4866364,21.9319426 33.1721391,23.0979007 C32.9555123,23.2900694 33.0526505,23.4444786 33.1388592,23.6165539 C33.6663036,24.6693685 34.1989059,25.7192163 34.7296661,26.770143 C34.9428544,27.192105 35.1517445,27.6170337 35.3700905,28.035894 C35.4764391,28.23993 35.4647727,28.3382394 35.2206377,28.3368909 C34.2488873,28.3309572 33.277014,28.3292041 32.3051407,28.3385091 C32.1065662,28.3403971 32.0161822,28.2331872 31.9299736,28.0631348 C31.3133732,26.8462014 30.6838783,25.6369547 30.0755058,24.4153013 C29.9437368,24.1507154 29.806196,23.996441 29.5125709,24.0282668 C29.269664,24.0548333 29.0217221,24.039325 28.7768503,24.0244909 C28.5659953,24.0118145 28.4850673,24.0993355 28.4870321,24.334523 C28.4953828,25.3119536 28.4924355,26.2893842 28.4932952,27.2666799 C28.493418,27.4011305 28.4939092,27.5357161 28.4904707,27.6700318 C28.4734009,28.334868 28.4729096,28.3341938 27.8534847,28.3350029 C27.1886222,28.3359469 26.5232685,28.3234053 25.8588972,28.3463307 C25.5510268,28.3569843 25.45745,28.2512578 25.4596604,27.9080513 C25.4734145,25.8190092 25.4665375,23.7298323 25.4665375,21.6406553 L25.4558535,21.6406553 Z M18.687252,19.8821938 C18.6548508,19.9207699 18.626304,19.9404626 18.6170293,19.9682482 C18.3193958,20.847946 18.0256168,21.7293973 17.7265379,22.6085555 C17.6572788,22.8122268 17.7272606,22.8683375 17.8997459,22.8668538 C18.3997364,22.8625376 18.9000882,22.8570075 19.3998378,22.8696863 C19.6391731,22.8758909 19.6374868,22.7650182 19.571239,22.5637749 C19.3744227,21.9644959 19.1912173,21.3595519 18.9940397,20.7604079 C18.8986428,20.4702775 18.8401038,20.162208 18.687252,19.8821938 M23.0356394,28.3412933 C22.6043058,28.3411584 22.1726108,28.3303679 21.741759,28.3458793 C21.534343,28.3534326 21.4350917,28.260769 21.3692053,28.049949 C21.1869635,27.4673954 20.9821974,26.8934742 20.8028465,26.3099764 C20.7361169,26.0926821 20.6314453,26.0175531 20.4290882,26.0190368 C19.2455406,26.0276692 18.061752,26.0268599 16.8780838,26.0197112 C16.6898195,26.0184973 16.5912909,26.0844544 16.5275725,26.2913627 C16.3477398,26.8747257 16.1382762,27.4467585 15.9591661,28.0303912 C15.8902684,28.2545644 15.7961964,28.3504652 15.5737242,28.3470509 C14.7212952,28.3329306 13.8683844,28.3333353 13.0159555,28.3460141 C12.751205,28.3497908 12.70977,28.2598248 12.7983012,27.9934336 C13.2530023,26.6251947 13.6980673,25.2530442 14.1443368,23.8812983 C15.0709633,21.0332733 15.9991557,18.1857879 16.917953,15.3343909 C17.0188906,15.0210609 17.1464478,14.8695889 17.4749166,14.8830771 C18.2562797,14.9149091 19.0400518,14.9128859 19.8215354,14.8837515 C20.1403681,14.8718819 20.2903291,14.9981311 20.3905441,15.3211725 C20.7029929,16.3288729 21.0313413,17.3306386 21.360051,18.3321344 C22.3530458,21.3569892 23.3490519,24.3803602 24.3431308,27.4046755 C24.3742071,27.4992275 24.3968518,27.5972864 24.4266031,27.6925128 C24.6298033,28.341563 24.6300442,28.341563 24.0288752,28.341563 C23.6977565,28.341563 23.3666377,28.341563 23.0356394,28.3412933" id="Combined-Shape" fill="#161D40"></path>
        </g>
    </g>
</svg>
