<svg data-v-423bf9ae="" xmlns="http://www.w3.org/2000/svg" viewBox="0 0 305 107" class="iconLeft"><!----><!----><!----><g data-v-423bf9ae="" id="bf3dc61a-cf3f-45da-95f0-0e6a8dfcba29" fill="white" transform="matrix(4.882017537052844,0,0,4.882017537052844,115.20573106181189,5.084380900279463)"><path d="M4.16 5.88L4.16 5.88Q6.10 5.88 6.96 6.57L6.96 6.57L6.96 6.57Q7.83 7.27 7.85 8.26L7.85 8.26L4.89 9.13L4.89 9.13Q4.93 8.05 4.33 8.05L4.33 8.05L4.33 8.05Q3.89 8.05 3.70 8.38L3.70 8.38L3.70 8.38Q3.51 8.71 3.51 9.56L3.51 9.56L3.51 9.56Q3.51 10.40 3.72 10.70L3.72 10.70L3.72 10.70Q3.92 10.99 4.31 10.99L4.31 10.99L4.31 10.99Q4.61 10.99 4.76 10.76L4.76 10.76L4.76 10.76Q4.91 10.53 4.94 10.07L4.94 10.07L7.83 10.96L7.83 10.96Q7.83 11.56 7.41 12.06L7.41 12.06L7.41 12.06Q7 12.56 6.21 12.86L6.21 12.86L6.21 12.86Q5.42 13.16 4.33 13.16L4.33 13.16L4.33 13.16Q2.34 13.16 1.31 12.22L1.31 12.22L1.31 12.22Q0.28 11.28 0.28 9.52L0.28 9.52L0.28 9.52Q0.28 7.78 1.29 6.83L1.29 6.83L1.29 6.83Q2.31 5.88 4.16 5.88L4.16 5.88ZM16.07 11.30L16.07 11.30Q16.31 11.30 16.42 11.24L16.42 11.24L16.17 12.88L16.17 12.88Q15.69 13.16 15.13 13.16L15.13 13.16L15.13 13.16Q14.28 13.16 13.71 12.86L13.71 12.86L13.71 12.86Q13.13 12.56 12.94 11.98L12.94 11.98L12.94 11.98Q12.61 12.53 11.99 12.84L11.99 12.84L11.99 12.84Q11.37 13.16 10.44 13.16L10.44 13.16L10.44 13.16Q9.35 13.16 8.82 12.73L8.82 12.73L8.82 12.73Q8.29 12.31 8.29 11.49L8.29 11.49L8.29 11.49Q8.29 10.61 8.92 10.09L8.92 10.09L8.92 10.09Q9.55 9.56 11.02 9.24L11.02 9.24L12.40 8.93L12.40 8.65L12.40 8.65Q12.40 8.33 12.24 8.15L12.24 8.15L12.24 8.15Q12.08 7.97 11.77 7.97L11.77 7.97L11.77 7.97Q11.44 7.97 11.24 8.15L11.24 8.15L11.24 8.15Q11.05 8.34 11.03 8.82L11.03 8.82L8.37 8.41L8.37 8.41Q8.48 7.21 9.38 6.54L9.38 6.54L9.38 6.54Q10.28 5.88 11.96 5.88L11.96 5.88L11.96 5.88Q13.82 5.88 14.71 6.59L14.71 6.59L14.71 6.59Q15.60 7.31 15.60 8.76L15.60 8.76L15.60 10.72L15.60 10.72Q15.60 11.30 16.07 11.30L16.07 11.30ZM11.80 11.41L11.80 11.41Q12.07 11.41 12.24 11.23L12.24 11.23L12.24 11.23Q12.40 11.06 12.40 10.72L12.40 10.72L12.40 10.05L11.94 10.19L11.94 10.19Q11.65 10.28 11.48 10.46L11.48 10.46L11.48 10.46Q11.31 10.65 11.31 10.92L11.31 10.92L11.31 10.92Q11.31 11.16 11.45 11.28L11.45 11.28L11.45 11.28Q11.59 11.41 11.80 11.41L11.80 11.41ZM21.87 5.88L21.87 5.88Q22.36 5.88 22.60 6.05L22.60 6.05L22.33 8.68L22.33 8.68Q22.20 8.58 21.97 8.52L21.97 8.52L21.97 8.52Q21.73 8.46 21.45 8.46L21.45 8.46L21.45 8.46Q20.80 8.46 20.43 8.76L20.43 8.76L20.43 8.76Q20.06 9.07 20.06 9.66L20.06 9.66L20.06 13.02L16.84 13.02L16.84 6.02L19.74 6.02L19.81 7.77L19.81 7.77Q20.31 5.88 21.87 5.88L21.87 5.88ZM27.86 11.03L27.86 11.03Q30.70 11.03 30.70 13.41L30.70 13.41L30.70 13.41Q30.70 14.73 29.60 15.38L29.60 15.38L29.60 15.38Q28.50 16.03 26.45 16.03L26.45 16.03L26.45 16.03Q24.44 16.03 23.53 15.65L23.53 15.65L23.53 15.65Q22.62 15.27 22.62 14.52L22.62 14.52L22.62 14.52Q22.62 14.06 22.94 13.71L22.94 13.71L22.94 13.71Q23.25 13.37 23.98 13.23L23.98 13.23L23.98 13.23Q22.81 12.77 22.81 11.66L22.81 11.66L22.81 11.66Q22.81 11.17 23.13 10.78L23.13 10.78L23.13 10.78Q23.45 10.39 24.00 10.19L24.00 10.19L24.00 10.19Q22.79 9.60 22.79 8.27L22.79 8.27L22.79 8.27Q22.79 5.88 26.57 5.88L26.57 5.88L26.57 5.88Q27.37 5.88 27.94 5.98L27.94 5.98L27.94 5.98Q28.04 5.03 28.55 4.38L28.55 4.38L28.55 4.38Q29.05 3.74 30.02 3.74L30.02 3.74L30.02 3.74Q30.21 3.74 30.32 3.75L30.32 3.75L30.59 5.74L30.59 5.74Q30.35 5.68 30.09 5.68L30.09 5.68L30.09 5.68Q29.68 5.68 29.40 5.84L29.40 5.84L29.40 5.84Q29.12 6.01 28.98 6.26L28.98 6.26L28.98 6.26Q30.35 6.83 30.35 8.27L30.35 8.27L30.35 8.27Q30.35 10.64 26.57 10.64L26.57 10.64L26.57 10.64Q25.69 10.64 25.02 10.51L25.02 10.51L25.02 10.51Q24.84 10.57 24.84 10.74L24.84 10.74L24.84 10.74Q24.84 11.03 25.44 11.03L25.44 11.03L27.86 11.03ZM26.57 7.55L26.57 7.55Q26.29 7.55 26.14 7.73L26.14 7.73L26.14 7.73Q25.98 7.92 25.98 8.26L25.98 8.26L25.98 8.26Q25.98 8.60 26.14 8.79L26.14 8.79L26.14 8.79Q26.29 8.97 26.57 8.97L26.57 8.97L26.57 8.97Q26.85 8.97 27.01 8.79L27.01 8.79L27.01 8.79Q27.16 8.60 27.16 8.26L27.16 8.26L27.16 8.26Q27.16 7.92 27.01 7.73L27.01 7.73L27.01 7.73Q26.85 7.55 26.57 7.55L26.57 7.55ZM26.64 14.08L26.64 14.08Q27.50 14.08 27.88 14L27.88 14L27.88 14Q28.27 13.92 28.27 13.73L28.27 13.73L28.27 13.73Q28.27 13.62 28.15 13.57L28.15 13.57L28.15 13.57Q28.04 13.52 27.76 13.52L27.76 13.52L25.82 13.52L25.82 13.52Q25.30 13.52 25.12 13.57L25.12 13.57L25.12 13.57Q24.95 13.62 24.95 13.76L24.95 13.76L24.95 13.76Q24.95 13.93 25.34 14.01L25.34 14.01L25.34 14.01Q25.73 14.08 26.64 14.08L26.64 14.08ZM34.79 5.88L34.79 5.88Q36.65 5.88 37.67 6.83L37.67 6.83L37.67 6.83Q38.70 7.78 38.70 9.52L38.70 9.52L38.70 9.52Q38.70 11.26 37.67 12.21L37.67 12.21L37.67 12.21Q36.65 13.16 34.79 13.16L34.79 13.16L34.79 13.16Q32.93 13.16 31.91 12.21L31.91 12.21L31.91 12.21Q30.88 11.26 30.88 9.52L30.88 9.52L30.88 9.52Q30.88 7.78 31.91 6.83L31.91 6.83L31.91 6.83Q32.93 5.88 34.79 5.88L34.79 5.88ZM34.79 8.05L34.79 8.05Q34.51 8.05 34.37 8.18L34.37 8.18L34.37 8.18Q34.23 8.30 34.17 8.61L34.17 8.61L34.17 8.61Q34.12 8.92 34.12 9.52L34.12 9.52L34.12 9.52Q34.12 10.12 34.17 10.43L34.17 10.43L34.17 10.43Q34.23 10.74 34.37 10.86L34.37 10.86L34.37 10.86Q34.51 10.99 34.79 10.99L34.79 10.99L34.79 10.99Q35.07 10.99 35.21 10.86L35.21 10.86L35.21 10.86Q35.35 10.74 35.41 10.43L35.41 10.43L35.41 10.43Q35.46 10.12 35.46 9.52L35.46 9.52L35.46 9.52Q35.46 8.92 35.41 8.61L35.41 8.61L35.41 8.61Q35.35 8.30 35.21 8.18L35.21 8.18L35.21 8.18Q35.07 8.05 34.79 8.05L34.79 8.05Z"></path></g><!----><g data-v-423bf9ae="" id="e6a01ca0-12f2-4d63-a37c-0895beca9ba2" transform="matrix(1.0887620713975694,0,0,1.0887620713975694,-5.793072038624409,-0.4320038052250723)" stroke="none" fill="white"><path d="M24.67 10.85a2.5 2.5 0 0 0-.09 1.91l7.52 20.83a2.5 2.5 0 0 0 3.2 1.5l23.29-8.41a2.5 2.5 0 0 0 1.5-3.2L52.57 2.65a2.5 2.5 0 0 0-3.2-1.5L26.08 9.56a2.5 2.5 0 0 0-1.41 1.29zM48.72 6.7l5.82 16.13L36 29.54l-5.87-16.13zM94.25 70a2.5 2.5 0 0 0-3.19-1.52L50.19 83a9.52 9.52 0 0 0-7.05-3.13h-.25L24.83 30a2.5 2.5 0 0 0-1.4-1.46L9.06 22.61a2.5 2.5 0 0 0-1.9 4.62l13.34 5.5 17.59 48.61A9.55 9.55 0 1 0 52.5 87.5l40.22-14.26A2.5 2.5 0 0 0 94.25 70zM43.14 94a4.56 4.56 0 1 1 4.56-4.56A4.56 4.56 0 0 1 43.14 94zm10.75-57.26a2.5 2.5 0 0 0-3.21-1.52l-12.74 4.61a2.5 2.5 0 0 0-1.5 3.2l11.25 31.16a2.5 2.5 0 0 0 3.2 1.5l34.74-12.54a2.5 2.5 0 0 0 1.5-3.2L75.89 28.79a2.5 2.5 0 0 0-3.2-1.5L60.14 31.8a2.5 2.5 0 0 0-1.51 3.2l2.77 7.91-4.76 1.69zm13 6.83l-2.77-7.9L72 32.83l9.59 26.47-30 10.85L42 43.68l8-2.9 2.75 7.86A2.5 2.5 0 0 0 56 50.16l9.46-3.41a2.5 2.5 0 0 0 1.47-3.18z"></path></g><!----></svg>