<?xml version="1.0" encoding="UTF-8"?>
<svg width="300px" height="240px" viewBox="0 0 300 240" version="1.1" xmlns="http://www.w3.org/2000/svg" xmlns:xlink="http://www.w3.org/1999/xlink">
    <!-- Generator: Sketch 46.2 (44496) - http://www.bohemiancoding.com/sketch -->
    <title>default</title>
    <desc>Created with Sketch.</desc>
    <defs></defs>
    <g id="Page-1" stroke="none" stroke-width="1" fill="none" fill-rule="evenodd">
        <g id="default" fill="#7ED321">
            <path d="M31,91 L269,91 L269,149 L31,149 L31,91 Z M65.4860335,107 C64.2601694,107 63.3727083,107.273758 62.8236233,107.821282 C62.2745384,108.368807 62,109.253746 62,110.476126 L62,131.008186 C62,131.912237 62.0798077,132.647564 62.2394254,133.214188 C62.3990431,133.780812 62.7406199,134.220098 63.264166,134.53206 C63.7877121,134.844022 64.5666349,135 65.6009577,135 L73.0135674,135 C74.3032786,135 75.4620858,134.917236 76.4900239,134.751705 C77.517962,134.586175 78.4788463,134.299684 79.3727055,133.892224 C80.2665647,133.484764 81.0901798,132.943614 81.8435754,132.268759 C82.8012817,131.390173 83.5865891,130.393821 84.1995211,129.279673 C84.8124532,128.165524 85.2657607,126.914514 85.5594573,125.526603 C85.8531539,124.138692 86,122.604374 86,120.923602 C86,115.830352 84.5379236,112.035938 81.6137271,109.540246 C80.4900183,108.559795 79.2386342,107.891316 77.8595371,107.534789 C76.48044,107.178261 74.8268253,107 72.8986433,107 L65.4860335,107 Z M68,112 L71.5908397,112 C73.2519167,112 74.6686964,112.197653 75.8412214,112.592965 C77.0137463,112.988277 77.999996,113.909541 78.8,115.356784 C79.600004,116.804027 80,118.98156 80,121.889447 C80,126.016771 79.0900854,128.924615 77.270229,130.613065 C76.8671736,131.001677 76.3908424,131.303182 75.8412214,131.517588 C75.2916003,131.731994 74.7603079,131.865996 74.2473282,131.919598 C73.7343486,131.9732 73.0259587,132 72.1221374,132 L68,132 L68,112 Z M109.80708,111.373806 C110.728618,111.373806 111.413272,111.173263 111.861062,110.772169 C112.308852,110.371076 112.532743,109.839476 112.532743,109.177353 C112.532743,108.527964 112.308852,108.002731 111.861062,107.601637 C111.413272,107.200544 110.728618,107 109.80708,107 L94.5433628,107 C93.7256596,107 93.0539849,107.11778 92.5283186,107.353342 C92.0026522,107.588905 91.6165204,107.964527 91.3699115,108.480218 C91.1233026,108.99591 91,109.661206 91,110.476126 L91,131.523874 C91,132.746254 91.2758085,133.631193 91.8274336,134.178718 C92.3790588,134.726242 93.2843595,135 94.5433628,135 L110.254867,135 C111.163426,135 111.84808,134.79309 112.30885,134.379263 C112.769619,133.965437 113,133.42747 113,132.765348 C113,132.077759 112.769619,131.52706 112.30885,131.113233 C111.84808,130.699407 111.163426,130.492497 110.254867,130.492497 L96.7823009,130.492497 L96.7823009,122.527967 L108.775221,122.527967 C109.670801,122.527967 110.332741,122.327424 110.761062,121.92633 C111.189383,121.525237 111.40354,121.00637 111.40354,120.369714 C111.40354,119.733057 111.186138,119.220557 110.751327,118.832196 C110.316517,118.443836 109.657822,118.249659 108.775221,118.249659 L96.7823009,118.249659 L96.7823009,111.373806 L109.80708,111.373806 Z M133.260274,111.300469 C134.186567,111.300469 134.874753,111.103288 135.324853,110.70892 C135.774953,110.314552 136,109.791866 136,109.140845 C136,108.502344 135.774953,107.985917 135.324853,107.591549 C134.874753,107.197181 134.186567,107 133.260274,107 L119.561644,107 C118.739722,107 118.064582,107.115805 117.536204,107.347418 C117.007825,107.579031 116.619701,107.948354 116.37182,108.455399 C116.123939,108.962444 116,109.616584 116,110.41784 L116,131.600939 C116,132.740225 116.270708,133.591546 116.812133,134.15493 C117.353558,134.718313 118.05479,135 118.915851,135 C119.763866,135 120.458575,134.721443 121,134.164319 C121.541425,133.607196 121.812133,132.752744 121.812133,131.600939 L121.812133,122.530516 L131.381605,122.530516 C132.255712,122.530516 132.914544,122.342725 133.358121,121.967136 C133.801698,121.591547 134.023483,121.08451 134.023483,120.446009 C134.023483,119.807509 133.80496,119.297342 133.367906,118.915493 C132.930852,118.533644 132.268759,118.342723 131.381605,118.342723 L121.812133,118.342723 L121.812133,111.300469 L133.260274,111.300469 Z M157.172794,132.346306 C157.344364,132.779905 157.549631,133.28045 157.788603,133.847955 C158.027575,134.41546 158.251224,134.8363 158.459559,135.110488 C158.667893,135.384676 158.925244,135.601472 159.231618,135.760884 C159.537992,135.920295 159.905635,136 160.334559,136 C161.069857,136 161.697914,135.729004 162.21875,135.187005 C162.739586,134.645006 163,134.048816 163,133.398417 C163,132.773524 162.724267,131.772434 162.172794,130.395119 L155.132353,112.298813 C154.801469,111.393355 154.5288,110.669638 154.314338,110.127639 C154.099876,109.585639 153.836399,109.078718 153.523897,108.60686 C153.211395,108.135002 152.80086,107.749232 152.292279,107.449538 C151.783698,107.149845 151.149514,107 150.389706,107 C149.642153,107 149.014096,107.149845 148.505515,107.449538 C147.996934,107.749232 147.586399,108.141378 147.273897,108.625989 C146.961395,109.1106 146.667281,109.719543 146.391544,110.452836 C146.115807,111.186129 145.879903,111.814201 145.683824,112.337071 L138.790441,130.548153 C138.508577,131.27507 138.306373,131.842566 138.183824,132.25066 C138.061274,132.658753 138,133.054088 138,133.436675 C138,134.099827 138.263478,134.692829 138.790441,135.215699 C139.317405,135.738569 139.924016,136 140.610294,136 C141.419122,136 142.001224,135.75451 142.356618,135.263522 C142.712012,134.772535 143.140929,133.825645 143.643382,132.422823 L144.930147,128.826517 L155.886029,128.826517 L157.172794,132.346306 Z M147,123 L150.96347,113 L155,123 L147,123 Z M167,123.92942 C167,126.046405 167.223842,127.866857 167.671533,129.390831 C168.119224,130.914805 168.821839,132.164573 169.7794,133.140172 C170.736961,134.11577 171.97431,134.836299 173.491484,135.301781 C175.008659,135.767263 176.818048,136 178.919708,136 C180.6856,136 182.227622,135.783204 183.545823,135.349604 C184.864024,134.916005 186.020541,134.227357 187.01541,133.283641 C188.171944,132.174137 188.9585,130.886111 189.375101,129.419525 C189.791703,127.952939 190,126.122922 190,123.92942 L190,110.443272 C190,109.282756 189.74196,108.418758 189.225872,107.851253 C188.709784,107.283748 188.035149,107 187.201946,107 C186.368744,107 185.703436,107.283748 185.206002,107.851253 C184.708567,108.418758 184.459854,109.282756 184.459854,110.443272 L184.459854,124.350264 C184.459854,126.747813 184.01217,128.536384 183.116788,129.716029 C182.221407,130.895674 180.691819,131.485488 178.527981,131.485488 C176.961063,131.485488 175.742367,131.195363 174.871857,130.615106 C174.001347,130.034848 173.395108,129.218673 173.053122,128.166557 C172.711136,127.114441 172.540146,125.804098 172.540146,124.235488 L172.540146,110.443272 C172.540146,109.295509 172.288324,108.434699 171.784672,107.860818 C171.281019,107.286936 170.600166,107 169.742092,107 C168.921326,107 168.259127,107.286936 167.755474,107.860818 C167.251822,108.434699 167,109.295509 167,110.443272 L167,123.92942 Z M202.667939,110.380282 C202.667939,109.240996 202.403947,108.392804 201.875954,107.835681 C201.347962,107.278557 200.657765,107 199.805344,107 C198.965645,107 198.288171,107.281687 197.772901,107.84507 C197.257631,108.408454 197,109.253515 197,110.380282 L197,131.58216 C197,132.784044 197.270354,133.654144 197.811069,134.192488 C198.351784,134.730832 199.23918,135 200.473282,135 L214.156489,135 C215.085246,135 215.791346,134.790299 216.274809,134.370892 C216.758272,133.951485 217,133.403759 217,132.7277 C217,132.064159 216.755092,131.513304 216.265267,131.075117 C215.775443,130.636931 215.072524,130.41784 214.156489,130.41784 L202.667939,130.41784 L202.667939,110.380282 Z M237.194222,111.600939 C238.129486,111.600939 238.830923,111.391238 239.298555,110.971831 C239.766187,110.552424 240,109.998438 240,109.309859 C240,108.62128 239.769264,108.064165 239.307785,107.638498 C238.846306,107.21283 238.141792,107 237.194222,107 L219.76886,107 C218.870515,107 218.184459,107.206571 217.710674,107.619718 C217.236889,108.032866 217,108.596241 217,109.309859 C217,109.998438 217.22766,110.552424 217.682986,110.971831 C218.138312,111.391238 218.833596,111.600939 219.76886,111.600939 L225.749599,111.600939 L225.749599,131.600939 C225.749599,132.740225 226.004947,133.591546 226.51565,134.15493 C227.026354,134.718313 227.687797,135 228.5,135 C229.299897,135 229.952111,134.721443 230.456661,134.164319 C230.961212,133.607196 231.213483,132.752744 231.213483,131.600939 L231.213483,111.600939 L237.194222,111.600939 Z" id="Combined-Shape"></path>
        </g>
    </g>
</svg>