<?xml version="1.0" encoding="utf-8"?>
<!-- Generator: Adobe Illustrator 22.1.0, SVG Export Plug-In . SVG Version: 6.00 Build 0)  -->
<svg version="1.1" id="Layer_1" xmlns="http://www.w3.org/2000/svg" xmlns:xlink="http://www.w3.org/1999/xlink" x="0px" y="0px"
	 viewBox="0 0 191 98.9" style="enable-background:new 0 0 191 98.9;" xml:space="preserve">
<style type="text/css">
	.st0{opacity:0.2;fill:#FFFFFF;enable-background:new    ;}
</style>
<title>Map</title>
<path class="st0" d="M190.4,18.2c-0.1,0-0.2,0.3-0.2,0.3s-0.4,0-0.4-0.1s0.2-0.2,0.2-0.2c0.1-0.2,0-0.3-0.1-0.4
	c-0.1-0.1-0.2-0.3-0.2-0.4c-0.1-0.1-0.1-0.2-0.1-0.3c-0.1-0.2-0.2-0.3-0.4-0.4c-0.1,0-0.2,0-0.2,0c0.1,0.2-0.1,0.4-0.4-0.1
	c-0.2-0.4,0.3-0.4-0.1-1c-0.2-0.3,0.5,0.1,0.2-0.6c-0.1-0.2-0.3-0.1-0.6-0.1c-0.2,0-0.3-0.1-0.4-0.2c-0.1-0.1-0.3,0-0.3-0.3
	s0.3-0.2,0.3-0.4s0-5.4,0-5.7s-0.2-0.2-0.3-0.3s-1.2-1.2-1.2-1.2s-0.2,0-0.4,0s0.1,0.1-0.3,0.3c-0.2,0.1-0.2-0.2-0.4-0.2
	s0,0.2-0.2,0.2s0.2,0.2-0.6,0.2c-0.3,0,0.1,0.3-0.4,0.2c-0.2,0-0.4-0.3-0.5-0.5s0.2,0,0.1-0.4c0-0.3-0.1-0.2-0.1-0.2
	s-0.2-0.2-0.4-0.2c-0.1,0-0.1-0.1-0.2,0.1s-2.4,3.4-2.6,3.6s-0.1,0.4-0.2,1.1c0,0.2,0,0.3-0.3,0.4s-0.3,0.3-0.5,0.8
	c-0.1,0.4,0.1,0.1,0.1,0.5c0,0.1-0.3,0-0.2,0.3s-0.2,0.1,0.1,0.4c0.1,0.1,0.1,0.3,0,0.3s0,0.2-0.2,0.2s-0.2,0-0.2,0.3
	s-0.1,0.4-0.3,0.4s-0.5,0.4-0.7,0.7s0.4,0.5,0.2,0.8s-0.3-0.4-0.5-0.2s-0.1,0.2-0.1,0.4c0,0.2-0.1,0.2-0.1,0.3s0-0.4-0.4-0.3
	s0,0.1-0.3,0.2s0.1,0.3-0.3,0.3s-0.2-0.3-0.5-0.3s-0.1,0-0.1,0.1s-0.4,0-0.4,0.2s0.2,0,0.2,0.3s-0.4,0.2-0.3,0.7c0,0-9.2,0-9.6,0
	c0-0.3-0.4,0-0.7,0.1s-0.5-0.3-0.7,0s-0.4-0.1-0.7,0.2s-0.8,0.5-1.1,0.7s-1,1-1.2,1.2s0.4,0.3-0.5,0.9c-0.4,0.3-0.4,0.3-0.6,0.4
	s-0.2,0.2-0.6,0.3c0,0.1,0,0.1,0.1,0.2c0.1,0.2,0.4,0,0.4,0.2s0,0.2-0.3,0.2c0.1,0.4,0.2,0.8,0.1,1.2c-0.1,0.2-0.7,0.3-0.9,0.4
	s-0.6,0.2-0.6,0.4s-0.8,0.1-0.7,0.4h-1.1c-0.1,0-0.5-0.1-0.4,0.1c-0.2,0-0.5,0-0.7,0c-0.2-0.1-0.2-0.3-0.4-0.3s-0.3-0.1-0.6-0.1
	h-1.2c-0.3,0-1.6-0.1-1.6,0.1s-0.6,0.2-1,0.3h-0.1c0,0.6,0.1,0.7,0.2,0.9s0.3-0.1,0.4,0.3s-0.4,0.2-0.3,0.3c0.1,0.1,0.1,0.2,0.2,0.3
	c0.1,0.2,0.2,0.5,0.2,0.7c-0.1,0-0.3,0.1-0.4,0.1c0,0.3-0.1,0.3-0.4,0.3c0,0.1,0.1,0.3,0,0.5s-0.3,0.1-0.4,0.1
	c-0.3,0.2-0.4,0.6-0.8,0.7c-0.2,0.1-0.4,0.1-0.6,0.2c-0.2,0.1-0.3,0.3-0.5,0.4s-0.3-0.1-0.3,0.2s-0.3,0.1-0.5,0
	c0,0.8-1.3,0.6-1.8,0.9c-0.1,0.1,0,0.2-0.2,0.2s-0.2,0.3-0.2,0.5s-0.2,0-0.4,0c-0.1,0-0.1,0-0.2,0.1c-0.1,0.2-0.3,0.3-0.5,0.4
	c-0.2,0.1-0.4,0.1-0.5,0.2s-0.2,0.1-0.3,0.1c-0.5,0.1-0.6,0.9-1.2,0.9c0,0.4-0.8,0.1-1,0.1c-0.2-0.1-0.4,0-0.6,0.1
	c-0.3,0.3-0.4,0.2-0.8,0.2H139c-0.3,0-0.2,0-0.3-0.2s-0.3-0.2-0.5-0.3c0,0.1-0.2,0.3-0.4,0.2c0,0,0-0.1-0.1-0.2
	c0-0.1-0.2-0.1-0.4-0.2c-0.3-0.1-0.5-0.3-0.8-0.4s-0.4,0-0.3-0.2c0-0.2,0.1-0.4,0.1-0.6c0.1-0.1,0.4-0.9,0.7-1c0,0,0.1,0,0.1,0
	c0-0.2,0-0.4,0-0.6c0-0.2,0.2,0,0.2-0.5c0-0.2,0.3-0.2,0.5-0.2c0.1,0,0.1-0.1,0.2-0.1l0,0c-0.2-0.2,0.1-0.9,0.2-1.2
	c0.2,0,0.4,0,0.6,0c0.1,0.1,0.2,0.2,0.2,0.2l0,0c0.1,0,0.2-0.2,0.2-0.4c0-0.4,0.1-0.7,0.1-1.1c0-0.1,0.2-0.5,0.3-0.9
	c0,0-0.1,0-0.1,0l0,0c-0.2-0.2-0.3-0.5-0.4-0.8c-0.1-0.5-0.1-1-0.2-1.5s0.1-1.2-0.3-1.4c-0.3-0.2-0.5-0.4-0.9-0.5
	c-0.2-0.1-0.8,0.2-1,0.4s-0.4,0.5-0.6,0.5s-0.2,0.6-0.5,0.7c-0.3,0.1-0.5,0.1-0.8,0.1c-0.6,0.1-0.5-0.5-0.5-0.9
	c0.3,0.1,0.1-0.2,0.2-0.4s0.4,0,0.6-0.1s0.2-0.3,0.4-0.3c0-0.2-0.1-0.2,0.1-0.3s0.1-0.2,0.1-0.2s0.3-0.1,0.4-0.3s0.3-0.3,0.3-0.5
	c0-0.4,0-0.7,0.1-1.1c0-0.1,0.1-0.6,0-0.7s-0.4-0.1-0.4-0.4s0.4-0.2,0.4-0.5c0.1-0.4-0.6-1.1-1-1.2c-0.3-0.1-0.5-0.2-0.8-0.3
	c-0.2-0.1,0-0.2-0.3-0.2c-0.2,0-0.3,0-0.4-0.1c-0.3-0.1-0.4-0.4-0.6-0.5c-0.2-0.1-0.3-0.1-0.5-0.1v-0.5c-0.6,0.1-1.2,0.1-1.7,0
	c-0.1,0.2-0.2,0.4-0.4,0.6c-0.1,0-0.2,0.1-0.4,0.1c0,0.2,0.1,0.4,0.1,0.6s0,0.3-0.3,0.3s-0.6,0.4-0.8,0.5c0.3,0.1,0.1,0.6,0,0.8
	s-0.1,0.1-0.2,0.3s0,0.3-0.2,0.3c0,0-0.1-0.6-0.1-0.6c0.1-0.1,0.2,0,0.2-0.2s-0.2-0.5-0.3-0.3l-0.2,0.3c0,0-0.1,0-0.1,0
	c-0.2,0-0.1,0.2-0.1,0.4c-0.1,0-0.2,0-0.1,0.1h-0.4c0,0.1,0,0.1-0.1,0.2c-0.1,0-0.1,0.1-0.2,0.1c-0.2,0-0.2,0.2-0.2,0.4
	s-0.1,0.5-0.3,0.6s-0.1,0.3,0,0.4c-0.4,0,0.1,0.6-0.3,0.5c0,0.1,0,0.3,0,0.5c0,0.1-0.2,0.1-0.2,0.2s-0.1,0.3-0.1,0.4
	s-0.2,0.1-0.2,0.3s0.2,1.4,0,1.5s0.1,0.8-0.2,0.8c-0.1,0.4,0.2,0.8,0.3,1.2s0,0.7,0.4,0.9c0,0.2-0.1,0.4,0.1,0.4s0.2,0.1,0.2,0.3
	c0,0.4,0,0.9,0.1,1.3c0,0.1,0,0.2,0,0.3c0,0.2-0.2,0.1-0.2,0.3c0,0.2,0,0.3,0,0.5c-0.1,0.1-0.1,0.1-0.2,0.3c0,0.1-0.1,0.2-0.1,0.3
	c-0.2,0.1,0,0.4-0.2,0.5s-0.2,0.1-0.2,0.3s-0.1,0.5-0.3,0.7s-0.1,0.2-0.2,0.4c-0.1,0.3-0.1,0.5-0.3,0.5s-0.2,0.2-0.2,0.3
	c-0.1,0.1-0.3,0.1-0.4,0.1c-0.1,0-0.3,0-0.4,0c-0.2,0.1-0.1,0.2-0.3,0.3s-0.3-0.1-0.5-0.2c-0.2-0.1-0.4-0.1-0.7,0
	c0-0.1,0-0.1-0.1-0.2s-0.1-0.3-0.1-0.4s0-0.4-0.1-0.4s-0.1-0.2-0.1-0.4s-0.1-0.2-0.2-0.2c-0.1-0.3-0.2-0.9-0.3-1.1
	c-0.2,0-0.2-0.4-0.2-0.5c0-0.4,0-0.8,0.1-1.2c0-0.2,0.2-0.4,0.2-0.6s-0.4-0.3-0.4-0.5s0.1-0.4,0.1-0.4s-0.1,0-0.2,0l0.1-0.5
	c-0.4,0.1-0.2-0.8-0.2-1c0.2-0.4,0.3-0.8,0.6-1.2c0.3-0.8,0.1-0.7-0.1-0.9c-0.1-0.1-0.1-0.2,0-0.3c0.1,0,0.1-0.1,0.2-0.3
	c0.1-0.2,0.1-0.4,0.2-0.6c0.1-0.2,0.2,0,0.3-0.2c0.1-0.1,0.1-0.3,0-0.4c0,0,0,0,0,0c-0.1-0.1-0.1-0.2,0-0.3c0,0,0,0,0,0
	c0.1-0.2,0.2-0.4,0.2-0.6c0-0.2,0.1-0.4,0.3-0.6c0.1-0.2,0.3-0.5,0.3-0.8c0.1-0.2,0.2-0.2,0.4-0.4c0.1-0.1,0.1-0.2,0.1-0.4
	c0-0.1,0.3-0.4,0.3-0.5c0.1-0.2,0.1-0.3,0.1-0.5c0-0.1,0.2,0,0.2-0.1s-0.1-0.4-0.3-0.4s-0.2,0.2-0.3,0.4s-0.2,0.3-0.3,0.2
	s-0.2,0.1-0.2,0.3c0,0.1-0.1,0.3-0.2,0.4c-0.1,0.1-0.2,0.3-0.2,0.4c0,0.1,0,0.3,0,0.4c-0.1,0.1-0.2-0.1-0.2-0.2s-0.1,0-0.2,0.1
	s-0.2,0-0.3,0s-0.2,0.2-0.3,0.3s0,0.5-0.3,0.6s-0.2,0.4-0.6,0.4c-0.1-0.2,0-1.1,0.3-1.1c0,0,0.2-0.4,0.2-0.4c-0.2,0-0.2-0.3,0-0.4
	s0.7,0.2,0.8-0.5c0.2-0.4,0.4-0.8,0.7-1.1c0-0.3,0.3-0.2,0.3-0.5c0.1,0,0.1-0.2,0.1-0.3c0-0.2,0-0.4,0.2-0.5
	c0.2-0.2,0.3-0.1,0.4-0.3s0-0.5,0.1-0.5s0.1,0.2,0.1,0.4s0,0.3,0.2,0.3s0.3-0.3,0.3-0.3c0-0.4,0.2-0.6,0.7-0.6c0,0.1,0,0.2,0,0.3
	s-0.3-0.1-0.3,0.3c0,0.1,0,0.1,0.1,0.2c0.3,0.1,0.3,0,0.4-0.2s0.6-0.2,0.7-0.4c0.1-0.4,0.4-0.6,1-0.6c0.5,0,1,0.2,1.4-0.1
	s0.2-0.6,0.8-0.5c0.5,0.1,1,0.2,1.4,0.4c0.2,0,0,0.3,0.2,0.4s0.4,0.1,0.6,0.1c0-0.3,0-0.6,0.4-0.6c0.2,0,0.4,0.1,0.6,0.2
	c0.3,0.1,0.5,0.1,0.8,0.1c0.3,0,1-0.1,1.1,0c0.3,0.1,0.2-0.2,0.2-0.4c-0.1-0.1-0.2-0.1-0.3-0.1c-0.1,0,0.3,0.5,0,0.3
	c-0.1-0.1-0.1-0.1-0.2-0.2l0.2-0.2l0,0c-0.3,0-0.3,0.3-0.4,0s0.2-0.1,0.1-0.5c-0.1-0.4-0.3-0.7-0.6-1c-0.2-0.2-0.3-0.1-0.3,0
	s-0.2,0-0.2,0.2s-0.2,0.2-0.4,0s-0.1-0.2-0.3-0.2s-0.2,0.1-0.2,0.1l-0.2-0.2v-0.1l0,0c-0.2,0.1-0.4,0.2-0.7,0.1
	c-0.5-0.1-0.6-0.1-0.5-0.6c-0.3,0-0.1-0.4,0-0.4s0-0.2,0-0.2H131c-0.3,0-1.2,0-1.4,0.3s-2.2-0.2-2.3,0.2c0,0.1-0.2,0-0.3,0
	s0,0.2-0.1,0.3s-0.6,0-0.8,0.2s-1.2,0-1.6,0c-0.1,0-0.4,0-0.4,0.1c-0.4-0.1-0.5-0.3-0.8-0.6s-0.2,0-0.3-0.3l-0.1-0.4
	c-0.1,0-0.1,0-0.2-0.1c-0.2-0.2-0.4-0.1-0.5-0.4c-0.2-0.4-0.5-0.2-0.9-0.3s-0.3,0.1-0.3,0.1s-0.1-0.1-0.2-0.2s-0.1,0-0.3,0.1
	s-0.2,0.2-0.3,0.2c-0.1,0-0.2,0.1-0.2,0.2c0,0.1,0,0.3-0.2,0.1s0-0.3,0-0.4s0.1-0.3,0.2-0.3s0.2-0.3,0.3-0.4s0.2-0.2,0.3-0.2
	s0.1-0.2,0.1-0.3s0-0.2,0.1-0.1c0.1,0,0.2,0,0.3-0.1c0.1-0.1,0.2-0.3,0.3-0.3s0.2-0.1,0.3-0.2s-0.1-0.2-0.1-0.2s0.2,0,0.2,0
	c0.1,0,0.2,0.1,0.3,0.1c0.1,0,0.3-0.2,0.3-0.3s-0.2-0.3-0.4-0.3s-0.2,0.1-0.2,0.1s-0.1-0.1-0.2-0.1c-0.1,0-0.3,0.1-0.5,0.1
	c-0.2,0-0.4,0-0.5,0.2s-0.2,0.2-0.3,0.2s-0.4,0.2-0.5,0.4c-0.1,0.2-0.2,0.3-0.4,0.2c-0.2-0.1-0.2,0.1-0.3,0.3s-0.2,0.2-0.3,0.1
	s-0.3,0.3-0.4,0.4c-0.1,0.2-0.3,0.3-0.4,0.3c-0.2,0-0.3,0.1-0.4,0.2c-0.2,0.1-0.4,0.3-0.6,0.5c-0.3,0.1-0.7,0.2-1,0.1
	c-0.3,0-0.5,0.1-0.7,0.2c-0.2,0.1-0.4,0.3-0.5,0.5c-0.2,0.2-0.4,0.2-0.6,0.2c-0.2,0-0.3,0-0.4,0.2c-0.1,0.1-0.3,0-0.7-0.1
	c-0.2,0-0.4-0.2-0.5-0.4c-0.1-0.2-0.3,0.2-0.4,0.3s-0.2,0.2-0.3,0.1s0-0.2,0-0.3s0.2-0.2,0.2-0.3s-0.1,0-0.1-0.2s0.2-0.1,0.2-0.2
	s0.2-0.2,0.2-0.4s-0.2-0.1-0.2-0.3s-0.1,0-0.2,0s-0.2-0.1-0.2-0.2s-0.1-0.1-0.2,0s0,0.3-0.1,0.4c-0.1,0.1-0.3,0.2-0.5,0.2
	c-0.2,0-0.2-0.1-0.2-0.1c-0.2,0-0.2,0.2-0.4,0.2l-0.4,0.1c0,0.1,0,0.1-0.2,0.1s-0.4-0.1-0.4,0.1s-0.4,0-0.5,0.2s-0.1,0.2-0.2,0.1
	c-0.2,0-0.4,0-0.5-0.1c-0.1-0.1-0.3-0.1-0.2-0.3c0.1-0.1,0.2-0.3,0.3-0.3c0.5-0.3,1-0.7,1.5-1.1c0.2-0.2,0.4-0.4,0.6-0.5
	s0.3-0.3,0.5-0.6c0.2-0.2,0.4-0.5,0.7-0.7c0.4-0.3,0.8-0.6,1.3-0.9c0.4-0.2,0.8-0.3,1.2-0.4c0.3-0.1,0.7-0.3,1-0.4
	c0.3,0,0.5-0.2,0.6-0.5c0-0.3,0.3,0,0.5-0.1c0,0,0.1,0,0.1-0.1l-0.2-0.4c-0.1-0.2-0.4-0.1-0.6-0.1s-0.4-0.1-0.4,0.2
	s-0.4-0.1-0.6-0.3s-0.2-0.2-0.3-0.2s0-0.2-0.3-0.2s0,0.2-0.2,0.2s-0.3,0.3-0.5,0s-0.3,0.1-0.5,0s-0.4,0.2-0.6,0s-0.3-0.4-0.4-0.6
	s-0.2,0-0.4,0c0.1,0.4-0.3,0-0.3,0.2s-0.3,0.1-0.2,0.2s-0.5,0.1-0.3,0.3S109.9,4,110,4.2s-0.3,0.2-0.5-0.1s-0.3,0-0.5-0.4
	c-0.3-0.5-0.5-0.1-0.7-0.4s-0.2,0.2-0.5-0.5c-0.1-0.3-0.2,0.1-0.3-0.2s-0.1,0.1-0.4,0.1s-0.2,0.2-0.2,0.5s-0.3,0-0.5-0.3
	s0.1-0.3-0.2-0.8c-0.2-0.3-0.3,0.1-0.4,0.2s-0.7-0.4-0.2-0.3s0.1-0.5-0.2-0.4s-0.3-0.2-0.6-0.2s-0.2-0.4-0.6-0.2s-0.5,0.1-0.6-0.1
	s-0.2,0.2-0.5,0.2s-0.4,0-0.3,0.2s-0.6-0.1-0.5,0.3c0,0.2-0.4,0.2-0.6-0.1s-0.4-0.6-0.6-0.5s-0.5,0.2-0.7,0s-0.2,0.1-0.3-0.1
	s-0.4-0.1-0.6,0.1s-0.4,0-0.6-0.3l0,0c-0.3-0.1-0.4-0.5-0.8-0.4s-0.6,0.3-0.9,0c-0.1,0-0.2,0-0.2-0.1H7c0,0-0.1,0-0.1,0.1l0,0
	c0,0,0,0.1,0,0.1C7,1,7.1,1,7.2,1.1s0.2,0.2,0.2,0.3S7.2,1.6,7.3,1.7c0.4,0.7,0.1-0.6,0.4-0.3c0.1,0.1,0.2,0.2,0.2,0.2
	c0.1,0.1-0.1,0.2,0,0.3C8,2,8.2,2.3,8.2,2.4c0,0.1-0.1,0.1-0.1,0.2C7.9,2.7,7.5,2.5,7.7,2.4S7.6,2.3,7.5,2.2c0-0.1,0-0.1-0.1-0.2
	c-0.2,0,0.1,0.6,0,0.7C7.4,3.1,7.2,3.4,7,3.7C7.5,3.8,7.4,4,7.6,4.3S8.1,4.6,8.1,5c0.4,0,0.3-0.4,0-0.6C7.7,4.3,7.6,4.1,7.5,3.7
	s0-0.3,0.3-0.2c0.1,0,0.1,0,0.2-0.1c0,0,0,0,0,0c0-0.2,0-0.1-0.2-0.2s-0.2-0.5,0-0.4s0.3,0.4,0.6,0.5S8,3.5,7.9,3.6
	C7.7,3.9,8,4.1,8.3,4.2C8.1,4.1,8,4,7.9,3.9c0.1-0.1,0.3-0.1,0.4-0.1c0,0.4,0.5,1.1,0.2,1.4S8.2,6.3,8.3,6.7c0,0.3,0.2,0.9,0,1
	C8.1,7.8,7.9,7.9,7.7,7.9C7.5,8.4,7,9.2,6.7,8.7s0-0.9,0.5-1c0-0.2,0-0.3,0-0.5c0.2,0,0.1-0.1,0.1-0.2c0.1-0.1,0.3-0.2,0.4-0.3
	C7.9,6.5,7.8,6.3,7.8,6c0.4,0,0-0.9-0.1-1C7.4,5.5,7.4,5.9,7,6.3c-0.1,0.1-0.8,1-1.1,1c0-0.4,0.6-1.1,0.8-1.5C6.7,5.7,6.8,5.4,7,5.4
	s0.2-0.1,0.3-0.2C7.4,5,7.4,4.9,7.4,4.7c-0.1,0-0.2-0.1-0.2-0.1C7.1,4.4,7.1,4.2,7.1,4C7,4,6.8,4.1,6.7,4.2s0.1,0.3,0,0.4
	S6.3,4,6.3,4.3C6.3,4.9,6,4.1,5.9,4S5.7,4.1,5.5,4.2s-0.4,0-0.6,0C4.6,4.2,4.3,4.1,4,4C3.7,4,3.3,4,3,4S2.6,3.7,2.4,3.7
	c-0.4,0-0.7-0.1-1-0.3C1.2,3.1,0.8,3,0.5,3c0,0.3,0.2,0.4,0.1,0.6C0.5,4,0.5,4.3,0.6,4.7C0.7,5,0.9,5.3,1.1,5.5
	c0.2,0.2,0.5,0.3,0.6,0.6s0,1,0,1.4S2,7.7,2.1,7.9c0.3,0.6-0.4,1.6,0.5,1.8c0-0.2-0.1-1.1,0-1.2s0.7,0.2,0.8,0.2
	C3.1,9,3.1,10.1,2.8,10.2s-0.2,0.1-0.2,0.4l-0.1,0.5c0.5,0,0.4-0.1,0.4-0.5c0.2,0,0.7,0.1,0.6,0.3s-0.4,0.4-0.4,0.6S3.1,12,3,12
	s-0.2-0.6-0.3-0.6s-0.1,0.3-0.1,0.4c0,0.3-0.1,0.4,0.2,0.5s1.6,0,1.6,0.3s-1,0.3-1.5,0.1C2.9,12.9,3,13,3,13.1
	c0.1,0.2,0.1,0.3,0.1,0.5c0,0.2-0.2,0.1-0.2,0.3c0,0.4,0.1,0.6,0.1,0.9c0,0.2,0,0.4,0,0.6c0,0.1,0,0.5,0,0.6C3,16.4,3,16.7,3.1,17
	c0,0.2,0,0.3-0.1,0.5c-0.1,0.2,0,0.5-0.1,0.8c-0.1,0.7-0.1,1.4-0.2,2.1c-0.1,0.5-0.1,1-0.1,1.6c0,0.6-0.1,1.2-0.3,1.8
	c-0.1,0.4-0.3,0.8-0.5,1.1c-0.1,0.3-0.2,0.5-0.1,0.8c0,0.3-0.1,0.6-0.2,0.8C1.4,26.7,1,27,1.2,27.3s0.6,0.5,0.6,0.9
	s-0.4,0.3-0.3,0.7c0.1,0.5,0.2,0.9,0.3,1.4c0.1,0.3,0.6,0.6,0.6,0.9S2.1,31.8,2.2,32c0.3,0.4,0.6,0.5,0.5,1s-0.1,1.3-0.2,2
	c0,0.4-0.1,0.7-0.3,1c-0.3,0.4-0.5,0.8-0.5,1.3c0,0.3,0.2,0.2,0.2,0.5s0,0.3,0.2,0.6h0.1c0.2,0.1,0.4,0.2,0.5,0.4
	C2.8,39,3,38.9,3.1,39.1c0.1,0.1,0.1,0.3,0.2,0.4c0.1,0.1,0.1,0.1,0.2,0.2c0.1,0.2,0.2,0.5,0.2,0.8c0,0.1,0,0.3,0,0.4
	c0,0.3-0.2,0.4-0.2,0.9s0.4,0.7,0.4,1s-0.2,0.5,0.1,0.8s0.5,0.5,0.8,0.7s0.3,0.6,0.6,0.7s0.4,0.2,0.5,0.4s0.1,0.3,0.4,0.4
	s0.1,0.3,0.1,0.4c0.1,0.4-0.3,0.6-0.2,0.9s0.4-0.3,0.6-0.3c0.3,0.1,0.6,0.3,0.7,0.6C7.6,47.8,8,47.6,8,47.7c-0.1-0.2,0-1.3,0.3-1.3
	s0.3,0.2,0.3,0.4s-0.3,0.4-0.3,0.5s0.3,0.3,0.3,0.5s0.3,0.2,0.4,0.4c0.1,0.4,0,0.8-0.4,0.5S8.4,48.2,8.3,48S7.9,48,7.9,48.3
	c0,0.3,0,0.5,0,0.8c0,0.2,0.2,0.2,0.3,0.4s0,0.5,0,0.7c0,0.3,0.2,0.6,0.4,0.7c0.4,0.3,0.3,0.4,0.7,0.6c0.1-0.1,0.3,0,0.3,0
	s0.1-0.2,0.1-0.2c0.1,0.1,0.3,0.2,0.3,0.3c0.2,0.3,0.1,1.5-0.2,1c-0.1-0.1-0.1,0.2-0.3,0.2c0.4,0.4,0,1,0.5,1.3
	c0.2,0.2,0.6,0.3,0.7,0.5s0.1,0.3,0.2,0.4s0.2,0,0.3,0.1s0.1,0.3,0.2,0.5c0.1,0.2,0.2,0.3,0.4,0.4c0.1,0.1,0.1,0.3,0.1,0.4
	c0.3,0.3,0.3-0.3,0.8,0.6c0.2,0.3,0.5,0.1,0.6,0.4c0,0.2,0,0.4-0.1,0.7c0.1,0,0.2,0.2,0.4,0.3s0.3-0.2,0.5,0.1s-0.2,0.5-0.1,0.8
	s0,0.1,0.1,0.2s0,0.2,0,0.3c0,0.1-0.1,0.2-0.1,0.2c0,0.1,0.1,0,0.1,0.2s0,0.2-0.1,0.2S14,60.7,14,60.8s0.1,0.1,0.3,0.1
	s0.3,0.2,0.3,0.3s0.1,0.1,0.2,0.1s0.4,0,0.6-0.1c0.3,0,0.5,0,0.8,0.1c0.2,0.1,0.3,0.2,0.4,0.1c0.1-0.1,0.3,0,0.3,0.1
	c0,0.1,0.1,0,0.2-0.1s0.3,0,0.5,0.1c0.2,0.1,0.4,0.2,0.6,0.4c0.1,0.1,0.2,0.2,0.3,0.3c0,0.2,0.1,0.3,0.3,0.4
	c0.1,0.1,0.3,0.1,0.5,0.2c0.2,0.1,0.4,0.1,0.5,0.2c0.1,0,0.2,0.1,0.3,0.1c0.7-0.5,1.1,0,1.3,0.5c0.1,0.2-0.2,0.2-0.1,0.3
	c0.1,0.1,0.5,0.3,0.6,0.2c0.4-0.3,0.4-0.1,0.8,0.2c0.4,0.3,0.5,0.3,0.8,0.6c0.3,0.3,0.7,0.6,1,0.8c0.3,0.3,0.4,0.6,0.6,0.9
	c0.3,0.7-0.1,0.9,0.2,1.5c0,0,0.2,0,0.3,0s0.1,0.2,0.1,0.3v0.1c0.5-0.4,0.5-0.1,1.1-0.2s6.8-0.7,7-0.7s0.1,0.1-0.1,0.2
	c-0.2,0.1-0.3,0.3-0.3,0.4c-0.1,0.3-0.1,0.4,0.1,0.4c0.1,0,0.3,0,0.4,0.1c0.2,0.1,10.6,4.2,11,4.4c0.2,0.1,0.5,0.2,0.8,0.2h8.5
	c0.4,0,0.4,0,0.6-1.6c0-0.2,0.1-0.2,0.3-0.2s4.9,0,5.1,0s0.3,0.3,0.5,0.1s0.3,0.2,0.4,0.3c0.2,0.6,0.1,0.8,0.6,1.1s0.2-0.2,0.5,0
	s0.2,0,0.4,0.2c0.5,0.4,0.4,0.7,0.8,0.8s0.5,1,1.4,1.3c0.7,0.3,0.4,0.3,0.7,0.4s-0.1,0.2,0.3,0.3s0,0.4,0.4,1c0.7,1-0.1,0.7,0.3,1.6
	c0.4,0.7,0.5,1,0.9,1.2c0.7,0.3,0.7,0.9,1.6,1c0.6,0-0.1,0.4,0.8,0.4c0.2,0,0.1,0.2,1.1,0.8c0.1,0.1,0.3-0.1,0.4-0.2s0.2,0,0.4-0.3
	s0.5-0.1,0.4-0.3s-0.2-0.2,0-0.4c0.3-0.5,0.5-1,0.8-1.5c0.1-0.2,0.2-0.3,0.4-0.2c0.4,0.1,0.1-0.3,0.5-0.1s0.1-0.4,0.5-0.5
	s0.4,0.4,1.1,0.4c0.4-0.1,0.8,0,1.2,0.1c0.3,0,0.2-0.2,0.3-0.1s0.1,0.3,0.2,0.1s0.1,0,0.2,0s0,0.6,0.3,0.5s-0.2,0.4,0.1,0.2
	s0.2,0,0.2,0.2s0.2,0.2,0.4,0.2s0.3,0.1,0.3,0.3s0,0.2,0.1,0.2c0.3,0.1,0.2,0.3,0.4,0.4s0,0.3,0.4,0.6s0,0.6,0.3,1
	c0.5,0.6,0,1.1,0.5,1.5c0.2,0.2-0.1,0.2,0.2,0.4s-0.3,0.1,0,0.5s0.6,1.1,0.7,0.7s0.2-0.1,0.3,0.2c0.2,0.6,0.4,0.3,0.4,0.6
	s0.2,0.1,0.2,0.4s0.1,0.1,0.2,0.3c0.2,0.5,0.6,0.7,0.6,0.4s0.2,0.1,0.3,0.2c0.3,0.2-0.1,0.2,0.2,0.5s-0.5,0.4-0.1,0.7
	s-0.2,0.7,0.3,1.2c1,1,0.5,1.6,0.9,1.9s-0.3,0.4,0.3,0.5s0.4,0.2,0.6,0.1s0.5,0.6,0.7,0.4s0.5,0.2,0.7,0.1s0.4,0.7,0.9,0.5
	s0.3,0.3,0.6,0.1s0.4,0,0.6-0.1s0.3,0.2,0.5,0.1s0.5,0.6,0.7,0.5s0.1,0.2,0.4,0.2s0-0.3,0.3-0.3s0-0.2,0.5-0.2h0.2
	c0-0.1,0-0.3,0-0.4c0-0.1,0-0.2,0-0.3c0-0.1-0.1-0.2,0-0.3c0-0.3-0.1-0.6-0.2-0.8c-0.3-0.7-0.4-1.4-0.5-2.2c0-0.6,0.1-1.1,0.3-1.6
	c0.2-0.5,0.5-0.9,0.8-1.4c0.2-0.3,0.4-0.5,0.6-0.7c0.3-0.3,0.6-0.5,1-0.8c0.2-0.1,0.2-0.1,0.5-0.2c0.1,0,0.1-0.2,0.4-0.4
	s0.8-0.4,1.2-0.7l1-0.5c0.2-0.1,0.2-0.6,0.3-0.6c0.1,0,0.2,0,0.3,0c0.2-0.1,0.3-0.4,0.6-0.6c0.2-0.2,0.4-0.4,0.7-0.6
	c0.2-0.1,0.4-0.2,0.5-0.4c0.3-0.2,0.1-0.2,0.3-0.5c0.1-0.1,0.2-0.2,0.3-0.3c0,0,0,0-0.1,0c0.1-0.1,0.1-0.1,0.1,0
	c0.1-0.1,0.3-0.1,0.4-0.1s0.5-0.2,0.7-0.3c0.3-0.1,0.6-0.2,0.9-0.3c0.1,0,0.4,0.1,0.5,0s0.2-0.3,0.4-0.4l0.4-0.1
	c0-0.1,0.7,0.1,0.8,0.1c1.2-0.5,1.3,0.6,2.5,0.7c1,0.1,0.9,0.3,1.5-0.1c0.4,0.1,0.3-0.2,0.1-0.3s0-0.3,0.2-0.3s0.4-0.3,0.6-0.2
	c0.5,0.1-0.2,0.3,0.3,0.3c1.2,0,0.4,0.2,0.5,0.4c0.4-0.2,0.2,0.4,0.4,0.4s0.2,0.1,0.4,0.1c0.5,0.1,0,0.3,0.2,0.3s0.8,0.1,0.1,0.2
	c-0.2,0,0,0.3,0.3,0.4c0.4,0.2,0.9,0.2,1.3,0.2c-0.1-0.3,0.3,0.2,0.5-0.3s0.1-0.2,0.4-0.2c0-0.2,0.2,0.2,0.4,0.2
	c0,0.1,0,0.2,0.1,0.2c-0.1,0.2,0,0.4,0.3,0.5s0.3-0.2,0.5-0.3s0.3-0.3,0.5-0.4s0.3-0.2,0.4-0.2c0.2,0,0.4,0.1,0.5,0.2
	c0.2,0.2,0.7,0.4,0.7,0.7s0,0.4-0.1,0.6s-0.2,0.3,0,0.3s0.2-0.2,0.3-0.3s0.2-0.3,0.5-0.2s0.2,0,0.3-0.2c0.1-0.1,0.3-0.3,0.4-0.4
	c0.1,0,0-0.2,0-0.3c-0.1-0.2-0.3-0.4-0.4-0.6c-0.1-0.1-0.3-0.3-0.5-0.3s-0.5-0.1-0.7-0.2s0.2-0.2,0-0.3s-0.4-0.3-0.1-0.3
	c0.2,0,0.3,0,0.5,0c0.1,0,0,0,0-0.1s0-0.3,0.1-0.2s0.4-0.2,0.5-0.6s0.2-0.4,0.1-0.7s0-0.4-0.2-0.2s-0.2,0.3-0.4,0.3
	s-0.1-0.1-0.3-0.1s-0.2,0.1-0.3,0.2s-0.2,0.1-0.2,0.2s0.1,0.3-0.1,0.3s-0.2,0.1-0.4-0.1s-0.2-0.2,0-0.4s0-0.3,0.4-0.4
	s0.7-0.1,0.8-0.2c0.1-0.1,0.2-0.3,0.3-0.4c0.1-0.1,0.3-0.3,0.4-0.3c0.1,0,0.2-0.1,0.3-0.1c0.1,0,0.3,0,0.4,0c0.2,0,0.3,0,0.5,0
	c0.1,0,0.2,0.2,0.2,0.2c0.3,0,0.8,0.2,1,0.1c0.1-0.1,0.2-0.2,0.3-0.2c0.4-0.4,0.2,0.2,0.3,0.4s0.3,0,0.3-0.1
	c0.1-0.4,0.3-0.2,0.4-0.4s0-0.8,0.2-1s0.1-0.2,0.2,0.1s0.3,0.3,0.2,0.6s0,0.7-0.1,0.8s-0.7,0.2-0.7,0.2s0.6-0.1,0.6-0.1
	c0.4,0,0.9-0.1,1.3-0.3c0.2,0,0.3,0,0.5,0c0.1,0,0.2-0.3,0.3-0.4c0.3-0.2,0-0.5,0.2-0.6s0.2,0.3,0.2,0.4s0.1,0,0.2-0.1
	s0.4-0.1,0.4,0.1s-0.9,0.4-0.9,0.5c0.4,0,0.8,0,1.3-0.2c0.4-0.1,0.7-0.2,1-0.3s0.8-0.2,1,0.1c-0.2,0-0.5,0-0.7,0.1
	c-0.7,0.1-0.3,0.2,0.2,0.2c0.2,0,0.3,0,0.5,0c0.2,0.1,0.5,0.3,0.7,0.4c0.2,0.1,0.4,0.2,0.6,0.3c0.1,0.1,0.2,0.2,0.4,0.3
	c0,0.1,0.2,0.1,0.2,0.1c0.1,0.1,0.2,0.2,0.3,0.2c0.1,0.1,0.3,0.1,0.4,0.2s0.1,0.3,0.3,0.5c0,0-0.1,0.5-0.1,0.5s0.2-0.1,0.4,0
	s0.5,0.4,0.8,0.4s0.5-0.3,0.7-0.4c0,0,0.8-0.5,0.7-0.5s-0.7,0.4-0.7,0.4c-0.3,0.2-0.6,0.4-0.9,0.5c0,0-0.2-0.3-0.3-0.3
	c0.2,0,0.3,0,0.5-0.1c0.3-0.1,0.6-0.2,0.8-0.5c0.1-0.1,0.2,0,0.3-0.1s0.3-0.2,0.4-0.3s0.3,0.1,0.5,0.2s0.1-0.3,0-0.5s0-0.1,0.1-0.2
	c0.1-0.2,0.3-0.1,0.6-0.1s0.2-0.2,0.5-0.1s0.3,0.3,0.4,0.3c0.4,0.1,0.8,0.3,0.9,0.7c0.1,0.2-0.1,0.2,0.4,0.5c0.2,0.1,0.2,0,0.3,0.2
	s-0.1,0.4,0,0.5s0.5,0.1,0.6,0.3s0.2,0.4,0.4,0.5s0.1,0.4,0.1,0.4c0.2,0,0,0.3,0.2,0.2s0.6-0.3,0.7-0.1s0.1,0.4,0.3,0.4
	s-0.1,0.4,0.2,0.3c0,0.2-0.2,0.3-0.2,0.4s0.2,0.5,0.2,0.7s-0.2,0.2-0.3,0.2s0.1,0,0.2,0.1c0,0,0.1,0.1,0,0.2c0,0,0,0,0,0
	c-0.1,0-0.2,0-0.2,0.2s0.2-0.1,0.2,0.4c0,0-0.2-0.1-0.2,0c0,0.2,0,0.3-0.1,0.5c-0.1,0,0.1,0.2,0.1,0.3s-0.2,0.3-0.2,0.4
	c-0.1,0.4-0.2,0.8-0.2,1.2c0,0.2,0.2,0.3,0.3,0.3c0,0.1,0,0.3,0,0.4c0,0.1,0-0.1,0.1-0.2s0.2,0,0.2-0.1c0-0.1,0-0.3,0-0.4
	c-0.1-0.1-0.2-0.3-0.3-0.5c0,0,0.2-0.2,0.2-0.2c0.2-0.1,0.3,0.1,0.4,0.3s-0.1,0.3,0,0.3s0.2,0.1,0.2,0.1s0-0.3,0-0.4
	s0.2,0.1,0.3,0.1c0,0.2-0.1,0.4-0.2,0.6c-0.2,0.2-0.4,0.5-0.5,0.8c0,0.1-0.2,0-0.2,0.1s0,0.2,0.2,0.3s0.1,0.2,0.1,0.3
	s-0.1,0.2,0,0.2s0.2,0.2,0.2,0.3c0,0.2,0.1,0.4,0.2,0.5c0.2,0.3,0.4,0.9,0.7,1.1v-0.2c0,0,0.3,0.1,0.3,0s-0.1-0.3,0.1-0.3
	s0.2-0.2,0.3-0.2s-0.2,0.1-0.2,0.2s0.1,0,0.1,0.2s0,0.2-0.1,0.3c0,0.2,0,0.3,0,0.5c-0.2-0.1-0.3-0.3-0.4-0.2s0.1,0.2,0.2,0.3
	c0.1,0.2,0.1,0.4,0.1,0.5c0.1,0,0.1-0.3,0.2-0.2s0.3,0.4,0.4,0.4c0.3,0.1,0.2,0.5,0.3,0.8s0.1,1.2,0.5,1.3c0.4,0.1,0.7,0.2,1,0.4
	c0.2,0.1,0.3,0.3,0.4,0.5c0.1,0.3,0.1,0,0.2,0.2s-0.1,0.4,0.1,0.6s0.2,0,0.1,0.4c0,0.2,0,0.3,0,0.5c0.2,0,0.3,0.1,0.4,0.1
	c0.3,0.1,0.2-0.1,0.4-0.1c0.3-0.3,0.4,0,0.6,0c0-0.2,0.2-0.1,0.4-0.1c0-0.2,0.2-0.1,0.4-0.1c0.4,0,0.2-0.1,0.4-0.3
	c-0.1,0.4-0.3,0.7-0.6,1c-0.2,0.2-0.7,0.4-0.9,0.7c0.1,0,0.2-0.1,0.4-0.2l0.6-0.4c0.3-0.2,0.4-0.4,0.6-0.7s0.1-0.3,0.2-0.5
	s0.2-0.5,0.1-0.5s-0.1,0.6-0.3,0.3c-0.1-0.2-0.1-0.4-0.1-0.5c0-0.2,0.1-0.4,0.2-0.6c0-0.1,0.1-0.3,0.2-0.3s0,0.3,0.1,0.3
	s0-0.1,0-0.2l0.1-0.4c-0.1,0,0-0.3,0-0.6c0-0.5,0.1-1,0.2-1.5c0.1-0.5,0.1-1,0-1.5c0-0.3-0.1-0.5-0.2-0.8c-0.1-0.1-0.1-0.2-0.2-0.4
	c-0.1-0.1,0-0.2-0.1-0.3c0-0.1-0.1-0.2-0.1-0.2c-0.1-0.1-0.1-0.2-0.2-0.4c-0.1-0.3-0.2-0.6-0.2-0.9c0-0.2-0.2-0.3-0.2-0.5
	s-0.1-0.3-0.2-0.5l-0.3-0.4c0-0.1-0.1-0.4-0.1-0.6s0-0.3-0.1-0.3s0,0.3-0.1,0.3c-0.4-0.2-0.5-0.9,0-1.1c0,0.1,0,0.3,0,0.5
	s0,0.2,0.1,0.2c0-0.2,0-0.4,0-0.7c0.1-0.2,0.2-0.2,0.2-0.2c-0.2-0.4-0.4-0.8-0.7-1.1c0,0.1-0.2,0.3-0.1,0.5s0.2,0.1,0.2,0.2
	s0,0.2-0.1,0.3s0,0.3,0,0.3c-0.2-0.5-0.3-0.9-0.3-1.4c0-0.2,0.3-0.7,0.2-0.8s-0.1-0.3-0.3-0.5s-0.1-0.3-0.3-0.5
	c-0.4-0.7-0.7-1.5-0.9-2.3c-0.1-0.2-0.1-0.4-0.1-0.7c-0.1,0-0.1-0.2-0.1-0.2s0-0.1-0.1-0.4c-0.1-0.1-0.1-0.3-0.1-0.4
	c0-0.1-0.1-0.2-0.1-0.4c0-0.2,0-0.5-0.1-0.8s-0.1-0.2-0.1-0.3c0.1-0.2,0.1-0.5,0-0.8c-0.1-0.2,0-0.2,0-0.4s0.1-0.3,0.1-0.5
	s0-0.1,0.1-0.3c0-0.3,0.1-0.2,0.2-0.4s0.1-0.1,0.2-0.3s-0.2-0.6,0.1-0.7s0.1-0.7,0.3-1s0.3-0.2,0.4-0.4s0.1-0.3,0.3-0.3
	c-0.1-0.1,0.1-0.1,0.2-0.2s0.2-0.3,0.2-0.4s0.1-0.1,0.4-0.3c0.2-0.2,0.4-0.3,0.6-0.6c0.1-0.1,0.2,0,0.3-0.1s0.2-0.2,0.2-0.3
	s0.1-0.1,0.2-0.2c0.2-0.3,0.2-0.4,0.5-0.4s0.5-0.3,0.9-0.4s0.1-0.2,0.3-0.4c0.1,0,0.2-0.1,0.2-0.1c0.3-0.1,0.6-0.4,0.8-0.7
	c0.1-0.2,0.3,0,0.5-0.1s0.2-0.3,0.4-0.4s0.2-0.3,0.2-0.7c0-0.1,0-0.2,0-0.3c0.1-0.1,0-0.2,0.1-0.2s0.4-0.5,0.3-0.4s0.1-0.2,0.3-0.4
	s0.2-0.1,0.3-0.3s0.2-0.3,0.3-0.3s0.3-0.1,0.4-0.2s0.3-0.1,0.5-0.2c0.4,0,0.5-0.2,0.9-0.2s0.4,0.2,0.7,0.2c0.2,0,0.1-0.2,0.2-0.6
	s0.1-0.4,0.3-0.6s0,0,0.1-0.2s0.1-0.2,0.3-0.3c0.1-0.1,0.2-0.1,0.3-0.2c0.1-0.1,0.2-0.1,0.3-0.3s0.2-0.1,0.4-0.2
	c0.2-0.1,0.3-0.2,0.4-0.3c0.2-0.1,0.2-0.1,0.4-0.2c0.4-0.2,0.8-0.3,1.3-0.3c0.2,0,0.4,0,0.6,0.1c0.1,0.1,0.1,0.3,0.2,0.3
	s-0.1-0.1,0.4-0.7c0.2-0.3,0.9-0.8,1-1s0.1,0,0.3-0.2s0.3-0.2,0.4-0.3c0.3-0.2,0.7-0.3,1-0.4c0.1,0,0.2,0,0.2,0
	c0.1-0.1,0.1-0.2,0-0.3c-0.1-0.1-0.3,0.1-0.4,0.1c-0.4,0.2-0.9,0.4-1.3,0.6c-0.2,0.1-0.3,0.2-0.4,0.3c0,0.1-0.1,0.2-0.2,0.1
	s-0.3-0.3-0.4-0.2s0.1,0.1,0,0.2s-0.2,0.1-0.2,0.1s0-0.3-0.1-0.3s-0.3,0.1-0.5,0.2c-0.2,0.1-0.3,0.2-0.5,0.3
	c-0.4,0.1-0.7-0.1-0.7-0.5c0.1,0,0.3,0.3,0.5,0.3s0.5-0.3,0.6-0.3c0.2-0.1,0.4-0.3,0.4-0.6c0-0.2,0.2-0.3,0.1-0.3s-0.4-0.2-0.6-0.2
	c0,0-0.8-0.2-0.7-0.3s0.7,0.3,0.9,0.2s-0.2-0.6-0.1-0.6c0.1,0.3,0.3,0.5,0.5,0.7c0.1,0,0.2-0.3,0.3-0.2s-0.1,0.3-0.1,0.3
	s0.6-0.1,0.7,0c0.4,0.1,0.5,0,0.7-0.3s0.1-0.5,0.2-0.7s0.2,0,0.3,0c0.3-0.2,0.2-0.2,0.2-0.5s0.1-0.6-0.1-0.8s-0.5-0.2-0.5,0
	s0,0.5-0.3,0.6c0.1,0,0-0.7,0-0.8c-0.1-0.3-0.2,0-0.3-0.2s-0.1-0.1-0.3,0s-0.3,0.4-0.6,0.2c-0.1,0-0.7,0.1-0.9,0.1s-0.1-0.2-0.1-0.2
	c0.2,0,0.4,0,0.6,0c0.2-0.1,0.4-0.2,0.6-0.3c0.2-0.1,0.4-0.2,0.6-0.2c0,0,0.2,0,0.2,0s0-0.2,0-0.2c0.1,0,0.3-0.1,0.4-0.1
	c0.2,0,0.4,0.7,0.4,0.6c0-0.4-0.1-0.8-0.3-1.2c-0.1-0.3-0.3-0.4-0.4-0.7c0-0.1,0.2-0.1,0.1-0.2s0.1-0.3,0.1-0.5
	c-0.1-0.3,0-0.4,0-0.4s0.1,0.3,0.2,0.6c0.1,0.3,0.1,0.7,0.2,1c0.1,0.4,0.3,0.9,0.5,1.3c0.1,0.2,0.2,0.4,0.3,0.6
	c0.2,0.4,0.3,0.8,0.4,1.2c0,0.2,0,0.5-0.1,0.7c0,0.4,0.1,0.5,0.1-0.2c0.1-0.4,0.1-0.8,0-1.1c-0.1-0.4-0.3-0.8-0.6-1.2
	c-0.2-0.4-0.4-0.8-0.5-1.2c-0.1-0.3-0.1-0.6-0.2-0.8c0-0.4-0.4-0.8-0.4-1.3c0-0.1-0.1-0.2-0.1-0.3c-0.3-0.1-0.7,0.2-0.7-0.2
	c-0.3,0-0.4,0.2-0.7,0.3c-0.1-0.1-0.3-0.5-0.4-0.6c-0.3-0.2-0.7-0.4-0.7-0.8c0.3,0,0.6,0.2,0.8,0.5c0.3,0.3,0.1,1.1,0.8,0.4
	c-0.1-0.3,0-0.5-0.4-0.5c0-0.2-0.3-0.2-0.3-0.3s0.4-0.1,0.4-0.2s-0.2-0.4-0.3-0.5s0.1-0.1,0.2,0s0.3,0.3,0.4,0.4s0-0.3,0.1-0.3
	c0-0.2-0.1-0.3-0.2-0.4c-0.1,0-0.1,0.1-0.2,0s0-0.2,0-0.3s-0.4-0.1-0.5-0.2s-0.2-0.3-0.3-0.5c0.2,0,0.2,0.3,0.3,0.4s0.1-0.2,0.1-0.2
	s0,0.2,0.1,0.2s0.2,0,0.2,0s0.3,0.1,0.3,0.1s-0.2,0-0.2-0.1s0.1-0.3,0.1-0.4c0-0.4,0.2-0.3,0.2-0.5s-0.1-0.3-0.5-0.4
	s-0.5-0.5-0.9-0.7s-0.6,0-0.9-0.3s-0.8-1.1-0.4-1.1c-0.1,0.2,0.3,0.6,0.4,0.7c0.2,0.2,0.5,0.3,0.7,0.2c0.2,0,0.2,0.1,0.4,0.1
	c0,0.3,0,0.2,0.1,0.3s0.1-0.2,0.2-0.1s0.3,0.4,0.4,0.4c0-0.2,0-0.5-0.1-0.7c-0.1-0.3,0-0.5-0.1-0.8c-0.4-0.2-0.4-0.7-0.4-1.1
	c0-0.1-0.2-0.4-0.1-0.5s0.2-0.4,0.2-0.6s0.2,0,0.3-0.1c0-0.2,0-0.4-0.1-0.6c0-0.2-0.3-0.2-0.3-0.3c0.2,0,0.4-0.3,0.5-0.5
	c0.1-0.1,0.2-0.2,0.2-0.2c0,0.1,0,0.2,0.1,0.2c0.1,0,0-0.3,0-0.3h0.2c0-0.2,0.1-0.2,0.2-0.3s-0.1-0.3-0.1-0.4c0.3,0,0.3,0.1,0.3,0.4
	s0,0.2-0.1,0.2c0,0.2-0.1,0.1-0.3,0.1c0,0.1-0.1,0.3-0.2,0.4c0,0-0.1,0.1-0.1,0.1c-0.2,0-0.2,0.1-0.1,0.3l0.1,0.8
	c-0.1,0-0.2,0-0.1-0.1c-0.3,0.1-0.3,0.4-0.3,0.7c0.2,0,0.4-0.2,0.6-0.3c0,0.2,0.1,0.4-0.2,0.4s-0.3,0.6-0.3,0.8
	c0.1,0,0.2-0.2,0.3-0.3c0,0.4,0.4,0.3,0.6,0.6s-0.6-0.2-0.6-0.2c0.1,0.2-0.2,0.2-0.1,0.4s0.5,0.2-0.1,0.2c-0.1,0,0,0.2,0.1,0.5
	c0.1,0.2,0.2,0.5,0.4,0.7c0.1,0,0-0.1,0.1-0.2c0.2-0.1,0.4-0.1,0.6,0c0.4,0.2,0.1,0.2,0,0.3c0.1,0,0.4-0.1,0.4,0.2
	c-0.1-0.1-0.1,0.1-0.1,0.2s0.3,0,0.2,0.2c0,0.1-0.1,0.1-0.1,0.1c-0.2,0.1-0.1,0.4,0.1,0.4c0,0,0.2-0.2,0.3-0.1s0,0.1,0.1,0.2
	s-0.2,0.5-0.3,0.6c-0.5,0.7-0.7,1.5-0.7,2.3c0.1,0,0.2,0,0.1,0.1c0.1-0.1,0-0.2,0.1-0.3s0.1-0.1,0.1-0.2c0-0.1,0-0.2,0.1-0.4
	c0-0.2,0.3-0.4,0.3-0.6c0.2-0.5,0.3-0.3,0.5-0.3c0.1-0.4,0.3-0.8,0.6-1.1c0.1-0.2,0.2-0.1,0.3-0.2s0.3-0.5,0.5-0.7
	c0.1-0.1,0.1-0.2,0.1-0.4l0.2-0.4c0-0.1,0-0.2,0.1-0.2c0,0,0.1-0.1,0.1,0c0-0.4,0.1-0.2,0.1-0.6c0-0.2,0-0.4,0-0.6c0,0,0,0,0-0.2
	c0,0.1,0,0.1,0,0.2s0-0.7-0.1-0.8s0,0.1-0.2,0c-0.2-0.1-0.3-0.3-0.4-0.5c0-0.2-0.1,0-0.1-0.2s0-0.2-0.1-0.3s-0.2-0.2-0.2-0.5
	s-0.1-0.3-0.2-0.4c-0.1-0.2-0.2-0.5-0.3-0.7c0,0-0.1-0.6,0-0.6c0.2,0.2,0.2,0.4,0.4,0.5s0,0,0,0.2s0.3,0.2,0.4,0.2
	c0.1,0.1,0.2,0.1,0.2,0.2l0.1,0.1c0.1,0.1,0.4,0.1,0.7,0.1c0.2,0,0.4,0.2,0.4,0.4c0,0.3-0.3,0.5-0.3,0.8c0.5,0,0.6-0.3,0.8-0.6
	c0-0.1,0.1-0.1,0.1-0.2c0.1-0.2,0.2-0.3,0.3-0.5c0.1-0.1,0.2-0.2,0.3-0.2c0.2-0.1,0.4-0.3,0.6-0.5c0.2-0.2,0.4-0.8,0.5-0.9
	c0.4-0.4,0.2-0.9,0.5-1.6c0-0.2,0-0.4,0.1-0.5c0-0.1,0.1-0.2,0.1-0.3c0-0.1,0-0.3,0.1-0.4c0-0.2-0.1-0.2-0.1-0.3s0,0.1-0.1,0.1
	c-0.3,0-0.5-0.1-0.8-0.2c0-0.2,0.3-0.2,0.5-0.3c0.1,0,0.2-0.1,0.2-0.2c0.1-0.1-0.1-0.2-0.1-0.3s0.1,0.3,0.3,0.4c0-0.1,0.4,0.1,0.6,0
	c0.3-0.1,0.5-0.1,0.8-0.1c0.4-0.1,0.8-0.1,1.2-0.2c0.2,0-0.3,0-0.4,0c-0.1,0-0.3,0.1-0.4,0.1c-0.1,0,0.1-0.1,0.3-0.1l1-0.3
	c0.2-0.1,0.4,0,0.7,0c0.5-0.1,1-0.3,1.5-0.5c0.3-0.2,0.6-0.3,0.9-0.5c0.3,0,0.5-0.2,0.7-0.3c0.1-0.1,0.1-0.2-0.1-0.2
	s-0.2,0.1-0.3,0.2c-0.1,0.1-0.3,0.1-0.4,0c-0.1-0.1,0-0.1-0.2-0.1s-0.1,0.1-0.3,0.1s-0.3,0-0.4,0.1l-0.2,0.3
	c-0.1,0.1-0.1,0.2-0.2,0.1s-0.2-0.1,0-0.2s0.2,0,0.3-0.1s0.1-0.2,0.2-0.2s0.1,0.1,0.2,0.1s0.2-0.2,0.1-0.2s-0.1-0.3-0.2-0.2
	c-0.2,0.2-0.4,0.3-0.6,0.5c-0.2,0.1-0.4,0.2-0.6,0.2c-0.3,0-0.7,0-1,0c-0.1,0-0.2-0.1-0.3,0c-0.1,0.1-0.1,0.1-0.1,0.2
	c0,0-0.3,0-0.5,0c-0.1,0-0.2,0-0.3-0.1c0,0-0.1,0.1-0.1,0.1c-0.1,0,0,0-0.3,0.1s-0.3,0.3-0.5,0.3s-0.3,0.3-0.4,0.2s-0.1-0.3,0.1-0.4
	c0.2-0.2,0.4-0.3,0.7-0.4c0.2-0.1,0.5-0.2,0.7-0.3c0.2-0.1,0.4-0.1,0.6-0.2c0.2,0,0.3-0.1,0.4-0.2c0.1-0.1,0.2-0.2,0.4-0.3
	c0.1-0.1,0,0.1,0.2,0.1s0.6,0,0.9,0l1.3-0.2c0.1,0,0.2,0,0.4-0.1c0.1,0,0.3-0.1,0.4-0.1c0.1,0,0.3,0.2,0.4,0s0.4-0.1,0.6-0.1
	c0.6-0.1,0.6-0.3,0.7-0.8c0-0.2,0.1-0.5,0.1-0.6s-0.1-0.2,0-0.3s0.1,0.1,0.2,0.2s0.1,0.2,0.1,0.2s0.1-0.1,0.1-0.2s0.2,0,0.2,0
	c-0.1,0.3-0.4,0.2-0.5,0.6s-0.1,0.4,0,0.3c0.1-0.1,0.2-0.1,0.2-0.2c0.2,0,0.1,0.3,0.2,0.3s0.2-0.3,0.2-0.3c0.2,0.1,0.4,0.1,0.5,0
	c0.1-0.1,0-0.4,0.2-0.4s0.2,0,0.2-0.1s0.4-0.3,0.6-0.4c0,0.3,0.1,0.6-0.2,0.8c-0.1,0.1-0.7,0.3-0.7,0.5c0.2,0,0.4-0.1,0.6-0.3
	c0.2-0.1,0.3-0.2,0.4-0.3c0.2-0.2,0.4,0.1,0.5-0.2s0.4-0.2,0.5-0.2c0.2-0.1,0.4-0.1,0.6-0.1c0,0,0.1-0.1,0.3,0s0,0.3,0,0.5
	c0.1,0,0.1-0.1,0.1-0.3c0.1-0.2,0.1-0.4,0.1-0.6c0-0.3-0.1-0.7-0.2-1c-0.1-0.2-0.3-0.8-0.5-0.8s-0.4,0-0.4,0.1s0.1,0.4,0.2,0.5
	s0.2,0,0.1,0s0-0.4,0-0.4c0.1,0.2,0.2,0.4,0.2,0.6c0,0.2,0,0.4,0.1,0.3s0.1,0,0.1,0.1c0,0.1,0,0.2,0,0.2c-0.1,0.4-0.2,0.2-0.4,0.2
	c-0.2,0.1-0.4,0.1-0.6,0.1c-0.2,0-0.2,0-0.4-0.1s-0.2-0.2-0.2-0.5s-0.1-0.3-0.4-0.3c0,0-0.1-0.2,0-0.2s0.2,0,0.2-0.1s-0.1,0-0.1-0.1
	s0-0.6-0.2-0.8c-0.1-0.1-0.2-0.2-0.2-0.4c-0.1-0.2-0.2-0.1-0.3-0.2s-0.2-0.3-0.2-0.2c0,0.3-0.2,0.3-0.3,0.2
	c-0.4-0.3,0.2-0.4,0.1-0.4l-0.2-0.3c0.2,0.2,0.4-0.3,0.7-0.4c0.2-0.1,0.4-0.2,0.5-0.3c0.2-0.2,0.2-0.4-0.2-0.3s-0.4-0.3-0.4-0.5
	c0-0.2,0-0.3-0.1-0.5c-0.1-0.4,0.3-0.5,0.5-0.8s0.1-0.9,0.4-1s0.9-0.5,0.5-0.6c0-0.1-0.1-0.2,0.1-0.2c0-0.1,0.5-0.1,0.5-0.1
	s-0.1-0.4-0.1-0.5s-0.1-0.5,0.4-0.5s0.2-0.3,0.4-0.1s0.1,0,0,0.2s-0.1,0.2,0,0.2s0.2-0.1,0.3,0s0.1,0.2,0.3,0.1s0.2-0.1,0.2-0.2
	c0-0.1,0-0.1,0-0.2c0-0.1-0.1-0.4,0-0.4s0.1,0.2,0.2,0.3s0,0.1,0.1,0.1s0.1,0.1,0.2,0s0.1-0.5,0.1-0.3s0,0.2,0.1,0.1
	c0.1-0.1,0.2-0.3,0.2-0.4c0-0.1,0.1-0.3,0.3-0.1s0.1,0.3,0.2,0.3s0.1,0.1,0.3-0.1c0.2-0.1,0.3-0.3,0.4-0.4c0.1-0.1-0.1-0.1-0.1-0.3
	s0-0.2,0.1-0.4c0.1-0.1,0.2-0.3,0.3-0.5c0-0.2-0.1-0.1-0.1-0.3s0-0.1,0.3-0.2s0.4-0.5,0.4-0.3c0,0.1,0,0.3-0.1,0.4
	c-0.1,0.2-0.1,0.3,0,0.2s0.1,0,0,0.1s-0.2,0.3,0,0.2s0.3-0.1,0.4,0s0,0.1-0.1,0.2s-0.1,0.4,0,0.4s-0.1,0.1,0.2,0s0.3-0.2,0.2-0.2
	s-0.3-0.3-0.2-0.3s0.2,0.2,0.3,0.2c0.1,0,0.1,0,0.1-0.1c0,0,0-0.1,0-0.1c-0.1-0.1-0.2-0.1-0.2-0.3s0.1-0.3,0.2-0.3
	c0.1,0,0.2-0.1,0.2-0.2c0-0.1,0.1-0.2,0.1,0s0,0.3,0.1,0.3s0.1,0.1,0,0.2s-0.2,0.2-0.1,0.3c0,0.1,0.2,0.2,0.3,0.2
	c0.2,0,0.2-0.1,0.4-0.2s0.1-0.1,0.1-0.2c0-0.1-0.1-0.2-0.1-0.3c-0.1-0.1-0.4-0.2-0.1-0.3s0.4-0.1,0.4,0s0,0.2,0,0.3s0.2,0.3,0.3,0.2
	s0.1-0.2,0.3-0.2s0.3-0.1,0.3-0.2s0.2-0.4,0.2-0.4s0-0.1,0.2,0s0.2,0.2,0.3,0.1s0.3-0.2,0.3-0.3s0-0.1,0-0.1s0,0.1,0.1-0.1
	s0.3,0.1,0.3,0.2c0.2-0.1,0.1-0.2,0.2-0.4s0,0.1,0.2,0.2s0.1,0,0.2,0s0.1,0,0.2,0s0-0.1,0.2-0.1s0.1-0.1,0.2-0.2s0.2-0.1,0.3-0.2
	c0.1-0.1,0.2-0.3,0.3-0.4C190.5,18.2,190.6,18.2,190.4,18.2z M144.6,89.8c0.4,0,0.6,0.1,0.7,0.6c0.1,0.2,0.1,0.7,0,0.9
	c-0.5,0.7-1-0.3-1.2-0.8C144.5,90.4,144.7,90.2,144.6,89.8z M39,32.2c0.2-0.1,0.4-0.3,0.6-0.3s0.2,0.3,0.2,0.4
	c0,0.3,0.1,0.5,0.3,0.7c0.1,0.2,0.5,0.2,0.6,0.4s0,0.4,0,0.6c0.1,0,0.3,0.1,0.3-0.1c0-0.3,0-0.6,0-0.9c0.3,0,0.6,0.1,0.9,0.1
	c0,0.3-0.4,0.3-0.5,0.6s0.2,0.1,0.3,0.2s0.2,0.4,0.2,0.6s0.2,0.2,0.2,0.3s0,0.2,0.2,0.2c0.6,0-0.1,0.3-0.3,0.4
	c0-0.2-0.4-0.6-0.5-0.6c0,0.4,0.2,0.7,0.1,1.1c0,0.1-0.5,0.6-0.6,0.5s0-0.5,0-0.6s-0.2-0.6-0.2-0.3s-0.5,0.1-0.5-0.1
	C40,35,40,35,39.5,35c0-0.2,0.1-0.5,0.1-0.8s-0.4-0.3-0.7-0.4c0.2-0.2,0-0.8,0-1.1S38.9,32.3,39,32.2z M90.4,91.8
	c0.1,0.1,0.1,0.2,0.1,0.2s0.1,0.2,0.2,0.3c0.1,0.2,0.2,0.4,0.3,0.6c0.1,0.2,0.1,0.5,0.1,0.7c0,0.1,0,0.1,0,0.1s0,0,0,0
	c0-0.1-0.1-0.1-0.1-0.1c-0.1,0-0.1,0-0.2,0s0-0.1,0-0.2c0-0.1,0-0.3,0-0.4c-0.1-0.2-0.1-0.4-0.2-0.6c-0.1-0.1-0.1-0.3-0.2-0.3
	c0,0,0-0.1,0-0.1c0,0,0-0.1,0-0.1S90.3,92,90.4,91.8c-0.1,0-0.1-0.1-0.1-0.1c0-0.1,0-0.2-0.1-0.3s0-0.1,0-0.2s0-0.1,0-0.1s0,0,0.1,0
	c0.1,0.1,0.1,0.2,0.1,0.3C90.4,91.5,90.4,91.6,90.4,91.8z M94.7,84.4c-0.2,0.1-0.3,0.1-0.5,0.2c-0.1,0.1-0.2,0.1-0.3,0.2
	c-0.1,0.1-0.2,0.2-0.3,0.3c-0.1,0.1-0.1,0-0.1,0s-0.1,0.1-0.2,0.1s0,0.1-0.1,0.2c-0.1,0.1-0.2,0.1-0.3,0.1c-0.1,0-0.1,0.1-0.1,0.1
	s0,0-0.1,0.1c0,0.1-0.1,0.1-0.2,0.1c0,0-0.1,0-0.1,0c-0.1,0-0.1,0-0.2,0c-0.1,0-0.1,0-0.1,0.1c0,0.1,0,0.1,0,0.2s-0.1,0.1-0.1,0
	s-0.1,0-0.1,0s0,0-0.1,0.1s0,0-0.1,0.1c0,0.1-0.1,0.1-0.1,0.2c0,0.1,0,0.1-0.1,0.2c0,0-0.1,0,0,0s0,0-0.1,0.1s0,0-0.1,0
	s-0.1-0.1-0.1,0s0,0.1-0.1,0.2s0,0.1,0,0.2s0,0,0,0s0,0.1,0,0.2s-0.1,0.1-0.2,0.2c-0.1,0.1-0.1,0.2-0.1,0.3c0,0.1-0.1,0-0.1,0
	c0,0.1,0,0.1,0,0.2c0,0.1-0.1,0.1-0.1,0.2s-0.1,0.2-0.1,0.3c0,0.1,0,0.1,0,0.2c0,0-0.1,0.1-0.1,0.1c0,0.1,0,0.1,0,0.2c0,0,0,0,0,0.1
	s0,0.1,0,0.2c0,0.1,0,0.2,0,0.3c0,0,0,0.1,0,0.2c0,0.1,0,0.2,0,0.3c0,0.2,0,0.1,0,0.2s0,0-0.1,0c0-0.1,0-0.2,0-0.3c0,0,0-0.2,0-0.3
	c0-0.1,0-0.1,0-0.2c0-0.1,0-0.1,0-0.2c0-0.1,0-0.1,0-0.1s-0.1,0-0.3,0.1s-0.1,0-0.2,0c-0.1,0-0.1,0-0.2,0c-0.1,0,0,0-0.1-0.1
	s0-0.1-0.1-0.1c0,0-0.1-0.1-0.1-0.2c0,0,0-0.1,0-0.1c0,0,0,0.1,0,0.1l0,0c0,0,0-0.1,0-0.1h0.1c0,0,0,0.2,0,0.2s0,0,0.1,0
	c0.1-0.1,0.1-0.1,0.2-0.1c0.1,0,0,0,0.1-0.1s0.1,0,0.1,0s0,0.1-0.1,0.1l-0.1,0.1c0,0,0.1,0,0.2,0c0.1,0,0.2-0.1,0.2-0.1
	c0.1-0.1,0.1-0.2,0.1-0.4c0-0.2,0.1-0.4,0.2-0.6c0.1-0.1,0.2-0.4,0.2-0.4s0-0.1-0.2-0.1c-0.1,0-0.2-0.1-0.3-0.2c0-0.1,0-0.1,0-0.2
	c0.1-0.1,0-0.1-0.1,0c-0.1,0-0.1,0-0.2,0c-0.1,0-0.1,0,0-0.1s0.2,0,0.3-0.1s0.1,0.1,0.2,0.1s0.1-0.1,0.2-0.1s0.1,0.1,0.1,0.1
	S91,87,91.1,87s0.1-0.1,0.1-0.2c0-0.1,0.1-0.1,0.2-0.2c0.1-0.1,0.1,0,0.1,0c0,0,0-0.1,0-0.1c0-0.1,0.1-0.1,0.1-0.2s0-0.1,0-0.2
	s0-0.1,0-0.2s-0.1,0-0.1,0s0,0.1-0.2,0.2s-0.2,0-0.2,0s0-0.1,0-0.1c0.1-0.1,0.2-0.2,0.3-0.2c0,0,0.1,0,0.2,0.1
	c0,0.1,0.1,0.1,0.2,0.1c0.1,0,0.1,0,0.2,0c0.1,0,0.2-0.1,0.2-0.2c0.1-0.1,0.1-0.1,0.2-0.2c0,0,0.1,0,0.1-0.1s-0.1-0.1-0.1-0.2
	s0.1-0.1,0-0.2s-0.1-0.1-0.2-0.2s0,0,0.1,0s0.1,0,0.2,0s0.1,0.1,0.1,0.2c0,0.1,0,0.1,0.1,0.2c0,0.1,0.1,0,0.2,0S93,85,93,85l0.2-0.1
	l0.2-0.1c0.1-0.1,0.2-0.1,0.2-0.2s0,0,0-0.1s-0.1-0.1-0.2-0.2s-0.2-0.1-0.2-0.2s-0.1-0.1-0.2-0.1s-0.1-0.1-0.1-0.2s0-0.1-0.1-0.2
	s0-0.1,0.1-0.1s0.1,0.1,0.1,0.1c0,0.1,0,0.1,0.1,0.1c0.1,0,0.1,0,0.1,0.1s0,0.1,0,0s0,0,0,0.1s0.1,0,0.2,0l0.3-0.2
	c0.1-0.1,0.1,0,0.1,0s0-0.1,0.1-0.1s0.1,0,0.1,0s0.1-0.1,0.1-0.1s0,0-0.1,0.1S94,84,94.1,84s0.1,0,0,0.1s0,0.1,0,0.1s0.1,0,0.3-0.1
	c0.1-0.1,0.3-0.1,0.5-0.1C95,84.4,94.9,84.4,94.7,84.4z M99.3,80.8c-0.1,0.2-0.3,0.1-0.4,0.3s0,0.2-0.2,0.2s0,0-0.1-0.1s0-0.1,0-0.2
	s0-0.1-0.2-0.3s0-0.1,0-0.2s-0.1-0.1-0.3-0.1s-0.1-0.1,0-0.3s0.2-0.2,0.2-0.2h0.2c0,0,0.1-0.2,0.3-0.4S99,79.7,99,80
	c0,0.1-0.1,0.2-0.1,0.3c-0.1,0.1-0.1,0.1-0.2,0.1s0,0.1,0,0.2s0.3-0.1,0.4-0.2s0.2,0,0.2,0.1S99.4,80.6,99.3,80.8z M102.4,79.5
	c-0.1,0-0.3,0.1-0.4,0.2c-0.2,0.1-0.1,0-0.2-0.1c-0.1-0.1-0.1-0.2-0.1-0.3c-0.1-0.1,0.1-0.2,0.2-0.3c0.1-0.1,0.2-0.3,0.3-0.4
	c0.2-0.2,0.1-0.2,0.1,0.3s0,0.4,0.2,0.5S102.5,79.5,102.4,79.5z M114.9,77.9c0,0.1-0.1,0.2-0.1,0.3c-0.2,0.2-0.5,0.2-0.7,0.2
	c-0.2,0-0.3-0.1-0.5-0.1c-0.2-0.1,0-0.2-0.2-0.3c-0.4-0.3-0.6-0.1-0.5-0.7c0-0.2,0.3-0.1,0.4,0s0.1,0.3,0.1,0.4
	c0.4,0,0.2-0.2,0.3-0.4s0.5-0.2,0.6-0.1c0.1,0.3,0.8,0.3,1.1,0.3c0,0.2,0.1,0.3,0.1,0.5C115.2,78,115,78,114.9,77.9z"/>
</svg>
