<?xml version="1.0" encoding="utf-8"?>
<!-- Generator: Adobe Illustrator 22.1.0, SVG Export Plug-In . SVG Version: 6.00 Build 0)  -->
<svg version="1.1" id="Layer_1" xmlns="http://www.w3.org/2000/svg" xmlns:xlink="http://www.w3.org/1999/xlink" x="0px" y="0px"
	 viewBox="0 0 41 41" style="enable-background:new 0 0 41 41;" xml:space="preserve">
<style type="text/css">
	.st0{fill:#FFFFFF;}
	.st1{fill:#000000;}
</style>
<g>
	<circle class="st0" cx="20.5" cy="20.5" r="20"/>
	<path class="st1" d="M20.5,41C9.2,41,0,31.8,0,20.5S9.2,0,20.5,0S41,9.2,41,20.5S31.8,41,20.5,41z M20.5,1C9.7,1,1,9.7,1,20.5
		S9.7,40,20.5,40S40,31.3,40,20.5S31.3,1,20.5,1z"/>
</g>
<g>
	<path class="st1" d="M20.5,18.5c2.9,0.1,4.9,1.7,4.9,4.3c0,3-2.2,5.1-5.7,5.1c-1.9,0-3.8-0.7-5.2-1.7l0.8-1.6
		c1.2,1,2.7,1.5,4.2,1.5c2.5,0,4-1.4,4-3.4c0-2.1-1.5-3.1-4.1-3.1h-2v-1.2l4.8-5.3h-7.1v-1.8h9.4v1.3l-5.1,5.6L20.5,18.5z"/>
</g>
</svg>
