<?xml version="1.0" encoding="utf-8"?>
<!-- Generator: Adobe Illustrator 22.1.0, SVG Export Plug-In . SVG Version: 6.00 Build 0)  -->
<svg version="1.1" id="Layer_1" xmlns="http://www.w3.org/2000/svg" xmlns:xlink="http://www.w3.org/1999/xlink" x="0px" y="0px"
	 viewBox="0 0 41 41" style="enable-background:new 0 0 41 41;" xml:space="preserve">
<style type="text/css">
	.st0{fill:#FFFFFF;}
	.st1{fill:#000000;}
</style>
<g>
	<circle class="st0" cx="20.5" cy="20.5" r="20"/>
	<path class="st1" d="M20.5,41C9.2,41,0,31.8,0,20.5S9.2,0,20.5,0S41,9.2,41,20.5S31.8,41,20.5,41z M20.5,1C9.7,1,1,9.7,1,20.5
		S9.7,40,20.5,40S40,31.3,40,20.5S31.3,1,20.5,1z"/>
</g>
<g>
	<path class="st1" d="M25.1,15.4c0,1.6-1.2,3.5-2.9,5.3l-5,5.3h8.8v1.8H14.8v-1.5l6.1-6.7c1.4-1.4,2.2-2.9,2.2-3.9
		c0-1.6-1.2-2.5-3.3-2.5c-1.5,0-3.2,0.8-4.5,2l-0.8-1.5c1.6-1.4,3.6-2.3,5.5-2.3C23.2,11.4,25.1,13,25.1,15.4z"/>
</g>
</svg>
