<?xml version="1.0" encoding="UTF-8" standalone="no"?>
<!-- Generator: Adobe Illustrator 23.0.0, SVG Export Plug-In . SVG Version: 6.00 Build 0)  -->

<svg
   xmlns:dc="http://purl.org/dc/elements/1.1/"
   xmlns:cc="http://creativecommons.org/ns#"
   xmlns:rdf="http://www.w3.org/1999/02/22-rdf-syntax-ns#"
   xmlns:svg="http://www.w3.org/2000/svg"
   xmlns="http://www.w3.org/2000/svg"
   xmlns:sodipodi="http://sodipodi.sourceforge.net/DTD/sodipodi-0.dtd"
   xmlns:inkscape="http://www.inkscape.org/namespaces/inkscape"
   version="1.1"
   id="Layer_1"
   x="0px"
   y="0px"
   viewBox="0 0 80.000002 40.000001"
   xml:space="preserve"
   sodipodi:docname="CreditCard.svg"
   width="80"
   height="40"
   inkscape:version="0.92.3 (2405546, 2018-03-11)"><metadata
   id="metadata97"><rdf:RDF><cc:Work
       rdf:about=""><dc:format>image/svg+xml</dc:format><dc:type
         rdf:resource="http://purl.org/dc/dcmitype/StillImage" /><dc:title>packages</dc:title></cc:Work></rdf:RDF></metadata><defs
   id="defs95" /><sodipodi:namedview
   pagecolor="#ffffff"
   bordercolor="#666666"
   borderopacity="1"
   objecttolerance="10"
   gridtolerance="10"
   guidetolerance="10"
   inkscape:pageopacity="0"
   inkscape:pageshadow="2"
   inkscape:window-width="2560"
   inkscape:window-height="1356"
   id="namedview93"
   showgrid="false"
   inkscape:zoom="1.9633944"
   inkscape:cx="48.631773"
   inkscape:cy="13.900002"
   inkscape:window-x="-8"
   inkscape:window-y="-8"
   inkscape:window-maximized="1"
   inkscape:current-layer="Layer_1" />
<style
   type="text/css"
   id="style2">
	.st0{fill:#00A9CE;}
	.st1{fill:#00A9CE;stroke:#FFFFFF;stroke-linecap:round;stroke-linejoin:round;stroke-miterlimit:10;}
	.st2{fill:#FFFFFF;}
</style>
<title
   id="title4">packages</title>
<path
   class="st0"
   d="m 418.04617,5555.6 v 93 c 0,1.7 -1.3,3 -3,3 h -60 c -1.7,0 -3,-1.3 -3,-3 v -93 c 0,-1.7 1.3,-3 3,-3 h 60 c 1.7,0 3,1.3 3,3 z"
   id="path6"
   inkscape:connector-curvature="0"
   style="fill:#00a9ce" />
<g
   id="g30"
   transform="translate(-35.053835,-33.999999)">
	
		<ellipse
   transform="matrix(0.9699,-0.2435,0.2435,0.9699,-1356.5619,271.5286)"
   class="st1"
   cx="420"
   cy="5623"
   rx="22.5"
   ry="22"
   id="ellipse8"
   style="fill:#00a9ce;stroke:#ffffff;stroke-linecap:round;stroke-linejoin:round;stroke-miterlimit:10" />
	<g
   id="g28">
		<path
   class="st2"
   d="m 401.3,5612.5 c -0.1,0.4 0.2,0.9 0.3,1.3 0.1,0.5 -0.1,1 0,1.4 0.3,1.1 0.3,1.1 0.1,2 0,0.2 0,0.3 -0.1,0.5 -0.1,1.1 -0.2,2.2 0.6,3.2 0.4,0.6 1,0.6 1.4,1.1 0.1,0.3 0.2,0.7 0.2,1 0,0.3 0.8,0.4 0.4,0.8 0.3,0.2 0.7,0.3 1,0.5 0,-0.2 0,-0.5 -0.1,-1 0.3,0.2 0.5,0.3 0.7,0.5 0.4,0.4 0.7,0.8 1.1,1.2 0.4,0.4 1,0.6 0.7,1.3 1.1,0.6 2.2,1.2 3.6,1 0.6,-0.1 1.2,-0.3 1.8,0.2 0.3,0.3 0.8,0.3 1.2,0.4 0.1,0 0.2,-0.2 0.4,-0.3 2,1.8 2,1.8 4.3,1 0,-0.1 0,-0.2 0,-0.2 -0.3,0 -0.7,0 -1,0.1 -1.1,0 -1.3,-0.2 -1.5,-1.3 -0.1,-0.3 -0.3,-0.6 -0.5,-0.9 -0.7,0.1 -1.2,0.2 -1.8,0.3 0.1,-0.8 0.1,-1.4 0.2,-2.1 -0.4,0.1 -0.8,0.2 -1.1,0.3 -0.2,0.5 -0.1,1.1 -0.8,1.3 -0.8,0.2 -1.2,-0.2 -1.7,-0.5 -0.2,-0.9 -0.5,-1.8 -0.7,-2.7 1,-1.2 1,-1.2 2.4,-1.2 0,-0.2 0,-0.4 0.1,-0.8 0.7,0 1.5,0 2.1,-0.1 0.6,0.6 1.1,1.2 1.6,1.8 0.2,-1.1 -0.6,-1.7 -0.9,-2.7 0.4,-0.5 0.9,-1 1.3,-1.6 0.4,-0.5 0.4,-0.6 -0.3,-1.4 0.2,-0.2 0.6,-0.4 0.7,-0.7 0.1,-0.8 0.7,-1.1 1.2,-1.5 0,-0.3 -0.1,-0.5 -0.1,-0.8 0.4,-0.2 0.8,-0.4 1.2,-0.6 0.1,0.2 0.2,0.4 0.3,0.6 0.6,-0.6 1.1,-1.1 1.7,-1.6 -0.1,-0.1 -0.1,-0.2 -0.2,-0.2 -0.3,0.2 -0.6,0.4 -0.9,0.7 -0.2,-0.2 -0.5,-0.3 -0.9,-0.6 0.5,-0.6 0.9,-1 1.2,-1.5 0.3,-0.6 1,-0.7 1.3,-1.1 -0.5,-0.6 -1,-0.8 -1.7,-0.9 -0.5,0 -0.9,-0.2 -1.2,-0.7 -0.2,-0.3 -0.4,-0.5 -0.7,-0.7 -0.1,-0.1 -0.3,-0.1 -0.5,-0.1 -0.1,0.3 -0.2,0.6 -0.3,1 -1.1,-0.3 -1.7,-2.1 -3.1,-1.1 0.1,0.7 -0.3,1.4 0.4,2 0.1,0.1 0.1,0.4 0.1,0.5 -0.7,0.6 -0.2,1.4 -0.3,2 -1.2,0.2 -1,-0.9 -1.3,-1.4 -0.6,0 -1,0.1 -1.4,0 -0.4,-0.1 -0.8,-0.3 -1.2,-0.4 -0.4,-0.2 -0.5,-0.6 -0.4,-1 0.2,-0.7 0.8,-1.1 1.1,-1.7 0.1,-0.4 0.8,0 1.2,0 0.3,0 0.6,-0.1 1.3,-0.3 -0.6,-0.2 -1,-0.4 -1.2,-0.5 0.2,-0.4 0.4,-0.7 0.5,-1 0.4,-1.2 0.6,-1.3 1.6,-0.7 0.2,0.1 0.3,0.2 0.5,0.3 -0.4,0.5 -0.7,0.9 -1.1,1.4 1.2,-0.2 1.2,-0.2 2.5,0.6 0.3,-0.3 0.6,-0.5 0.9,-0.8 -0.2,-0.2 -0.3,-0.3 -0.5,-0.5 0.2,-0.4 0.3,-0.7 0.5,-1 -1.4,-0.6 -2.6,-1.1 -3.8,-1.7 -0.7,0.1 -1.2,0.2 -1.8,0.4 0,-0.1 0,-0.2 -0.1,-0.3 0.5,-0.1 1.1,-0.3 1.5,-0.4 0.1,-0.3 0.2,-0.5 0.3,-0.7 -0.3,0.1 -0.6,0.2 -0.9,0.3 0,0.1 0.1,0.1 0.1,0.2 -0.3,0 -0.6,0 -0.8,0 -0.5,0.2 -0.9,0.4 -1.4,0.6 -0.2,0.4 -0.5,0.7 -0.7,1.1 0.2,0.3 0.4,0.5 0.8,1.1 -0.7,-0.2 -1,-0.3 -1.3,-0.4 0.1,-0.3 0.1,-0.6 0.2,-0.8 -0.3,-0.1 -0.5,-0.1 -0.8,-0.2 -0.7,0.4 -1.3,0.8 -1.9,1.3 0.2,0 0.3,0.1 0.5,0.1 -0.2,0.3 -0.3,0.4 -0.4,0.6 -0.2,-0.1 -0.5,-0.2 -0.7,-0.2 -2,1.6 -3.8,3.5 -5.2,5.6 0.2,0.5 0.3,0.8 0.2,1.3 z m 10.2,-8.6 c 0.3,0.4 0.6,0.9 0.9,1.3 -0.1,0.1 -0.2,0.2 -0.3,0.3 -0.5,-0.4 -1,-0.8 -1.6,-1.3 0.4,-0.1 0.7,-0.2 1,-0.3 z"
   id="path10"
   inkscape:connector-curvature="0"
   style="fill:#ffffff" />
		<path
   class="st2"
   d="m 415.3,5601.9 c 0.6,-0.2 1.2,-0.1 1.7,0.5 0.4,0.4 1.1,0.3 1.5,0.8 0.1,0.1 0.3,0 0.5,0 -0.1,0.2 -0.2,0.4 -0.3,0.8 0.6,0.2 1.4,0.3 1.7,0.7 0.7,1 1.7,1.2 3.1,1.2 -0.3,-0.4 -0.7,-0.8 -0.7,-1 0.1,-0.5 0.3,-0.8 -0.4,-1 0.2,-0.2 0.4,-0.3 0.6,-0.5 -0.1,-0.2 -0.1,-0.5 -0.2,-0.7 0.1,-0.1 0.3,-0.1 0.4,-0.2 0.1,-0.1 0.1,-0.3 0.2,-0.5 -0.4,-0.1 -0.8,-0.2 -1.1,-0.5 -0.1,-0.1 -0.2,-0.2 -0.3,-0.3 -2.4,-0.2 -4.8,0 -7.2,0.6 -0.1,0 -0.2,0 -0.2,0.1 0.1,0 0.4,0.1 0.7,0 z"
   id="path12"
   inkscape:connector-curvature="0"
   style="fill:#ffffff" />
		<path
   class="st2"
   d="m 427.3,5641.6 c 0.4,-0.2 0.6,-0.5 0.7,-0.8 0.1,-0.2 0.1,-0.4 0.2,-0.5 1.2,-0.5 1.8,-1.6 2.1,-2.8 0.2,-0.7 0.7,-1.1 1.2,-1.2 1.1,-0.3 1.3,-1.1 1.6,-1.9 0.4,-1.3 0.7,-2.7 1.6,-3.8 l 0.1,-0.1 c 0,-0.3 0,-0.5 0,-0.9 -0.7,0.1 -1.2,-0.7 -1.9,-0.4 -0.7,0.3 -1.3,0.1 -1.9,-0.1 -0.2,-0.1 -0.5,0.2 -0.9,0.3 -0.4,-0.6 -0.9,-1.2 -1.5,-1.9 -0.6,0 -1.3,0 -2.1,0 -0.8,-0.4 -1.7,-0.7 -2.6,-1.1 -0.3,0.3 -0.4,0.6 -1,0.5 -0.6,-0.2 -1.4,-0.5 -2,0.3 -0.1,-0.2 -0.2,-0.4 -0.3,-0.6 -0.3,0.4 -0.4,1 -1,1 -0.7,0.1 0,1.2 -0.8,1.3 0.2,0.6 0.3,1.2 0.5,2.1 -0.3,0.4 -0.6,1 -1,1.6 0.6,0.4 0.1,1.1 0.3,1.5 0.6,0.4 1.2,0.8 1.7,1.2 0.5,0.4 0.8,0.9 1.3,1.2 0.5,0.3 1.2,0.5 1.7,0.7 0.6,1.9 0.8,3.6 0.4,5.4 0.1,0.2 0.4,0.4 0.4,0.6 0,0.5 0,1 0.1,1.5 0,0.1 0,0.2 0,0.2 0.4,-0.1 0.7,-0.2 1.1,-0.3 0.1,0 0.2,0 0.2,-0.1 0.5,-1.2 0.8,-2.2 1.8,-2.9 z"
   id="path14"
   inkscape:connector-curvature="0"
   style="fill:#ffffff" />
		<path
   class="st2"
   d="m 438.4,5611.6 c -0.7,0.6 -0.7,1.3 -0.5,2 0.1,0.3 0.2,0.7 0.1,1 -0.4,1.3 0,2.6 -0.4,4 0.3,0 0.5,0 0.8,0 0.1,0.7 0.5,1.2 0.1,1.9 -0.1,0.2 0,0.8 0.2,1 1.1,0.6 1.1,2 2.2,2.4 0.5,-0.4 1,-0.8 1.6,-1.2 0,-1.7 -0.2,-3.4 -0.7,-5.1 -0.6,-2.5 -1.7,-4.8 -3.1,-6.9 h -0.1 c 0.1,0.2 0,0.7 -0.2,0.9 z"
   id="path16"
   inkscape:connector-curvature="0"
   style="fill:#ffffff" />
		<path
   class="st2"
   d="m 431.9,5605.4 c 0.3,0.3 0.5,0.7 0.7,0.9 0.8,0 1.4,0.1 2.2,0.1 -0.1,0.4 -0.1,0.6 -0.3,1.2 0.5,0.3 1.1,0.6 1.7,0.9 -0.2,0.3 -0.5,0.6 -0.7,0.8 0.5,0.8 0.8,1.4 1.2,2.1 0.3,0.1 0.7,0.1 1.2,0.2 -0.2,-0.6 0.6,-1.2 -0.3,-1.7 0,-0.4 -0.2,-0.7 -0.3,-1.1 -1.2,-1.4 -2.6,-2.7 -4.2,-3.8 -0.3,-0.1 -0.7,-0.1 -1.2,0.4 z"
   id="path18"
   inkscape:connector-curvature="0"
   style="fill:#ffffff" />
		<path
   class="st2"
   d="m 418.4,5623.5 c -0.4,0 -0.9,0.2 -1.1,0.1 -1,-0.6 -1.7,0 -2.6,0.2 0.5,1.1 0.8,0.2 1.1,0 1,-0.1 1.9,1.1 3,0.1 -0.1,-0.1 -0.2,-0.4 -0.4,-0.4 z"
   id="path20"
   inkscape:connector-curvature="0"
   style="fill:#ffffff" />
		<path
   class="st2"
   d="m 421.4,5610.9 c 0,0.2 -0.1,0.4 -0.2,0.6 0.7,0 1.2,0 1.8,0 -0.1,-0.3 -0.1,-0.5 -0.2,-0.7 -0.5,-0.2 -1,-0.4 -1.4,-0.5 0.1,0.2 0.1,0.4 0,0.6 z"
   id="path22"
   inkscape:connector-curvature="0"
   style="fill:#ffffff" />
		<path
   class="st2"
   d="m 419.5,5624.3 c 0.2,0.2 0.5,0.4 0.7,0.5 0.6,-0.9 1.7,-0.5 2.6,-1.2 -1.2,0.1 -2.2,0.2 -3.1,0.3 -0.1,0 -0.1,0.2 -0.2,0.4 z"
   id="path24"
   inkscape:connector-curvature="0"
   style="fill:#ffffff" />
		<path
   class="st2"
   d="m 424.9,5602.8 c 1.2,0.8 1.2,0.8 2.1,-0.1 -0.8,-0.4 -0.8,-0.4 -2.1,0.1 z"
   id="path26"
   inkscape:connector-curvature="0"
   style="fill:#ffffff" />
	</g>
</g>
<g
   id="g34"
   transform="translate(-35.053835,-33.999999)">
	<text
   transform="translate(393.157,5668.8198)"
   class="st2"
   style="font-size:10px;font-family:Montserrat-Regular;fill:#ffffff"
   id="text32">PASSPORT</text>

</g>
<g
   id="g90"
   transform="translate(-17.053835,-35.999999)">
	<path
   class="st0"
   d="m 67.2,60.1 -26.4,4.1 c -1.6,0.3 -3.2,-0.9 -3.4,-2.5 L 35.1,46.4 C 34.8,44.8 36,43.2 37.6,43 L 64,38.9 c 1.6,-0.3 3.2,0.9 3.4,2.5 l 2.3,15.3 c 0.3,1.6 -0.8,3.1 -2.5,3.4 z"
   id="path36"
   inkscape:connector-curvature="0"
   style="fill:#00a9ce" />
	<g
   id="g40">
		
			<rect
   x="36.700001"
   y="45.599998"
   transform="matrix(0.9884,-0.1518,0.1518,0.9884,-6.6389,8.4304)"
   class="st2"
   width="30.4"
   height="4.0999999"
   id="rect38"
   style="fill:#ffffff" />
	</g>
	<g
   id="g46">
		<path
   class="st2"
   d="M 79,73.5 H 52.3 c -1.7,0 -3,-1.3 -3,-3 V 55 c 0,-1.6 1.3,-3 3,-3 H 79 c 1.6,0 3,1.4 3,3 v 15.5 c 0,1.6 -1.3,3 -3,3 z"
   id="path42"
   inkscape:connector-curvature="0"
   style="fill:#ffffff" />
		<path
   class="st0"
   d="M 79,74 H 52.3 c -1.9,0 -3.5,-1.6 -3.5,-3.5 V 55 c 0,-1.9 1.6,-3.5 3.5,-3.5 H 79 c 1.9,0 3.5,1.6 3.5,3.5 V 70.5 C 82.5,72.4 81,74 79,74 Z M 52.3,52.5 c -1.4,0 -2.5,1.1 -2.5,2.5 v 15.5 c 0,1.4 1.1,2.5 2.5,2.5 H 79 c 1.4,0 2.5,-1.1 2.5,-2.5 V 55 c 0,-1.4 -1.1,-2.5 -2.5,-2.5 z"
   id="path44"
   inkscape:connector-curvature="0"
   style="fill:#00a9ce" />
	</g>
	<g
   id="g52">
		<path
   class="st0"
   d="m 59.1,63.3 h -6.2 c -0.5,0 -1,-0.4 -1,-1 v -4.1 c 0,-0.5 0.5,-1 1,-1 h 6.2 c 0.6,0 1,0.5 1,1 v 4.1 c 0,0.5 -0.5,1 -1,1 z"
   id="path48"
   inkscape:connector-curvature="0"
   style="fill:#00a9ce" />
		<path
   class="st2"
   d="m 59.1,63.8 h -6.2 c -0.8,0 -1.5,-0.7 -1.5,-1.5 v -4.1 c 0,-0.8 0.7,-1.5 1.5,-1.5 h 6.2 c 0.8,0 1.5,0.7 1.5,1.5 v 4.1 c 0,0.8 -0.7,1.5 -1.5,1.5 z m -6.2,-6.2 c -0.3,0 -0.5,0.2 -0.5,0.5 v 4.1 c 0,0.3 0.2,0.5 0.5,0.5 h 6.2 c 0.3,0 0.5,-0.2 0.5,-0.5 v -4.1 c 0,-0.3 -0.2,-0.5 -0.5,-0.5 z"
   id="path50"
   inkscape:connector-curvature="0"
   style="fill:#ffffff" />
	</g>
	<g
   id="g58">
		<line
   class="st2"
   x1="51.900002"
   y1="66.599998"
   x2="56"
   y2="66.599998"
   id="line54"
   style="fill:#ffffff" />
		<path
   class="st0"
   d="m 56,67.1 h -4.1 c -0.3,0 -0.5,-0.2 -0.5,-0.5 0,-0.3 0.2,-0.5 0.5,-0.5 H 56 c 0.3,0 0.5,0.2 0.5,0.5 0,0.3 -0.2,0.5 -0.5,0.5 z"
   id="path56"
   inkscape:connector-curvature="0"
   style="fill:#00a9ce" />
	</g>
	<g
   id="g64">
		<line
   class="st2"
   x1="51.900002"
   y1="69.400002"
   x2="61.099998"
   y2="69.400002"
   id="line60"
   style="fill:#ffffff" />
		<path
   class="st0"
   d="m 61.1,69.9 h -9.2 c -0.3,0 -0.5,-0.2 -0.5,-0.5 0,-0.3 0.2,-0.5 0.5,-0.5 h 9.2 c 0.3,0 0.5,0.2 0.5,0.5 0,0.3 -0.2,0.5 -0.5,0.5 z"
   id="path62"
   inkscape:connector-curvature="0"
   style="fill:#00a9ce" />
	</g>
	<g
   id="g70">
		<line
   class="st2"
   x1="69.800003"
   y1="56.099998"
   x2="79"
   y2="56.099998"
   id="line66"
   style="fill:#ffffff" />
		<path
   class="st0"
   d="m 79,56.6 h -9.2 c -0.3,0 -0.5,-0.2 -0.5,-0.5 0,-0.3 0.2,-0.5 0.5,-0.5 H 79 c 0.3,0 0.5,0.2 0.5,0.5 0,0.3 -0.2,0.5 -0.5,0.5 z"
   id="path68"
   inkscape:connector-curvature="0"
   style="fill:#00a9ce" />
	</g>
	<g
   id="g76">
		<line
   class="st2"
   x1="59.400002"
   y1="66.599998"
   x2="63.5"
   y2="66.599998"
   id="line72"
   style="fill:#ffffff" />
		<path
   class="st0"
   d="m 63.5,67.1 h -4.1 c -0.3,0 -0.5,-0.2 -0.5,-0.5 0,-0.3 0.2,-0.5 0.5,-0.5 h 4.1 c 0.3,0 0.5,0.2 0.5,0.5 0,0.3 -0.2,0.5 -0.5,0.5 z"
   id="path74"
   inkscape:connector-curvature="0"
   style="fill:#00a9ce" />
	</g>
	<g
   id="g82">
		<line
   class="st2"
   x1="66.900002"
   y1="66.599998"
   x2="71"
   y2="66.599998"
   id="line78"
   style="fill:#ffffff" />
		<path
   class="st0"
   d="m 71,67.1 h -4.1 c -0.3,0 -0.5,-0.2 -0.5,-0.5 0,-0.3 0.2,-0.5 0.5,-0.5 H 71 c 0.3,0 0.5,0.2 0.5,0.5 0,0.3 -0.3,0.5 -0.5,0.5 z"
   id="path80"
   inkscape:connector-curvature="0"
   style="fill:#00a9ce" />
	</g>
	<g
   id="g88">
		<line
   class="st2"
   x1="74.400002"
   y1="66.599998"
   x2="78.5"
   y2="66.599998"
   id="line84"
   style="fill:#ffffff" />
		<path
   class="st0"
   d="m 78.5,67.1 h -4.1 c -0.3,0 -0.5,-0.2 -0.5,-0.5 0,-0.3 0.2,-0.5 0.5,-0.5 h 4.1 c 0.3,0 0.5,0.2 0.5,0.5 0,0.3 -0.3,0.5 -0.5,0.5 z"
   id="path86"
   inkscape:connector-curvature="0"
   style="fill:#00a9ce" />
	</g>
</g>
</svg>