<?xml version="1.0" encoding="utf-8"?>
<!-- Generator: Adobe Illustrator 23.0.0, SVG Export Plug-In . SVG Version: 6.00 Build 0)  -->
<svg version="1.1" id="Layer_1" xmlns="http://www.w3.org/2000/svg" xmlns:xlink="http://www.w3.org/1999/xlink" x="0px" y="0px"
	 viewBox="0 0 120.2 120.2" style="enable-background:new 0 0 120.2 120.2;" xml:space="preserve">
<style type="text/css">
	.st0{fill:#00A9CE;}
	.st1{fill:#00A9CE;stroke:#FFFFFF;stroke-linecap:round;stroke-linejoin:round;stroke-miterlimit:10;}
	.st2{fill:#FFFFFF;}
	.st3{fill:#3D3D3D;}
</style>
<title>packages</title>
<path class="st0" d="M453.1,5589.6v93c0,1.7-1.3,3-3,3h-60c-1.7,0-3-1.3-3-3v-93c0-1.7,1.3-3,3-3h60
	C451.8,5586.6,453.1,5587.9,453.1,5589.6z"/>
<g>
	
		<ellipse transform="matrix(0.9699 -0.2435 0.2435 0.9699 -1356.6122 271.5598)" class="st1" cx="420.1" cy="5623" rx="22.5" ry="22"/>
	<g>
		<path class="st2" d="M401.3,5612.5c-0.1,0.4,0.2,0.9,0.3,1.3c0.1,0.5-0.1,1,0,1.4c0.3,1.1,0.3,1.1,0.1,2c0,0.2,0,0.3-0.1,0.5
			c-0.1,1.1-0.2,2.2,0.6,3.2c0.4,0.6,1,0.6,1.4,1.1c0.1,0.3,0.2,0.7,0.2,1c0,0.3,0.8,0.4,0.4,0.8c0.3,0.2,0.7,0.3,1,0.5
			c0-0.2,0-0.5-0.1-1c0.3,0.2,0.5,0.3,0.7,0.5c0.4,0.4,0.7,0.8,1.1,1.2c0.4,0.4,1,0.6,0.7,1.3c1.1,0.6,2.2,1.2,3.6,1
			c0.6-0.1,1.2-0.3,1.8,0.2c0.3,0.3,0.8,0.3,1.2,0.4c0.1,0,0.2-0.2,0.4-0.3c2,1.8,2,1.8,4.3,1c0-0.1,0-0.2,0-0.2c-0.3,0-0.7,0-1,0.1
			c-1.1,0-1.3-0.2-1.5-1.3c-0.1-0.3-0.3-0.6-0.5-0.9c-0.7,0.1-1.2,0.2-1.8,0.3c0.1-0.8,0.1-1.4,0.2-2.1c-0.4,0.1-0.8,0.2-1.1,0.3
			c-0.2,0.5-0.1,1.1-0.8,1.3c-0.8,0.2-1.2-0.2-1.7-0.5c-0.2-0.9-0.5-1.8-0.7-2.7c1-1.2,1-1.2,2.4-1.2c0-0.2,0-0.4,0.1-0.8
			c0.7,0,1.5,0,2.1-0.1c0.6,0.6,1.1,1.2,1.6,1.8c0.2-1.1-0.6-1.7-0.9-2.7c0.4-0.5,0.9-1,1.3-1.6c0.4-0.5,0.4-0.6-0.3-1.4
			c0.2-0.2,0.6-0.4,0.7-0.7c0.1-0.8,0.7-1.1,1.2-1.5c0-0.3-0.1-0.5-0.1-0.8c0.4-0.2,0.8-0.4,1.2-0.6c0.1,0.2,0.2,0.4,0.3,0.6
			c0.6-0.6,1.1-1.1,1.7-1.6c-0.1-0.1-0.1-0.2-0.2-0.2c-0.3,0.2-0.6,0.4-0.9,0.7c-0.2-0.2-0.5-0.3-0.9-0.6c0.5-0.6,0.9-1,1.2-1.5
			c0.3-0.6,1-0.7,1.3-1.1c-0.5-0.6-1-0.8-1.7-0.9c-0.5,0-0.9-0.2-1.2-0.7c-0.2-0.3-0.4-0.5-0.7-0.7c-0.1-0.1-0.3-0.1-0.5-0.1
			c-0.1,0.3-0.2,0.6-0.3,1c-1.1-0.3-1.7-2.1-3.1-1.1c0.1,0.7-0.3,1.4,0.4,2c0.1,0.1,0.1,0.4,0.1,0.5c-0.7,0.6-0.2,1.4-0.3,2
			c-1.2,0.2-1-0.9-1.3-1.4c-0.6,0-1,0.1-1.4,0c-0.4-0.1-0.8-0.3-1.2-0.4c-0.4-0.2-0.5-0.6-0.4-1c0.2-0.7,0.8-1.1,1.1-1.7
			c0.1-0.4,0.8,0,1.2,0c0.3,0,0.6-0.1,1.3-0.3c-0.6-0.2-1-0.4-1.2-0.5c0.2-0.4,0.4-0.7,0.5-1c0.4-1.2,0.6-1.3,1.6-0.7
			c0.2,0.1,0.3,0.2,0.5,0.3c-0.4,0.5-0.7,0.9-1.1,1.4c1.2-0.2,1.2-0.2,2.5,0.6c0.3-0.3,0.6-0.5,0.9-0.8c-0.2-0.2-0.3-0.3-0.5-0.5
			c0.2-0.4,0.3-0.7,0.5-1c-1.4-0.6-2.6-1.1-3.8-1.7c-0.7,0.1-1.2,0.2-1.8,0.4c0-0.1,0-0.2-0.1-0.3c0.5-0.1,1.1-0.3,1.5-0.4
			c0.1-0.3,0.2-0.5,0.3-0.7c-0.3,0.1-0.6,0.2-0.9,0.3c0,0.1,0.1,0.1,0.1,0.2c-0.3,0-0.6,0-0.8,0c-0.5,0.2-0.9,0.4-1.4,0.6
			c-0.2,0.4-0.5,0.7-0.7,1.1c0.2,0.3,0.4,0.5,0.8,1.1c-0.7-0.2-1-0.3-1.3-0.4c0.1-0.3,0.1-0.6,0.2-0.8c-0.3-0.1-0.5-0.1-0.8-0.2
			c-0.7,0.4-1.3,0.8-1.9,1.3c0.2,0,0.3,0.1,0.5,0.1c-0.2,0.3-0.3,0.4-0.4,0.6c-0.2-0.1-0.5-0.2-0.7-0.2c-2,1.6-3.8,3.5-5.2,5.6
			C401.3,5611.7,401.4,5612,401.3,5612.5z M411.5,5603.9c0.3,0.4,0.6,0.9,0.9,1.3c-0.1,0.1-0.2,0.2-0.3,0.3c-0.5-0.4-1-0.8-1.6-1.3
			C410.9,5604.1,411.2,5604,411.5,5603.9z"/>
		<path class="st2" d="M415.3,5601.9c0.6-0.2,1.2-0.1,1.7,0.5c0.4,0.4,1.1,0.3,1.5,0.8c0.1,0.1,0.3,0,0.5,0
			c-0.1,0.2-0.2,0.4-0.3,0.8c0.6,0.2,1.4,0.3,1.7,0.7c0.7,1,1.7,1.2,3.1,1.2c-0.3-0.4-0.7-0.8-0.7-1c0.1-0.5,0.3-0.8-0.4-1
			c0.2-0.2,0.4-0.3,0.6-0.5c-0.1-0.2-0.1-0.5-0.2-0.7c0.1-0.1,0.3-0.1,0.4-0.2c0.1-0.1,0.1-0.3,0.2-0.5c-0.4-0.1-0.8-0.2-1.1-0.5
			c-0.1-0.1-0.2-0.2-0.3-0.3c-2.4-0.2-4.8,0-7.2,0.6c-0.1,0-0.2,0-0.2,0.1C414.7,5601.9,415,5602,415.3,5601.9z"/>
		<path class="st2" d="M427.3,5641.6c0.4-0.2,0.6-0.5,0.7-0.8c0.1-0.2,0.1-0.4,0.2-0.5c1.2-0.5,1.8-1.6,2.1-2.8
			c0.2-0.7,0.7-1.1,1.2-1.2c1.1-0.3,1.3-1.1,1.6-1.9c0.4-1.3,0.7-2.7,1.6-3.8c0,0,0.1-0.1,0.1-0.1c0-0.3,0-0.5,0-0.9
			c-0.7,0.1-1.2-0.7-1.9-0.4c-0.7,0.3-1.3,0.1-1.9-0.1c-0.2-0.1-0.5,0.2-0.9,0.3c-0.4-0.6-0.9-1.2-1.5-1.9c-0.6,0-1.3,0-2.1,0
			c-0.8-0.4-1.7-0.7-2.6-1.1c-0.3,0.3-0.4,0.6-1,0.5c-0.6-0.2-1.4-0.5-2,0.3c-0.1-0.2-0.2-0.4-0.3-0.6c-0.3,0.4-0.4,1-1,1
			c-0.7,0.1,0,1.2-0.8,1.3c0.2,0.6,0.3,1.2,0.5,2.1c-0.3,0.4-0.6,1-1,1.6c0.6,0.4,0.1,1.1,0.3,1.5c0.6,0.4,1.2,0.8,1.7,1.2
			c0.5,0.4,0.8,0.9,1.3,1.2c0.5,0.3,1.2,0.5,1.7,0.7c0.6,1.9,0.8,3.6,0.4,5.4c0.1,0.2,0.4,0.4,0.4,0.6c0,0.5,0,1,0.1,1.5
			c0,0.1,0,0.2,0,0.2c0.4-0.1,0.7-0.2,1.1-0.3c0.1,0,0.2,0,0.2-0.1C426,5643.3,426.3,5642.3,427.3,5641.6z"/>
		<path class="st2" d="M438.4,5611.6c-0.7,0.6-0.7,1.3-0.5,2c0.1,0.3,0.2,0.7,0.1,1c-0.4,1.3,0,2.6-0.4,4c0.3,0,0.5,0,0.8,0
			c0.1,0.7,0.5,1.2,0.1,1.9c-0.1,0.2,0,0.8,0.2,1c1.1,0.6,1.1,2,2.2,2.4c0.5-0.4,1-0.8,1.6-1.2c0-1.7-0.2-3.4-0.7-5.1
			c-0.6-2.5-1.7-4.8-3.1-6.9c0,0-0.1,0-0.1,0C438.7,5610.9,438.6,5611.4,438.4,5611.6z"/>
		<path class="st2" d="M431.9,5605.4c0.3,0.3,0.5,0.7,0.7,0.9c0.8,0,1.4,0.1,2.2,0.1c-0.1,0.4-0.1,0.6-0.3,1.2
			c0.5,0.3,1.1,0.6,1.7,0.9c-0.2,0.3-0.5,0.6-0.7,0.8c0.5,0.8,0.8,1.4,1.2,2.1c0.3,0.1,0.7,0.1,1.2,0.2c-0.2-0.6,0.6-1.2-0.3-1.7
			c0-0.4-0.2-0.7-0.3-1.1c-1.2-1.4-2.6-2.7-4.2-3.8C432.8,5604.9,432.4,5604.9,431.9,5605.4z"/>
		<path class="st2" d="M418.4,5623.5c-0.4,0-0.9,0.2-1.1,0.1c-1-0.6-1.7,0-2.6,0.2c0.5,1.1,0.8,0.2,1.1,0c1-0.1,1.9,1.1,3,0.1
			C418.7,5623.8,418.6,5623.5,418.4,5623.5z"/>
		<path class="st2" d="M421.4,5610.9c0,0.2-0.1,0.4-0.2,0.6c0.7,0,1.2,0,1.8,0c-0.1-0.3-0.1-0.5-0.2-0.7c-0.5-0.2-1-0.4-1.4-0.5
			C421.5,5610.5,421.5,5610.7,421.4,5610.9z"/>
		<path class="st2" d="M419.5,5624.3c0.2,0.2,0.5,0.4,0.7,0.5c0.6-0.9,1.7-0.5,2.6-1.2c-1.2,0.1-2.2,0.2-3.1,0.3
			C419.6,5623.9,419.6,5624.1,419.5,5624.3z"/>
		<path class="st2" d="M424.9,5602.8c1.2,0.8,1.2,0.8,2.1-0.1C426.2,5602.3,426.2,5602.3,424.9,5602.8z"/>
	</g>
</g>
<g>
	<text transform="matrix(1 0 0 1 393.157 5668.8198)" class="st2" style="font-family:'Montserrat-Regular'; font-size:10px;">PASSPORT</text>
</g>
<g>
	<path class="st0" d="M111.2,31.5c0-1.2-1-2.2-2.2-2.2H14.4c-1.2,0-2.2,1-2.2,2.2v18.6h99V31.5z"/>
</g>
<path class="st0" d="M108.2,95.3h-93c-1.9,0-3.5-1.6-3.5-3.5v-60c0-1.9,1.6-3.5,3.5-3.5h93c1.9,0,3.5,1.6,3.5,3.5v60
	C111.7,93.7,110.1,95.3,108.2,95.3z M15.2,29.3c-1.4,0-2.5,1.1-2.5,2.5v60c0,1.4,1.1,2.5,2.5,2.5h93c1.4,0,2.5-1.1,2.5-2.5v-60
	c0-1.4-1.1-2.5-2.5-2.5H15.2z"/>
<g>
	<g>
		<path class="st2" d="M23.6,42.7v-7h1.2v7H23.6z"/>
		<path class="st2" d="M29.5,35.7c2.1,0,3.6,1.5,3.6,3.5c0,2-1.5,3.5-3.6,3.5h-2.8v-7H29.5z M27.8,41.6h1.7c1.4,0,2.4-1,2.4-2.4
			c0-1.4-1.1-2.4-2.4-2.4h-1.7V41.6z"/>
		<path class="st2" d="M35.5,36.8v1.9h3.4v1.1h-3.4v1.9h3.9v1.1h-5.1v-7h5v1.1H35.5z"/>
		<path class="st2" d="M45.8,42.7l-3.7-5v5h-1.2v-7h1.2l3.7,5v-5H47v7H45.8z"/>
		<path class="st2" d="M51.4,36.8v5.9h-1.2v-5.9H48v-1.1h5.6v1.1H51.4z"/>
		<path class="st2" d="M54.6,42.7v-7h1.2v7H54.6z"/>
		<path class="st2" d="M60.2,36.8v5.9H59v-5.9h-2.2v-1.1h5.6v1.1H60.2z"/>
		<path class="st2" d="M66.3,42.7h-1.2v-2.3l-2.6-4.7h1.2l2,3.4l2-3.4h1.2l-2.6,4.7V42.7z"/>
		<path class="st2" d="M78.1,36.8l-0.7,0.9c-0.5-0.5-1.2-0.9-1.9-0.9c-1.4,0-2.5,1.1-2.5,2.5c0,1.4,1.1,2.5,2.5,2.5
			c0.7,0,1.4-0.3,1.9-0.8l0.7,0.8c-0.7,0.7-1.7,1.1-2.7,1.1c-2,0-3.6-1.5-3.6-3.6c0-2,1.6-3.5,3.7-3.5
			C76.5,35.7,77.4,36.1,78.1,36.8z"/>
		<path class="st2" d="M80.3,41.1l-0.7,1.6h-1.2l3.1-7h1.2l3.1,7h-1.3l-0.7-1.6H80.3z M82,37l-1.3,3.1h2.6L82,37z"/>
		<path class="st2" d="M89.8,40.6c-0.1,0-0.2,0-0.3,0h-1.7v2.1h-1.2v-7h2.8c1.8,0,2.8,0.9,2.8,2.4c0,1.1-0.5,1.9-1.4,2.3l1.6,2.3
			h-1.3L89.8,40.6z M89.5,39.5c1.1,0,1.7-0.5,1.7-1.4c0-0.9-0.6-1.4-1.7-1.4h-1.7v2.8H89.5z"/>
		<path class="st2" d="M96.8,35.7c2.1,0,3.6,1.5,3.6,3.5c0,2-1.5,3.5-3.6,3.5h-2.8v-7H96.8z M95.1,41.6h1.7c1.4,0,2.4-1,2.4-2.4
			c0-1.4-1.1-2.4-2.4-2.4h-1.7V41.6z"/>
	</g>
</g>
<g>
	<path class="st0" d="M31.1,87.5c0,2.3-1,3.5-2.9,3.5c-1.9,0-2.9-1.3-2.9-3.5s1-3.5,2.9-3.5C30,84,31.1,85.2,31.1,87.5z M26.1,87.5
		c0,1.9,0.7,2.8,2.1,2.8s2.1-1,2.1-2.8c0-1.9-0.7-2.8-2.1-2.8S26.1,85.6,26.1,87.5z"/>
	<path class="st0" d="M37.9,87.5c0,2.3-1,3.5-2.9,3.5c-1.9,0-2.9-1.3-2.9-3.5s1-3.5,2.9-3.5C36.9,84,37.9,85.2,37.9,87.5z
		 M32.9,87.5c0,1.9,0.7,2.8,2.1,2.8s2.1-1,2.1-2.8c0-1.9-0.7-2.8-2.1-2.8S32.9,85.6,32.9,87.5z"/>
	<path class="st0" d="M44.7,87.5c0,2.3-1,3.5-2.9,3.5C40,91,39,89.7,39,87.5s1-3.5,2.9-3.5C43.7,84,44.7,85.2,44.7,87.5z M39.8,87.5
		c0,1.9,0.7,2.8,2.1,2.8s2.1-1,2.1-2.8c0-1.9-0.7-2.8-2.1-2.8S39.8,85.6,39.8,87.5z"/>
	<path class="st0" d="M54.3,87.5c0,2.3-1,3.5-2.9,3.5c-1.9,0-2.9-1.3-2.9-3.5s1-3.5,2.9-3.5C53.3,84,54.3,85.2,54.3,87.5z
		 M49.3,87.5c0,1.9,0.7,2.8,2.1,2.8s2.1-1,2.1-2.8c0-1.9-0.7-2.8-2.1-2.8S49.3,85.6,49.3,87.5z"/>
	<path class="st0" d="M61.2,87.5c0,2.3-1,3.5-2.9,3.5c-1.9,0-2.9-1.3-2.9-3.5s1-3.5,2.9-3.5C60.1,84,61.2,85.2,61.2,87.5z
		 M56.2,87.5c0,1.9,0.7,2.8,2.1,2.8s2.1-1,2.1-2.8c0-1.9-0.7-2.8-2.1-2.8S56.2,85.6,56.2,87.5z"/>
	<path class="st0" d="M68,87.5c0,2.3-1,3.5-2.9,3.5c-1.9,0-2.9-1.3-2.9-3.5s1-3.5,2.9-3.5C67,84,68,85.2,68,87.5z M63,87.5
		c0,1.9,0.7,2.8,2.1,2.8s2.1-1,2.1-2.8c0-1.9-0.7-2.8-2.1-2.8S63,85.6,63,87.5z"/>
	<path class="st0" d="M77.6,87.5c0,2.3-1,3.5-2.9,3.5c-1.9,0-2.9-1.3-2.9-3.5s1-3.5,2.9-3.5C76.5,84,77.6,85.2,77.6,87.5z
		 M72.6,87.5c0,1.9,0.7,2.8,2.1,2.8s2.1-1,2.1-2.8c0-1.9-0.7-2.8-2.1-2.8S72.6,85.6,72.6,87.5z"/>
	<path class="st0" d="M84.4,87.5c0,2.3-1,3.5-2.9,3.5c-1.9,0-2.9-1.3-2.9-3.5s1-3.5,2.9-3.5C83.4,84,84.4,85.2,84.4,87.5z
		 M79.4,87.5c0,1.9,0.7,2.8,2.1,2.8s2.1-1,2.1-2.8c0-1.9-0.7-2.8-2.1-2.8S79.4,85.6,79.4,87.5z"/>
	<path class="st0" d="M91.3,87.5c0,2.3-1,3.5-2.9,3.5c-1.9,0-2.9-1.3-2.9-3.5s1-3.5,2.9-3.5C90.2,84,91.3,85.2,91.3,87.5z
		 M86.3,87.5c0,1.9,0.7,2.8,2.1,2.8s2.1-1,2.1-2.8c0-1.9-0.7-2.8-2.1-2.8S86.3,85.6,86.3,87.5z"/>
	<path class="st0" d="M98.1,87.5c0,2.3-1,3.5-2.9,3.5c-1.9,0-2.9-1.3-2.9-3.5s1-3.5,2.9-3.5C97.1,84,98.1,85.2,98.1,87.5z
		 M93.1,87.5c0,1.9,0.7,2.8,2.1,2.8s2.1-1,2.1-2.8c0-1.9-0.7-2.8-2.1-2.8S93.1,85.6,93.1,87.5z"/>
</g>
<g>
	<path class="st0" d="M40.8,53.3c3.2,0,5.9,2.6,5.9,5.9c0,3.2-2.6,5.9-5.9,5.9c-3.2,0-5.9-2.6-5.9-5.9c0,0,0,0,0,0
		C34.9,55.9,37.6,53.3,40.8,53.3"/>
	<path class="st0" d="M45.3,68c0.7,0,1.3,0.4,1.6,0.9l3,6c1,1.9,0.2,4.2-1.7,5.1c-0.5,0.3-1.1,0.4-1.7,0.4H35.2
		c-2.1,0-3.8-1.7-3.8-3.8c0-0.6,0.1-1.2,0.4-1.7l3-6c0.3-0.6,0.9-1,1.6-1L45.3,68"/>
	<path class="st3" d="M92,67.5H64.3c-0.3,0-0.5-0.2-0.5-0.5s0.2-0.5,0.5-0.5H92c0.3,0,0.5,0.2,0.5,0.5S92.3,67.5,92,67.5z"/>
	<path class="st3" d="M92,73.5H64.3c-0.3,0-0.5-0.2-0.5-0.5s0.2-0.5,0.5-0.5H92c0.3,0,0.5,0.2,0.5,0.5S92.3,73.5,92,73.5z"/>
	<path class="st3" d="M92,61.2H64.3c-0.3,0-0.5-0.2-0.5-0.5s0.2-0.5,0.5-0.5H92c0.3,0,0.5,0.2,0.5,0.5S92.3,61.2,92,61.2z"/>
</g>
</svg>
