<?xml version="1.0" encoding="utf-8"?>
<!-- Generator: Adobe Illustrator 22.1.0, SVG Export Plug-In . SVG Version: 6.00 Build 0)  -->
<svg version="1.1" xmlns="http://www.w3.org/2000/svg" xmlns:xlink="http://www.w3.org/1999/xlink" x="0px" y="0px"
	 viewBox="0 0 336.7 303.9" style="enable-background:new 0 0 336.7 303.9;" xml:space="preserve">
<style type="text/css">
	.st0{fill:#4C4B4B;}
	.st1{fill:#5E5D5D;}
	.st2{fill:#3F3B39;}
	.st3{fill:#F6F6F6;}
	.st4{fill:#888888;}
	.st5{fill:#ACD7F2;}
	.st6{fill:#FFFFFF;}
	.st7{fill:#EDEEEE;}
	.st8{fill:#DCDCDC;}
	.st9{fill:#2EA7E0;}
	.st10{fill:#00AAD0;}
	.st11{fill:#929090;}
	.st12{fill:#78CDE7;stroke:#156081;stroke-width:0.5;stroke-linecap:round;stroke-linejoin:round;stroke-miterlimit:10;}
	.st13{fill:#A7003D;}
	.st14{fill:#D60051;}
	.st15{fill:#BF2345;}
	.st16{fill:#252221;}
	.st17{fill:#595757;}
	.st18{fill:#9E9EA0;}
	.st19{fill:#C8C8C9;}
	.st20{fill:#F29600;}
	.st21{fill:#F7B52D;}
	.st22{fill:#EA5515;}
	.st23{fill:#045993;}
	.st24{fill:#066EB7;}
	.st25{fill:#0462A4;}
	.st26{fill:#C30E24;}
	.st27{fill:#156081;}
	.st28{fill:#0D435D;}
	.st29{fill:#980C22;}
	.st30{fill:none;stroke:#000000;stroke-miterlimit:10;}
	.st31{fill:#FFFFFF;stroke:#00A9CE;stroke-linecap:round;stroke-linejoin:round;stroke-miterlimit:10;}
	.st32{fill:#00A9CE;}
	.st33{fill:#B2CC46;}
	.st34{fill:#FCD89F;}
	.st35{fill:#331907;}
	.st36{fill:#BA8663;}
	.st37{fill:#3A1E0A;}
	.st38{fill:#605F6D;}
	.st39{fill:#7FA5B2;}
	.st40{fill:#C6A273;}
	.st41{fill:#AACC42;}
	.st42{fill:#FFD4AE;}
	.st43{fill:#3C313F;}
	.st44{fill:#B71C1C;}
	.st45{fill:#968D81;}
	.st46{fill:#C93131;}
	.st47{fill:#EFEAE4;}
	.st48{fill:#C68E75;}
	.st49{fill:#AA3131;}
	.st50{fill:#AA3570;}
	.st51{fill:#91B3BC;}
	.st52{fill:#A37246;}
	.st53{fill:#4C414F;}
	.st54{fill:#6D4524;}
	.st55{fill:#B5AC9E;}
	.st56{fill:#6BA534;}
	.st57{fill:#FFCC99;}
	.st58{fill:#473224;}
	.st59{fill:#597A1A;}
	.st60{fill:#93867C;}
	.st61{opacity:0.6;fill:#CC9A75;enable-background:new    ;}
	.st62{fill:#E0AA79;}
	.st63{fill:#8E5A46;}
	.st64{fill:#D66A18;}
	.st65{fill:#994710;}
	.st66{fill:#D67B30;}
	.st67{fill:#66666D;}
	.st68{fill:#9B6937;}
	.st69{fill:#F9D45F;}
	.st70{opacity:0.35;fill:#00A9CE;enable-background:new    ;}
	.st71{opacity:0.66;fill:#00A9CE;enable-background:new    ;}
	.st72{opacity:0.95;fill:#00A9CE;enable-background:new    ;}
	.st73{opacity:0.79;fill:#00A9CE;enable-background:new    ;}
	.st74{opacity:0.47;fill:#00A9CE;enable-background:new    ;}
	.st75{opacity:0.15;}
	.st76{fill:#070707;}
	.st77{opacity:0.5;fill:#070707;enable-background:new    ;}
	.st78{opacity:7.000000e-02;fill:#070707;enable-background:new    ;}
	.st79{fill:#FFFFFF;stroke:#D3D3D3;stroke-miterlimit:10;}
	.st80{fill:#EDEDEF;}
	.st81{opacity:0.5;fill:#A0B5AC;enable-background:new    ;}
	.st82{fill:#333333;}
	.st83{fill:#8ED1EB;}
	.st84{opacity:7.000000e-02;enable-background:new    ;}
	.st85{fill:none;stroke:#FFFFFF;stroke-width:0.19;stroke-miterlimit:10;}
	.st86{opacity:0.3;fill:#070707;enable-background:new    ;}
	.st87{fill:#C4C7D8;}
	.st88{fill:#C9905C;}
	.st89{fill:#EABD8D;}
	.st90{fill:#A5714E;}
	.st91{fill:#4A2808;}
	.st92{opacity:0.3;fill:#FFFFFF;enable-background:new    ;}
	.st93{fill:#C4925C;}
	.st94{fill:#EABC8C;}
	.st95{fill:#945C49;}
	.st96{fill:#AF784A;}
	.st97{fill:#A5714F;}
	.st98{fill:#BF8D5E;}
	.st99{fill:#242E3F;}
	.st100{fill:#364765;}
	.st101{fill:#5A82AB;}
	.st102{fill:#8E745D;}
	.st103{fill:#1F272D;}
	.st104{fill:#67CDF1;}
	.st105{fill:#19C2ED;}
	.st106{fill:#767676;}
	.st107{fill:#0391C5;}
	.st108{fill:#DB4B42;}
	.st109{fill:#F1D418;}
	.st110{fill:#3AB986;}
	.st111{fill:#98989A;}
	.st112{fill:#D2A06F;}
	.st113{fill:#BD9700;}
	.st114{fill:#876C00;}
	.st115{fill:#693319;}
	.st116{fill:#1B507B;}
	.st117{fill:#D9D9D9;}
	.st118{fill:#606060;}
	.st119{fill:#F6CA9F;}
	.st120{fill:#91633E;}
	.st121{fill:#FF6600;}
	.st122{fill:#CF5200;}
	.st123{fill:#353535;}
	.st124{fill:#9E3E00;}
	.st125{fill:#CCCCCC;}
	.st126{fill:#666666;}
	.st127{fill:url(#SVGID_1_);}
	.st128{fill:url(#SVGID_2_);}
	.st129{fill:#FDA972;}
	.st130{fill:#FFD9B5;}
	.st131{fill:url(#SVGID_3_);}
	.st132{fill:url(#SVGID_4_);}
	.st133{fill:url(#SVGID_5_);}
	.st134{fill:#F3CDAA;}
	.st135{fill:#FFF6ED;}
	.st136{fill:url(#SVGID_6_);}
	.st137{fill:#E1E1E1;}
	.st138{fill:url(#SVGID_7_);}
	.st139{fill:url(#SVGID_8_);}
	.st140{fill:#9E6C42;}
	.st141{fill:#E3E3E3;}
	.st142{fill:#C3C2C2;}
	.st143{fill:#CC0000;}
	.st144{fill:#990000;}
	.st145{fill:#FFCC00;}
	.st146{fill:#E4B600;}
	.st147{fill:#969696;}
	.st148{fill:#737373;}
	.st149{fill:#EA0000;}
	.st150{fill:#FF1010;}
	.st151{fill:#A30000;}
	.st152{fill:#5D5D5D;}
	.st153{fill:#858585;}
	.st154{fill:#CED8D8;}
	.st155{fill:#ABCDDD;}
	.st156{fill:#E6E3DE;}
	.st157{fill:#1A1D22;}
	.st158{fill:#BA6336;}
	.st159{fill:#93432C;}
	.st160{fill:#E2A472;}
	.st161{fill:#3D7795;}
	.st162{fill:#CA895C;}
	.st163{fill:#A25E36;}
	.st164{fill:#88472D;}
	.st165{fill:#683325;}
	.st166{fill:#8A4A28;}
	.st167{fill:#7C8884;}
	.st168{fill:#934C36;}
	.st169{fill:#E5AB60;}
	.st170{fill:#BB753D;}
	.st171{fill:#CAD1D9;}
	.st172{opacity:0.6;fill:#DBA98E;enable-background:new    ;}
	.st173{fill:#708895;}
	.st174{opacity:0.2;fill:#89949B;enable-background:new    ;}
	.st175{fill:#758190;}
	.st176{fill:#F2B136;}
	.st177{fill:#E3912F;}
	.st178{fill:#363D48;}
	.st179{fill:#4F566B;}
	.st180{fill:#FCCF8E;}
	.st181{fill:#D8874F;}
	.st182{fill:#843B2F;}
	.st183{fill:#9A3933;}
	.st184{fill:#0497AF;}
	.st185{fill:#98B3C5;}
	.st186{fill-rule:evenodd;clip-rule:evenodd;fill:#FABF61;}
	.st187{fill-rule:evenodd;clip-rule:evenodd;fill:#F5B382;}
	.st188{fill-rule:evenodd;clip-rule:evenodd;fill:#E3A370;}
	.st189{fill-rule:evenodd;clip-rule:evenodd;fill:#F0DBB8;}
	.st190{fill-rule:evenodd;clip-rule:evenodd;fill:#E6E6E6;}
	.st191{fill-rule:evenodd;clip-rule:evenodd;}
	.st192{fill-rule:evenodd;clip-rule:evenodd;fill:#895531;}
	.st193{fill:#FFFFFF;stroke:#000000;stroke-width:4;stroke-miterlimit:10;}
	.st194{fill:#F4F4F4;}
	.st195{fill:none;stroke:#FFFFFF;stroke-width:8;stroke-linecap:round;stroke-linejoin:round;stroke-miterlimit:10;}
	.st196{fill:#F5B382;}
	.st197{fill:#475769;}
	.st198{fill:#F05B4C;}
	.st199{fill:#9CA8B5;}
	.st200{fill:#D7D7D7;}
	.st201{fill:#828C95;}
	.st202{fill:#5B6975;}
	.st203{fill:#A89B7A;}
	.st204{fill:#D6D6D6;}
	.st205{fill:#AEB8A5;}
	.st206{fill:#F5A8B3;}
	.st207{fill:#9EBEA2;}
	.st208{fill:#B4CDB8;}
	.st209{fill:#F8BCC3;}
	.st210{fill:#ECABB3;}
	.st211{fill:#E7D3CE;}
	.st212{fill:#D8C8BB;}
	.st213{fill:#946C5E;}
	.st214{fill:#A88774;}
	.st215{fill:#E96058;}
	.st216{fill:#F79C98;}
	.st217{fill:#F07C78;}
	.st218{fill:#D9C9BA;}
	.st219{fill:#E1D7CD;}
	.st220{fill:#9F8A75;}
	.st221{fill:#816549;}
	.st222{fill:#F5A788;}
	.st223{fill:#F38961;}
	.st224{fill:#D19278;}
	.st225{fill:#F7A588;}
	.st226{fill:#414141;}
	.st227{fill:#DBF0FA;}
	.st228{fill:#0B0B0B;}
	.st229{fill:#D2EBF7;}
	.st230{fill:#929292;}
	.st231{clip-path:url(#SVGID_10_);}
	.st232{fill:#E6CC80;}
	.st233{fill:#C2AB5C;}
	.st234{opacity:0.5;fill:#FFFFFF;enable-background:new    ;}
	.st235{fill-rule:evenodd;clip-rule:evenodd;fill:#CC8575;}
	.st236{fill-rule:evenodd;clip-rule:evenodd;fill:#AB6154;}
	.st237{fill-rule:evenodd;clip-rule:evenodd;fill:#F0A696;}
	.st238{fill-rule:evenodd;clip-rule:evenodd;fill:#CCCCCC;}
	.st239{fill-rule:evenodd;clip-rule:evenodd;fill:#666666;}
	.st240{fill-rule:evenodd;clip-rule:evenodd;fill:#2E5273;}
	.st241{fill-rule:evenodd;clip-rule:evenodd;fill:#698099;}
	.st242{fill-rule:evenodd;clip-rule:evenodd;fill:#ABABAB;}
	.st243{fill-rule:evenodd;clip-rule:evenodd;fill:#454545;}
	.st244{fill-rule:evenodd;clip-rule:evenodd;fill:#D19161;}
	.st245{fill-rule:evenodd;clip-rule:evenodd;fill:#EDC9C2;}
	.st246{fill-rule:evenodd;clip-rule:evenodd;fill:#361200;}
	.st247{fill-rule:evenodd;clip-rule:evenodd;fill:#57331A;}
	.st248{fill-rule:evenodd;clip-rule:evenodd;fill:#3B210F;}
	.st249{fill-rule:evenodd;clip-rule:evenodd;fill:#FFFFFF;}
	.st250{fill-rule:evenodd;clip-rule:evenodd;fill:#4F7396;}
	.st251{fill-rule:evenodd;clip-rule:evenodd;fill:#8AA3BA;}
	.st252{fill:#403D3C;}
	.st253{fill:#F7F7F7;}
	.st254{fill:#B9D7F2;}
	.st255{fill:#EEEFEF;}
	.st256{fill:#65A6DE;}
	.st257{fill:#919090;}
	.st258{fill:#96CDE6;stroke:#3A6080;stroke-width:0.5;stroke-linecap:round;stroke-linejoin:round;stroke-miterlimit:10;}
	.st259{fill:#8F003E;}
	.st260{fill:#B80050;}
	.st261{fill:#C54354;}
	.st262{fill:#292726;}
	.st263{fill:#595858;}
	.st264{fill:#9E9E9F;}
	.st265{fill:#DD9610;}
	.st266{fill:#E7B53E;}
	.st267{fill:#CD5621;}
	.st268{fill:#335991;}
	.st269{fill:#3F6EB4;}
	.st270{fill:#3862A1;}
	.st271{fill:#A71628;}
	.st272{fill:#3A6080;}
	.st273{fill:#2A455C;}
	.st274{fill:#DB4665;}
	.st275{fill:#D1D1D1;}
	.st276{opacity:0.6;}
	.st277{opacity:0.68;fill:#FFFFFF;}
	.st278{fill:#BCBECC;}
	.st279{fill:#E5E6EB;}
	.st280{fill:#373A47;}
	.st281{fill:#00A9CE;stroke:#00A9CE;stroke-miterlimit:10;}
	.st282{fill:#D7D8DB;}
	.st283{opacity:0.22;fill:#DFF3FD;enable-background:new    ;}
	.st284{fill:#5B5567;}
	.st285{fill:#A6A6A6;}
	.st286{opacity:0.65;fill:#C8C7CE;enable-background:new    ;}
	.st287{fill:#B9C3CE;}
	.st288{fill:#E6E7E8;}
	.st289{fill:#BEC7DD;}
	.st290{fill:#C3CAD1;}
	.st291{fill:#D8E2E5;}
	.st292{fill:#C2CCDB;}
	.st293{fill:#B1BFC3;}
	.st294{fill:#F1F2F2;}
	.st295{fill:#9D0E0D;}
	.st296{fill:#E2342B;}
	.st297{fill:#E7E4E5;}
	.st298{fill:#FFD8B5;}
	.st299{opacity:0.49;fill:#FFFFFF;}
	.st300{opacity:0.58;fill:#FFFFFF;}
	.st301{fill:url(#SVGID_11_);}
	.st302{fill:#333745;}
	.st303{fill:#242530;}
	.st304{fill:url(#SVGID_12_);}
	.st305{fill-rule:evenodd;clip-rule:evenodd;fill:#780000;}
	.st306{fill-rule:evenodd;clip-rule:evenodd;fill:#2B2B2B;}
	.st307{fill-rule:evenodd;clip-rule:evenodd;fill:#787878;}
	.st308{fill-rule:evenodd;clip-rule:evenodd;fill:#618CC7;}
	.st309{fill-rule:evenodd;clip-rule:evenodd;fill:#406BA3;}
	.st310{fill-rule:evenodd;clip-rule:evenodd;fill:#4D4D4D;}
	.st311{fill-rule:evenodd;clip-rule:evenodd;fill:#990000;}
	.st312{fill-rule:evenodd;clip-rule:evenodd;fill:#999999;}
	.st313{fill-rule:evenodd;clip-rule:evenodd;fill:#A6BDDE;}
	.st314{fill-rule:evenodd;clip-rule:evenodd;fill:#F7C7A1;}
	.st315{fill-rule:evenodd;clip-rule:evenodd;fill:#9CB5D6;}
</style>
<g id="Layer_1">
	<g>
		<polygon class="st232" points="0,192.4 97.2,186 97.2,303.9 0,303.9 		"/>
		<polygon class="st233" points="127.7,200 97.2,186 97.2,303.9 127.7,303.9 		"/>
		<polygon class="st234" points="57.7,188.9 57.7,303.9 41.6,303.9 41.6,189.8 		"/>
		<polygon class="st234" points="127.7,262.5 97.2,255.8 0,259 0,235.2 97.2,232.1 98.8,232.1 127.7,241 127.7,250.5 		"/>
		<polygon class="st234" points="118.2,195.5 118.2,303.9 109.3,303.9 109.3,191.4 		"/>
		<g>
			<path class="st235" d="M212.4,91.5c-2.6-2.2-4.4-4-4.7-4.8c-1-3.1,0.6-27.4,5.1-44c-3.1-3.2-13.1-6.2-16.8-2.1
				c-1.2,23.2-4.1,39.9-7,49.2c-3,9.3-31.2,34.6-40.3,67.2c0.2,8.4,5.9,12.1,8.6,14.7l10.4-13.4C177.5,132,195.8,107.3,212.4,91.5
				L212.4,91.5z"/>
			<path class="st236" d="M212.4,91.5c-0.5-0.5-1-0.9-1.5-1.3l-1.5,3.9l-7.5-2.8l2.8-7.5l2.7,1c0-0.7,0-1.5,0-2.4l-1.9-0.7l2.2-5.7
				c0.2-2.5,0.4-5.3,0.7-8.2l-1.3,3.5l-7.5-2.8l2.8-7.5l6.5,2.5c0.1-0.8,0.2-1.5,0.3-2.3l-6-2.3l2.8-7.5l4.5,1.7
				c0.1-0.7,0.3-1.5,0.4-2.2l-4.1-1.5l2.8-7.5l3,1.1l0-0.2c-2-2.1-7.1-4.1-11.3-4.1l6.2,2.3l-2.8,7.5l-7.5-2.8l2.6-6.9
				c-1,0.2-2,0.5-2.8,0.9l-1.3,3.4c-0.1,2.6-0.3,5.2-0.5,7.7l1.1-3l7.5,2.8l-2.8,7.5l-6.2-2.4c-0.1,0.8-0.1,1.5-0.2,2.3l5.7,2.1
				l-2.8,7.5l-3.8-1.4c-0.1,0.8-0.2,1.5-0.3,2.3l3.3,1.2l-2.8,7.5l-1.7-0.7c-0.1,0.8-0.3,1.5-0.4,2.2l1.4,0.5l-2.8,7.5l-0.4-0.1
				c-0.2,0.8-0.4,1.5-0.6,2.2l0.2,0.1l-2.8,7.5l-1.2-0.4c-0.4,0.6-0.9,1.2-1.4,1.9l1.7,0.7l-2.8,7.5l-4-1.5c-0.5,0.6-1,1.2-1.4,1.8
				l4.7,1.8l-2.8,7.5l-6.9-2.6c-2.5,3.3-5,6.8-7.5,10.5l0.4,0.2l-2.8,7.5l-1.9-0.7c-0.4,0.6-0.8,1.3-1.2,2l2.3,0.9l-2.8,7.5
				l-3.3-1.2c-0.3,0.7-0.7,1.3-1,2l3.5,1.3l-2.8,7.5l-3.8-1.4c-0.3,0.7-0.5,1.4-0.8,2.1l3.8,1.4l-2.8,7.5l-2.7-1
				c0.1,0.9,0.3,1.8,0.6,2.6l1.3,0.5l-0.5,1.4c0.4,0.9,0.9,1.7,1.5,2.5l1.2-3.1l7.5,2.8l-1.5,3.9l4.7-6l2.5-6.7l1.8,0.7
				c0.3-0.7,0.5-1.4,0.8-2.1l-1.8-0.7l2.8-7.5l2.2,0.8c0.3-0.7,0.6-1.4,1-2l-2.3-0.9l2.8-7.5l3.2,1.2c0.4-0.7,0.7-1.3,1.1-2
				l-3.4-1.3l2.8-7.5l4.7,1.8c0.4-0.6,0.8-1.3,1.2-1.9l-5.1-1.9l2.8-7.5l6.8,2.6c0.4-0.6,0.9-1.3,1.3-1.9l-7.3-2.8l2.8-7.5l7.5,2.8
				l-2.6,6.8c1.9-2.7,3.9-5.4,6-7.9l-0.5-0.2l2.8-7.5l3,1.1c0.5-0.6,1-1.2,1.6-1.8l-3.8-1.4l2.8-7.5l6.8,2.6
				C209.5,94.3,211,92.9,212.4,91.5L212.4,91.5z M153.7,160.7l7.5,2.8l2.8-7.5l-7.5-2.8L153.7,160.7L153.7,160.7z M157.3,151.1
				l7.5,2.8l2.8-7.5l-7.5-2.8L157.3,151.1L157.3,151.1z M160.9,141.5l7.5,2.8l2.8-7.5l-7.5-2.8L160.9,141.5L160.9,141.5z
				 M164.6,131.9l7.5,2.8l2.8-7.5l-7.5-2.8L164.6,131.9L164.6,131.9z M168.2,122.3l7.5,2.8l2.8-7.5l-7.5-2.8L168.2,122.3
				L168.2,122.3z M185.1,106.7l7.5,2.8l2.8-7.5l-7.5-2.8L185.1,106.7L185.1,106.7z M188.7,97.1l7.5,2.8l2.8-7.5l-7.5-2.8L188.7,97.1
				L188.7,97.1z M192.4,87.6l7.5,2.8l2.8-7.5l-7.5-2.8L192.4,87.6L192.4,87.6z M196,78l7.5,2.8l2.8-7.5l-7.5-2.8L196,78L196,78z"/>
			<path class="st237" d="M205.4,177.4c2.3-4.1,10-35,14.1-37.9c4.1-2.9,56.4-11.4,77-16.3c2.5-3.5,4.3-14.4,1.6-18.9
				c-18.8,9-49.8,3.1-58.3,2.8c-3.6-0.2-9.7-3.3-15.7-7.1c-4.4-2.8-8.6-5.9-11.7-8.5c-16.6,15.9-35,40.6-44.8,66.7l0.4-0.6
				l-1.2,13.9l-0.5,5.7C175.7,180.2,198.5,186.2,205.4,177.4L205.4,177.4z"/>
			<path class="st235" d="M207.3,172.4c0.2-0.7,0.4-1.4,0.7-2.1l-2.7-1l2.8-7.5l2.2,0.8c0.2-0.7,0.4-1.4,0.7-2.1l-2.1-0.8l2.8-7.5
				l1.7,0.6c0.2-0.7,0.5-1.4,0.7-2.1l-1.6-0.6l2.8-7.5l1.7,0.6c0.4-0.8,0.7-1.4,1-2l-2-0.7l2.8-7.5l7.5,2.8l-0.6,1.7
				c0.8-0.2,1.7-0.4,2.6-0.6l0.1-0.2l0.4,0.1c1.2-0.3,2.6-0.6,4-0.9l-3.6-1.3l2.8-7.5l7.5,2.8l-1.9,5c0.8-0.2,1.7-0.3,2.6-0.5
				l1.4-3.7l5.9,2.2c1.5-0.3,3-0.6,4.6-0.9l2.8-7.3l7.5,2.8l-1,2.7l2.6-0.5l0.5-1.4l2.3,0.9c1.4-0.3,2.8-0.5,4.2-0.8l-5.7-2.2
				l2.8-7.5l7.5,2.8l-2.4,6.4c0.9-0.2,1.7-0.3,2.6-0.5l1.9-5.1l7.5,2.8l-0.1,0.4c1.7-0.3,3.3-0.7,4.8-1l-1.8-0.7l2.8-7.5l7.1,2.7
				c0.2-0.7,0.4-1.4,0.5-2.2l-6.9-2.6l2.8-7.5l4.5,1.7c-0.1-0.9-0.3-1.8-0.5-2.6l-2.4-0.9c-1.2,0.5-2.5,1-3.9,1.4l-2.7,7.1l-7.5-2.8
				l0.9-2.2c-0.8,0.1-1.7,0.2-2.5,0.3l-0.4,1.2l-2.4-0.9c-1.9,0.1-3.8,0.2-5.6,0.3l7.2,2.7l-2.8,7.5l-7.5-2.8l2.8-7.4
				c-0.8,0-1.6,0-2.4,0l-2.5,6.6l-7.5-2.8l1.5-4c-0.8,0-1.6-0.1-2.3-0.2l-1.3,3.4l-7.5-2.8l0.5-1.3c-0.8-0.1-1.6-0.2-2.3-0.2
				l-0.3,0.7l-2.7-1c-2.2-0.2-4-0.4-5.3-0.5c-3.6-0.2-9.7-3.3-15.7-7.1c-0.5-0.3-1-0.6-1.4-0.9l-1.5-0.6l0.1-0.4
				c-0.6-0.4-1.3-0.9-1.9-1.3l-0.3,0.9l-7.5-2.8l1.2-3.1l-0.3-0.3c-1.5,1.4-2.9,2.9-4.4,4.4l0.7,0.3l-2.8,7.5l-3.7-1.4
				c-0.5,0.6-1,1.2-1.6,1.8l4.5,1.7l-2.8,7.5l-7-2.7c-2,2.6-4,5.2-6,7.9l-0.3,0.7l-0.2-0.1c-0.4,0.6-0.9,1.3-1.3,1.9l0.7,0.3
				l-2.8,7.5l-2.4-0.9c-0.4,0.6-0.8,1.3-1.2,1.9l2.8,1.1l-2.8,7.5l-4.1-1.5c-0.4,0.7-0.7,1.3-1.1,2l4.3,1.7L178,148l-5.2-2
				c-0.3,0.7-0.6,1.4-1,2l5.3,2l-2.8,7.5l-5.7-2.1c-0.3,0.7-0.5,1.4-0.8,2.1l5.7,2.2l-2.8,7.5l-3.4-1.3l-0.2,2.3l2.8,1.1l-2.8,7.5
				l-0.6-0.2l-0.1,0.8c2.1,0.6,4.9,1.5,8,2.2l-5.2-2l2.8-7.5l7.5,2.8l-2.7,7.2c0.7,0.2,1.5,0.3,2.2,0.5l2.6-6.9l7.5,2.8l-2,5.2
				c0.8,0.1,1.6,0.1,2.3,0.2l1.8-4.6l7.5,2.8l-0.5,1.2c1.9-0.4,3.5-1,4.9-2l-1.5-0.6l2.8-7.5L207.3,172.4L207.3,172.4z M172.9,167.9
				l7.5,2.8l2.8-7.5l-7.5-2.8L172.9,167.9L172.9,167.9z M176.5,158.3l7.5,2.8l2.8-7.5l-7.5-2.8L176.5,158.3L176.5,158.3z
				 M180.1,148.8l7.5,2.8l2.8-7.5l-7.5-2.8L180.1,148.8L180.1,148.8z M183.8,139.2l7.5,2.8l2.8-7.5l-7.5-2.8L183.8,139.2
				L183.8,139.2z M187.4,129.6l7.5,2.8l2.8-7.5l-7.5-2.8L187.4,129.6L187.4,129.6z M191.1,120l7.5,2.8l2.8-7.5l-7.5-2.8L191.1,120
				L191.1,120z M182.5,171.6l7.5,2.8l2.8-7.5l-7.5-2.8L182.5,171.6L182.5,171.6z M186.1,162l7.5,2.8l2.8-7.5l-7.5-2.8L186.1,162
				L186.1,162z M189.7,152.4l7.5,2.8l2.8-7.5l-7.5-2.8L189.7,152.4L189.7,152.4z M193.4,142.8l7.5,2.8l2.8-7.5l-7.5-2.8L193.4,142.8
				L193.4,142.8z M197,133.2l7.5,2.8l2.8-7.5l-7.5-2.8L197,133.2L197,133.2z M200.6,123.6l7.5,2.8l2.8-7.5l-7.5-2.8L200.6,123.6
				L200.6,123.6z M204.3,114l7.5,2.8l2.8-7.5l-7.5-2.8L204.3,114L204.3,114z M207.9,104.4l7.5,2.8l2.8-7.5l-7.5-2.8L207.9,104.4
				L207.9,104.4z M192,175.2l7.5,2.8l2.8-7.5l-7.5-2.8L192,175.2L192,175.2z M195.7,165.6l7.5,2.8l2.8-7.5l-7.5-2.8L195.7,165.6
				L195.7,165.6z M199.3,156l7.5,2.8l2.8-7.5l-7.5-2.8L199.3,156L199.3,156z M203,146.4l7.5,2.8l2.8-7.5l-7.5-2.8L203,146.4
				L203,146.4z M206.6,136.8l7.5,2.8l2.8-7.5l-7.5-2.8L206.6,136.8L206.6,136.8z M210.2,127.2l7.5,2.8l2.8-7.5l-7.5-2.8L210.2,127.2
				L210.2,127.2z M213.9,117.7l7.5,2.8l2.8-7.5l-7.5-2.8L213.9,117.7L213.9,117.7z M217.5,108.1l7.5,2.8l2.8-7.5l-7.5-2.8
				L217.5,108.1L217.5,108.1z M219.8,130.9l7.5,2.8l2.8-7.5l-7.5-2.8L219.8,130.9L219.8,130.9z M223.5,121.3l7.5,2.8l2.8-7.5
				l-7.5-2.8L223.5,121.3L223.5,121.3z M227.1,111.7l7.5,2.8l2.8-7.5l-7.5-2.8L227.1,111.7L227.1,111.7z M233.1,124.9l7.5,2.8
				l2.8-7.5l-7.5-2.8L233.1,124.9L233.1,124.9z M236.7,115.3l7.5,2.8l2.8-7.5l-7.5-2.8L236.7,115.3L236.7,115.3z M242.7,128.6
				l7.5,2.8l2.8-7.5l-7.5-2.8L242.7,128.6L242.7,128.6z M246.3,119l7.5,2.8l2.8-7.5l-7.5-2.8L246.3,119L246.3,119z M255.9,122.6
				l7.5,2.8l2.8-7.5l-7.5-2.8L255.9,122.6L255.9,122.6z M278.7,120.3l7.5,2.8l2.8-7.5l-7.5-2.8L278.7,120.3L278.7,120.3z"/>
			<path class="st187" d="M199.2,44.4c0.8,3.9,11.2,2.5,10-1.7c0.4-2.5,2.2-18.1,3.1-19c0.9-0.9,8.7-3.2,8.3-4.4
				c-0.4-1.2,1.6-8.6,0.1-10.1c-1.4-1.5-10.5-3.7-11.6-3.2c-1.1,0.5-1.9,4.6-1,5.5c1,0.9,6.1,1.8,7.7,2.5c1.6,0.7,1,2-1.3,1.9
				c-2.3-0.1-12.7-1.3-15.9-1.1c-3.2,0.2,2.6,5.8,2.1,9c-0.5,3.2-0.6,14.8-1.6,21C199.2,44.4,199.2,44.1,199.2,44.4L199.2,44.4z"/>
			<path class="st188" d="M218.9,8.2c0.5-2.6,0.4-5.2-0.5-6.7c-1.5-2.3-4.4-1.6-5.3-0.8c-0.9,0.8-1,2.1-0.9,2.6
				c-1.8-1.9-10.8-0.2-12.1,1c-1.2,1-3.1,7.6-2.2,10.6c0.2-0.1,0.4-0.2,0.7-0.2c3.2-0.2,13.5,1,15.9,1.1c2.3,0.1,2.8-1.2,1.3-1.9
				c-1.6-0.7-6.7-1.6-7.7-2.5c-1-0.9-0.1-5,1-5.5C209.9,5.6,215.8,6.9,218.9,8.2L218.9,8.2z"/>
			<path class="st187" d="M292.5,117.9c-3.9-0.7-2.6-11.1,1.6-10c2.5-0.4,18.1-2.4,19-3.3c0.9-0.9,3.1-8.7,4.3-8.4
				c1.2,0.3,8.6-1.6,10.1-0.2c1.5,1.4,3.8,10.5,3.4,11.6c-0.5,1.1-4.5,2-5.5,1c-0.9-1-1.8-6.1-2.6-7.6c-0.7-1.5-2-1-1.8,1.3
				c0.2,2.3,1.5,12.7,1.3,15.9c-0.2,3.2-5.9-2.5-9-2c-3.2,0.5-14.8,0.8-21,1.8C292.5,117.9,292.8,117.9,292.5,117.9L292.5,117.9z"/>
			<path class="st188" d="M328.5,97.8c2.6-0.5,5.2-0.5,6.7,0.4c2.3,1.5,1.7,4.4,0.8,5.3c-0.8,0.9-2.1,1-2.6,0.9
				c1.9,1.7,0.3,10.8-0.8,12.1c-1,1.2-7.5,3.2-10.5,2.3c0.1-0.2,0.2-0.4,0.2-0.7c0.2-3.2-1.1-13.5-1.3-15.9
				c-0.2-2.3,1.1-2.9,1.8-1.3c0.7,1.5,1.6,6.7,2.6,7.6c0.9,1,5,0.1,5.5-1C331.2,106.8,329.8,100.9,328.5,97.8L328.5,97.8z"/>
			<path class="st238" d="M257.2,208c3.7-2.2,2.5-9.4,2.9-11.1c0.4-2.3-8.2-16.5-10-19.3c-3.3-5.3-10.1-0.2-12.9-3.3
				c0.1-0.2,0.1-0.3,0.2-0.5c1.2-2.7,2.5-5.1,3.9-5.1c2.9-0.1,5.7,0.3,8.7,3.8c2.9,3.5,6,11,6.7,11.4c0.7,0.4,4.3,5.1,5.1,7.6
				c0.9,2.5,1.4,10-0.4,13.7C260.6,206.8,259,207.7,257.2,208L257.2,208z"/>
			<path class="st239" d="M233.9,180.9c1,1.5,3.8,0,6.4-0.7c2.2-0.6,4.2-0.7,4.7,2.2c0.6,3.2,0.1,4.9-1,6.1c-0.9,1-2.3,1.6-3.7,2.2
				c2.4,2.4,6.9,8.6,7.6,9.3c0.9,0.9,1.4,4.6,3.2,6.7c0.4,0.4,1,0.8,1.7,1c1.2,0.4,2.8,0.5,4.2,0.3c3.7-2.2,2.5-9.4,2.9-11.1
				c0.4-2.3-8.2-16.5-10-19.3c-3.3-5.3-10.1-0.2-12.9-3.3c-1,2.2-1.9,4.5-2.9,6C234.2,180.6,234,180.8,233.9,180.9L233.9,180.9z"/>
			<path class="st187" d="M230.6,197.6c-2.5,1.8-8.3-7.2-5.8-7.1c0.9-1.5,6.4-6.8,8.9-9.3c0.1-0.1,0.1-0.2,0.2-0.2
				c1.8,2.8,10-4.7,11.2,1.4c1.1,6-1.6,6.9-4.6,8.3c-0.6-0.6-1.1-0.9-1.3-0.9c-0.2,0-0.5,0.2-0.9,0.5
				C235.8,191.9,230.8,197.6,230.6,197.6L230.6,197.6z"/>
			<path class="st240" d="M153.4,167.9c-1.5,23.7,5.7,57.1,10.9,60.7c7,4.9,30.5-11.9,36.3-15.8c0.5-3.1-2.7-11.7-5.1-11.9
				c-6.4-2.5-20.9,14.5-22.5,6.8c-1.3-6.2,5.8-20.3,8.3-26.7c-5.8-1-11.3-2.6-14.8-3.7l1.7-19.6l-10.8,13.9
				C156.3,170.6,154.8,169.4,153.4,167.9L153.4,167.9z"/>
			<path class="st241" d="M196.2,196.6c-2.1-0.8-11.2,3.7-11.3,4.7c-0.1,1,6.3,18.6,8.8,19.1c2.4,0.5,11.2-3.3,12.2-5.7
				C206.8,212.3,198.3,197.4,196.2,196.6L196.2,196.6z"/>
			<path class="st242" d="M217.4,228.5c4-0.7,5.3-7.3,6.1-8.7c1.1-1.9-1.7-17-2.3-20c-1.1-5.7-8.7-3.5-10.1-7.1
				c0.1-0.1,0.2-0.2,0.3-0.3c1.9-1.9,3.8-3.6,5-3.2c2.5,0.8,4.9,2.1,6.3,6.1c1.4,4,1.6,11.6,2.1,12.1c0.5,0.6,2,5.8,1.9,8.3
				c-0.1,2.5-2.1,9.1-4.9,11.7C220.7,228.6,219,228.8,217.4,228.5L217.4,228.5z"/>
			<path class="st243" d="M206.1,197.4c0.3,1.7,3.3,1.3,5.8,1.5c2.1,0.2,3.9,0.8,3.4,3.4c-0.5,2.9-1.5,4.3-2.8,4.9
				c-1.1,0.6-2.5,0.6-3.9,0.7c1.3,2.8,3.2,9.7,3.5,10.6c0.4,1.1-0.3,4.5,0.6,6.9c0.2,0.5,0.6,1,1.1,1.5c0.9,0.8,2.2,1.4,3.6,1.6
				c4-0.7,5.3-7.3,6.1-8.7c1.1-1.9-1.7-17-2.3-20c-1.1-5.7-8.7-3.5-10.1-7.1c-1.6,1.6-3.1,3.3-4.5,4.2
				C206.5,197.1,206.3,197.3,206.1,197.4L206.1,197.4z"/>
			<path class="st244" d="M197.8,210.7c-2.7,0.7-4.8-9-2.7-8.1c1.3-1,7.8-3.8,10.7-5.1c0.1,0,0.2-0.1,0.3-0.1
				c0.6,3.1,10.2-0.8,9.2,4.9c-1,5.5-3.7,5.4-6.8,5.7c-0.3-0.7-0.6-1.1-0.8-1.2c-0.2-0.1-0.5,0-1,0.1
				C204.2,207.6,197.9,210.8,197.8,210.7L197.8,210.7z"/>
			<path class="st245" d="M214.4,123c33.5-10.8,27.4-22.3,22.7-24.9c-4.7-2.6-36.3-6-48.3,1.7c6.7,0.8,16.6,5.7,16.7,5.8
				C208.8,107.5,215.1,116.5,214.4,123L214.4,123z"/>
			<path class="st188" d="M253.9,55c-6.6-2.2-14.5-2.7-22.7,1.6c-8.5,4.4-35.1,34.6-34.4,43.3c0.1,0.9,0.4,1.8,0.8,2.6
				c3.8-6.3,18.6-17.7,19.6-19c1.1-1.5-1.3-7.7,0.8-11C219.9,69.7,242.6,57.8,253.9,55L253.9,55z"/>
			<path class="st246" d="M212,75c-8.2,9.7-15.5,20.3-15.1,24.9c0.1,0.9,0.4,1.8,0.8,2.6c3.4-5.7,16.1-15.7,19-18.4
				C211.9,79.4,212,77.8,212,75L212,75z"/>
			<path class="st187" d="M253.2,99.9c-2.2-19.7,11.4-24.4,2.4-42.8c-0.3-0.6-0.6-1.2-1-1.9c-0.2-0.1-0.5-0.2-0.7-0.2
				c-11.3,2.8-34,14.8-35.9,17.5c-2.1,3.3,0.3,9.5-0.8,11c-1,1.3-15.8,12.7-19.6,19c0.2,0.4,0.5,0.9,0.9,1.3c5.1,6.2,20,9.7,26,9.4
				c7-0.4,12.2-3.4,14.4-4.7C246.4,118.2,268.3,103.9,253.2,99.9L253.2,99.9z"/>
			<path class="st247" d="M253.2,99.8c0-0.1,0-0.1,0-0.2c-5.8,0.4-15.9,5.6-21.6,3.3c-5.7-2.3-7.9-11.9-14.7-18.5l-0.2-0.2
				c-2.9,2.7-15.6,12.7-19,18.4c0.2,0.4,0.5,0.9,0.9,1.3c5.1,6.2,20,9.7,26,9.4c6.4-0.3,11.3-2.9,13.7-4.3
				C243,102.6,248.8,101.1,253.2,99.8L253.2,99.8z"/>
			<path class="st248" d="M237.7,54.1c-2.5-11.3,8.7-23,20.5-21c0.1,0.1-5.1-0.6-10.6,7.8c-1.4,2.1-3,2.9-3.1,5.5
				c5.7-4.2,8.8-14.1,24-5.1c0,0.1-7.4,2.4-7.7,2.4c2.8,1.4,18.2-1.1,25.6,12.3c-3.8-1.6-7.8-3.1-11.9-3.3
				c10.1,5.4,15.2,18.3,10.4,28.9c-1.6-4.3,4.3-1.8-5.1-17c2.2,8.6,0.4,15.3-6.1,22.3c-1.3,0.4,3.5,5.2,0.3,9
				c-0.2,0.2-0.3,0.5-0.2,0.6c-0.6-0.7,1.2-5-2.4-5.1c-3,1.3,3,5.1-14.6,10c-0.8-0.6-2-1.1-3.5-1.5c-2.3-20.4,12.3-24.7,1.5-44.7
				C249.7,53.4,243.9,52.6,237.7,54.1L237.7,54.1z"/>
			<path class="st249" d="M222,93.3c-3.2,2.3-12.7,2.9-14.8-0.4c-2.1-3.3,2-9.1,3.8-13.7C210.6,86.1,217.4,90.7,222,93.3L222,93.3z"
				/>
			<path d="M218,72.6c-0.2,0-0.4-0.1-0.6-0.1c-0.7-0.2-1.4-0.4-1.9-0.7c-0.8-0.5-1.2-1.2-1.5-1.9c-0.3-1.2,0-2.8,0.7-4.3
				c0.7-1.5,1.7-3,2.9-4.3c1.9-2.2,4.2-3.8,5.6-3.9l0,0c0.4,0,0.9,0,1.5,0.2c2,0.4,5,1.6,7.4,3c1,0.6,2,1.3,2.8,1.9
				c-0.4,0.2-0.8,0.4-1.2,0.6c-6.4,3.2-12.1,6.4-14.6,8.3C218.6,71.9,218.2,72.3,218,72.6C218,72.6,218,72.6,218,72.6L218,72.6z
				 M233.8,63.1c-0.6-0.5-1.4-1-2.2-1.5c-2.3-1.4-5.1-2.5-7-2.9c-0.5-0.1-0.9-0.2-1.2-0.1l0,0c-1.1,0-3,1.5-4.8,3.5
				c-1.1,1.2-2.1,2.6-2.7,4c-0.6,1.3-0.9,2.5-0.6,3.4c0.1,0.5,0.4,0.9,0.9,1.2c0.4,0.3,0.9,0.4,1.5,0.6c0.5,0.1,1,0.2,1.5,0.2
				L233.8,63.1L233.8,63.1z"/>
			<path d="M235.4,66c1.1-0.5,2.5-0.2,3.9,0.5c1.9,0.9,4,2.7,6,4.8c1.9,2.1,3.7,4.4,4.8,6.5c1.2,2.2,1.7,4.1,1.2,5.2
				c-0.2,0.3-0.4,0.6-0.7,0.9c-0.3,0.3-0.6,0.6-1,0.8c0,0,0,0,0,0.1c0.2,1.3,0.4,2.6,0.6,3.9l0,0c0.6,3.7,1.2,7.5,1.2,10.9
				c-0.4,0-0.8,0.1-1.3,0.1c0-3.3-0.6-7.1-1.2-10.8l0,0c-0.2-1.2-0.4-2.4-0.6-3.5c-1.8,1-4.2,1.8-6.6,2.4c-3.8,0.8-7.8,1-10.2-0.2
				c-0.5-0.2-0.9-0.5-1.3-0.9c-0.3-0.3-0.6-0.7-0.9-1.2c-1.2-2.3-1.2-5.8-0.3-9.4c0.7-2.7,1.8-5.4,3.2-7.4c0-0.1,0.1-0.3,0.1-0.4
				c0.8-0.9,1.5-2.2,1.9-3.3l0,0l0,0c0.2-0.6,0.4-1.2,0.4-1.7c0-0.3,0-0.6-0.1-0.6l0,0c-0.1,0-0.1-0.1-0.2-0.1
				c0.4-0.2,0.8-0.4,1.2-0.6c0.2,0.4,0.3,0.8,0.3,1.4c0,0.6-0.2,1.3-0.5,2.1l0,0C235.5,65.8,235.4,65.9,235.4,66L235.4,66z
				 M238.8,67.6c-1.2-0.6-2.3-0.8-3.1-0.4c-0.4,0.2-0.9,0.6-1.3,1c-1.8,1.8-3.3,5-4.1,8.3c-0.8,3.2-0.9,6.5,0.2,8.5
				c0.2,0.3,0.4,0.6,0.6,0.9c0.3,0.3,0.6,0.5,1,0.7c2.2,1.1,5.9,0.9,9.4,0.1c3.5-0.8,6.8-2.2,8.2-3.6c0.2-0.2,0.4-0.4,0.5-0.6
				c0.4-0.7-0.1-2.2-1.1-4.1c-1.1-2-2.8-4.2-4.6-6.2C242.6,70.2,240.6,68.5,238.8,67.6L238.8,67.6z"/>
			<path class="st191" d="M238.2,72.8c0.8,0.7,0.3,2.5-1,4c-1.4,1.5-3.1,2.2-3.8,1.5c-0.8-0.7-0.3-2.5,1-4
				C235.7,72.8,237.4,72.2,238.2,72.8L238.2,72.8z"/>
			<path class="st191" d="M227.9,64c0.5,0.4,0.5,1.2,0.1,2.1c-2,1.1-3.8,2.1-5.3,3c-0.3-0.8,0.2-2.3,1.3-3.6
				C225.4,64,227.1,63.3,227.9,64L227.9,64z"/>
			<path class="st191" d="M231.9,57.5c3.1-0.5,5.2-1.7,6.4,2.3C237.1,57.2,234.4,57.5,231.9,57.5L231.9,57.5z"/>
			<path class="st191" d="M244.7,63.7c5.5-0.2,5.8,3.8,6.8,8.4C250.2,68.4,249.1,64,244.7,63.7L244.7,63.7z"/>
			<polygon class="st245" points="287.1,101.7 300.1,100.7 302,125.4 289,126.4 287.1,101.7 			"/>
			<polygon class="st245" points="192.5,48.5 194.5,35.6 216.6,39.1 214.6,52 192.5,48.5 			"/>
			<path class="st250" d="M166.7,159.5c0.2,1.6,0.5,3.3,0.8,5l0.6-6.8L166.7,159.5L166.7,159.5z M172,178.9
				c8.8,22.9,25.7,48.1,31.7,49.6c9,2.2,26.2-23.7,30.5-29.9c-0.7-3.3-7.2-10.7-9.7-10c-7.4,0-15.5,22.7-20.1,15.5
				c-2.9-4.5-2.4-15.8-2.1-24.1C194.9,183.9,181.2,181.3,172,178.9L172,178.9z"/>
			<path class="st251" d="M223.6,183.9c-2.5,0-9.8,8-9.6,9.1c0.2,1,13.6,16.3,16.2,15.9c2.6-0.4,10-7.7,10.1-10.5
				C240.3,195.7,226,184,223.6,183.9L223.6,183.9z"/>
		</g>
		<g>
			<path class="st32" d="M26.4,247c-0.2,1.3-1,2.5-2.3,3.4c-1.1,0.8-2.5,1.4-3.9,1.6c0,0-0.1,0-0.1,0c-0.1,0-0.4-0.5-0.8-1.4
				c-0.4-0.9-0.5-1.5-0.5-1.7c0-0.1,0.1-0.1,0.2-0.1c0.7-0.1,1.3-0.3,2-0.6c0.7-0.3,1.2-0.9,1.3-1.5c0.1-0.4-0.1-0.9-0.4-1.4
				c-0.6-0.9-0.9-1.4-1-1.5c-0.3-0.7-0.4-1.5-0.3-2.3c0.2-1.2,0.9-2.2,2.2-3c1.1-0.7,2.3-1.1,3.6-1.3c0.1,0,0.1,0,0.2,0
				c0.1,0,0.2,0.1,0.2,0.2c0.2,0.9,0.4,1.7,0.7,2.6c0,0,0,0.1,0,0.1c0,0.1-0.1,0.2-0.2,0.2c0,0,0,0,0,0c-0.1,0-0.2,0-0.3,0
				c-0.1,0-0.2,0-0.3,0c-0.5,0-0.9,0.1-1.3,0.3c-0.4,0.2-0.7,0.6-0.8,1c-0.1,0.4,0.1,0.9,0.4,1.5c0.6,1,1,1.6,1,1.6
				C26.4,245.5,26.5,246.2,26.4,247z"/>
			<path class="st32" d="M38.2,244.4l-1.2,6.8c0,0.2-0.2,0.4-0.3,0.4c-0.2,0-0.7,0-1.4,0c-0.5,0-1,0-1.5-0.1c-0.2,0-0.3-0.2-0.2-0.4
				c0.1-0.6,0.3-1.4,0.5-2.5c0.2-1.1,0.4-2,0.5-2.5c0.1-0.8-0.2-1.2-1-1.2c-0.3,0-0.7,0.1-1,0.3c-0.4,0.2-0.7,0.5-0.7,0.7l-0.4,2.4
				c-0.1,0.3-0.1,0.8-0.2,1.4s-0.2,1.1-0.2,1.4c0,0.2-0.2,0.4-0.4,0.4c-0.2,0-0.8,0-1.7,0c-0.4,0-0.8,0-1.1-0.1
				c-0.2-0.1-0.3-0.2-0.3-0.3c0.1-0.5,0.2-1.3,0.4-2.3c0.2-1,0.3-1.8,0.4-2.3c0.4-2.1,0.7-3.9,0.9-5.3c0.1-0.5,0.1-1,0.2-1.5
				c0.1-0.5,0.1-1,0.1-1.5c0-0.1,0-0.1,0-0.2c0-0.1,0.1-0.2,0.2-0.2c0.3-0.1,0.6-0.1,0.9-0.1c0.5,0,0.8,0,0.9,0l1.8-0.2
				c0.1,0,0.1,0.1,0.1,0.2c0,0.2-0.1,0.5-0.2,0.9c-0.1,0.4-0.2,0.7-0.2,0.9c-0.3,1.5-0.5,2.7-0.7,3.5c0,0.1,0,0.2,0.1,0.2
				c0,0,0.2-0.1,0.6-0.3c0.4-0.2,0.8-0.5,1.2-0.6c0.5-0.2,1-0.3,1.6-0.3c0.8,0,1.5,0.2,2,0.7C38.2,242.9,38.4,243.5,38.2,244.4z"/>
			<path class="st32" d="M43,247c-0.1,0.5-0.2,1.2-0.3,2.1s-0.3,1.7-0.3,2.1c0,0.1-0.1,0.2-0.3,0.2c-0.5,0.1-1,0.1-1.5,0.1
				c-0.5,0-1,0-1.5-0.1c-0.1,0-0.2-0.1-0.2-0.1c0-0.1,0-0.2,0-0.3c0.1-0.5,0.2-1.1,0.4-2c0.2-0.9,0.3-1.6,0.4-2.1
				c0.3-1.5,0.5-3,0.6-4.4c0-0.1,0-0.1,0-0.2c0-0.1,0.1-0.2,0.3-0.2c0.2,0,0.5,0,0.8,0.1c0.4,0,0.6,0.1,0.8,0.1s0.5,0,0.9,0
				c0.4,0,0.7,0,0.9,0c0.2,0,0.2,0.1,0.2,0.2c0,0,0,0.1-0.1,0.2C43.6,244,43.3,245.5,43,247z M44.5,239.7c-0.2,1.1-0.9,1.7-2.2,1.7
				c-0.5,0-0.9-0.1-1.3-0.4c-0.3-0.3-0.5-0.7-0.4-1.3c0.1-0.5,0.4-1,0.8-1.3c0.4-0.3,0.9-0.5,1.4-0.5c0.5,0,0.9,0.1,1.2,0.5
				C44.5,238.7,44.7,239.2,44.5,239.7L44.5,239.7z"/>
			<path class="st32" d="M55.8,246.8c-0.2,1.3-0.9,2.6-1.9,3.5c-1,0.9-2.3,1.4-3.6,1.4c-0.5,0-1.1-0.1-1.6-0.4
				c-0.5-0.2-0.8-0.4-0.7-0.4c-0.1,0-0.1,0.1-0.2,0.3c-0.1,0.3-0.1,0.8-0.2,1.5c-0.1,0.7-0.2,1.2-0.2,1.5c0,0.2-0.2,0.3-0.4,0.3
				c0,0,0,0,0,0l-2,0c-0.3,0-0.6,0-0.9,0c-0.2,0-0.3-0.2-0.2-0.3c0,0,0,0,0,0l1.4-7.6c0.2-1.3,0.4-2.6,0.3-3.9c0-0.1,0-0.1,0-0.2
				c0-0.1,0.1-0.2,0.2-0.2c0.5-0.1,1-0.3,1.5-0.3c0.5-0.1,1-0.2,1.6-0.2c0.3,0,0.4,0.2,0.3,0.5c0,0.3,0,0.5,0,0.5
				c-0.1,0,0.2-0.2,0.9-0.5c0.7-0.4,1.3-0.5,1.8-0.5c1.4,0,2.5,0.5,3.2,1.4C55.8,244.1,56,245.3,55.8,246.8z M52.1,246.7
				c0.1-0.5,0-1-0.2-1.4c-0.3-0.4-0.7-0.6-1.2-0.6c-0.5,0-1,0.2-1.4,0.6c-0.3,0.4-0.6,0.9-0.7,1.4c-0.1,0.6,0,1,0.2,1.4
				c0.2,0.4,0.6,0.6,1.2,0.6C51.2,248.7,51.9,248.1,52.1,246.7L52.1,246.7z"/>
			<path class="st32" d="M60.7,247c-0.1,0.5-0.2,1.2-0.3,2.1c-0.1,0.9-0.3,1.7-0.3,2.1c0,0.1-0.1,0.2-0.3,0.2
				c-0.5,0.1-1,0.1-1.5,0.1c-0.5,0-1,0-1.5-0.1c-0.1,0-0.2-0.1-0.2-0.1c0-0.1,0-0.2,0-0.3c0.1-0.5,0.2-1.1,0.4-2
				c0.2-0.9,0.3-1.6,0.4-2.1c0.3-1.5,0.5-3,0.6-4.4c0-0.1,0-0.2,0-0.2c0-0.1,0.1-0.2,0.3-0.2c0.2,0,0.5,0,0.8,0.1
				c0.4,0,0.6,0.1,0.8,0.1c0.2,0,0.5,0,0.9,0c0.4,0,0.7,0,0.9,0c0.2,0,0.2,0.1,0.2,0.2c0,0,0,0.1-0.1,0.2
				C61.2,244,60.9,245.5,60.7,247z M62.2,239.7c-0.2,1.1-0.9,1.7-2.2,1.7c-0.5,0-0.9-0.1-1.3-0.4c-0.3-0.3-0.5-0.7-0.4-1.3
				c0.1-0.5,0.4-1,0.8-1.3c0.4-0.3,0.9-0.5,1.4-0.5c0.5,0,0.9,0.1,1.2,0.5C62.2,238.7,62.3,239.2,62.2,239.7L62.2,239.7z"/>
			<path class="st32" d="M68.8,248.6c-0.1,0.3-0.1,0.6-0.2,0.9c-0.1,0.3-0.2,0.6-0.2,0.9c0,0.1-0.1,0.3-0.1,0.4
				c-0.1,0.1-0.2,0.2-0.4,0.2c-0.9,0.5-1.9,0.7-2.9,0.7c-1.9,0-2.7-0.7-2.5-2.2c0.1-0.4,0.2-1.1,0.4-1.9c0.2-0.9,0.3-1.5,0.4-1.9
				c0.1-0.3-0.1-0.4-0.4-0.4h-0.1c-0.1,0-0.1,0-0.1,0c-0.2,0-0.4-0.1-0.3-0.3c0-0.1,0.1-0.3,0.1-0.5c0.1-0.2,0.1-0.4,0.1-0.5
				c0-0.1,0.1-0.3,0.1-0.6s0.1-0.5,0.1-0.6c0-0.1,0.2-0.2,0.7-0.2c0.2,0,0.4-0.1,0.4-0.2c0.1-0.4,0.2-0.8,0.2-1.2
				c0.1-0.8,0.2-1.2,0.2-1.2c0.1-0.8,0.3-1.1,0.4-1.1c0.2,0,0.5,0.1,0.7,0.1c0.2,0.1,0.5,0.1,0.8,0.1c0.3,0,0.8,0.1,1.5,0.2
				c0.2,0,0.2,0.1,0.2,0.2c0,0.3-0.1,0.7-0.3,1.2c-0.1,0.5-0.2,0.9-0.3,1.2c-0.1,0.3,0,0.5,0.2,0.5c0.2,0,0.6,0,1,0s0.8,0,1.1,0
				c0.1,0,0.2,0,0.2,0.1c0,0.2-0.1,0.4-0.2,0.7c-0.1,0.3-0.1,0.5-0.2,0.7c0,0.2-0.1,0.4-0.1,0.7s-0.1,0.5-0.1,0.7
				c0,0.1-0.1,0.2-0.3,0.2c-0.1,0-0.4,0-0.7,0c-0.3,0-0.5,0-0.7,0h-0.7c-0.1,0-0.2,0.1-0.2,0.4l-0.1,0.7c0,0.3-0.1,0.5-0.1,0.7
				c-0.1,0.6-0.1,0.9,0,1.1c0.1,0.3,0.4,0.4,1,0.4c0.2,0,0.5,0,0.7-0.1c0.2-0.1,0.4-0.1,0.7-0.1C68.8,248.4,68.9,248.5,68.8,248.6z"
				/>
			<path class="st32" d="M79.7,246.6c-0.2,1.4-0.9,2.7-2,3.6c-1.1,0.9-2.4,1.4-3.8,1.4c-1.4,0-2.5-0.5-3.3-1.4
				c-0.8-0.9-1-2.1-0.8-3.5c0.3-1.5,0.9-2.8,2-3.7c1.1-0.9,2.3-1.4,3.9-1.4c1.5,0,2.6,0.5,3.4,1.4C79.7,243.9,79.9,245.2,79.7,246.6
				z M76.4,246.6c0.1-0.5,0-1-0.2-1.4c-0.2-0.4-0.7-0.6-1.1-0.6c-0.5,0-1,0.2-1.4,0.6c-0.4,0.4-0.6,0.8-0.7,1.4
				c-0.1,0.5,0,1,0.2,1.4c0.3,0.4,0.7,0.6,1.2,0.6c0.5,0,1-0.2,1.4-0.6C76.1,247.6,76.4,247.2,76.4,246.6z"/>
			<path class="st32" d="M80.4,239.8C80.4,239.8,80.4,239.8,80.4,239.8c-0.1,0-0.1,0-0.2,0c-0.1,0-0.1,0-0.2,0h0c0,0,0,0,0,0l0-0.1
				c0-0.1-0.1-0.1-0.1-0.3c0,0,0,0-0.1,0h-0.1c0,0,0,0,0,0c0,0,0,0.1,0,0.2c0,0.1,0,0.1,0,0.2c0,0,0,0,0,0h0h-0.2
				c-0.1,0-0.1,0-0.2,0c0,0,0,0,0,0c0-0.1,0-0.2,0-0.3c0-0.1,0-0.2,0-0.3c0-0.3,0-0.4,0-0.6v0c0,0,0,0,0,0c0,0,0.1,0,0.3,0h0.3
				c0.1,0,0.2,0,0.3,0.1c0.1,0.1,0.2,0.2,0.1,0.3c0,0.1,0,0.1,0,0.2c0,0.1-0.1,0.1-0.1,0.2c0,0,0,0,0,0l0.1,0.2
				C80.3,239.7,80.4,239.8,80.4,239.8z M80,239c0-0.1,0-0.1-0.1-0.2c-0.1,0-0.1,0-0.2,0c-0.1,0-0.1,0-0.1,0c0,0.1,0,0.1,0,0.2
				c0,0,0,0,0,0.1c0,0,0,0,0,0.1c0,0,0,0,0,0c0,0,0.1,0,0.1,0C80,239.2,80,239.1,80,239L80,239z"/>
			<path class="st32" d="M79.9,240.5c-0.7,0-1.3-0.6-1.3-1.3s0.6-1.3,1.3-1.3c0.7,0,1.3,0.6,1.3,1.3l0,0
				C81.2,239.9,80.6,240.5,79.9,240.5z M79.9,238.2c-0.6,0-1,0.5-1,1c0,0.6,0.5,1,1,1s1-0.5,1-1c0,0,0,0,0,0
				C80.9,238.7,80.5,238.2,79.9,238.2z"/>
		</g>
	</g>
</g>
<g id="Layer_2">
</g>
</svg>
