<?xml version="1.0" encoding="UTF-8" standalone="no"?>
<!-- Generator: Adobe Illustrator 23.0.0, SVG Export Plug-In . SVG Version: 6.00 Build 0)  -->

<svg
   xmlns:dc="http://purl.org/dc/elements/1.1/"
   xmlns:cc="http://creativecommons.org/ns#"
   xmlns:rdf="http://www.w3.org/1999/02/22-rdf-syntax-ns#"
   xmlns:svg="http://www.w3.org/2000/svg"
   xmlns="http://www.w3.org/2000/svg"
   xmlns:sodipodi="http://sodipodi.sourceforge.net/DTD/sodipodi-0.dtd"
   xmlns:inkscape="http://www.inkscape.org/namespaces/inkscape"
   version="1.1"
   id="Layer_1"
   x="0px"
   y="0px"
   viewBox="0 0 80.000002 40.000001"
   xml:space="preserve"
   sodipodi:docname="Wire.svg"
   width="80"
   height="40"
   inkscape:version="0.92.3 (2405546, 2018-03-11)"><metadata
   id="metadata105"><rdf:RDF><cc:Work
       rdf:about=""><dc:format>image/svg+xml</dc:format><dc:type
         rdf:resource="http://purl.org/dc/dcmitype/StillImage" /><dc:title>packages</dc:title></cc:Work></rdf:RDF></metadata><defs
   id="defs103" /><sodipodi:namedview
   pagecolor="#ffffff"
   bordercolor="#666666"
   borderopacity="1"
   objecttolerance="10"
   gridtolerance="10"
   guidetolerance="10"
   inkscape:pageopacity="0"
   inkscape:pageshadow="2"
   inkscape:window-width="2560"
   inkscape:window-height="1356"
   id="namedview101"
   showgrid="false"
   inkscape:zoom="1.9633944"
   inkscape:cx="36.634821"
   inkscape:cy="14.300002"
   inkscape:window-x="-8"
   inkscape:window-y="-8"
   inkscape:window-maximized="1"
   inkscape:current-layer="Layer_1" />
<style
   type="text/css"
   id="style2">
	.st0{fill:#00A9CE;}
	.st1{fill:#00A9CE;stroke:#FFFFFF;stroke-linecap:round;stroke-linejoin:round;stroke-miterlimit:10;}
	.st2{fill:#FFFFFF;}
	.st3{fill:#505151;}
	.st4{fill:none;stroke:#505151;stroke-miterlimit:10;}
</style>
<title
   id="title4">packages</title>
<path
   class="st0"
   d="m 410,5555.2 v 93 c 0,1.7 -1.3,3 -3,3 h -60 c -1.7,0 -3,-1.3 -3,-3 v -93 c 0,-1.7 1.3,-3 3,-3 h 60 c 1.7,0 3,1.3 3,3 z"
   id="path6"
   inkscape:connector-curvature="0"
   style="fill:#00a9ce" />
<g
   id="g30"
   transform="translate(-43.1,-34.400002)">
	
		<ellipse
   transform="matrix(0.9699,-0.2435,0.2435,0.9699,-1356.5619,271.5286)"
   class="st1"
   cx="420"
   cy="5623"
   rx="22.5"
   ry="22"
   id="ellipse8"
   style="fill:#00a9ce;stroke:#ffffff;stroke-linecap:round;stroke-linejoin:round;stroke-miterlimit:10" />
	<g
   id="g28">
		<path
   class="st2"
   d="m 401.3,5612.5 c -0.1,0.4 0.2,0.9 0.3,1.3 0.1,0.5 -0.1,1 0,1.4 0.3,1.1 0.3,1.1 0.1,2 0,0.2 0,0.3 -0.1,0.5 -0.1,1.1 -0.2,2.2 0.6,3.2 0.4,0.6 1,0.6 1.4,1.1 0.1,0.3 0.2,0.7 0.2,1 0,0.3 0.8,0.4 0.4,0.8 0.3,0.2 0.7,0.3 1,0.5 0,-0.2 0,-0.5 -0.1,-1 0.3,0.2 0.5,0.3 0.7,0.5 0.4,0.4 0.7,0.8 1.1,1.2 0.4,0.4 1,0.6 0.7,1.3 1.1,0.6 2.2,1.2 3.6,1 0.6,-0.1 1.2,-0.3 1.8,0.2 0.3,0.3 0.8,0.3 1.2,0.4 0.1,0 0.2,-0.2 0.4,-0.3 2,1.8 2,1.8 4.3,1 0,-0.1 0,-0.2 0,-0.2 -0.3,0 -0.7,0 -1,0.1 -1.1,0 -1.3,-0.2 -1.5,-1.3 -0.1,-0.3 -0.3,-0.6 -0.5,-0.9 -0.7,0.1 -1.2,0.2 -1.8,0.3 0.1,-0.8 0.1,-1.4 0.2,-2.1 -0.4,0.1 -0.8,0.2 -1.1,0.3 -0.2,0.5 -0.1,1.1 -0.8,1.3 -0.8,0.2 -1.2,-0.2 -1.7,-0.5 -0.2,-0.9 -0.5,-1.8 -0.7,-2.7 1,-1.2 1,-1.2 2.4,-1.2 0,-0.2 0,-0.4 0.1,-0.8 0.7,0 1.5,0 2.1,-0.1 0.6,0.6 1.1,1.2 1.6,1.8 0.2,-1.1 -0.6,-1.7 -0.9,-2.7 0.4,-0.5 0.9,-1 1.3,-1.6 0.4,-0.5 0.4,-0.6 -0.3,-1.4 0.2,-0.2 0.6,-0.4 0.7,-0.7 0.1,-0.8 0.7,-1.1 1.2,-1.5 0,-0.3 -0.1,-0.5 -0.1,-0.8 0.4,-0.2 0.8,-0.4 1.2,-0.6 0.1,0.2 0.2,0.4 0.3,0.6 0.6,-0.6 1.1,-1.1 1.7,-1.6 -0.1,-0.1 -0.1,-0.2 -0.2,-0.2 -0.3,0.2 -0.6,0.4 -0.9,0.7 -0.2,-0.2 -0.5,-0.3 -0.9,-0.6 0.5,-0.6 0.9,-1 1.2,-1.5 0.3,-0.6 1,-0.7 1.3,-1.1 -0.5,-0.6 -1,-0.8 -1.7,-0.9 -0.5,0 -0.9,-0.2 -1.2,-0.7 -0.2,-0.3 -0.4,-0.5 -0.7,-0.7 -0.1,-0.1 -0.3,-0.1 -0.5,-0.1 -0.1,0.3 -0.2,0.6 -0.3,1 -1.1,-0.3 -1.7,-2.1 -3.1,-1.1 0.1,0.7 -0.3,1.4 0.4,2 0.1,0.1 0.1,0.4 0.1,0.5 -0.7,0.6 -0.2,1.4 -0.3,2 -1.2,0.2 -1,-0.9 -1.3,-1.4 -0.6,0 -1,0.1 -1.4,0 -0.4,-0.1 -0.8,-0.3 -1.2,-0.4 -0.4,-0.2 -0.5,-0.6 -0.4,-1 0.2,-0.7 0.8,-1.1 1.1,-1.7 0.1,-0.4 0.8,0 1.2,0 0.3,0 0.6,-0.1 1.3,-0.3 -0.6,-0.2 -1,-0.4 -1.2,-0.5 0.2,-0.4 0.4,-0.7 0.5,-1 0.4,-1.2 0.6,-1.3 1.6,-0.7 0.2,0.1 0.3,0.2 0.5,0.3 -0.4,0.5 -0.7,0.9 -1.1,1.4 1.2,-0.2 1.2,-0.2 2.5,0.6 0.3,-0.3 0.6,-0.5 0.9,-0.8 -0.2,-0.2 -0.3,-0.3 -0.5,-0.5 0.2,-0.4 0.3,-0.7 0.5,-1 -1.4,-0.6 -2.6,-1.1 -3.8,-1.7 -0.7,0.1 -1.2,0.2 -1.8,0.4 0,-0.1 0,-0.2 -0.1,-0.3 0.5,-0.1 1.1,-0.3 1.5,-0.4 0.1,-0.3 0.2,-0.5 0.3,-0.7 -0.3,0.1 -0.6,0.2 -0.9,0.3 0,0.1 0.1,0.1 0.1,0.2 -0.3,0 -0.6,0 -0.8,0 -0.5,0.2 -0.9,0.4 -1.4,0.6 -0.2,0.4 -0.5,0.7 -0.7,1.1 0.2,0.3 0.4,0.5 0.8,1.1 -0.7,-0.2 -1,-0.3 -1.3,-0.4 0.1,-0.3 0.1,-0.6 0.2,-0.8 -0.3,-0.1 -0.5,-0.1 -0.8,-0.2 -0.7,0.4 -1.3,0.8 -1.9,1.3 0.2,0 0.3,0.1 0.5,0.1 -0.2,0.3 -0.3,0.4 -0.4,0.6 -0.2,-0.1 -0.5,-0.2 -0.7,-0.2 -2,1.6 -3.8,3.5 -5.2,5.6 0.2,0.5 0.3,0.8 0.2,1.3 z m 10.2,-8.6 c 0.3,0.4 0.6,0.9 0.9,1.3 -0.1,0.1 -0.2,0.2 -0.3,0.3 -0.5,-0.4 -1,-0.8 -1.6,-1.3 0.4,-0.1 0.7,-0.2 1,-0.3 z"
   id="path10"
   inkscape:connector-curvature="0"
   style="fill:#ffffff" />
		<path
   class="st2"
   d="m 415.3,5601.9 c 0.6,-0.2 1.2,-0.1 1.7,0.5 0.4,0.4 1.1,0.3 1.5,0.8 0.1,0.1 0.3,0 0.5,0 -0.1,0.2 -0.2,0.4 -0.3,0.8 0.6,0.2 1.4,0.3 1.7,0.7 0.7,1 1.7,1.2 3.1,1.2 -0.3,-0.4 -0.7,-0.8 -0.7,-1 0.1,-0.5 0.3,-0.8 -0.4,-1 0.2,-0.2 0.4,-0.3 0.6,-0.5 -0.1,-0.2 -0.1,-0.5 -0.2,-0.7 0.1,-0.1 0.3,-0.1 0.4,-0.2 0.1,-0.1 0.1,-0.3 0.2,-0.5 -0.4,-0.1 -0.8,-0.2 -1.1,-0.5 -0.1,-0.1 -0.2,-0.2 -0.3,-0.3 -2.4,-0.2 -4.8,0 -7.2,0.6 -0.1,0 -0.2,0 -0.2,0.1 0.1,0 0.4,0.1 0.7,0 z"
   id="path12"
   inkscape:connector-curvature="0"
   style="fill:#ffffff" />
		<path
   class="st2"
   d="m 427.3,5641.6 c 0.4,-0.2 0.6,-0.5 0.7,-0.8 0.1,-0.2 0.1,-0.4 0.2,-0.5 1.2,-0.5 1.8,-1.6 2.1,-2.8 0.2,-0.7 0.7,-1.1 1.2,-1.2 1.1,-0.3 1.3,-1.1 1.6,-1.9 0.4,-1.3 0.7,-2.7 1.6,-3.8 l 0.1,-0.1 c 0,-0.3 0,-0.5 0,-0.9 -0.7,0.1 -1.2,-0.7 -1.9,-0.4 -0.7,0.3 -1.3,0.1 -1.9,-0.1 -0.2,-0.1 -0.5,0.2 -0.9,0.3 -0.4,-0.6 -0.9,-1.2 -1.5,-1.9 -0.6,0 -1.3,0 -2.1,0 -0.8,-0.4 -1.7,-0.7 -2.6,-1.1 -0.3,0.3 -0.4,0.6 -1,0.5 -0.6,-0.2 -1.4,-0.5 -2,0.3 -0.1,-0.2 -0.2,-0.4 -0.3,-0.6 -0.3,0.4 -0.4,1 -1,1 -0.7,0.1 0,1.2 -0.8,1.3 0.2,0.6 0.3,1.2 0.5,2.1 -0.3,0.4 -0.6,1 -1,1.6 0.6,0.4 0.1,1.1 0.3,1.5 0.6,0.4 1.2,0.8 1.7,1.2 0.5,0.4 0.8,0.9 1.3,1.2 0.5,0.3 1.2,0.5 1.7,0.7 0.6,1.9 0.8,3.6 0.4,5.4 0.1,0.2 0.4,0.4 0.4,0.6 0,0.5 0,1 0.1,1.5 0,0.1 0,0.2 0,0.2 0.4,-0.1 0.7,-0.2 1.1,-0.3 0.1,0 0.2,0 0.2,-0.1 0.5,-1.2 0.8,-2.2 1.8,-2.9 z"
   id="path14"
   inkscape:connector-curvature="0"
   style="fill:#ffffff" />
		<path
   class="st2"
   d="m 438.4,5611.6 c -0.7,0.6 -0.7,1.3 -0.5,2 0.1,0.3 0.2,0.7 0.1,1 -0.4,1.3 0,2.6 -0.4,4 0.3,0 0.5,0 0.8,0 0.1,0.7 0.5,1.2 0.1,1.9 -0.1,0.2 0,0.8 0.2,1 1.1,0.6 1.1,2 2.2,2.4 0.5,-0.4 1,-0.8 1.6,-1.2 0,-1.7 -0.2,-3.4 -0.7,-5.1 -0.6,-2.5 -1.7,-4.8 -3.1,-6.9 h -0.1 c 0.1,0.2 0,0.7 -0.2,0.9 z"
   id="path16"
   inkscape:connector-curvature="0"
   style="fill:#ffffff" />
		<path
   class="st2"
   d="m 431.9,5605.4 c 0.3,0.3 0.5,0.7 0.7,0.9 0.8,0 1.4,0.1 2.2,0.1 -0.1,0.4 -0.1,0.6 -0.3,1.2 0.5,0.3 1.1,0.6 1.7,0.9 -0.2,0.3 -0.5,0.6 -0.7,0.8 0.5,0.8 0.8,1.4 1.2,2.1 0.3,0.1 0.7,0.1 1.2,0.2 -0.2,-0.6 0.6,-1.2 -0.3,-1.7 0,-0.4 -0.2,-0.7 -0.3,-1.1 -1.2,-1.4 -2.6,-2.7 -4.2,-3.8 -0.3,-0.1 -0.7,-0.1 -1.2,0.4 z"
   id="path18"
   inkscape:connector-curvature="0"
   style="fill:#ffffff" />
		<path
   class="st2"
   d="m 418.4,5623.5 c -0.4,0 -0.9,0.2 -1.1,0.1 -1,-0.6 -1.7,0 -2.6,0.2 0.5,1.1 0.8,0.2 1.1,0 1,-0.1 1.9,1.1 3,0.1 -0.1,-0.1 -0.2,-0.4 -0.4,-0.4 z"
   id="path20"
   inkscape:connector-curvature="0"
   style="fill:#ffffff" />
		<path
   class="st2"
   d="m 421.4,5610.9 c 0,0.2 -0.1,0.4 -0.2,0.6 0.7,0 1.2,0 1.8,0 -0.1,-0.3 -0.1,-0.5 -0.2,-0.7 -0.5,-0.2 -1,-0.4 -1.4,-0.5 0.1,0.2 0.1,0.4 0,0.6 z"
   id="path22"
   inkscape:connector-curvature="0"
   style="fill:#ffffff" />
		<path
   class="st2"
   d="m 419.5,5624.3 c 0.2,0.2 0.5,0.4 0.7,0.5 0.6,-0.9 1.7,-0.5 2.6,-1.2 -1.2,0.1 -2.2,0.2 -3.1,0.3 -0.1,0 -0.1,0.2 -0.2,0.4 z"
   id="path24"
   inkscape:connector-curvature="0"
   style="fill:#ffffff" />
		<path
   class="st2"
   d="m 424.9,5602.8 c 1.2,0.8 1.2,0.8 2.1,-0.1 -0.8,-0.4 -0.8,-0.4 -2.1,0.1 z"
   id="path26"
   inkscape:connector-curvature="0"
   style="fill:#ffffff" />
	</g>
</g>
<g
   id="g34"
   transform="translate(-43.1,-34.400002)">
	<text
   transform="translate(393.157,5668.8198)"
   class="st2"
   style="font-size:10px;font-family:Montserrat-Regular;fill:#ffffff"
   id="text32">PASSPORT</text>

</g>
<g
   id="g98"
   transform="translate(-19.1,-36.400002)">
	<g
   id="g96">
		<g
   id="g72">
			<g
   id="g60">
				<path
   class="st3"
   d="m 53.2,61.7 c -5.6,0 -10.1,-4.5 -10.1,-10.1 0,-5.6 4.5,-10.1 10.1,-10.1 5.6,0 10.1,4.5 10.1,10.1 0,5.6 -4.5,10.1 -10.1,10.1 z m 0,-19.3 c -5,0 -9.1,4.1 -9.1,9.1 0,5 4.1,9.1 9.1,9.1 5,0 9.1,-4.1 9.1,-9.1 0,-5 -4.1,-9.1 -9.1,-9.1 z"
   id="path36"
   inkscape:connector-curvature="0"
   style="fill:#505151" />
				<path
   class="st3"
   d="m 53.2,61.7 c -3.4,0 -6,-4.4 -6,-10.1 0,-5.7 2.6,-10.1 6,-10.1 3.4,0 6,4.4 6,10.1 0,5.7 -2.6,10.1 -6,10.1 z m 0,-19.3 c -2.7,0 -5,4.2 -5,9.1 0,4.9 2.3,9.1 5,9.1 2.7,0 5,-4.2 5,-9.1 0,-4.9 -2.3,-9.1 -5,-9.1 z"
   id="path38"
   inkscape:connector-curvature="0"
   style="fill:#505151" />
				<rect
   x="52.700001"
   y="41.900002"
   class="st3"
   width="1"
   height="19.299999"
   id="rect40"
   style="fill:#505151" />
				<rect
   x="43.700001"
   y="51"
   class="st3"
   width="19"
   height="1"
   id="rect42"
   style="fill:#505151" />
				<g
   id="g46">
					<path
   class="st4"
   d="M 60.8,47"
   id="path44"
   inkscape:connector-curvature="0"
   style="fill:none;stroke:#505151;stroke-miterlimit:10" />
				</g>
				<g
   id="g50">
					<path
   class="st4"
   d="M 45.6,47"
   id="path48"
   inkscape:connector-curvature="0"
   style="fill:none;stroke:#505151;stroke-miterlimit:10" />
				</g>
				<g
   id="g54">
					<path
   class="st4"
   d="M 60.8,55.8"
   id="path52"
   inkscape:connector-curvature="0"
   style="fill:none;stroke:#505151;stroke-miterlimit:10" />
				</g>
				<g
   id="g58">
					<path
   class="st4"
   d="M 45.6,55.8"
   id="path56"
   inkscape:connector-curvature="0"
   style="fill:none;stroke:#505151;stroke-miterlimit:10" />
				</g>
			</g>
			<g
   id="g70">
				<g
   id="g68">
					<path
   class="st0"
   d="m 76.6,61.9 c 0,5.2 -4.2,9.4 -9.4,9.4 -5.2,0 -9.4,-4.2 -9.4,-9.4 0,-5.2 4.2,-9.4 9.4,-9.4 5.2,0 9.4,4.2 9.4,9.4 z"
   id="path62"
   inkscape:connector-curvature="0"
   style="fill:#00a9ce" />
					<g
   id="g66">
						<path
   class="st2"
   d="m 67.9,69.3 h -1.4 v -1.8 c -1.1,0 -2.3,-0.3 -2.9,-0.7 l 0.5,-1.4 c 0.7,0.4 1.7,0.7 2.8,0.7 1.4,0 2.1,-0.7 2.1,-1.7 0,-0.9 -0.6,-1.5 -2.2,-2.2 -1.7,-0.7 -3,-1.5 -3,-3.1 0,-1.5 1.1,-2.7 2.9,-3 V 54.3 H 68 V 56 c 1.1,0 1.9,0.3 2.5,0.6 L 70,58.1 c -0.5,-0.2 -1.3,-0.6 -2.4,-0.6 -1.3,0 -1.9,0.8 -1.9,1.5 0,0.9 0.8,1.4 2.3,2 2,0.8 3,1.7 3,3.3 0,1.5 -1.1,2.8 -3,3.2 v 1.8 z"
   id="path64"
   inkscape:connector-curvature="0"
   style="fill:#ffffff" />
					</g>
				</g>
			</g>
		</g>
		<g
   id="g94">
			<g
   id="g82">
				<g
   id="g78">
					<path
   class="st2"
   d="m 54.9,71.1 c -5,0.7 -9.7,-2.7 -10.4,-7.8"
   id="path74"
   inkscape:connector-curvature="0"
   style="fill:#ffffff" />
					<path
   d="m 53.5,71.7 c -2.1,0 -4.1,-0.7 -5.8,-1.9 -2.1,-1.5 -3.4,-3.8 -3.8,-6.4 0,-0.3 0.1,-0.5 0.4,-0.6 0.3,0 0.5,0.1 0.6,0.4 0.3,2.3 1.5,4.3 3.4,5.7 1.9,1.4 4.2,2 6.5,1.6 0.3,0 0.5,0.1 0.6,0.4 0,0.3 -0.1,0.5 -0.4,0.6 -0.5,0.2 -1,0.2 -1.5,0.2 z"
   id="path76"
   inkscape:connector-curvature="0" />
				</g>
				<path
   class="st3"
   d="m 52.3,74.4 c -0.1,0 -0.3,0 -0.4,-0.1 -0.2,-0.2 -0.2,-0.5 0,-0.7 L 54.2,71.3 52,69 c -0.2,-0.2 -0.2,-0.5 0,-0.7 0.2,-0.2 0.5,-0.2 0.7,0 l 2.6,2.6 c 0.1,0.1 0.1,0.2 0.1,0.4 0,0.1 -0.1,0.3 -0.1,0.4 l -2.7,2.6 c 0,0 -0.2,0.1 -0.3,0.1 z"
   id="path80"
   inkscape:connector-curvature="0"
   style="fill:#505151" />
			</g>
			<g
   id="g92">
				<g
   id="g88">
					<path
   class="st2"
   d="m 65.3,42 c 5,-0.7 9.7,2.7 10.4,7.8"
   id="path84"
   inkscape:connector-curvature="0"
   style="fill:#ffffff" />
					<path
   d="m 75.7,50.3 c -0.2,0 -0.5,-0.2 -0.5,-0.4 -0.7,-4.7 -5.1,-8 -9.9,-7.3 -0.3,0 -0.5,-0.1 -0.6,-0.4 0,-0.3 0.1,-0.5 0.4,-0.6 5.3,-0.8 10.2,2.9 11,8.2 0.2,0.2 0,0.5 -0.4,0.5 0.1,0 0.1,0 0,0 z"
   id="path86"
   inkscape:connector-curvature="0" />
				</g>
				<path
   class="st3"
   d="m 67.9,45 c -0.1,0 -0.3,0 -0.4,-0.1 l -2.6,-2.6 c -0.1,-0.1 -0.1,-0.2 -0.1,-0.4 0,-0.1 0.1,-0.3 0.1,-0.4 l 2.7,-2.6 c 0.2,-0.2 0.5,-0.2 0.7,0 0.2,0.2 0.2,0.5 0,0.7 l -2.3,2.3 2.3,2.3 c 0.2,0.2 0.2,0.5 0,0.7 C 68.1,45 68,45 67.9,45 Z"
   id="path90"
   inkscape:connector-curvature="0"
   style="fill:#505151" />
			</g>
		</g>
	</g>
</g>
</svg>