<svg xmlns="http://www.w3.org/2000/svg" viewBox="0 0 3988 2864" width="3988" height="2864" preserveAspectRatio="xMidYMid meet" style="width: 100%; height: 100%; transform: translate3d(0px, 0px, 0px);"><defs><text font-family="Karla" font-style="Bold" font-weight="" style="font-size: 100px; font-family: Karla;">2</text><text font-family="Karla" font-style="Regular" font-weight="" style="font-size: 100px; font-family: Karla;">9</text><clipPath id="__lottie_element_358"><rect width="3988" height="2864" x="0" y="0"></rect></clipPath><clipPath id="__lottie_element_419"><path d="M0,0 L3988,0 L3988,2864 L0,2864z"></path></clipPath><filter id="__lottie_element_435" filterUnits="objectBoundingBox" x="0%" y="0%" width="100%" height="100%"><feComponentTransfer in="SourceGraphic"><feFuncA type="table" tableValues="1.0 0.0"></feFuncA></feComponentTransfer></filter><mask id="__lottie_element_434" mask-type="alpha"><g filter="url(#__lottie_element_435)"><rect width="3988" height="2864" x="0" y="0" fill="#ffffff" opacity="0"></rect><g transform="matrix(1,0,0,1,957.23095703125,686.1030883789062)" opacity="1" style="display: none;"><image width="1314px" height="245px" preserveAspectRatio="xMidYMid slice" xlink:href="https://assets.easyship.com/website/lottie/home/assets/banner-pricing-graphic/img_11.png"></image></g></g></mask><filter id="__lottie_element_442" filterUnits="objectBoundingBox" x="0%" y="0%" width="100%" height="100%"><feComponentTransfer in="SourceGraphic"><feFuncA type="table" tableValues="1.0 0.0"></feFuncA></feComponentTransfer></filter><mask id="__lottie_element_441" mask-type="alpha"><g filter="url(#__lottie_element_442)"><rect width="3988" height="2864" x="0" y="0" fill="#ffffff" opacity="0"></rect><g transform="matrix(1,0,0,1,957.3049926757812,1173.77099609375)" opacity="1" style="display: none;"><image width="1314px" height="245px" preserveAspectRatio="xMidYMid slice" xlink:href="https://assets.easyship.com/website/lottie/home/assets/banner-pricing-graphic/img_12.png"></image></g></g></mask><filter id="__lottie_element_449" filterUnits="objectBoundingBox" x="0%" y="0%" width="100%" height="100%"><feComponentTransfer in="SourceGraphic"><feFuncA type="table" tableValues="1.0 0.0"></feFuncA></feComponentTransfer></filter><mask id="__lottie_element_448" mask-type="alpha"><g filter="url(#__lottie_element_449)"><rect width="3988" height="2864" x="0" y="0" fill="#ffffff" opacity="0"></rect><g transform="matrix(1,0,0,1,957.2659912109375,1661.733154296875)" opacity="1" style="display: none;"><image width="1314px" height="245px" preserveAspectRatio="xMidYMid slice" xlink:href="https://assets.easyship.com/website/lottie/home/assets/banner-pricing-graphic/img_13.png"></image></g></g></mask><clipPath id="__lottie_element_453"><path d="M0,0 L3988,0 L3988,2864 L0,2864z"></path></clipPath><clipPath id="__lottie_element_481"><path d="M0,0 L3988,0 L3988,2864 L0,2864z"></path></clipPath><filter id="__lottie_element_497" filterUnits="objectBoundingBox" x="0%" y="0%" width="100%" height="100%"><feComponentTransfer in="SourceGraphic"><feFuncA type="table" tableValues="1.0 0.0"></feFuncA></feComponentTransfer></filter><mask id="__lottie_element_496" mask-type="alpha"><g filter="url(#__lottie_element_497)"><rect width="3988" height="2864" x="0" y="0" fill="#ffffff" opacity="0"></rect><g transform="matrix(1,0,0,1,957.2310180664062,686.1029663085938)" opacity="1" style="display: none;"><g opacity="1" transform="matrix(1,0,0,1,826.1849975585938,122.32599639892578)"><path fill="rgb(255,254,255)" fill-opacity="1" d=" M485.62200927734375,119.99199676513672 C485.62200927734375,119.99199676513672 -826.041015625,119.99199676513672 -826.041015625,119.99199676513672 C-826.041015625,119.99199676513672 -826.041015625,-119.99199676513672 -826.041015625,-119.99199676513672 C-826.041015625,-119.99199676513672 485.62200927734375,-119.99199676513672 485.62200927734375,-119.99199676513672 C485.62200927734375,-119.99199676513672 485.62200927734375,119.99199676513672 485.62200927734375,119.99199676513672z"></path><path stroke-linecap="butt" stroke-linejoin="miter" fill-opacity="0" stroke-miterlimit="10" stroke="rgb(228,232,236)" stroke-opacity="1" stroke-width="2" d=" M485.62200927734375,119.99199676513672 C485.62200927734375,119.99199676513672 -826.041015625,119.99199676513672 -826.041015625,119.99199676513672 C-826.041015625,119.99199676513672 -826.041015625,-119.99199676513672 -826.041015625,-119.99199676513672 C-826.041015625,-119.99199676513672 485.62200927734375,-119.99199676513672 485.62200927734375,-119.99199676513672 C485.62200927734375,-119.99199676513672 485.62200927734375,119.99199676513672 485.62200927734375,119.99199676513672z"></path></g></g></g></mask><filter id="__lottie_element_504" filterUnits="objectBoundingBox" x="0%" y="0%" width="100%" height="100%"><feComponentTransfer in="SourceGraphic"><feFuncA type="table" tableValues="1.0 0.0"></feFuncA></feComponentTransfer></filter><mask id="__lottie_element_503" mask-type="alpha"><g filter="url(#__lottie_element_504)"><rect width="3988" height="2864" x="0" y="0" fill="#ffffff" opacity="0"></rect><g transform="matrix(1,0,0,1,957.3050537109375,1173.77099609375)" opacity="1" style="display: none;"><g opacity="1" transform="matrix(1,0,0,1,826.1110229492188,122.32499694824219)"><path fill="rgb(255,254,255)" fill-opacity="1" d=" M485.62200927734375,119.99199676513672 C485.62200927734375,119.99199676513672 -826.166015625,119.99199676513672 -826.166015625,119.99199676513672 C-826.166015625,119.99199676513672 -826.166015625,-119.99199676513672 -826.166015625,-119.99199676513672 C-826.166015625,-119.99199676513672 485.62200927734375,-119.99199676513672 485.62200927734375,-119.99199676513672 C485.62200927734375,-119.99199676513672 485.62200927734375,119.99199676513672 485.62200927734375,119.99199676513672z"></path><path stroke-linecap="butt" stroke-linejoin="miter" fill-opacity="0" stroke-miterlimit="10" stroke="rgb(228,232,236)" stroke-opacity="1" stroke-width="2" d=" M485.62200927734375,119.99199676513672 C485.62200927734375,119.99199676513672 -826.166015625,119.99199676513672 -826.166015625,119.99199676513672 C-826.166015625,119.99199676513672 -826.166015625,-119.99199676513672 -826.166015625,-119.99199676513672 C-826.166015625,-119.99199676513672 485.62200927734375,-119.99199676513672 485.62200927734375,-119.99199676513672 C485.62200927734375,-119.99199676513672 485.62200927734375,119.99199676513672 485.62200927734375,119.99199676513672z"></path></g></g></g></mask><clipPath id="__lottie_element_508"><path d="M0,0 L3988,0 L3988,2864 L0,2864z"></path></clipPath><filter id="__lottie_element_524" filterUnits="objectBoundingBox" x="0%" y="0%" width="100%" height="100%"><feComponentTransfer in="SourceGraphic"><feFuncA type="table" tableValues="1.0 0.0"></feFuncA></feComponentTransfer></filter><mask id="__lottie_element_523" mask-type="alpha"><g filter="url(#__lottie_element_524)"><rect width="3988" height="2864" x="0" y="0" fill="#ffffff" opacity="0"></rect><g transform="matrix(1,0,0,1,957.2659912109375,1661.7330322265625)" opacity="1" style="display: none;"><g opacity="1" transform="matrix(1,0,0,1,826.1500244140625,122.32499694824219)"><path fill="rgb(255,254,255)" fill-opacity="1" d=" M485.62200927734375,119.99299621582031 C485.62200927734375,119.99299621582031 -825.916015625,119.99299621582031 -825.916015625,119.99299621582031 C-825.916015625,119.99299621582031 -825.916015625,-119.99299621582031 -825.916015625,-119.99299621582031 C-825.916015625,-119.99299621582031 485.62200927734375,-119.99299621582031 485.62200927734375,-119.99299621582031 C485.62200927734375,-119.99299621582031 485.62200927734375,119.99299621582031 485.62200927734375,119.99299621582031z"></path><path stroke-linecap="butt" stroke-linejoin="miter" fill-opacity="0" stroke-miterlimit="10" stroke="rgb(228,232,236)" stroke-opacity="1" stroke-width="2" d=" M485.62200927734375,119.99299621582031 C485.62200927734375,119.99299621582031 -825.916015625,119.99299621582031 -825.916015625,119.99299621582031 C-825.916015625,119.99299621582031 -825.916015625,-119.99299621582031 -825.916015625,-119.99299621582031 C-825.916015625,-119.99299621582031 485.62200927734375,-119.99299621582031 485.62200927734375,-119.99299621582031 C485.62200927734375,-119.99299621582031 485.62200927734375,119.99299621582031 485.62200927734375,119.99299621582031z"></path></g></g></g></mask><clipPath id="__lottie_element_540"><path d="M0,0 L3988,0 L3988,2864 L0,2864z"></path></clipPath><filter id="__lottie_element_565" filterUnits="objectBoundingBox" x="0%" y="0%" width="100%" height="100%"><feComponentTransfer in="SourceGraphic"><feFuncA type="table" tableValues="1.0 0.0"></feFuncA></feComponentTransfer></filter><mask id="__lottie_element_564" mask-type="alpha"><g filter="url(#__lottie_element_565)"><rect width="3988" height="2864" x="0" y="0" fill="#ffffff" opacity="0"></rect><g transform="matrix(1,0,0,1,957.2310180664062,686.1029663085938)" opacity="1" style="display: none;"><g opacity="1" transform="matrix(1,0,0,1,826.1849975585938,122.32599639892578)"><path fill="rgb(255,254,255)" fill-opacity="1" d=" M485.62200927734375,119.99199676513672 C485.62200927734375,119.99199676513672 -826.041015625,119.99199676513672 -826.041015625,119.99199676513672 C-826.041015625,119.99199676513672 -826.041015625,-119.99199676513672 -826.041015625,-119.99199676513672 C-826.041015625,-119.99199676513672 485.62200927734375,-119.99199676513672 485.62200927734375,-119.99199676513672 C485.62200927734375,-119.99199676513672 485.62200927734375,119.99199676513672 485.62200927734375,119.99199676513672z"></path><path stroke-linecap="butt" stroke-linejoin="miter" fill-opacity="0" stroke-miterlimit="10" stroke="rgb(228,232,236)" stroke-opacity="1" stroke-width="2" d=" M485.62200927734375,119.99199676513672 C485.62200927734375,119.99199676513672 -826.041015625,119.99199676513672 -826.041015625,119.99199676513672 C-826.041015625,119.99199676513672 -826.041015625,-119.99199676513672 -826.041015625,-119.99199676513672 C-826.041015625,-119.99199676513672 485.62200927734375,-119.99199676513672 485.62200927734375,-119.99199676513672 C485.62200927734375,-119.99199676513672 485.62200927734375,119.99199676513672 485.62200927734375,119.99199676513672z"></path></g></g></g></mask><filter id="__lottie_element_572" filterUnits="objectBoundingBox" x="0%" y="0%" width="100%" height="100%"><feComponentTransfer in="SourceGraphic"><feFuncA type="table" tableValues="1.0 0.0"></feFuncA></feComponentTransfer></filter><mask id="__lottie_element_571" mask-type="alpha"><g filter="url(#__lottie_element_572)"><rect width="3988" height="2864" x="0" y="0" fill="#ffffff" opacity="0"></rect><g transform="matrix(1,0,0,1,957.3050537109375,1173.77099609375)" opacity="1" style="display: none;"><g opacity="1" transform="matrix(1,0,0,1,826.1110229492188,122.32499694824219)"><path fill="rgb(255,254,255)" fill-opacity="1" d=" M485.62200927734375,119.99199676513672 C485.62200927734375,119.99199676513672 -826.166015625,119.99199676513672 -826.166015625,119.99199676513672 C-826.166015625,119.99199676513672 -826.166015625,-119.99199676513672 -826.166015625,-119.99199676513672 C-826.166015625,-119.99199676513672 485.62200927734375,-119.99199676513672 485.62200927734375,-119.99199676513672 C485.62200927734375,-119.99199676513672 485.62200927734375,119.99199676513672 485.62200927734375,119.99199676513672z"></path><path stroke-linecap="butt" stroke-linejoin="miter" fill-opacity="0" stroke-miterlimit="10" stroke="rgb(228,232,236)" stroke-opacity="1" stroke-width="2" d=" M485.62200927734375,119.99199676513672 C485.62200927734375,119.99199676513672 -826.166015625,119.99199676513672 -826.166015625,119.99199676513672 C-826.166015625,119.99199676513672 -826.166015625,-119.99199676513672 -826.166015625,-119.99199676513672 C-826.166015625,-119.99199676513672 485.62200927734375,-119.99199676513672 485.62200927734375,-119.99199676513672 C485.62200927734375,-119.99199676513672 485.62200927734375,119.99199676513672 485.62200927734375,119.99199676513672z"></path></g></g></g></mask><filter id="__lottie_element_579" filterUnits="objectBoundingBox" x="0%" y="0%" width="100%" height="100%"><feComponentTransfer in="SourceGraphic"><feFuncA type="table" tableValues="1.0 0.0"></feFuncA></feComponentTransfer></filter><mask id="__lottie_element_578" mask-type="alpha"><g filter="url(#__lottie_element_579)"><rect width="3988" height="2864" x="0" y="0" fill="#ffffff" opacity="0"></rect><g transform="matrix(1,0,0,1,957.2659912109375,1661.7330322265625)" opacity="1" style="display: none;"><g opacity="1" transform="matrix(1,0,0,1,826.1500244140625,122.32499694824219)"><path fill="rgb(255,254,255)" fill-opacity="1" d=" M485.62200927734375,119.99299621582031 C485.62200927734375,119.99299621582031 -825.916015625,119.99299621582031 -825.916015625,119.99299621582031 C-825.916015625,119.99299621582031 -825.916015625,-119.99299621582031 -825.916015625,-119.99299621582031 C-825.916015625,-119.99299621582031 485.62200927734375,-119.99299621582031 485.62200927734375,-119.99299621582031 C485.62200927734375,-119.99299621582031 485.62200927734375,119.99299621582031 485.62200927734375,119.99299621582031z"></path><path stroke-linecap="butt" stroke-linejoin="miter" fill-opacity="0" stroke-miterlimit="10" stroke="rgb(228,232,236)" stroke-opacity="1" stroke-width="2" d=" M485.62200927734375,119.99299621582031 C485.62200927734375,119.99299621582031 -825.916015625,119.99299621582031 -825.916015625,119.99299621582031 C-825.916015625,119.99299621582031 -825.916015625,-119.99299621582031 -825.916015625,-119.99299621582031 C-825.916015625,-119.99299621582031 485.62200927734375,-119.99299621582031 485.62200927734375,-119.99299621582031 C485.62200927734375,-119.99299621582031 485.62200927734375,119.99299621582031 485.62200927734375,119.99299621582031z"></path></g></g></g></mask><clipPath id="__lottie_element_583"><path d="M0,0 L3988,0 L3988,2864 L0,2864z"></path></clipPath><filter id="__lottie_element_617" filterUnits="objectBoundingBox" x="0%" y="0%" width="100%" height="100%"><feComponentTransfer in="SourceGraphic"><feFuncA type="table" tableValues="1.0 0.0"></feFuncA></feComponentTransfer></filter><mask id="__lottie_element_616" mask-type="alpha"><g filter="url(#__lottie_element_617)"><rect width="3988" height="2864" x="0" y="0" fill="#ffffff" opacity="0"></rect><g transform="matrix(1,0,0,1,957.23095703125,686.1030883789062)" opacity="1" style="display: none;"><g opacity="1" transform="matrix(1,0,0,1,826.1849975585938,122.32599639892578)"><path fill="rgb(255,254,255)" fill-opacity="1" d=" M485.62200927734375,119.99199676513672 C485.62200927734375,119.99199676513672 -826.041015625,119.99199676513672 -826.041015625,119.99199676513672 C-826.041015625,119.99199676513672 -826.041015625,-119.99199676513672 -826.041015625,-119.99199676513672 C-826.041015625,-119.99199676513672 485.62200927734375,-119.99199676513672 485.62200927734375,-119.99199676513672 C485.62200927734375,-119.99199676513672 485.62200927734375,119.99199676513672 485.62200927734375,119.99199676513672z"></path><path stroke-linecap="butt" stroke-linejoin="miter" fill-opacity="0" stroke-miterlimit="10" stroke="rgb(228,232,236)" stroke-opacity="1" stroke-width="2" d=" M485.62200927734375,119.99199676513672 C485.62200927734375,119.99199676513672 -826.041015625,119.99199676513672 -826.041015625,119.99199676513672 C-826.041015625,119.99199676513672 -826.041015625,-119.99199676513672 -826.041015625,-119.99199676513672 C-826.041015625,-119.99199676513672 485.62200927734375,-119.99199676513672 485.62200927734375,-119.99199676513672 C485.62200927734375,-119.99199676513672 485.62200927734375,119.99199676513672 485.62200927734375,119.99199676513672z"></path></g></g></g></mask><filter id="__lottie_element_624" filterUnits="objectBoundingBox" x="0%" y="0%" width="100%" height="100%"><feComponentTransfer in="SourceGraphic"><feFuncA type="table" tableValues="1.0 0.0"></feFuncA></feComponentTransfer></filter><mask id="__lottie_element_623" mask-type="alpha"><g filter="url(#__lottie_element_624)"><rect width="3988" height="2864" x="0" y="0" fill="#ffffff" opacity="0"></rect><g transform="matrix(1,0,0,1,957.3049926757812,1173.77099609375)" opacity="1" style="display: none;"><g opacity="1" transform="matrix(1,0,0,1,826.1110229492188,122.32499694824219)"><path fill="rgb(255,254,255)" fill-opacity="1" d=" M485.62200927734375,119.99199676513672 C485.62200927734375,119.99199676513672 -826.166015625,119.99199676513672 -826.166015625,119.99199676513672 C-826.166015625,119.99199676513672 -826.166015625,-119.99199676513672 -826.166015625,-119.99199676513672 C-826.166015625,-119.99199676513672 485.62200927734375,-119.99199676513672 485.62200927734375,-119.99199676513672 C485.62200927734375,-119.99199676513672 485.62200927734375,119.99199676513672 485.62200927734375,119.99199676513672z"></path><path stroke-linecap="butt" stroke-linejoin="miter" fill-opacity="0" stroke-miterlimit="10" stroke="rgb(228,232,236)" stroke-opacity="1" stroke-width="2" d=" M485.62200927734375,119.99199676513672 C485.62200927734375,119.99199676513672 -826.166015625,119.99199676513672 -826.166015625,119.99199676513672 C-826.166015625,119.99199676513672 -826.166015625,-119.99199676513672 -826.166015625,-119.99199676513672 C-826.166015625,-119.99199676513672 485.62200927734375,-119.99199676513672 485.62200927734375,-119.99199676513672 C485.62200927734375,-119.99199676513672 485.62200927734375,119.99199676513672 485.62200927734375,119.99199676513672z"></path></g></g></g></mask><filter id="__lottie_element_634" filterUnits="objectBoundingBox" x="0%" y="0%" width="100%" height="100%"><feComponentTransfer in="SourceGraphic"><feFuncA type="table" tableValues="1.0 0.0"></feFuncA></feComponentTransfer></filter><mask id="__lottie_element_633" mask-type="alpha"><g filter="url(#__lottie_element_634)"><rect width="3988" height="2864" x="0" y="0" fill="#ffffff" opacity="0"></rect><g transform="matrix(1,0,0,1,957.2659912109375,1661.733154296875)" opacity="1" style="display: none;"><g opacity="1" transform="matrix(1,0,0,1,826.1500244140625,122.32499694824219)"><path fill="rgb(255,254,255)" fill-opacity="1" d=" M485.62200927734375,119.99299621582031 C485.62200927734375,119.99299621582031 -825.916015625,119.99299621582031 -825.916015625,119.99299621582031 C-825.916015625,119.99299621582031 -825.916015625,-119.99299621582031 -825.916015625,-119.99299621582031 C-825.916015625,-119.99299621582031 485.62200927734375,-119.99299621582031 485.62200927734375,-119.99299621582031 C485.62200927734375,-119.99299621582031 485.62200927734375,119.99299621582031 485.62200927734375,119.99299621582031z"></path><path stroke-linecap="butt" stroke-linejoin="miter" fill-opacity="0" stroke-miterlimit="10" stroke="rgb(228,232,236)" stroke-opacity="1" stroke-width="2" d=" M485.62200927734375,119.99299621582031 C485.62200927734375,119.99299621582031 -825.916015625,119.99299621582031 -825.916015625,119.99299621582031 C-825.916015625,119.99299621582031 -825.916015625,-119.99299621582031 -825.916015625,-119.99299621582031 C-825.916015625,-119.99299621582031 485.62200927734375,-119.99299621582031 485.62200927734375,-119.99299621582031 C485.62200927734375,-119.99299621582031 485.62200927734375,119.99299621582031 485.62200927734375,119.99299621582031z"></path></g></g></g></mask></defs><g clip-path="url(#__lottie_element_358)"><g clip-path="url(#__lottie_element_540)" transform="matrix(1,0,0,1,-80,0)" opacity="1" style="display: none;"><g style="display: block;" transform="matrix(1.2064999341964722,0,0,1.2064999341964722,587.2179565429688,279.3638000488281)" opacity="1"><g opacity="1" transform="matrix(0.7660444378852844,-0.6427876353263855,0.6427876353263855,0.7660444378852844,-43.709556579589844,15.908981323242188)"><g opacity="1" transform="matrix(1,0,0,1,0,0)"><path stroke-linecap="round" stroke-linejoin="miter" fill-opacity="0" stroke-miterlimit="4" stroke="rgb(67,201,205)" stroke-opacity="1" stroke-width="4" d="M0 0"></path></g></g><g opacity="1" transform="matrix(-0.5,-0.8660253882408142,0.8660253882408142,-0.5,-58.88972473144531,102)"><g opacity="1" transform="matrix(1,0,0,1,0,0)"><path stroke-linecap="round" stroke-linejoin="miter" fill-opacity="0" stroke-miterlimit="4" stroke="rgb(67,201,205)" stroke-opacity="1" stroke-width="4" d="M0 0"></path></g></g><g opacity="1" transform="matrix(-0.9396926164627075,0.3420201539993286,-0.3420201539993286,-0.9396926164627075,23.257368087768555,131.8990936279297)"><g opacity="1" transform="matrix(1,0,0,1,0,0)"><path stroke-linecap="round" stroke-linejoin="miter" fill-opacity="0" stroke-miterlimit="4" stroke="rgb(67,201,205)" stroke-opacity="1" stroke-width="4" d="M0 0"></path></g></g><g opacity="1" transform="matrix(0.1736481934785843,0.9848077297210693,-0.9848077297210693,0.1736481934785843,66.9669189453125,56.191925048828125)"><g opacity="1" transform="matrix(1,0,0,1,0,0)"><path stroke-linecap="round" stroke-linejoin="miter" fill-opacity="0" stroke-miterlimit="4" stroke="rgb(67,201,205)" stroke-opacity="1" stroke-width="4" d="M0 0"></path></g></g><g opacity="1" transform="matrix(1,0,0,1,0,0.00000762939453125)"><g opacity="1" transform="matrix(1,0,0,1,0,0)"><path stroke-linecap="round" stroke-linejoin="miter" fill-opacity="0" stroke-miterlimit="4" stroke="rgb(67,201,205)" stroke-opacity="1" stroke-width="4" d="M0 0"></path></g></g><g opacity="1" transform="matrix(0.1736481636762619,-0.9848077297210693,0.9848077297210693,0.1736481636762619,-66.9669189453125,56.191925048828125)"><g opacity="1" transform="matrix(1,0,0,1,0,0)"><path stroke-linecap="round" stroke-linejoin="miter" fill-opacity="0" stroke-miterlimit="4" stroke="rgb(67,201,205)" stroke-opacity="1" stroke-width="4" d="M0 0"></path></g></g><g opacity="1" transform="matrix(-0.9396926164627075,-0.3420201241970062,0.3420201241970062,-0.9396926164627075,-23.257369995117188,131.8990936279297)"><g opacity="1" transform="matrix(1,0,0,1,0,0)"><path stroke-linecap="round" stroke-linejoin="miter" fill-opacity="0" stroke-miterlimit="4" stroke="rgb(67,201,205)" stroke-opacity="1" stroke-width="4" d="M0 0"></path></g></g><g opacity="1" transform="matrix(-0.4999999701976776,0.8660253882408142,-0.8660253882408142,-0.4999999701976776,58.88972854614258,102)"><g opacity="1" transform="matrix(1,0,0,1,0,0)"><path stroke-linecap="round" stroke-linejoin="miter" fill-opacity="0" stroke-miterlimit="4" stroke="rgb(67,201,205)" stroke-opacity="1" stroke-width="4" d="M0 0"></path></g></g><g opacity="1" transform="matrix(0.7660444378852844,0.6427875757217407,-0.6427875757217407,0.7660444378852844,43.70955276489258,15.908977508544922)"><g opacity="1" transform="matrix(1,0,0,1,0,0)"><path stroke-linecap="round" stroke-linejoin="miter" fill-opacity="0" stroke-miterlimit="4" stroke="rgb(67,201,205)" stroke-opacity="1" stroke-width="4" d="M0 0"></path></g></g><g opacity="1" transform="matrix(0.7660444378852844,-0.6427876353263855,0.6427876353263855,0.7660444378852844,-43.709556579589844,15.908981323242188)"><g opacity="1" transform="matrix(1,0,0,1,0,0)"><path stroke-linecap="round" stroke-linejoin="miter" fill-opacity="0" stroke-miterlimit="4" stroke="rgb(67,201,205)" stroke-opacity="1" stroke-width="4" d="M0 0"></path></g></g><g opacity="1" transform="matrix(-0.5,-0.8660253882408142,0.8660253882408142,-0.5,-58.88972473144531,102)"><g opacity="1" transform="matrix(1,0,0,1,0,0)"><path stroke-linecap="round" stroke-linejoin="miter" fill-opacity="0" stroke-miterlimit="4" stroke="rgb(67,201,205)" stroke-opacity="1" stroke-width="4" d="M0 0"></path></g></g><g opacity="1" transform="matrix(-0.9396926164627075,0.3420201539993286,-0.3420201539993286,-0.9396926164627075,23.257368087768555,131.8990936279297)"><g opacity="1" transform="matrix(1,0,0,1,0,0)"><path stroke-linecap="round" stroke-linejoin="miter" fill-opacity="0" stroke-miterlimit="4" stroke="rgb(67,201,205)" stroke-opacity="1" stroke-width="4" d="M0 0"></path></g></g><g opacity="1" transform="matrix(0.1736481785774231,0.9848077297210693,-0.9848077297210693,0.1736481785774231,66.96692657470703,56.191925048828125)"><g opacity="1" transform="matrix(1,0,0,1,0,0)"><path stroke-linecap="round" stroke-linejoin="miter" fill-opacity="0" stroke-miterlimit="4" stroke="rgb(67,201,205)" stroke-opacity="1" stroke-width="4" d="M0 0"></path></g></g><g opacity="1" transform="matrix(1,0,0,1,0,0)"><g opacity="1" transform="matrix(1,0,0,1,0,0)"><path stroke-linecap="round" stroke-linejoin="miter" fill-opacity="0" stroke-miterlimit="4" stroke="rgb(67,201,205)" stroke-opacity="1" stroke-width="4" d="M0 0"></path></g></g></g><g transform="matrix(0.949999988079071,0,0,0.949999988079071,357.5269470214844,144.91600036621094)" opacity="1" style="display: none;"><image width="480px" height="480px" preserveAspectRatio="xMidYMid slice" xlink:href="https://assets.easyship.com/website/lottie/home/assets/banner-pricing-graphic/img_14.png"></image></g><g transform="matrix(3.1339738368988037,0,0,3.1339738368988037,413.9632263183594,285.9409484863281)" opacity="0.8" style="display: none;"><g opacity="0.000004283060262935123" transform="matrix(0,0,0,0,50.25,50.25)"><path fill="rgb(217,255,252)" fill-opacity="1" d=" M-50,0 C-50,-27.61400032043457 -27.61400032043457,-50 0,-50 C27.61400032043457,-50 50,-27.61400032043457 50,0 C50,27.61400032043457 27.61400032043457,50 0,50 C-27.61400032043457,50 -50,27.61400032043457 -50,0z"></path></g></g><g fill="rgb(255,255,255)" font-size="110" font-family="Karla" font-style="normal" font-weight="700" aria-label="-52%" transform="matrix(0.949999988079071,0,0,0.949999988079071,585.2609252929688,402.1655578613281)" opacity="1" style="display: none;"><text text-anchor="middle" letter-spacing="0"><tspan x="0" y="0" style="display: inherit;">-52%</tspan></text></g><g style="display: block;" transform="matrix(0.7599999904632568,0,0,0.7599999904632568,584.367919921875,372.46380615234375)" opacity="1"><g opacity="1" transform="matrix(1,0,0,1,-2,-2)"><path stroke-linecap="round" stroke-linejoin="miter" fill-opacity="0" stroke-miterlimit="4" stroke="rgb(255,255,255)" stroke-opacity="1" stroke-width="10" d="M0 0"></path></g></g><g style="display: block;" transform="matrix(1.2730000019073486,0,0,1.2730000019073486,1113.6129150390625,209.51979064941406)" opacity="0.6"><path fill="rgb(255,255,255)" fill-opacity="1" d=" M-415,-35 C-325.04,-35 -252,38.04 -252,128 C-252,217.96 -325.04,291 -415,291 C-504.96,291 -578,217.96 -578,128 C-578,38.04 -504.96,-35 -415,-35z M-415,-35 C-325.04,-35 -252,38.04 -252,128 C-252,217.96 -325.04,291 -415,291 C-504.96,291 -578,217.96 -578,128 C-578,38.04 -504.96,-35 -415,-35z"></path><g opacity="1" transform="matrix(1,0,0,1,-415,128)"><path fill="rgb(255,255,255)" fill-opacity="1" d=" M0,-163 C89.95970153808594,-163 163,-89.95970153808594 163,0 C163,89.95970153808594 89.95970153808594,163 0,163 C-89.95970153808594,163 -163,89.95970153808594 -163,0 C-163,-89.95970153808594 -89.95970153808594,-163 0,-163z"></path></g><g opacity="1" transform="matrix(1,0,0,1,-415,128)"><path fill="rgb(255,255,255)" fill-opacity="1" d=" M0,-163 C89.95970153808594,-163 163,-89.95970153808594 163,0 C163,89.95970153808594 89.95970153808594,163 0,163 C-89.95970153808594,163 -163,89.95970153808594 -163,0 C-163,-89.95970153808594 -89.95970153808594,-163 0,-163z"></path></g></g></g><g clip-path="url(#__lottie_element_481)" transform="matrix(1,0,0,1,-80,0)" opacity="1" style="display: none;"><g transform="matrix(1.0160000324249268,0,0,1.0160000324249268,670.3118286132812,294.09320068359375)" opacity="1" style="display: block;"><g opacity="1" transform="matrix(0.7660444378852844,-0.6427876353263855,0.6427876353263855,0.7660444378852844,-43.709556579589844,15.908981323242188)"><g opacity="1" transform="matrix(1,0,0,1,0,0)"><path stroke-linecap="round" stroke-linejoin="miter" fill-opacity="0" stroke-miterlimit="4" stroke="rgb(67,201,205)" stroke-opacity="1" stroke-width="4" d="M0 0"></path></g></g><g opacity="1" transform="matrix(-0.5,-0.8660253882408142,0.8660253882408142,-0.5,-58.88972473144531,102)"><g opacity="1" transform="matrix(1,0,0,1,0,0)"><path stroke-linecap="round" stroke-linejoin="miter" fill-opacity="0" stroke-miterlimit="4" stroke="rgb(67,201,205)" stroke-opacity="1" stroke-width="4" d="M0 0"></path></g></g><g opacity="1" transform="matrix(-0.9396926164627075,0.3420201539993286,-0.3420201539993286,-0.9396926164627075,23.257368087768555,131.8990936279297)"><g opacity="1" transform="matrix(1,0,0,1,0,0)"><path stroke-linecap="round" stroke-linejoin="miter" fill-opacity="0" stroke-miterlimit="4" stroke="rgb(67,201,205)" stroke-opacity="1" stroke-width="4" d="M0 0"></path></g></g><g opacity="1" transform="matrix(0.1736481934785843,0.9848077297210693,-0.9848077297210693,0.1736481934785843,66.9669189453125,56.191925048828125)"><g opacity="1" transform="matrix(1,0,0,1,0,0)"><path stroke-linecap="round" stroke-linejoin="miter" fill-opacity="0" stroke-miterlimit="4" stroke="rgb(67,201,205)" stroke-opacity="1" stroke-width="4" d="M0 0"></path></g></g><g opacity="1" transform="matrix(1,0,0,1,0,0.00000762939453125)"><g opacity="1" transform="matrix(1,0,0,1,0,0)"><path stroke-linecap="round" stroke-linejoin="miter" fill-opacity="0" stroke-miterlimit="4" stroke="rgb(67,201,205)" stroke-opacity="1" stroke-width="4" d="M0 0"></path></g></g><g opacity="1" transform="matrix(0.1736481636762619,-0.9848077297210693,0.9848077297210693,0.1736481636762619,-66.9669189453125,56.191925048828125)"><g opacity="1" transform="matrix(1,0,0,1,0,0)"><path stroke-linecap="round" stroke-linejoin="miter" fill-opacity="0" stroke-miterlimit="4" stroke="rgb(67,201,205)" stroke-opacity="1" stroke-width="4" d="M0 0"></path></g></g><g opacity="1" transform="matrix(-0.9396926164627075,-0.3420201241970062,0.3420201241970062,-0.9396926164627075,-23.257369995117188,131.8990936279297)"><g opacity="1" transform="matrix(1,0,0,1,0,0)"><path stroke-linecap="round" stroke-linejoin="miter" fill-opacity="0" stroke-miterlimit="4" stroke="rgb(67,201,205)" stroke-opacity="1" stroke-width="4" d="M0 0"></path></g></g><g opacity="1" transform="matrix(-0.4999999701976776,0.8660253882408142,-0.8660253882408142,-0.4999999701976776,58.88972854614258,102)"><g opacity="1" transform="matrix(1,0,0,1,0,0)"><path stroke-linecap="round" stroke-linejoin="miter" fill-opacity="0" stroke-miterlimit="4" stroke="rgb(67,201,205)" stroke-opacity="1" stroke-width="4" d="M0 0"></path></g></g><g opacity="1" transform="matrix(0.7660444378852844,0.6427875757217407,-0.6427875757217407,0.7660444378852844,43.70955276489258,15.908977508544922)"><g opacity="1" transform="matrix(1,0,0,1,0,0)"><path stroke-linecap="round" stroke-linejoin="miter" fill-opacity="0" stroke-miterlimit="4" stroke="rgb(67,201,205)" stroke-opacity="1" stroke-width="4" d="M0 0"></path></g></g><g opacity="1" transform="matrix(0.7660444378852844,-0.6427876353263855,0.6427876353263855,0.7660444378852844,-43.709556579589844,15.908981323242188)"><g opacity="1" transform="matrix(1,0,0,1,0,0)"><path stroke-linecap="round" stroke-linejoin="miter" fill-opacity="0" stroke-miterlimit="4" stroke="rgb(67,201,205)" stroke-opacity="1" stroke-width="4" d="M0 0"></path></g></g><g opacity="1" transform="matrix(-0.5,-0.8660253882408142,0.8660253882408142,-0.5,-58.88972473144531,102)"><g opacity="1" transform="matrix(1,0,0,1,0,0)"><path stroke-linecap="round" stroke-linejoin="miter" fill-opacity="0" stroke-miterlimit="4" stroke="rgb(67,201,205)" stroke-opacity="1" stroke-width="4" d="M0 0"></path></g></g><g opacity="1" transform="matrix(-0.9396926164627075,0.3420201539993286,-0.3420201539993286,-0.9396926164627075,23.257368087768555,131.8990936279297)"><g opacity="1" transform="matrix(1,0,0,1,0,0)"><path stroke-linecap="round" stroke-linejoin="miter" fill-opacity="0" stroke-miterlimit="4" stroke="rgb(67,201,205)" stroke-opacity="1" stroke-width="4" d="M0 0"></path></g></g><g opacity="1" transform="matrix(0.1736481785774231,0.9848077297210693,-0.9848077297210693,0.1736481785774231,66.96692657470703,56.191925048828125)"><g opacity="1" transform="matrix(1,0,0,1,0,0)"><path stroke-linecap="round" stroke-linejoin="miter" fill-opacity="0" stroke-miterlimit="4" stroke="rgb(67,201,205)" stroke-opacity="1" stroke-width="4" d="M0 0"></path></g></g><g opacity="1" transform="matrix(1,0,0,1,0,0)"><g opacity="1" transform="matrix(1,0,0,1,0,0)"><path stroke-linecap="round" stroke-linejoin="miter" fill-opacity="0" stroke-miterlimit="4" stroke="rgb(67,201,205)" stroke-opacity="1" stroke-width="4" d="M0 0"></path></g></g></g><g transform="matrix(0.800000011920929,0,0,0.800000011920929,476.8878173828125,180.99508666992188)" opacity="1" style="display: none;"><image width="480px" height="480px" preserveAspectRatio="xMidYMid slice" xlink:href="https://assets.easyship.com/website/lottie/home/assets/banner-pricing-graphic/img_14.png"></image></g><g transform="matrix(2.6391360759735107,0,0,2.6391360759735107,503.69573974609375,318.58416748046875)" opacity="0.8" style="display: none;"><g opacity="0.0000024059740272264206" transform="matrix(0,0,0,0,50.25,50.25)"><path fill="rgb(217,255,252)" fill-opacity="1" d=" M-50,0 C-50,-27.61400032043457 -27.61400032043457,-50 0,-50 C27.61400032043457,-50 50,-27.61400032043457 50,0 C50,27.61400032043457 27.61400032043457,50 0,50 C-27.61400032043457,50 -50,27.61400032043457 -50,0z"></path></g></g><g fill="rgb(255,255,255)" font-size="110" font-family="Karla" font-style="normal" font-weight="700" aria-label="-48%" transform="matrix(0.800000011920929,0,0,0.800000011920929,668.663818359375,397.62628173828125)" opacity="1" style="display: none;"><text text-anchor="middle" letter-spacing="0"><tspan x="0" y="0" style="display: inherit;">-48%</tspan></text></g><g transform="matrix(0.64000004529953,0,0,0.64000004529953,667.9118041992188,372.4931945800781)" opacity="1" style="display: block;"><g opacity="1" transform="matrix(1,0,0,1,-2,-2)"><path stroke-linecap="round" stroke-linejoin="miter" fill-opacity="0" stroke-miterlimit="4" stroke="rgb(255,255,255)" stroke-opacity="1" stroke-width="10" d=" M-31.98699951171875,-223.74899291992188 C-21.53700065612793,-225.23300170898438 -10.857000350952148,-226 0,-226"></path></g></g><g transform="matrix(1.0720000267028809,0,0,1.0720000267028809,1113.591796875,235.27719116210938)" opacity="0.6" style="display: block;"><path fill="rgb(255,255,255)" fill-opacity="1" d=" M-415,-35 C-325.04,-35 -252,38.04 -252,128 C-252,217.96 -325.04,291 -415,291 C-504.96,291 -578,217.96 -578,128 C-578,38.04 -504.96,-35 -415,-35z M-415,-35 C-325.04,-35 -252,38.04 -252,128 C-252,217.96 -325.04,291 -415,291 C-504.96,291 -578,217.96 -578,128 C-578,38.04 -504.96,-35 -415,-35z"></path><g opacity="1" transform="matrix(1,0,0,1,-415,128)"><path fill="rgb(255,255,255)" fill-opacity="1" d=" M0,-163 C89.95970153808594,-163 163,-89.95970153808594 163,0 C163,89.95970153808594 89.95970153808594,163 0,163 C-89.95970153808594,163 -163,89.95970153808594 -163,0 C-163,-89.95970153808594 -89.95970153808594,-163 0,-163z"></path></g><g opacity="1" transform="matrix(1,0,0,1,-415,128)"><path fill="rgb(255,255,255)" fill-opacity="1" d=" M0,-163 C89.95970153808594,-163 163,-89.95970153808594 163,0 C163,89.95970153808594 89.95970153808594,163 0,163 C-89.95970153808594,163 -163,89.95970153808594 -163,0 C-163,-89.95970153808594 -89.95970153808594,-163 0,-163z"></path></g></g></g><g transform="matrix(1,0,0,1,646.43798828125,195.028076171875)" opacity="1" style="display: block;"><image width="3152px" height="2392px" preserveAspectRatio="xMidYMid slice" xlink:href="https://assets.easyship.com/website/lottie/home/assets/banner-pricing-graphic/img_15.png"></image></g><g clip-path="url(#__lottie_element_419)" style="display: block;" transform="matrix(1,0,0,1,-160,0)" opacity="1"><g transform="matrix(1.2699999809265137,0,0,1.2699999809265137,599.9410400390625,274.4539794921875)" opacity="1" style="display: none;"><g opacity="1" transform="matrix(0.7660444378852844,-0.6427876353263855,0.6427876353263855,0.7660444378852844,-43.709556579589844,15.908981323242188)"><g opacity="1" transform="matrix(1,0,0,1,0,0)"><path stroke-linecap="round" stroke-linejoin="miter" fill-opacity="0" stroke-miterlimit="4" stroke="rgb(67,201,205)" stroke-opacity="1" stroke-width="4" d="M0 0"></path></g></g><g opacity="1" transform="matrix(-0.5,-0.8660253882408142,0.8660253882408142,-0.5,-58.88972473144531,102)"><g opacity="1" transform="matrix(1,0,0,1,0,0)"><path stroke-linecap="round" stroke-linejoin="miter" fill-opacity="0" stroke-miterlimit="4" stroke="rgb(67,201,205)" stroke-opacity="1" stroke-width="4" d="M0 0"></path></g></g><g opacity="1" transform="matrix(-0.9396926164627075,0.3420201539993286,-0.3420201539993286,-0.9396926164627075,23.257368087768555,131.8990936279297)"><g opacity="1" transform="matrix(1,0,0,1,0,0)"><path stroke-linecap="round" stroke-linejoin="miter" fill-opacity="0" stroke-miterlimit="4" stroke="rgb(67,201,205)" stroke-opacity="1" stroke-width="4" d="M0 0"></path></g></g><g opacity="1" transform="matrix(0.1736481934785843,0.9848077297210693,-0.9848077297210693,0.1736481934785843,66.9669189453125,56.191925048828125)"><g opacity="1" transform="matrix(1,0,0,1,0,0)"><path stroke-linecap="round" stroke-linejoin="miter" fill-opacity="0" stroke-miterlimit="4" stroke="rgb(67,201,205)" stroke-opacity="1" stroke-width="4" d="M0 0"></path></g></g><g opacity="1" transform="matrix(1,0,0,1,0,0.00000762939453125)"><g opacity="1" transform="matrix(1,0,0,1,0,0)"><path stroke-linecap="round" stroke-linejoin="miter" fill-opacity="0" stroke-miterlimit="4" stroke="rgb(67,201,205)" stroke-opacity="1" stroke-width="4" d="M0 0"></path></g></g><g opacity="1" transform="matrix(0.1736481636762619,-0.9848077297210693,0.9848077297210693,0.1736481636762619,-66.9669189453125,56.191925048828125)"><g opacity="1" transform="matrix(1,0,0,1,0,0)"><path stroke-linecap="round" stroke-linejoin="miter" fill-opacity="0" stroke-miterlimit="4" stroke="rgb(67,201,205)" stroke-opacity="1" stroke-width="4" d="M0 0"></path></g></g><g opacity="1" transform="matrix(-0.9396926164627075,-0.3420201241970062,0.3420201241970062,-0.9396926164627075,-23.257369995117188,131.8990936279297)"><g opacity="1" transform="matrix(1,0,0,1,0,0)"><path stroke-linecap="round" stroke-linejoin="miter" fill-opacity="0" stroke-miterlimit="4" stroke="rgb(67,201,205)" stroke-opacity="1" stroke-width="4" d="M0 0"></path></g></g><g opacity="1" transform="matrix(-0.4999999701976776,0.8660253882408142,-0.8660253882408142,-0.4999999701976776,58.88972854614258,102)"><g opacity="1" transform="matrix(1,0,0,1,0,0)"><path stroke-linecap="round" stroke-linejoin="miter" fill-opacity="0" stroke-miterlimit="4" stroke="rgb(67,201,205)" stroke-opacity="1" stroke-width="4" d="M0 0"></path></g></g><g opacity="1" transform="matrix(0.7660444378852844,0.6427875757217407,-0.6427875757217407,0.7660444378852844,43.70955276489258,15.908977508544922)"><g opacity="1" transform="matrix(1,0,0,1,0,0)"><path stroke-linecap="round" stroke-linejoin="miter" fill-opacity="0" stroke-miterlimit="4" stroke="rgb(67,201,205)" stroke-opacity="1" stroke-width="4" d="M0 0"></path></g></g><g opacity="1" transform="matrix(0.7660444378852844,-0.6427876353263855,0.6427876353263855,0.7660444378852844,-43.709556579589844,15.908981323242188)"><g opacity="1" transform="matrix(1,0,0,1,0,0)"><path stroke-linecap="round" stroke-linejoin="miter" fill-opacity="0" stroke-miterlimit="4" stroke="rgb(67,201,205)" stroke-opacity="1" stroke-width="4" d="M0 0"></path></g></g><g opacity="1" transform="matrix(-0.5,-0.8660253882408142,0.8660253882408142,-0.5,-58.88972473144531,102)"><g opacity="1" transform="matrix(1,0,0,1,0,0)"><path stroke-linecap="round" stroke-linejoin="miter" fill-opacity="0" stroke-miterlimit="4" stroke="rgb(67,201,205)" stroke-opacity="1" stroke-width="4" d="M0 0"></path></g></g><g opacity="1" transform="matrix(-0.9396926164627075,0.3420201539993286,-0.3420201539993286,-0.9396926164627075,23.257368087768555,131.8990936279297)"><g opacity="1" transform="matrix(1,0,0,1,0,0)"><path stroke-linecap="round" stroke-linejoin="miter" fill-opacity="0" stroke-miterlimit="4" stroke="rgb(67,201,205)" stroke-opacity="1" stroke-width="4" d="M0 0"></path></g></g><g opacity="1" transform="matrix(0.1736481785774231,0.9848077297210693,-0.9848077297210693,0.1736481785774231,66.96692657470703,56.191925048828125)"><g opacity="1" transform="matrix(1,0,0,1,0,0)"><path stroke-linecap="round" stroke-linejoin="miter" fill-opacity="0" stroke-miterlimit="4" stroke="rgb(67,201,205)" stroke-opacity="1" stroke-width="4" d="M0 0"></path></g></g><g opacity="1" transform="matrix(1,0,0,1,0,0)"><g opacity="1" transform="matrix(1,0,0,1,0,0)"><path stroke-linecap="round" stroke-linejoin="miter" fill-opacity="0" stroke-miterlimit="4" stroke="rgb(67,201,205)" stroke-opacity="1" stroke-width="4" d="M0 0"></path></g></g></g><g style="display: block;" transform="matrix(1.0046906471252441,0,0,1.0046906471252441,352.6509094238281,2058.5390625)" opacity="1"><image width="480px" height="480px" preserveAspectRatio="xMidYMid slice" xlink:href="https://assets.easyship.com/website/lottie/home/assets/banner-pricing-graphic/img_14.png"></image></g><g style="display: block;" transform="matrix(3.314393997192383,0,0,3.314393997192383,426.0970764160156,2133.290283203125)" opacity="0.8"><g opacity="0.9995785569392641" transform="matrix(0,0,0,0,50.25,50.25)"><path fill="rgb(217,255,252)" fill-opacity="1" d=" M-50,0 C-50,-27.61400032043457 -27.61400032043457,-50 0,-50 C27.61400032043457,-50 50,-27.61400032043457 50,0 C50,27.61400032043457 27.61400032043457,50 0,50 C-27.61400032043457,50 -50,27.61400032043457 -50,0z"></path></g></g><g fill="rgb(255,255,255)" font-size="110" font-family="Karla" font-style="normal" font-weight="700" aria-label="-65%" transform="matrix(1.0046906471252441,0,0,1.0046906471252441,593.495361328125,2330.59814453125)" opacity="1" style="display: block;"><text text-anchor="middle" letter-spacing="0"><tspan x="0" y="0" style="display: inherit;">-65%</tspan></text></g><g transform="matrix(0.800000011920929,0,0,0.800000011920929,596.9410400390625,372.4539794921875)" opacity="1" style="display: none;"><g opacity="1" transform="matrix(1,0,0,1,-2,-2)"><path stroke-linecap="round" stroke-linejoin="miter" fill-opacity="0" stroke-miterlimit="4" stroke="rgb(255,255,255)" stroke-opacity="1" stroke-width="10" d=" M-16.884000778198242,-225.3780059814453 C-11.309000015258789,-225.7899932861328 -5.678999900817871,-226 0,-226"></path></g></g><g transform="matrix(1.340000033378601,0,0,1.340000033378601,1154.041015625,200.93399047851562)" opacity="0.6" style="display: none;"><path fill="rgb(255,255,255)" fill-opacity="1" d=" M-415,-35 C-325.04,-35 -252,38.04 -252,128 C-252,217.96 -325.04,291 -415,291 C-504.96,291 -578,217.96 -578,128 C-578,38.04 -504.96,-35 -415,-35z M-415,-35 C-325.04,-35 -252,38.04 -252,128 C-252,217.96 -325.04,291 -415,291 C-504.96,291 -578,217.96 -578,128 C-578,38.04 -504.96,-35 -415,-35z"></path><g opacity="1" transform="matrix(1,0,0,1,-415,128)"><path fill="rgb(255,255,255)" fill-opacity="1" d=" M0,-163 C89.95970153808594,-163 163,-89.95970153808594 163,0 C163,89.95970153808594 89.95970153808594,163 0,163 C-89.95970153808594,163 -163,89.95970153808594 -163,0 C-163,-89.95970153808594 -89.95970153808594,-163 0,-163z"></path></g><g opacity="1" transform="matrix(1,0,0,1,-415,128)"><path fill="rgb(255,255,255)" fill-opacity="1" d=" M0,-163 C89.95970153808594,-163 163,-89.95970153808594 163,0 C163,89.95970153808594 89.95970153808594,163 0,163 C-89.95970153808594,163 -163,89.95970153808594 -163,0 C-163,-89.95970153808594 -89.95970153808594,-163 0,-163z"></path></g></g></g><g clip-path="url(#__lottie_element_453)" style="display: none;" transform="matrix(1,0,0,1,0,0)" opacity="1"><g transform="matrix(1.4605000019073486,0,0,1.4605000019073486,522.1591186523438,259.7245788574219)" opacity="1" style="display: block;"><g opacity="1" transform="matrix(0.7660444378852844,-0.6427876353263855,0.6427876353263855,0.7660444378852844,-43.709556579589844,15.908981323242188)"><g opacity="1" transform="matrix(1,0,0,1,0,0)"><path stroke-linecap="round" stroke-linejoin="miter" fill-opacity="0" stroke-miterlimit="4" stroke="rgb(67,201,205)" stroke-opacity="1" stroke-width="4" d="M0 0"></path></g></g><g opacity="1" transform="matrix(-0.5,-0.8660253882408142,0.8660253882408142,-0.5,-58.88972473144531,102)"><g opacity="1" transform="matrix(1,0,0,1,0,0)"><path stroke-linecap="round" stroke-linejoin="miter" fill-opacity="0" stroke-miterlimit="4" stroke="rgb(67,201,205)" stroke-opacity="1" stroke-width="4" d="M0 0"></path></g></g><g opacity="1" transform="matrix(-0.9396926164627075,0.3420201539993286,-0.3420201539993286,-0.9396926164627075,23.257368087768555,131.8990936279297)"><g opacity="1" transform="matrix(1,0,0,1,0,0)"><path stroke-linecap="round" stroke-linejoin="miter" fill-opacity="0" stroke-miterlimit="4" stroke="rgb(67,201,205)" stroke-opacity="1" stroke-width="4" d="M0 0"></path></g></g><g opacity="1" transform="matrix(0.1736481934785843,0.9848077297210693,-0.9848077297210693,0.1736481934785843,66.9669189453125,56.191925048828125)"><g opacity="1" transform="matrix(1,0,0,1,0,0)"><path stroke-linecap="round" stroke-linejoin="miter" fill-opacity="0" stroke-miterlimit="4" stroke="rgb(67,201,205)" stroke-opacity="1" stroke-width="4" d="M0 0"></path></g></g><g opacity="1" transform="matrix(1,0,0,1,0,0.00000762939453125)"><g opacity="1" transform="matrix(1,0,0,1,0,0)"><path stroke-linecap="round" stroke-linejoin="miter" fill-opacity="0" stroke-miterlimit="4" stroke="rgb(67,201,205)" stroke-opacity="1" stroke-width="4" d="M0 0"></path></g></g><g opacity="1" transform="matrix(0.1736481636762619,-0.9848077297210693,0.9848077297210693,0.1736481636762619,-66.9669189453125,56.191925048828125)"><g opacity="1" transform="matrix(1,0,0,1,0,0)"><path stroke-linecap="round" stroke-linejoin="miter" fill-opacity="0" stroke-miterlimit="4" stroke="rgb(67,201,205)" stroke-opacity="1" stroke-width="4" d="M0 0"></path></g></g><g opacity="1" transform="matrix(-0.9396926164627075,-0.3420201241970062,0.3420201241970062,-0.9396926164627075,-23.257369995117188,131.8990936279297)"><g opacity="1" transform="matrix(1,0,0,1,0,0)"><path stroke-linecap="round" stroke-linejoin="miter" fill-opacity="0" stroke-miterlimit="4" stroke="rgb(67,201,205)" stroke-opacity="1" stroke-width="4" d="M0 0"></path></g></g><g opacity="1" transform="matrix(-0.4999999701976776,0.8660253882408142,-0.8660253882408142,-0.4999999701976776,58.88972854614258,102)"><g opacity="1" transform="matrix(1,0,0,1,0,0)"><path stroke-linecap="round" stroke-linejoin="miter" fill-opacity="0" stroke-miterlimit="4" stroke="rgb(67,201,205)" stroke-opacity="1" stroke-width="4" d="M0 0"></path></g></g><g opacity="1" transform="matrix(0.7660444378852844,0.6427875757217407,-0.6427875757217407,0.7660444378852844,43.70955276489258,15.908977508544922)"><g opacity="1" transform="matrix(1,0,0,1,0,0)"><path stroke-linecap="round" stroke-linejoin="miter" fill-opacity="0" stroke-miterlimit="4" stroke="rgb(67,201,205)" stroke-opacity="1" stroke-width="4" d="M0 0"></path></g></g><g opacity="1" transform="matrix(0.7660444378852844,-0.6427876353263855,0.6427876353263855,0.7660444378852844,-43.709556579589844,15.908981323242188)"><g opacity="1" transform="matrix(1,0,0,1,0,0)"><path stroke-linecap="round" stroke-linejoin="miter" fill-opacity="0" stroke-miterlimit="4" stroke="rgb(67,201,205)" stroke-opacity="1" stroke-width="4" d="M0 0"></path></g></g><g opacity="1" transform="matrix(-0.5,-0.8660253882408142,0.8660253882408142,-0.5,-58.88972473144531,102)"><g opacity="1" transform="matrix(1,0,0,1,0,0)"><path stroke-linecap="round" stroke-linejoin="miter" fill-opacity="0" stroke-miterlimit="4" stroke="rgb(67,201,205)" stroke-opacity="1" stroke-width="4" d="M0 0"></path></g></g><g opacity="1" transform="matrix(-0.9396926164627075,0.3420201539993286,-0.3420201539993286,-0.9396926164627075,23.257368087768555,131.8990936279297)"><g opacity="1" transform="matrix(1,0,0,1,0,0)"><path stroke-linecap="round" stroke-linejoin="miter" fill-opacity="0" stroke-miterlimit="4" stroke="rgb(67,201,205)" stroke-opacity="1" stroke-width="4" d="M0 0"></path></g></g><g opacity="1" transform="matrix(0.1736481785774231,0.9848077297210693,-0.9848077297210693,0.1736481785774231,66.96692657470703,56.191925048828125)"><g opacity="1" transform="matrix(1,0,0,1,0,0)"><path stroke-linecap="round" stroke-linejoin="miter" fill-opacity="0" stroke-miterlimit="4" stroke="rgb(67,201,205)" stroke-opacity="1" stroke-width="4" d="M0 0"></path></g></g><g opacity="1" transform="matrix(1,0,0,1,0,0)"><g opacity="1" transform="matrix(1,0,0,1,0,0)"><path stroke-linecap="round" stroke-linejoin="miter" fill-opacity="0" stroke-miterlimit="4" stroke="rgb(67,201,205)" stroke-opacity="1" stroke-width="4" d="M0 0"></path></g></g></g><g style="display: none;" transform="matrix(1.149999976158142,0,0,1.149999976158142,244.13671875,97.07356262207031)" opacity="1"><image width="480px" height="480px" preserveAspectRatio="xMidYMid slice" xlink:href="https://assets.easyship.com/website/lottie/home/assets/banner-pricing-graphic/img_14.png"></image></g><g style="display: none;" transform="matrix(3.793757915496826,0,0,3.793757915496826,353.5894470214844,274.7178649902344)" opacity="0.8"><g opacity="0.0000015933381253319113" transform="matrix(0,0,0,0,50.25,50.25)"><path fill="rgb(217,255,252)" fill-opacity="1" d=" M-50,0 C-50,-27.61400032043457 -27.61400032043457,-50 0,-50 C27.61400032043457,-50 50,-27.61400032043457 50,0 C50,27.61400032043457 27.61400032043457,50 0,50 C-27.61400032043457,50 -50,27.61400032043457 -50,0z"></path></g></g><g fill="rgb(255,255,255)" font-size="110" font-family="Karla" font-style="normal" font-weight="700" aria-label="-89%" transform="matrix(1.149999976158142,0,0,1.149999976158142,519.814697265625,408.48089599609375)" opacity="1" style="display: none;"><text text-anchor="middle" letter-spacing="0"><tspan x="0" y="0" style="display: inherit;">-89%</tspan></text></g><g transform="matrix(0.9200000166893005,0,0,0.9200000166893005,518.7091674804688,372.4245910644531)" opacity="1" style="display: block;"><g opacity="1" transform="matrix(1,0,0,1,-2,-2)"><path stroke-linecap="round" stroke-linejoin="miter" fill-opacity="0" stroke-miterlimit="4" stroke="rgb(255,255,255)" stroke-opacity="1" stroke-width="10" d=" M-0.8529999852180481,-225.9980010986328 C-0.5690000057220459,-225.99899291992188 -0.2840000092983246,-226 0,-226"></path></g></g><g transform="matrix(1.5410000085830688,0,0,1.5410000085830688,1159.3741455078125,175.1765899658203)" opacity="0.6" style="display: block;"><path fill="rgb(255,255,255)" fill-opacity="1" d=" M-415,-35 C-325.04,-35 -252,38.04 -252,128 C-252,217.96 -325.04,291 -415,291 C-504.96,291 -578,217.96 -578,128 C-578,38.04 -504.96,-35 -415,-35z M-415,-35 C-325.04,-35 -252,38.04 -252,128 C-252,217.96 -325.04,291 -415,291 C-504.96,291 -578,217.96 -578,128 C-578,38.04 -504.96,-35 -415,-35z"></path><g opacity="1" transform="matrix(1,0,0,1,-415,128)"><path fill="rgb(255,255,255)" fill-opacity="1" d=" M0,-163 C89.95970153808594,-163 163,-89.95970153808594 163,0 C163,89.95970153808594 89.95970153808594,163 0,163 C-89.95970153808594,163 -163,89.95970153808594 -163,0 C-163,-89.95970153808594 -89.95970153808594,-163 0,-163z"></path></g><g opacity="1" transform="matrix(1,0,0,1,-415,128)"><path fill="rgb(255,255,255)" fill-opacity="1" d=" M0,-163 C89.95970153808594,-163 163,-89.95970153808594 163,0 C163,89.95970153808594 89.95970153808594,163 0,163 C-89.95970153808594,163 -163,89.95970153808594 -163,0 C-163,-89.95970153808594 -89.95970153808594,-163 0,-163z"></path></g></g></g><g clip-path="url(#__lottie_element_508)" transform="matrix(1,0,0,1,-80,0)" opacity="1" style="display: none;"><g style="display: none;" transform="matrix(1.3969999551773071,0,0,1.3969999551773071,619.901123046875,264.6343994140625)" opacity="1"><g opacity="1" transform="matrix(0.7660444378852844,-0.6427876353263855,0.6427876353263855,0.7660444378852844,-43.709556579589844,15.908981323242188)"><g opacity="1" transform="matrix(1,0,0,1,0,0)"><path stroke-linecap="round" stroke-linejoin="miter" fill-opacity="0" stroke-miterlimit="4" stroke="rgb(67,201,205)" stroke-opacity="1" stroke-width="4" d="M0 0"></path></g></g><g opacity="1" transform="matrix(-0.5,-0.8660253882408142,0.8660253882408142,-0.5,-58.88972473144531,102)"><g opacity="1" transform="matrix(1,0,0,1,0,0)"><path stroke-linecap="round" stroke-linejoin="miter" fill-opacity="0" stroke-miterlimit="4" stroke="rgb(67,201,205)" stroke-opacity="1" stroke-width="4" d="M0 0"></path></g></g><g opacity="1" transform="matrix(-0.9396926164627075,0.3420201539993286,-0.3420201539993286,-0.9396926164627075,23.257368087768555,131.8990936279297)"><g opacity="1" transform="matrix(1,0,0,1,0,0)"><path stroke-linecap="round" stroke-linejoin="miter" fill-opacity="0" stroke-miterlimit="4" stroke="rgb(67,201,205)" stroke-opacity="1" stroke-width="4" d="M0 0"></path></g></g><g opacity="1" transform="matrix(0.1736481934785843,0.9848077297210693,-0.9848077297210693,0.1736481934785843,66.9669189453125,56.191925048828125)"><g opacity="1" transform="matrix(1,0,0,1,0,0)"><path stroke-linecap="round" stroke-linejoin="miter" fill-opacity="0" stroke-miterlimit="4" stroke="rgb(67,201,205)" stroke-opacity="1" stroke-width="4" d="M0 0"></path></g></g><g opacity="1" transform="matrix(1,0,0,1,0,0.00000762939453125)"><g opacity="1" transform="matrix(1,0,0,1,0,0)"><path stroke-linecap="round" stroke-linejoin="miter" fill-opacity="0" stroke-miterlimit="4" stroke="rgb(67,201,205)" stroke-opacity="1" stroke-width="4" d="M0 0"></path></g></g><g opacity="1" transform="matrix(0.1736481636762619,-0.9848077297210693,0.9848077297210693,0.1736481636762619,-66.9669189453125,56.191925048828125)"><g opacity="1" transform="matrix(1,0,0,1,0,0)"><path stroke-linecap="round" stroke-linejoin="miter" fill-opacity="0" stroke-miterlimit="4" stroke="rgb(67,201,205)" stroke-opacity="1" stroke-width="4" d="M0 0"></path></g></g><g opacity="1" transform="matrix(-0.9396926164627075,-0.3420201241970062,0.3420201241970062,-0.9396926164627075,-23.257369995117188,131.8990936279297)"><g opacity="1" transform="matrix(1,0,0,1,0,0)"><path stroke-linecap="round" stroke-linejoin="miter" fill-opacity="0" stroke-miterlimit="4" stroke="rgb(67,201,205)" stroke-opacity="1" stroke-width="4" d="M0 0"></path></g></g><g opacity="1" transform="matrix(-0.4999999701976776,0.8660253882408142,-0.8660253882408142,-0.4999999701976776,58.88972854614258,102)"><g opacity="1" transform="matrix(1,0,0,1,0,0)"><path stroke-linecap="round" stroke-linejoin="miter" fill-opacity="0" stroke-miterlimit="4" stroke="rgb(67,201,205)" stroke-opacity="1" stroke-width="4" d="M0 0"></path></g></g><g opacity="1" transform="matrix(0.7660444378852844,0.6427875757217407,-0.6427875757217407,0.7660444378852844,43.70955276489258,15.908977508544922)"><g opacity="1" transform="matrix(1,0,0,1,0,0)"><path stroke-linecap="round" stroke-linejoin="miter" fill-opacity="0" stroke-miterlimit="4" stroke="rgb(67,201,205)" stroke-opacity="1" stroke-width="4" d="M0 0"></path></g></g><g opacity="1" transform="matrix(0.7660444378852844,-0.6427876353263855,0.6427876353263855,0.7660444378852844,-43.709556579589844,15.908981323242188)"><g opacity="1" transform="matrix(1,0,0,1,0,0)"><path stroke-linecap="round" stroke-linejoin="miter" fill-opacity="0" stroke-miterlimit="4" stroke="rgb(67,201,205)" stroke-opacity="1" stroke-width="4" d="M0 0"></path></g></g><g opacity="1" transform="matrix(-0.5,-0.8660253882408142,0.8660253882408142,-0.5,-58.88972473144531,102)"><g opacity="1" transform="matrix(1,0,0,1,0,0)"><path stroke-linecap="round" stroke-linejoin="miter" fill-opacity="0" stroke-miterlimit="4" stroke="rgb(67,201,205)" stroke-opacity="1" stroke-width="4" d="M0 0"></path></g></g><g opacity="1" transform="matrix(-0.9396926164627075,0.3420201539993286,-0.3420201539993286,-0.9396926164627075,23.257368087768555,131.8990936279297)"><g opacity="1" transform="matrix(1,0,0,1,0,0)"><path stroke-linecap="round" stroke-linejoin="miter" fill-opacity="0" stroke-miterlimit="4" stroke="rgb(67,201,205)" stroke-opacity="1" stroke-width="4" d="M0 0"></path></g></g><g opacity="1" transform="matrix(0.1736481785774231,0.9848077297210693,-0.9848077297210693,0.1736481785774231,66.96692657470703,56.191925048828125)"><g opacity="1" transform="matrix(1,0,0,1,0,0)"><path stroke-linecap="round" stroke-linejoin="miter" fill-opacity="0" stroke-miterlimit="4" stroke="rgb(67,201,205)" stroke-opacity="1" stroke-width="4" d="M0 0"></path></g></g><g opacity="1" transform="matrix(1,0,0,1,0,0)"><g opacity="1" transform="matrix(1,0,0,1,0,0)"><path stroke-linecap="round" stroke-linejoin="miter" fill-opacity="0" stroke-miterlimit="4" stroke="rgb(67,201,205)" stroke-opacity="1" stroke-width="4" d="M0 0"></path></g></g></g><g transform="matrix(1.100000023841858,0,0,1.100000023841858,353.943115234375,109.09764862060547)" opacity="1" style="display: none;"><image width="480px" height="480px" preserveAspectRatio="xMidYMid slice" xlink:href="https://assets.easyship.com/website/lottie/home/assets/banner-pricing-graphic/img_14.png"></image></g><g transform="matrix(3.628812074661255,0,0,3.628812074661255,431.60162353515625,269.45501708984375)" opacity="0.8" style="display: none;"><g opacity="0.0000031790808307619048" transform="matrix(0,0,0,0,50.25,50.25)"><path fill="rgb(217,255,252)" fill-opacity="1" d=" M-50,0 C-50,-27.61400032043457 -27.61400032043457,-50 0,-50 C27.61400032043457,-50 50,-27.61400032043457 50,0 C50,27.61400032043457 27.61400032043457,50 0,50 C-27.61400032043457,50 -50,27.61400032043457 -50,0z"></path></g></g><g fill="rgb(255,255,255)" font-size="110" font-family="Karla" font-style="normal" font-weight="700" aria-label="-70%" transform="matrix(1.100000023841858,0,0,1.100000023841858,617.6351318359375,406.9655456542969)" opacity="1" style="display: none;"><text text-anchor="middle" letter-spacing="0"><tspan x="0" y="0" style="display: inherit;">-70%</tspan></text></g><g style="display: none;" transform="matrix(0.8800000548362732,0,0,0.8800000548362732,616.6011352539062,372.43438720703125)" opacity="1"><g opacity="1" transform="matrix(1,0,0,1,-2,-2)"><path stroke-linecap="round" stroke-linejoin="miter" fill-opacity="0" stroke-miterlimit="4" stroke="rgb(255,255,255)" stroke-opacity="1" stroke-width="10" d="M0 0"></path></g></g><g style="display: none;" transform="matrix(1.474000096321106,0,0,1.474000096321106,1229.4111328125,183.76239013671875)" opacity="0.6"><path fill="rgb(255,255,255)" fill-opacity="1" d=" M-415,-35 C-325.04,-35 -252,38.04 -252,128 C-252,217.96 -325.04,291 -415,291 C-504.96,291 -578,217.96 -578,128 C-578,38.04 -504.96,-35 -415,-35z M-415,-35 C-325.04,-35 -252,38.04 -252,128 C-252,217.96 -325.04,291 -415,291 C-504.96,291 -578,217.96 -578,128 C-578,38.04 -504.96,-35 -415,-35z"></path><g opacity="1" transform="matrix(1,0,0,1,-415,128)"><path fill="rgb(255,255,255)" fill-opacity="1" d=" M0,-163 C89.95970153808594,-163 163,-89.95970153808594 163,0 C163,89.95970153808594 89.95970153808594,163 0,163 C-89.95970153808594,163 -163,89.95970153808594 -163,0 C-163,-89.95970153808594 -89.95970153808594,-163 0,-163z"></path></g><g opacity="1" transform="matrix(1,0,0,1,-415,128)"><path fill="rgb(255,255,255)" fill-opacity="1" d=" M0,-163 C89.95970153808594,-163 163,-89.95970153808594 163,0 C163,89.95970153808594 89.95970153808594,163 0,163 C-89.95970153808594,163 -163,89.95970153808594 -163,0 C-163,-89.95970153808594 -89.95970153808594,-163 0,-163z"></path></g></g></g><g clip-path="url(#__lottie_element_583)" style="display: none;" transform="matrix(1,0,0,1,-160,0)" opacity="1"><g transform="matrix(1.3334999084472656,0,0,1.3334999084472656,670.8270263671875,269.544189453125)" opacity="1" style="display: block;"><g opacity="1" transform="matrix(0.7660444378852844,-0.6427876353263855,0.6427876353263855,0.7660444378852844,-43.709556579589844,15.908981323242188)"><g opacity="1" transform="matrix(1,0,0,1,0,0)"><path stroke-linecap="round" stroke-linejoin="miter" fill-opacity="0" stroke-miterlimit="4" stroke="rgb(67,201,205)" stroke-opacity="1" stroke-width="4" d="M0 0"></path></g></g><g opacity="1" transform="matrix(-0.5,-0.8660253882408142,0.8660253882408142,-0.5,-58.88972473144531,102)"><g opacity="1" transform="matrix(1,0,0,1,0,0)"><path stroke-linecap="round" stroke-linejoin="miter" fill-opacity="0" stroke-miterlimit="4" stroke="rgb(67,201,205)" stroke-opacity="1" stroke-width="4" d="M0 0"></path></g></g><g opacity="1" transform="matrix(-0.9396926164627075,0.3420201539993286,-0.3420201539993286,-0.9396926164627075,23.257368087768555,131.8990936279297)"><g opacity="1" transform="matrix(1,0,0,1,0,0)"><path stroke-linecap="round" stroke-linejoin="miter" fill-opacity="0" stroke-miterlimit="4" stroke="rgb(67,201,205)" stroke-opacity="1" stroke-width="4" d="M0 0"></path></g></g><g opacity="1" transform="matrix(0.1736481934785843,0.9848077297210693,-0.9848077297210693,0.1736481934785843,66.9669189453125,56.191925048828125)"><g opacity="1" transform="matrix(1,0,0,1,0,0)"><path stroke-linecap="round" stroke-linejoin="miter" fill-opacity="0" stroke-miterlimit="4" stroke="rgb(67,201,205)" stroke-opacity="1" stroke-width="4" d="M0 0"></path></g></g><g opacity="1" transform="matrix(1,0,0,1,0,0.00000762939453125)"><g opacity="1" transform="matrix(1,0,0,1,0,0)"><path stroke-linecap="round" stroke-linejoin="miter" fill-opacity="0" stroke-miterlimit="4" stroke="rgb(67,201,205)" stroke-opacity="1" stroke-width="4" d="M0 0"></path></g></g><g opacity="1" transform="matrix(0.1736481636762619,-0.9848077297210693,0.9848077297210693,0.1736481636762619,-66.9669189453125,56.191925048828125)"><g opacity="1" transform="matrix(1,0,0,1,0,0)"><path stroke-linecap="round" stroke-linejoin="miter" fill-opacity="0" stroke-miterlimit="4" stroke="rgb(67,201,205)" stroke-opacity="1" stroke-width="4" d="M0 0"></path></g></g><g opacity="1" transform="matrix(-0.9396926164627075,-0.3420201241970062,0.3420201241970062,-0.9396926164627075,-23.257369995117188,131.8990936279297)"><g opacity="1" transform="matrix(1,0,0,1,0,0)"><path stroke-linecap="round" stroke-linejoin="miter" fill-opacity="0" stroke-miterlimit="4" stroke="rgb(67,201,205)" stroke-opacity="1" stroke-width="4" d="M0 0"></path></g></g><g opacity="1" transform="matrix(-0.4999999701976776,0.8660253882408142,-0.8660253882408142,-0.4999999701976776,58.88972854614258,102)"><g opacity="1" transform="matrix(1,0,0,1,0,0)"><path stroke-linecap="round" stroke-linejoin="miter" fill-opacity="0" stroke-miterlimit="4" stroke="rgb(67,201,205)" stroke-opacity="1" stroke-width="4" d="M0 0"></path></g></g><g opacity="1" transform="matrix(0.7660444378852844,0.6427875757217407,-0.6427875757217407,0.7660444378852844,43.70955276489258,15.908977508544922)"><g opacity="1" transform="matrix(1,0,0,1,0,0)"><path stroke-linecap="round" stroke-linejoin="miter" fill-opacity="0" stroke-miterlimit="4" stroke="rgb(67,201,205)" stroke-opacity="1" stroke-width="4" d="M0 0"></path></g></g><g opacity="1" transform="matrix(0.7660444378852844,-0.6427876353263855,0.6427876353263855,0.7660444378852844,-43.709556579589844,15.908981323242188)"><g opacity="1" transform="matrix(1,0,0,1,0,0)"><path stroke-linecap="round" stroke-linejoin="miter" fill-opacity="0" stroke-miterlimit="4" stroke="rgb(67,201,205)" stroke-opacity="1" stroke-width="4" d="M0 0"></path></g></g><g opacity="1" transform="matrix(-0.5,-0.8660253882408142,0.8660253882408142,-0.5,-58.88972473144531,102)"><g opacity="1" transform="matrix(1,0,0,1,0,0)"><path stroke-linecap="round" stroke-linejoin="miter" fill-opacity="0" stroke-miterlimit="4" stroke="rgb(67,201,205)" stroke-opacity="1" stroke-width="4" d="M0 0"></path></g></g><g opacity="1" transform="matrix(-0.9396926164627075,0.3420201539993286,-0.3420201539993286,-0.9396926164627075,23.257368087768555,131.8990936279297)"><g opacity="1" transform="matrix(1,0,0,1,0,0)"><path stroke-linecap="round" stroke-linejoin="miter" fill-opacity="0" stroke-miterlimit="4" stroke="rgb(67,201,205)" stroke-opacity="1" stroke-width="4" d="M0 0"></path></g></g><g opacity="1" transform="matrix(0.1736481785774231,0.9848077297210693,-0.9848077297210693,0.1736481785774231,66.96692657470703,56.191925048828125)"><g opacity="1" transform="matrix(1,0,0,1,0,0)"><path stroke-linecap="round" stroke-linejoin="miter" fill-opacity="0" stroke-miterlimit="4" stroke="rgb(67,201,205)" stroke-opacity="1" stroke-width="4" d="M0 0"></path></g></g><g opacity="1" transform="matrix(1,0,0,1,0,0)"><g opacity="1" transform="matrix(1,0,0,1,0,0)"><path stroke-linecap="round" stroke-linejoin="miter" fill-opacity="0" stroke-miterlimit="4" stroke="rgb(67,201,205)" stroke-opacity="1" stroke-width="4" d="M0 0"></path></g></g></g><g transform="matrix(1.0499999523162842,0,0,1.0499999523162842,416.95806884765625,121.12648010253906)" opacity="1" style="display: none;"><image width="480px" height="480px" preserveAspectRatio="xMidYMid slice" xlink:href="https://assets.easyship.com/website/lottie/home/assets/banner-pricing-graphic/img_14.png"></image></g><g transform="matrix(3.4638657569885254,0,0,3.4638657569885254,475.4862976074219,276.6783752441406)" opacity="0.8" style="display: none;"><g opacity="0.000006010921545680503" transform="matrix(0,0,0,0,50.25,50.25)"><path fill="rgb(217,255,252)" fill-opacity="1" d=" M-50,0 C-50,-27.61400032043457 -27.61400032043457,-50 0,-50 C27.61400032043457,-50 50,-27.61400032043457 50,0 C50,27.61400032043457 27.61400032043457,50 0,50 C-27.61400032043457,50 -50,27.61400032043457 -50,0z"></path></g></g><g fill="rgb(255,255,255)" font-size="110" font-family="Karla" font-style="normal" font-weight="700" aria-label="-67%" transform="matrix(1.0499999523162842,0,0,1.0499999523162842,668.6640625,405.4549255371094)" opacity="1" style="display: none;"><text text-anchor="middle" letter-spacing="0"><tspan x="0" y="0" style="display: inherit;">-67%</tspan></text></g><g transform="matrix(0.8399999737739563,0,0,0.8399999737739563,667.6770629882812,372.4442138671875)" opacity="1" style="display: block;"><g opacity="1" transform="matrix(1,0,0,1,-2,-2)"><path stroke-linecap="round" stroke-linejoin="miter" fill-opacity="0" stroke-miterlimit="4" stroke="rgb(255,255,255)" stroke-opacity="1" stroke-width="10" d="M0 0"></path></g></g><g transform="matrix(1.406999945640564,0,0,1.406999945640564,1252.632080078125,192.34820556640625)" opacity="0.6" style="display: block;"><path fill="rgb(255,255,255)" fill-opacity="1" d=" M-415,-35 C-325.04,-35 -252,38.04 -252,128 C-252,217.96 -325.04,291 -415,291 C-504.96,291 -578,217.96 -578,128 C-578,38.04 -504.96,-35 -415,-35z M-415,-35 C-325.04,-35 -252,38.04 -252,128 C-252,217.96 -325.04,291 -415,291 C-504.96,291 -578,217.96 -578,128 C-578,38.04 -504.96,-35 -415,-35z"></path><g opacity="1" transform="matrix(1,0,0,1,-415,128)"><path fill="rgb(255,255,255)" fill-opacity="1" d=" M0,-163 C89.95970153808594,-163 163,-89.95970153808594 163,0 C163,89.95970153808594 89.95970153808594,163 0,163 C-89.95970153808594,163 -163,89.95970153808594 -163,0 C-163,-89.95970153808594 -89.95970153808594,-163 0,-163z"></path></g><g opacity="1" transform="matrix(1,0,0,1,-415,128)"><path fill="rgb(255,255,255)" fill-opacity="1" d=" M0,-163 C89.95970153808594,-163 163,-89.95970153808594 163,0 C163,89.95970153808594 89.95970153808594,163 0,163 C-89.95970153808594,163 -163,89.95970153808594 -163,0 C-163,-89.95970153808594 -89.95970153808594,-163 0,-163z"></path></g></g></g><g class="29" fill="rgb(69,79,92)" font-size="85" font-family="Karla" font-style="normal" font-weight="700" aria-label="$ 71.29" transform="matrix(0.7099999785423279,0,0,0.7099999785423279,3566.998046875,2125.794921875)" opacity="1" style="display: block;"><text text-anchor="end" letter-spacing="0"><tspan x="0" y="0" style="display: inherit;">$ 71.29</tspan></text></g><g class="40" style="display: none;" fill="rgb(69,79,92)" font-size="85" font-family="Karla" font-style="normal" font-weight="700" aria-label="$ 71.26" transform="matrix(0.7099999785423279,0,0,0.7099999785423279,3566.998046875,2125.794921875)" opacity="1"><text text-anchor="end" letter-spacing="0"><tspan x="0" y="0" style="display: inherit;">$ 71.26</tspan></text></g><g class="30" fill="rgb(148,163,175)" font-size="85" font-family="Karla" font-style="normal" font-weight="400" aria-label="$ 7.30" transform="matrix(0.7099999785423279,0,0,0.7099999785423279,3566.998046875,2001.7950439453125)" opacity="1" style="display: block;"><text text-anchor="end" letter-spacing="0"><tspan x="0" y="0" style="display: inherit;">$ 7.30</tspan></text></g><g class="39" style="display: none;" fill="rgb(143,158,171)" font-size="85" font-family="Karla" font-style="normal" font-weight="400" aria-label="$ 7.30" transform="matrix(0.7099999785423279,0,0,0.7099999785423279,3566.998046875,2001.7950439453125)" opacity="1"><text text-anchor="end" letter-spacing="0"><tspan x="0" y="0" style="display: inherit;">$ 7.30</tspan></text></g><g class="99" fill="rgb(148,163,175)" font-size="85" font-family="Karla" font-style="normal" font-weight="400" aria-label="$ 6.99" transform="matrix(0.7099999785423279,0,0,0.7099999785423279,3568.998046875,1877.7950439453125)" opacity="1" style="display: block;"><text text-anchor="end" letter-spacing="0"><tspan x="0" y="0" style="display: inherit;">$ 6.99</tspan></text></g><g class="38" style="display: none;" fill="rgb(143,158,171)" font-size="85" font-family="Karla" font-style="normal" font-weight="400" aria-label="$ 6.99" transform="matrix(0.7099999785423279,0,0,0.7099999785423279,3568.998046875,1877.7950439453125)" opacity="1"><text text-anchor="end" letter-spacing="0"><tspan x="0" y="0" style="display: inherit;">$ 6.99</tspan></text></g><g class="00" fill="rgb(148,163,175)" font-size="85" font-family="Karla" font-style="normal" font-weight="400" aria-label="$ 57.00" transform="matrix(0.7099999785423279,0,0,0.7099999785423279,3566.998046875,1752.7950439453125)" opacity="1" style="display: block;"><text text-anchor="end" letter-spacing="0"><tspan x="0" y="0" style="display: inherit;">$ 57.00</tspan></text></g><g class="37" style="display: none;" fill="rgb(143,158,171)" font-size="85" font-family="Karla" font-style="normal" font-weight="400" aria-label="$ 57.00" transform="matrix(0.7099999785423279,0,0,0.7099999785423279,3566.998046875,1752.7950439453125)" opacity="1"><text text-anchor="end" letter-spacing="0"><tspan x="0" y="0" style="display: inherit;">$ 57.00</tspan></text></g><g transform="matrix(1,0,0,1,957.4419555664062,1905.733154296875)" opacity="1" style="display: block;"><image width="1314px" height="245px" preserveAspectRatio="xMidYMid slice" xlink:href="https://assets.easyship.com/website/lottie/home/assets/banner-pricing-graphic/img_4.png"></image></g><g transform="matrix(1,0,0,1,958.4129638671875,1417.7711181640625)" opacity="1" style="display: block;"><image width="1313px" height="245px" preserveAspectRatio="xMidYMid slice" xlink:href="https://assets.easyship.com/website/lottie/home/assets/banner-pricing-graphic/img_3.png"></image></g><g transform="matrix(1,0,0,1,956.4679565429688,930.1030883789062)" opacity="1" style="display: block;"><image width="1314px" height="245px" preserveAspectRatio="xMidYMid slice" xlink:href="https://assets.easyship.com/website/lottie/home/assets/banner-pricing-graphic/img_2.png"></image></g><g mask="url(#__lottie_element_448)" style="display: none;"><g transform="matrix(1,0,0,1,957.2659912109375,1905.733154296875)" opacity="1"><image width="1314px" height="245px" preserveAspectRatio="xMidYMid slice" xlink:href="https://assets.easyship.com/website/lottie/home/assets/banner-pricing-graphic/img_13.png"></image></g></g><g mask="url(#__lottie_element_441)" style="display: none;"><g transform="matrix(1,0,0,1,957.3049926757812,1417.7711181640625)" opacity="1"><image width="1314px" height="245px" preserveAspectRatio="xMidYMid slice" xlink:href="https://assets.easyship.com/website/lottie/home/assets/banner-pricing-graphic/img_12.png"></image></g></g><g mask="url(#__lottie_element_434)" style="display: none;"><g transform="matrix(1,0,0,1,957.23095703125,930.1030883789062)" opacity="1"><image width="1314px" height="245px" preserveAspectRatio="xMidYMid slice" xlink:href="https://assets.easyship.com/website/lottie/home/assets/banner-pricing-graphic/img_11.png"></image></g></g><g mask="url(#__lottie_element_523)" style="display: none;"><g transform="matrix(1,0,0,1,957.2330322265625,1905.733154296875)" opacity="1"><image width="1314px" height="245px" preserveAspectRatio="xMidYMid slice" xlink:href="https://assets.easyship.com/website/lottie/home/assets/banner-pricing-graphic/img_10.png"></image></g></g><g mask="url(#__lottie_element_503)" style="display: none;"><g transform="matrix(1,0,0,1,957.2319946289062,1417.7711181640625)" opacity="1"><image width="1314px" height="245px" preserveAspectRatio="xMidYMid slice" xlink:href="https://assets.easyship.com/website/lottie/home/assets/banner-pricing-graphic/img_9.png"></image></g></g><g mask="url(#__lottie_element_496)" style="display: none;"><g transform="matrix(1,0,0,1,957.1529541015625,930.1030883789062)" opacity="1"><image width="1314px" height="245px" preserveAspectRatio="xMidYMid slice" xlink:href="https://assets.easyship.com/website/lottie/home/assets/banner-pricing-graphic/img_8.png"></image></g></g><g style="display: none;" mask="url(#__lottie_element_578)"><g transform="matrix(1,0,0,1,957.3410034179688,1905.733154296875)" opacity="1"><image width="1314px" height="245px" preserveAspectRatio="xMidYMid slice" xlink:href="https://assets.easyship.com/website/lottie/home/assets/banner-pricing-graphic/img_7.png"></image></g></g><g style="display: none;" mask="url(#__lottie_element_571)"><g transform="matrix(1,0,0,1,957.2779541015625,1417.7711181640625)" opacity="1"><image width="1314px" height="245px" preserveAspectRatio="xMidYMid slice" xlink:href="https://assets.easyship.com/website/lottie/home/assets/banner-pricing-graphic/img_6.png"></image></g></g><g style="display: none;" mask="url(#__lottie_element_564)"><g transform="matrix(1,0,0,1,957.1900024414062,930.1030883789062)" opacity="1"><image width="1314px" height="245px" preserveAspectRatio="xMidYMid slice" xlink:href="https://assets.easyship.com/website/lottie/home/assets/banner-pricing-graphic/img_5.png"></image></g></g><g style="display: none;" mask="url(#__lottie_element_633)"><g transform="matrix(1,0,0,1,957.3410034179688,1905.733154296875)" opacity="1"><image width="1314px" height="245px" preserveAspectRatio="xMidYMid slice" xlink:href="https://assets.easyship.com/website/lottie/home/assets/banner-pricing-graphic/img_4.png"></image></g></g><g style="display: none;" mask="url(#__lottie_element_623)"><g transform="matrix(1,0,0,1,957.7779541015625,1417.7711181640625)" opacity="1"><image width="1313px" height="245px" preserveAspectRatio="xMidYMid slice" xlink:href="https://assets.easyship.com/website/lottie/home/assets/banner-pricing-graphic/img_3.png"></image></g></g><g style="display: none;" mask="url(#__lottie_element_616)"><g transform="matrix(1,0,0,1,957.1900024414062,930.1030883789062)" opacity="1"><image width="1314px" height="245px" preserveAspectRatio="xMidYMid slice" xlink:href="https://assets.easyship.com/website/lottie/home/assets/banner-pricing-graphic/img_2.png"></image></g></g><g transform="matrix(1,0,0,1,1296.3800048828125,931.0210571289062)" opacity="1" style="display: block;"><image width="975px" height="1219px" preserveAspectRatio="xMidYMid slice" xlink:href="https://assets.easyship.com/website/lottie/home/assets/banner-pricing-graphic/img_1.png"></image></g><g transform="matrix(1,0,0,1,1332.76904296875,993.3770751953125)" opacity="1" style="display: block;"><image width="119px" height="119px" preserveAspectRatio="xMidYMid slice" xlink:href="https://assets.easyship.com/website/lottie/home/assets/banner-pricing-graphic/img_0.png"></image></g><g transform="matrix(1,0,0,1,1332.76904296875,1969.3770751953125)" opacity="1" style="display: none;"><image width="119px" height="119px" preserveAspectRatio="xMidYMid slice" xlink:href="https://assets.easyship.com/website/lottie/home/assets/banner-pricing-graphic/img_0.png"></image></g><g transform="matrix(1,0,0,1,1332.76904296875,1481.3770751953125)" opacity="1" style="display: none;"><image width="119px" height="119px" preserveAspectRatio="xMidYMid slice" xlink:href="https://assets.easyship.com/website/lottie/home/assets/banner-pricing-graphic/img_0.png"></image></g><g style="display: none;" transform="matrix(1,0,0,1,1332.76904296875,993.3770751953125)" opacity="1"><image width="119px" height="119px" preserveAspectRatio="xMidYMid slice" xlink:href="https://assets.easyship.com/website/lottie/home/assets/banner-pricing-graphic/img_0.png"></image></g><g style="display: none;" transform="matrix(1,0,0,1,1332.76904296875,993.3770751953125)" opacity="1"><image width="119px" height="119px" preserveAspectRatio="xMidYMid slice" xlink:href="https://assets.easyship.com/website/lottie/home/assets/banner-pricing-graphic/img_0.png"></image></g></g></svg>