<?xml version="1.0" encoding="utf-8"?>
<!-- Generator: Adobe Illustrator 25.2.1, SVG Export Plug-In . SVG Version: 6.00 Build 0)  -->
<svg version="1.1" id="Layer_1" xmlns="http://www.w3.org/2000/svg" xmlns:xlink="http://www.w3.org/1999/xlink" x="0px" y="0px"
	 viewBox="0 0 423.03 124.646" style="enable-background:new 0 0 423.03 124.646;" xml:space="preserve">
<style type="text/css">
	.st0{fill:#FFFFFF;}
</style>
<g>
	<path class="st0" d="M62.372,3.478c4.284,1.2,8.538,2.518,12.86,3.562c3.451,0.833,5.04,2.58,4.578,6.27
		c-0.316,2.525-0.061,5.121-0.061,8.639c-1.808-1.235-2.738-1.819-3.612-2.475C54.946,3.56,30.321,11.673,23.124,37.097
		c-3.42,12.081-3.129,24.204,1.575,35.937c8.927,22.27,36.174,27.657,53.102,10.629c0.455-0.458,0.963-0.864,1.498-1.339
		c2.688,8.41,1.605,10.958-5.944,14.254C47.3,107.953,16.633,97.943,6.82,73.814C-7.081,39.635,14.283,8.476,44.586,4.199
		c0.63-0.089,1.217-0.474,1.824-0.721C51.731,3.478,57.051,3.478,62.372,3.478z"/>
	<path class="st0" d="M420.517,99.676c-4.436,0.213-8.872,0.425-13.927,0.668c-0.093-2.109-0.235-3.834-0.236-5.56
		c-0.014-24.687,0.091-49.374-0.111-74.059c-0.033-4.013,1.135-6.398,4.762-8.047c3.286-1.494,6.35-3.47,9.513-5.233
		C420.517,38.189,420.517,68.932,420.517,99.676z"/>
	<path class="st0" d="M226.763,96.842c-3.101-1.674-6.418-2.709-8.644-4.86c-2.702-2.61-1.466-7.093,1.814-9.08
		c3.102-1.879,6.236-3.704,9.753-5.788c-0.768-0.573-1.184-1.042-1.706-1.248c-15.782-6.239-14.595-30.512-1.646-38.03
		c10.887-6.321,21.855-6.877,32.967-0.29c1.335,0.792,3.669,0.81,5.172,0.237c2.722-1.038,5.168-2.793,8.211-4.523
		c0,3.03,0,5.561,0,8.569c-2.167,0.614-4.619,1.309-5.829,1.652c0.643,6.035,2.354,11.76,1.601,17.144
		c-1.688,12.064-13.435,19.465-26.831,17.989c-1.485-0.164-2.965-0.371-4.444-0.589c-3.902-0.573-4.897,2.094-5.357,5
		c-0.514,3.248,1.896,3.92,4.363,4.009c6.804,0.247,13.613,0.377,20.42,0.496c6.35,0.111,11.921,1.546,14.456,8.216
		c2.315,6.092,0.484,13.944-5.371,18.237c-4.299,3.153-9.396,6.413-14.472,7.068c-8.065,1.04-16.567,0.864-24.591-0.498
		c-8.381-1.423-11.73-7.882-9.967-16.013c0.263-1.212,1.51-2.433,2.618-3.199C221.705,99.666,224.331,98.28,226.763,96.842z
		 M255.743,60.292c0.027-8.801-5.484-16.633-13.64-19.383c-6.562-2.213-10.719,0.112-12.098,6.766
		c-1.783,8.605,2.389,17.635,10.105,21.868C249.401,74.639,255.71,70.905,255.743,60.292z M242.35,96.484
		c-0.006,0.075-0.012,0.15-0.018,0.226c-2.481,0-4.966-0.082-7.441,0.038c-1.082,0.052-2.436,0.196-3.162,0.85
		c-2.776,2.501-2.453,10.947,0.354,13.744c6.275,6.253,21.973,2.642,24.928-5.734c1.485-4.21,0.101-7.233-4.338-8.184
		C249.319,96.705,245.797,96.769,242.35,96.484z"/>
	<path class="st0" d="M297.944,6.17c0,13.674,0,26.148,0,39.822c2.227-2.783,3.413-5.111,5.308-6.439
		c3.095-2.17,6.528-4.925,10.034-5.271c15.753-1.554,21.617,4.116,21.638,19.855c0.018,13.548,0.004,27.096,0.004,40.644
		c0,1.611,0,3.223,0,5.096c-4.902,0-9.303,0-14.253,0c0-6.048,0-11.95,0-17.851c-0.001-9.748,0.062-19.496-0.025-29.243
		c-0.062-7.028-3.825-10.232-10.851-9.484c-7.144,0.761-11.968,6.053-11.973,13.167c-0.009,12.557-0.002,25.113-0.003,37.67
		c0,1.779,0,3.558,0,5.671c-4.905,0-9.31,0-14.357,0c-0.085-1.687-0.247-3.415-0.248-5.143c-0.016-24.617,0.086-49.236-0.109-73.852
		c-0.032-3.992,1.162-6.444,4.653-8.278C291.026,10.82,294.039,8.64,297.944,6.17z"/>
	<path class="st0" d="M134.249,48.155c0.736-3.091,1.028-5.758,2.051-8.111c0.695-1.599,2.158-3.327,3.717-4.02
		c7.86-3.492,16.099-3.78,24.36-1.679c6.783,1.725,11.541,6.859,11.673,13.775c0.328,17.157,0.108,34.324,0.108,51.877
		c-4.669,0-9.065,0-13.827,0c-0.177-2.205-0.354-4.399-0.584-7.255c-1.284,1.067-2.31,1.619-2.913,2.467
		c-5.846,8.221-13.934,6.54-21.541,4.169c-5.545-1.728-8.613-6.536-9.281-12.442c-0.79-6.989,1.209-13.255,7.609-16.469
		c7.036-3.533,14.637-6.024,22.139-8.534c3.126-1.046,4.977-2.182,4.295-5.721c-0.184-0.956-0.012-1.978-0.036-2.968
		c-0.211-8.807-5.66-12.923-14.292-10.388C143.32,44.152,139.137,46.204,134.249,48.155z M162.027,69.913
		c-2.966,0-5.399-0.001-7.832,0c-9.537,0.007-12.986,3.883-11.911,13.387c0.621,5.493,5.367,9.339,11.082,8.981
		c5.869-0.368,8.604-3.408,8.655-9.686C162.053,78.663,162.027,74.728,162.027,69.913z"/>
	<path class="st0" d="M392.476,7.328c0,31.294,0,61.644,0,92.406c-4.555,0-8.941,0-14.161,0c0-1.736,0-3.637,0-5.537
		c0-24.11,0.146-48.222-0.125-72.329c-0.053-4.747,1.08-7.758,5.567-9.629C386.597,11.054,389.164,9.224,392.476,7.328z"/>
	<path class="st0" d="M90.586,100.14c0-3.632,0-6.562,0-9.493c0-14.516,0.165-29.034-0.102-43.545
		c-0.078-4.231,1.218-6.752,5.083-8.446c2.987-1.309,5.712-3.208,9.413-5.339c0,3.685,0,6.627,0,10.186
		c9.661-9.278,11.506-10.12,19.747-9.105c-0.205,2.183-0.345,4.416-0.641,6.629c-0.304,2.275-0.761,4.529-1.146,6.764
		c-0.403,0.088-0.837,0.326-1.014,0.202c-8.375-5.885-17.505-0.647-16.905,10.855c0.644,12.338,0.047,24.736,0.207,37.106
		c0.042,3.271-1.059,4.435-4.287,4.233C97.692,99.982,94.421,100.14,90.586,100.14z"/>
	<path class="st0" d="M203.704,99.801c-4.563,0-8.942,0-13.716,0c-0.095-1.665-0.263-3.261-0.265-4.856
		c-0.02-16.156,0.124-32.315-0.111-48.468c-0.056-3.852,1.089-6.094,4.579-7.676c3.105-1.408,5.951-3.38,9.513-5.452
		C203.704,55.909,203.704,77.682,203.704,99.801z"/>
	<path class="st0" d="M363.564,33.423c0,22.533,0,44.23,0,66.325c-4.56,0-8.936,0-13.737,0c-0.09-1.286-0.273-2.71-0.275-4.135
		c-0.02-16.644,0.066-33.289-0.086-49.932c-0.027-2.989,0.698-4.899,3.469-6.259C356.315,37.763,359.511,35.735,363.564,33.423z"/>
	<path class="st0" d="M196.41,26.611c-4.736-0.108-8.183-3.522-8.172-8.094c0.01-4.514,4.108-8.349,8.748-8.187
		c4.507,0.158,8.161,3.865,8.138,8.254C205.099,23.31,201.392,26.724,196.41,26.611z"/>
	<path class="st0" d="M356.293,26.618c-4.743-0.105-7.957-3.408-7.914-8.134c0.045-4.902,3.616-8.324,8.508-8.154
		c4.56,0.159,8.03,3.727,8.021,8.249C364.898,23.35,361.279,26.728,356.293,26.618z"/>
</g>
</svg>
