<svg xmlns="http://www.w3.org/2000/svg" viewBox="0 0 1057 609" width="1057" height="609" preserveAspectRatio="xMidYMid meet" style="width: 100%; height: 100%; transform: translate3d(0px, 0px, 0px);"><defs><clipPath id="__lottie_element_1150"><rect width="1057" height="609" x="0" y="0"></rect></clipPath><clipPath id="__lottie_element_1170"><path fill="#ffffff" clip-rule="nonzero" d=" M171.21499633789062,-0.6779999732971191 C171.21499633789062,-0.6779999732971191 -3.2850000858306885,-0.5540000200271606 -3.2850000858306885,-0.5540000200271606 C-5.701000213623047,-0.5540000200271606 -7.659999847412109,1.406000018119812 -7.659999847412109,3.822000026702881 C-7.659999847412109,6.23799991607666 -5.701000213623047,8.196999549865723 -3.2850000858306885,8.196999549865723 C-3.2850000858306885,8.196999549865723 171.21499633789062,8.071999549865723 171.21499633789062,8.071999549865723 C173.63099670410156,8.071999549865723 175.58999633789062,6.11299991607666 175.58999633789062,3.697000026702881 C175.58999633789062,1.281000018119812 173.63099670410156,-0.6779999732971191 171.21499633789062,-0.6779999732971191" fill-opacity="1"></path></clipPath><mask id="__lottie_element_1182" mask-type="alpha"><g transform="matrix(0.000008590908691985533,0,0,0.000008590908691985533,840.7302856445312,146.02735900878906)" opacity="1" style="display: none;"><g opacity="1" transform="matrix(1,0,0,1,312.75,-181.875)"><path fill="rgb(0,241,255)" fill-opacity="1" d=" M66,-7.625 C66,-7.625 66,7.625 66,7.625 C66,7.625 -66,7.625 -66,7.625 C-66,7.625 -66,-7.625 -66,-7.625 C-66,-7.625 66,-7.625 66,-7.625z"></path></g></g></mask><mask id="__lottie_element_1208" mask-type="alpha"><g transform="matrix(0.000008590908691985533,0,0,0.000008590908691985533,840.7302856445312,146.02735900878906)" opacity="1" style="display: none;"><g opacity="1" transform="matrix(1,0,0,1,311.5,-158.25)"><path fill="rgb(0,241,255)" fill-opacity="1" d=" M90.25,-13 C90.25,-13 90.25,13 90.25,13 C90.25,13 -90.25,13 -90.25,13 C-90.25,13 -90.25,-13 -90.25,-13 C-90.25,-13 90.25,-13 90.25,-13z"></path></g></g></mask><mask id="__lottie_element_1256" mask-type="alpha"><g transform="matrix(1,0,0,1,528.5,304.5)" opacity="1" style="display: block;"><g opacity="1" transform="matrix(1,0,0,1,311.375,-181.75)"><path fill="rgb(0,241,255)" fill-opacity="1" d=" M69.375,-7.75 C69.375,-7.75 69.375,7.75 69.375,7.75 C69.375,7.75 -69.375,7.75 -69.375,7.75 C-69.375,7.75 -69.375,-7.75 -69.375,-7.75 C-69.375,-7.75 69.375,-7.75 69.375,-7.75z"></path></g></g></mask><mask id="__lottie_element_1262" mask-type="alpha"><g transform="matrix(1,0,0,1,528.5,304.5)" opacity="1" style="display: block;"><g opacity="1" transform="matrix(1,0,0,1,311.875,-157.75)"><path fill="rgb(0,241,255)" fill-opacity="1" d=" M77.875,-13.75 C77.875,-13.75 77.875,13.75 77.875,13.75 C77.875,13.75 -77.875,13.75 -77.875,13.75 C-77.875,13.75 -77.875,-13.75 -77.875,-13.75 C-77.875,-13.75 77.875,-13.75 77.875,-13.75z"></path></g></g></mask></defs><g clip-path="url(#__lottie_element_1150)"><g transform="matrix(1.0499999523162842,0,0,1.0499999523162842,1.03570556640625,24.305267333984375)" opacity="1" style="display: block;"><g opacity="1" transform="matrix(1,0,0,1,514.7860107421875,285.0950012207031)"><path fill="rgb(255,200,56)" fill-opacity="1" d=" M-514.5360107421875,284.8450012207031 C-514.5360107421875,284.8450012207031 514.5360107421875,284.8450012207031 514.5360107421875,284.8450012207031 C514.5360107421875,284.8450012207031 514.5360107421875,-284.8450012207031 514.5360107421875,-284.8450012207031 C514.5360107421875,-284.8450012207031 -514.5360107421875,284.8450012207031 -514.5360107421875,284.8450012207031z"></path></g></g><g transform="matrix(1,0,0,1,389.6880187988281,15.96600341796875)" opacity="1" style="display: block;"><image width="631px" height="559px" preserveAspectRatio="xMidYMid slice" xlink:href="https://assets.easyship.com/website/lottie/home/assets/business-crowdfunding/img_7.png"></image></g><g fill="rgb(26,42,54)" font-size="30" font-family="Karla" font-style="normal" font-weight="400" aria-label="10" transform="matrix(1,0,0,1,829,277)" opacity="1" style="display: block;"><path stroke-linecap="butt" stroke-linejoin="round" stroke-miterlimit="4" d=" M1.47,-15.06 C2.53,-15.12 3.56,-15.47 4.56,-16.11 C4.56,-16.11 4.56,0 4.56,0 C4.56,0 6.9,0 6.9,0 C6.9,0 6.9,-18.93 6.9,-18.93 C6.9,-18.93 4.98,-18.93 4.98,-18.93 C3.98,-18.09 2.81,-17.58 1.47,-17.4 C1.47,-17.4 1.47,-15.06 1.47,-15.06z M13.3,-16.71 C11.97,-15.05 11.31,-12.62 11.31,-9.44 C11.31,-6.24 11.97,-3.82 13.3,-2.16 C14.63,-0.5 16.44,0.33 18.72,0.33 C21,0.33 22.8,-0.51 24.12,-2.19 C25.44,-3.87 26.1,-6.29 26.1,-9.44 C26.1,-12.59 25.44,-15 24.12,-16.68 C22.8,-18.36 21,-19.2 18.72,-19.2 C16.44,-19.2 14.63,-18.37 13.3,-16.71z M22.38,-3.8 C21.54,-2.48 20.31,-1.83 18.71,-1.83 C17.09,-1.83 15.87,-2.48 15.03,-3.8 C14.19,-5.1 13.77,-6.98 13.77,-9.44 C13.77,-11.88 14.19,-13.76 15.03,-15.08 C15.87,-16.38 17.09,-17.04 18.71,-17.04 C20.31,-17.04 21.54,-16.38 22.38,-15.08 C23.22,-13.76 23.64,-11.88 23.64,-9.44 C23.64,-6.98 23.22,-5.1 22.38,-3.8z" style="display: inherit;"></path></g><g fill="rgb(26,42,54)" font-size="30" font-family="Karla" font-style="normal" font-weight="400" aria-label="324" transform="matrix(1,0,0,1,752.5,277)" opacity="1" style="display: block;"><path stroke-linecap="butt" stroke-linejoin="round" stroke-miterlimit="4" d=" M13.28,-17.75 C12.02,-18.71 10.49,-19.2 8.66,-19.2 C6.83,-19.2 5.33,-18.8 4.17,-17.99 C3.01,-17.18 2.32,-15.94 2.1,-14.28 C2.1,-14.28 4.56,-14.28 4.56,-14.28 C4.82,-15.34 5.33,-16.07 6.08,-16.46 C6.83,-16.85 7.76,-17.04 8.88,-17.04 C10,-17.04 10.9,-16.73 11.58,-16.11 C12.26,-15.49 12.6,-14.7 12.6,-13.74 C12.6,-12.78 12.18,-12.02 11.34,-11.45 C10.5,-10.88 9.36,-10.59 7.92,-10.59 C7.92,-10.59 6.45,-10.59 6.45,-10.59 C6.45,-10.59 6.45,-8.7 6.45,-8.7 C6.45,-8.7 8.61,-8.7 8.61,-8.7 C10.27,-8.7 11.47,-8.39 12.21,-7.76 C12.95,-7.13 13.32,-6.32 13.32,-5.33 C13.32,-4.34 12.93,-3.5 12.17,-2.84 C11.39,-2.16 10.31,-1.83 8.91,-1.83 C7.51,-1.83 6.35,-2.17 5.45,-2.85 C4.53,-3.53 4.06,-4.51 4.02,-5.79 C4.02,-5.79 1.56,-5.79 1.56,-5.79 C1.56,-3.85 2.28,-2.34 3.74,-1.28 C5.18,-0.2 6.94,0.33 9,0.33 C11.06,0.33 12.72,-0.17 13.98,-1.19 C15.24,-2.19 15.87,-3.53 15.87,-5.19 C15.87,-6.41 15.5,-7.41 14.76,-8.19 C14.02,-8.97 13.05,-9.53 11.85,-9.87 C14.05,-10.65 15.15,-12.04 15.15,-14.04 C15.15,-15.54 14.52,-16.77 13.28,-17.75z M21.87,-3.09 C21.87,-3.91 22.1,-4.58 22.58,-5.09 C23.04,-5.6 23.76,-6.05 24.72,-6.45 C24.72,-6.45 28.53,-7.98 28.53,-7.98 C29.91,-8.52 30.99,-9.24 31.79,-10.14 C32.57,-11.04 32.97,-12.26 32.97,-13.79 C32.97,-15.32 32.37,-16.6 31.17,-17.64 C29.97,-18.68 28.41,-19.2 26.51,-19.2 C24.59,-19.2 23.03,-18.76 21.81,-17.88 C20.59,-17 19.93,-15.74 19.83,-14.1 C19.83,-14.1 22.44,-14.1 22.44,-14.1 C22.56,-15.1 23,-15.85 23.75,-16.35 C24.5,-16.85 25.46,-17.1 26.66,-17.1 C27.84,-17.1 28.77,-16.79 29.43,-16.19 C30.09,-15.57 30.42,-14.79 30.42,-13.83 C30.42,-12.09 29.46,-10.84 27.54,-10.08 C27.54,-10.08 23.82,-8.58 23.82,-8.58 C23.16,-8.32 22.56,-8.02 22.02,-7.68 C20.34,-6.64 19.5,-5.01 19.5,-2.79 C19.5,-2.79 19.5,0 19.5,0 C19.5,0 32.82,0 32.82,0 C32.82,0 32.82,-2.19 32.82,-2.19 C32.82,-2.19 21.87,-2.19 21.87,-2.19 C21.87,-2.19 21.87,-3.09 21.87,-3.09z M45.48,-19.14 C45.48,-19.14 35.61,-6.39 35.61,-6.39 C35.61,-6.39 35.61,-4.56 35.61,-4.56 C35.61,-4.56 45.36,-4.56 45.36,-4.56 C45.36,-4.56 45.36,0 45.36,0 C45.36,0 47.67,0 47.67,0 C47.67,0 47.67,-4.56 47.67,-4.56 C47.67,-4.56 50.94,-4.56 50.94,-4.56 C50.94,-4.56 50.94,-6.6 50.94,-6.6 C50.94,-6.6 47.67,-6.6 47.67,-6.6 C47.67,-6.6 47.67,-19.14 47.67,-19.14 C47.67,-19.14 45.48,-19.14 45.48,-19.14z M45.42,-15.39 C45.42,-15.39 45.42,-6.39 45.42,-6.39 C45.42,-6.39 38.43,-6.39 38.43,-6.39 C38.43,-6.39 45.42,-15.39 45.42,-15.39z" style="display: inherit;"></path></g><g fill="rgb(26,42,54)" font-size="30" font-family="Karla" font-style="normal" font-weight="400" aria-label="34,768" transform="matrix(1,0,0,1,772.5,225.5)" opacity="1" style="display: block;"><path stroke-linecap="butt" stroke-linejoin="round" stroke-miterlimit="4" d=" M13.28,-17.75 C12.02,-18.71 10.49,-19.2 8.66,-19.2 C6.83,-19.2 5.33,-18.8 4.17,-17.99 C3.01,-17.18 2.32,-15.94 2.1,-14.28 C2.1,-14.28 4.56,-14.28 4.56,-14.28 C4.82,-15.34 5.33,-16.07 6.08,-16.46 C6.83,-16.85 7.76,-17.04 8.88,-17.04 C10,-17.04 10.9,-16.73 11.58,-16.11 C12.26,-15.49 12.6,-14.7 12.6,-13.74 C12.6,-12.78 12.18,-12.02 11.34,-11.45 C10.5,-10.88 9.36,-10.59 7.92,-10.59 C7.92,-10.59 6.45,-10.59 6.45,-10.59 C6.45,-10.59 6.45,-8.7 6.45,-8.7 C6.45,-8.7 8.61,-8.7 8.61,-8.7 C10.27,-8.7 11.47,-8.39 12.21,-7.76 C12.95,-7.13 13.32,-6.32 13.32,-5.33 C13.32,-4.34 12.93,-3.5 12.17,-2.84 C11.39,-2.16 10.31,-1.83 8.91,-1.83 C7.51,-1.83 6.35,-2.17 5.45,-2.85 C4.53,-3.53 4.06,-4.51 4.02,-5.79 C4.02,-5.79 1.56,-5.79 1.56,-5.79 C1.56,-3.85 2.28,-2.34 3.74,-1.28 C5.18,-0.2 6.94,0.33 9,0.33 C11.06,0.33 12.72,-0.17 13.98,-1.19 C15.24,-2.19 15.87,-3.53 15.87,-5.19 C15.87,-6.41 15.5,-7.41 14.76,-8.19 C14.02,-8.97 13.05,-9.53 11.85,-9.87 C14.05,-10.65 15.15,-12.04 15.15,-14.04 C15.15,-15.54 14.52,-16.77 13.28,-17.75z M28.23,-19.14 C28.23,-19.14 18.36,-6.39 18.36,-6.39 C18.36,-6.39 18.36,-4.56 18.36,-4.56 C18.36,-4.56 28.11,-4.56 28.11,-4.56 C28.11,-4.56 28.11,0 28.11,0 C28.11,0 30.42,0 30.42,0 C30.42,0 30.42,-4.56 30.42,-4.56 C30.42,-4.56 33.69,-4.56 33.69,-4.56 C33.69,-4.56 33.69,-6.6 33.69,-6.6 C33.69,-6.6 30.42,-6.6 30.42,-6.6 C30.42,-6.6 30.42,-19.14 30.42,-19.14 C30.42,-19.14 28.23,-19.14 28.23,-19.14z M28.17,-15.39 C28.17,-15.39 28.17,-6.39 28.17,-6.39 C28.17,-6.39 21.18,-6.39 21.18,-6.39 C21.18,-6.39 28.17,-15.39 28.17,-15.39z M37.35,0.15 C37.09,1.05 36.34,1.8 35.1,2.4 C35.1,2.4 36.87,3.27 36.87,3.27 C37.77,2.83 38.44,2.25 38.88,1.55 C39.32,0.83 39.54,0.14 39.54,-0.54 C39.54,-1.22 39.35,-1.79 38.97,-2.24 C38.59,-2.69 38.12,-2.91 37.55,-2.91 C36.98,-2.91 36.53,-2.76 36.23,-2.46 C35.91,-2.16 35.76,-1.79 35.76,-1.35 C35.76,-0.91 35.91,-0.56 36.21,-0.3 C36.51,-0.04 36.89,0.11 37.35,0.15z M41.07,-18.87 C41.07,-18.87 41.07,-16.59 41.07,-16.59 C41.07,-16.59 51.15,-16.59 51.15,-16.59 C51.15,-16.59 42.09,0 42.09,0 C42.09,0 45.27,0 45.27,0 C45.27,0 53.91,-16.68 53.91,-16.68 C53.91,-16.68 53.91,-18.87 53.91,-18.87 C53.91,-18.87 41.07,-18.87 41.07,-18.87z M69.6,-14.1 C69.44,-15.62 68.83,-16.85 67.77,-17.79 C66.71,-18.73 65.34,-19.2 63.66,-19.2 C61.24,-19.2 59.33,-18.3 57.93,-16.52 C56.53,-14.72 55.83,-12.36 55.83,-9.44 C55.83,-6.5 56.52,-4.14 57.9,-2.34 C59.28,-0.54 61.09,0.36 63.33,0.36 C65.25,0.36 66.8,-0.17 67.98,-1.25 C69.16,-2.31 69.75,-3.71 69.75,-5.45 C69.75,-7.17 69.18,-8.6 68.04,-9.71 C66.9,-10.82 65.54,-11.37 63.96,-11.37 C62.38,-11.37 61.08,-10.95 60.07,-10.13 C59.06,-9.29 58.5,-7.96 58.38,-6.12 C58.28,-6.82 58.23,-7.7 58.23,-8.76 C58.23,-11.32 58.71,-13.34 59.68,-14.82 C60.65,-16.3 62.04,-17.04 63.84,-17.04 C65.64,-17.04 66.71,-16.06 67.05,-14.1 C67.05,-14.1 69.6,-14.1 69.6,-14.1z M66.16,-8.28 C66.91,-7.62 67.29,-6.71 67.29,-5.55 C67.29,-4.39 66.91,-3.48 66.16,-2.82 C65.41,-2.16 64.47,-1.83 63.33,-1.83 C62.19,-1.83 61.25,-2.16 60.51,-2.84 C59.77,-3.5 59.4,-4.39 59.4,-5.49 C59.4,-6.59 59.77,-7.49 60.52,-8.21 C61.27,-8.91 62.21,-9.27 63.34,-9.27 C64.47,-9.27 65.41,-8.94 66.16,-8.28z M74.2,-8.07 C73.39,-7.29 72.99,-6.28 72.99,-5.04 C72.99,-3.5 73.7,-2.22 75.12,-1.2 C76.54,-0.18 78.39,0.33 80.68,0.33 C82.97,0.33 84.79,-0.13 86.14,-1.05 C87.49,-1.97 88.17,-3.19 88.17,-4.71 C88.17,-5.93 87.8,-6.89 87.06,-7.61 C86.32,-8.31 85.26,-8.93 83.88,-9.45 C83.88,-9.45 83.37,-9.63 83.37,-9.63 C84.71,-9.83 85.72,-10.34 86.41,-11.16 C87.1,-11.98 87.45,-12.91 87.45,-13.95 C87.45,-15.49 86.79,-16.75 85.47,-17.73 C84.15,-18.71 82.46,-19.2 80.41,-19.2 C78.36,-19.2 76.72,-18.74 75.48,-17.82 C74.24,-16.9 73.62,-15.69 73.62,-14.19 C73.62,-12.23 74.87,-10.68 77.37,-9.54 C76.07,-9.34 75.01,-8.85 74.2,-8.07z M83.01,-7.41 C83.85,-7.11 84.51,-6.74 84.99,-6.29 C85.47,-5.84 85.71,-5.24 85.71,-4.5 C85.71,-3.76 85.25,-3.13 84.34,-2.61 C83.43,-2.09 82.2,-1.83 80.65,-1.83 C79.1,-1.83 77.85,-2.13 76.89,-2.73 C75.93,-3.33 75.45,-4.11 75.45,-5.07 C75.45,-6.03 75.83,-6.83 76.59,-7.49 C77.35,-8.13 78.36,-8.53 79.62,-8.67 C79.62,-8.67 83.01,-7.41 83.01,-7.41z M77.37,-16.19 C78.21,-16.76 79.28,-17.04 80.58,-17.04 C81.88,-17.04 82.94,-16.74 83.76,-16.16 C84.58,-15.56 84.99,-14.79 84.99,-13.85 C84.99,-12.89 84.6,-12.12 83.82,-11.54 C83.04,-10.94 82.05,-10.63 80.85,-10.59 C80.85,-10.59 78.66,-11.43 78.66,-11.43 C77.84,-11.75 77.21,-12.11 76.77,-12.5 C76.33,-12.89 76.11,-13.35 76.11,-13.89 C76.11,-14.85 76.53,-15.62 77.37,-16.19z" style="display: inherit;"></path></g><g fill="rgb(26,42,54)" font-size="30" font-family="Karla" font-style="normal" font-weight="400" aria-label="30" transform="matrix(1,0,0,1,829,277)" opacity="1" style="display: none;"><path stroke-linecap="butt" stroke-linejoin="round" stroke-miterlimit="4" d=" M13.28,-17.75 C12.02,-18.71 10.49,-19.2 8.66,-19.2 C6.83,-19.2 5.33,-18.8 4.17,-17.99 C3.01,-17.18 2.32,-15.94 2.1,-14.28 C2.1,-14.28 4.56,-14.28 4.56,-14.28 C4.82,-15.34 5.33,-16.07 6.08,-16.46 C6.83,-16.85 7.76,-17.04 8.88,-17.04 C10,-17.04 10.9,-16.73 11.58,-16.11 C12.26,-15.49 12.6,-14.7 12.6,-13.74 C12.6,-12.78 12.18,-12.02 11.34,-11.45 C10.5,-10.88 9.36,-10.59 7.92,-10.59 C7.92,-10.59 6.45,-10.59 6.45,-10.59 C6.45,-10.59 6.45,-8.7 6.45,-8.7 C6.45,-8.7 8.61,-8.7 8.61,-8.7 C10.27,-8.7 11.47,-8.39 12.21,-7.76 C12.95,-7.13 13.32,-6.32 13.32,-5.33 C13.32,-4.34 12.93,-3.5 12.17,-2.84 C11.39,-2.16 10.31,-1.83 8.91,-1.83 C7.51,-1.83 6.35,-2.17 5.45,-2.85 C4.53,-3.53 4.06,-4.51 4.02,-5.79 C4.02,-5.79 1.56,-5.79 1.56,-5.79 C1.56,-3.85 2.28,-2.34 3.74,-1.28 C5.18,-0.2 6.94,0.33 9,0.33 C11.06,0.33 12.72,-0.17 13.98,-1.19 C15.24,-2.19 15.87,-3.53 15.87,-5.19 C15.87,-6.41 15.5,-7.41 14.76,-8.19 C14.02,-8.97 13.05,-9.53 11.85,-9.87 C14.05,-10.65 15.15,-12.04 15.15,-14.04 C15.15,-15.54 14.52,-16.77 13.28,-17.75z M21.11,-16.71 C19.77,-15.05 19.11,-12.62 19.11,-9.44 C19.11,-6.24 19.77,-3.82 21.11,-2.16 C22.43,-0.5 24.24,0.33 26.52,0.33 C28.8,0.33 30.6,-0.51 31.92,-2.19 C33.24,-3.87 33.9,-6.29 33.9,-9.44 C33.9,-12.59 33.24,-15 31.92,-16.68 C30.6,-18.36 28.8,-19.2 26.52,-19.2 C24.24,-19.2 22.43,-18.37 21.11,-16.71z M30.18,-3.8 C29.34,-2.48 28.11,-1.83 26.51,-1.83 C24.89,-1.83 23.67,-2.48 22.83,-3.8 C21.99,-5.1 21.57,-6.98 21.57,-9.44 C21.57,-11.88 21.99,-13.76 22.83,-15.08 C23.67,-16.38 24.89,-17.04 26.51,-17.04 C28.11,-17.04 29.34,-16.38 30.18,-15.08 C31.02,-13.76 31.44,-11.88 31.44,-9.44 C31.44,-6.98 31.02,-5.1 30.18,-3.8z" style="display: inherit;"></path></g><g fill="rgb(26,42,54)" font-size="30" font-family="Karla" font-style="normal" font-weight="400" aria-label="0" transform="matrix(1,0,0,1,752.5,277)" opacity="1" style="display: none;"><path stroke-linecap="butt" stroke-linejoin="round" stroke-miterlimit="4" d=" M3.53,-16.71 C2.19,-15.05 1.53,-12.62 1.53,-9.44 C1.53,-6.24 2.19,-3.82 3.53,-2.16 C4.85,-0.5 6.66,0.33 8.94,0.33 C11.22,0.33 13.02,-0.51 14.34,-2.19 C15.66,-3.87 16.32,-6.29 16.32,-9.44 C16.32,-12.59 15.66,-15 14.34,-16.68 C13.02,-18.36 11.22,-19.2 8.94,-19.2 C6.66,-19.2 4.85,-18.37 3.53,-16.71z M12.6,-3.8 C11.76,-2.48 10.53,-1.83 8.93,-1.83 C7.31,-1.83 6.09,-2.48 5.25,-3.8 C4.41,-5.1 3.99,-6.98 3.99,-9.44 C3.99,-11.88 4.41,-13.76 5.25,-15.08 C6.09,-16.38 7.31,-17.04 8.93,-17.04 C10.53,-17.04 11.76,-16.38 12.6,-15.08 C13.44,-13.76 13.86,-11.88 13.86,-9.44 C13.86,-6.98 13.44,-5.1 12.6,-3.8z" style="display: inherit;"></path></g><g fill="rgb(26,42,54)" font-size="30" font-family="Karla" font-style="normal" font-weight="400" aria-label="0" transform="matrix(1,0,0,1,772.5,225.5)" opacity="1" style="display: none;"><path stroke-linecap="butt" stroke-linejoin="round" stroke-miterlimit="4" d=" M3.53,-16.71 C2.19,-15.05 1.53,-12.62 1.53,-9.44 C1.53,-6.24 2.19,-3.82 3.53,-2.16 C4.85,-0.5 6.66,0.33 8.94,0.33 C11.22,0.33 13.02,-0.51 14.34,-2.19 C15.66,-3.87 16.32,-6.29 16.32,-9.44 C16.32,-12.59 15.66,-15 14.34,-16.68 C13.02,-18.36 11.22,-19.2 8.94,-19.2 C6.66,-19.2 4.85,-18.37 3.53,-16.71z M12.6,-3.8 C11.76,-2.48 10.53,-1.83 8.93,-1.83 C7.31,-1.83 6.09,-2.48 5.25,-3.8 C4.41,-5.1 3.99,-6.98 3.99,-9.44 C3.99,-11.88 4.41,-13.76 5.25,-15.08 C6.09,-16.38 7.31,-17.04 8.93,-17.04 C10.53,-17.04 11.76,-16.38 12.6,-15.08 C13.44,-13.76 13.86,-11.88 13.86,-9.44 C13.86,-6.98 13.44,-5.1 12.6,-3.8z" style="display: inherit;"></path></g><g fill="rgb(26,42,54)" font-size="30" font-family="Karla" font-style="normal" font-weight="400" aria-label="$" transform="matrix(1,0,0,1,752.5,225.5)" opacity="1" style="display: block;"><path stroke-linecap="butt" stroke-linejoin="round" stroke-miterlimit="4" d=" M10.41,-10.59 C10.41,-10.59 10.41,-17.04 10.41,-17.04 C12.35,-16.8 13.49,-15.88 13.83,-14.28 C13.83,-14.28 16.17,-14.28 16.17,-14.28 C15.95,-15.64 15.37,-16.75 14.43,-17.61 C13.49,-18.47 12.15,-18.97 10.41,-19.11 C10.41,-19.11 10.41,-21.39 10.41,-21.39 C10.41,-21.39 8.55,-21.39 8.55,-21.39 C8.55,-21.39 8.55,-19.14 8.55,-19.14 C6.57,-19 5.07,-18.48 4.07,-17.6 C3.05,-16.7 2.55,-15.59 2.55,-14.25 C2.55,-12.91 2.97,-11.88 3.83,-11.16 C4.67,-10.44 5.93,-9.82 7.59,-9.3 C7.59,-9.3 8.55,-8.94 8.55,-8.94 C8.55,-8.94 8.55,-1.89 8.55,-1.89 C5.77,-2.15 4.38,-3.41 4.38,-5.67 C4.38,-5.67 2.07,-5.67 2.07,-5.67 C2.07,-3.93 2.67,-2.54 3.89,-1.52 C5.09,-0.48 6.65,0.11 8.55,0.27 C8.55,0.27 8.55,2.73 8.55,2.73 C8.55,2.73 10.41,2.73 10.41,2.73 C10.41,2.73 10.41,0.3 10.41,0.3 C12.45,0.18 14.04,-0.38 15.18,-1.4 C16.32,-2.4 16.89,-3.57 16.89,-4.91 C16.89,-6.23 16.5,-7.28 15.74,-8.06 C14.96,-8.82 13.89,-9.44 12.51,-9.9 C12.51,-9.9 10.41,-10.59 10.41,-10.59z M13.28,-2.94 C12.62,-2.32 11.67,-1.96 10.41,-1.86 C10.41,-1.86 10.41,-8.46 10.41,-8.46 C10.41,-8.46 11.49,-8.1 11.49,-8.1 C13.33,-7.52 14.25,-6.49 14.25,-5.01 C14.25,-4.25 13.92,-3.56 13.28,-2.94z M8.55,-17.07 C8.55,-17.07 8.55,-11.1 8.55,-11.1 C8.55,-11.1 7.65,-11.43 7.65,-11.43 C6.75,-11.71 6.1,-12.05 5.7,-12.47 C5.3,-12.87 5.1,-13.44 5.1,-14.18 C5.1,-14.9 5.39,-15.54 5.97,-16.08 C6.55,-16.62 7.41,-16.95 8.55,-17.07z" style="display: inherit;"></path></g><g clip-path="url(#__lottie_element_1170)" transform="matrix(1,0,0,1,753.1599731445312,182.0540008544922)" opacity="1" style="display: block;"><image width="176px" height="7px" preserveAspectRatio="xMidYMid slice" xlink:href="https://assets.easyship.com/website/lottie/home/assets/business-crowdfunding/img_6.png"></image></g><g transform="matrix(1,0,0,1,103.22601318359375,-2.376007080078125)" opacity="1" style="display: block;"><image width="417px" height="612px" preserveAspectRatio="xMidYMid slice" xlink:href="https://assets.easyship.com/website/lottie/home/assets/business-crowdfunding/img_5.png"></image></g><g transform="matrix(1,0,0,1,645.6319580078125,286.35498046875)" opacity="1" style="display: block;"><image width="418px" height="361px" preserveAspectRatio="xMidYMid slice" xlink:href="https://assets.easyship.com/website/lottie/home/assets/business-crowdfunding/img_4.png"></image></g><g mask="url(#__lottie_element_1262)" style="display: block;"><g transform="matrix(1,0,0,1,766.8970336914062,135.5540008544922)" opacity="1"><image width="148px" height="23px" preserveAspectRatio="xMidYMid slice" xlink:href="https://assets.easyship.com/website/lottie/home/assets/business-crowdfunding/img_3.png"></image></g></g><g mask="url(#__lottie_element_1256)" style="display: block;"><g transform="matrix(1,0,0,1,773.1690063476562,116.80400848388672)" opacity="1"><image width="135px" height="14px" preserveAspectRatio="xMidYMid slice" xlink:href="https://assets.easyship.com/website/lottie/home/assets/business-crowdfunding/img_2.png"></image></g></g><g mask="url(#__lottie_element_1208)" style="display: none;"><g transform="matrix(0.000008590908691985533,0,0,0.000008590908691985533,840.7322387695312,146.02590942382812)" opacity="0.000003767237404304069"><image width="176px" height="22px" preserveAspectRatio="xMidYMid slice" xlink:href="https://assets.easyship.com/website/lottie/home/assets/business-crowdfunding/img_1.png"></image></g></g><g mask="url(#__lottie_element_1182)" style="display: none;"><g transform="matrix(0.000008590908691985533,0,0,0.000008590908691985533,840.732421875,146.0257568359375)" opacity="0.000003767237404304069"><image width="122px" height="14px" preserveAspectRatio="xMidYMid slice" xlink:href="https://assets.easyship.com/website/lottie/home/assets/business-crowdfunding/img_0.png"></image></g></g></g></svg>