<?xml version="1.0" encoding="utf-8"?>
<!-- Generator: Adobe Illustrator 25.2.1, SVG Export Plug-In . SVG Version: 6.00 Build 0)  -->
<svg version="1.1" id="Layer_1" xmlns="http://www.w3.org/2000/svg" xmlns:xlink="http://www.w3.org/1999/xlink" x="0px" y="0px"
	 viewBox="0 0 1000 200" style="enable-background:new 0 0 1000 200;" xml:space="preserve">
<style type="text/css">
	.st0{fill:#FFFFFF;}
</style>
<g>
	<path class="st0" d="M25.998,110.763c5.189,28.38,20.28,48.352,46.745,58.709c7.882,3.084,16.757,3.932,25.278,4.987
		c6.909,0.856,11.169,4.103,11.1,10.187c-0.07,6.149-4.927,10.198-11.893,9.913c-47.016-1.919-83.891-34.656-90.984-80.772
		C-1.25,65.055,32.765,17.598,81.616,8.629c57.187-10.498,109.32,31.357,111.263,89.329c0.302,9.014-3.337,12.796-12.453,12.798
		c-49.308,0.014-98.615,0.007-147.923,0.007C30.527,110.763,28.55,110.763,25.998,110.763z M171.84,90.529
		c-2.008-26.98-26.817-62.235-70.408-63.493C56.787,25.748,28.803,61.498,26.62,90.529C75.029,90.529,123.426,90.529,171.84,90.529z
		"/>
	<path class="st0" d="M828.239,110.763c4.135,35.205,35.114,63.012,70.43,63.844c1.823,0.043,3.715-0.013,5.447,0.452
		c4.557,1.222,7.467,6.026,6.842,10.866c-0.664,5.146-5.257,8.866-11.133,8.627c-30.988-1.263-56.431-13.684-74.691-38.941
		c-41.099-56.846-7.68-136.634,61.598-147.672c55.191-8.793,106.516,33.85,108.096,89.812c0.26,9.229-3.442,13.005-12.864,13.007
		c-49.14,0.011-98.281,0.005-147.421,0.005C832.561,110.763,830.577,110.763,828.239,110.763z M973.663,90.549
		c-0.188-31.414-34.434-62.633-69.757-63.596c-44.455-1.212-72.852,33.583-75.516,63.596
		C876.826,90.549,925.244,90.549,973.663,90.549z"/>
	<path class="st0" d="M460.167,100.831c-0.128,51.822-42.263,93.907-93.873,93.762c-51.651-0.145-93.899-42.723-93.446-94.176
		c0.457-51.821,42.161-93.457,93.637-93.483C418.171,6.907,460.295,49.127,460.167,100.831z M440.168,100.854
		c-0.003-40.846-32.855-73.909-73.451-73.923c-40.806-0.014-73.862,32.875-73.884,73.508c-0.022,41.157,32.793,74.16,73.733,74.157
		C407.267,174.592,440.17,141.626,440.168,100.854z"/>
	<path class="st0" d="M727.502,137.371c-0.005,15.162,0.058,30.324-0.038,45.486c-0.035,5.414-2.747,8.844-7.345,9.984
		c-4.493,1.114-9.05-0.601-11.012-4.715c-0.95-1.993-1.216-4.472-1.223-6.732c-0.08-26.158,0.366-52.326-0.161-78.474
		c-0.605-30.006-14.196-52.802-41.095-66.44c-48.459-24.569-106.145,10.914-106.589,65.289c-0.216,26.49-0.032,52.984-0.042,79.476
		c-0.003,7.351-3.699,11.875-9.72,11.971c-6.253,0.1-10.098-4.487-10.102-12.156c-0.014-27.325-0.114-54.651,0.019-81.975
		c0.222-45.429,37.577-86.127,82.838-90.437c49.5-4.714,91.349,25.211,102.299,73.438c1.424,6.274,1.911,12.846,2.085,19.3
		C727.736,113.372,727.506,125.374,727.502,137.371z"/>
</g>
</svg>
