<?xml version="1.0" encoding="UTF-8"?>
<svg width="20px" height="20px" viewBox="0 0 20 20" version="1.1" xmlns="http://www.w3.org/2000/svg" xmlns:xlink="http://www.w3.org/1999/xlink">
    <!-- Generator: Sketch 55.2 (78181) - https://sketchapp.com -->
    <title>facebook</title>
    <desc>Created with Sketch.</desc>
    <g id="facebook" stroke="none" stroke-width="1" fill="none" fill-rule="evenodd">
        <path d="M10.550032,20 L7.04885854,20 L7.04885854,10.7822222 L4,10.7822222 L4,7.24 L7.04885854,7.24 L7.04885854,4.63555556 C7.04885854,3.17777778 7.44143375,2.04 8.22445061,1.22444444 C9.00746746,0.408888889 10.0657137,6.03961325e-14 11.3991892,6.03961325e-14 C12.4339663,6.03961325e-14 13.300192,0.0511111111 14,0.155555556 L14,3.28222222 L12.1992746,3.28222222 C11.565607,3.28222222 11.1154256,3.43777778 10.8487305,3.75111111 C10.6503094,4.02888889 10.550032,4.44444444 10.550032,5 L10.550032,7.24 L14,7.24 L13.5498186,10.7822222 L10.550032,10.7822222 L10.550032,20 Z" id="Combined-Shape" fill="#FFFFFF"></path>
    </g>
</svg>