<?xml version="1.0" encoding="utf-8"?>
<!-- Generator: Adobe Illustrator 25.1.0, SVG Export Plug-In . SVG Version: 6.00 Build 0)  -->
<svg version="1.1" xmlns="http://www.w3.org/2000/svg" xmlns:xlink="http://www.w3.org/1999/xlink" x="0px" y="0px"
	 viewBox="0 0 300 300" style="enable-background:new 0 0 300 300;" xml:space="preserve">
<style type="text/css">
	.st0{fill:#FFFFFF;}
</style>
<g id="Layer_1">
	<g>
		<g>
			<path class="st0" d="M168.728,71.922c0.398-1.374,0.455-1.624,0.776-2.121c0.091-0.141,0.413-0.469,0.595-0.366
				c0.16,0.09,0.206,0.234,0.1,0.396c-0.317,0.484-0.637,0.965-1.076,1.627l-0.575,1.065c-1.284,3.011-1.433,5.91,0.848,8.566
				c0.285,0.332,0.094,0.565-0.097,0.839c-0.436,0.625-0.87,1.253-1.266,1.903c-0.319,0.524-0.305,1.084,0.237,1.435
				c0.597,0.387,0.596,0.785,0.29,1.352c-0.328,0.608-0.149,1.111,0.491,1.411c0.301,0.141,0.522,0.299,0.56,0.685
				c0.042,0.425,0.311,0.759,0.65,1.02c0.201,0.154,0.392,0.261,0.305,0.604c-0.159,0.627,0.203,1.078,0.609,1.516
				c0.727,0.782,1.715,0.915,2.67,1.138c1.83,0.428,1.83,0.425,1.157,2.153c-0.058,0.148-0.127,0.299-0.143,0.454
				c-0.103,0.992-0.719,0.924-1.438,0.739c-1.517-0.391-2.92-1.066-4.353-1.672c-0.835-0.353-1.388-0.929-1.76-1.77
				c-0.73-1.65-1.79-3.107-3.207-4.209c0,0-0.854-0.574-1.447-0.436c0,0-1.007-0.8-1.766-0.138c0,0-0.29,0.469-0.455,0.648
				c-0.166,0.179-0.75,0.746-0.75,0.746s-0.533,0.647-0.053,1.569l0.571,0.839c0.414,0.58,0.922,0.998,1.27,1.837
				c-0.323-0.03-0.574-0.059-0.817-0.083c-0.827-0.08-1.331,0.072-1.481,0.456c-0.264,0.676,0.082,1.124,0.542,1.477
				c1.163,0.89,2.36,1.784,3.845,2.015c1.614,0.251,2.969,1.027,4.125,2.057c1.993,1.776,4.34,2.85,6.771,3.8
				c0.398,0.156,0.616,0.372,0.759,0.761c0.767,2.081,1.933,3.935,3.346,5.628c0.345,0.414,0.352,0.726,0.15,1.19
				c-0.545,1.252-1.363,2.57-1.213,3.872c0.246,2.139-0.977,2.943-2.498,3.71c-0.028,0.014-0.055,0.032-0.083,0.047
				c-1.082,0.605-2.179,1.185-3.238,1.827c-0.525,0.318-1.228,0.679-0.829,1.474c0.531,1.057,1.321,1.845,2.606,1.956
				c0.576,0.05,1.145,0.17,1.95,0.294c-1.258,0.677-2.269,1.32-3.206,2.072c-0.253,0.203-0.531,0.089-0.815,0.004
				c-3.092-0.926-6.091-0.605-8.997,0.735c-2.952,1.361-5.299,3.48-7.333,5.97c-2.682,3.283-4.595,6.927-5.175,11.183
				c-0.097,0.712-0.351,1.305-0.907,1.814c-1.057,0.966-2.033,2.02-3.078,2.999c-0.881,0.825-1.791,1.626-2.938,2.086
				c-1.701,0.683-3.157-0.115-3.354-1.914c-0.093-0.846-0.087-1.728,0.038-2.57c0.517-3.494,1.545-6.865,2.569-10.235
				c0.997-3.281,1.96-6.572,2.961-9.851c0.151-0.494,0.106-0.706-0.462-0.709c-0.863-0.005-1.703-0.019-2.473,0.502
				c-0.577,0.391-1.216,0.689-1.829,1.026c-0.255,0.14-0.482,0.249-0.779,0.016c-2.044-1.606-4.346-2.858-6.227-4.695
				c-2.096-2.047-3.144-4.668-4.224-7.285c-0.242-0.587-0.636-1.197-0.615-1.784c0.026-0.741,0.965-0.773,1.451-1.193
				c2.446-2.116,4.318-4.646,5.573-7.62c0.313-0.743,0.706-1.204,1.519-1.504c2.083-0.77,4.105-1.672,5.812-3.189
				c1.356-1.206,2.88-2.14,4.746-2.492c1.557-0.294,2.862-1.187,4.013-2.281c0.376-0.358,0.424-0.786,0.26-1.225
				c-0.148-0.398-0.486-0.325-0.909-0.354l-1.558,0.062l1.063-1.383c0.101-0.123,0.201-0.246,0.293-0.376
				c1.073-1.509,1.064-1.737-0.12-3.152c-0.465-0.555-0.709-0.841-1.332-0.925c0,0-0.355-0.03-0.36-0.031
				c-0.456-0.093-0.819,0.321-0.819,0.321c-0.538-0.124-0.92,0.1-0.92,0.1c-0.106,0.07-0.212,0.146-0.314,0.233
				c-1.489,1.271-2.745,2.759-3.447,4.619c-0.245,0.651-0.631,1.105-1.231,1.364c-1.34,0.58-2.658,1.225-4.069,1.624
				c-1.473,0.416-1.469,0.397-1.955-1.021c-0.165-0.48-0.405-0.933-0.576-1.411c-0.261-0.727,0.13-1.297,0.815-1.125
				c2.378,0.599,4.145-0.439,5.034-2.623c0,0,0.25-1.015,0.725-1.035c0,0,0.89-0.207,0.807-1.097c0,0,0.807-0.083,0.869-0.807
				c0,0-0.193-1.875,0.062-1.924c0.712-0.136,1.038-0.651,1.038-0.651c0.265-0.797-0.19-1.377-0.19-1.377l-1.221-1.014
				c-0.248-0.166-0.248-0.29-0.248-0.29l0.62-0.652c0.963-0.902,1.427-2.078,1.685-3.337c0.068-0.329,0.131-0.619,0.433-0.8
				c1.917-1.151,1.983-3.095,1.957-4.959c-0.034-2.499-1.233-4.605-2.878-6.385c-5.696-6.16-12.606-8.116-20.681-5.725
				c-0.705,0.209-1.196,0.171-1.675-0.408c-1.077-1.301-2.089-2.073-3.855-2.356l-2.141-0.33l-0.203,1.785
				c-0.109,1.277,0.335,2.108,1.481,2.698c0.712,0.367,1.578,0.5,2.346,0.66c-1.338,1.159-3.283-0.344-4.952-0.317
				c0.77,0.628,1.575,1.189,2.241,1.715c0.628,0.496,0.67,0.74-0.196,1.078c-0.504,0.184-1.039,0.283-1.56,0.424
				c-1.182,0.322-2.707,1.018-3.438,1.652c1.048,0.065,1.904,0.124,2.685,0.304c-0.713,0.427-1.474,0.85-1.775,1.461
				c0.437,0.071,0.937,0.013,1.182,0.164c-0.268,0.281-0.525,0.557-0.788,0.825l-0.738,0.818l0.977,1.004l0.428-0.273
				c0,0-0.494,5.283,0.044,8.283c0,0,0.27,1.108,0.829,1.141c0.473,0.03,0.614,0.396,0.78,0.739
				c0.849,1.752,1.928,2.828,3.485,3.988c0.763,0.568,1.547,1.109,2.297,1.693c0.472,0.368,0.573,0.835,0.15,1.322
				c-1.187,1.367-1.756,3.139-3.281,4.341c-1.264,0.996-2.501,1.959-3.994,2.506c-2.505,0.918-5.049,1.728-7.572,2.599
				c-0.551,0.19-1.063,0.269-1.66,0.117c-1.579-0.402-3.197-0.459-4.824-0.422c-3.454,0.078-6.314,2.122-7.467,5.379
				c-1.05,2.967-0.887,6.002-0.458,9.039c0.074,0.525,0.001,0.756-0.523,0.674c-1.207-0.19-2.441-0.091-3.595-0.736
				c-1.937-1.084-3.281-0.523-4.168,1.53c-0.352,0.815-0.805,1.587-1.172,2.396c-0.229,0.506-0.546,0.625-1.049,0.437
				c-0.978-0.366-1.89-0.118-2.731,0.4c-0.731,0.451-1.425,0.974-1.92,1.693c-1.101,1.597-2.28,3.123-3.617,4.537
				c-0.816,0.862-1.289,1.97-1.524,3.14c-0.09,0.447-0.204,0.821-0.504,1.19c-0.554,0.684-0.044,2.437,0.808,2.546
				c1.309,0.167,2.74,0.403,3.909-0.379c1.146-0.766,2.374-1.331,3.584-1.955c0.593-0.306,1.122-0.327,1.708,0.014
				c0.88,0.513,1.812,0.938,2.791,1.218c0.535,0.153,0.481,0.345,0.256,0.733c-0.367,0.632-0.689,1.29-1.018,1.943
				c-0.639,1.27-0.969,2.648-1.003,4.038c-0.042,1.744,0.795,3.096,2.332,3.992c0.223,0.13,0.835,0.094,0.449,0.68
				c-0.61,0.928-1.154,1.904-1.815,2.794c-3.073,4.133-6.705,7.729-10.75,10.899c-1.921,1.505-3.889,2.967-6.119,4.015
				c-0.039,0.023-0.078,0.047-0.117,0.07c0.023-0.04,0.045-0.08,0.067-0.12c0.032-0.284,0.025-0.577,0.101-0.848
				c0.962-3.422,1.896-6.852,2.921-10.255c0.788-2.615,1.729-5.184,2.535-7.794c0.436-1.41-0.214-2.037-1.662-1.822
				c-3.416,0.507-6.838,0.975-10.257,1.465c-0.529,0.076-1.008,0.161-1.369,0.698c-1.666,2.481-3.434,4.883-5.448,7.106
				c-2.897,3.198-6.124,5.942-10.199,7.492c-4.008,1.524-8.068,1.769-12.024-0.175c-3.754-1.845-6.004-5.041-7.383-8.862
				c-2.184-6.052-2.052-12.265-1.03-18.51c0.69-4.213,1.854-8.298,3.38-12.281c3.254-8.494,7.743-16.172,14.889-22.02
				c4.427-3.623,9.397-5.802,15.284-5.05c3.808,0.486,6.734,2.369,8.59,5.77c1.518,2.782,1.547,5.779,1.142,8.822
				c-0.776,5.83-3.333,10.769-7.577,14.801c-1.6,1.521-3.534,2.441-5.858,2.35c-2.025-0.079-4.26-1.413-4.179-4.007
				c0.044-1.413-0.885-2.06-2.26-1.788c-2.159,0.426-3.203,2.014-3.777,3.892c-0.989,3.236,0.324,6.511,3.25,8.592
				c3.832,2.725,8.118,3.087,12.577,2.339c6.213-1.043,10.871-4.602,14.65-9.416c4.252-5.416,5.843-11.602,5.02-18.431
				c-0.509-4.224-2.25-7.871-5.201-10.891c-4.26-4.36-9.613-6.28-15.594-6.595c-5.411-0.285-10.635,0.697-15.657,2.679
				c-8.038,3.172-15.079,7.841-21.04,14.135c-4.729,4.993-8.478,10.621-11.251,16.903c-2.331,5.279-3.629,10.837-4.02,16.565
				c-0.237,3.478-0.077,6.978,0.502,10.452c1.16,6.956,3.951,13.056,9.205,17.872c4.781,4.381,10.468,5.911,16.78,4.744
				c6.438-1.191,11.79-4.575,16.586-8.899c1.239-1.117,2.386-2.333,3.403-3.778c0.134,0.373-0.013,0.566-0.075,0.771
				c-1.181,3.889-2.407,7.765-3.515,11.674c-0.268,0.947-0.703,1.388-1.614,1.687c-5.139,1.681-9.62,4.48-13.389,8.342
				c-4.084,4.184-6.932,9.149-8.859,14.656c-1.169,3.341-1.893,6.779-2.228,10.298c-0.467,4.897,2.138,8.379,6.979,9.339
				c4.57,0.906,8.935,0.126,13.054-1.885c5.423-2.647,9.513-6.692,12.243-12.12c2.777-5.522,5.085-11.231,7.054-17.082
				c1.509-4.485,2.922-9.005,3.691-13.682c0.214-1.303,0.833-1.95,1.93-2.408c1.24-0.518,2.318-1.316,3.408-2.089
				c4.096-2.905,7.626-6.427,11.025-10.092c2.666-2.874,5.183-5.859,6.876-9.444c0.162-0.343,0.311-0.72,0.753-0.797
				c1.978-0.345,3.843-1.066,5.73-1.715c0.04-0.024,0.079-0.049,0.119-0.073c-0.025,0.039-0.05,0.078-0.075,0.117
				c-0.118,0.258-0.212,0.53-0.358,0.77c-1.429,2.337-2.779,4.719-3.693,7.309c-0.844,2.39-1.757,4.794-1.108,7.406
				c1.001,4.025,3.868,6.047,8.11,4.457c1.609-0.603,3.094-1.482,4.497-2.49c2.173-1.561,4.243-3.246,6.112-5.162
				c0.603-0.618,0.762-0.359,0.917,0.285c0.179,0.739,0.324,1.5,0.613,2.197c2.122,5.116,6.272,7.149,11.436,4.516
				c2.323-1.184,4.045-3.065,5.721-4.98c1.097-1.253,2.082-2.603,3.282-4.117c0,0.61-0.022,0.977,0.004,1.341
				c0.132,1.899,0.229,3.798,0.947,5.605c0.85,2.139,2.478,3.294,4.759,3.284c1.608-0.008,3.056-0.547,4.387-1.406
				c3.036-1.96,5.586-4.503,8.232-6.928c0.457-0.419,0.654-0.61,0.86,0.216c0.535,2.147,1.631,3.986,3.329,5.44
				c3.165,2.711,6.841,3.109,10.761,2.367c3.504-0.664,6.455-2.451,9.183-4.641c1.579-1.268,3.087-2.624,4.628-3.942
				c0.22,0.249,0.228,0.542,0.31,0.813c1.218,4.014,3.706,6.771,7.887,7.74c3.396,0.786,6.701,0.349,9.851-1.096
				c3.821-1.753,6.811-4.635,9.864-7.421c0.174-0.158,0.253-0.357,0.253-0.595c-0.003-1.255-0.001-2.511-0.001-3.766
				c-0.095-0.059-0.19-0.118-0.285-0.177c-0.341,0.409-0.642,0.86-1.029,1.219c-1.628,1.514-3.205,3.095-5.066,4.334
				c-2.963,1.973-6.927,2.139-9.457,0.407c-1.747-1.196-2.634-2.966-3.23-4.924c-0.351-1.154-0.349-1.171,0.81-1.513
				c2.873-0.848,5.668-1.901,8.303-3.33c2.336-1.266,4.501-2.752,5.965-5.067c2.428-3.838,0.934-8.447-3.283-9.898
				c-2.292-0.789-4.63-0.655-6.939,0.013c-3.416,0.989-6.074,3.072-8.387,5.712c-2.766,3.158-4.791,6.713-5.336,10.878
				c-0.256,1.953-1.093,3.281-2.492,4.447c-0.537,0.448-1.05,0.923-1.577,1.382c-2.106,1.835-4.471,3.171-7.298,3.408
				c-2.885,0.241-6.082-1.297-7.488-4.799c-0.919-2.289-1.074-4.653-0.814-7.106c0.324-3.07,1.242-5.89,2.975-8.439
				c0.744-1.094,1.641-2.033,2.916-2.515c1.877-0.709,3.611,0.402,3.694,2.41c0.06,1.458,0.031,2.917-0.321,4.355
				c-0.101,0.411-0.237,0.92,0.153,1.258c0.4,0.346,0.865,0.109,1.261-0.068c1.247-0.56,2.468-1.18,3.719-1.73
				c1.686-0.741,3.161-1.603,2.823-3.831c-0.048-0.318,0.058-0.635,0.478-0.38c0.741,0.449,1.404,0.195,2.07-0.16
				c0.815-0.434,1.694-0.724,2.531-1.099c1.46-0.653,2.977-1.5,3.502-3.032c0.359-1.046,0.972-1.682,1.663-2.378
				c0.291-0.293,0.563-0.605,0.837-0.914c1.974-2.228,3.537-4.734,4.897-7.367c0.335-0.648,0.677-0.795,1.343-0.487
				c2.232,1.033,4.583,1.691,7.006,2.092c0.225,0.037,0.44,0.052,0.557,0.291c0.842,1.727,2.22,3.098,3.169,4.755
				c0.787,1.376,1.466,2.81,2.553,4.009c1.512,1.669,3.232,2.856,5.585,2.388c3.072-0.612,6.222-0.082,9.28-0.746
				c0.074-0.042,0.148-0.087,0.225-0.124c0.007-0.004,0.038,0.043,0.058,0.066c-0.084,0.031-0.169,0.062-0.253,0.093
				c-0.102,0.12-0.187,0.261-0.308,0.355c-4.376,3.388-6.844,7.903-7.952,13.264c-0.605,2.925-0.559,5.873-0.533,8.825
				c0.005,0.556-0.169,0.857-0.676,1.092c-1.212,0.561-2.406,1.164-3.587,1.788c-5.029,2.655-9.807,5.672-13.68,9.909
				c-3.302,3.612-5.471,7.736-5.17,12.802c0.241,4.063,2.014,7.338,5.681,9.209c4.966,2.535,9.886,1.655,14.587-0.88
				c3.262-1.758,6.097-4.132,8.795-6.656c0.452-0.423,0.679-0.43,0.979,0.111c0.896,1.62,2.025,3.078,3.226,4.478
				c3.64,4.245,8.823,5.465,13.875,3.409c2.982-1.213,5.154-3.448,7.294-5.718c0.56-0.594,1.102-1.235,1.458-1.996
				c0.317-0.678-0.009-1.436-0.847-2.09c-0.604-0.471-1.111-0.33-1.598,0.16c-0.561,0.564-1.104,1.148-1.681,1.695
				c-1.84,1.743-4.279,2.229-6.269,1.175c-2.379-1.261-3.655-3.487-4.754-5.796c-1.67-3.51-2.78-7.226-3.802-10.967
				c-2.167-7.931-3.702-15.95-3.332-24.229c0.097-2.174,0.516-4.283,1.423-6.274c1.105-2.429,3.467-3.288,5.453-1.95
				c1.087,0.732,1.564,1.909,1.886,3.116c0.269,1.008,0.369,2.06,0.625,3.072c0.315,1.244,1.134,1.605,2.232,0.961
				c1.649-0.967,3.204-2.076,4.495-3.507c0.693-0.768,1.054-1.615,0.721-2.703c-0.374-1.222-1.126-2.126-2.129-2.842
				c-0.422-0.301-0.795-0.371-0.341-1.073c0.29-0.449,0.249-1.008-0.201-1.294c-0.245-0.156-0.575,0.018-0.516-0.624
				c0.114-1.243-0.54-2.425-1.328-3.367c-1.18-1.41-2.365-2.808-3.453-4.301c0,0-1.834-2.415-3.558-2.374
				c-1.545,0.037-1.855,0.51-1.855,0.51l-0.902-2.082c-0.161-0.38-0.339-0.753-0.502-1.132c-0.817-1.893-2.651-2.372-3.993-1.428
				c-0.984,0.692-1.72,0.78-1.72,0.78c-0.662,0.055-2.441-0.014-2.441-0.014l0.217-1.139c0.388-2.24,0.441-4.479-0.044-6.709
				c-0.51-2.347-1.551-4.339-3.697-5.643c-2.344-1.424-4.881-1.136-7.414-0.97c-0.935,0.061-1.827,0.474-2.811,0.125
				c-2.305-0.817-4.654-1.512-6.951-2.35c-1.302-0.475-2.712-0.948-3.68-2.032c-0.028-0.037-0.228-0.239-0.255-0.276
				c0.039,0.026,0.342,0.172,0.38,0.197c0.245,0.057,0.491,0.113,0.736,0.171c1.126,0.265,1.641-0.184,1.555-1.333
				c-0.035-0.471-0.176-0.947-0.564-1.165c-1.431-0.807-0.85-1.288-0.075-1.987c0.21-0.19,0.366-0.438,0.56-0.647
				c1.201-1.287,1.866-2.78,1.799-4.569c-0.022-0.589-0.003-1.18-0.003-1.938c0.504,0.328,0.881,0.547,1.229,0.805
				c0.862,0.642,0.866,0.835,0.218,1.665c-0.468,0.6-0.894,1.234-1.323,1.862c-0.131,0.192-0.438,0.389-0.203,0.655
				c0.266,0.302,0.577,0.849,0.942,0.711c1.181-0.445,2.629-0.546,3.196-1.974c0.243-0.612,0.033-0.804,1.034-1.119
				c1.587-0.499,2.103-1.756,1.023-3.046c-0.53-0.633-0.571-0.516-0.234-1.007c0.476-0.693,0.642-1.723-0.258-2.092
				c-0.159-0.066-0.401-0.187-0.259-0.43c0.772-1.324-0.169-1.994-0.879-2.768c-0.569-0.621-1.066-1.313-1.079-2.258
				c-0.029-2.18-0.923-3.972-2.756-5.156c-1.667-1.076-3.187-2.291-4.555-3.727c-0.773-0.811-1.82-1.138-2.932-1.195
				c-0.516-0.027-1.416,0.006-2.097,0.006l2.793-0.683c1.138-0.435,1.324-3.042,1.324-3.042c-1.506,0.375-3.95,0.853-5.468,1.179
				l-1.215,0.207c0.579-0.869,0.517-3.352,0.517-3.352l-3.662,0.559l-1.221-0.89c-0.128,1.261-0.289,3.094-0.368,4.358
				c-0.034,0.548-0.228,0.787-0.759,0.886c-2.189,0.408-4.252,1.215-5.977,2.6c-1.234,0.991-1.63,0.673-2.608,0.223
				c-1.376-0.633-3.07-1.577-4.58-1.885l-0.025,0.025c0.231,0.386,0.949,0.83,1.281,1.115c0.969,0.832,1.932,1.67,2.898,2.505
				c-0.091,0.004-0.182,0.013-0.273,0.01c-2.209-0.057-2.93,0.905-2.311,3.041C168.133,70.356,168.366,71.219,168.728,71.922z
				 M118.542,60.222c-0.299-0.264-0.55-0.559-0.577-1v-0.829c1.699-0.062,2.439,0.662,2.439,0.662l1.496,1.528
				C120.449,60.673,119.108,60.722,118.542,60.222z M46.619,173.254c-1.179,4.917-2.736,9.714-4.557,14.425
				c-1.732,4.482-3.67,8.872-6.288,12.92c-0.841,1.301-1.76,2.55-3.002,3.547c-1.221,0.98-2.508,1.061-3.835,0.463
				c-1.367-0.616-1.802-1.876-1.896-3.281c-0.008-0.127-0.001-0.255-0.001-0.382c0.197-2.472,0.698-4.893,1.384-7.265
				c1.538-5.319,3.668-10.371,7.218-14.696c2.682-3.267,5.895-5.757,10.199-6.562C46.746,172.255,46.807,172.472,46.619,173.254z
				 M92.492,135.416c-0.573,0.105-0.78,0.1-0.51-0.56c0.554-1.352,0.98-2.749,1.206-4.198c0.091-0.586,0.379-0.747,0.997-0.839
				c1.902-0.285,3.689,0.373,5.755,0.474C97.817,132.781,95.668,134.833,92.492,135.416z M116.624,131.951
				c-3.567,3.58-6.179,7.736-6.88,12.877c-0.081,0.593-0.51,0.939-0.905,1.302c-1.31,1.205-2.629,2.399-3.951,3.59
				c-0.235,0.212-0.492,0.404-0.76,0.572c-1.096,0.69-2.263,1.105-3.504,0.46c-1.266-0.658-1.515-1.91-1.53-3.177
				c-0.02-1.699,0.419-3.339,0.973-4.927c1.852-5.308,3.755-10.599,5.629-15.899c0.116-0.328,0.552-0.708-0.166-0.975
				c-0.326-0.121,0.008-0.445,0.096-0.646c0.708-1.613,1.913-2.934,2.742-4.449c0.98-1.791,2.276-2.629,4.252-2.902
				c1.688-0.233,3.327-0.851,4.859-1.634c0.761-0.388,1.145-0.179,1.51,0.501c1.008,1.875,1.993,3.765,3.316,5.452
				c1.098,1.4,2.169,2.82,3.618,4.067C122.336,127.411,119.229,129.337,116.624,131.951z M132.922,133.421
				c-0.123,3.863-1.178,7.134-2.674,10.284c-1.012,2.129-2.12,4.204-3.828,5.879c-0.777,0.762-1.648,1.396-2.728,1.675
				c-2.009,0.519-3.57-0.319-4.342-2.245c-0.609-1.519-0.442-3.042-0.19-4.581c0.773-4.729,2.655-8.984,5.497-12.826
				c0.652-0.881,1.472-1.572,2.406-2.139c0.355-0.215,0.723-0.337,1.054-0.033c0.932,0.857,2.011,1.422,3.225,1.761
				C132.647,131.561,133.222,132.392,132.922,133.421z M190.824,129.911c0.684-0.646,1.496-1.04,2.486-1.027
				c1.551,0.019,2.432,0.839,2.61,2.535c0.043,0.409,0.006,0.825,0.006,1.239c0.011,3.395-1.642,5.838-4.427,7.598
				c-1.347,0.851-2.808,1.469-4.337,1.923c-0.394,0.117-0.794,0.24-0.774-0.402C186.527,137.321,187.409,133.137,190.824,129.911z
				 M216.831,175.426c-1.476,1.307-2.919,2.65-4.577,3.728c-3.038,1.977-6.07,1.847-8.378-0.416
				c-1.602-1.57-2.633-3.501-3.141-5.682c-0.251-1.077-0.472-2.174-0.383-3.337c-0.081-4.673,2.154-8.139,5.868-10.795
				c1.736-1.242,3.581-2.304,5.501-3.239c0.496-0.242,0.744-0.313,0.852,0.417c0.9,6.105,2.264,12.097,4.599,17.831
				C217.441,174.594,217.393,174.928,216.831,175.426z"/>
			<path class="st0" d="M107.516,174.443l1.012-1.939c-0.993,0.69-3.857,4.479-3.857,4.479c-3.509,4.46-5.929,9.543-8.285,14.664
				c-3.707,8.057-6.705,16.426-10.704,24.352c-1.91,3.786-4.195,7.335-7.094,10.465c-1.732,1.869-3.892,2.669-6.378,2.727
				c-0.923,0.021-1.85,0.055-2.769-0.013c-1.036-0.077-1.286-0.457-1.051-1.451c1.066-4.516,1.681-9.097,2.054-13.718
				c0.163-2.026,0.255-4.053,0.377-6.08c0.28-4.661,0.307-9.333,0.594-13.987c0.429-6.944,1.446-13.815,3.894-20.393l0.335-1.264
				c-0.497,0.359-1.576,2.417-1.576,2.417c-2.454,4.28-3.945,8.946-5.374,13.629c-1.945,6.376-3.342,12.912-5.562,19.207
				c-1.589,4.506-3.34,8.952-6.174,12.85c-2.411,3.316-5.401,5.981-9.214,7.639c-4.102,1.784-8.774,0.783-11.606-2.651
				c-1.841-2.232-2.286-4.706,0.254-7.447c1.426-1.54,3.065-2.871,4.924-3.88c1.07-0.581,1.88-0.215,2.143,0.971
				c0.302,1.36,0.519,2.739,0.772,4.11c0.029,0.156,0.052,0.313,0.085,0.468c0.822,3.893,4.2,4.095,6.622,2.255
				c2.23-1.694,3.741-3.98,5.107-6.35c3.202-5.557,5.029-11.649,6.723-17.782c1.529-5.536,2.668-11.179,4.595-16.606
				c1.939-5.463,5.016-10.264,8.574-14.782c0.793-1.007,2.049-0.948,3.156-1.086c1.542-0.192,3.099-0.29,4.661-0.238
				c1.186,0.04,1.54,0.34,1.334,1.489c-0.336,1.874-0.608,3.755-0.79,5.649c-0.175,1.828-0.462,3.654-0.49,5.485
				c-0.073,4.871,0.027,9.744-0.049,14.615c-0.128,8.195-0.495,16.372-2.617,24.356c-0.02,0.076-0.121,0.414-0.091,0.598
				c0.644-0.773,1.221-1.823,1.651-2.628c2.294-4.302,4.013-8.855,5.877-13.347c3.523-8.492,7.119-16.959,12.337-24.597
				c2.394-3.504,5.219-6.64,8.535-9.322c1.081-0.874,2.339-1.107,3.623-1.287c2.044-0.287,4.096-0.522,6.169-0.44
				c1.102,0.044,1.313,0.278,1.024,1.338c-0.479,1.757-1.376,3.346-2.071,5.017c-2.692,6.471-4.518,13.209-6.142,20.01
				c-1.201,5.03-2.232,10.097-2.811,15.235c-0.382,3.397-0.795,6.827,0.147,10.218c0.62,2.234,1.9,3.807,4.335,4.108
				c1.407,0.174,2.718-0.27,3.924-0.936c2.599-1.434,4.668-3.495,6.588-5.724c0.395-0.459,0.268-0.979,0.211-1.458
				c-0.376-3.209,0.196-6.305,1.438-9.213c3.048-7.141,8.255-12.122,15.556-14.832c1.712-0.635,3.502-0.821,5.344-0.501
				c2.359,0.41,4.004,1.737,5.024,3.824c0.329,0.673,0.587,0.537,1.053,0.283c2.149-1.173,4.324-2.301,6.452-3.51
				c0.853-0.484,1.729-0.343,2.602-0.328c0.581,0.01,0.375,0.458,0.275,0.781c-0.562,1.821-1.127,3.641-1.697,5.459
				c-1.416,4.513-2.994,8.981-4.004,13.611c-0.357,1.636-0.749,3.291-0.334,4.988c0.385,1.576,1.515,2.226,3.091,1.801
				c1.213-0.328,2.127-1.132,3.035-1.922c1.055-0.918,2.019-1.942,3.087-2.843c0.896-0.756,1.354-1.635,1.51-2.812
				c0.602-4.542,2.822-8.331,5.775-11.712c2.147-2.458,4.559-4.636,7.62-5.934c3.146-1.334,6.334-1.864,9.572-0.27
				c0.866,0.426,1.641,1.007,2.289,1.695c0.539,0.572,1.01,0.605,1.672,0.321c1.839-0.79,3.695-1.541,5.544-2.308
				c0.206-0.085,0.399-0.219,0.612-0.264c0.337-0.073,0.75-0.196,1.003,0.063c0.204,0.209-0.051,0.538-0.138,0.796
				c-1.871,5.586-2.752,11.4-3.941,17.142c-0.719,3.472-1.396,6.952-2.118,10.558c1.116-0.256,2.007-0.79,2.89-1.299
				c2.845-1.641,5.134-3.945,7.38-6.296c0.341-0.356,0.366-0.818,0.415-1.24c0.518-4.444,2.464-8.247,5.245-11.659
				c2.251-2.761,4.824-5.156,8.121-6.649c2.459-1.114,5.009-1.602,7.699-1.079c1.715,0.333,3.142,1.23,4.344,2.435
				c0.555,0.556,0.996,0.602,1.655,0.318c1.896-0.819,3.809-1.596,5.716-2.39c0.263-0.11,0.518-0.265,0.793-0.318
				c0.578-0.111,0.911-0.031,0.644,0.726c-1.954,5.529-2.799,11.321-3.993,17.03c-0.701,3.351-1.345,6.714-2.019,10.071
				c-0.05,0.247-0.199,0.532,0.03,0.714c0.232,0.184,0.485-0.035,0.707-0.137c3.559-1.64,6.411-4.184,9.112-6.967
				c1.058-1.09,1.191-2.411,1.477-3.712c1.126-5.137,2.875-10.071,4.752-14.968c0.188-0.491,0.536-0.587,0.935-0.666
				c2.892-0.573,5.785-1.137,8.679-1.7c0.939-0.183,1.104-0.003,0.805,0.905c-1.576,4.8-3.195,9.586-4.726,14.4
				c-0.826,2.599-1.553,5.234-1.614,7.997c-0.013,0.589,0.092,1.152,0.385,1.651c0.467,0.796,1.085,1.211,2.118,1.057
				c1.543-0.231,2.704-1.076,3.786-2.067c1.032-0.945,1.979-1.983,2.987-2.956c0.417-0.403,0.603-0.874,0.663-1.43
				c0.522-4.84,2.564-8.984,5.727-12.636c2.221-2.564,4.762-4.689,7.981-5.858c2.876-1.044,5.8-1.309,8.752-0.216
				c4.082,1.511,5.284,5.749,3.66,9.346c-1.182,2.617-3.38,4.245-5.762,5.651c-3.144,1.855-6.557,3.066-10.048,4.062
				c-0.814,0.232-1.032,0.535-0.79,1.404c0.893,3.21,2.515,5.734,5.987,6.493c3.086,0.674,5.842-0.207,8.315-2.089
				c2-1.522,3.832-3.236,5.778-5.17c0,1.571,0.007,2.945-0.005,4.319c-0.003,0.357-0.313,0.543-0.54,0.754
				c-2.686,2.488-5.442,4.901-8.652,6.696c-3.617,2.022-7.5,2.751-11.586,1.862c-4.541-0.989-7.3-3.886-8.545-8.3
				c-0.306-1.084-0.321-1.103-1.107-0.308c-2.599,2.628-5.28,5.156-8.465,7.082c-0.817,0.494-1.667,0.929-2.576,1.235
				c-2.503,0.84-4.552,0.157-6.074-2.011c-1.381-1.966-1.785-4.224-1.974-6.71c-0.986,0.811-1.862,1.574-2.781,2.278
				c-2.415,1.851-5.066,3.289-7.927,4.315c-0.619,0.222-0.889,0.576-1.094,1.159c-1.697,4.823-3.766,9.469-7.065,13.436
				c-2.642,3.177-5.665,5.808-9.958,6.585c-5.81,1.052-9.882-3.199-8.489-8.975c0.706-2.927,2.627-4.959,5.007-6.61
				c3.219-2.233,6.825-3.666,10.512-4.897c0.726-0.242,1.106-0.589,1.233-1.339c0.36-2.123,1.128-4.161,1.327-6.319
				c0.028-0.029,0.057-0.059,0.085-0.088c-0.019,0.003-0.047,0-0.057,0.012c-0.017,0.019-0.022,0.048-0.032,0.073
				c-0.854,0.623-1.506,1.454-2.256,2.184c-1.758,1.711-3.526,3.403-5.755,4.51c-4.437,2.203-8.569,0.559-10.319-4.098
				c-0.368-0.98-0.602-1.996-0.85-3.154c-1.05,1.05-2.096,1.961-3.209,2.794c-2.332,1.747-4.852,3.155-7.595,4.132
				c-0.731,0.261-1.119,0.641-1.37,1.383c-1.542,4.54-3.54,8.864-6.488,12.679c-2.367,3.063-5.135,5.652-8.939,6.858
				c-1.699,0.539-3.47,0.686-5.18,0.278c-3.945-0.942-5.964-4.823-4.838-8.94c0.733-2.681,2.376-4.665,4.563-6.264
				c3.329-2.434,7.138-3.879,10.979-5.235c0.713-0.252,1.08-0.573,1.231-1.337c0.342-1.741,0.799-3.46,1.197-5.191l0.232-1.308
				l-0.906,0.936c-1.874,1.907-3.757,3.806-6.012,5.274c-2.034,1.325-4.222,2.047-6.672,1.453c-2.235-0.542-3.525-2.175-4.51-4.093
				c-0.492-0.959-0.84-1.988-1.004-3.065c-0.083-0.544-0.169-0.852-0.775-0.313c-2.375,2.11-4.691,4.293-7.266,6.166
				c-1.765,1.284-3.606,2.329-5.898,2.416c-3.199,0.121-4.605-1.709-5.363-3.822c-0.799-2.227-0.801-4.55-0.744-7.099
				c-1.048,1.323-1.944,2.52-2.91,3.657c-2.211,2.606-4.529,5.089-7.817,6.385c-4.038,1.592-7.663,0.382-9.897-3.388
				c-0.399-0.674-0.573-0.682-1.109-0.147c-3.643,3.629-7.575,6.885-12.216,9.19c-1.897,0.942-3.907,1.652-6.022,1.618
				c-3.401-0.054-6.022-1.601-7.669-4.648c-1.524-2.819-2.162-5.873-2.437-9.035c-0.678-7.8,1.181-15.258,3.046-22.711
				c1.214-4.851,2.882-9.551,5.066-14.053c0.734-1.514,1.616-2.956,2.423-4.436 M149.132,197.048c0-0.509,0.014-1.018-0.002-1.526
				c-0.078-2.455-2.128-3.997-4.524-3.439c-1.12,0.261-2.049,0.831-2.873,1.603c-2.718,2.545-4.28,5.809-5.618,9.188
				c-1.08,2.728-1.779,5.554-1.7,8.525c0.089,3.337,2.701,5.154,5.631,3.883c1.092-0.474,1.994-1.23,2.771-2.127
				c1.852-2.137,3.163-4.602,4.244-7.187C148.252,203.118,149.223,200.203,149.132,197.048z M176.219,209.039
				c0.039,0.85,0.015,1.461,0.109,2.054c0.089,0.559,0.268,1.112,0.468,1.644c0.703,1.874,2.55,3.296,4.935,2.406
				c1.827-0.682,2.943-2.041,3.917-3.597c1.744-2.787,2.675-5.884,3.404-9.052c0.483-2.099,1.056-4.187,0.965-6.376
				c-0.086-2.075-1.621-3.85-3.322-3.742c-1.926,0.122-3.604,0.925-4.849,2.361C178.24,198.899,176.481,203.806,176.219,209.039z
				 M215.039,209.723c0,0.541-0.053,1.089,0.01,1.622c0.213,1.809,0.781,3.473,2.604,4.243c1.615,0.682,3.126,0.194,4.455-0.849
				c0.598-0.47,1.121-1.029,1.572-1.655c2.045-2.841,3.153-6.079,3.95-9.435c0.526-2.218,1.159-4.431,1.149-6.735
				c-0.011-2.518-1.717-4.277-3.833-3.982c-1.482,0.207-2.826,0.794-3.883,1.877C217.019,198.954,215.31,204.053,215.039,209.723z
				 M170.533,235.715c0.008,2.37,1.24,3.888,3.268,4.227c1.952,0.327,3.403-0.644,4.497-2.086c2.626-3.462,3.71-7.608,4.971-11.666
				c0.108-0.348,0.115-0.659-0.44-0.454c-3.375,1.248-6.693,2.615-9.47,4.981C171.738,232.099,170.629,233.8,170.533,235.715z
				 M209.306,235.681c-0.011,3.475,1.936,5.23,4.495,4.769c1.558-0.281,2.693-1.255,3.562-2.527
				c2.201-3.223,3.329-6.902,4.434-10.588c0.106-0.355,0.388-0.848,0.164-1.056c-0.315-0.292-0.744,0.125-1.124,0.234
				c-0.213,0.061-0.419,0.149-0.625,0.233c-3.129,1.269-6.219,2.597-8.674,5.038C210.228,233.086,209.334,234.56,209.306,235.681z
				 M282.864,197.739c0-0.477,0.024-0.955-0.004-1.431c-0.091-1.511-1.092-2.431-2.58-2.47c-1.166-0.031-2.107,0.444-2.904,1.216
				c-3.512,3.399-4.438,7.773-4.634,12.416c-0.023,0.532,0.264,0.473,0.603,0.348c1.101-0.407,2.241-0.73,3.294-1.236
				C280.344,204.8,282.89,202.164,282.864,197.739z"/>
			<path class="st0" d="M256.343,184.315c-1.679,0.17-3.288-0.469-4.821-1.372c-0.613-0.361-0.921-0.706-0.406-1.496
				c1.252-1.922,2.231-3.997,2.898-6.201c0.187-0.619,0.433-0.746,0.994-0.385c0.504,0.325,1.07,0.553,1.602,0.836
				c2.029,1.077,4.017,0.942,5.996-0.157c0.959-0.532,1.036-0.49,0.931,0.634c-0.111,1.197-0.264,2.391-0.642,3.548
				C261.939,182.639,259.911,184.496,256.343,184.315z"/>
		</g>
		<g>
			<path class="st0" d="M294.213,223.14c0,1.456-1.142,2.599-2.63,2.599c-1.471,0-2.645-1.142-2.645-2.599
				c0-1.425,1.174-2.567,2.645-2.567C293.071,220.572,294.213,221.715,294.213,223.14z M289.594,223.14
				c0,1.143,0.846,2.05,2.004,2.05c1.128,0,1.958-0.908,1.958-2.035c0-1.143-0.83-2.067-1.973-2.067
				C290.441,221.088,289.594,222.012,289.594,223.14z M291.176,224.486h-0.595v-2.568c0.235-0.047,0.563-0.078,0.987-0.078
				c0.484,0,0.704,0.078,0.892,0.188c0.14,0.11,0.25,0.313,0.25,0.563c0,0.282-0.219,0.501-0.532,0.595v0.031
				c0.25,0.094,0.391,0.282,0.469,0.626c0.079,0.391,0.125,0.548,0.189,0.642h-0.642c-0.078-0.094-0.125-0.329-0.204-0.627
				c-0.046-0.282-0.203-0.407-0.532-0.407h-0.282V224.486z M291.192,223.03h0.282c0.329,0,0.595-0.11,0.595-0.375
				c0-0.235-0.172-0.392-0.548-0.392c-0.157,0-0.266,0.016-0.329,0.032V223.03z"/>
		</g>
	</g>
</g>
<g id="Layer_2">
</g>
</svg>
