<?xml version="1.0" encoding="UTF-8"?>
<svg width="20px" height="20px" viewBox="0 0 20 20" version="1.1" xmlns="http://www.w3.org/2000/svg" xmlns:xlink="http://www.w3.org/1999/xlink">
    <!-- Generator: Sketch 55.2 (78181) - https://sketchapp.com -->
    <title>instagram</title>
    <desc>Created with Sketch.</desc>
    <g id="instagram" stroke="none" stroke-width="1" fill="none" fill-rule="evenodd">
        <path d="M15.5851429,4.41485714 C15.3708571,4.20057143 15.1171429,4.09428572 14.8222857,4.09428572 C14.5274285,4.09428572 14.272,4.20057143 14.0577143,4.41485714 C13.8434285,4.62914286 13.7371429,4.88285711 13.7371429,5.17771432 C13.7371429,5.47257146 13.8434285,5.72800002 14.0577143,5.9422857 C14.272,6.15657146 14.5274285,6.26285714 14.8222857,6.26285714 C15.1171429,6.26285714 15.364,6.15657146 15.5645714,5.9422857 C15.7651429,5.72800002 15.88,5.47257146 15.9057143,5.17771432 C15.9057143,4.88285711 15.7994286,4.62914286 15.5851429,4.41485714 M12.1291429,12.1291429 C12.7188572,11.5394285 13.0137143,10.8297143 13.0137143,10 C13.0137143,9.16857143 12.7188572,8.45885714 12.1291429,7.87085711 C11.5411429,7.28114284 10.8314286,6.9862857 10,6.9862857 C9.17028568,6.9862857 8.46057146,7.28114284 7.87085711,7.87085711 C7.28114284,8.45885714 6.9862857,9.16857143 6.9862857,10 C6.9862857,10.8297143 7.28114284,11.5394285 7.87085711,12.1291429 C8.46057146,12.7188572 9.17028568,13.0137143 10,13.0137143 C10.8314286,13.0137143 11.5411429,12.7188572 12.1291429,12.1291429 M12.3108571,6.00228568 C13.0205714,6.41714284 13.5828572,6.97942857 13.9977143,7.68914286 C14.4125714,8.39885716 14.6217143,9.16857143 14.6217143,10 C14.6217143,10.8297143 14.4125714,11.5994286 13.9977143,12.3091429 C13.5828572,13.0205714 13.0205714,13.5828572 12.3108571,13.9977143 C11.6011428,14.4125714 10.8314286,14.62 10,14.62 C9.17028568,14.62 8.40057141,14.4125714 7.69085711,13.9977143 C6.97942857,13.5828572 6.41714284,13.0205714 6.00228568,12.3091429 C5.58742859,11.5994286 5.37999998,10.8297143 5.37999998,10 C5.37999998,9.16857143 5.58742859,8.39885716 6.00228568,7.68914286 C6.41714284,6.97942857 6.97942857,6.41714284 7.69085711,6.00228568 C8.40057141,5.58742859 9.17028568,5.37828573 10,5.37828573 C10.8314286,5.37828573 11.6011428,5.58742859 12.3108571,6.00228568 M17.3525715,13.1337143 C17.38,12.544 17.3937143,11.7142857 17.3937143,10.6428571 L17.3937143,9.35714289 C17.3937143,8.25828573 17.38,7.42857141 17.3525715,6.86628568 C17.2994285,5.84799998 17.1914285,5.12457141 17.032,4.69599998 C16.7097143,3.86628571 16.1337143,3.29028571 15.304,2.968 C14.8754286,2.80857143 14.152,2.70057143 13.1337143,2.64742857 C12.5457143,2.62 11.7142857,2.60628571 10.6428571,2.60628571 L9.35714289,2.60628571 C8.28571427,2.60628571 7.45600002,2.62 6.86628568,2.64742857 C5.87542859,2.70057143 5.15200002,2.80857143 4.69599998,2.968 C3.86628571,3.29028571 3.29028571,3.86628571 2.96971429,4.69599998 C2.80857143,5.12457141 2.70057143,5.84799998 2.64742857,6.86628568 C2.62171428,7.4542857 2.608,8.28571427 2.608,9.35714289 L2.608,10.6428571 C2.608,11.7142857 2.62171428,12.544 2.64742857,13.1337143 C2.70057143,14.1245714 2.80857143,14.848 2.96971429,15.304 C3.31771429,16.1337143 3.89371429,16.7097143 4.69599998,17.0302857 C5.15200002,17.1914285 5.87542859,17.2994285 6.86628568,17.3525715 C7.45600002,17.3782857 8.28571427,17.392 9.35714289,17.392 L10.6428571,17.392 C11.7417143,17.392 12.5714286,17.3782857 13.1337143,17.3525715 C14.152,17.2994285 14.8754286,17.1914285 15.304,17.0302857 C16.1337143,16.6822857 16.7097143,16.1062857 17.032,15.304 C17.1914285,14.848 17.2994285,14.1245714 17.3525715,13.1337143 M19,10 C19,11.74 18.9794286,12.9931429 18.94,13.756 C18.9005715,14.5205714 18.7857143,15.1822857 18.5988571,15.7445714 C18.3571429,16.4148571 17.9885714,16.9977143 17.4931429,17.4931429 C16.9977143,17.9885714 16.4148571,18.3571429 15.7462857,18.5971429 C15.184,18.7857143 14.5205714,18.8988571 13.7577143,18.94 C12.9931429,18.9794286 11.7417143,19 10,19 C8.25999998,19 7.00685711,18.9794286 6.24399998,18.94 C5.47942859,18.8988571 4.81771432,18.772 4.25542857,18.5577143 C3.58514286,18.3434285 3.00228571,17.9885714 2.50685714,17.4931429 C2.01142857,16.9977143 1.64285714,16.4148571 1.40285714,15.7445714 C1.21428572,15.1822857 1.10114286,14.5205714 1.06,13.756 C1.02057143,12.9931429 1,11.74 1,10 C1,8.25828573 1.02057143,7.00685711 1.06,6.24228573 C1.10114286,5.47942859 1.21428572,4.816 1.40285714,4.25371429 C1.64285714,3.58514286 2.01142857,3.00228571 2.50685714,2.50685714 C3.00228571,2.01142857 3.58514286,1.64285714 4.25542857,1.40114286 C4.81771432,1.21428572 5.47942859,1.09942857 6.24399998,1.06 C7.00685711,1.02057143 8.25999998,1 10,1 C11.7417143,1 12.9931429,1.02057143 13.7577143,1.06 C14.5205714,1.09942857 15.184,1.21428572 15.7462857,1.40114286 C16.4148571,1.64285714 16.9977143,2.01142857 17.4931429,2.50685714 C17.9885714,3.00228571 18.3571429,3.58514286 18.5988571,4.25371429 C18.7857143,4.816 18.9057143,5.48628573 18.9605714,6.26285714 C18.9862857,7.01371432 19,8.25828573 19,10" id="ih" fill="#FFFFFF" fill-rule="nonzero"></path>
    </g>
</svg>