<?xml version="1.0" encoding="UTF-8"?>
<svg width="14px" height="14px" viewBox="0 0 14 14" version="1.1" xmlns="http://www.w3.org/2000/svg" xmlns:xlink="http://www.w3.org/1999/xlink">
    <!-- Generator: Sketch 62 (91390) - https://sketch.com -->
    <title>Icon/Minor/Language</title>
    <desc>Created with Sketch.</desc>
    <g id="ES-UI-Icons" stroke="none" stroke-width="1" fill="none" fill-rule="evenodd">
        <g id="Minor-Icons" transform="translate(-1104.000000, -363.000000)" fill="#000000">
            <g id="Icon/Minor/Language" transform="translate(1101.000000, 360.000000)">
                <path d="M10,3 C13.86575,3 17,6.13425 17,10 C17,10.0490852 17,10.1004346 17,10.153895 L17,17 C17,17 16.4149294,17 15.564985,17 L10,17 C6.13425,17 3,13.866625 3,10 C3,6.13425 6.13425,3 10,3 Z M6,8.5 C5.17157288,8.5 4.5,9.17157288 4.5,10 C4.5,10.8284271 5.17157288,11.5 6,11.5 C6.82842712,11.5 7.5,10.8284271 7.5,10 C7.5,9.17157288 6.82842712,8.5 6,8.5 Z M10,8.5 C9.17157288,8.5 8.5,9.17157288 8.5,10 C8.5,10.8284271 9.17157288,11.5 10,11.5 C10.8284271,11.5 11.5,10.8284271 11.5,10 C11.5,9.17157288 10.8284271,8.5 10,8.5 Z M14,8.5 C13.1715729,8.5 12.5,9.17157288 12.5,10 C12.5,10.8284271 13.1715729,11.5 14,11.5 C14.8284271,11.5 15.5,10.8284271 15.5,10 C15.5,9.17157288 14.8284271,8.5 14,8.5 Z" id="Combined-Shape"></path>
            </g>
        </g>
    </g>
</svg>