<?xml version="1.0" encoding="UTF-8"?>
<svg width="20px" height="20px" viewBox="0 0 20 20" version="1.1" xmlns="http://www.w3.org/2000/svg" xmlns:xlink="http://www.w3.org/1999/xlink">
    <!-- Generator: Sketch 55.2 (78181) - https://sketchapp.com -->
    <title>linkedin</title>
    <desc>Created with Sketch.</desc>
    <g id="linkedin" stroke="none" stroke-width="1" fill="none" fill-rule="evenodd">
        <path d="M19,11.4192 C19,9.54480002 18.7384,8.17439998 18.2128,7.31280002 C17.5,6.22560002 16.2808,5.6808 14.5552,5.6808 C13.6936,5.6808 12.9256,5.88720002 12.2488,6.3 C11.6872,6.6384 11.2744,7.0704 11.0128,7.59360002 L10.9552,7.59360002 L10.9552,5.96399998 L7.35520002,5.96399998 L7.35520002,18 L11.068,18 L11.068,12.0384 C11.068,11.1 11.2,10.3872 11.4616,9.9 C11.8384,9.26400002 12.4552,8.94479998 13.3192,8.94479998 C14.1808,8.94479998 14.7448,9.30000002 15.0064,10.0128 C15.1936,10.464 15.2872,11.1744 15.2872,12.1512 L15.2872,18 L19,18 L19,11.4192 Z M5.05120002,18 L5.05120002,5.96399998 L1.2808,5.96399998 L1.2808,18 L4.99360002,18 L5.05120002,18 Z M4.68400002,3.68400002 C5.11600002,3.2544 5.33200002,2.748 5.33200002,2.1672 C5.33200002,1.584 5.11600002,1.0776 4.68400002,0.648 C4.252,0.216 3.7384,0 3.1384,0 C2.5384,0 2.032,0.216 1.6192,0.648 C1.2064,1.0776 1,1.584 1,2.1672 C1,2.748 1.2064,3.2544 1.6192,3.68400002 C2.032,4.11600002 2.5384,4.33200002 3.1384,4.33200002 C3.7384,4.33200002 4.252,4.11600002 4.68400002,3.68400002 Z" id="Shape" fill="#FFFFFF" fill-rule="nonzero"></path>
    </g>
</svg>