<?xml version="1.0" encoding="utf-8"?>
<!-- Generator: Adobe Illustrator 25.1.0, SVG Export Plug-In . SVG Version: 6.00 Build 0)  -->
<svg version="1.1" xmlns="http://www.w3.org/2000/svg" xmlns:xlink="http://www.w3.org/1999/xlink" x="0px" y="0px"
	 viewBox="0 0 300 300" style="enable-background:new 0 0 300 300;" xml:space="preserve">
<style type="text/css">
	.st0{fill:#FFFFFF;}
	.st1{fill:#222221;}
	.st2{fill:#5E5F5E;}
	.st3{fill:#FECE0B;}
</style>
<g id="Layer_1">
</g>
<g id="Layer_2">
	<g>
		<path class="st0" d="M281.43,210.615c-4.881-12.293-9.759-24.587-14.685-36.861c-0.388-0.968-0.43-1.864-0.177-2.867
			c2.307-9.15,4.51-18.325,6.76-27.489c0.894-3.643,1.901-7.261,2.637-10.94c0.804-4.019-1.643-8.115-5.517-9.477
			c-0.67-0.235-1.619-0.049-1.973-0.673c-0.356-0.625-0.052-1.483-0.052-2.239c-0.01-8.83-0.006-17.66-0.007-26.491
			c0-0.836,0.008-1.662,0.405-2.439c0.984-1.923,1.939-3.86,2.929-5.78c3.143-6.096,6.275-12.199,9.32-18.344
			c1.09-2.2,1.146-4.584,0.227-6.833c-1.201-2.94-3.361-4.791-6.693-4.956c-0.076,0-0.152,0-0.228,0
			c-0.531,0.395-1.062,0.322-1.593,0c-0.228,0-0.455,0-0.683,0c-2.505,0.354-5.041,0.415-7.537,0.87
			c-2.917,0.532-5.094,2.027-6.507,4.649c-0.737,1.368-1.52,2.712-2.262,4.078c-0.309,0.57-0.6,0.641-0.936,0.028
			c-0.273-0.499-0.511-1.016-0.793-1.511c-1.755-3.079-5.171-4.836-8.611-4.349c-2.59,0.367-5.184,0.719-7.758,1.182
			c-2.029,0.365-4.042,0.74-6.097,1.011c-11.237,1.483-22.432,3.273-33.637,4.989c-1.405,0.215-2.731,0.689-3.867,1.557
			c-0.586,0.448-1.145,0.487-1.801,0.254c-1.238-0.44-2.532-0.569-3.817-0.385c-3.039,0.435-6.088,0.823-9.102,1.411
			c-2.515,0.491-4.436,1.876-5.721,4.119c-0.612,1.067-0.616,1.051-1.576,0.178c-1.732-1.576-3.78-2.506-6.115-2.273
			c-3.279,0.327-6.55,0.823-9.776,1.502c-3.831,0.807-6.039,3.286-6.723,7.114c-0.442,2.473-0.131,4.973-0.217,7.384
			c-2.588-4.513-6.626-7.71-11.667-9.269c-4.73-1.463-9.491-1.333-14.286-0.409c-7.798,1.503-14.572,4.661-18.985,11.682
			c-0.895-5.037-4.931-7.949-9.968-7.24c-2.253,0.317-4.492,0.734-6.752,0.987c-2.572,0.288-4.886,1.074-6.619,3.113
			c-0.451,0.531-0.905,0.553-1.484,0.181c-1.92-1.235-4.033-1.426-6.24-1.108c-2.627,0.379-5.246,0.807-7.872,1.191
			c-3.045,0.445-5.362,1.89-6.925,4.597c-2.351,4.072-4.862,8.049-7.214,12.121c-0.742,1.285-0.747,1.27-1.627,0.135
			c-2.185-2.816-4.331-5.662-6.475-8.509c-2.285-3.035-5.282-4.205-8.973-3.647c-2.736,0.414-5.481,0.772-8.21,1.237
			c-4.857,0.829-7.466,3.811-7.472,8.748c-0.021,18.275-0.013,36.551-0.002,54.826c0.001,1.834,0.186,3.641,1.437,5.141
			c0.384,0.461,0.427,0.94,0.022,1.438c-1.276,1.572-1.455,3.456-1.461,5.369c-0.014,4.929-0.027,9.858,0.01,14.787
			c0.009,1.277,0.025,2.575,0.542,3.796c1.524,3.604,5.254,5.553,9.441,4.914c5.697-0.869,11.394-1.734,17.094-2.581
			c1.452-0.216,1.497-0.188,1.501,1.253c0.01,3.792,0.011,7.583,0,11.375c-0.007,2.495,0.16,2.064-2.077,2.412
			c-6.443,1.003-12.893,1.969-19.334,2.987c-2.417,0.382-4.389,1.533-5.866,3.558c-1.179,1.617-1.281,3.453-1.302,5.305
			c-0.045,3.829-0.087,7.661,0.012,11.488c0.067,2.602,0.062,5.213,0.618,7.794c1.556,7.221,5.197,13.077,11.351,17.21
			c4.189,2.813,8.817,4.493,13.938,4.679c5.583,0.203,11.125,0.131,16.574-1.356c6.086-1.66,11.564-4.33,15.836-9.117
			c0.125-0.14,0.255-0.285,0.472-0.269c0.126,0.094,0.2,0.226,0.254,0.368c1.508,3.972,5.428,6.108,9.786,5.414
			c6.776-1.079,13.568-2.065,20.352-3.095c2.565-0.39,4.645-1.637,6.056-3.835c0.465-0.725,0.707-0.822,1.412-0.237
			c2.026,1.68,4.379,2.321,7.012,1.908c6.33-0.993,12.669-1.924,19.007-2.863c1.896-0.281,3.732-0.684,5.284-1.905
			c0.369-0.29,0.793-0.478,1.271-0.287c2.103,0.844,4.222,0.569,6.382,0.222c6.476-1.039,12.977-1.918,19.448-2.987
			c3.577-0.591,5.965-2.635,7.051-6.137c0.055-0.177-0.018-0.461,0.276-0.509c1.985,3.084,4.747,4.786,8.429,4.291
			c6.988-0.939,13.983-1.895,20.902-3.231c2.478-0.479,4.926-0.837,7.426-1.143c6.996-0.858,13.959-2.003,20.922-3.116
			c3.578-0.572,5.975-2.61,7.103-6.086c0.057-0.175,0.066-0.379,0.254-0.504c0.328,0.217,0.447,0.595,0.679,0.887
			c1.962,2.467,4.522,3.793,7.654,3.366c6.798-0.927,13.577-2.004,20.357-3.059c4.41-0.686,6.532-2.719,7.511-7.014
			c0-0.228,0-0.455,0-0.683c-0.358-0.531-0.358-1.062,0-1.593c0-0.152,0-0.303,0-0.455
			C281.86,212.596,281.813,211.58,281.43,210.615z M76.41,226.568c-0.001,3.015-0.461,5.964-1.469,8.804
			c-2.332,6.568-7.218,10.399-13.662,12.417c-5.275,1.652-10.692,2.571-16.232,1.96c-9.981-1.101-17.419-6.939-19.218-17.67
			c-0.371-2.214-0.472-4.435-0.451-6.675c0.03-3.374,0.023-6.748-0.001-10.122c-0.007-0.984,0.336-1.573,1.367-1.73
			c6.323-0.965,12.642-1.958,18.966-2.921c1.732-0.264,2.23,0.188,2.231,1.91c0.002,4.587-0.002,9.174,0.002,13.761
			c0.001,1.652,0.526,2.103,2.13,1.868c0.862-0.126,1.728-0.22,2.587-0.361c0.95-0.156,1.437-0.674,1.436-1.705
			c-0.015-15.05-0.019-30.1,0.011-45.15c0.002-0.92-0.399-0.85-1.027-0.754c-8.569,1.3-17.138,2.592-25.709,3.881
			c-1.442,0.217-1.98-0.235-1.982-1.669c-0.006-4.814-0.003-9.629-0.002-14.443c0-1.559,0.217-1.864,1.736-2.097
			c5.724-0.878,11.452-1.726,17.178-2.591c8.308-1.256,16.614-2.518,24.921-3.775c1.758-0.266,3.514-0.556,5.28-0.769
			c1.473-0.178,1.909,0.255,1.909,1.756c0.002,11.259,0.001,22.518,0.001,33.777C76.412,205.036,76.414,215.802,76.41,226.568z
			 M74.898,149.975c-2.661,0.375-5.311,0.831-7.968,1.23c-1.052,0.158-1.661-0.358-1.745-1.422c-0.03-0.377-0.018-0.758-0.018-1.137
			c-0.001-10.655-0.001-21.31-0.001-31.965c0-0.407,0-0.815,0-1.222c-0.073-0.037-0.145-0.075-0.217-0.112
			c-0.209,0.315-0.424,0.626-0.626,0.944c-3.9,6.137-7.796,12.276-11.698,18.411c-1.019,1.602-1.958,1.612-3.093,0.05
			c-4.008-5.518-8.013-11.039-12.03-16.55c-0.205-0.282-0.305-0.694-0.757-0.786c-0.221,0.403-0.107,0.824-0.107,1.223
			c-0.008,11.679-0.006,23.358-0.007,35.037c0,1.958-0.127,2.097-2.05,2.389c-2.321,0.353-4.639,0.723-6.961,1.069
			c-1.737,0.259-2.233-0.166-2.233-1.887c-0.001-18.049-0.001-36.099,0-54.148c0-1.541,0.198-1.763,1.802-2.01
			c2.769-0.427,5.541-0.829,8.306-1.282c0.934-0.153,1.477,0.278,1.997,0.965c4.184,5.531,8.387,11.048,12.585,16.569
			c0.32,0.42,0.649,0.833,1.1,1.41c2.541-4.251,5.004-8.371,7.467-12.491c1.962-3.282,3.941-6.554,5.876-9.852
			c0.443-0.755,0.984-1.128,1.872-1.244c2.664-0.348,5.317-0.784,7.97-1.209c1.483-0.237,2.049,0.209,2.05,1.718
			c0.003,12.968,0.002,25.936,0.002,38.905c0,5.195-0.019,10.39,0.015,15.585C76.434,149.279,76.013,149.818,74.898,149.975z
			 M238.727,67.194c2.391-0.385,4.8-0.671,7.182-1.104c1.149-0.209,1.753,0.218,2.254,1.182c2.145,4.129,4.331,8.237,6.504,12.351
			c0.141,0.267,0.298,0.526,0.559,0.984c1.502-2.735,2.921-5.312,4.335-7.892c1.528-2.787,3.07-5.567,4.566-8.371
			c0.39-0.73,0.868-1.151,1.721-1.265c2.325-0.309,4.64-0.701,6.961-1.043c0.684-0.101,1.378-0.158,1.825,0.559
			c0.43,0.689,0.13,1.275-0.193,1.907c-4.2,8.22-8.377,16.452-12.582,24.669c-0.376,0.735-0.526,1.463-0.524,2.28
			c0.016,9.478,0.011,18.956,0.01,28.434c0,1.797-0.192,2.008-1.929,2.268c-2.284,0.342-4.565,0.699-6.846,1.061
			c-2.055,0.326-2.545-0.077-2.545-2.126c0-9.402-0.007-18.805,0.012-28.207c0.002-0.785-0.162-1.461-0.556-2.144
			c-4.013-6.949-8.003-13.911-12-20.87C236.591,68.32,236.964,67.478,238.727,67.194z M156.468,81.491
			c0-1.712,0.203-1.926,1.886-2.178c2.283-0.343,4.563-0.706,6.842-1.072c2.043-0.328,2.517,0.067,2.517,2.132
			c0.001,6.444,0.019,12.888-0.021,19.332c-0.006,0.946,0.277,1.156,1.162,1.012c3.25-0.527,6.504-1.038,9.767-1.473
			c0.868-0.116,1.084-0.423,1.079-1.268c-0.035-6.671-0.02-13.343-0.019-20.014c0-1.674,0.124-1.856,1.801-2.133
			c2.576-0.426,5.158-0.814,7.74-1.199c1.147-0.171,1.702,0.417,1.703,1.784c0.003,8.718,0.002,17.436,0.002,26.155
			c0,0.379,0,0.758,0,1.137c0,8.984,0.001,17.967,0,26.951c0,1.622-0.24,1.901-1.82,2.138c-2.47,0.369-4.94,0.734-7.41,1.107
			c-1.458,0.22-2.013-0.258-2.013-1.78c-0.003-6.785-0.025-13.57,0.024-20.355c0.007-1.008-0.265-1.182-1.196-1.029
			c-3.211,0.529-6.429,1.018-9.654,1.448c-0.967,0.129-1.172,0.535-1.166,1.455c0.042,6.823,0.023,13.646,0.022,20.469
			c0,1.717-0.166,1.887-1.913,2.151c-2.245,0.339-4.488,0.691-6.729,1.05c-2.146,0.344-2.603-0.025-2.603-2.146
			C156.468,117.273,156.468,99.382,156.468,81.491z M107.089,103.862c0.24-2.606,0.681-5.17,1.554-7.652
			c1.522-4.327,4.316-7.542,8.458-9.485c5.214-2.445,10.7-3.517,16.447-2.647c5.408,0.819,8.918,4.034,10.865,9.043
			c0.827,2.127,1.283,4.35,1.428,6.633c0.063,0.981-0.431,1.497-1.347,1.638c-2.581,0.398-5.163,0.798-7.75,1.152
			c-1.736,0.238-2.068-0.044-2.342-1.76c-0.487-3.051-1.929-5.03-4.253-5.227c-5.523-0.469-10.375,1.419-11.428,7.999
			c-0.729,4.553-0.668,9.126-0.499,13.709c0.109,2.953,0.198,5.906,0.955,8.786c0.929,3.538,2.798,4.924,6.437,4.669
			c1.812-0.127,3.597-0.484,5.327-1.078c2.118-0.728,3.394-2.193,3.904-4.353c0.297-1.256,0.414-2.537,0.565-3.816
			c0.086-0.725-0.194-0.744-0.74-0.662c-1.497,0.226-2.994,0.464-4.499,0.629c-1.477,0.162-1.924-0.274-1.923-1.76
			c0.002-2.767,0.048-5.535,0.007-8.302c-0.017-1.166,0.449-1.744,1.594-1.913c5.055-0.747,10.104-1.532,15.158-2.282
			c1.146-0.17,1.754,0.431,1.756,1.642c0.002,1.857,0.001,3.715,0.001,5.572c-0.088,5-0.159,9.992-1.162,14.926
			c-1.129,5.555-4.285,9.242-9.745,10.88c-4.367,1.31-8.801,2.239-13.391,2.232c-6.847-0.01-11.553-3.395-13.761-9.909
			c-1.529-4.509-1.871-9.186-1.879-13.892C106.819,113.709,106.636,108.779,107.089,103.862z M87.672,89.979
			c2.58-0.403,5.162-0.789,7.746-1.165c1.342-0.195,1.903,0.341,1.904,1.807c0.005,5.874,0.002,11.747,0.002,17.621
			c0,3.183,0,6.366,0,9.549c0,8.981,0.001,17.962-0.001,26.943c0,1.563-0.334,1.945-1.835,2.169
			c-2.432,0.364-4.864,0.729-7.293,1.108c-1.646,0.257-2.249-0.241-2.249-1.923c-0.002-18-0.002-35.999-0.001-53.999
			C85.946,90.526,86.19,90.211,87.672,89.979z M141.324,236.322c-6.738,1.009-13.475,2.018-20.215,3.009
			c-1.337,0.196-1.86-0.296-1.942-1.666c-0.375-6.235-0.771-12.469-1.115-18.705c-0.043-0.785-0.302-0.822-0.969-0.709
			c-2.276,0.384-4.56,0.731-6.85,1.015c-0.697,0.086-0.854,0.383-0.892,1.004c-0.27,4.383-0.569,8.764-0.858,13.145
			c-0.147,2.229-0.299,4.457-0.44,6.686c-0.054,0.854-0.537,1.32-1.338,1.441c-6.137,0.93-12.276,1.846-18.414,2.767
			c-0.749,0.112-1.497,0.227-2.244,0.347c-1.357,0.219-2.057-0.354-1.92-1.736c0.294-2.976,0.664-5.944,1.004-8.916
			c0.649-5.679,1.297-11.358,1.948-17.037c0.715-6.243,1.43-12.486,2.147-18.729c0.721-6.28,1.449-12.56,2.168-18.841
			c0.72-6.281,1.433-12.562,2.15-18.843c0.12-1.053,0.285-2.103,0.351-3.16c0.067-1.079,0.569-1.657,1.643-1.817
			c10.743-1.603,21.484-3.217,32.224-4.831c1.235-0.186,2.467-0.391,3.699-0.593c1.495-0.246,2.086,0.16,2.244,1.627
			c0.863,8.018,1.704,16.038,2.571,24.056c0.798,7.377,1.628,14.75,2.426,22.126c0.725,6.699,1.42,13.401,2.143,20.101
			c0.565,5.232,1.153,10.462,1.729,15.693c0.029,0.263,0.047,0.528,0.07,0.792C142.745,235.544,142.335,236.17,141.324,236.322z
			 M208.992,226.09c-6.025,0.924-12.052,1.83-18.079,2.74c-0.636,0.096-1.288,0.127-1.908,0.284
			c-1.211,0.306-1.816-0.234-2.244-1.313c-2.313-5.833-4.663-11.652-7.002-17.475c-0.136-0.339-0.289-0.671-0.562-1.301
			c-0.711,2.829-1.349,5.366-1.985,7.903c-1.084,4.329-2.185,8.653-3.236,12.99c-0.256,1.057-0.763,1.571-1.894,1.735
			c-6.78,0.986-13.548,2.057-20.324,3.074c-1.956,0.294-2.539-0.409-2.053-2.415c3.113-12.862,6.234-25.722,9.354-38.582
			c0.178-0.735,0.307-1.491,0.574-2.193c0.999-2.623,0.533-5.001-0.533-7.583c-4.586-11.116-8.959-22.319-13.41-33.491
			c-0.716-1.797-0.348-2.386,1.561-2.67c6.291-0.935,12.579-1.885,18.865-2.854c1.979-0.305,2.221-0.199,2.965,1.672
			c1.97,4.953,3.941,9.905,6.047,15.198c0.729-2.977,1.386-5.649,2.039-8.323c0.745-3.049,1.531-6.089,2.205-9.153
			c0.236-1.072,0.787-1.524,1.814-1.674c4.72-0.692,9.434-1.417,14.151-2.129c2.208-0.333,4.418-0.659,6.626-0.993
			c1.549-0.234,2.243,0.469,1.872,2.001c-1.752,7.242-3.525,14.479-5.296,21.716c-1.528,6.243-3.055,12.487-4.606,18.724
			c-0.138,0.554-0.077,1.025,0.126,1.536c5.257,13.21,10.506,26.424,15.756,39.637c0.139,0.351,0.31,0.695,0.403,1.058
			C210.485,225.241,210.055,225.927,208.992,226.09z M209.905,127.484c-0.004-7.202-0.002-14.405-0.002-21.607
			c0-7.24-0.01-14.481,0.013-21.721c0.003-0.842-0.066-1.19-1.107-0.998c-2.939,0.539-5.908,0.913-8.863,1.369
			c-1.737,0.268-2.285-0.187-2.287-1.964c-0.002-2.578,0.02-5.156-0.011-7.733c-0.012-1.022,0.427-1.516,1.429-1.666
			c8.534-1.275,17.066-2.568,25.598-3.859c2.283-0.345,4.565-0.694,6.844-1.059c1.735-0.278,2.285,0.177,2.288,1.96
			c0.003,2.426,0.003,4.852,0,7.278c-0.002,1.651-0.198,1.893-1.802,2.146c-3.252,0.513-6.5,1.071-9.764,1.488
			c-0.987,0.126-1.112,0.513-1.11,1.364c0.023,14.405,0.016,28.81,0.016,43.215c0,2.174-0.128,2.285-2.348,2.593
			c-2.249,0.312-4.492,0.671-6.733,1.033C210.446,129.583,209.906,129.147,209.905,127.484z M273.331,216.34
			c-6.215,0.926-12.427,1.871-18.635,2.835c-2.046,0.318-2.282,0.219-3.055-1.706c-2.28-5.683-4.56-11.366-6.841-17.048
			c-0.137-0.34-0.29-0.673-0.54-1.249c-1.076,4.264-2.088,8.269-3.096,12.276c-0.729,2.897-1.481,5.788-2.161,8.696
			c-0.243,1.039-0.777,1.501-1.836,1.656c-6.816,0.999-13.626,2.044-20.436,3.088c-1.751,0.268-2.426-0.412-2.006-2.152
			c3.526-14.595,7.057-29.189,10.606-43.779c0.188-0.773,0.151-1.453-0.146-2.193c-4.823-12.04-9.627-24.087-14.434-36.133
			c-0.699-1.752-0.383-2.388,1.424-2.664c6.623-1.014,13.251-2.001,19.875-3.006c1.018-0.155,1.521,0.353,1.871,1.239
			c1.899,4.819,3.824,9.628,5.744,14.44c0.135,0.337,0.296,0.664,0.546,1.222c0.72-2.94,1.388-5.65,2.046-8.362
			c0.722-2.977,1.468-5.949,2.134-8.938c0.252-1.131,0.836-1.618,1.981-1.786c6.816-0.997,13.625-2.048,20.433-3.1
			c1.818-0.281,2.493,0.43,2.043,2.27c-1.822,7.456-3.656,14.908-5.481,22.364c-1.429,5.841-2.834,11.688-4.296,17.52
			c-0.188,0.751-0.135,1.385,0.143,2.08c5.265,13.206,10.519,26.416,15.77,39.628C275.749,215.458,275.368,216.036,273.331,216.34z"
			/>
		<path class="st0" d="M116.666,196.983c0.094,3.021,0.066,2.871-2.918,3.43c-2.856,0.535-3.056-0.588-2.877-2.797
			c0.532-6.558,0.858-13.132,1.271-19.699c0.112-1.774,0.259-3.545,0.365-5.319c0.054-0.899,0.49-1.478,1.384-1.465
			c0.89,0.014,1.33,0.63,1.382,1.5c0.231,3.888,0.461,7.777,0.683,11.665C116.198,188.525,116.431,192.754,116.666,196.983z"/>
	</g>
</g>
</svg>
