<?xml version="1.0" encoding="utf-8"?>
<!-- Generator: Adobe Illustrator 24.1.3, SVG Export Plug-In . SVG Version: 6.00 Build 0)  -->
<svg version="1.1" id="Layer_1" xmlns="http://www.w3.org/2000/svg" xmlns:xlink="http://www.w3.org/1999/xlink" x="0px" y="0px"
	 viewBox="0 0 1780.02 349.384" style="enable-background:new 0 0 1780.02 349.384;" xml:space="preserve">
<style type="text/css">
	.st0{fill:#FFFFFF;}
	.st1{fill:#2C3359;}
</style>
<path class="st0" d="M559.58,172.651c11.62-12.509,22.821-24.568,34.025-36.626c9.858-10.61,19.666-21.268,29.639-31.768
	c1.389-1.463,3.598-2.148,6.235-3.654c0,49.278,0,97.196,0,145.504c-5.097,0-10.315,0-16.043,0c0-35.07,0-70.156,0-106.269
	c-1.587,1.27-2.47,1.807-3.141,2.538c-15.083,16.436-30.146,32.891-45.205,49.348c-4.602,5.029-6.725,5.087-11.313,0.115
	c-14.904-16.152-29.789-32.322-44.655-48.509c-0.764-0.832-1.283-1.89-1.916-2.843c-0.385,0.216-0.771,0.432-1.156,0.649
	c0,34.866,0,69.731,0,104.981c-5.728,0-10.975,0-16.62,0c0-47.856,0-95.897,0-145.357c2.702,1.452,5.264,2.122,6.796,3.759
	c19.575,20.908,39.001,41.955,58.469,62.963C556.157,169.061,557.651,170.612,559.58,172.651z"/>
<path class="st0" d="M442.885,165.285c-0.03,42.294-16.221,68.376-44.394,79.569c-32.382,12.866-74.916,4.968-94.773-28.945
	c-18.335-31.312-12.93-73.905,12.836-98.371c11.652-11.064,25.91-16.731,41.718-18.302c21.486-2.135,41.56,1.866,58.561,15.976
	C435.261,130.506,442.648,150.916,442.885,165.285z M367.735,114.495c-33.367,0.085-58.023,25.75-57.863,60.231
	c0.16,34.6,24.867,60.057,58.167,59.932c33.62-0.127,57.981-25.318,58.007-59.982C426.071,139.809,401.46,114.409,367.735,114.495z"
	/>
<path class="st0" d="M848.191,246.256c0-48.238,0-96,0-143.675c0.387-0.283,0.648-0.64,0.905-0.637
	c21.127,0.237,42.35-0.682,63.359,1.025c36.859,2.994,62.241,32.204,62.509,69.216c0.135,18.645-4.105,35.664-16.511,49.92
	c-14.197,16.314-33.018,23.291-53.995,24.21c-17.95,0.786-35.96,0.226-53.943,0.246C849.88,246.56,849.244,246.398,848.191,246.256z
	 M865.007,230.79c12.722,0,24.886,0.409,37.014-0.083c27.509-1.117,51.887-18.1,55.527-48.684
	c3.255-27.352-9.797-53.151-39.022-61.516c-6.01-1.72-12.378-2.72-18.624-2.971c-11.565-0.466-23.162-0.133-34.895-0.133
	C865.007,155.453,865.007,192.87,865.007,230.79z"/>
<path class="st0" d="M1513.37,247.92c-3.131-1.854-5.778-2.743-7.482-4.531c-32.963-34.566-65.816-69.239-98.7-103.88
	c-0.435-0.458-0.995-0.797-2.196-1.741c0,36.479,0,72.295,0,108.416c-5.832,0-11.066,0-16.623,0c0-47.974,0-95.864,0-145.317
	c2.748,1.356,5.45,1.934,7.036,3.584c32.747,34.074,65.366,68.271,98.02,102.435c0.868,0.909,1.843,1.715,3.407,3.16
	c0-36.383,0-71.927,0-107.87c5.632,0,10.877,0,16.539,0C1513.37,149.991,1513.37,198.017,1513.37,247.92z"/>
<path class="st0" d="M137.869,246.285c-6.044,0-11.167,0-16.559,0c0-48.114,0-96.014,0-144.031c3.278-1.271,5.413,0.023,7.712,2.447
	c32.532,34.297,65.163,68.501,97.782,102.717c0.683,0.717,1.497,1.309,2.941,2.556c0-36.27,0-71.898,0-107.858
	c5.872,0,11.109,0,16.695,0c0,48.029,0,96.067,0,145.602c-2.955-1.624-5.665-2.387-7.337-4.14
	c-32.86-34.429-65.598-68.973-98.37-103.486c-0.649-0.683-1.406-1.264-2.864-2.561C137.869,174.287,137.869,210.128,137.869,246.285
	z"/>
<path class="st0" d="M1587.058,167.766c26.175,0,51.96,0,78.501,0c0,4.434,0.005,8.536-0.001,12.638
	c-0.005,3.459-2.578,2.834-4.649,2.838c-14.33,0.025-28.661,0.012-42.991,0.011c-10.144,0-20.288,0-30.798,0
	c0,15.928,0,31.484,0,47.68c29.518,0,58.902,0,88.643,0c0,5.381,0,10.131,0,15.276c-35.103,0-70.145,0-105.452,0
	c0-48.006,0-95.913,0-144.119c35.011,0,69.925,0,105.325,0c0,4.798,0,9.65,0,15.114c-29.486,0-58.886,0-88.578,0
	C1587.058,134.22,1587.058,150.641,1587.058,167.766z"/>
<path class="st0" d="M1205.528,246.491c9.523-19.454,18.571-37.942,27.623-56.429c13.662-27.901,27.295-55.817,41.066-83.664
	c0.895-1.81,2.87-3.087,4.342-4.612c1.348,1.452,3.137,2.686,3.98,4.388c22.655,45.708,45.213,91.463,67.781,137.214
	c0.363,0.735,0.656,1.505,1.343,3.095c-6.121,0-11.817,0.179-17.484-0.147c-1.162-0.067-2.561-1.836-3.261-3.138
	c-3.224-5.998-6.311-12.073-9.296-18.195c-1.217-2.495-2.718-3.602-5.71-3.586c-24.976,0.138-49.955,0.011-74.93,0.219
	c-1.788,0.015-4.286,1.624-5.21,3.214c-3.501,6.028-6.329,12.445-9.786,18.501c-0.839,1.469-3.059,2.862-4.748,2.999
	C1216.321,246.748,1211.35,246.491,1205.528,246.491z M1279.359,135.938c-0.608-0.034-1.216-0.068-1.823-0.103
	c-10.544,23.074-21.087,46.148-31.759,69.503c22.151,0,43.5,0,65.538,0C1300.494,181.837,1289.927,158.887,1279.359,135.938z"/>
<path class="st0" d="M665.638,246.494c2.646-5.528,4.946-10.431,7.329-15.294c20.544-41.928,41.085-83.858,61.731-125.736
	c0.74-1.502,2.405-2.915,3.961-3.475c0.664-0.239,2.586,1.611,3.21,2.872c23.015,46.458,45.946,92.957,68.878,139.456
	c0.214,0.433,0.299,0.929,0.683,2.157c-5.953,0-11.652,0.141-17.333-0.127c-1.052-0.05-2.37-1.562-2.981-2.71
	c-3.276-6.159-6.43-12.386-9.492-18.655c-1.218-2.494-2.754-3.582-5.733-3.566c-24.975,0.136-49.952,0.13-74.928,0.01
	c-2.78-0.013-4.154,0.953-5.314,3.343c-3.047,6.28-6.181,12.531-9.65,18.582c-0.841,1.468-3.05,2.864-4.734,3.001
	C676.35,246.751,671.382,246.494,665.638,246.494z M771.343,205.4c-10.856-23.574-21.466-46.613-32.076-69.652
	c-0.57,0.012-1.139,0.023-1.709,0.035c-10.55,23.092-21.101,46.184-31.807,69.617C727.836,205.4,749.203,205.4,771.343,205.4z"/>
<path class="st0" d="M1086.435,102.004c5.554,0,10.675,0,16.329,0c0,42.935,0,85.645,0,128.993c2.467,0,4.404,0,6.342,0
	c24.486,0.001,48.973,0.092,73.457-0.087c4.016-0.029,5.379,1.171,5.031,5.101c-0.289,3.274-0.059,6.594-0.059,10.239
	c-33.904,0-67.303,0-101.1,0C1086.435,198.338,1086.435,150.327,1086.435,102.004z"/>
</svg>
