<?xml version="1.0" encoding="utf-8"?>
<!-- Generator: Adobe Illustrator 23.0.4, SVG Export Plug-In . SVG Version: 6.00 Build 0)  -->
<svg version="1.1" id="Layer_1" xmlns="http://www.w3.org/2000/svg" xmlns:xlink="http://www.w3.org/1999/xlink" x="0px" y="0px"
	 viewBox="0 0 2585.1 611.1" style="enable-background:new 0 0 2585.1 611.1;" xml:space="preserve">
<style type="text/css">
	.st0{fill:#FFFFFF;}
	.st1{fill:#F85300;}
	.st2{fill:#F05223;}
</style>
<g>
	<path class="st0" d="M1964.4,191.5v40.4h26.7c0,0,3.7,114.9-26.7,114.9h-7.3v34.4h108.2v-22.9l-19.9-11.5l6.3-108.8h33.5v-32.9
		c0,0-26.1,1.6-29.3-5.8c-1.9-4.3-0.8-14.7,0.4-22.5c2.3-15,17.5-24.8,31.8-20c0.6,0.2,1.2,0.4,1.8,0.6c0,0-25.6-2.6-21.4,26.1
		c4.2,28.8,38.2,15.7,38.2,15.7s20.4-7.3,13.6-34c-6.8-26.7-48.1-33.5-48.1-33.5s-41.8-9.9-61.7,14.6s-18.3,43.4-18.3,43.4
		L1964.4,191.5z"/>
	<path class="st0" d="M2120.7,208.5l-2.5,38.9l25.7,1.6c0,0-3.4,110.8-32.6,108.9l-7-0.4l-2.1,33.1l104.1,6.6l1.4-22.1l-18.4-12.3
		l12.6-104.3l32.2,2l2-31.7c0,0-25.3-0.1-27.8-7.3c-1.5-4.3,0.1-14.2,1.8-21.6c3.1-14.2,18.1-22.7,31.6-17.4
		c0.6,0.2,1.2,0.5,1.9,0.8c0,0-24.5-4.1-22.2,23.9c2.3,27.9,35.8,17.4,35.8,17.4s20.1-5.8,15.1-31.9s-44.3-35.1-44.3-35.1
		s-39.6-12.1-60.3,10.3s-20.2,40.6-20.2,40.6L2120.7,208.5z"/>
	<path class="st0" d="M595.6,291.8c-22.5-71.1-47.7-81-47.7-81s-46.2-28-72.6,13.6l-15.1-29.5c0,0-38.3,45-65.7,49.3l6.9,43.9
		l15.7-10c0,0,14.7-8.2,16.8,12.6c2.1,20.7,38.5,202.1,38.5,202.1s4.4,31.4-13.2,38.9l4.4,38.3c0,0,47.1-6.3,64-13.2
		c16.9-6.9,37-10,37-10V505c0,0-23.8,14.7-30.1,2.8c-6.3-11.9-8.2-52.1-8.2-52.1s1.3,10,26.4,10s39.5-35.1,39.5-35.1
		S618.6,364.5,595.6,291.8z M532.5,411.8c-14.8,0-20.3-29.4-20.3-29.4s-7.7-33.8-15.9-83.3c-8.2-49.4,7.1-50,7.1-50
		c16.5-3.8,20.9,13.2,30.2,34.6c9.3,21.4,12.1,90.1,12.1,90.1S547.3,411.8,532.5,411.8z"/>
	<path class="st0" d="M430.8,349.4c-9.1-69.3-54.5-104.4-54.5-104.4s-22.7-19.8-56-14.9c0,0-53,7.3-60.2,83
		c-7.2,75.7,28.3,147.2,28.3,147.2s25.6,49.2,77.2,44.4c39-3.6,58.3-48.8,58.3-48.8S439.9,418.8,430.8,349.4z M363.5,463.1
		c-26.8-0.3-34.2-63.7-34.2-63.7s-11.8-80.2-10.9-101.4c0.9-21.3,15.7-24.8,15.7-24.8c25.9-7.5,43.2,113.1,43.2,113.1
		S390.3,463.4,363.5,463.1z"/>
	<path class="st0" d="M794.8,194.9l5,24.9c0,0,30.1-4.3,30.1,25.1s12.2,116.8,12.2,116.8s1.4,25.1-23.7,26.5l0,30.8l113.3-10.8V368
		c0,0-30.1,12.4-33-15.9c-2.9-28.3-15.1-192.5-15.1-192.5L794.8,194.9z"/>
	<path class="st0" d="M148.1,183.2c0,0-30.5,17.3-8.1,55s70.3,15.3,70.3,15.3s32.6-20.4,20.4-54c-12.2-33.6-43.8-50.9-43.8-50.9
		s-63.1-30.5-118.1,8.1S30,260,30,260s6.1,67.7,89.6,104.4s91.6,75.3,91.6,75.3s24.4,59.1-22.4,72.3c-46.8,13.2-54-9.2-54-9.2
		s33.6,7.1,39.7-28.5c6.1-35.6-10.2-55-10.2-55s-23.9-27.6-56-8.1c-29.7,18-29.3,45.6-29.3,45.6s-4.3,82.7,68,105.1
		c0,0,94,35.1,128.8-79.5c0,0,34.3-102.8-46.6-147.8S123.9,261,123.9,261s-48.1-46.1-20.3-82.9C103.6,178,126,155.7,148.1,183.2z"/>
	<path class="st0" d="M573.2,137.1l4.4,29.6c0,0,33.3-7,31.5,22.8c-1.8,29.8,7,115.7,7,115.7s21.1,73.4,18.2,87.2
		c-2.9,13.8-21.3,16.7-21.3,16.7l3.3,41.7l111-18.8v-34.6c0,0-32.1,7.7-34.2-14.9c-2.1-22.6-11.7-138.2-11.7-138.2l18,16.2
		c13.1,11.9,21.5,28.2,23.3,45.8l9.2,86.2c0,0,4.6,35.9,46.3,34.6c0,0,49.7,6.7,45.1-54.7l-2.1-26.3l-29.2,2.1
		c0,0,2.1,23.4-0.8,22.5c-2.9-0.8-4.6-25.5-4.6-25.5l-6.3-78.4c0,0-1.3-33.8-17.1-50.1c-15.9-16.3-49.2-30-49.2-30
		s-22.5-13.8-38.4,5.8L668.9,92L573.2,137.1z"/>
	<circle class="st0" cx="840.6" cy="131.7" r="42"/>
	<path class="st0" d="M1071.5,277.9c0,0,18.6-116.1-80.3-118.3c-98.9-2.2-73.1,147-73.1,147s14.1,99.6,75.9,99.6
		c0,0,72.5,5.1,74.7-85.3l-28,1.4c0,0-10.8,39-31.5,39.4c-35.1,0.7-30.1-79.6-30.1-79.6L1071.5,277.9z M975.5,238.4
		c0,0-1.4-43.5,20.8-43.5s20.8,43.5,20.8,43.5H975.5z"/>
	<path class="st0" d="M1440.2,298.4c0,0-28.5-12.4-45.9,22.3c0,0-2,10.2,2.1,20.6c-12.3-12.6-26.3-28.3-26.3-34.9
		c0-11.8,22.3-68,22.3-68s4.3-16.7,16.7-21.8c0,0-24.2,20.3-0.6,44.5c23.6,24.2,56.4-1.9,56.4-1.9s15.5-16.5,4.3-42.7
		s-30.4-31.7-30.4-31.7s-38.4-14.3-62,18c-23.6,32.2-31.6,59.5-31.6,59.5l-27.3-50.2l36.6-47.7c0,0,46.7-99.5-52.9-111.7
		c0,0-111.6-5.3-79.8,87.3l24.3,47.3l-41.5,34.1c0,0-53.3,40.3-24.2,106c29.1,65.7,89.3,68.2,89.3,68.2s42.2,4.3,76.9-45.3
		c0,0,27.3,46.5,71.9,40.3c44.6-6.2,50.2-26.7,50.2-26.7S1489.2,313.3,1440.2,298.4z M1284.9,89.7c26.3-1.7,25.1,38.8-3.7,69.8
		C1281.2,159.6,1242.4,92.5,1284.9,89.7z M1277,355.9c-37.5-3.2-37.5-51-37.5-51s-2-13.1,10.4-27.1c8.7-9.8,34.5-31.9,34.5-31.9
		l38.2,60.6C1322.5,306.5,1314.4,359.1,1277,355.9z"/>
	<path class="st0" d="M1603.6,61.6l-27.2,78.7l51.5,3.6l6.4-19.2c0,0,2.9-11.5,17.2-11.5c14.3,0,17.9,0,17.9,0v184.5
		c0,0,2.1,37.9-28.6,36.5l-12.2,0v47.2h140.9v-49.3c0,0-40,1.4-40-16.4s0-200.2,0-200.2h36.5c0,0,16.4-1.4,16.4,26.5v10l47.9,2.1
		l-11.4-77.2L1603.6,61.6z"/>
	<path class="st0" d="M1948.1,200.3c0,0-22.8-25.4-62.2-25.4c0,0-73.6,2.7-84.3,80.3c-10.7,77.6,32.1,109.1,32.1,109.1
		s13.4,13.4,48.9,13.4c35.5,0,51.5-21.5,51.5-21.5s34.8-31.3,34.8-82.9C1968.9,221.7,1948.1,200.3,1948.1,200.3z M1907.3,320.1
		c0,0-10,26.8-26.1,26.8c-16.1,0-18.1-20.7-18.1-20.7s0-39.5,0-77.6s26.8-36.8,26.8-36.8s21.4,5.4,21.4,43.5
		C1911.3,293.3,1907.3,320.1,1907.3,320.1z"/>
	<path class="st0" d="M2307.3,322l94.8,8.2c0,0,23.3-74.2-36.4-90c-59.7-15.8-83.6-0.5-83.6-0.5s-33.8,10.1-38.6,85.7
		c-4.8,75.5,57,87.2,57,87.2s74.4,20.6,90-52.2l-30.2-2.7c0,0-16.9,24.9-35.3,23.5c-24.1-1.8-21.7-18.7-21.7-18.7L2307.3,322z
		 M2333.4,263.7c21.6,0,20.1,28.3,20.1,28.3l-43.5-4.1C2310,287.9,2311.8,263.7,2333.4,263.7z"/>
	<path class="st0" d="M2456.7,344.1l94.5,11.2c0,0,25.6-73.4-33.6-91c-59.2-17.6-83.6-3.1-83.6-3.1s-34.1,9.1-41.2,84.5
		c-7.1,75.4,54.3,88.9,54.3,88.9s73.8,22.9,91.5-49.4l-30.1-3.7c0,0-17.7,24.4-36,22.4c-24.1-2.6-21.1-19.4-21.1-19.4L2456.7,344.1z
		 M2484.6,286.6c21.6,0.7,19.2,28.9,19.2,28.9l-43.4-5.4C2460.4,310,2463,285.9,2484.6,286.6z"/>
	<g>
		<path class="st0" d="M2553.2,242.8c-13.4,0-24.4-10.9-24.4-24.4c0-13.4,10.9-24.4,24.4-24.4c13.4,0,24.4,10.9,24.4,24.4
			C2577.5,231.9,2566.6,242.8,2553.2,242.8z M2553.2,196.1c-12.3,0-22.3,10-22.3,22.3s10,22.3,22.3,22.3c12.3,0,22.3-10,22.3-22.3
			S2565.4,196.1,2553.2,196.1z"/>
		<path class="st0" d="M2546.8,230.8h-2.1v-24.5h11.9c2.4,0.2,6.7,1.7,6.7,6.1c0,4.3-3.5,6.4-5.3,7l-0.3,0h-10.9V230.8z
			 M2546.8,217.4h10.8c0.7-0.2,3.7-1.5,3.7-5c0-3.6-4.5-4-4.7-4l-9.8,0V217.4z"/>
		
			<rect x="2558.4" y="217.7" transform="matrix(0.8094 -0.5872 0.5872 0.8094 355.6422 1545.8156)" class="st0" width="2.1" height="14.5"/>
	</g>
</g>
</svg>
