<svg xmlns="http://www.w3.org/2000/svg" viewBox="0 0 1740 1480" width="1740" height="1480" preserveAspectRatio="xMidYMid meet" style="width: 100%; height: 100%; transform: translate3d(0px, 0px, 0px);"><defs><clipPath id="__lottie_element_1341"><rect width="1740" height="1480" x="0" y="0"></rect></clipPath><mask id="__lottie_element_1352" mask-type="alpha"><g transform="matrix(1.0000044107437134,0,0,0.7499991655349731,661.6611938476562,1061.4130859375)" opacity="1" style="display: block;"><image width="403px" height="35px" preserveAspectRatio="xMidYMid slice" xlink:href="https://assets.easyship.com/website/lottie/home/assets/supercharge-delight/img_10.png"></image></g></mask><mask id="__lottie_element_1355" mask-type="alpha"><g transform="matrix(1.0000044107437134,0,0,0.7499991655349731,661.6611938476562,1001.0140991210938)" opacity="1" style="display: block;"><image width="403px" height="35px" preserveAspectRatio="xMidYMid slice" xlink:href="https://assets.easyship.com/website/lottie/home/assets/supercharge-delight/img_6.png"></image></g></mask><clipPath id="__lottie_element_1362"><path d="M0,0 L1146,0 L1146,1434 L0,1434z"></path></clipPath><mask id="__lottie_element_1365" mask-type="alpha"><g transform="matrix(1.0000044107437134,0,0,0.7499991655349731,821.6610107421875,458.61346435546875)" opacity="1" style="display: block;"><image width="403px" height="35px" preserveAspectRatio="xMidYMid slice" xlink:href="https://assets.easyship.com/website/lottie/home/assets/supercharge-delight/img_2.png"></image></g></mask><clipPath id="__lottie_element_1969"><path d="M0,0 L1146,0 L1146,1434 L0,1434z"></path></clipPath><clipPath id="__lottie_element_1982"><path d="M0,0 L1146,0 L1146,1434 L0,1434z"></path></clipPath><filter id="__lottie_element_1998" filterUnits="objectBoundingBox" x="0%" y="0%" width="100%" height="100%"><feComponentTransfer in="SourceGraphic"><feFuncA type="table" tableValues="1.0 0.0"></feFuncA></feComponentTransfer></filter><mask id="__lottie_element_1997" mask-type="alpha"><g filter="url(#__lottie_element_1998)"><rect width="1740" height="1480" x="0" y="0" fill="#ffffff" opacity="0"></rect><g transform="matrix(1.0000044107437134,0,0,0.9999943971633911,974.7644653320312,503.8164367675781)" opacity="1" style="display: block;"><path fill="rgb(249,255,0)" fill-opacity="1" d=" M-5.06,-2.7 C-5.06,-2.7 -23.87,15.43 -23.87,15.43 C-23.87,15.43 391.42,15.43 391.42,15.43 C391.42,15.43 410.23,-2.7 410.23,-2.7 C410.23,-2.7 -5.06,-2.7 -5.06,-2.7z"></path><g opacity="1" transform="matrix(1,0,0,1,194.17999267578125,6.480999946594238)"></g></g></g></mask><filter id="__lottie_element_2005" filterUnits="objectBoundingBox" x="0%" y="0%" width="100%" height="100%"><feComponentTransfer in="SourceGraphic"><feFuncA type="table" tableValues="1.0 0.0"></feFuncA></feComponentTransfer></filter><mask id="__lottie_element_2004" mask-type="alpha"><g filter="url(#__lottie_element_2005)"><rect width="1740" height="1480" x="0" y="0" fill="#ffffff" opacity="0"></rect><g transform="matrix(1.0000044107437134,0,0,0.9999943971633911,792.93896484375,1041.734619140625)" opacity="1" style="display: block;"><path fill="rgb(249,255,0)" fill-opacity="1" d=" M-3.28,-2.39 C-3.28,-2.39 -19.23,13.92 -19.23,13.92 C-19.23,13.92 322.54,13.92 322.54,13.92 C322.54,13.92 338.49,-2.39 338.49,-2.39 C338.49,-2.39 -3.28,-2.39 -3.28,-2.39z"></path><g opacity="1" transform="matrix(1,0,0,1,159.37899780273438,5.683000087738037)"></g></g></g></mask></defs><g clip-path="url(#__lottie_element_1341)"><g transform="matrix(1.0000044107437134,0,0,0.9999943971633911,650.70947265625,149.50396728515625)" opacity="1" style="display: block;"><image width="1001px" height="1132px" preserveAspectRatio="xMidYMid slice" xlink:href="https://assets.easyship.com/website/lottie/home/assets/supercharge-delight/img_15.png"></image></g><g transform="matrix(1.0000044107437134,0,0,0.9999943971633911,575.7106323242188,563.5037841796875)" opacity="1" style="display: block;"><image width="531px" height="865px" preserveAspectRatio="xMidYMid slice" xlink:href="https://assets.easyship.com/website/lottie/home/assets/supercharge-delight/img_14.png"></image></g><g transform="matrix(1.0000044107437134,0,0,0.9999943971633911,674.007568359375,1041.734619140625)" opacity="1" style="display: block;"><path fill="rgb(243,245,247)" fill-opacity="1" d=" M223.04,0.25 C223.04,0.25 212.41,11.12 212.41,11.12 C212.41,11.12 318.49,11.12 318.49,11.12 C318.49,11.12 318.51,0.25 318.51,0.25 C318.51,0.25 223.04,0.25 223.04,0.25z M116.96,0.25 C116.96,0.25 106.33,11.12 106.33,11.12 C106.33,11.12 201.8,11.12 201.8,11.12 C201.8,11.12 212.43,0.25 212.43,0.25 C212.43,0.25 116.96,0.25 116.96,0.25z M0.27,0.25 C0.27,0.25 0.25,11.12 0.25,11.12 C0.25,11.12 95.72,11.12 95.72,11.12 C95.72,11.12 106.35,0.25 106.35,0.25 C106.35,0.25 0.27,0.25 0.27,0.25z"></path><g opacity="1" transform="matrix(1,0,0,1,265.4580078125,5.683000087738037)"></g><g opacity="1" transform="matrix(1,0,0,1,159.37899780273438,5.683000087738037)"></g><g opacity="1" transform="matrix(1,0,0,1,53.29999923706055,5.683000087738037)"></g></g><g mask="url(#__lottie_element_2004)" style="display: block;"><g transform="matrix(1.0000044107437134,0,0,0.9999943971633911,674.007568359375,1041.734619140625)" opacity="1"><path fill="rgb(246,200,87)" fill-opacity="1" d=" M223.04,0.25 C223.04,0.25 212.41,11.12 212.41,11.12 C212.41,11.12 318.49,11.12 318.49,11.12 C318.49,11.12 318.51,0.25 318.51,0.25 C318.51,0.25 223.04,0.25 223.04,0.25z M116.96,0.25 C116.96,0.25 106.33,11.12 106.33,11.12 C106.33,11.12 201.8,11.12 201.8,11.12 C201.8,11.12 212.43,0.25 212.43,0.25 C212.43,0.25 116.96,0.25 116.96,0.25z M0.27,0.25 C0.27,0.25 0.25,11.12 0.25,11.12 C0.25,11.12 95.72,11.12 95.72,11.12 C95.72,11.12 106.35,0.25 106.35,0.25 C106.35,0.25 0.27,0.25 0.27,0.25z"></path><g opacity="1" transform="matrix(1,0,0,1,265.4580078125,5.683000087738037)"></g><g opacity="1" transform="matrix(1,0,0,1,159.37899780273438,5.683000087738037)"></g><g opacity="1" transform="matrix(1,0,0,1,53.29999923706055,5.683000087738037)"></g></g></g><g mask="url(#__lottie_element_1352)" style="display: block;"><g clip-path="url(#__lottie_element_1982)" transform="matrix(1.0000044107437134,0,0,0.9999943971633911,535.9974365234375,24.003992080688477)" opacity="1"><g transform="matrix(1,0,0,1,137.46697998046875,1115.64208984375)" opacity="1" style="display: block;"><image width="242px" height="24px" preserveAspectRatio="xMidYMid slice" xlink:href="https://assets.easyship.com/website/lottie/home/assets/supercharge-delight/img_13.png"></image></g><g transform="matrix(1,0,0,1,137.46798706054688,1078.1409912109375)" opacity="1" style="display: block;"><image width="144px" height="24px" preserveAspectRatio="xMidYMid slice" xlink:href="https://assets.easyship.com/website/lottie/home/assets/supercharge-delight/img_12.png"></image></g><g transform="matrix(1,0,0,1,137.46701049804688,1040.6409912109375)" opacity="1" style="display: block;"><image width="69px" height="24px" preserveAspectRatio="xMidYMid slice" xlink:href="https://assets.easyship.com/website/lottie/home/assets/supercharge-delight/img_11.png"></image></g></g></g><g mask="url(#__lottie_element_1355)" style="display: block;"><g clip-path="url(#__lottie_element_1969)" transform="matrix(1.0000044107437134,0,0,0.9999943971633911,535.9974365234375,24.003992080688477)" opacity="1"><g transform="matrix(1,0,0,1,137.59400939941406,1054.4190673828125)" opacity="1" style="display: block;"><image width="87px" height="23px" preserveAspectRatio="xMidYMid slice" xlink:href="https://assets.easyship.com/website/lottie/home/assets/supercharge-delight/img_9.png"></image></g><g transform="matrix(1,0,0,1,137.593994140625,1016.9190063476562)" opacity="1" style="display: block;"><image width="88px" height="23px" preserveAspectRatio="xMidYMid slice" xlink:href="https://assets.easyship.com/website/lottie/home/assets/supercharge-delight/img_8.png"></image></g><g transform="matrix(1,0,0,1,137.593994140625,979.4190063476562)" opacity="1" style="display: block;"><image width="308px" height="24px" preserveAspectRatio="xMidYMid slice" xlink:href="https://assets.easyship.com/website/lottie/home/assets/supercharge-delight/img_7.png"></image></g></g></g><g transform="matrix(1.0000044107437134,0,0,0.9999943971633911,828.2647094726562,503.8164367675781)" opacity="1" style="display: block;"><path fill="rgb(243,245,247)" fill-opacity="1" d=" M271.75,0.25 C271.75,0.25 258.82,12.71 258.82,12.71 C258.82,12.71 388.11,12.71 388.11,12.71 C388.11,12.71 388.11,0.25 388.11,0.25 C388.11,0.25 271.75,0.25 271.75,0.25z M142.46,0.25 C142.46,0.25 129.54,12.71 129.54,12.71 C129.54,12.71 245.89,12.71 245.89,12.71 C245.89,12.71 258.82,0.25 258.82,0.25 C258.82,0.25 142.46,0.25 142.46,0.25z M0.25,0.25 C0.25,0.25 0.25,12.71 0.25,12.71 C0.25,12.71 116.61,12.71 116.61,12.71 C116.61,12.71 129.54,0.25 129.54,0.25 C129.54,0.25 0.25,0.25 0.25,0.25z"></path><g opacity="1" transform="matrix(1,0,0,1,323.4670104980469,6.480999946594238)"></g><g opacity="1" transform="matrix(1,0,0,1,194.17999267578125,6.480999946594238)"></g><g opacity="1" transform="matrix(1,0,0,1,64.89299774169922,6.480999946594238)"></g></g><g mask="url(#__lottie_element_1997)" style="display: block;"><g transform="matrix(1.0000044107437134,0,0,0.9999943971633911,828.2647094726562,503.8164367675781)" opacity="1"><path fill="rgb(246,200,87)" fill-opacity="1" d=" M271.75,0.25 C271.75,0.25 258.82,12.71 258.82,12.71 C258.82,12.71 388.11,12.71 388.11,12.71 C388.11,12.71 388.11,0.25 388.11,0.25 C388.11,0.25 271.75,0.25 271.75,0.25z M142.46,0.25 C142.46,0.25 129.54,12.71 129.54,12.71 C129.54,12.71 245.89,12.71 245.89,12.71 C245.89,12.71 258.82,0.25 258.82,0.25 C258.82,0.25 142.46,0.25 142.46,0.25z M0.25,0.25 C0.25,0.25 0.25,12.71 0.25,12.71 C0.25,12.71 116.61,12.71 116.61,12.71 C116.61,12.71 129.54,0.25 129.54,0.25 C129.54,0.25 0.25,0.25 0.25,0.25z"></path><g opacity="1" transform="matrix(1,0,0,1,323.4670104980469,6.480999946594238)"></g><g opacity="1" transform="matrix(1,0,0,1,194.17999267578125,6.480999946594238)"></g><g opacity="1" transform="matrix(1,0,0,1,64.89299774169922,6.480999946594238)"></g></g></g><g mask="url(#__lottie_element_1365)" style="display: block;"><g clip-path="url(#__lottie_element_1362)" transform="matrix(1.0000044107437134,0,0,0.9999943971633911,535.9974365234375,24.003992080688477)" opacity="1"><g transform="matrix(1,0,0,1,291.7380065917969,506.8840026855469)" opacity="1" style="display: block;"><image width="111px" height="29px" preserveAspectRatio="xMidYMid slice" xlink:href="https://assets.easyship.com/website/lottie/home/assets/supercharge-delight/img_5.png"></image></g><g transform="matrix(1,0,0,1,291.7389831542969,469.3840026855469)" opacity="1" style="display: block;"><image width="115px" height="29px" preserveAspectRatio="xMidYMid slice" xlink:href="https://assets.easyship.com/website/lottie/home/assets/supercharge-delight/img_4.png"></image></g><g transform="matrix(1,0,0,1,291.73797607421875,431.8840026855469)" opacity="1" style="display: block;"><image width="392px" height="29px" preserveAspectRatio="xMidYMid slice" xlink:href="https://assets.easyship.com/website/lottie/home/assets/supercharge-delight/img_3.png"></image></g></g></g><g transform="matrix(1.0800050497055054,0,0,1.09348726272583,1323.275146484375,1047.525146484375)" opacity="1" style="display: block;"><image width="179px" height="179px" preserveAspectRatio="xMidYMid slice" xlink:href="https://assets.easyship.com/website/lottie/home/assets/supercharge-delight/img_1.png"></image></g><g transform="matrix(1.0611023902893066,0,0,1.0743485689163208,1463.8465576171875,1202.833251953125)" opacity="1" style="display: block;"><image width="102px" height="102px" preserveAspectRatio="xMidYMid slice" xlink:href="https://assets.easyship.com/website/lottie/home/assets/supercharge-delight/img_0.png"></image></g></g></svg>