<svg xmlns="http://www.w3.org/2000/svg" viewBox="0 0 1740 1480" width="1740" height="1480" preserveAspectRatio="xMidYMid meet" style="width: 100%; height: 100%; transform: translate3d(0px, 0px, 0px);"><defs><clipPath id="__lottie_element_103"><rect width="1740" height="1480" x="0" y="0"></rect></clipPath></defs><g clip-path="url(#__lottie_element_103)"><g transform="matrix(0.9999978542327881,0,0,0.9999978542327881,258.69610595703125,71.16719818115234)" opacity="1" style="display: block;"><image width="1408px" height="1238px" preserveAspectRatio="xMidYMid slice" xlink:href="https://assets.easyship.com/website/lottie/home/assets/supercharge-store/img_3.png"></image></g><g transform="matrix(0.8000149726867676,0,0,0.8000149726867676,866.4868774414062,880.6119995117188)" opacity="1" style="display: block;"><image width="1002px" height="525px" preserveAspectRatio="xMidYMid slice" xlink:href="https://assets.easyship.com/website/lottie/home/assets/supercharge-store/img_2.png"></image></g><g style="display: none;" transform="matrix(0.9999901056289673,0,0,0.9999901056289673,835.298828125,835.3316650390625)" opacity="0.0000052277911315457"><g opacity="1" transform="matrix(1,0,0,1,481.2560119628906,223.64100646972656)"><path stroke-linecap="butt" stroke-linejoin="miter" fill-opacity="0" stroke-miterlimit="4" stroke="rgb(247,143,41)" stroke-opacity="1" stroke-width="3" d=" M315.4100036621094,58.2599983215332 C315.4100036621094,68.82099914550781 306.7690124511719,77.45999908447266 296.2099914550781,77.45999908447266 C296.2099914550781,77.45999908447266 -296.2099914550781,77.45999908447266 -296.2099914550781,77.45999908447266 C-306.77099609375,77.45999908447266 -315.4100036621094,68.82099914550781 -315.4100036621094,58.2599983215332 C-315.4100036621094,58.2599983215332 -315.4100036621094,-58.2599983215332 -315.4100036621094,-58.2599983215332 C-315.4100036621094,-68.81999969482422 -306.77099609375,-77.45999908447266 -296.2099914550781,-77.45999908447266 C-296.2099914550781,-77.45999908447266 296.2099914550781,-77.45999908447266 296.2099914550781,-77.45999908447266 C306.7690124511719,-77.45999908447266 315.4100036621094,-68.81999969482422 315.4100036621094,-58.2599983215332 C315.4100036621094,-58.2599983215332 315.4100036621094,58.2599983215332 315.4100036621094,58.2599983215332z"></path></g></g><g transform="matrix(0.9999894499778748,0,0,0.9999894499778748,836.2993774414062,567.7687377929688)" opacity="1" style="display: block;"><image width="1002px" height="525px" preserveAspectRatio="xMidYMid slice" xlink:href="https://assets.easyship.com/website/lottie/home/assets/supercharge-store/img_1.png"></image></g><g transform="matrix(0.9999894499778748,0,0,0.9999894499778748,836.2993774414062,567.7687377929688)" opacity="0.9994796481689072" style="display: block;"><g opacity="1" transform="matrix(1,0,0,1,481.2560119628906,223.63600158691406)"><path stroke-linecap="butt" stroke-linejoin="miter" fill-opacity="0" stroke-miterlimit="4" stroke="rgb(247,143,41)" stroke-opacity="1" stroke-width="3" d=" M315.4100036621094,58.25899887084961 C315.4100036621094,68.81999969482422 306.7690124511719,77.46099853515625 296.2099914550781,77.46099853515625 C296.2099914550781,77.46099853515625 -296.2099914550781,77.46099853515625 -296.2099914550781,77.46099853515625 C-306.77099609375,77.46099853515625 -315.4100036621094,68.81999969482422 -315.4100036621094,58.25899887084961 C-315.4100036621094,58.25899887084961 -315.4100036621094,-58.2599983215332 -315.4100036621094,-58.2599983215332 C-315.4100036621094,-68.81999969482422 -306.77099609375,-77.45999908447266 -296.2099914550781,-77.45999908447266 C-296.2099914550781,-77.45999908447266 296.2099914550781,-77.45999908447266 296.2099914550781,-77.45999908447266 C306.7690124511719,-77.45999908447266 315.4100036621094,-68.81999969482422 315.4100036621094,-58.2599983215332 C315.4100036621094,-58.2599983215332 315.4100036621094,58.25899887084961 315.4100036621094,58.25899887084961z"></path></g></g><g transform="matrix(0.800015389919281,0,0,0.800015389919281,866.4866943359375,339.8630676269531)" opacity="1" style="display: block;"><image width="1002px" height="526px" preserveAspectRatio="xMidYMid slice" xlink:href="https://assets.easyship.com/website/lottie/home/assets/supercharge-store/img_0.png"></image></g><g transform="matrix(0.9999896883964539,0,0,0.9999896883964539,833.2988891601562,294.26910400390625)" opacity="0.000005691342155671464" style="display: none;"><g opacity="1" transform="matrix(1,0,0,1,481.2560119628906,223.69700622558594)"><path stroke-linecap="butt" stroke-linejoin="miter" fill-opacity="0" stroke-miterlimit="4" stroke="rgb(247,143,41)" stroke-opacity="1" stroke-width="3" d=" M315.4100036621094,58.2599983215332 C315.4100036621094,68.82099914550781 306.7690124511719,77.45999908447266 296.2099914550781,77.45999908447266 C296.2099914550781,77.45999908447266 -296.2099914550781,77.45999908447266 -296.2099914550781,77.45999908447266 C-306.77099609375,77.45999908447266 -315.4100036621094,68.82099914550781 -315.4100036621094,58.2599983215332 C-315.4100036621094,58.2599983215332 -315.4100036621094,-58.2599983215332 -315.4100036621094,-58.2599983215332 C-315.4100036621094,-68.81900024414062 -306.77099609375,-77.45999908447266 -296.2099914550781,-77.45999908447266 C-296.2099914550781,-77.45999908447266 296.2099914550781,-77.45999908447266 296.2099914550781,-77.45999908447266 C306.7690124511719,-77.45999908447266 315.4100036621094,-68.81900024414062 315.4100036621094,-58.2599983215332 C315.4100036621094,-58.2599983215332 315.4100036621094,58.2599983215332 315.4100036621094,58.2599983215332z"></path></g></g></g></svg>