<svg xmlns="http://www.w3.org/2000/svg" viewBox="0 0 1740 1480" width="1740" height="1480" preserveAspectRatio="xMidYMid meet" style="width: 100%; height: 100%; transform: translate3d(0px, 0px, 0px);"><defs><clipPath id="__lottie_element_1269"><rect width="1740" height="1480" x="0" y="0"></rect></clipPath><clipPath id="__lottie_element_1290"><path d="M0,0 L1257,0 L1257,1056 L0,1056z"></path></clipPath><clipPath id="__lottie_element_1291"><path fill="#ffffff" clip-rule="nonzero" d=" M791.3319702148438,405.5 C791.3319702148438,405.5 306.3320007324219,405.5 306.3320007324219,405.5 C306.3320007324219,405.5 306.3320007324219,443 306.3320007324219,443 C306.3320007324219,443 791.3319702148438,443 791.3319702148438,443 C791.3319702148438,443 791.3319702148438,405.5 791.3319702148438,405.5" fill-opacity="1"></path></clipPath></defs><g clip-path="url(#__lottie_element_1269)"><g transform="matrix(1,0,0,1.0000050067901611,79.511962890625,71.45538330078125)" opacity="1" style="display: block;"><image width="1575px" height="1237px" preserveAspectRatio="xMidYMid slice" xlink:href="https://assets.easyship.com/website/lottie/home/assets/supercharge-time/img_18.png"></image></g><g style="display: block;" transform="matrix(0.999955415725708,0,0,1.0000050067901611,990.8487548828125,1039.733154296875)" opacity="1"><image width="485px" height="346px" preserveAspectRatio="xMidYMid slice" xlink:href="https://assets.easyship.com/website/lottie/home/assets/supercharge-time/img_16.png"></image></g><g style="display: none;" transform="matrix(-0.5589582324028015,0,0,1.0000050067901611,1368.10888671875,1039.733154296875)" opacity="1"><image width="485px" height="397px" preserveAspectRatio="xMidYMid slice" xlink:href="https://assets.easyship.com/website/lottie/home/assets/supercharge-time/img_17.png"></image></g><g transform="matrix(-0.566250741481781,0,0,1.0000050067901611,1369.873779296875,1039.733154296875)" opacity="1" style="display: none;"><image width="485px" height="346px" preserveAspectRatio="xMidYMid slice" xlink:href="https://assets.easyship.com/website/lottie/home/assets/supercharge-time/img_16.png"></image></g><g style="display: block;" transform="matrix(1,0,0,1.0000050067901611,536.3359375,1039.733154296875)" opacity="1"><image width="485px" height="346px" preserveAspectRatio="xMidYMid slice" xlink:href="https://assets.easyship.com/website/lottie/home/assets/supercharge-time/img_14.png"></image></g><g style="display: none;" transform="matrix(0.0727144330739975,0,0,1.0000050067901611,760.7409057617188,1039.733154296875)" opacity="1"><image width="485px" height="397px" preserveAspectRatio="xMidYMid slice" xlink:href="https://assets.easyship.com/website/lottie/home/assets/supercharge-time/img_15.png"></image></g><g transform="matrix(0.06058773770928383,0,0,1.0000050067901611,763.6755981445312,1039.733154296875)" opacity="1" style="display: none;"><image width="485px" height="346px" preserveAspectRatio="xMidYMid slice" xlink:href="https://assets.easyship.com/website/lottie/home/assets/supercharge-time/img_14.png"></image></g><g style="display: block;" transform="matrix(1,0,0,1.0000050067901611,536.8359375,883.2325439453125)" opacity="1"><image width="941px" height="199px" preserveAspectRatio="xMidYMid slice" xlink:href="https://assets.easyship.com/website/lottie/home/assets/supercharge-time/img_12.png"></image></g><g style="display: none;" transform="matrix(1,0,0,0.07254132628440857,536.8359375,975.9788208007812)" opacity="1"><image width="941px" height="199px" preserveAspectRatio="xMidYMid slice" xlink:href="https://assets.easyship.com/website/lottie/home/assets/supercharge-time/img_13.png"></image></g><g transform="matrix(1,0,0,0.05995740741491318,536.8359375,977.2371826171875)" opacity="1" style="display: none;"><image width="941px" height="199px" preserveAspectRatio="xMidYMid slice" xlink:href="https://assets.easyship.com/website/lottie/home/assets/supercharge-time/img_12.png"></image></g><g style="display: block;" transform="matrix(1,0,0,1.0000050067901611,536.8359375,743.2318115234375)" opacity="1"><image width="941px" height="199px" preserveAspectRatio="xMidYMid slice" xlink:href="https://assets.easyship.com/website/lottie/home/assets/supercharge-time/img_10.png"></image></g><g style="display: none;" transform="matrix(1,0,0,-0.5597893595695496,536.8359375,899.211181640625)" opacity="1"><image width="941px" height="199px" preserveAspectRatio="xMidYMid slice" xlink:href="https://assets.easyship.com/website/lottie/home/assets/supercharge-time/img_11.png"></image></g><g transform="matrix(1,0,0,0.05946337431669235,536.8359375,837.2859497070312)" opacity="1" style="display: none;"><image width="941px" height="199px" preserveAspectRatio="xMidYMid slice" xlink:href="https://assets.easyship.com/website/lottie/home/assets/supercharge-time/img_10.png"></image></g><g style="display: block;" transform="matrix(1,0,0,1.0000050067901611,536.8359375,602.7310180664062)" opacity="1"><image width="941px" height="200px" preserveAspectRatio="xMidYMid slice" xlink:href="https://assets.easyship.com/website/lottie/home/assets/supercharge-time/img_8.png"></image></g><g style="display: none;" transform="matrix(1,0,0,0.021762840449810028,536.8359375,700.5552978515625)" opacity="1"><image width="941px" height="200px" preserveAspectRatio="xMidYMid slice" xlink:href="https://assets.easyship.com/website/lottie/home/assets/supercharge-time/img_9.png"></image></g><g transform="matrix(1,0,0,0.01796991005539894,536.8359375,700.9345703125)" opacity="1" style="display: none;"><image width="941px" height="200px" preserveAspectRatio="xMidYMid slice" xlink:href="https://assets.easyship.com/website/lottie/home/assets/supercharge-time/img_8.png"></image></g><g clip-path="url(#__lottie_element_1290)" transform="matrix(1,0,0,1.0000050067901611,253.66796875,160.49783325195312)" opacity="1" style="display: block;"><g clip-path="url(#__lottie_element_1291)"><g transform="matrix(1,0,0,1,310.947021484375,406.9169921875)" opacity="1" style="display: block;"><image width="293px" height="32px" preserveAspectRatio="xMidYMid slice" xlink:href="https://assets.easyship.com/website/lottie/home/assets/supercharge-time/img_6.png"></image></g><g transform="matrix(1,0,0,1,312.5570068359375,361.9169921875)" opacity="1" style="display: block;"><image width="470px" height="32px" preserveAspectRatio="xMidYMid slice" xlink:href="https://assets.easyship.com/website/lottie/home/assets/supercharge-time/img_7.png"></image></g><g transform="matrix(1,0,0,1,310.90899658203125,322.40399169921875)" opacity="1" style="display: block;"><image width="293px" height="32px" preserveAspectRatio="xMidYMid slice" xlink:href="https://assets.easyship.com/website/lottie/home/assets/supercharge-time/img_6.png"></image></g></g></g><g style="display: block;" transform="matrix(1,0,0,1.0000050067901611,1113.9339599609375,426.2501525878906)" opacity="1"><image width="360px" height="170px" preserveAspectRatio="xMidYMid slice" xlink:href="https://assets.easyship.com/website/lottie/home/assets/supercharge-time/img_2.png"></image></g><g style="display: block;" transform="matrix(1,0,0,1.0000050067901611,823.47900390625,426.2501525878906)" opacity="1"><image width="361px" height="170px" preserveAspectRatio="xMidYMid slice" xlink:href="https://assets.easyship.com/website/lottie/home/assets/supercharge-time/img_1.png"></image></g><g style="display: block;" transform="matrix(1,0,0,1.0000050067901611,534.9339599609375,426.2501525878906)" opacity="1"><image width="360px" height="170px" preserveAspectRatio="xMidYMid slice" xlink:href="https://assets.easyship.com/website/lottie/home/assets/supercharge-time/img_0.png"></image></g><g style="display: block;" transform="matrix(0,0,0,0,1277.66796875,489.49951171875)" opacity="1"><image width="360px" height="170px" preserveAspectRatio="xMidYMid slice" xlink:href="https://assets.easyship.com/website/lottie/home/assets/supercharge-time/img_5.png"></image></g><g style="display: block;" transform="matrix(0,0,0,0,987.66796875,489.49951171875)" opacity="1"><image width="361px" height="170px" preserveAspectRatio="xMidYMid slice" xlink:href="https://assets.easyship.com/website/lottie/home/assets/supercharge-time/img_4.png"></image></g><g style="display: block;" transform="matrix(0,0,0,0,698.66796875,489.49951171875)" opacity="1"><image width="360px" height="170px" preserveAspectRatio="xMidYMid slice" xlink:href="https://assets.easyship.com/website/lottie/home/assets/supercharge-time/img_3.png"></image></g><g transform="matrix(0.4001951217651367,0,0,0.4001971185207367,1212.1424560546875,464.1874084472656)" opacity="1" style="display: none;"><image width="360px" height="170px" preserveAspectRatio="xMidYMid slice" xlink:href="https://assets.easyship.com/website/lottie/home/assets/supercharge-time/img_2.png"></image></g><g transform="matrix(0,0,0,0,987.66796875,489.49951171875)" opacity="1" style="display: none;"><image width="361px" height="170px" preserveAspectRatio="xMidYMid slice" xlink:href="https://assets.easyship.com/website/lottie/home/assets/supercharge-time/img_1.png"></image></g><g transform="matrix(0,0,0,0,698.66796875,489.49951171875)" opacity="1" style="display: none;"><image width="360px" height="170px" preserveAspectRatio="xMidYMid slice" xlink:href="https://assets.easyship.com/website/lottie/home/assets/supercharge-time/img_0.png"></image></g></g></svg>