<svg xmlns="http://www.w3.org/2000/svg" viewBox="0 0 1740 1480" width="1740" height="1480" preserveAspectRatio="xMidYMid meet" style="width: 100%; height: 100%; transform: translate3d(0px, 0px, 0px);"><defs><clipPath id="__lottie_element_389"><rect width="1740" height="1480" x="0" y="0"></rect></clipPath><clipPath id="__lottie_element_398"><path d="M0,0 L1740,0 L1740,1480 L0,1480z"></path></clipPath><clipPath id="__lottie_element_402"><path d="M0,0 L1127,0 L1127,1124 L0,1124z"></path></clipPath><clipPath id="__lottie_element_412"><path d="M0,0 L1740,0 L1740,1480 L0,1480z"></path></clipPath><clipPath id="__lottie_element_812"><path d="M0,0 L1127,0 L1127,1124 L0,1124z"></path></clipPath><clipPath id="__lottie_element_879"><path d="M0,0 L1127,0 L1127,1124 L0,1124z"></path></clipPath><clipPath id="__lottie_element_883"><path d="M0,0 L1740,0 L1740,1480 L0,1480z"></path></clipPath><clipPath id="__lottie_element_1043"><path d="M0,0 L1127,0 L1127,1124 L0,1124z"></path></clipPath></defs><g clip-path="url(#__lottie_element_389)"><g transform="matrix(1,0,0,1,461.5610046386719,37.459991455078125)" opacity="1" style="display: block;"><image width="504px" height="413px" preserveAspectRatio="xMidYMid slice" xlink:href="https://assets.easyship.com/website/lottie/home/assets/supercharge-global/img_6.png"></image></g><g transform="matrix(1,0,0,1,966.572021484375,902.27197265625)" opacity="1" style="display: block;"><image width="578px" height="533px" preserveAspectRatio="xMidYMid slice" xlink:href="https://assets.easyship.com/website/lottie/home/assets/supercharge-global/img_5.png"></image></g><g clip-path="url(#__lottie_element_398)" transform="matrix(1.0199999809265137,0,0,1.0199999809265137,101.10003662109375,-64.79998779296875)" opacity="1" style="display: block;"><g class="png" transform="matrix(1,0,0,1,0,0)" opacity="1" style="display: block;"><image width="1740px" height="1480px" preserveAspectRatio="xMidYMid slice" xlink:href="https://assets.easyship.com/website/lottie/home/assets/supercharge-global/img_4.png"></image></g><g class="png" clip-path="url(#__lottie_element_883)" transform="matrix(1,0,0,1,0,0)" opacity="1" style="display: none;"><g transform="matrix(1,0,0,1,0,0)" opacity="1" style="display: block;"><image width="1740px" height="1480px" preserveAspectRatio="xMidYMid slice" xlink:href="https://assets.easyship.com/website/lottie/home/assets/supercharge-global/seq_0_30.png"></image></g><g transform="matrix(1,0,0,1,0,0)" opacity="1" style="display: none;"><image width="1740px" height="1480px" preserveAspectRatio="xMidYMid slice" xlink:href="https://assets.easyship.com/website/lottie/home/assets/supercharge-global/seq_0_29.png"></image></g><g transform="matrix(1,0,0,1,0,0)" opacity="1" style="display: none;"><image width="1740px" height="1480px" preserveAspectRatio="xMidYMid slice" xlink:href="https://assets.easyship.com/website/lottie/home/assets/supercharge-global/seq_0_28.png"></image></g><g transform="matrix(1,0,0,1,0,0)" opacity="1" style="display: none;"><image width="1740px" height="1480px" preserveAspectRatio="xMidYMid slice" xlink:href="https://assets.easyship.com/website/lottie/home/assets/supercharge-global/seq_0_27.png"></image></g><g transform="matrix(1,0,0,1,0,0)" opacity="1" style="display: none;"><image width="1740px" height="1480px" preserveAspectRatio="xMidYMid slice" xlink:href="https://assets.easyship.com/website/lottie/home/assets/supercharge-global/seq_0_26.png"></image></g><g transform="matrix(1,0,0,1,0,0)" opacity="1" style="display: none;"><image width="1740px" height="1480px" preserveAspectRatio="xMidYMid slice" xlink:href="https://assets.easyship.com/website/lottie/home/assets/supercharge-global/seq_0_25.png"></image></g><g transform="matrix(1,0,0,1,0,0)" opacity="1" style="display: none;"><image width="1740px" height="1480px" preserveAspectRatio="xMidYMid slice" xlink:href="https://assets.easyship.com/website/lottie/home/assets/supercharge-global/seq_0_24.png"></image></g><g transform="matrix(1,0,0,1,0,0)" opacity="1" style="display: none;"><image width="1740px" height="1480px" preserveAspectRatio="xMidYMid slice" xlink:href="https://assets.easyship.com/website/lottie/home/assets/supercharge-global/seq_0_23.png"></image></g><g transform="matrix(1,0,0,1,0,0)" opacity="1" style="display: none;"><image width="1740px" height="1480px" preserveAspectRatio="xMidYMid slice" xlink:href="https://assets.easyship.com/website/lottie/home/assets/supercharge-global/seq_0_22.png"></image></g><g transform="matrix(1,0,0,1,0,0)" opacity="1" style="display: none;"><image width="1740px" height="1480px" preserveAspectRatio="xMidYMid slice" xlink:href="https://assets.easyship.com/website/lottie/home/assets/supercharge-global/seq_0_21.png"></image></g><g transform="matrix(1,0,0,1,0,0)" opacity="1" style="display: none;"><image width="1740px" height="1480px" preserveAspectRatio="xMidYMid slice" xlink:href="https://assets.easyship.com/website/lottie/home/assets/supercharge-global/seq_0_20.png"></image></g><g transform="matrix(1,0,0,1,0,0)" opacity="1" style="display: none;"><image width="1740px" height="1480px" preserveAspectRatio="xMidYMid slice" xlink:href="https://assets.easyship.com/website/lottie/home/assets/supercharge-global/seq_0_19.png"></image></g><g transform="matrix(1,0,0,1,0,0)" opacity="1" style="display: none;"><image width="1740px" height="1480px" preserveAspectRatio="xMidYMid slice" xlink:href="https://assets.easyship.com/website/lottie/home/assets/supercharge-global/seq_0_18.png"></image></g><g transform="matrix(1,0,0,1,0,0)" opacity="1" style="display: none;"><image width="1740px" height="1480px" preserveAspectRatio="xMidYMid slice" xlink:href="https://assets.easyship.com/website/lottie/home/assets/supercharge-global/seq_0_17.png"></image></g><g transform="matrix(1,0,0,1,0,0)" opacity="1" style="display: none;"><image width="1740px" height="1480px" preserveAspectRatio="xMidYMid slice" xlink:href="https://assets.easyship.com/website/lottie/home/assets/supercharge-global/seq_0_16.png"></image></g><g transform="matrix(1,0,0,1,0,0)" opacity="1" style="display: none;"><image width="1740px" height="1480px" preserveAspectRatio="xMidYMid slice" xlink:href="https://assets.easyship.com/website/lottie/home/assets/supercharge-global/seq_0_15.png"></image></g><g transform="matrix(1,0,0,1,0,0)" opacity="1" style="display: none;"><image width="1740px" height="1480px" preserveAspectRatio="xMidYMid slice" xlink:href="https://assets.easyship.com/website/lottie/home/assets/supercharge-global/seq_0_14.png"></image></g><g transform="matrix(1,0,0,1,0,0)" opacity="1" style="display: none;"><image width="1740px" height="1480px" preserveAspectRatio="xMidYMid slice" xlink:href="https://assets.easyship.com/website/lottie/home/assets/supercharge-global/seq_0_13.png"></image></g><g transform="matrix(1,0,0,1,0,0)" opacity="1" style="display: none;"><image width="1740px" height="1480px" preserveAspectRatio="xMidYMid slice" xlink:href="https://assets.easyship.com/website/lottie/home/assets/supercharge-global/seq_0_12.png"></image></g><g transform="matrix(1,0,0,1,0,0)" opacity="1" style="display: none;"><image width="1740px" height="1480px" preserveAspectRatio="xMidYMid slice" xlink:href="https://assets.easyship.com/website/lottie/home/assets/supercharge-global/seq_0_11.png"></image></g><g transform="matrix(1,0,0,1,0,0)" opacity="1" style="display: none;"><image width="1740px" height="1480px" preserveAspectRatio="xMidYMid slice" xlink:href="https://assets.easyship.com/website/lottie/home/assets/supercharge-global/seq_0_10.png"></image></g><g transform="matrix(1,0,0,1,0,0)" opacity="1" style="display: none;"><image width="1740px" height="1480px" preserveAspectRatio="xMidYMid slice" xlink:href="https://assets.easyship.com/website/lottie/home/assets/supercharge-global/seq_0_9.png"></image></g><g transform="matrix(1,0,0,1,0,0)" opacity="1" style="display: none;"><image width="1740px" height="1480px" preserveAspectRatio="xMidYMid slice" xlink:href="https://assets.easyship.com/website/lottie/home/assets/supercharge-global/seq_0_8.png"></image></g><g transform="matrix(1,0,0,1,0,0)" opacity="1" style="display: none;"><image width="1740px" height="1480px" preserveAspectRatio="xMidYMid slice" xlink:href="https://assets.easyship.com/website/lottie/home/assets/supercharge-global/seq_0_7.png"></image></g><g transform="matrix(1,0,0,1,0,0)" opacity="1" style="display: none;"><image width="1740px" height="1480px" preserveAspectRatio="xMidYMid slice" xlink:href="https://assets.easyship.com/website/lottie/home/assets/supercharge-global/seq_0_6.png"></image></g><g transform="matrix(1,0,0,1,0,0)" opacity="1" style="display: none;"><image width="1740px" height="1480px" preserveAspectRatio="xMidYMid slice" xlink:href="https://assets.easyship.com/website/lottie/home/assets/supercharge-global/seq_0_5.png"></image></g><g transform="matrix(1,0,0,1,0,0)" opacity="1" style="display: none;"><image width="1740px" height="1480px" preserveAspectRatio="xMidYMid slice" xlink:href="https://assets.easyship.com/website/lottie/home/assets/supercharge-global/seq_0_4.png"></image></g><g transform="matrix(1,0,0,1,0,0)" opacity="1" style="display: none;"><image width="1740px" height="1480px" preserveAspectRatio="xMidYMid slice" xlink:href="https://assets.easyship.com/website/lottie/home/assets/supercharge-global/seq_0_3.png"></image></g><g transform="matrix(1,0,0,1,0,0)" opacity="1" style="display: none;"><image width="1740px" height="1480px" preserveAspectRatio="xMidYMid slice" xlink:href="https://assets.easyship.com/website/lottie/home/assets/supercharge-global/seq_0_2.png"></image></g><g transform="matrix(1,0,0,1,0,0)" opacity="1" style="display: none;"><image width="1740px" height="1480px" preserveAspectRatio="xMidYMid slice" xlink:href="https://assets.easyship.com/website/lottie/home/assets/supercharge-global/seq_0_1.png"></image></g><g transform="matrix(1,0,0,1,0,0)" opacity="1" style="display: none;"><image width="1740px" height="1480px" preserveAspectRatio="xMidYMid slice" xlink:href="https://assets.easyship.com/website/lottie/home/assets/supercharge-global/seq_0_0.png"></image></g></g><g class="png" transform="matrix(1,0,0,1,0,0)" opacity="1" style="display: none;"><image width="1740px" height="1480px" preserveAspectRatio="xMidYMid slice" xlink:href="https://assets.easyship.com/website/lottie/home/assets/supercharge-global/img_3.png"></image></g><g class="png" clip-path="url(#__lottie_element_412)" transform="matrix(1,0,0,1,0,0)" opacity="1" style="display: none;"><g transform="matrix(1,0,0,1,0,0)" opacity="1" style="display: block;"><image width="1740px" height="1480px" preserveAspectRatio="xMidYMid slice" xlink:href="https://assets.easyship.com/website/lottie/home/assets/supercharge-global/seq_1_30.png"></image></g><g transform="matrix(1,0,0,1,0,0)" opacity="1" style="display: none;"><image width="1740px" height="1480px" preserveAspectRatio="xMidYMid slice" xlink:href="https://assets.easyship.com/website/lottie/home/assets/supercharge-global/seq_1_29.png"></image></g><g transform="matrix(1,0,0,1,0,0)" opacity="1" style="display: none;"><image width="1740px" height="1480px" preserveAspectRatio="xMidYMid slice" xlink:href="https://assets.easyship.com/website/lottie/home/assets/supercharge-global/seq_1_28.png"></image></g><g transform="matrix(1,0,0,1,0,0)" opacity="1" style="display: none;"><image width="1740px" height="1480px" preserveAspectRatio="xMidYMid slice" xlink:href="https://assets.easyship.com/website/lottie/home/assets/supercharge-global/seq_1_27.png"></image></g><g transform="matrix(1,0,0,1,0,0)" opacity="1" style="display: none;"><image width="1740px" height="1480px" preserveAspectRatio="xMidYMid slice" xlink:href="https://assets.easyship.com/website/lottie/home/assets/supercharge-global/seq_1_26.png"></image></g><g transform="matrix(1,0,0,1,0,0)" opacity="1" style="display: none;"><image width="1740px" height="1480px" preserveAspectRatio="xMidYMid slice" xlink:href="https://assets.easyship.com/website/lottie/home/assets/supercharge-global/seq_1_25.png"></image></g><g transform="matrix(1,0,0,1,0,0)" opacity="1" style="display: none;"><image width="1740px" height="1480px" preserveAspectRatio="xMidYMid slice" xlink:href="https://assets.easyship.com/website/lottie/home/assets/supercharge-global/seq_1_24.png"></image></g><g transform="matrix(1,0,0,1,0,0)" opacity="1" style="display: none;"><image width="1740px" height="1480px" preserveAspectRatio="xMidYMid slice" xlink:href="https://assets.easyship.com/website/lottie/home/assets/supercharge-global/seq_1_23.png"></image></g><g transform="matrix(1,0,0,1,0,0)" opacity="1" style="display: none;"><image width="1740px" height="1480px" preserveAspectRatio="xMidYMid slice" xlink:href="https://assets.easyship.com/website/lottie/home/assets/supercharge-global/seq_1_22.png"></image></g><g transform="matrix(1,0,0,1,0,0)" opacity="1" style="display: none;"><image width="1740px" height="1480px" preserveAspectRatio="xMidYMid slice" xlink:href="https://assets.easyship.com/website/lottie/home/assets/supercharge-global/seq_1_21.png"></image></g><g transform="matrix(1,0,0,1,0,0)" opacity="1" style="display: none;"><image width="1740px" height="1480px" preserveAspectRatio="xMidYMid slice" xlink:href="https://assets.easyship.com/website/lottie/home/assets/supercharge-global/seq_1_20.png"></image></g><g transform="matrix(1,0,0,1,0,0)" opacity="1" style="display: none;"><image width="1740px" height="1480px" preserveAspectRatio="xMidYMid slice" xlink:href="https://assets.easyship.com/website/lottie/home/assets/supercharge-global/seq_1_19.png"></image></g><g transform="matrix(1,0,0,1,0,0)" opacity="1" style="display: none;"><image width="1740px" height="1480px" preserveAspectRatio="xMidYMid slice" xlink:href="https://assets.easyship.com/website/lottie/home/assets/supercharge-global/seq_1_18.png"></image></g><g transform="matrix(1,0,0,1,0,0)" opacity="1" style="display: none;"><image width="1740px" height="1480px" preserveAspectRatio="xMidYMid slice" xlink:href="https://assets.easyship.com/website/lottie/home/assets/supercharge-global/seq_1_17.png"></image></g><g transform="matrix(1,0,0,1,0,0)" opacity="1" style="display: none;"><image width="1740px" height="1480px" preserveAspectRatio="xMidYMid slice" xlink:href="https://assets.easyship.com/website/lottie/home/assets/supercharge-global/seq_1_16.png"></image></g><g transform="matrix(1,0,0,1,0,0)" opacity="1" style="display: none;"><image width="1740px" height="1480px" preserveAspectRatio="xMidYMid slice" xlink:href="https://assets.easyship.com/website/lottie/home/assets/supercharge-global/seq_1_15.png"></image></g><g transform="matrix(1,0,0,1,0,0)" opacity="1" style="display: none;"><image width="1740px" height="1480px" preserveAspectRatio="xMidYMid slice" xlink:href="https://assets.easyship.com/website/lottie/home/assets/supercharge-global/seq_1_14.png"></image></g><g transform="matrix(1,0,0,1,0,0)" opacity="1" style="display: none;"><image width="1740px" height="1480px" preserveAspectRatio="xMidYMid slice" xlink:href="https://assets.easyship.com/website/lottie/home/assets/supercharge-global/seq_1_13.png"></image></g><g transform="matrix(1,0,0,1,0,0)" opacity="1" style="display: none;"><image width="1740px" height="1480px" preserveAspectRatio="xMidYMid slice" xlink:href="https://assets.easyship.com/website/lottie/home/assets/supercharge-global/seq_1_12.png"></image></g><g transform="matrix(1,0,0,1,0,0)" opacity="1" style="display: none;"><image width="1740px" height="1480px" preserveAspectRatio="xMidYMid slice" xlink:href="https://assets.easyship.com/website/lottie/home/assets/supercharge-global/seq_1_11.png"></image></g><g transform="matrix(1,0,0,1,0,0)" opacity="1" style="display: none;"><image width="1740px" height="1480px" preserveAspectRatio="xMidYMid slice" xlink:href="https://assets.easyship.com/website/lottie/home/assets/supercharge-global/seq_1_10.png"></image></g><g transform="matrix(1,0,0,1,0,0)" opacity="1" style="display: none;"><image width="1740px" height="1480px" preserveAspectRatio="xMidYMid slice" xlink:href="https://assets.easyship.com/website/lottie/home/assets/supercharge-global/seq_1_9.png"></image></g><g transform="matrix(1,0,0,1,0,0)" opacity="1" style="display: none;"><image width="1740px" height="1480px" preserveAspectRatio="xMidYMid slice" xlink:href="https://assets.easyship.com/website/lottie/home/assets/supercharge-global/seq_1_8.png"></image></g><g transform="matrix(1,0,0,1,0,0)" opacity="1" style="display: none;"><image width="1740px" height="1480px" preserveAspectRatio="xMidYMid slice" xlink:href="https://assets.easyship.com/website/lottie/home/assets/supercharge-global/seq_1_7.png"></image></g><g transform="matrix(1,0,0,1,0,0)" opacity="1" style="display: none;"><image width="1740px" height="1480px" preserveAspectRatio="xMidYMid slice" xlink:href="https://assets.easyship.com/website/lottie/home/assets/supercharge-global/seq_1_6.png"></image></g><g transform="matrix(1,0,0,1,0,0)" opacity="1" style="display: none;"><image width="1740px" height="1480px" preserveAspectRatio="xMidYMid slice" xlink:href="https://assets.easyship.com/website/lottie/home/assets/supercharge-global/seq_1_5.png"></image></g><g transform="matrix(1,0,0,1,0,0)" opacity="1" style="display: none;"><image width="1740px" height="1480px" preserveAspectRatio="xMidYMid slice" xlink:href="https://assets.easyship.com/website/lottie/home/assets/supercharge-global/seq_1_4.png"></image></g><g transform="matrix(1,0,0,1,0,0)" opacity="1" style="display: none;"><image width="1740px" height="1480px" preserveAspectRatio="xMidYMid slice" xlink:href="https://assets.easyship.com/website/lottie/home/assets/supercharge-global/seq_1_3.png"></image></g><g transform="matrix(1,0,0,1,0,0)" opacity="1" style="display: none;"><image width="1740px" height="1480px" preserveAspectRatio="xMidYMid slice" xlink:href="https://assets.easyship.com/website/lottie/home/assets/supercharge-global/seq_1_2.png"></image></g><g transform="matrix(1,0,0,1,0,0)" opacity="1" style="display: none;"><image width="1740px" height="1480px" preserveAspectRatio="xMidYMid slice" xlink:href="https://assets.easyship.com/website/lottie/home/assets/supercharge-global/seq_1_1.png"></image></g><g transform="matrix(1,0,0,1,0,0)" opacity="1" style="display: none;"><image width="1740px" height="1480px" preserveAspectRatio="xMidYMid slice" xlink:href="https://assets.easyship.com/website/lottie/home/assets/supercharge-global/seq_1_0.png"></image></g></g><g transform="matrix(1.0405100584030151,0,0,1.0405100584030151,344.7453918457031,276.1728210449219)" opacity="1" style="display: block;"><g opacity="1" transform="matrix(1,0,0,1,403.4949951171875,193.14199829101562)"><path stroke-linecap="round" stroke-linejoin="round" fill-opacity="0" stroke="rgb(15,109,113)" stroke-opacity="1" stroke-width="4" d=" M61.46799850463867,117.39199829101562 C17.826000213623047,60.17399978637695 -59.53900146484375,13.60200023651123 -114.49199676513672,60.63800048828125"></path></g></g><g transform="matrix(1.0405100584030151,0,0,1.0405100584030151,344.7453918457031,276.1728210449219)" opacity="1" style="display: none;"><g opacity="1" transform="matrix(1,0,0,1,403.4949951171875,193.14199829101562)"><path stroke-linecap="round" stroke-linejoin="round" fill-opacity="0" stroke="rgb(15,109,113)" stroke-opacity="1" stroke-width="4" d="M0 0"></path></g></g><g transform="matrix(1.0405100584030151,0,0,1.0405100584030151,344.7453918457031,276.1728210449219)" opacity="1" style="display: block;"><g opacity="1" transform="matrix(1,0,0,1,403.4949951171875,193.14199829101562)"><path stroke-linecap="round" stroke-linejoin="round" fill-opacity="0" stroke="rgb(15,109,113)" stroke-opacity="1" stroke-width="4" d="M0 0"></path></g></g><g transform="matrix(1.0405100584030151,0,0,1.0405100584030151,344.7453918457031,276.1728210449219)" opacity="1" style="display: none;"><g opacity="1" transform="matrix(1,0,0,1,403.4949951171875,193.14199829101562)"><path stroke-linecap="round" stroke-linejoin="round" fill-opacity="0" stroke="rgb(15,109,113)" stroke-opacity="1" stroke-width="4" d="M0 0"></path></g></g><g transform="matrix(1.0405100584030151,0,0,1.0405100584030151,344.7453918457031,276.1728210449219)" opacity="1" style="display: none;"><g opacity="1" transform="matrix(1,0,0,1,403.4949951171875,193.14199829101562)"><path stroke-linecap="round" stroke-linejoin="round" fill-opacity="0" stroke="rgb(15,109,113)" stroke-opacity="1" stroke-width="4" d="M0 0"></path></g></g><g transform="matrix(1.0405100584030151,0,0,1.0405100584030151,344.7453918457031,276.1728210449219)" opacity="1" style="display: none;"><g opacity="1" transform="matrix(1,0,0,1,403.4949951171875,193.14199829101562)"><path stroke-linecap="round" stroke-linejoin="round" fill-opacity="0" stroke="rgb(15,109,113)" stroke-opacity="1" stroke-width="4" d="M0 0"></path></g></g><g transform="matrix(1.0405100584030151,0,0,1.0405100584030151,344.7453918457031,276.1728210449219)" opacity="1" style="display: none;"><g opacity="1" transform="matrix(1,0,0,1,403.4949951171875,193.14199829101562)"><path stroke-linecap="round" stroke-linejoin="round" fill-opacity="0" stroke="rgb(15,109,113)" stroke-opacity="1" stroke-width="4" d="M0 0"></path></g></g><g transform="matrix(1.0405100584030151,0,0,1.0405100584030151,344.7453918457031,276.1728210449219)" opacity="1" style="display: block;"><g opacity="1" transform="matrix(1,0,0,1,403.4949951171875,193.14199829101562)"><path stroke-linecap="round" stroke-linejoin="round" fill-opacity="0" stroke="rgb(15,109,113)" stroke-opacity="1" stroke-width="4" d=" M88.99099731445312,234.98800659179688 C117.59600067138672,181.71400451660156 208.52499389648438,172.83900451660156 271.1549987792969,209.16600036621094"></path></g></g><g transform="matrix(1.0405100584030151,0,0,1.0405100584030151,344.7453918457031,276.1728210449219)" opacity="1" style="display: block;"><g opacity="1" transform="matrix(1,0,0,1,403.4949951171875,193.14199829101562)"><path stroke-linecap="round" stroke-linejoin="round" fill-opacity="0" stroke="rgb(15,109,113)" stroke-opacity="1" stroke-width="4" d=" M-154.00900268554688,199.98800659179688 C-63.58100128173828,119.87799835205078 211.3730010986328,15.08899974822998 360.0010070800781,137.99600219726562"></path></g></g><g transform="matrix(1.0405100584030151,0,0,1.0405100584030151,344.7453918457031,276.1728210449219)" opacity="1" style="display: none;"><g opacity="1" transform="matrix(1,0,0,1,403.4949951171875,193.14199829101562)"><path stroke-linecap="round" stroke-linejoin="round" fill-opacity="0" stroke="rgb(15,109,113)" stroke-opacity="1" stroke-width="4" d="M0 0"></path></g></g><g transform="matrix(1.0405100584030151,0,0,1.0405100584030151,344.7453918457031,276.1728210449219)" opacity="1" style="display: block;"><g opacity="1" transform="matrix(1,0,0,1,403.4949951171875,193.14199829101562)"><path stroke-linecap="round" stroke-linejoin="round" fill-opacity="0" stroke="rgb(15,109,113)" stroke-opacity="1" stroke-width="4" d=" M415.9909973144531,154.98800659179688 C370.9280090332031,114.23500061035156 313.0320129394531,180.71400451660156 275.0050048828125,254.34300231933594"></path></g></g><g transform="matrix(1.0405100584030151,0,0,1.0405100584030151,344.7453918457031,276.1728210449219)" opacity="1" style="display: none;"><g opacity="1" transform="matrix(1,0,0,1,403.4949951171875,193.14199829101562)"><path stroke-linecap="round" stroke-linejoin="round" fill-opacity="0" stroke="rgb(15,109,113)" stroke-opacity="1" stroke-width="4" d="M0 0"></path></g></g><g transform="matrix(1.0405100584030151,0,0,1.0405100584030151,344.7453918457031,276.1728210449219)" opacity="1" style="display: none;"><g opacity="1" transform="matrix(1,0,0,1,403.4949951171875,193.14199829101562)"><path stroke-linecap="round" stroke-linejoin="round" fill-opacity="0" stroke="rgb(15,109,113)" stroke-opacity="1" stroke-width="4" d="M0 0"></path></g></g><g transform="matrix(1.0405100584030151,0,0,1.0405100584030151,344.7453918457031,276.1728210449219)" opacity="1" style="display: none;"><g opacity="1" transform="matrix(1,0,0,1,403.4949951171875,193.14199829101562)"><path stroke-linecap="round" stroke-linejoin="round" fill-opacity="0" stroke="rgb(15,109,113)" stroke-opacity="1" stroke-width="4" d="M0 0"></path></g></g><g transform="matrix(1.0405100584030151,0,0,1.0405100584030151,344.7453918457031,276.1728210449219)" opacity="1" style="display: none;"><g opacity="1" transform="matrix(1,0,0,1,403.4949951171875,193.14199829101562)"><path stroke-linecap="round" stroke-linejoin="round" fill-opacity="0" stroke="rgb(15,109,113)" stroke-opacity="1" stroke-width="4" d="M0 0"></path></g></g><g transform="matrix(1.0405100584030151,0,0,1.0405100584030151,344.7453918457031,276.1728210449219)" opacity="1" style="display: none;"><g opacity="1" transform="matrix(1,0,0,1,403.4949951171875,193.14199829101562)"><path stroke-linecap="round" stroke-linejoin="round" fill-opacity="0" stroke="rgb(15,109,113)" stroke-opacity="1" stroke-width="4" d="M0 0"></path></g></g><g transform="matrix(1.0405100584030151,0,0,1.0405100584030151,344.7453918457031,276.1728210449219)" opacity="1" style="display: none;"><g opacity="1" transform="matrix(1,0,0,1,403.4949951171875,193.14199829101562)"><path stroke-linecap="round" stroke-linejoin="round" fill-opacity="0" stroke="rgb(15,109,113)" stroke-opacity="1" stroke-width="4" d="M0 0"></path></g></g><g transform="matrix(1.0405100584030151,0,0,1.0405100584030151,344.7453918457031,276.1728210449219)" opacity="1" style="display: block;"><g opacity="1" transform="matrix(1,0,0,1,403.4949951171875,193.14199829101562)"><path stroke-linecap="round" stroke-linejoin="round" fill-opacity="0" stroke="rgb(15,109,113)" stroke-opacity="1" stroke-width="4" d=" M-106.15899658203125,268.9639892578125 C-114.61100006103516,279.06201171875 -120.23699951171875,289.41900634765625 -122.49199676513672,299.63800048828125"></path></g></g><g transform="matrix(1.0405100584030151,0,0,1.0405100584030151,622.5614013671875,402.07379150390625)" opacity="1" style="display: none;"><g opacity="1" transform="matrix(1,0,0,1,403.4949951171875,193.14199829101562)"><path stroke-linecap="round" stroke-linejoin="round" fill-opacity="0" stroke="rgb(15,109,113)" stroke-opacity="1" stroke-width="4" d="M0 0"></path></g></g><g transform="matrix(1.0405100584030151,0,0,1.0405100584030151,622.5614013671875,402.07379150390625)" opacity="1" style="display: none;"><g opacity="1" transform="matrix(1,0,0,1,403.4949951171875,193.14199829101562)"><path stroke-linecap="round" stroke-linejoin="round" fill-opacity="0" stroke="rgb(15,109,113)" stroke-opacity="1" stroke-width="4" d="M0 0"></path></g></g><g transform="matrix(1.0405100584030151,0,0,1.0405100584030151,622.5614013671875,402.07379150390625)" opacity="1" style="display: block;"><g opacity="1" transform="matrix(1,0,0,1,403.4949951171875,193.14199829101562)"><path stroke-linecap="round" stroke-linejoin="round" fill-opacity="0" stroke="rgb(15,109,113)" stroke-opacity="1" stroke-width="4" d=" M88.99099731445312,186.98800659179688 C88.99099731445312,186.98800659179688 88.99099731445312,186.98800659179688 88.99099731445312,186.98800659179688"></path></g></g><g transform="matrix(1.0405100584030151,0,0,1.0405100584030151,344.7453918457031,276.1728210449219)" opacity="1" style="display: none;"><g opacity="1" transform="matrix(1,0,0,1,403.4949951171875,193.14199829101562)"><path stroke-linecap="round" stroke-linejoin="round" fill-opacity="0" stroke="rgb(15,109,113)" stroke-opacity="1" stroke-width="4" d="M0 0"></path></g></g><g transform="matrix(1.0405100584030151,0,0,1.0405100584030151,545.5633544921875,461.3828125)" opacity="1" style="display: block;"><g opacity="1" transform="matrix(1,0,0,1,403.4949951171875,193.14199829101562)"><path stroke-linecap="round" stroke-linejoin="round" fill-opacity="0" stroke="rgb(15,109,113)" stroke-opacity="1" stroke-width="4" d=" M114.68000030517578,56.1150016784668 C144.81100463867188,16.090999603271484 169.2030029296875,96.8499984741211 164.50799560546875,149.63800048828125"></path></g></g><g transform="matrix(1.0405100584030151,0,0,1.0405100584030151,545.5633544921875,461.3828125)" opacity="1" style="display: block;"><g opacity="1" transform="matrix(1,0,0,1,403.4949951171875,193.14199829101562)"><path stroke-linecap="round" stroke-linejoin="round" fill-opacity="0" stroke="rgb(15,109,113)" stroke-opacity="1" stroke-width="4" d=" M8.36299991607666,134.52200317382812 C24.825000762939453,153.33599853515625 36.854000091552734,175.60699462890625 40.507999420166016,197.63800048828125"></path></g></g><g transform="matrix(1.0405100584030151,0,0,1.0405100584030151,344.7453918457031,276.1728210449219)" opacity="1" style="display: none;"><g opacity="1" transform="matrix(1,0,0,1,403.4949951171875,193.14199829101562)"><path stroke-linecap="round" stroke-linejoin="round" fill-opacity="0" stroke="rgb(15,109,113)" stroke-opacity="1" stroke-width="4" d="M0 0"></path></g></g><g transform="matrix(1.0405100584030151,0,0,1.0405100584030151,344.7453918457031,276.1728210449219)" opacity="1" style="display: block;"><g opacity="1" transform="matrix(1,0,0,1,403.4949951171875,193.14199829101562)"><path stroke-linecap="round" stroke-linejoin="round" fill-opacity="0" stroke="rgb(15,109,113)" stroke-opacity="1" stroke-width="4" d="M0 0"></path></g></g><g transform="matrix(0.9783899784088135,0,0,1.0405100584030151,369.810546875,276.1728210449219)" opacity="1" style="display: block;"><g opacity="1" transform="matrix(1,0,0,1,403.4949951171875,193.14199829101562)"><path stroke-linecap="round" stroke-linejoin="round" fill-opacity="0" stroke="rgb(15,109,113)" stroke-opacity="1" stroke-width="4" d=" M383.0690002441406,526.719970703125 C382.2980041503906,529.3679809570312 381.45001220703125,532.0079956054688 380.52398681640625,534.6380004882812"></path></g></g><g transform="matrix(0.9783899784088135,0,0,1.0405100584030151,369.810546875,276.1728210449219)" opacity="1" style="display: none;"><g opacity="1" transform="matrix(1,0,0,1,403.4949951171875,193.14199829101562)"><path stroke-linecap="round" stroke-linejoin="round" fill-opacity="0" stroke="rgb(15,109,113)" stroke-opacity="1" stroke-width="4" d="M0 0"></path></g></g><g transform="matrix(1.0405100584030151,0,0,1.0405100584030151,344.7453918457031,276.1728210449219)" opacity="1" style="display: none;"><g opacity="1" transform="matrix(1,0,0,1,403.4949951171875,193.14199829101562)"><path stroke-linecap="round" stroke-linejoin="round" fill-opacity="0" stroke="rgb(15,109,113)" stroke-opacity="1" stroke-width="4" d="M0 0"></path></g></g><g transform="matrix(1.0405100584030151,0,0,1.0405100584030151,344.7453918457031,276.1728210449219)" opacity="1" style="display: none;"><g opacity="1" transform="matrix(1,0,0,1,403.4949951171875,193.14199829101562)"><path stroke-linecap="round" stroke-linejoin="round" fill-opacity="0" stroke="rgb(15,109,113)" stroke-opacity="1" stroke-width="4" d="M0 0"></path></g></g><g transform="matrix(1.0405100584030151,0,0,1.0405100584030151,344.7453918457031,276.1728210449219)" opacity="1" style="display: none;"><g opacity="1" transform="matrix(1,0,0,1,403.4949951171875,193.14199829101562)"><path stroke-linecap="round" stroke-linejoin="round" fill-opacity="0" stroke="rgb(15,109,113)" stroke-opacity="1" stroke-width="4" d="M0 0"></path></g></g><g transform="matrix(1.0405100584030151,0,0,1.0405100584030151,344.7453918457031,276.1728210449219)" opacity="1" style="display: none;"><g opacity="1" transform="matrix(1,0,0,1,403.4949951171875,193.14199829101562)"><path stroke-linecap="round" stroke-linejoin="round" fill-opacity="0" stroke="rgb(15,109,113)" stroke-opacity="1" stroke-width="4" d="M0 0"></path></g></g><g transform="matrix(1.0405100584030151,0,0,1.0405100584030151,344.7453918457031,276.1728210449219)" opacity="1" style="display: block;"><g opacity="1" transform="matrix(1,0,0,1,403.4949951171875,193.14199829101562)"><path stroke-linecap="round" stroke-linejoin="round" fill-opacity="0" stroke="rgb(15,109,113)" stroke-opacity="1" stroke-width="4" d=" M-181.23399353027344,7.416999816894531 C-248.98599243164062,-30.729000091552734 -299.56500244140625,-12.217000007629395 -282.24200439453125,112.13800048828125"></path></g></g><g transform="matrix(1.0405100584030151,0,0,1.0405100584030151,344.7453918457031,276.1728210449219)" opacity="1" style="display: none;"><g opacity="1" transform="matrix(1,0,0,1,403.4949951171875,193.14199829101562)"><path stroke-linecap="round" stroke-linejoin="round" fill-opacity="0" stroke="rgb(15,109,113)" stroke-opacity="1" stroke-width="4" d="M0 0"></path></g></g><g transform="matrix(1.0405100584030151,0,0,1.0405100584030151,344.7453918457031,276.1728210449219)" opacity="1" style="display: none;"><g opacity="1" transform="matrix(1,0,0,1,403.4949951171875,193.14199829101562)"><path stroke-linecap="round" stroke-linejoin="round" fill-opacity="0" stroke="rgb(15,109,113)" stroke-opacity="1" stroke-width="4" d="M0 0"></path></g></g><g transform="matrix(1.0405100584030151,0,0,1.0405100584030151,344.7453918457031,276.1728210449219)" opacity="1" style="display: none;"><g opacity="1" transform="matrix(1,0,0,1,403.4949951171875,193.14199829101562)"><path stroke-linecap="round" stroke-linejoin="round" fill-opacity="0" stroke="rgb(15,109,113)" stroke-opacity="1" stroke-width="4" d="M0 0"></path></g></g><g transform="matrix(1.0405100584030151,0,0,1.0405100584030151,344.7453918457031,276.1728210449219)" opacity="1" style="display: none;"><g opacity="1" transform="matrix(1,0,0,1,403.4949951171875,193.14199829101562)"><path stroke-linecap="round" stroke-linejoin="round" fill-opacity="0" stroke="rgb(15,109,113)" stroke-opacity="1" stroke-width="4" d="M0 0"></path></g></g><g transform="matrix(1.0405100584030151,0,0,1.0405100584030151,344.7453918457031,276.1728210449219)" opacity="1" style="display: none;"><g opacity="1" transform="matrix(1,0,0,1,403.4949951171875,193.14199829101562)"><path stroke-linecap="round" stroke-linejoin="round" fill-opacity="0" stroke="rgb(15,109,113)" stroke-opacity="1" stroke-width="4" d="M0 0"></path></g></g><g transform="matrix(1.0405100584030151,0,0,1.0405100584030151,344.7453918457031,276.1728210449219)" opacity="1" style="display: none;"><g opacity="1" transform="matrix(1,0,0,1,403.4949951171875,193.14199829101562)"><path stroke-linecap="round" stroke-linejoin="round" fill-opacity="0" stroke="rgb(15,109,113)" stroke-opacity="1" stroke-width="4" d="M0 0"></path></g></g><g transform="matrix(1.0405100584030151,0,0,1.0405100584030151,344.7453918457031,276.1728210449219)" opacity="1" style="display: none;"><g opacity="1" transform="matrix(1,0,0,1,403.4949951171875,193.14199829101562)"><path stroke-linecap="round" stroke-linejoin="round" fill-opacity="0" stroke="rgb(15,109,113)" stroke-opacity="1" stroke-width="4" d="M0 0"></path></g></g><g transform="matrix(1.0405100584030151,0,0,1.0405100584030151,344.7453918457031,276.1728210449219)" opacity="1" style="display: none;"><g opacity="1" transform="matrix(1,0,0,1,403.4949951171875,193.14199829101562)"><path stroke-linecap="round" stroke-linejoin="round" fill-opacity="0" stroke="rgb(15,109,113)" stroke-opacity="1" stroke-width="4" d="M0 0"></path></g></g><g transform="matrix(1.0405100584030151,0,0,1.0405100584030151,344.7453918457031,276.1728210449219)" opacity="1" style="display: none;"><g opacity="1" transform="matrix(1,0,0,1,403.4949951171875,193.14199829101562)"><path stroke-linecap="round" stroke-linejoin="round" fill-opacity="0" stroke="rgb(15,109,113)" stroke-opacity="1" stroke-width="4" d="M0 0"></path></g></g><g transform="matrix(1.0405100584030151,0,0,1.0405100584030151,344.7453918457031,276.1728210449219)" opacity="1" style="display: none;"><g opacity="1" transform="matrix(1,0,0,1,403.4949951171875,193.14199829101562)"><path stroke-linecap="round" stroke-linejoin="round" fill-opacity="0" stroke="rgb(15,109,113)" stroke-opacity="1" stroke-width="4" d="M0 0"></path></g></g><g transform="matrix(1.0405100584030151,0,0,1.0405100584030151,344.7453918457031,276.1728210449219)" opacity="1" style="display: none;"><g opacity="1" transform="matrix(1,0,0,1,403.4949951171875,193.14199829101562)"><path stroke-linecap="round" stroke-linejoin="round" fill-opacity="0" stroke="rgb(15,109,113)" stroke-opacity="1" stroke-width="4" d="M0 0"></path></g></g><g transform="matrix(1.0405100584030151,0,0,1.0405100584030151,344.7453918457031,276.1728210449219)" opacity="1" style="display: none;"><g opacity="1" transform="matrix(1,0,0,1,403.4949951171875,193.14199829101562)"><path stroke-linecap="round" stroke-linejoin="round" fill-opacity="0" stroke="rgb(15,109,113)" stroke-opacity="1" stroke-width="4" d="M0 0"></path></g></g><g transform="matrix(1.0405100584030151,0,0,1.0405100584030151,344.7453918457031,276.1728210449219)" opacity="1" style="display: none;"><g opacity="1" transform="matrix(1,0,0,1,403.4949951171875,193.14199829101562)"><path stroke-linecap="round" stroke-linejoin="round" fill-opacity="0" stroke="rgb(15,109,113)" stroke-opacity="1" stroke-width="4" d="M0 0"></path></g></g><g transform="matrix(1.0405100584030151,0,0,1.0405100584030151,344.7453918457031,276.1728210449219)" opacity="1" style="display: none;"><g opacity="1" transform="matrix(1,0,0,1,403.4949951171875,193.14199829101562)"><path stroke-linecap="round" stroke-linejoin="round" fill-opacity="0" stroke="rgb(15,109,113)" stroke-opacity="1" stroke-width="4" d="M0 0"></path></g></g><g transform="matrix(1.0405100584030151,0,0,1.0405100584030151,344.7453918457031,276.1728210449219)" opacity="1" style="display: none;"><g opacity="1" transform="matrix(1,0,0,1,403.4949951171875,193.14199829101562)"><path stroke-linecap="round" stroke-linejoin="round" fill-opacity="0" stroke="rgb(15,109,113)" stroke-opacity="1" stroke-width="4" d="M0 0"></path></g></g><g transform="matrix(1.0405100584030151,0,0,1.0405100584030151,344.7453918457031,276.1728210449219)" opacity="1" style="display: none;"><g opacity="1" transform="matrix(1,0,0,1,403.4949951171875,193.14199829101562)"><path stroke-linecap="round" stroke-linejoin="round" fill-opacity="0" stroke="rgb(15,109,113)" stroke-opacity="1" stroke-width="4" d="M0 0"></path></g></g><g transform="matrix(1.0405100584030151,0,0,1.0405100584030151,344.7453918457031,276.1728210449219)" opacity="1" style="display: none;"><g opacity="1" transform="matrix(1,0,0,1,403.4949951171875,193.14199829101562)"><path stroke-linecap="round" stroke-linejoin="round" fill-opacity="0" stroke="rgb(15,109,113)" stroke-opacity="1" stroke-width="4" d="M0 0"></path></g></g><g transform="matrix(1.0405100584030151,0,0,1.0405100584030151,344.7453918457031,276.1728210449219)" opacity="1" style="display: none;"><g opacity="1" transform="matrix(1,0,0,1,403.4949951171875,193.14199829101562)"><path stroke-linecap="round" stroke-linejoin="round" fill-opacity="0" stroke="rgb(15,109,113)" stroke-opacity="1" stroke-width="4" d="M0 0"></path></g></g><g transform="matrix(1.0405100584030151,0,0,1.0405100584030151,344.7453918457031,276.1728210449219)" opacity="1" style="display: none;"><g opacity="1" transform="matrix(1,0,0,1,403.4949951171875,193.14199829101562)"><path stroke-linecap="round" stroke-linejoin="round" fill-opacity="0" stroke="rgb(15,109,113)" stroke-opacity="1" stroke-width="4" d="M0 0"></path></g></g><g transform="matrix(1.0405100584030151,0,0,1.0405100584030151,344.7453918457031,276.1728210449219)" opacity="1" style="display: none;"><g opacity="1" transform="matrix(1,0,0,1,403.4949951171875,193.14199829101562)"><path stroke-linecap="round" stroke-linejoin="round" fill-opacity="0" stroke="rgb(15,109,113)" stroke-opacity="1" stroke-width="4" d="M0 0"></path></g></g><g transform="matrix(1.0405100584030151,0,0,1.0405100584030151,344.7453918457031,276.1728210449219)" opacity="1" style="display: none;"><g opacity="1" transform="matrix(1,0,0,1,403.4949951171875,193.14199829101562)"><path stroke-linecap="round" stroke-linejoin="round" fill-opacity="0" stroke="rgb(15,109,113)" stroke-opacity="1" stroke-width="4" d="M0 0"></path></g></g><g transform="matrix(1.0405100584030151,0,0,1.0405100584030151,344.7453918457031,276.1728210449219)" opacity="1" style="display: none;"><g opacity="1" transform="matrix(1,0,0,1,403.4949951171875,193.14199829101562)"><path stroke-linecap="round" stroke-linejoin="round" fill-opacity="0" stroke="rgb(15,109,113)" stroke-opacity="1" stroke-width="4" d="M0 0"></path></g></g><g transform="matrix(1.0405100584030151,0,0,1.0405100584030151,344.7453918457031,276.1728210449219)" opacity="1" style="display: none;"><g opacity="1" transform="matrix(1,0,0,1,403.4949951171875,193.14199829101562)"><path stroke-linecap="round" stroke-linejoin="round" fill-opacity="0" stroke="rgb(15,109,113)" stroke-opacity="1" stroke-width="4" d="M0 0"></path></g></g><g transform="matrix(1.0405100584030151,0,0,1.0405100584030151,344.7453918457031,276.1728210449219)" opacity="1" style="display: none;"><g opacity="1" transform="matrix(1,0,0,1,403.4949951171875,193.14199829101562)"><path stroke-linecap="round" stroke-linejoin="round" fill-opacity="0" stroke="rgb(15,109,113)" stroke-opacity="1" stroke-width="4" d="M0 0"></path></g></g><g transform="matrix(1.0405100584030151,0,0,1.0405100584030151,344.7453918457031,276.1728210449219)" opacity="1" style="display: none;"><g opacity="1" transform="matrix(1,0,0,1,403.4949951171875,193.14199829101562)"><path stroke-linecap="round" stroke-linejoin="round" fill-opacity="0" stroke="rgb(15,109,113)" stroke-opacity="1" stroke-width="4" d="M0 0"></path></g></g><g transform="matrix(1.0405100584030151,0,0,1.0405100584030151,344.7453918457031,276.1728210449219)" opacity="1" style="display: none;"><g opacity="1" transform="matrix(1,0,0,1,403.4949951171875,193.14199829101562)"><path stroke-linecap="round" stroke-linejoin="round" fill-opacity="0" stroke="rgb(15,109,113)" stroke-opacity="1" stroke-width="4" d="M0 0"></path></g></g><g transform="matrix(1.0405100584030151,0,0,1.0405100584030151,344.7453918457031,276.1728210449219)" opacity="1" style="display: none;"><g opacity="1" transform="matrix(1,0,0,1,403.4949951171875,193.14199829101562)"><path stroke-linecap="round" stroke-linejoin="round" fill-opacity="0" stroke="rgb(15,109,113)" stroke-opacity="1" stroke-width="4" d="M0 0"></path></g></g><g transform="matrix(1.0405100584030151,0,0,1.0405100584030151,344.7453918457031,276.1728210449219)" opacity="1" style="display: none;"><g opacity="1" transform="matrix(1,0,0,1,403.4949951171875,193.14199829101562)"><path stroke-linecap="round" stroke-linejoin="round" fill-opacity="0" stroke="rgb(15,109,113)" stroke-opacity="1" stroke-width="4" d="M0 0"></path></g></g><g transform="matrix(1.0405100584030151,0,0,1.0405100584030151,344.7453918457031,276.1728210449219)" opacity="1" style="display: none;"><g opacity="1" transform="matrix(1,0,0,1,403.4949951171875,193.14199829101562)"><path stroke-linecap="round" stroke-linejoin="round" fill-opacity="0" stroke="rgb(15,109,113)" stroke-opacity="1" stroke-width="4" d="M0 0"></path></g></g></g><g clip-path="url(#__lottie_element_402)" transform="matrix(1,0,0,1,490.50103759765625,284)" opacity="1" style="display: none;"><g transform="matrix(1,0,0,1,760.7479858398438,525.3300170898438)" opacity="1" style="display: none;"><image width="260px" height="308px" preserveAspectRatio="xMidYMid slice" xlink:href="https://assets.easyship.com/website/lottie/home/assets/supercharge-global/img_2.png"></image></g><g transform="matrix(0.0735674798488617,0,0,0.0735674798488617,925.6683349609375,692.19482421875)" opacity="1" style="display: block;"><image width="260px" height="308px" preserveAspectRatio="xMidYMid slice" xlink:href="https://assets.easyship.com/website/lottie/home/assets/supercharge-global/img_2.png"></image></g></g><g clip-path="url(#__lottie_element_812)" transform="matrix(1,0,0,1,490.50103759765625,284)" opacity="1" style="display: none;"><g transform="matrix(1,0,0,1,760.7479858398438,525.3300170898438)" opacity="1" style="display: none;"><image width="260px" height="308px" preserveAspectRatio="xMidYMid slice" xlink:href="https://assets.easyship.com/website/lottie/home/assets/supercharge-global/img_2.png"></image></g><g transform="matrix(0.07716473191976547,0,0,0.07716473191976547,925.2609252929688,691.3139038085938)" opacity="1" style="display: block;"><image width="260px" height="308px" preserveAspectRatio="xMidYMid slice" xlink:href="https://assets.easyship.com/website/lottie/home/assets/supercharge-global/img_2.png"></image></g></g><g clip-path="url(#__lottie_element_879)" transform="matrix(1,0,0,1,490.50103759765625,284)" opacity="1" style="display: none;"><g transform="matrix(1,0,0,1,760.7479858398438,525.3300170898438)" opacity="1" style="display: none;"><image width="260px" height="308px" preserveAspectRatio="xMidYMid slice" xlink:href="https://assets.easyship.com/website/lottie/home/assets/supercharge-global/img_2.png"></image></g><g transform="matrix(0.08079367130994797,0,0,0.08079367130994797,924.8499755859375,690.42529296875)" opacity="1" style="display: block;"><image width="260px" height="308px" preserveAspectRatio="xMidYMid slice" xlink:href="https://assets.easyship.com/website/lottie/home/assets/supercharge-global/img_2.png"></image></g></g><g clip-path="url(#__lottie_element_1043)" transform="matrix(1,0,0,1,490.50103759765625,284)" opacity="1" style="display: block;"><g transform="matrix(1,0,0,1,494.74798583984375,674.8300170898438)" opacity="1" style="display: block;"><image width="260px" height="308px" preserveAspectRatio="xMidYMid slice" xlink:href="https://assets.easyship.com/website/lottie/home/assets/supercharge-global/img_2.png"></image></g><g transform="matrix(0.07003902643918991,0,0,0.07003902643918991,926.0679321289062,693.058837890625)" opacity="1" style="display: none;"><image width="260px" height="308px" preserveAspectRatio="xMidYMid slice" xlink:href="https://assets.easyship.com/website/lottie/home/assets/supercharge-global/img_2.png"></image></g></g><g transform="matrix(1,0,0,1,277.7229919433594,640.4600219726562)" opacity="1" style="display: block;"><image width="505px" height="412px" preserveAspectRatio="xMidYMid slice" xlink:href="https://assets.easyship.com/website/lottie/home/assets/supercharge-global/img_1.png"></image></g><g transform="matrix(1,0,0,1,1188.56201171875,369.4599914550781)" opacity="1" style="display: block;"><image width="504px" height="460px" preserveAspectRatio="xMidYMid slice" xlink:href="https://assets.easyship.com/website/lottie/home/assets/supercharge-global/img_0.png"></image></g></g></svg>