<svg xmlns="http://www.w3.org/2000/svg" viewBox="0 0 1257 889" width="1257" height="889" preserveAspectRatio="xMidYMid meet" style="width: 100%; height: 100%; transform: translate3d(0px, 0px, 0px);"><defs><clipPath id="__lottie_element_189"><rect width="1257" height="889" x="0" y="0"></rect></clipPath><clipPath id="__lottie_element_194"><path d="M0,0 L1257,0 L1257,889 L0,889z"></path></clipPath><mask id="__lottie_element_200" mask-type="alpha"><g clip-path="url(#__lottie_element_201)" transform="matrix(1,0,0,1,0,0)" opacity="1" style="display: block;"><g mask="url(#__lottie_element_266)" style="display: block;"><g transform="matrix(1,0,0,1,560.2330322265625,515.364990234375)" opacity="1"><image width="490px" height="119px" preserveAspectRatio="xMidYMid slice" xlink:href="https://assets.easyship.com/website/lottie/home/assets/supercharge-couriers/img_7.png"></image></g></g></g></mask><clipPath id="__lottie_element_201"><path d="M0,0 L1257,0 L1257,889 L0,889z"></path></clipPath><clipPath id="__lottie_element_205"><path d="M0,0 L1257,0 L1257,889 L0,889z"></path></clipPath><mask id="__lottie_element_211" mask-type="alpha"><g clip-path="url(#__lottie_element_212)" transform="matrix(1,0,0,1,0,0)" opacity="1" style="display: block;"><g mask="url(#__lottie_element_274)" style="display: block;"><g transform="matrix(1,0,0,1,560.2329711914062,376.0369873046875)" opacity="1"><image width="490px" height="119px" preserveAspectRatio="xMidYMid slice" xlink:href="https://assets.easyship.com/website/lottie/home/assets/supercharge-couriers/img_6.png"></image></g></g></g></mask><clipPath id="__lottie_element_212"><path d="M0,0 L1257,0 L1257,889 L0,889z"></path></clipPath><clipPath id="__lottie_element_216"><path d="M0,0 L1257,0 L1257,889 L0,889z"></path></clipPath><mask id="__lottie_element_222" mask-type="alpha"><g clip-path="url(#__lottie_element_223)" transform="matrix(1,0,0,1,0,0)" opacity="1" style="display: block;"><g mask="url(#__lottie_element_282)" style="display: block;"><g transform="matrix(1,0,0,1,561.2349853515625,234.0080108642578)" opacity="1"><image width="490px" height="119px" preserveAspectRatio="xMidYMid slice" xlink:href="https://assets.easyship.com/website/lottie/home/assets/supercharge-couriers/img_5.png"></image></g></g></g></mask><clipPath id="__lottie_element_223"><path d="M0,0 L1257,0 L1257,889 L0,889z"></path></clipPath><clipPath id="__lottie_element_227"><path d="M0,0 L1257,0 L1257,889 L0,889z"></path></clipPath><mask id="__lottie_element_233" mask-type="alpha"><g clip-path="url(#__lottie_element_234)" transform="matrix(1,0,0,1,0,0)" opacity="1" style="display: block;"><g mask="url(#__lottie_element_290)" style="display: block;"><g transform="matrix(1,0,0,1,71,515.364990234375)" opacity="1"><image width="490px" height="119px" preserveAspectRatio="xMidYMid slice" xlink:href="https://assets.easyship.com/website/lottie/home/assets/supercharge-couriers/img_4.png"></image></g></g></g></mask><clipPath id="__lottie_element_234"><path d="M0,0 L1257,0 L1257,889 L0,889z"></path></clipPath><clipPath id="__lottie_element_238"><path d="M0,0 L1257,0 L1257,889 L0,889z"></path></clipPath><mask id="__lottie_element_244" mask-type="alpha"><g clip-path="url(#__lottie_element_245)" transform="matrix(1,0,0,1,0,0)" opacity="1" style="display: block;"><g mask="url(#__lottie_element_298)" style="display: block;"><g transform="matrix(1,0,0,1,71.00001525878906,376.0369873046875)" opacity="1"><image width="490px" height="119px" preserveAspectRatio="xMidYMid slice" xlink:href="https://assets.easyship.com/website/lottie/home/assets/supercharge-couriers/img_3.png"></image></g></g></g></mask><clipPath id="__lottie_element_245"><path d="M0,0 L1257,0 L1257,889 L0,889z"></path></clipPath><clipPath id="__lottie_element_249"><path d="M0,0 L1257,0 L1257,889 L0,889z"></path></clipPath><mask id="__lottie_element_255" mask-type="alpha"><g clip-path="url(#__lottie_element_256)" transform="matrix(1,0,0,1,0,0)" opacity="1" style="display: block;"><g mask="url(#__lottie_element_312)" style="display: block;"><g transform="matrix(1,0,0,1,72.00299072265625,234.0080108642578)" opacity="1"><image width="490px" height="119px" preserveAspectRatio="xMidYMid slice" xlink:href="https://assets.easyship.com/website/lottie/home/assets/supercharge-couriers/img_1.png"></image></g></g></g></mask><clipPath id="__lottie_element_256"><path d="M0,0 L1257,0 L1257,889 L0,889z"></path></clipPath><filter id="__lottie_element_263" filterUnits="objectBoundingBox" x="0%" y="0%" width="100%" height="100%"><feComponentTransfer in="SourceGraphic"><feFuncA type="table" tableValues="1.0 0.0"></feFuncA></feComponentTransfer></filter><mask id="__lottie_element_262" mask-type="alpha"><g filter="url(#__lottie_element_263)"><rect width="1257" height="889" x="0" y="0" fill="#ffffff" opacity="0"></rect><g transform="matrix(1,0,0,1,628.5,444.5)" opacity="1" style="display: block;"><g opacity="1" transform="matrix(1,0,0,1,-328,-5.5)"><path fill="rgb(147,205,243)" fill-opacity="1" d=" M260.5,-240 C260.5,-240 260.5,240 260.5,240 C260.5,240 -260.5,240 -260.5,240 C-260.5,240 -260.5,-240 -260.5,-240 C-260.5,-240 260.5,-240 260.5,-240z"></path></g></g></g></mask><filter id="__lottie_element_267" filterUnits="objectBoundingBox" x="0%" y="0%" width="100%" height="100%"><feComponentTransfer in="SourceGraphic"><feFuncA type="table" tableValues="1.0 0.0"></feFuncA></feComponentTransfer></filter><mask id="__lottie_element_266" mask-type="alpha"><g filter="url(#__lottie_element_267)"><rect width="1257" height="889" x="0" y="0" fill="#ffffff" opacity="0"></rect><g transform="matrix(1,0,0,1,628.5,444.5)" opacity="1" style="display: block;"><g opacity="1" transform="matrix(1,0,0,1,-328,-5.5)"><path fill="rgb(147,205,243)" fill-opacity="1" d=" M260.5,-240 C260.5,-240 260.5,240 260.5,240 C260.5,240 -260.5,240 -260.5,240 C-260.5,240 -260.5,-240 -260.5,-240 C-260.5,-240 260.5,-240 260.5,-240z"></path></g></g></g></mask><filter id="__lottie_element_271" filterUnits="objectBoundingBox" x="0%" y="0%" width="100%" height="100%"><feComponentTransfer in="SourceGraphic"><feFuncA type="table" tableValues="1.0 0.0"></feFuncA></feComponentTransfer></filter><mask id="__lottie_element_270" mask-type="alpha"><g filter="url(#__lottie_element_271)"><rect width="1257" height="889" x="0" y="0" fill="#ffffff" opacity="0"></rect><g transform="matrix(1,0,0,1,628.5,444.5)" opacity="1" style="display: block;"><g opacity="1" transform="matrix(1,0,0,1,-328,-5.5)"><path fill="rgb(147,205,243)" fill-opacity="1" d=" M260.5,-240 C260.5,-240 260.5,240 260.5,240 C260.5,240 -260.5,240 -260.5,240 C-260.5,240 -260.5,-240 -260.5,-240 C-260.5,-240 260.5,-240 260.5,-240z"></path></g></g></g></mask><filter id="__lottie_element_275" filterUnits="objectBoundingBox" x="0%" y="0%" width="100%" height="100%"><feComponentTransfer in="SourceGraphic"><feFuncA type="table" tableValues="1.0 0.0"></feFuncA></feComponentTransfer></filter><mask id="__lottie_element_274" mask-type="alpha"><g filter="url(#__lottie_element_275)"><rect width="1257" height="889" x="0" y="0" fill="#ffffff" opacity="0"></rect><g transform="matrix(1,0,0,1,628.5,444.5)" opacity="1" style="display: block;"><g opacity="1" transform="matrix(1,0,0,1,-328,-5.5)"><path fill="rgb(147,205,243)" fill-opacity="1" d=" M260.5,-240 C260.5,-240 260.5,240 260.5,240 C260.5,240 -260.5,240 -260.5,240 C-260.5,240 -260.5,-240 -260.5,-240 C-260.5,-240 260.5,-240 260.5,-240z"></path></g></g></g></mask><filter id="__lottie_element_279" filterUnits="objectBoundingBox" x="0%" y="0%" width="100%" height="100%"><feComponentTransfer in="SourceGraphic"><feFuncA type="table" tableValues="1.0 0.0"></feFuncA></feComponentTransfer></filter><mask id="__lottie_element_278" mask-type="alpha"><g filter="url(#__lottie_element_279)"><rect width="1257" height="889" x="0" y="0" fill="#ffffff" opacity="0"></rect><g transform="matrix(1,0,0,1,628.5,444.5)" opacity="1" style="display: block;"><g opacity="1" transform="matrix(1,0,0,1,-328,-5.5)"><path fill="rgb(147,205,243)" fill-opacity="1" d=" M260.5,-240 C260.5,-240 260.5,240 260.5,240 C260.5,240 -260.5,240 -260.5,240 C-260.5,240 -260.5,-240 -260.5,-240 C-260.5,-240 260.5,-240 260.5,-240z"></path></g></g></g></mask><filter id="__lottie_element_283" filterUnits="objectBoundingBox" x="0%" y="0%" width="100%" height="100%"><feComponentTransfer in="SourceGraphic"><feFuncA type="table" tableValues="1.0 0.0"></feFuncA></feComponentTransfer></filter><mask id="__lottie_element_282" mask-type="alpha"><g filter="url(#__lottie_element_283)"><rect width="1257" height="889" x="0" y="0" fill="#ffffff" opacity="0"></rect><g transform="matrix(1,0,0,1,628.5,444.5)" opacity="1" style="display: block;"><g opacity="1" transform="matrix(1,0,0,1,-328,-5.5)"><path fill="rgb(147,205,243)" fill-opacity="1" d=" M260.5,-240 C260.5,-240 260.5,240 260.5,240 C260.5,240 -260.5,240 -260.5,240 C-260.5,240 -260.5,-240 -260.5,-240 C-260.5,-240 260.5,-240 260.5,-240z"></path></g></g></g></mask><filter id="__lottie_element_287" filterUnits="objectBoundingBox" x="0%" y="0%" width="100%" height="100%"><feComponentTransfer in="SourceGraphic"><feFuncA type="table" tableValues="1.0 0.0"></feFuncA></feComponentTransfer></filter><mask id="__lottie_element_286" mask-type="alpha"><g filter="url(#__lottie_element_287)"><rect width="1257" height="889" x="0" y="0" fill="#ffffff" opacity="0"></rect><g transform="matrix(1,0,0,1,628.5,444.5)" opacity="1" style="display: block;"><g opacity="1" transform="matrix(1,0,0,1,-328,-5.5)"><path fill="rgb(147,205,243)" fill-opacity="1" d=" M260.5,-240 C260.5,-240 260.5,240 260.5,240 C260.5,240 -260.5,240 -260.5,240 C-260.5,240 -260.5,-240 -260.5,-240 C-260.5,-240 260.5,-240 260.5,-240z"></path></g></g></g></mask><filter id="__lottie_element_291" filterUnits="objectBoundingBox" x="0%" y="0%" width="100%" height="100%"><feComponentTransfer in="SourceGraphic"><feFuncA type="table" tableValues="1.0 0.0"></feFuncA></feComponentTransfer></filter><mask id="__lottie_element_290" mask-type="alpha"><g filter="url(#__lottie_element_291)"><rect width="1257" height="889" x="0" y="0" fill="#ffffff" opacity="0"></rect><g transform="matrix(1,0,0,1,628.5,444.5)" opacity="1" style="display: block;"><g opacity="1" transform="matrix(1,0,0,1,-328,-5.5)"><path fill="rgb(147,205,243)" fill-opacity="1" d=" M260.5,-240 C260.5,-240 260.5,240 260.5,240 C260.5,240 -260.5,240 -260.5,240 C-260.5,240 -260.5,-240 -260.5,-240 C-260.5,-240 260.5,-240 260.5,-240z"></path></g></g></g></mask><filter id="__lottie_element_295" filterUnits="objectBoundingBox" x="0%" y="0%" width="100%" height="100%"><feComponentTransfer in="SourceGraphic"><feFuncA type="table" tableValues="1.0 0.0"></feFuncA></feComponentTransfer></filter><mask id="__lottie_element_294" mask-type="alpha"><g filter="url(#__lottie_element_295)"><rect width="1257" height="889" x="0" y="0" fill="#ffffff" opacity="0"></rect><g transform="matrix(1,0,0,1,628.5,444.5)" opacity="1" style="display: block;"><g opacity="1" transform="matrix(1,0,0,1,-328,-5.5)"><path fill="rgb(147,205,243)" fill-opacity="1" d=" M260.5,-240 C260.5,-240 260.5,240 260.5,240 C260.5,240 -260.5,240 -260.5,240 C-260.5,240 -260.5,-240 -260.5,-240 C-260.5,-240 260.5,-240 260.5,-240z"></path></g></g></g></mask><filter id="__lottie_element_299" filterUnits="objectBoundingBox" x="0%" y="0%" width="100%" height="100%"><feComponentTransfer in="SourceGraphic"><feFuncA type="table" tableValues="1.0 0.0"></feFuncA></feComponentTransfer></filter><mask id="__lottie_element_298" mask-type="alpha"><g filter="url(#__lottie_element_299)"><rect width="1257" height="889" x="0" y="0" fill="#ffffff" opacity="0"></rect><g transform="matrix(1,0,0,1,628.5,444.5)" opacity="1" style="display: block;"><g opacity="1" transform="matrix(1,0,0,1,-328,-5.5)"><path fill="rgb(147,205,243)" fill-opacity="1" d=" M260.5,-240 C260.5,-240 260.5,240 260.5,240 C260.5,240 -260.5,240 -260.5,240 C-260.5,240 -260.5,-240 -260.5,-240 C-260.5,-240 260.5,-240 260.5,-240z"></path></g></g></g></mask><filter id="__lottie_element_306" filterUnits="objectBoundingBox" x="0%" y="0%" width="100%" height="100%"><feComponentTransfer in="SourceGraphic"><feFuncA type="table" tableValues="1.0 0.0"></feFuncA></feComponentTransfer></filter><mask id="__lottie_element_305" mask-type="alpha"><g filter="url(#__lottie_element_306)"><rect width="1257" height="889" x="0" y="0" fill="#ffffff" opacity="0"></rect><g transform="matrix(1,0,0,1,628.5,444.5)" opacity="1" style="display: block;"><g opacity="1" transform="matrix(1,0,0,1,-328,-5.5)"><path fill="rgb(147,205,243)" fill-opacity="1" d=" M260.5,-240 C260.5,-240 260.5,240 260.5,240 C260.5,240 -260.5,240 -260.5,240 C-260.5,240 -260.5,-240 -260.5,-240 C-260.5,-240 260.5,-240 260.5,-240z"></path></g></g></g></mask><filter id="__lottie_element_313" filterUnits="objectBoundingBox" x="0%" y="0%" width="100%" height="100%"><feComponentTransfer in="SourceGraphic"><feFuncA type="table" tableValues="1.0 0.0"></feFuncA></feComponentTransfer></filter><mask id="__lottie_element_312" mask-type="alpha"><g filter="url(#__lottie_element_313)"><rect width="1257" height="889" x="0" y="0" fill="#ffffff" opacity="0"></rect><g transform="matrix(1,0,0,1,628.5,444.5)" opacity="1" style="display: block;"><g opacity="1" transform="matrix(1,0,0,1,-328,-5.5)"><path fill="rgb(147,205,243)" fill-opacity="1" d=" M260.5,-240 C260.5,-240 260.5,240 260.5,240 C260.5,240 -260.5,240 -260.5,240 C-260.5,240 -260.5,-240 -260.5,-240 C-260.5,-240 260.5,-240 260.5,-240z"></path></g></g></g></mask></defs><g clip-path="url(#__lottie_element_189)"><g class="png" transform="matrix(0.375,0,0,0.375,0,0.125)" opacity="1" style="display: block;"><image width="3352px" height="2370px" preserveAspectRatio="xMidYMid slice" xlink:href="https://assets.easyship.com/website/lottie/home/assets/supercharge-couriers/img_9.png"></image></g><g style="display: none;" transform="matrix(0,0,0,0,849.218017578125,693.5830078125)" opacity="1"><image width="395px" height="73px" preserveAspectRatio="xMidYMid slice" xlink:href="https://assets.easyship.com/website/lottie/home/assets/supercharge-couriers/img_8.png"></image></g><g transform="matrix(1,0,0,1,652.1430053710938,657.1990356445312)" opacity="1" style="display: block;"><image width="395px" height="73px" preserveAspectRatio="xMidYMid slice" xlink:href="https://assets.easyship.com/website/lottie/home/assets/supercharge-couriers/img_8.png"></image></g><g clip-path="url(#__lottie_element_194)" transform="matrix(1,0,0,1,0,0)" opacity="1" style="display: block;"><g mask="url(#__lottie_element_262)" style="display: block;"><g transform="matrix(1,0,0,1,560.2330322265625,515.364990234375)" opacity="1"><image width="490px" height="119px" preserveAspectRatio="xMidYMid slice" xlink:href="https://assets.easyship.com/website/lottie/home/assets/supercharge-couriers/img_7.png"></image></g></g></g><g mask="url(#__lottie_element_200)" style="mix-blend-mode: multiply; display: block;"><g transform="matrix(1,0,0,1,164.63796997070312,122.41500854492188)" opacity="1"><image width="845px" height="845px" preserveAspectRatio="xMidYMid slice" xlink:href="https://assets.easyship.com/website/lottie/home/assets/supercharge-couriers/img_2.png"></image></g></g><g clip-path="url(#__lottie_element_205)" transform="matrix(1,0,0,1,0,0)" opacity="1" style="display: block;"><g mask="url(#__lottie_element_270)" style="display: block;"><g transform="matrix(1,0,0,1,560.2329711914062,376.0369873046875)" opacity="1"><image width="490px" height="119px" preserveAspectRatio="xMidYMid slice" xlink:href="https://assets.easyship.com/website/lottie/home/assets/supercharge-couriers/img_6.png"></image></g></g></g><g mask="url(#__lottie_element_211)" style="mix-blend-mode: multiply; display: block;"><g transform="matrix(1,0,0,1,164.63796997070312,122.41500854492188)" opacity="1"><image width="845px" height="845px" preserveAspectRatio="xMidYMid slice" xlink:href="https://assets.easyship.com/website/lottie/home/assets/supercharge-couriers/img_2.png"></image></g></g><g clip-path="url(#__lottie_element_216)" transform="matrix(1,0,0,1,0,0)" opacity="1" style="display: block;"><g mask="url(#__lottie_element_278)" style="display: block;"><g transform="matrix(1,0,0,1,561.2349853515625,234.0080108642578)" opacity="1"><image width="490px" height="119px" preserveAspectRatio="xMidYMid slice" xlink:href="https://assets.easyship.com/website/lottie/home/assets/supercharge-couriers/img_5.png"></image></g></g></g><g mask="url(#__lottie_element_222)" style="mix-blend-mode: multiply; display: block;"><g transform="matrix(1,0,0,1,164.63796997070312,122.41500854492188)" opacity="1"><image width="845px" height="845px" preserveAspectRatio="xMidYMid slice" xlink:href="https://assets.easyship.com/website/lottie/home/assets/supercharge-couriers/img_2.png"></image></g></g><g clip-path="url(#__lottie_element_227)" transform="matrix(1,0,0,1,0,0)" opacity="1" style="display: block;"><g mask="url(#__lottie_element_286)" style="display: block;"><g transform="matrix(1,0,0,1,71,515.364990234375)" opacity="1"><image width="490px" height="119px" preserveAspectRatio="xMidYMid slice" xlink:href="https://assets.easyship.com/website/lottie/home/assets/supercharge-couriers/img_4.png"></image></g></g></g><g mask="url(#__lottie_element_233)" style="mix-blend-mode: multiply; display: block;"><g transform="matrix(1,0,0,1,164.63796997070312,122.41500854492188)" opacity="1"><image width="845px" height="845px" preserveAspectRatio="xMidYMid slice" xlink:href="https://assets.easyship.com/website/lottie/home/assets/supercharge-couriers/img_2.png"></image></g></g><g clip-path="url(#__lottie_element_238)" transform="matrix(1,0,0,1,0,0)" opacity="1" style="display: block;"><g mask="url(#__lottie_element_294)" style="display: block;"><g transform="matrix(1,0,0,1,71.00001525878906,376.0369873046875)" opacity="1"><image width="490px" height="119px" preserveAspectRatio="xMidYMid slice" xlink:href="https://assets.easyship.com/website/lottie/home/assets/supercharge-couriers/img_3.png"></image></g></g></g><g mask="url(#__lottie_element_244)" style="mix-blend-mode: multiply; display: block;"><g transform="matrix(1,0,0,1,164.63796997070312,122.41500854492188)" opacity="1"><image width="845px" height="845px" preserveAspectRatio="xMidYMid slice" xlink:href="https://assets.easyship.com/website/lottie/home/assets/supercharge-couriers/img_2.png"></image></g></g><g clip-path="url(#__lottie_element_249)" transform="matrix(1,0,0,1,0,0)" opacity="1" style="display: block;"><g mask="url(#__lottie_element_305)" style="display: block;"><g transform="matrix(1,0,0,1,72.00299072265625,234.0080108642578)" opacity="1"><image width="490px" height="119px" preserveAspectRatio="xMidYMid slice" xlink:href="https://assets.easyship.com/website/lottie/home/assets/supercharge-couriers/img_1.png"></image></g></g></g><g mask="url(#__lottie_element_255)" style="mix-blend-mode: multiply; display: block;"><g transform="matrix(1,0,0,1,164.63796997070312,122.41500854492188)" opacity="1"><image width="845px" height="845px" preserveAspectRatio="xMidYMid slice" xlink:href="https://assets.easyship.com/website/lottie/home/assets/supercharge-couriers/img_2.png"></image></g></g><g transform="matrix(1,0,0,1,164.62899780273438,190.02200317382812)" opacity="1" style="display: block;"><image width="538px" height="538px" preserveAspectRatio="xMidYMid slice" xlink:href="https://assets.easyship.com/website/lottie/home/assets/supercharge-couriers/img_0.png"></image></g></g></svg>