<svg xmlns="http://www.w3.org/2000/svg" viewBox="0 0 1740 1480" width="1740" height="1480" preserveAspectRatio="xMidYMid meet" style="width: 100%; height: 100%; transform: translate3d(0px, 0px, 0px);"><defs><clipPath id="__lottie_element_1311"><rect width="1740" height="1480" x="0" y="0"></rect></clipPath><clipPath id="__lottie_element_1317"><path fill="#ffffff" clip-rule="nonzero" d=" M283.82501220703125,-147.93099975585938 C38.59199905395508,-147.93099975585938 -160.20899963378906,50.35499954223633 -160.20899963378906,294.9540100097656 C-160.20899963378906,539.552978515625 38.59199905395508,737.8389892578125 283.82501220703125,737.8389892578125 C529.0579833984375,737.8389892578125 727.8590087890625,539.552978515625 727.8590087890625,294.9540100097656 C727.8590087890625,50.35499954223633 529.0579833984375,-147.93099975585938 283.82501220703125,-147.93099975585938" fill-opacity="1"></path></clipPath><clipPath id="__lottie_element_1320"><path d="M0,0 L72,0 L72,108 L0,108z"></path></clipPath><clipPath id="__lottie_element_1782"><path d="M0,0 L72,0 L72,108 L0,108z"></path></clipPath><clipPath id="__lottie_element_1792"><path d="M0,0 L72,0 L72,108 L0,108z"></path></clipPath><clipPath id="__lottie_element_1802"><path d="M0,0 L72,0 L72,108 L0,108z"></path></clipPath><clipPath id="__lottie_element_1812"><path d="M0,0 L72,0 L72,108 L0,108z"></path></clipPath><clipPath id="__lottie_element_1828"><path fill="#ffffff" clip-rule="nonzero" d=" M150.6179962158203,-34.479000091552734 C58.32500076293945,-34.479000091552734 -16.493000030517578,40.14400100708008 -16.493000030517578,132.19500732421875 C-16.493000030517578,224.24600219726562 58.32500076293945,298.8689880371094 150.6179962158203,298.8689880371094 C242.91099548339844,298.8689880371094 317.7300109863281,224.24600219726562 317.7300109863281,132.19500732421875 C317.7300109863281,40.14400100708008 242.91099548339844,-34.479000091552734 150.6179962158203,-34.479000091552734" fill-opacity="1"></path></clipPath><clipPath id="__lottie_element_1837"><path d="M0,0 L72,0 L72,108 L0,108z"></path></clipPath><clipPath id="__lottie_element_1853"><path d="M0,0 L72,0 L72,108 L0,108z"></path></clipPath><clipPath id="__lottie_element_1869"><path d="M0,0 L72,0 L72,108 L0,108z"></path></clipPath><clipPath id="__lottie_element_1879"><path fill="#ffffff" clip-rule="nonzero" d=" M247.00399780273438,-75.76699829101562 C27.107999801635742,-75.76699829101562 -151.15199279785156,102.60900115966797 -151.15199279785156,322.6470031738281 C-151.15199279785156,542.6849975585938 27.107999801635742,721.0609741210938 247.00399780273438,721.0609741210938 C466.8999938964844,721.0609741210938 645.1610107421875,542.6849975585938 645.1610107421875,322.6470031738281 C645.1610107421875,102.60900115966797 466.8999938964844,-75.76699829101562 247.00399780273438,-75.76699829101562" fill-opacity="1"></path></clipPath><clipPath id="__lottie_element_1882"><path d="M0,0 L72,0 L72,108 L0,108z"></path></clipPath><clipPath id="__lottie_element_1892"><path d="M0,0 L72,0 L72,108 L0,108z"></path></clipPath><clipPath id="__lottie_element_1902"><path d="M0,0 L72,0 L72,108 L0,108z"></path></clipPath><clipPath id="__lottie_element_1912"><path d="M0,0 L72,0 L72,108 L0,108z"></path></clipPath><clipPath id="__lottie_element_1922"><path fill="#ffffff" clip-rule="nonzero" d=" M86.55699920654297,-31.23200035095215 C10.161999702453613,-31.23200035095215 -51.76900100708008,30.479999542236328 -51.76900100708008,106.6050033569336 C-51.76900100708008,182.72999572753906 10.161999702453613,244.44200134277344 86.55699920654297,244.44200134277344 C162.95199584960938,244.44200134277344 224.8820037841797,182.72999572753906 224.8820037841797,106.6050033569336 C224.8820037841797,30.479999542236328 162.95199584960938,-31.23200035095215 86.55699920654297,-31.23200035095215" fill-opacity="1"></path></clipPath><clipPath id="__lottie_element_1934"><path d="M0,0 L72,0 L72,108 L0,108z"></path></clipPath><clipPath id="__lottie_element_1944"><path d="M0,0 L72,0 L72,108 L0,108z"></path></clipPath></defs><g clip-path="url(#__lottie_element_1311)"><g transform="matrix(1.2999999523162842,0,0,1.2999999523162842,12.900876998901367,246.76829528808594)" opacity="1" style="display: block;"><image width="1304px" height="760px" preserveAspectRatio="xMidYMid slice" xlink:href="https://assets.easyship.com/website/lottie/home/assets/supercharge-warehouses/img_10.png"></image></g><g clip-path="url(#__lottie_element_1922)" transform="matrix(1.2999999523162842,0,0,1.2999999523162842,1423.697265625,899.1316528320312)" opacity="7.52604454135053e-7" style="display: none;"><image width="173px" height="214px" preserveAspectRatio="xMidYMid slice" xlink:href="https://assets.easyship.com/website/lottie/home/assets/supercharge-warehouses/img_9.png"></image></g><g clip-path="url(#__lottie_element_1879)" transform="matrix(1.2999999523162842,0,0,1.2999999523162842,976.9703369140625,266.1850891113281)" opacity="7.483823260656664e-7" style="display: none;"><image width="510px" height="573px" preserveAspectRatio="xMidYMid slice" xlink:href="https://assets.easyship.com/website/lottie/home/assets/supercharge-warehouses/img_8.png"></image></g><g clip-path="url(#__lottie_element_1828)" transform="matrix(1.2999999523162842,0,0,1.2999999523162842,718.1925048828125,441.78387451171875)" opacity="1" style="display: block;"><image width="249px" height="204px" preserveAspectRatio="xMidYMid slice" xlink:href="https://assets.easyship.com/website/lottie/home/assets/supercharge-warehouses/img_7.png"></image></g><g clip-path="url(#__lottie_element_1317)" transform="matrix(1.2999999523162842,0,0,1.2999999523162842,12.998393058776855,247.14659118652344)" opacity="1" style="display: block;"><image width="620px" height="475px" preserveAspectRatio="xMidYMid slice" xlink:href="https://assets.easyship.com/website/lottie/home/assets/supercharge-warehouses/img_6.png"></image></g><g clip-path="url(#__lottie_element_1944)" transform="matrix(0,0,0,0,1557.8624267578125,1107.4124755859375)" opacity="1" style="display: none;"><g transform="matrix(1,0,0,1,24.602001190185547,78.6500015258789)" opacity="1" style="display: block;"><image width="23px" height="8px" preserveAspectRatio="xMidYMid slice" xlink:href="https://assets.easyship.com/website/lottie/home/assets/supercharge-warehouses/img_5.png"></image></g><g transform="matrix(1,0,0,1,20.44499969482422,41.51900100708008)" opacity="0.9999999785492847" style="display: block;"><image width="32px" height="42px" preserveAspectRatio="xMidYMid slice" xlink:href="https://assets.easyship.com/website/lottie/home/assets/supercharge-warehouses/img_4.png"></image></g></g><g clip-path="url(#__lottie_element_1934)" transform="matrix(0,0,0,0,1548.4373779296875,999.0249633789062)" opacity="1" style="display: none;"><g transform="matrix(1,0,0,1,24.602001190185547,78.6500015258789)" opacity="1" style="display: block;"><image width="23px" height="8px" preserveAspectRatio="xMidYMid slice" xlink:href="https://assets.easyship.com/website/lottie/home/assets/supercharge-warehouses/img_5.png"></image></g><g transform="matrix(1,0,0,1,20.44499969482422,41.51900100708008)" opacity="0.9999999793661906" style="display: block;"><image width="32px" height="42px" preserveAspectRatio="xMidYMid slice" xlink:href="https://assets.easyship.com/website/lottie/home/assets/supercharge-warehouses/img_4.png"></image></g></g><g clip-path="url(#__lottie_element_1912)" transform="matrix(0,0,0,0,1379.763671875,877.1499633789062)" opacity="1" style="display: none;"><g transform="matrix(1,0,0,1,24.602001190185547,78.6500015258789)" opacity="1" style="display: block;"><image width="23px" height="8px" preserveAspectRatio="xMidYMid slice" xlink:href="https://assets.easyship.com/website/lottie/home/assets/supercharge-warehouses/img_5.png"></image></g><g transform="matrix(1,0,0,1,20.44499969482422,41.51900100708008)" opacity="0.9999999814709222" style="display: block;"><image width="32px" height="42px" preserveAspectRatio="xMidYMid slice" xlink:href="https://assets.easyship.com/website/lottie/home/assets/supercharge-warehouses/img_4.png"></image></g></g><g clip-path="url(#__lottie_element_1902)" transform="matrix(0,0,0,0,1432.7386474609375,755.4375)" opacity="1" style="display: none;"><g transform="matrix(1,0,0,1,24.602001190185547,78.6500015258789)" opacity="1" style="display: block;"><image width="23px" height="8px" preserveAspectRatio="xMidYMid slice" xlink:href="https://assets.easyship.com/website/lottie/home/assets/supercharge-warehouses/img_5.png"></image></g><g transform="matrix(1,0,0,1,20.44499969482422,41.51900100708008)" opacity="0.9999999825733236" style="display: block;"><image width="32px" height="42px" preserveAspectRatio="xMidYMid slice" xlink:href="https://assets.easyship.com/website/lottie/home/assets/supercharge-warehouses/img_4.png"></image></g></g><g clip-path="url(#__lottie_element_1892)" transform="matrix(0,0,0,0,1361.076171875,710.75)" opacity="1" style="display: none;"><g transform="matrix(1,0,0,1,24.602001190185547,78.6500015258789)" opacity="1" style="display: block;"><image width="23px" height="8px" preserveAspectRatio="xMidYMid slice" xlink:href="https://assets.easyship.com/website/lottie/home/assets/supercharge-warehouses/img_5.png"></image></g><g transform="matrix(1,0,0,1,20.44499969482422,41.51900100708008)" opacity="0.9999999830913018" style="display: block;"><image width="32px" height="42px" preserveAspectRatio="xMidYMid slice" xlink:href="https://assets.easyship.com/website/lottie/home/assets/supercharge-warehouses/img_4.png"></image></g></g><g clip-path="url(#__lottie_element_1882)" transform="matrix(0,0,0,0,1287.138671875,769.0874633789062)" opacity="1" style="display: none;"><g transform="matrix(1,0,0,1,24.602001190185547,78.6500015258789)" opacity="1" style="display: block;"><image width="23px" height="8px" preserveAspectRatio="xMidYMid slice" xlink:href="https://assets.easyship.com/website/lottie/home/assets/supercharge-warehouses/img_5.png"></image></g><g transform="matrix(1,0,0,1,20.44499969482422,41.51900100708008)" opacity="0.9999999839642909" style="display: block;"><image width="32px" height="42px" preserveAspectRatio="xMidYMid slice" xlink:href="https://assets.easyship.com/website/lottie/home/assets/supercharge-warehouses/img_4.png"></image></g></g><g clip-path="url(#__lottie_element_1869)" transform="matrix(1.2999999523162842,0,0,1.2999999523162842,893.5637817382812,508.11248779296875)" opacity="1" style="display: block;"><g transform="matrix(0,0,0,0,36.10200119018555,82.6500015258789)" opacity="1" style="display: block;"><image width="23px" height="8px" preserveAspectRatio="xMidYMid slice" xlink:href="https://assets.easyship.com/website/lottie/home/assets/supercharge-warehouses/img_5.png"></image></g><g transform="matrix(1,0,0,1,20.44499969482422,6.018999099731445)" opacity="0.12672123076926048" style="display: block;"><image width="32px" height="42px" preserveAspectRatio="xMidYMid slice" xlink:href="https://assets.easyship.com/website/lottie/home/assets/supercharge-warehouses/img_4.png"></image></g></g><g clip-path="url(#__lottie_element_1853)" transform="matrix(1.2999999523162842,0,0,1.2999999523162842,803.8638305664062,494.4624938964844)" opacity="1" style="display: block;"><g transform="matrix(0.2756183445453644,0,0,0.2756183445453644,32.93238830566406,81.54753112792969)" opacity="1" style="display: block;"><image width="23px" height="8px" preserveAspectRatio="xMidYMid slice" xlink:href="https://assets.easyship.com/website/lottie/home/assets/supercharge-warehouses/img_5.png"></image></g><g transform="matrix(1,0,0,1,20.44499969482422,10.32568359375)" opacity="0.9999999490809812" style="display: block;"><image width="32px" height="42px" preserveAspectRatio="xMidYMid slice" xlink:href="https://assets.easyship.com/website/lottie/home/assets/supercharge-warehouses/img_4.png"></image></g></g><g clip-path="url(#__lottie_element_1837)" transform="matrix(1.2999999523162842,0,0,1.2999999523162842,800.6138305664062,577.012451171875)" opacity="1" style="display: block;"><g transform="matrix(0.7052866220474243,0,0,0.7052866220474243,27.9912052154541,79.828857421875)" opacity="1" style="display: block;"><image width="23px" height="8px" preserveAspectRatio="xMidYMid slice" xlink:href="https://assets.easyship.com/website/lottie/home/assets/supercharge-warehouses/img_5.png"></image></g><g transform="matrix(1,0,0,1,20.44499969482422,34.6049919128418)" opacity="0.9999999507534854" style="display: block;"><image width="32px" height="42px" preserveAspectRatio="xMidYMid slice" xlink:href="https://assets.easyship.com/website/lottie/home/assets/supercharge-warehouses/img_4.png"></image></g></g><g clip-path="url(#__lottie_element_1812)" transform="matrix(1.2999999523162842,0,0,1.2999999523162842,412.88873291015625,604.3112182617188)" opacity="1" style="display: block;"><g transform="matrix(1,0,0,1,24.602001190185547,78.6500015258789)" opacity="1" style="display: block;"><image width="23px" height="8px" preserveAspectRatio="xMidYMid slice" xlink:href="https://assets.easyship.com/website/lottie/home/assets/supercharge-warehouses/img_5.png"></image></g><g transform="matrix(1,0,0,1,20.44499969482422,41.51900100708008)" opacity="0.9999999546096033" style="display: block;"><image width="32px" height="42px" preserveAspectRatio="xMidYMid slice" xlink:href="https://assets.easyship.com/website/lottie/home/assets/supercharge-warehouses/img_4.png"></image></g></g><g clip-path="url(#__lottie_element_1802)" transform="matrix(1.2999999523162842,0,0,1.2999999523162842,309.8637390136719,609.1862182617188)" opacity="1" style="display: block;"><g transform="matrix(1,0,0,1,24.602001190185547,78.6500015258789)" opacity="1" style="display: block;"><image width="23px" height="8px" preserveAspectRatio="xMidYMid slice" xlink:href="https://assets.easyship.com/website/lottie/home/assets/supercharge-warehouses/img_5.png"></image></g><g transform="matrix(1,0,0,1,20.44499969482422,41.51900100708008)" opacity="0.9999999559988121" style="display: block;"><image width="32px" height="42px" preserveAspectRatio="xMidYMid slice" xlink:href="https://assets.easyship.com/website/lottie/home/assets/supercharge-warehouses/img_4.png"></image></g></g><g clip-path="url(#__lottie_element_1792)" transform="matrix(1.2999999523162842,0,0,1.2999999523162842,250.38877868652344,552.63623046875)" opacity="1" style="display: block;"><g transform="matrix(1,0,0,1,24.602001190185547,78.6500015258789)" opacity="1" style="display: block;"><image width="23px" height="8px" preserveAspectRatio="xMidYMid slice" xlink:href="https://assets.easyship.com/website/lottie/home/assets/supercharge-warehouses/img_5.png"></image></g><g transform="matrix(1,0,0,1,20.44499969482422,41.51900100708008)" opacity="0.9999999574863341" style="display: block;"><image width="32px" height="42px" preserveAspectRatio="xMidYMid slice" xlink:href="https://assets.easyship.com/website/lottie/home/assets/supercharge-warehouses/img_4.png"></image></g></g><g clip-path="url(#__lottie_element_1782)" transform="matrix(1.2999999523162842,0,0,1.2999999523162842,264.68878173828125,394.0362243652344)" opacity="1" style="display: block;"><g transform="matrix(1,0,0,1,24.602001190185547,78.6500015258789)" opacity="1" style="display: block;"><image width="23px" height="8px" preserveAspectRatio="xMidYMid slice" xlink:href="https://assets.easyship.com/website/lottie/home/assets/supercharge-warehouses/img_5.png"></image></g><g transform="matrix(1,0,0,1,20.44499969482422,41.51900100708008)" opacity="0.9999999589655297" style="display: block;"><image width="32px" height="42px" preserveAspectRatio="xMidYMid slice" xlink:href="https://assets.easyship.com/website/lottie/home/assets/supercharge-warehouses/img_4.png"></image></g></g><g clip-path="url(#__lottie_element_1320)" transform="matrix(1.2999999523162842,0,0,1.2999999523162842,387.8637390136719,385.5862121582031)" opacity="1" style="display: block;"><g transform="matrix(1,0,0,1,24.602001190185547,78.6500015258789)" opacity="1" style="display: block;"><image width="23px" height="8px" preserveAspectRatio="xMidYMid slice" xlink:href="https://assets.easyship.com/website/lottie/home/assets/supercharge-warehouses/img_5.png"></image></g><g style="display: block;" transform="matrix(1,0,0,1,20.44499969482422,41.51900100708008)" opacity="0.9999999605904911"><image width="32px" height="42px" preserveAspectRatio="xMidYMid slice" xlink:href="https://assets.easyship.com/website/lottie/home/assets/supercharge-warehouses/img_4.png"></image></g></g><g transform="matrix(1.2999999523162842,0,0,1.2999999523162842,1216.7398681640625,885.7442016601562)" opacity="1" style="display: block;"><image width="340px" height="204px" preserveAspectRatio="xMidYMid slice" xlink:href="https://assets.easyship.com/website/lottie/home/assets/supercharge-warehouses/img_3.png"></image></g><g transform="matrix(1.2999999523162842,0,0,1.2999999523162842,1164.7398681640625,470.39300537109375)" opacity="1" style="display: block;"><image width="340px" height="204px" preserveAspectRatio="xMidYMid slice" xlink:href="https://assets.easyship.com/website/lottie/home/assets/supercharge-warehouses/img_2.png"></image></g><g transform="matrix(1.2999999523162842,0,0,1.2999999523162842,792.9398803710938,518.4929809570312)" opacity="1" style="display: block;"><image width="339px" height="204px" preserveAspectRatio="xMidYMid slice" xlink:href="https://assets.easyship.com/website/lottie/home/assets/supercharge-warehouses/img_1.png"></image></g><g transform="matrix(1.2999999523162842,0,0,1.2999999523162842,282.0411682128906,415.79296875)" opacity="1" style="display: block;"><image width="339px" height="204px" preserveAspectRatio="xMidYMid slice" xlink:href="https://assets.easyship.com/website/lottie/home/assets/supercharge-warehouses/img_0.png"></image></g></g></svg>