<?xml version="1.0" encoding="utf-8"?>
<!-- Generator: Adobe Illustrator 24.0.3, SVG Export Plug-In . SVG Version: 6.00 Build 0)  -->
<svg version="1.1" id="Layer_1" xmlns="http://www.w3.org/2000/svg" xmlns:xlink="http://www.w3.org/1999/xlink" x="0px" y="0px"
	 viewBox="0 0 1442.4 301.6" style="enable-background:new 0 0 1442.4 301.6;" xml:space="preserve">
<style type="text/css">
	.st0{fill:#FFFFFF;}
</style>
<a id="q4P5pP_1_" xlink:href="https://www.kickstarter.com/projects/1466745684/the-ultimate-travel-shoe-20-tropicfeel" >
	<g>
		<g>
			<path class="st0" d="M0,69.4c4.6,0,9.2-0.1,13.8,0c2.4,0.1,2.9-0.8,2.9-3.1c-0.1-10.2,0.1-20.4,0-30.5c0-2,0.5-2.7,2.7-2.7
				c16.3,0.1,32.6,0.1,48.9,0c2.2,0,2.8,0.6,2.8,2.8c-0.1,10.2,0,20.4-0.1,30.5c0,2.4,0.7,3,3,2.9c7.8-0.1,15.6,0,23.4-0.1
				c1.9,0,2.6,0.5,2.6,2.5c-0.1,12.9-0.1,25.9,0,38.8c0,2.2-0.8,2.7-2.8,2.7c-7.8-0.1-15.6,0-23.4-0.1c-2.2,0-2.9,0.6-2.9,2.8
				c0.1,19.9,0,39.8,0,59.8c0,4.8,0.6,9.4,4,13.1c3.3,3.7,7.6,5.1,12.2,5.7c3.9,0.5,7.8,0.3,11.7,0.1c1.8-0.1,2.5,0.3,2.5,2.3
				c-0.1,13.9-0.1,27.8,0,41.7c0,1.9-0.5,2.6-2.5,2.9c-15,2.3-30,2.3-44.7-2.1c-15-4.4-25.4-13.9-31.3-28.3
				c-3.9-9.5-5.7-19.5-6-29.7c-0.6-21.9-0.2-43.7-0.2-65.6c0-1.9-0.4-2.7-2.4-2.6c-4.8,0.2-9.5,0.1-14.3,0.2C0,98.8,0,84.1,0,69.4z"
				/>
			<path class="st0" d="M1432,240.5c-17.1,0-34.2,0-51.3,0.1c-2.4,0-3.1-0.5-3.1-3c0.1-72.9,0.1-145.7,0-218.6
				c0-3.9,0.1-7.8-0.1-11.7c-0.1-2,0.6-2.5,2.6-2.5c16.6,0.1,33.1,0,49.7,0c0.7,0,1.4-0.1,2.1-0.1C1432,83.2,1432,161.9,1432,240.5z
				"/>
			<path class="st0" d="M969.2,177c0,20.2,0,40.4,0,60.6c0,2.2-0.4,3-2.9,3c-16.1-0.1-32.2-0.1-48.3,0c-2.4,0-3.1-0.6-3.1-3.1
				c0.1-40.3,0-80.6,0.1-120.9c0-2.5-0.6-3.5-3.2-3.3c-4.1,0.2-8.1,0-12.2,0c-1.8,0-2.7-0.4-2.6-2.5c0.1-13,0.1-26,0-39
				c0-1.9,0.6-2.5,2.4-2.4c4.2,0.1,8.5-0.1,12.7,0.1c2.2,0.1,2.9-0.7,2.8-2.9c-0.3-8.9,0.7-17.7,3.7-26.1
				c6.6-18.1,20.1-28.3,38.2-33.2c13.4-3.6,27-3.4,40.6-2.6c2.1,0.1,1.6,1.5,1.6,2.6c0,10.8,0,21.6,0,32.4c0,2.7-0.1,5.5,0,8.2
				c0.1,2-0.7,2.5-2.5,2.2c-4.4-0.7-8.8-0.5-13.2,0.1c-9.5,1.4-14.5,7.4-14.3,16.9c0.1,1.7,0.6,2.3,2.3,2.3c7.3-0.1,14.7,0,22-0.1
				c1.9,0,2.4,0.5,2.4,2.4c-0.1,13-0.1,26,0,39c0,2.2-1,2.5-2.7,2.5c-7.1,0-14.2,0.1-21.3,0c-2.2,0-2.8,0.6-2.8,2.9
				C969.2,136.4,969.2,156.7,969.2,177z"/>
			<path class="st0" d="M814.3,65.1c20.7,0,36.8,4.3,51.5,13.6c2.3,1.4,2.8,2.8,1.9,5.4c-4.3,13.1-8.5,26.3-12.6,39.4
				c-1,3-0.9,2.9-3.5,1.1c-13.1-9.5-27.6-13-43.5-9.3c-15.1,3.4-25.9,16.2-27.9,32.5c-1.3,10.6-0.1,20.9,5.6,30.2
				c6.5,10.8,16.4,16.6,28.7,18.4c13.8,2,26.1-1.8,37.3-9.8c2.1-1.5,2.6-1.1,3.3,1.2c4,12.8,8.1,25.5,12.3,38.2
				c0.8,2.4,0.6,3.9-1.8,5.4c-18.7,11.4-38.8,15.2-60.4,12.6c-16.2-1.9-31.2-7.1-44.5-16.7c-16.5-11.9-27.2-27.9-32.2-47.6
				c-4.7-18.4-4.3-36.8,1.8-54.9c7.3-21.7,21.3-37.9,41.5-48.6C786.1,68.5,801.5,65.3,814.3,65.1z"/>
			<path class="st0" d="M180,90.6c3.2-3.9,5.8-7.9,9.2-11.4c9.2-9.2,20.4-13.3,33.2-14c2.1-0.1,2.9,0.3,2.9,2.7
				c-0.1,16.6-0.1,33.1,0,49.7c0,2.2-0.5,2.8-2.8,2.6c-6.2-0.7-12.4-0.5-18.4,1.4c-11.6,3.7-17.6,12.4-20.6,23.7
				c-1.6,6.1-2.2,12.4-2.2,18.7c0,24.3,0,48.7,0,73c0,3.5,0,3.6-3.6,3.6c-15.9,0-31.9-0.1-47.8,0.1c-2.4,0-2.9-0.8-2.9-3
				c0.1-55.1,0.1-110.1,0-165.2c0-2.3,0.7-3,3-3c15.7,0.1,31.3,0.1,47,0c2.6,0,3.1,1,3.1,3.2C179.9,78.6,180,84.6,180,90.6z"/>
			<path class="st0" d="M648.4,155.2c0-27.3,0-54.5,0-81.8c0-4,0-4,4-4c15.8,0,31.5,0.1,47.3,0c2.3,0,3,0.6,3,2.9
				c-0.1,12.6,0.1,25.1,0.1,37.7c0,41.6,0,83.2,0,124.8c0,5.7,0,5.7-5.6,5.7c-15.2,0-30.5-0.1-45.7,0.1c-2.6,0-3.2-0.8-3.2-3.3
				C648.4,209.9,648.4,182.6,648.4,155.2z"/>
			<path class="st0" d="M644.9,29.6c0-17.2,12.6-29.7,29.9-29.7c17.6,0,30.7,12.5,30.7,29.4c0.1,17-12.9,29.5-30.5,29.5
				C657.7,58.7,645,46.4,644.9,29.6z"/>
			<path class="st0" d="M368.8,47.4c-26.9-9.3-53.9-9.1-81.2,0.2c2.7-4.1,5.8-7.2,8.6-10.4c10-11.6,20.1-23.1,30.1-34.7
				c2.2-2.6,2.3-2.6,4.4-0.1c11.3,12.9,22.5,25.9,33.7,38.9c1.6,1.8,3.1,3.6,4.6,5.4C369,46.9,368.9,47.1,368.8,47.4z"/>
			<path class="st0" d="M620.2,121.5c-5.1-16.7-14.9-30.5-29-40.9c-13.4-9.8-28.5-14.6-45-15.5c-11-0.6-21.7,1-32,5.2
				c-6.1,2.5-11.7,5.8-16.7,10.2c-0.5,0.5-1.1,1.2-1.8,0.9c-0.8-0.3-0.4-1.2-0.4-1.9c0-2.6-0.1-5.1,0-7.7c0.1-2-0.5-2.6-2.5-2.5
				c-14.4,0.1-28.9,0-43.3,0.1c-5.2,0-4.9-1-4.9,4.8c0,74.8,0,149.6,0,224.5c0,2.3,0.5,3,2.9,3c16.1-0.1,32.2-0.1,48.3,0
				c2.4,0,3.1-0.5,3.1-3c-0.1-22-0.1-43.9,0-65.9c0-1.4-0.2-2.8,0.4-4.5c2.9,2.3,5.4,4.5,8.2,6.3c14.4,8.8,30,11.6,46.7,9.8
				c27.3-3,48-16.2,60.3-40.8C627.7,177.1,628.8,149.5,620.2,121.5z M564.7,179.6c-7.5,13.6-22.2,19.6-37.6,16.7
				c-15.3-2.9-24-12.5-28.1-27.1c-1.3-4.7-1.7-9.6-1.8-14.5c0.2-12.5,3.4-23.9,12.6-33c14-13.7,44.1-13.2,55.4,8.8
				C573.8,146.8,573.6,163.6,564.7,179.6z"/>
			<path class="st0" d="M421.4,144.7c-3.5-31.7-19.3-55.2-47.9-69.5c-18.7-9.4-38.8-11.8-59.5-9c-22.4,3-41.6,12.5-56.7,29.5
				s-22.1,37.2-22.1,62.4c-0.1,2.7,0.3,7.9,1.2,13c5.7,32,23.5,54.6,53.7,66.6c25.1,10,50.7,9.7,75.9,0c19.9-7.7,35.1-21,45.3-39.8
				C420.3,181.2,423.4,163.4,421.4,144.7z M367.5,158c-0.6,10.7-4.2,20.3-12,27.8c-11.4,10.9-25,13.7-39.8,9.1
				c-14-4.4-21.8-14.8-25-28.8c-0.8-3.5-1.2-7-1.1-10.5c0.2-13.1,3.7-24.8,13.9-33.7c13.9-12.2,37.4-11.7,50.9,0.9
				C364.7,132.3,368.2,144.4,367.5,158z"/>
			<path class="st0" d="M1348.9,115.7c-6.7-18.7-18.3-33.3-36.4-41.9c-18.3-8.7-37.6-10.5-57.3-7c-22.2,4-39.8,15.7-52,34.5
				c-17,26.4-19.9,55-11,84.8c5.4,18,16.2,32.5,31.8,43.1c10.2,7,21.5,11.4,33.7,13.6c22.6,4.1,44.3,2.1,64.7-8.9
				c10.8-5.8,20-13.6,26.9-23.9c1-1.5,2-2.8-0.1-4.5c-10.8-8.2-21.5-16.5-32.1-24.8c-1.3-1-2-1.1-3.2,0.3
				c-12.6,14.6-28.4,19.8-47,14.7c-11.8-3.3-20.1-10.8-23.3-23.2c-0.8-3.1-0.5-3.4,2.6-3.4c17.7,0,35.4,0,53.1,0s35.4,0,53.1,0
				c1.8,0,3-0.1,3.1-2.4C1356,149.3,1354.9,132.2,1348.9,115.7z M1297.9,134.7c-8.5,0-17,0-25.5,0l0,0c-8.3,0-16.6-0.1-24.9,0
				c-2.4,0-2.9-0.7-2.4-3c2.5-11,8.5-19,19.7-21.7c10.7-2.6,20.6-0.8,28.5,7.5c4,4.2,5.9,9.3,6.8,15
				C1300.6,134.6,1299.4,134.7,1297.9,134.7z"/>
			<path class="st0" d="M1166.8,114.4c-6.5-17.3-17.3-31-33.8-39.6c-16.1-8.4-33.4-11-51.3-9.1c-34.8,3.6-57.7,22.8-69.9,55
				c-6.6,17.4-7.6,35.6-4.2,53.9c3.8,20.5,13.3,37.8,29.7,50.9c13.3,10.7,28.8,16.4,45.7,18.4c22.2,2.7,43-0.7,62.2-12.6
				c8.8-5.4,16.4-12.3,22.2-21c2.1-3.2,2.1-3.2-0.8-5.5c-10.4-8.1-20.9-16.1-31.3-24.2c-1.1-0.9-1.9-1-2.9,0.2
				c-0.6,0.8-1.3,1.5-1.9,2.2c-12.8,14-32.8,18.5-49.8,11.1c-9.8-4.3-16.5-11.4-19-22.1c-0.5-2.1-0.1-3,2.4-3
				c17.8,0.1,35.6,0,53.4,0v-0.1c17.8,0,35.6,0,53.4,0c2.2,0,2.9-0.7,2.9-2.9C1174.4,148.5,1173.1,131.1,1166.8,114.4z M1116,134.7
				c-8.4,0-16.8,0-25.2,0l0,0c-8.1,0-16.3,0-24.4,0c-3.3,0-3.4-0.1-2.7-3.3c2.5-11,8.7-18.9,19.9-21.5c11-2.5,21.1-0.4,29,8.5
				c3.5,4,5.1,8.8,6,14C1118.9,134.6,1117.5,134.7,1116,134.7z"/>
		</g>
	</g>
</a>
</svg>
