<?xml version="1.0" encoding="UTF-8"?>
<svg width="20px" height="20px" viewBox="0 0 20 20" version="1.1" xmlns="http://www.w3.org/2000/svg" xmlns:xlink="http://www.w3.org/1999/xlink">
    <!-- Generator: Sketch 55.2 (78181) - https://sketchapp.com -->
    <title>twitter</title>
    <desc>Created with Sketch.</desc>
    <g id="twitter" stroke="none" stroke-width="1" fill="none" fill-rule="evenodd">
        <path d="M20,4.9087627 C19.208,5.23695437 18.416,5.44174599 17.624,5.52313755 C18.5013334,4.99015426 19.104,4.25237939 19.4373334,3.30981293 C18.6053334,3.80078766 17.728,4.12897932 16.8133334,4.29438792 C16.0213334,3.43321299 15.0426666,3 13.8746666,3 C13.0426666,3 12.28,3.22579586 11.5946666,3.67738759 C10.9066666,4.12897932 10.3946666,4.73547749 10.0613334,5.49425664 C9.728,6.25303579 9.66666664,7.08270433 9.87466664,7.98588778 C8.168,7.90449622 6.584,7.48178532 5.12533336,6.72300625 C3.66666666,5.96422711 2.416,4.96915002 1.376,3.74040039 C1,4.35477519 0.813333336,5.02166067 0.813333336,5.73843125 C0.813333336,6.4578274 0.978666664,7.11421066 1.312,7.70758118 C1.64533334,8.30357729 2.104,8.78667542 2.688,9.15425008 C2.02133334,9.11486709 1.39466666,8.92845422 0.813333336,8.60026255 L0.813333336,8.66327536 C0.813333336,9.64785037 1.12533334,10.5090252 1.74933334,11.2468001 C2.376,11.984575 3.168,12.4571709 4.12533336,12.6619626 C3.54133334,12.7853626 2.91733334,12.8063669 2.25066666,12.7249754 C2.50133334,13.5441418 2.97866666,14.2110273 3.688,14.7230062 C4.39466664,15.2376108 5.18666664,15.4922874 6.06133336,15.4922874 C4.56266664,16.6422711 2.87466666,17.2146374 1,17.2146374 L0,17.2146374 C1.91733334,18.4066295 4.02133336,19 6.312,19 C8.688,19 10.8133334,18.4066295 12.688,17.2146374 C14.3546666,16.1486708 15.6666666,14.6941254 16.624,12.8457499 C17.5013334,11.1234001 17.9386666,9.33803737 17.9386666,7.49228748 L17.9386666,7.00131277 C18.728,6.42632099 19.416,5.72792908 20,4.9087627" id="twit" fill="#FFFFFF" fill-rule="nonzero"></path>
    </g>
</svg>