<?xml version="1.0" encoding="UTF-8"?>
<svg width="25px" height="17px" viewBox="0 0 25 17" version="1.1" xmlns="http://www.w3.org/2000/svg" xmlns:xlink="http://www.w3.org/1999/xlink">
    <title>youtube</title>
    <defs>
        <polygon id="path-1" points="0 1.06580905e-05 24.1661019 1.06580905e-05 24.1661019 16.70984 0 16.70984"></polygon>
    </defs>
    <g id="Overview" stroke="none" stroke-width="1" fill="none" fill-rule="evenodd">
        <g id="Footer---Tablet" transform="translate(-531.000000, -6356.000000)">
            <g id="Footer---Tablet---Location-Dropdown---Hover---Finland" transform="translate(0.000000, 5674.000000)">
                <g id="Group" transform="translate(66.000000, 613.000000)">
                    <g id="Bottom-Links" transform="translate(0.000000, 44.000000)">
                        <g id="Social" transform="translate(465.000000, 23.000000)">
                            <g id="YouTube" transform="translate(0.000000, 2.000000)">
                                <mask id="mask-2" fill="white">
                                    <use xlink:href="#path-1"></use>
                                </mask>
                                <g id="Clip-2"></g>
                                <path d="M9.7083768,11.8745528 L9.7083768,4.7897128 C11.7658168,5.9715928 13.8160808,7.1493448 15.8757688,8.3325128 C13.8166008,9.5151288 11.7670968,10.6921928 9.7083768,11.8745528 M24.1651448,8.0514008 C24.1599208,7.4223208 24.1420568,6.7938648 24.0965288,6.1663528 C24.0637528,5.7146808 24.0324488,5.2628728 23.9955048,4.8115368 C23.9605208,4.3840968 23.9134248,3.9578328 23.8387928,3.5351848 C23.7640728,3.1120328 23.6625288,2.6960408 23.5026888,2.2958408 C23.3369848,1.8809608 23.1155368,1.5012328 22.8009288,1.1801928 C22.4073928,0.7786088 21.9271208,0.5322648 21.3872328,0.3940568 C21.1418408,0.3312408 20.8912168,0.2950008 20.6415448,0.2546728 C20.3733128,0.2113448 20.1038328,0.1770728 19.8331608,0.1528248 C19.5250488,0.1252168 19.2157688,0.1218888 18.9069208,0.1116408 C18.3342248,0.0926328 17.7613928,0.0775528 17.1885608,0.0630968 C16.6956408,0.0506648 16.2026648,0.0403048 15.7096728,0.0310408 C15.2806168,0.0229768 14.8515208,0.0146248 14.4224088,0.0119608 C13.6892488,0.0074008 12.9561288,-0.0053432 12.2229128,0.0025128 C11.8816568,0.0025128 11.5403768,1.06580905e-05 11.1991448,0.0031048 C10.6820408,0.0078968 10.1649048,0.0087608 9.6478248,0.0196648 C9.1548648,0.0300648 8.6618248,0.0370648 8.1689688,0.0524728 C7.8280568,0.0631288 7.4871208,0.0730568 7.1462488,0.0847208 C6.8266888,0.0956568 6.5071208,0.1069128 6.1876728,0.1208408 C5.8709288,0.1346568 5.5543048,0.1514728 5.2376728,0.1679208 C4.9077928,0.1850568 4.5778888,0.2019128 4.2481528,0.2215528 C3.9529768,0.2391288 3.6581688,0.2630728 3.3629208,0.2792168 C2.9960808,0.2992728 2.6380968,0.3619608 2.2929608,0.4895128 C1.7797608,0.6791848 1.3541848,0.9877048 1.0289288,1.4302008 C0.7478648,1.8125608 0.5765448,2.2428488 0.4793208,2.7042568 C0.4211048,2.9805208 0.3845368,3.2605848 0.3434488,3.5397528 C0.2844888,3.9402408 0.2346408,4.3419768 0.1921048,4.7445128 C0.1520808,5.1232888 0.1155848,5.5024808 0.0914888,5.8826968 C0.0729528,6.1751448 0.0526168,6.4675208 0.0381128,6.7601768 C0.0203208,7.1194648 0.0113608,7.4790888 0.0047928,7.8388008 C-0.0065912,8.4625688 0.0029848,9.0859688 0.0262088,9.7093048 C0.0426648,10.1513128 0.0672888,10.5928328 0.1015608,11.0337688 C0.1316968,11.4214728 0.1659048,11.8088088 0.2052408,12.1957368 C0.2570008,12.7048968 0.3240808,13.2113928 0.4459848,13.7092248 C0.5451928,14.1143448 0.6801288,14.5062248 0.8831128,14.8724088 C1.2399528,15.5161288 1.7640088,15.9591768 2.4641608,16.1920648 C2.7585848,16.2900008 3.0630888,16.3417368 3.3678568,16.3908888 C4.0106648,16.4945608 4.6590808,16.5389288 5.3090648,16.5618648 C5.6073528,16.5723848 5.9058728,16.5793048 6.2043368,16.5812328 C6.9187368,16.5858328 7.6330568,16.5933688 8.3472968,16.6101368 C8.6830568,16.6180168 9.0189448,16.6206328 9.3547528,16.6267688 C9.9996488,16.6385448 10.6445208,16.6514728 11.2894088,16.6632568 C11.6891688,16.6705608 12.0889768,16.6752248 12.4887048,16.6839848 C12.6535528,16.6875928 12.8182088,16.7044088 12.9830168,16.7054408 C13.3588728,16.7077848 13.7347128,16.7128088 14.1106488,16.7074728 C14.5370648,16.7014088 14.9635288,16.6983208 15.3898168,16.6847688 C15.7147288,16.6744408 16.0397208,16.6658248 16.3645208,16.6526408 C16.7931288,16.6352488 17.2216728,16.6158088 17.6500888,16.5940728 C17.9693448,16.5778808 18.2883848,16.5573288 18.6074568,16.5375128 C19.0488168,16.5100968 19.4901768,16.4824728 19.9314088,16.4531448 C20.2051768,16.4349448 20.4785928,16.4113688 20.7524088,16.3939528 C21.0161128,16.3771768 21.2771608,16.3453848 21.5338168,16.2805368 C22.2166568,16.1079928 22.7505528,15.7312248 23.1213368,15.1284968 C23.3554568,14.7479208 23.5034008,14.3328408 23.6150328,13.9032568 C23.7331288,13.4487768 23.8044808,12.9854568 23.8686728,12.5211048 C23.9514648,11.9221128 24.0179128,11.3213368 24.0663688,10.7184168 C24.1069288,10.2136648 24.1362328,9.7083688 24.1517208,9.2024248 C24.1634648,8.8189528 24.1683368,8.4352568 24.1651448,8.0514008" id="Fill-1" fill="#FFFFFF" mask="url(#mask-2)"></path>
                            </g>
                        </g>
                    </g>
                </g>
            </g>
        </g>
    </g>
</svg>