<?xml version="1.0" encoding="utf-8"?><svg xmlns="http://www.w3.org/2000/svg" width="33.1" height="76" fill="none" stroke="#99999a" stroke-width="1.3" xmlns:v="https://vecta.io/nano"><g stroke-miterlimit="10"><path d="M23.2 9.2s-2 1.2-6.6 1.2S10 9.2 10 9.2M9.2 49L.6 51.3s-.3-16 5.8-20.6"/><path d="M22.9 53.4C28.7 30.7 29 11 16.6.8 4.1 11.1 4.4 30.7 10.3 53.4h12.6z"/><path d="M9.2 49h14.7m0 0l8.6 2.3s.2-16-5.8-20.6"/></g><circle cx="16.6" cy="20.2" r="3.8"/><circle cx="16.6" cy="34.9" r="3.8"/><g stroke-miterlimit="10"><path d="M13.4 56.3c-1.1.8-1.8 2-1.8 3.4 0 .8.3 1.6.7 2.3l4.3 5.8 4.3-5.8c.5-.7.7-1.4.7-2.3 0-1.4-.7-2.6-1.9-3.4"/><path d="M10.6 55.8c-2 1.3-3.3 3.4-3.3 5.6 0 1.4.5 2.7 1.3 3.8l8 9.7 8-9.7c.8-1.1 1.3-2.4 1.3-3.8 0-2.3-1.4-4.4-3.5-5.7m-5.8-5.2v2.9"/><path d="M13.3 50.5v2.9m6.6-2.9v2.9"/></g></svg>