<?xml version="1.0" encoding="utf-8"?><svg xmlns="http://www.w3.org/2000/svg" width="55" height="55" fill="none" stroke="#9b9b9b" stroke-width="1.3" stroke-miterlimit="10" xmlns:v="https://vecta.io/nano"><path d="M1.8 53.2V1.8" stroke-linecap="round"/><path d="M1.8 42L9 39.8c6-1.9 12.6-1 18 2.3 5.2 3.2 11.6 4.1 17.5 2.4l6.8-1.9a2.58 2.58 0 0 0 1.9-2.5V10.7c0-.8-.4-1.6-1-2-.6-.5-1.5-.6-2.3-.4l-5.4 1.5c-5.9 1.7-12.3.8-17.5-2.4-5.4-3.3-11.9-4.2-18-2.3L1.8 7.3V42z"/><path d="M35.3 17.5l6.7 6.7-6.7 6.6M19.7 17.5L13 24.2l6.7 6.6m10-13.3l-4.4 13.3" stroke-linecap="round"/></svg>