<?xml version="1.0" encoding="utf-8"?><svg xmlns="http://www.w3.org/2000/svg" width="290.4" height="62" xmlns:v="https://vecta.io/nano"><g fill-rule="evenodd"><path d="M172.8 52.4V40.5l10.3-5.9v11.9l-10.3 5.9zm0-31l-.6-.4 9.1-5.1c.9-.5 1.8-.5 1.8-.5v13.3l-10.3 5.9V21.4zm-5.1 16.3l-11.5 6.7-.7-.4V31.3s.5-.8 1-1.2l10.5-6 .7.4v13.2zm-11.5 12.5l11.5-6.7v11.8L156.2 62s-.5-.4-.5-1.1l-.1-11.1.6.4z" fill="#bb4de8"/><path d="M139.5 21.4v19.2l16.7 9.6V62l-26.9-15.5v-31s1.3 0 3.1 1l7.8 4.6-.7.3zm16.7 9.7v13.2l-11.5-6.6V24.5l.7-.4 9.6 5.7c1 .6 1.2 1.3 1.2 1.3z" fill="#ae29d4"/><path d="M172.8 21.4l-16.7-9.6-16.7 9.6-10.3-6L156.2 0l26.9 15.5-10.3 5.9zm-5.2 3.1l-11.5 6.7-11.5-6.7 11.5-6.6 11.5 6.6z" fill="#d17af9"/></g><path d="M13 25.6h0c-1.1-1.9-2.8-2.8-5.1-2.8-2.4 0-4.3.9-5.8 2.6-1.4 1.7-2.1 4-2.1 6.9 0 2.7.6 4.8 2 6.3C3.3 40.2 5 41 7.1 41c2.7 0 4.7-1.1 5.8-3.4h.1v11.2l4-.2V23.2h-4v2.4zm.1 7c0 1.5-.4 2.7-1.3 3.7-.8 1-2 1.5-3.4 1.5-1.3 0-2.4-.5-3.2-1.5S4 33.9 4 32.2c0-2 .4-3.5 1.3-4.6s2-1.6 3.5-1.6c1.3 0 2.3.4 3.1 1.3s1.2 1.9 1.2 3.2v2.1zm25.3 3.1l-.3 1.5H38c0-.6-.1-1.1-.2-1.5l-3.1-12.6H31l-3.5 12.5-.3 1.5h-.1c0-.6-.1-1.1-.2-1.5l-3.2-12.5h-4.1l5.1 17.4h4.1l3.4-11.8c.2-.6.3-1.1.3-1.5h.1c0 .6.1 1.1.2 1.5L36 40.5h4.1l5.1-17.4h-3.8l-3 12.6zm10.9-20.6c-.6 0-1.2.2-1.7.6s-.7 1-.7 1.6.2 1.2.7 1.6a2.52 2.52 0 0 0 1.7.6 2.19 2.19 0 0 0 1.7-.7c.5-.5.7-1 .7-1.6s-.2-1.2-.7-1.6c-.4-.3-1-.5-1.7-.5zm-2 25.4h4V23.2h-4v17.3zm17.6-17.7c-2.5 0-4.4 1.1-5.7 3.3h-.1v-2.9h-4v17.4h4v-9.9c0-1.4.4-2.5 1.2-3.4s1.8-1.3 3-1.3c2.3 0 3.5 1.6 3.5 4.9v9.8h4V29.9c0-2.3-.5-4.1-1.5-5.3-1.1-1.2-2.5-1.8-4.4-1.8zm14.6-4.9l-4 2.3v3h-2.9v3.1h2.9v9.8c0 3.2 1.7 4.8 5.1 4.8 1.3 0 2.3-.2 3.1-.6v-3.1c-.5.4-1.1.6-1.7.6-.9 0-1.5-.2-1.9-.7-.4-.4-.6-1.2-.6-2.2v-8.7h4.2v-3.1h-4.2c0 .1 0-5.2 0-5.2zm13 6c-.8.7-1.4 1.6-1.8 2.9h-.1v-3.6h-4v17.4h4v-8.3c0-1.8.4-3.2 1.2-4.3s1.8-1.6 2.9-1.6c.9 0 1.6.2 2.1.6v-3.7c-.4-.2-.9-.3-1.6-.3-1-.1-1.9.2-2.7.9zm14.6 11.9c-.1.6-.3 1-.3 1.2h-.1c-.2-.7-.3-1.1-.3-1.3l-4.2-12.6h-4.4l6.9 17.3-3.2 8.2h4l9.9-25.5h-4l-4.3 12.7zm107.1 3.6c0 6.4-3.2 9.6-9.6 9.6-2.3 0-4.2-.4-5.9-1.1v-3.6c1.9 1.1 3.7 1.6 5.4 1.6 4.1 0 6.2-2 6.2-6.1v-1.9h-.1c-1.3 2.2-3.3 3.3-5.9 3.3-2.1 0-3.8-.8-5.1-2.3s-1.9-3.6-1.9-6.2c0-3 .7-5.3 2.1-7.1 1.4-1.7 3.3-2.6 5.8-2.6 2.3 0 4 .9 5.1 2.8h.1v-2.4h3.9v16zm-3.9-6.6v-2.3c0-1.2-.4-2.3-1.2-3.1s-1.8-1.3-3-1.3c-1.5 0-2.7.6-3.5 1.7s-1.3 2.7-1.3 4.6c0 1.7.4 3.1 1.2 4.1s1.9 1.5 3.2 1.5c1.4 0 2.5-.5 3.3-1.5.9-.9 1.3-2.1 1.3-3.7zm12.3 8h-4V15h4v25.8zm12.2.4c-2.7 0-4.8-.8-6.4-2.4S226 35 226 32.3c0-2.9.8-5.2 2.5-6.9 1.7-1.6 3.9-2.5 6.8-2.5 2.7 0 4.8.8 6.4 2.4s2.3 3.8 2.3 6.7c0 2.8-.8 5-2.5 6.7-1.8 1.7-4 2.5-6.7 2.5zm.2-15.1c-1.5 0-2.8.5-3.7 1.6s-1.3 2.6-1.3 4.5c0 1.8.5 3.3 1.4 4.3a4.68 4.68 0 0 0 3.6 1.6c1.6 0 2.7-.5 3.6-1.5.8-1 1.3-2.5 1.3-4.4s-.4-3.4-1.3-4.4c-.9-1.1-2.1-1.7-3.6-1.7zm16.2 12.2h0l-.1 2.5h-3.9V15h3.9v11.4h.1c1.3-2.3 3.3-3.5 5.9-3.5 2.2 0 3.9.8 5.2 2.3 1.2 1.6 1.9 3.6 1.9 6.3 0 2.9-.7 5.2-2.1 7s-3.3 2.6-5.7 2.6c-2.4.1-4.1-.9-5.2-2.8zm-.1-6.9v2.2c0 1.3.4 2.3 1.2 3.2s1.8 1.3 3.1 1.3c1.5 0 2.6-.6 3.4-1.7s1.3-2.7 1.3-4.8c0-1.7-.4-3.1-1.2-4-.8-1-1.8-1.5-3.2-1.5s-2.5.5-3.4 1.5c-.8 1-1.2 2.3-1.2 3.8zm29.3 9.4h-3.8v-2.7h-.1c-1.2 2.1-3 3.1-5.3 3.1-1.7 0-3.1-.5-4-1.4-1-.9-1.5-2.2-1.5-3.7 0-3.3 1.9-5.2 5.7-5.8l5.2-.7c0-2.5-1.2-3.7-3.5-3.7-2.1 0-3.9.7-5.6 2.1v-3.5c1.8-1.1 4-1.6 6.4-1.6 4.4 0 6.6 2.2 6.6 6.5v11.4zm-3.8-8.5l-3.7.5c-1.1.1-2 .4-2.6.8s-.9 1.1-.9 2.1c0 .7.3 1.3.8 1.8s1.2.7 2.1.7c1.2 0 2.2-.4 3-1.3.8-.8 1.2-1.9 1.2-3.2v-1.4zm11.9 8.5h-4V15h4v25.8z" fill="#231f20"/></svg>