<?xml version="1.0" encoding="utf-8"?><svg xmlns="http://www.w3.org/2000/svg" width="280" height="44.6" fill-rule="evenodd" xmlns:v="https://vecta.io/nano"><path d="M280 39c0 3.1-2.4 5.6-5.6 5.6s-5.6-2.4-5.6-5.6c0-3.1 2.4-5.6 5.6-5.6s5.6 2.5 5.6 5.6zm-10.2 0c0 2.7 2 4.8 4.7 4.8s4.7-2.1 4.7-4.8-2-4.8-4.7-4.8-4.7 2.1-4.7 4.8zm3.4 3.2h-.8v-6.4h2.5c1.5 0 2.1.6 2.1 1.8 0 1.1-.7 1.6-1.6 1.8l1.9 2.9h-.9l-1.8-2.9h-1.3l-.1 2.8zm1.1-3.5c1 0 1.9 0 1.9-1.1 0-.9-.7-1.1-1.5-1.1h-1.5v2.2h1.1zM9.3.2l37.5 7.7C55.2 9.4 55 11 55 11c5.9 0 6.6.2 7.7 1.1 3.1 2.6-1.9 10.3-1.9 10.3C60 22.9 5.3 44 5.3 44h57.2l9.4-44H9.3v.2zm42.8 14.3c-.8.4-3 .6-4 .7s-1.2.2-1.3.6c0 .3.1.5 1.5.5 3.2 0 9-1.2 10.7-.7.9.3.2 1.9-.6 4.1-.3.8.3.8.6.4s1.8-3.1 2-4.5c.2-2-1.5-2.3-3.8-2.3h-3.7c-.2 0-.4.1-.6.4-.1.3-.3.5-.8.8h0zM7.2 10.2L0 44l24.7-12.2c5.5-2.8 13.1-6.6 20.2-9 1.3-.5 7.1-2.2 10.4-2.8 1.3-.2 1.8-.5 1.8-.7 0-.7-1.3-.7-3.6-.6-6.7.3-19.7 5.5-23.4 7.4l-4.2-13h26.8c1.2-3.4-15.9-2.9-16.4-2.9H7.2zm80.4 6.6c-4.3 0-6.9-1.7-6.1-5.6L83.9 0h3.6l-2.2 10.1c-.6 2.6 0 4.1 2.8 4.1 2.7 0 4-1.5 4.6-4.1L94.9 0h3.6l-2.4 11.2c-.9 3.8-4.2 5.6-8.5 5.6h0zm25.4-.3h-4.6l-4.1-12.2h-.1l-2.5 12.2h-3.2L102 0h4.7l3.9 12.4L113.3 0h3.2L113 16.5zm7.1 0h-3.6L120 0h3.6l-3.5 16.5zm19.3-13.9h-5.1l-2.9 13.9h-3.6l2.9-13.9h-5.1L126 0h13.9l-.5 2.6zm14.3 0h-8.3l-.9 4.3h7.2l-.5 2.4H144l-.9 4.5h8.3l-.6 2.6h-12L142.4 0h11.9l-.6 2.6zm7.2 13.9h-7.5L156.9 0h8c5 0 6.7 3.3 6 7.5-1 6-5.4 9-10 9h0zm2.9-13.9H160l-2.4 11.2h2.6c4.1 0 6.5-2.7 7.1-6.4.5-2.5-.5-4.8-3.5-4.8zm24.8 0h-3.9c-2 0-2.9.4-3.1 1.2-.6 2.6 6.6 4.7 5.9 8.8-.4 2.3-2.3 3.9-6.9 3.9H175l.5-2.6h4.5c1.4 0 3.1.1 3.4-1.3.5-2.4-6.5-4.7-5.9-8.7.3-2.4 2.4-3.9 6.7-3.9h4.9l-.5 2.6zm15.7 0h-5.1l-2.9 13.9h-3.6l2.9-13.9h-5.1L191 0h13.9l-.6 2.6zm.7 13.9l1.4-2.6h5.2l-1.4-10.6-7.3 13.2h-3.6L208.8 0h4.3l2.6 16.5H205zm25.4-13.9h-5.1l-2.9 13.9h-3.6l2.9-13.9h-5.1l.6-2.6H231l-.6 2.6zm14.4 0h-8.3l-.9 4.3h7.2l-.5 2.4H235l-.9 4.5h8.3l-.6 2.6h-12L233.4 0h11.9l-.5 2.6zm12.8 0h-3.9c-2 0-2.9.4-3.1 1.2-.6 2.6 6.6 4.7 5.9 8.8-.4 2.3-2.3 3.9-6.9 3.9H244l.5-2.6h4.5c1.4 0 3.1.1 3.4-1.3.5-2.4-6.5-4.7-5.9-8.7.3-2.4 2.4-3.9 6.7-3.9h4.9l-.5 2.6zm-175 35.1c-.6 0-1.2-.1-1.7-.1l-.2-2.4c.5 0 1.1.1 1.6.1 2.5 0 3.4-1.7 3.6-2.7.4-1.8-.5-2.5-1.9-2.5h-3L78.2 44h-3.6L78 27.5h7.9c3.6 0 4 3.1 3.5 5.2-.6 3.1-3.5 5-6.8 5zm14.9 6.6c-5.1 0-7.9-3.9-6.9-8.6 1.2-5.9 5.5-8.5 10.6-8.5s8 3.6 6.9 8.5c-1.3 6-5.5 8.6-10.6 8.6zm3.1-14.5c-3.3 0-5.5 2.2-6.3 5.9-.7 3.2.4 5.9 3.8 5.9 3.3 0 5.5-2.2 6.3-5.9.7-3.3-.5-5.9-3.8-5.9zm20.7.3h-3.9c-2 0-2.9.4-3.1 1.2-.5 2.6 6.6 4.7 5.9 8.8-.4 2.2-2.3 3.9-6.9 3.9h-5.6l.5-2.6h4.5c1.4 0 3.1.1 3.4-1.3.5-2.4-6.5-4.7-5.9-8.7.3-2.4 2.4-3.9 6.7-3.9h4.9l-.5 2.6zm15.7 0h-5.1l-3 13.9h-3.6l2.9-13.9h-5.1l.6-2.6h13.9l-.6 2.6zm.7 13.9l1.4-2.6h5.2l-1.4-10.6-7.3 13.2H132l9.4-16.5h4.3l2.6 16.5h-10.6zm23.7 0h-11.2l3.5-16.5h3.7l-2.9 13.9h7.5l-.6 2.6zm19.7-13.9h-3.9c-2 0-2.9.4-3.1 1.2-.5 2.6 6.6 4.7 5.9 8.8-.4 2.2-2.3 3.9-6.9 3.9h-5.6l.5-2.6h4.5c1.4 0 3.1.1 3.4-1.3.5-2.4-6.5-4.7-5.9-8.7.3-2.4 2.4-3.9 6.7-3.9h4.9l-.5 2.6zm15.1 0h-8.3l-.9 4.3h7.2l-.5 2.4h-7.2l-.9 4.5h8.3l-.6 2.6h-12l3.5-16.5h11.9l-.5 2.7zm10.5 6.8l2.7 7.1h-4l-3-9c.5.1 1 0 1.4 0 1.9 0 3.6-.8 4-2.7.2-1 0-2.2-2-2.2h-3.3l-3 13.9h-3.6l3.5-16.5h7.7c3.2 0 4.5 1.4 4.3 4.2-.3 3.1-2.3 4.8-4.7 5.2zm13.4 7.1h-4.3l-2.5-16.5h3.6l1.7 13.2 7.2-13.2h3.6L220.1 44zm11.7 0h-3.6l3.5-16.5h3.6L231.8 44zM250 30.4c-1-.3-2.2-.5-3.9-.5-3.3 0-6.1 2.2-6.9 5.9s1.1 5.9 4.4 5.9c1.7 0 3.1-.3 4.4-.6l-.9 2.8c-1.3.2-2.7.4-4.1.4-5.1 0-8.8-2.7-7.5-8.6 1.2-5.9 6.1-8.5 11.2-8.5 1.2 0 2.4.2 3.6.4l-.3 2.8zm14.7-.3h-8.3l-.9 4.3h7.3l-.5 2.4h-7.2l-.9 4.5h8.3l-.6 2.6h-12l3.5-16.5h11.9l-.6 2.7z" fill="#304c9c"/><path d="M266.3 22.6l.3-1.2H79.3l-.3 1.2h187.3z" fill="#cc262d"/></svg>