<?xml version="1.0" encoding="utf-8"?>
<!-- Generator: Adobe Illustrator 22.1.0, SVG Export Plug-In . SVG Version: 6.00 Build 0)  -->
<svg version="1.1" id="Layer_1" xmlns="http://www.w3.org/2000/svg" xmlns:xlink="http://www.w3.org/1999/xlink" x="0px" y="0px"
	 viewBox="0 0 24.4 24.4" style="enable-background:new 0 0 24.4 24.4;" xml:space="preserve">
<style type="text/css">
	.st0{fill:#464646;}
</style>
<g>
	<g>
		<g>
			<path class="st0" d="M22,5.5v13.4H2.8V5.5h16.5H22 M22,4.4H2.8c-0.6,0-1.1,0.5-1.1,1.1v13.4c0,0.6,0.5,1.1,1.1,1.1H22
				c0.6,0,1.1-0.5,1.1-1.1V5.5C23,4.9,22.6,4.4,22,4.4L22,4.4z"/>
		</g>
		<g>
			<path class="st0" d="M12.4,14.1c-0.7,0-1.4-0.3-2-0.8L2.4,6c-0.2-0.2-0.2-0.5,0-0.8C2.5,5,2.9,5,3.1,5.2l8,7.3
				c0.7,0.7,1.8,0.7,2.5,0l8-7.3c0.2-0.2,0.6-0.2,0.8,0c0.2,0.2,0.2,0.6,0,0.8l-8,7.3C13.8,13.8,13.1,14.1,12.4,14.1z"/>
		</g>
		<g>
			<path class="st0" d="M22,19.6c-0.1,0-0.3,0-0.4-0.1l-7.2-6.3c-0.2-0.2-0.2-0.5,0-0.8c0.2-0.2,0.5-0.2,0.8,0l7.2,6.3
				c0.2,0.2,0.2,0.5,0,0.8C22.3,19.6,22.2,19.6,22,19.6z"/>
		</g>
		<g>
			<path class="st0" d="M2.7,19.6c-0.1,0-0.3-0.1-0.4-0.2c-0.2-0.2-0.2-0.6,0-0.8l7.2-6.3c0.2-0.2,0.6-0.2,0.8,0s0.2,0.6,0,0.8
				l-7.2,6.3C3,19.6,2.8,19.6,2.7,19.6z"/>
		</g>
	</g>
</g>
</svg>
