<?xml version="1.0" encoding="utf-8"?>
<!-- Generator: Adobe Illustrator 22.1.0, SVG Export Plug-In . SVG Version: 6.00 Build 0)  -->
<svg version="1.1" id="Layer_1" xmlns="http://www.w3.org/2000/svg" xmlns:xlink="http://www.w3.org/1999/xlink" x="0px" y="0px"
	 viewBox="0 0 28.9 28.9" style="enable-background:new 0 0 28.9 28.9;" xml:space="preserve">
<style type="text/css">
	.st0{fill:#FFFFFF;}
</style>
<path class="st0" d="M14.5,28.9C6.5,28.9,0,22.5,0,14.5S6.5,0,14.5,0S29,6.5,29,14.5S22.5,28.9,14.5,28.9z M14.5,1C7,1,1,7,1,14.5
	S7,28,14.5,28S28,22,28,14.5S21.9,1,14.5,1z"/>
<g>
	<polygon class="st0" points="21.2,23.4 21.1,23.3 21.1,23.4 	"/>
	<path class="st0" d="M20.4,12.1V9.7c-0.1-1.4-1.2-2.5-2.6-2.5H8.5C7.1,7.2,6,8.3,6,9.7V15c0,1.3,1,2.3,2.2,2.5v3.6l3.2-3.2v0
		c0,1.3,1.1,2.5,2.5,2.5h4.3l2.9,2.9v-3c1-0.4,1.7-1.3,1.7-2.4v-3.3C22.8,13.2,21.8,12.2,20.4,12.1z M11.3,16.5l-2.2,2.2v-2.2H8.5
		C7.7,16.5,7,15.8,7,15V9.7c0-0.8,0.7-1.5,1.6-1.5h9.1c0.9,0,1.6,0.6,1.6,1.5v2.4v1V15c0,0.8-0.6,1.5-1.5,1.5h-5.4h-1H11.3z
		 M21.9,17.9c0,0.8-0.6,1.4-1.3,1.5l-0.4,0.1V21l-1.6-1.6h-4.7c-0.8,0-1.5-0.7-1.5-1.5v-0.4h5.5c1.4,0,2.5-1.1,2.5-2.5v-1.9
		c0.8,0,1.5,0.6,1.5,1.5V17.9z"/>
</g>
</svg>
