<svg xmlns="http://www.w3.org/2000/svg" xmlns:xlink="http://www.w3.org/1999/xlink" xmlns:a="http://ns.adobe.com/AdobeSVGViewerExtensions/3.0/" x="0px" y="0px" width="2491px" height="1384px" viewBox="0 0.003 2491 1384" xml:space="preserve">
<defs>
</defs>
<g>
	<defs>
		<rect id="SVGID_1_" y="0.003" width="2490.67" height="1384.45"></rect>
	</defs>
	<clipPath id="SVGID_7_">
		<use xlink:href="#SVGID_1_"></use>
	</clipPath>
	<g clip-path="url(#SVGID_7_)">
		<defs>
			<rect id="SVGID_2_" width="2490.671" height="1384.453"></rect>
		</defs>
		<clipPath id="SVGID_8_">
			<use xlink:href="#SVGID_2_"></use>
		</clipPath>
		<path clip-path="url(#SVGID_8_)" fill="#EBF3FA" d="M2337.934,1382.258c0,0,306.008-328.555,51.75-684.262    c-225.594-315.608-488.613-294.034-681.587-165.959c-82.189,54.55-319.152,6.724-520.837-314.419    C912.215-220.333-41.185,45.285,132.649,719.085c84.124,326.07-256.021,337.923-82.704,663.863L2337.934,1382.258z"></path>
		<path clip-path="url(#SVGID_8_)" fill="#B5CFE2" d="M1654.902,105.043h-55.652L1598.926,0l-118.942,0.368v0.045l-35.688,0.137    v0.001l-0.245,0.001l0.082,33.54l0.246,0.185l0.175,70.766H965.406V1381.58h689.496v0.449h93.711V105.043H1654.902z     M981.024,1042.891l0.006,2.325h-0.006V1042.891z M1639.283,1203.381l-181.938,0.562l0.001,0.07l-55.075,0.212v0.001l-0.379,0.001    l0.129,51.761l0.38,0.284l0.268,108.946H981.024v-285.161h658.259V1203.381z M1127.985,1045.074l0.645,0.142h-0.645V1045.074z     M1639.283,1045.216h-64.305l-0.502-265.577l-183.559,0.566v0.07l-55.075,0.212v0.001l-0.379,0.002l0.128,51.76l0.33,0.248    l0.324,212.593h55.171l0.001,0.125h-169.684h-2.025l-0.447-163.646l-183.559,0.566v0.07l-54.679,0.211V760.055h658.259V1045.216z     M1639.283,725.213h-187.541l-0.504-163.646l-183.561,0.566v0.07l-55.074,0.213v0.001l-0.379,0.001l0.127,51.76l0.38,0.287    l0.273,110.748H981.024v-285.16h658.259V725.213z M1639.283,405.211H981.025V120.05h658.258V405.211z"></path>
		
			<rect x="866.921" y="1127.791" transform="matrix(1 0.0031 -0.0031 1 3.873 -3.1075)" clip-path="url(#SVGID_8_)" fill="#D3671E" width="285.669" height="253.358"></rect>
		<polygon clip-path="url(#SVGID_8_)" fill="#F1A34F" points="1238.691,1128.672 1009.991,1127.792 1009.365,1381.15     1238.066,1382.029   "></polygon>
		<g opacity="0.4" clip-path="url(#SVGID_8_)">
			<g>
				<defs>
					<rect id="SVGID_6_" x="1008.74" y="1127.75" width="229.92" height="253.357"></rect>
				</defs>
				<clipPath id="SVGID_9_">
					<use xlink:href="#SVGID_6_"></use>
				</clipPath>
				<polygon clip-path="url(#SVGID_9_)" fill="#D86713" points="1009.366,1127.75 1238.656,1128.634 1238.458,1209.188       1008.741,1381.107     "></polygon>
			</g>
		</g>
		
			<rect x="692.651" y="1218.496" transform="matrix(1 0.0031 -0.0031 1 4.0148 -2.4143)" clip-path="url(#SVGID_8_)" fill="#D3671E" width="183.56" height="162.798"></rect>
		<polygon clip-path="url(#SVGID_8_)" fill="#F1A34F" points="931.537,1219.062 784.583,1218.496 784.181,1381.293     931.135,1381.859   "></polygon>
		<g opacity="0.4" clip-path="url(#SVGID_8_)">
			<g>
				<defs>
					<rect id="SVGID_5_" x="784.181" y="1218.496" width="147.734" height="162.797"></rect>
				</defs>
				<clipPath id="SVGID_10_">
					<use xlink:href="#SVGID_5_"></use>
				</clipPath>
				<polygon clip-path="url(#SVGID_10_)" fill="#D86713" points="784.583,1218.496 931.916,1219.064 931.788,1270.824       784.181,1381.293     "></polygon>
			</g>
		</g>
		<path clip-path="url(#SVGID_8_)" fill="#233862" d="M1464.447,1294.952c-0.702-8.457-2.509-16.51-5.214-23.965    c-0.515-1.419-1.063-2.815-1.643-4.189c-0.425-1.006-0.867-1.997-1.326-2.978c-0.52-1.111-1.061-2.206-1.623-3.283    c-0.617-1.18-1.257-2.339-1.923-3.476c-3.265-5.579-7.096-10.631-11.412-14.992c-0.014-0.016-0.031-0.029-0.047-0.045    c-1.523-1.537-3.108-2.987-4.744-4.351c-1.273-1.063-2.589-2.056-3.925-3.006c-1.917-1.362-3.896-2.605-5.93-3.725    c-0.76-0.416-1.523-0.817-2.296-1.199c-6.472-3.193-13.454-5.158-20.768-5.611c-1.099-0.068-2.206-0.104-3.319-0.104h-30    c-35.622,0-64.5,35.37-64.5,79c0,43.631,28.878,79,64.5,79h30c1.113,0,2.221-0.034,3.319-0.103    c7.313-0.454,14.296-2.419,20.768-5.612c0.772-0.383,1.536-0.782,2.296-1.199c2.034-1.119,4.013-2.362,5.93-3.724    c1.336-0.95,2.651-1.944,3.925-3.006c1.636-1.364,3.221-2.813,4.744-4.352c0.016-0.015,0.033-0.029,0.047-0.044    c4.316-4.363,8.147-9.413,11.412-14.993c0.666-1.136,1.306-2.295,1.923-3.476c0.563-1.077,1.104-2.171,1.623-3.283    c0.459-0.979,0.901-1.972,1.326-2.977c0.58-1.375,1.128-2.771,1.643-4.19c2.705-7.454,4.512-15.507,5.214-23.965    c0.22-2.655,0.331-5.351,0.331-8.077S1464.667,1297.608,1464.447,1294.952"></path>
		<path clip-path="url(#SVGID_8_)" fill="#FFA412" d="M831.374,560.539H816.25c1.074-3.077-0.019-6.315-2.573-7.354    c-2.654-1.079-5.854,0.623-7.149,3.805c-0.485,1.191-0.633,2.42-0.49,3.549h-14.785c-0.522,0-1.018,0.227-1.36,0.622l-4.889,5.654    c-1.008,1.164-0.18,2.974,1.36,2.974h40.12c0.522,0,1.018-0.227,1.36-0.622l4.889-5.653    C833.742,562.349,832.914,560.539,831.374,560.539 M812.913,559.587c-0.425,1.045-1.478,1.605-2.35,1.25    c-0.872-0.354-1.234-1.49-0.809-2.536c0.426-1.045,1.478-1.605,2.35-1.25S813.338,558.542,812.913,559.587"></path>
		<path clip-path="url(#SVGID_8_)" fill="#2C3A64" d="M544.494,150.701l-48.695,38.161c-2.284,3.564,2.612,3.763,0.472,8.154    c-19.784,40.615-6.513,84.042,10.237,79.658c10.743-2.813,13.782,15.518,13.782,15.518l104.368-84.494    C624.658,207.698,586.324,128.377,544.494,150.701"></path>
		<path clip-path="url(#SVGID_8_)" fill="#0B69A2" d="M580.832,1347.234l-22.169,8.255c0,0-96.289-133.548-108.144-251.048    c-2.117-20.977-1.412-41.302,3.167-60.07c0,0-0.94-5.375-2.587-14.877c-0.762-4.435-1.702-9.773-2.769-15.892    c-3.132-17.936-7.44-42.478-12.363-70.424c-11.33-64.306-26.009-146.511-37.41-206.943l5.973-1.92l64.632-20.85l13.356-42.423    l48.126-12.67c0,0,10.751,21.031,20.361,120.377c1.774,13.03,3.385,27.402,4.598,42.985c3.747,47.563,4.017,106.567-4.58,174.022    c-2.209,17.267-4.995,35.094-8.452,53.41c-2.534,13.429-2.914,31.728-1.846,52.74    C545.575,1197.959,580.832,1347.234,580.832,1347.234"></path>
		<path clip-path="url(#SVGID_8_)" fill="#09587F" d="M555.602,821.735l-104.504,207.759c-0.761-4.435-1.701-9.773-2.768-15.892    c-3.132-17.936-7.44-42.478-12.364-70.424c-11.33-64.306-26.009-146.511-37.41-206.943l5.973-1.92l64.632-20.85l13.357-42.423    l48.126-12.67c0,0,10.75,21.031,20.36,120.377C552.779,791.78,554.39,806.152,555.602,821.735"></path>
		<path clip-path="url(#SVGID_8_)" fill="#0B69A2" d="M509.628,685.035l-2.419-20.746c-40.531,10.765-148.823-30.083-148.823-30.083    s-39.264,34.516-34.109,117.25c2.516,40.381,7.113,211.974,11.913,262.751c1.734,18.403,3.254,31.499,3.875,36.73    c0.012,0.025,0.012,0.037,0.012,0.051c0.191,1.596-0.366,3.104-1.178,4.496c-7.066,11.995-12.918,24.483-17.718,37.263    c-47.117,125.557,7.257,280.18,7.257,280.18l14.109-5.687c0,0,30.942-172.079,56.084-248.098    c4.268-12.894,8.36-23.025,12.11-29.082c10.929-17.642,21.075-46.469,30.283-80.757c17.403-64.822,31.41-149.148,40.732-214.238    C483.043,795.124,509.628,685.035,509.628,685.035"></path>
		<path clip-path="url(#SVGID_8_)" fill="#ED985F" d="M828.938,658.532c-8.723,7.717-31.876-18.79-35.064-22.312    c-0.167-0.336-0.335-0.504-0.335-0.504l7.047-19.63c0,0,30.366-1.173,35.397,3.858C841.018,624.979,838.5,650.313,828.938,658.532    "></path>
		<path clip-path="url(#SVGID_8_)" fill="#ED985F" d="M800.585,616.086l-3.021,20.302c0,0-1.341,0-3.691-0.168    c-7.381-0.504-25.332-1.51-45.632-3.693c-30.533-3.019-66.772-8.389-81.2-17.279c-21.977-13.419-58.047-54.523-81.534-95.627    c-0.672-1.007-1.174-2.012-1.678-3.018c-12.247-21.812-20.804-43.454-21.473-60.733c-0.504-10.57,0.669-19.63,2.851-27.514    c2.851-10.401,7.549-18.622,12.415-24.83c0.671-1.007,1.342-2.012,2.349-2.852c8.052-9.562,15.938-13.589,15.938-13.589    c4.026-1.679,8.388,0.336,12.917,5.201v0.168c3.691,3.859,7.717,9.729,11.575,17.112c0.168,0.168,0.336,0.336,0.336,0.504    c0.84,1.509,1.679,3.186,2.686,5.032c0.334,0.335,0.502,0.839,0.67,1.175c1.846,3.858,3.69,7.884,5.537,12.079    c20.635,44.96,42.613,113.074,60.899,133.374c7.885,8.724,43.956,25.836,72.642,38.587    C783.809,609.378,800.585,616.086,800.585,616.086"></path>
		<path clip-path="url(#SVGID_8_)" fill="#FFB27D" d="M587.058,433.401c-12.724,5.901-28.09,9.919-46.678,10.933    c-69.681,3.818-85.5-57.266-88.378-97.808c10.045-3.637,18.842-3.294,23.91-3.023c4.94,0.273,10.099,0.779,14.352,1.303    c8.525-4.452,23.836-26.08,32.687-62.26l3.004,1.394l50.279,23.637c0,0-5.338,16.361-9.283,32.017    c-3.078,12.252-5.287,24.09-3.44,27.402c3.964,1.611,6.335,2.624,6.335,2.624s0,0.018,0.017,0.055    C570.371,370.959,581.302,398.814,587.058,433.401"></path>
		<path clip-path="url(#SVGID_8_)" fill="#739AF0" d="M604.488,479.119c-0.525,1.394-1.105,2.751-1.738,4.146    c-17.646,38.008-50.316,195.451-50.316,195.451c4.652,28.306-212.736-5.556-213.298-31.329    c-7.655-27.331,27.168-71.238,46.806-93.266c2.46-2.767,4.67-5.735,6.588-8.867c4.85-7.854,7.927-16.725,8.904-25.991    c3.856-36.536,2.388-70.777,2.714-91.596v-0.004c3.838-2.84,7.549-5.465,11.006-7.963c5.284-3.855,9.954-7.456,13.393-11.112    c3.783-3.982,6.153-8.054,6.424-12.651c0.2-3.475,0.091-7.042-0.271-10.607c-0.163-1.683-0.379-3.366-0.633-5.049    c-2.716-17.683-10.1-33.719-10.1-33.719c18.697-7.565,51.945-3.059,51.945-3.059s-0.036,1.846-0.054,4.868    c-0.109,12.145,0,43.33,3.89,49.23c4.869,7.349,93.934,39.547,98.641,29.574c4.633-9.809-8.054-55.764-8.526-57.5    c-0.017-0.037-0.017-0.055-0.017-0.055c29.826,11.711,40.487,21.538,40.487,21.538    C592.361,402.813,618.387,442.252,604.488,479.119"></path>
		<path clip-path="url(#SVGID_8_)" fill="#ED985F" d="M576.235,307.586c0,0-5.345,16.347-9.283,32.017    c-29.389-8.199-38.314-39.092-41-55.653L576.235,307.586z"></path>
		<path clip-path="url(#SVGID_8_)" fill="#FFB27D" d="M582.425,324.895c0,0-70.313-16.271-59.505-59.904    c10.807-43.63,9.011-75.117,54.36-66.571c45.351,8.544,49.916,27.346,49.85,42.787S600.993,328.002,582.425,324.895"></path>
		<path clip-path="url(#SVGID_8_)" fill="#2C3A64" d="M631.084,216.435c-7.559-15.814-16.455-14.97-22.021-12.167    c-33.037-30.567-83.112-15.205-83.112-15.205c-12.473,30.132-21.836,52.054-21.836,52.054s10.801,11.061,42.109,10.817    c9.562-0.075,19.177-4.465,27.926-10.516c-16.875,16.997-36.661,27.345-36.661,27.345c39.189-7.5,65.469-52.871,68.161-57.69    c3.319,4.903,9.669,15.34,10.205,24.152c0.726,11.976-3.394,35.233,3.464,36.115C619.319,271.34,642.42,240.151,631.084,216.435"></path>
		<path clip-path="url(#SVGID_8_)" fill="#739AF0" d="M610.34,391.151c0,0,16.93,29.532,19.462,37.133    c0,0-21.953-0.845-30.818,16.042C598.984,444.326,596.858,395.131,610.34,391.151"></path>
		<path clip-path="url(#SVGID_8_)" fill="#4A75CB" d="M493.902,625.813c-42.876-0.454-79.184-44.976-101.372-80.559    c4.85-7.855,7.927-16.725,8.904-25.991c3.856-36.535,2.388-70.777,2.714-91.596v-0.004c3.838-2.84,7.549-5.465,11.005-7.963    c5.285-3.855,9.955-7.456,13.394-11.112C463.658,467.934,552.036,626.427,493.902,625.813"></path>
		<path clip-path="url(#SVGID_8_)" fill="#233862" d="M410.472,1384.453H298.816c0,0-2.677-17.018,3.155-29.929    c5.589-12.388,14.342-18.018,12.247-33.006c7.094,7.305,18.658,15.484,34.799,13.313c1.979,3.207,12.767,20.366,19.374,25.113    C375.688,1365.188,408.225,1363.319,410.472,1384.453"></path>
		<path clip-path="url(#SVGID_8_)" fill="#233862" d="M650.209,1384.453H538.555c0,0-4.174-17.81,3.156-29.929    c6.489-10.722,4.001-16.83-0.805-25.699c5.059,2.069,11.603,3.953,18.807,3.542c5.562-0.321,11.446-2.846,16.604-5.843    c4.806,5.479,25.384,28.801,31.813,33.421C615.426,1365.188,647.962,1363.319,650.209,1384.453"></path>
		<polygon clip-path="url(#SVGID_8_)" fill="#233862" points="754.021,564.664 645.378,705.986 646.99,707.96 757.175,566.367   "></polygon>
		<polygon clip-path="url(#SVGID_8_)" fill="#2B478B" points="756.964,566.637 867.217,566.637 751.804,707.96 646.989,707.96   "></polygon>
		<path clip-path="url(#SVGID_8_)" fill="#FFB27D" d="M734.286,652.399c-0.306-5.624-7.723-5.366-13.355-5.393    c-9.241-0.044-23.817-0.675-32.248-3.907c0,0,26.925-0.384,21.203-8.893c-1.042-1.549-14.426-0.376-29.369-0.376    c-6.127,0-21.273,8.397-20.491,8.787c-10.826-1.431-20.671-3.529-23.853-4.217c-7.383-4.026-16.274-8.892-25.668-14.262    c-22.649-12.748-48.653-28.351-66.436-41.27c-10.234-7.381-17.952-13.924-20.635-18.622c-4.194-7.214-8.893-18.622-14.093-32.713    c-2.684-7.383-5.536-15.435-8.388-23.991c-5.034-14.093-10.066-29.36-15.268-44.625c-9.394-27.851-19.461-55.869-29.023-77.511    c-6.206-13.589-12.247-24.829-17.951-31.707c-4.53-5.537-8.892-8.388-13.086-7.716c-0.671,0.166-1.175,0.333-1.678,0.502    c0,0-24.158,6.71-24.494,55.361c-0.168,2.688,0,5.538,0.168,8.557c0.336,8.557,2.014,18.96,4.53,30.366    c4.026,19.127,10.737,41.271,19.125,63.755c2.349,6.037,4.697,12.246,7.215,18.452c18.118,44.963,41.438,86.905,61.066,101.162    c0.84,0.672,1.51,1.176,2.349,1.679c8.22,5.203,20.3,10.402,34.224,15.267c19.797,6.713,43.284,12.75,64.256,17.784h0.168    c12.246,2.683,23.487,5.202,32.881,7.047c0,0,1.542,0.383,4.287,0.929c0.394,0.078,0.809,0.16,1.25,0.244    c8.892,2.181,27.177,6.879,44.459,13.589c24.159,9.562,41.93-2.326,49.993-10.736    C730.536,664.608,734.566,657.532,734.286,652.399"></path>
		<path clip-path="url(#SVGID_8_)" fill="#739AF0" d="M456.603,385.477c-32.297-8.904-57.211,16.314-57.211,16.314    c0.405-48.573,24.584-55.224,24.584-55.224C433.704,342.539,454.271,353.414,456.603,385.477"></path>
		<path clip-path="url(#SVGID_8_)" fill="#FFA412" d="M588.591,126.271c-16-3.661-29.542-3.388-40.98-0.58    c-1.132,0.276-2.254,0.581-3.352,0.913l-0.015,0.005c-43.681,13.062-54.68,63.663-54.68,63.663s-1.828,13.269-1.365,19.015    c0.465,5.747,42.075,20.584,48.38,13.198c6.304-7.385,18.502-12.193,18.502-12.193s42.591,18.132,45.461,19.342    c9.64,4.061,40.874,8.345,40.874,8.345C642.44,235.22,669.672,144.833,588.591,126.271"></path>
		<path clip-path="url(#SVGID_8_)" fill="#E27F2B" d="M670.248,241.652c-4.323-3.722-12.056-9.353-25.667-16.926    c0,0-16.562,3.715-43.461-0.726c-3.899-19.254-18.067-68.086-53.509-98.309c-0.106-0.092-0.201-0.179-0.307-0.271    c-1.409,0.643-2.078,0.76-3.044,1.184l-0.016,0.005c-0.289,0.118-0.61,0.273-0.981,0.479    c29.943,22.462,42.378,75.276,46.06,94.552c-10.35-2.423-21.842-6.026-34.242-11.348c0,0,31.71,33.769,112.926,37.41    C671.181,247.844,672.656,243.725,670.248,241.652"></path>
		<polygon clip-path="url(#SVGID_8_)" fill="#233862" points="754.021,564.664 864.896,564.664 867.217,566.638 756.964,566.638       "></polygon>
		<path clip-path="url(#SVGID_8_)" fill="#2B478B" d="M1589.773,1231.029h-199.654c-3.939,0-7.13-3.357-7.13-7.5s3.19-7.5,7.13-7.5    h199.654c3.938,0,7.132,3.357,7.132,7.5S1593.712,1231.029,1589.773,1231.029"></path>
		<path clip-path="url(#SVGID_8_)" fill="#2B478B" d="M1591.758,1000.029h-203.623c-4.017,0-7.271-3.357-7.271-7.5    s3.255-7.5,7.271-7.5h203.623c4.017,0,7.271,3.357,7.271,7.5S1595.774,1000.029,1591.758,1000.029"></path>
		<path clip-path="url(#SVGID_8_)" fill="#0B69A2" d="M1717.875,655.88c12.082,2.792,66.668,3.455,105.002-5.159    c7.989-1.789,15.291-3.983,21.33-6.652c7.222-3.183,12.665-7.03,15.441-11.662c4.335-7.219,12.259-31.925,21.579-64.324    c25.668-89.248,61.791-236.725,61.791-236.725s-72.534,14.804-87.879,27.442c-15.361,12.637-28.906,213.101-43.345,218.52    c-2.125,0.799-5.798,2.479-10.496,4.795c-0.231,0.108-0.461,0.231-0.692,0.339c-2.803,1.381-5.96,2.98-9.373,4.74    c-29.946,15.387-79.508,43.113-84.641,49.276C1699.819,644.597,1700.268,651.818,1717.875,655.88"></path>
		<path clip-path="url(#SVGID_8_)" fill="#0B69A2" d="M1857.049,445.488c0-3.413,0.34-6.828,0.963-10.254    c9.332-51.322,83.544-103.876,85.007-103.876l0.013,1.07c0,7.842,12.367,22.322,31.412,23.567    c22.592,1.479,50.478-11.41,50.478-24.426c0.137,0,12.694,1.699,16.947,2.173c18.111,2.058,54.248,11.838,69.731,23.54    c14.722,11.121-6.082,81.244-18.965,130.899c-5.457,21.008-9.48,38.345-8.816,46.026c0.326,3.751,3.697,54.721,6.705,100.827    c2.492,38.036,4.74,72.751,4.808,74.933c0.162,4.319-21.319,19.449-57.389,30.882c-8.71,2.764-18.287,5.309-28.609,7.423    c-18.514,3.806-39.455,6.258-62.237,6.176c-7.449-0.027-14.507-0.405-21.17-1.07    C1874.4,748.324,1856.751,689.608,1857.049,445.488"></path>
		<path clip-path="url(#SVGID_8_)" fill="#D9935C" d="M2024.902,330.965c0.437-19.934,0.106-43.734-2.587-63.841l-79.561,13.002    c0,0-0.085,24.29,0.263,51.233c-0.047,0.006-2.163,24.988,28.619,28.647C2002.418,363.662,2025.732,350.253,2024.902,330.965"></path>
		<path clip-path="url(#SVGID_8_)" fill="#233862" d="M1958.342,1384.453c10.004-6.157,4.127-51.786,4.127-51.786    s-46.856-37.197-53.173-8.56c-6.315,28.639-44.225,41.628-65.817,45.213c-14.906,2.476-20.407,10.185-21.82,15.076    L1958.342,1384.453z"></path>
		<path clip-path="url(#SVGID_8_)" fill="#09587F" d="M2031.225,599.9c0,76.298,36.977,55.737,59.299,35.135    c-3.009-46.106-5.119-209.417-5.119-209.417S2031.225,490.633,2031.225,599.9"></path>
		<path clip-path="url(#SVGID_8_)" fill="#09587F" d="M1791.234,587.194c1.477,10.701,18.381,41.854,31.643,63.527    c7.99-1.789,15.291-3.983,21.331-6.652c7.22-3.183,12.665-7.03,15.44-11.662c4.336-7.219,12.26-31.925,21.578-64.324    c-6.895-39.877-13.449-79.252-13.449-79.252l-2.032-26.412c0,2.031-30.923,118.071-44.929,120.78    c-8.438,1.639-14.426-0.353-19.519-1.084c-0.229,0.108-0.46,0.231-0.691,0.339    C1797.803,583.835,1794.646,585.435,1791.234,587.194"></path>
		<path clip-path="url(#SVGID_8_)" fill="#233862" d="M2101.918,1384.453c10.004-6.157,4.127-51.786,4.127-51.786    s-46.856-37.197-53.173-8.56c-6.315,28.639-44.225,41.628-65.817,45.213c-14.906,2.476-20.323,10.185-21.735,15.076    L2101.918,1384.453z"></path>
		<path clip-path="url(#SVGID_8_)" fill="#233862" d="M2032.48,244.179c0,0,53.112-83.741-48.873-89.283    c0,0-38.252,4.503-46.912-4.157c0,0-29.67,45.095-1.961,93.44C1962.443,292.525,2032.48,244.179,2032.48,244.179"></path>
		<path clip-path="url(#SVGID_8_)" fill="#D9935C" d="M1945.115,287.878c7.731,6.083,30.398,12.124,36.951,12.83    c0,0,33.613-7.495,39.725-11.181c9.463-5.736,8.853-17.347,9.338-33.488c0.582-19.106,2.508-34.112,0.374-45.126    c-2.534-13.177-10.89-20.673-34.279-22.709c-42.935-3.727-60.823,7.024-61.571,21.42c-0.193,3.865-0.374,7.55-0.499,11.042    C1933.436,265.559,1936.981,281.478,1945.115,287.878"></path>
		<path clip-path="url(#SVGID_8_)" fill="#233862" d="M1934.766,235.381c0.414,26.006,7.43,41.401,12.513,43.345    c5.848,2.239,12.734,4.093,19.915,5.322c2.418,0.284,4.734,0.204,4.708-1.168c-0.079-4.102-5.561-9.159-1.487-12.791    c4.273-3.81,27.203-5.094,29.05,3.22c0.903,4.053-6.492,11.21-1.427,11.374c1.539-0.261,3.047-0.558,4.488-0.934    c8.35-2.177,14.903-6.128,17.666-7.793c9.462-5.736,8.842-14.532,10.937-30.544c1.356-10.357,1.356-4.744,0,10.627    c-1.419,16.086,1.356,26.411-9.34,33.488c-5.949,3.938-40.219,19.335-40.219,19.335c0.499-8.154-28.725-14.901-36.453-20.984    C1937.938,282.239,1934.335,269.188,1934.766,235.381"></path>
		<path clip-path="url(#SVGID_8_)" fill="#6ED69A" d="M2095.326,709.963c0.162,4.321-21.319,19.451-57.391,30.883    c-2.904,0.93-5.915,1.816-9.006,2.678c-0.042,0.011-0.071,0.045-0.075,0.088c-3.364,39.479-12.474,95.25-20.689,149.073v0.014    c-2.128,13.952-4.187,27.768-6.082,41.137c-5.013,35.38-8.764,67.615-9.169,90.818v0.243c-0.179,10.646,8.803,37.209,9.479,43.344    c0.419,3.752,0.759,7.721,1.002,11.879c0.978,16.62,0.583,36.26-0.758,57.228c-5.892,91.509-30.07,208.593-38.697,213.576    c-17.147,9.915-48.354-0.014-64.217-2.329c-6.569-0.976-11.824-6.568-11.486-13.193c7.747-151.865-14.507-363.369-31.14-493.388    c-0.434-3.387-0.867-6.705-1.287-9.969c-1.991-15.333-3.305-29.65-4.131-42.559c-0.758-11.323-1.125-21.604-1.287-30.516    c-0.04-2.776-0.068-5.433-0.081-7.938c-0.04-8.141,6.435-61.426,6.732-305.546c0.006-5.64,4.625-10.254,10.263-10.254h149.288    c14.426,0,26.033,11.805,25.852,26.231c-0.231,18.622,0.441,44.624,4.483,69.437c5.509,33.897,17.31,65.562,41.663,73.184    c0.026,0.007,0.046,0.023,0.059,0.048c0.11,0.247,0.776,1.73,1.845,4.199c0.006,0.012,0.009,0.026,0.009,0.038    c0.229,6.13,0.486,12.367,0.771,18.727c0.055,1.274,0.109,2.56,0.178,3.847c0.025,0.759,0.067,1.503,0.106,2.262    c0.055,1.287,0.123,2.586,0.19,3.888c0.096,2.139,0.203,4.293,0.326,6.474c0.094,1.706,0.188,3.414,0.282,5.134    c0.179,3.305,0.381,6.65,0.597,10.022c0.055,1.084,0.123,2.154,0.203,3.251c0.284,4.362,0.582,8.791,0.922,13.247    c0.095,1.369,0.202,2.736,0.312,4.117c0.039,0.665,0.094,1.328,0.149,1.992c0.135,1.748,0.27,3.494,0.42,5.256    c0.147,1.855,0.311,3.724,0.473,5.607C2096.03,699.046,2095.148,705.155,2095.326,709.963"></path>
		<path clip-path="url(#SVGID_8_)" fill="#38A865" d="M2002.639,1137.347c-5.894,91.509-30.07,208.593-38.697,213.576    c-17.149,9.915-48.356-0.014-64.217-2.329c-6.569-0.976-11.824-6.569-11.486-13.193c7.747-151.865-14.507-363.369-31.141-493.388    c-0.435-3.387-0.866-6.705-1.286-9.969c-1.991-15.333-3.307-29.65-4.132-42.559c7.909-51.551,52.555-54.314,93.04,52.325    C1939.708,877.188,2003.979,1116.379,2002.639,1137.347"></path>
		<path clip-path="url(#SVGID_8_)" fill="#6ED69A" d="M2097,1020.348c1.227,10.579,13.607,35.734,15.094,41.724    c20.468,82.313,9.16,277.485-0.987,285.288c-15.699,12.079-47.945,6.339-63.967,6.123c-6.642-0.094-12.582-4.959-13.117-11.563    c-12.586-155.506-64.734-369.094-98.271-494.736c-16.888-63.288-19.279-109.823-19.279-109.823s156.74-96.032,173.689-43.57    C2105.164,740.211,2087.547,939.122,2097,1020.348"></path>
		<path clip-path="url(#SVGID_8_)" fill="#FFA412" d="M1937.359,131.478c1.081-1.216,2.229-2.393,3.438-3.537    c5.113-4.857,11.271-9.048,18.674-12.137c27.326-11.4,49.994-0.879,64.157,9.898c1.396,1.053,2.709,2.116,3.929,3.169    c7.7,6.544,12,12.382,12,12.382s13.274,18.107,12.83,56.275l-136.716,1.462C1915.672,198.99,1913.666,157.766,1937.359,131.478"></path>
		<path clip-path="url(#SVGID_8_)" fill="#E27F2B" d="M2014.023,197.924l-7.512,0.084c-0.156-2.177,0.214-51.796,18.72-71.059    c1.396,1.053,1.105,0.869,2.326,1.922C2009.984,145.834,2013.988,197.412,2014.023,197.924"></path>
		<path clip-path="url(#SVGID_8_)" fill="#E27F2B" d="M1954.613,198.574c-1.563-30.378-13.195-62.301-16.337-67.976    c1.081-1.25,1.312-1.481,2.522-2.657c2.176,3.751,20.009,36.809,21.894,70.547l89.695-0.959c0,0-45.451,10.193-72.877,10.534    c-27.425,0.341-63.838-9.072-63.838-9.072L1954.613,198.574z"></path>
		<path clip-path="url(#SVGID_8_)" fill="#38A865" d="M2047.238,334.468c0,0-46.194,53.813-48.903,100.769l23.534,1.249    c0,0,5.928-52.296,40.691-98.801c0,0-5.438-1.318-7.247-1.676C2052.892,335.53,2047.238,334.468,2047.238,334.468"></path>
		<path clip-path="url(#SVGID_8_)" fill="#38A865" d="M1932.068,333.729c-33.091,50.075-36.64,102.523-36.64,102.523l-23.754-0.409    c1.952-36.909,25.14-77.509,37.941-96.743C1909.616,339.101,1926.053,334.949,1932.068,333.729"></path>
		<path clip-path="url(#SVGID_8_)" fill="#0B69A2" d="M2084.211,623.346c-1.166,55.101,5.702,164.828,5.702,164.828h32.509    c15.347-77.206,20.765-126.875,20.765-153.964c0-5.337-0.029-10.309-0.07-14.9c-0.202-23.134-0.825-36.571-0.825-36.571    c6.096-140.176-21.901-215.134-30.691-225.456c-8.805-10.321-49.034-19.599-49.034-19.599s-13.287,38.725-18.705,69.878    c-5.418,31.154,42.613,162.052,40.635,206.791C2084.372,617.143,2084.279,620.15,2084.211,623.346"></path>
		<path clip-path="url(#SVGID_8_)" fill="#D9935C" d="M2089.914,788.174c0,0-6.869-109.728-5.703-164.828    c25.993-8.384,46.961-6.543,58.905-4.036c0.041,4.591,0.069,9.563,0.069,14.9c0,27.089-5.418,76.758-20.764,153.964    c6.771,28.444,6.319,59.146-5.418,64.564c-11.738,5.418-50.568-14.899-50.117-23.93    C2067.34,819.779,2089.914,788.174,2089.914,788.174"></path>
		<path clip-path="url(#SVGID_8_)" fill="#D9935C" d="M1645.131,661.303c3.168-11.62,5.521-18.059,13.521-23.704    c11.624-8.2,25.424-5.981,35.708-4.175c7.863,1.38,16.096-1.258,19.546-2.58c18.214-12.139,63.937-37.169,86.702-48.39    c15.536,9.008,34.621,26.832,43.6,61.615c-35.04,15.456-111.729,15.185-126.332,11.811c0,0-13.517,9.825-23.802,10.728    c-3.895,0.342-8.803-0.79-13.394-2.328c-7.227-2.419-14.982-0.01-20.177,6.413c-4.997,6.179-10.35,6.17-13.058,6.17    C1643.258,676.863,1643.137,668.619,1645.131,661.303"></path>
		<path clip-path="url(#SVGID_8_)" fill="#2B478B" d="M1602.447,1356.363h-242.169c-4.143,0-13.415-3.357-13.415-7.5    s31.147-7.5,35.29-7.5h205.294V706.376c0-25.924,21.089-47.014,47.014-47.014h52.486c4.143,0,7.5,3.357,7.5,7.5    c0,4.142-3.357,7.5-7.5,7.5h-52.486c-17.653,0-32.014,14.361-32.014,32.014V1356.363z"></path>
		<path clip-path="url(#SVGID_8_)" fill="#2B478B" d="M1392.447,1356.363h-175.667c-4.142,0-7.5-3.357-7.5-7.5s3.358-7.5,7.5-7.5    h160.667V706.376c0-25.924,21.089-47.014,47.014-47.014h52.486c4.143,0,7.5,3.357,7.5,7.5c0,4.142-3.357,7.5-7.5,7.5h-52.486    c-17.654,0-32.014,14.361-32.014,32.014V1356.363z"></path>
		<path clip-path="url(#SVGID_8_)" fill="#2B478B" d="M1590.123,770.029H1389.77c-3.954,0-7.156-3.357-7.156-7.5    s3.202-7.5,7.156-7.5h200.354c3.952,0,7.155,3.357,7.155,7.5S1594.075,770.029,1590.123,770.029"></path>
		<path clip-path="url(#SVGID_8_)" fill="#963333" d="M1699.279,679.362h-64.818c-6.905,0-12.5-5.597-12.5-12.5    s5.595-12.5,12.5-12.5h64.818c6.902,0,12.5,5.597,12.5,12.5S1706.182,679.362,1699.279,679.362"></path>
		<path clip-path="url(#SVGID_8_)" fill="#2B478B" d="M1634.461,659.362c-23.6,0-43.186,17.478-46.512,40.167h15.241    c3.146-14.372,15.967-25.167,31.271-25.167c4.142,0,7.5-3.358,7.5-7.5C1641.961,662.719,1638.603,659.362,1634.461,659.362"></path>
		<path clip-path="url(#SVGID_8_)" fill="#963333" d="M1489.279,679.362h-64.818c-6.905,0-12.5-5.597-12.5-12.5    s5.595-12.5,12.5-12.5h64.818c6.902,0,12.5,5.597,12.5,12.5S1496.182,679.362,1489.279,679.362"></path>
		<path clip-path="url(#SVGID_8_)" fill="#2B478B" d="M1424.461,659.362c-23.6,0-43.186,17.478-46.511,40.167h15.24    c3.146-14.372,15.967-25.167,31.271-25.167c4.142,0,7.5-3.358,7.5-7.5C1431.961,662.719,1428.603,659.362,1424.461,659.362"></path>
		<polygon clip-path="url(#SVGID_8_)" fill="#D3671E" points="1345.029,1119.588 1594.634,1115.194 1595.331,1341.355     1345.712,1341.355   "></polygon>
		<polygon clip-path="url(#SVGID_8_)" fill="#F1A34F" points="1270.135,1119.973 1469.973,1119.203 1470.52,1341.491     1270.682,1341.355   "></polygon>
		<g opacity="0.4" clip-path="url(#SVGID_8_)">
			<g>
				<defs>
					<rect id="SVGID_4_" x="1270.13" y="1119.203" width="200.39" height="222.288"></rect>
				</defs>
				<clipPath id="SVGID_11_">
					<use xlink:href="#SVGID_4_"></use>
				</clipPath>
				<polygon clip-path="url(#SVGID_11_)" fill="#D86713" points="1469.973,1119.203 1270.134,1119.973 1270.307,1190.029       1470.52,1341.491     "></polygon>
			</g>
		</g>
		<path clip-path="url(#SVGID_8_)" fill="#233862" d="M1619.279,1224.029h-30c-35.623,0-64.5,35.37-64.5,79    c0,43.631,28.877,79,64.5,79h30c35.622,0,64.5-35.369,64.5-79C1683.779,1259.399,1654.901,1224.029,1619.279,1224.029"></path>
		<path clip-path="url(#SVGID_8_)" fill="#2B478B" d="M1683.779,1303.029c0,43.631-28.878,79-64.5,79c-35.623,0-64.5-35.369-64.5-79    c0-43.63,28.877-79,64.5-79C1654.901,1224.029,1683.779,1259.399,1683.779,1303.029"></path>
		<path clip-path="url(#SVGID_8_)" fill="#4A75CB" d="M1660.102,1303.029c0,27.614-18.276,50-40.822,50    c-22.545,0-40.823-22.386-40.823-50s18.278-50,40.823-50C1641.825,1253.029,1660.102,1275.415,1660.102,1303.029"></path>
		<polygon clip-path="url(#SVGID_8_)" fill="#D3671E" points="1389.871,866.072 1677.113,865.19 1676.321,1118.548     1390.651,1119.427   "></polygon>
		<polygon clip-path="url(#SVGID_8_)" fill="#F1A34F" points="1304.16,866.512 1532.86,865.631 1533.486,1118.988     1304.785,1119.869   "></polygon>
		<g opacity="0.4" clip-path="url(#SVGID_8_)">
			<g>
				<defs>
					<rect id="SVGID_3_" x="1304.16" y="865.631" width="229.33" height="253.357"></rect>
				</defs>
				<clipPath id="SVGID_12_">
					<use xlink:href="#SVGID_3_"></use>
				</clipPath>
				<polygon clip-path="url(#SVGID_12_)" fill="#D86713" points="1532.861,865.631 1304.161,866.512 1304.361,947.511       1533.486,1118.988     "></polygon>
			</g>
		</g>
		<path clip-path="url(#SVGID_8_)" fill="#D9935C" d="M1717.875,655.88c0,0-24.328,16.565-30.763,12.482    c-6.433-4.082,4.5-13.333-5.834-16.666C1670.945,648.362,1717.875,655.88,1717.875,655.88"></path>
	</g>
</g>
</svg>