<svg xmlns="http://www.w3.org/2000/svg" xmlns:xlink="http://www.w3.org/1999/xlink" viewBox="0 0 139.4 144.66"><defs><style>.cls-1{fill:url(#_ÂÁ_Ï_ÌÌ_È_ËÂÌÚ_55);}.cls-2{isolation:isolate;}.cls-3{fill:url(#_ÂÁ_Ï_ÌÌ_È_ËÂÌÚ_25);}.cls-4{mix-blend-mode:multiply;}.cls-5{fill:#b4bed8;}.cls-6{fill:url(#_ÂÁ_Ï_ÌÌ_È_ËÂÌÚ_93);}.cls-7{fill:#5b5c70;}.cls-8{fill:#fed575;}.cls-9{fill:#232c39;}.cls-10{fill:#fff;}.cls-11{fill:#ffde95;}.cls-12{fill:#97d997;}.cls-13{fill:#748afd;}.cls-14{fill:url(#_ÂÁ_Ï_ÌÌ_È_ËÂÌÚ_23);}.cls-15{fill:url(#_ÂÁ_Ï_ÌÌ_È_ËÂÌÚ_18);}.cls-16{fill:url(#_ÂÁ_Ï_ÌÌ_È_ËÂÌÚ_18-2);}.cls-17{fill:url(#_ÂÁ_Ï_ÌÌ_È_ËÂÌÚ_45);}.cls-18{clip-path:url(#clip-path);}.cls-19,.cls-20{mix-blend-mode:screen;}.cls-19{fill:url(#_ÂÁ_Ï_ÌÌ_È_ËÂÌÚ_51);}.cls-20{fill:url(#_ÂÁ_Ï_ÌÌ_È_ËÂÌÚ_51-2);}.cls-21{fill:url(#_ÂÁ_Ï_ÌÌ_È_ËÂÌÚ_23-2);}.cls-22{fill:#ffadc0;}.cls-23{fill:url(#_ÂÁ_Ï_ÌÌ_È_ËÂÌÚ_23-3);}</style><linearGradient id="_ÂÁ_Ï_ÌÌ_È_ËÂÌÚ_55" x1="61.42" y1="113.01" x2="21.85" y2="45.09" gradientUnits="userSpaceOnUse"><stop offset="0" stop-color="#c9cfe3"/><stop offset="0.26" stop-color="#ced3e5"/><stop offset="0.55" stop-color="#dbdfec"/><stop offset="0.85" stop-color="#f1f2f8"/><stop offset="1" stop-color="#fff"/></linearGradient><radialGradient id="_ÂÁ_Ï_ÌÌ_È_ËÂÌÚ_25" cx="54.38" cy="68.51" r="70.35" gradientTransform="translate(120.92 -14.52) rotate(76.3)" gradientUnits="userSpaceOnUse"><stop offset="0" stop-color="#b6c8d6"/><stop offset="0.18" stop-color="#c9d7e1"/><stop offset="0.51" stop-color="#e7edf1"/><stop offset="0.8" stop-color="#f9fafb"/><stop offset="1" stop-color="#fff"/></radialGradient><linearGradient id="_ÂÁ_Ï_ÌÌ_È_ËÂÌÚ_93" x1="-509.93" y1="-218.42" x2="-568.93" y2="-239.16" gradientTransform="matrix(-0.5, 0.86, -0.86, -0.5, -387.6, 425.9)" gradientUnits="userSpaceOnUse"><stop offset="0" stop-color="#fea14a"/><stop offset="0.14" stop-color="#fea750"/><stop offset="0.64" stop-color="#ffba5f"/><stop offset="1" stop-color="#ffc065"/></linearGradient><linearGradient id="_ÂÁ_Ï_ÌÌ_È_ËÂÌÚ_23" x1="7.34" y1="11.58" x2="14.66" y2="11.58" gradientUnits="userSpaceOnUse"><stop offset="0" stop-color="#dd1d30"/><stop offset="0.37" stop-color="#eb4a61"/><stop offset="0.79" stop-color="#f97a94"/><stop offset="1" stop-color="#ff8da8"/></linearGradient><linearGradient id="_ÂÁ_Ï_ÌÌ_È_ËÂÌÚ_18" x1="10.58" y1="81.17" x2="60.56" y2="81.17" gradientUnits="userSpaceOnUse"><stop offset="0" stop-color="#c9cfe3"/><stop offset="1" stop-color="#fff"/></linearGradient><linearGradient id="_ÂÁ_Ï_ÌÌ_È_ËÂÌÚ_18-2" x1="70.37" y1="105.83" x2="69.48" y2="115.28" xlink:href="#_ÂÁ_Ï_ÌÌ_È_ËÂÌÚ_18"/><linearGradient id="_ÂÁ_Ï_ÌÌ_È_ËÂÌÚ_45" x1="89.96" y1="97.07" x2="32.13" y2="39.5" gradientUnits="userSpaceOnUse"><stop offset="0.1" stop-color="#c9cfe3"/><stop offset="0.53" stop-color="#fff"/><stop offset="1" stop-color="#c9cfe3"/></linearGradient><clipPath id="clip-path"><path class="cls-1" d="M66.59,104.92c-1,5.06-3.29,8.77-6.53,10.75-4.46,1-10-.32-16-4.27-15.17-10-27.81-32.92-28.13-51.13A23.26,23.26,0,0,1,22.74,43.4c4.39-1.28,9.92-.09,15.81,3.45,7.77,4.67,15,12.7,20.49,22.62a72.74,72.74,0,0,1,7.79,22.87C67.53,96.43,66.84,103.74,66.59,104.92Z"/></clipPath><linearGradient id="_ÂÁ_Ï_ÌÌ_È_ËÂÌÚ_51" x1="-2.39" y1="75.08" x2="35.22" y2="69.2" gradientUnits="userSpaceOnUse"><stop offset="0" stop-color="#fff"/><stop offset="1"/></linearGradient><linearGradient id="_ÂÁ_Ï_ÌÌ_È_ËÂÌÚ_51-2" x1="24.64" y1="115.13" x2="42.96" y2="95.02" xlink:href="#_ÂÁ_Ï_ÌÌ_È_ËÂÌÚ_51"/><linearGradient id="_ÂÁ_Ï_ÌÌ_È_ËÂÌÚ_23-2" x1="95.44" y1="121.07" x2="106.08" y2="107.03" xlink:href="#_ÂÁ_Ï_ÌÌ_È_ËÂÌÚ_23"/><linearGradient id="_ÂÁ_Ï_ÌÌ_È_ËÂÌÚ_23-3" x1="114.32" y1="115.29" x2="119.34" y2="127.37" xlink:href="#_ÂÁ_Ï_ÌÌ_È_ËÂÌÚ_23"/></defs><g class="cls-2"><g id="Layer_2" data-name="Layer 2"><g id="Layer_1-2" data-name="Layer 1"><circle class="cls-3" cx="69.7" cy="69.7" r="69.7" transform="translate(-14.52 120.92) rotate(-76.3)"/><g class="cls-4"><path class="cls-5" d="M122.56,104.56c-13.34-6.16-34.9-6-48.16.33s-13.19,16.48.16,22.64,34.9,6,48.15-.33S135.9,110.72,122.56,104.56Z"/></g><polygon class="cls-6" points="97.5 131.03 53.14 105.28 53.25 27.1 97.69 52.89 97.5 131.03"/><path class="cls-7" d="M93.15,133.11l-.1,0L48.69,107.34a.21.21,0,0,1-.1-.18L48.7,29a.21.21,0,0,1,.1-.17.23.23,0,0,1,.2,0L93.44,54.6a.22.22,0,0,1,.1.18l-.19,78.13a.21.21,0,0,1-.1.18ZM49,107.05l44,25.52.19-77.68-44-25.56Z"/><polygon class="cls-8" points="97.69 52.89 132.02 33.09 87.66 7.34 53.25 27.1 97.69 52.89"/><polygon class="cls-5" points="111.36 44.99 97.66 37.03 104.69 33.16 118.24 41.03 111.36 44.99"/><path class="cls-9" d="M97.28,16.35,88,11l-7.31,4.19L90,20.54ZM82,15.16l6-3.43,8,4.62-6,3.42Z"/><polygon class="cls-9" points="87.74 13.43 85.25 14.85 87.78 16.32 86.57 17.01 92.23 17.47 91.47 14.2 90.26 14.89 87.74 13.43"/><polygon class="cls-10" points="72.68 61.03 72.78 96.91 88.65 106.12 88.55 70.24 72.68 61.03"/><polygon class="cls-9" points="86.41 101.77 86.37 99.37 74.76 92.63 74.8 95.03 86.41 101.77"/><polygon class="cls-9" points="86.38 97.72 86.3 96.51 74.68 89.77 74.76 90.97 86.38 97.72"/><polygon class="cls-9" points="86.34 94.3 86.3 91.9 74.68 85.15 74.72 87.56 86.34 94.3"/><polygon class="cls-9" points="86.3 90.24 86.3 89.34 74.69 82.6 74.69 83.5 86.3 90.24"/><polygon class="cls-9" points="86.24 84.75 86.27 84.41 74.65 77.67 74.63 78.01 86.24 84.75"/><polygon class="cls-9" points="86.27 95.58 86.3 95.24 74.68 88.5 74.65 88.84 86.27 95.58"/><polygon class="cls-9" points="86.2 81.65 86.23 81.3 74.61 74.56 74.58 74.91 86.2 81.65"/><polygon class="cls-9" points="86.2 81.04 86.23 80.7 74.61 73.96 74.58 74.3 86.2 81.04"/><polygon class="cls-9" points="86.33 91.55 86.35 91.2 74.74 84.46 74.71 84.81 86.33 91.55"/><polygon class="cls-9" points="86.33 90.94 86.35 90.6 74.74 83.86 74.71 84.2 86.33 90.94"/><polygon class="cls-9" points="86.38 99.09 86.4 98.75 74.79 92 74.76 92.35 86.38 99.09"/><polygon class="cls-9" points="86.38 98.49 86.4 98.14 74.79 91.4 74.76 91.75 86.38 98.49"/><polygon class="cls-9" points="86.29 75.53 86.32 75.19 74.7 68.45 74.67 68.79 86.29 75.53"/><polygon class="cls-9" points="86.29 74.93 86.32 74.58 74.7 67.84 74.67 68.19 86.29 74.93"/><polygon class="cls-9" points="86.23 78.68 86.26 78.34 74.65 71.59 74.62 71.94 86.23 78.68"/><polygon class="cls-9" points="86.22 88.58 86.22 85.43 74.61 78.69 74.61 81.83 86.22 88.58"/><polygon class="cls-9" points="86.23 83.78 86.23 81.97 74.61 75.22 74.61 77.03 86.23 83.78"/><polygon class="cls-9" points="86.13 80.32 86.15 79.14 74.53 72.4 74.51 73.58 86.13 80.32"/><polygon class="cls-9" points="86.15 77.49 86.15 75.68 74.54 68.94 74.53 70.75 86.15 77.49"/><polygon class="cls-9" points="86.11 74.07 86.07 71.67 74.45 64.93 74.5 67.33 86.11 74.07"/><polygon class="cls-11" points="132.02 33.09 131.64 111.72 97.5 131.03 97.69 52.89 132.02 33.09"/><polygon class="cls-10" points="111.45 123.02 111.33 45.02 118.25 41.03 117.96 119.56 111.45 123.02"/><path class="cls-12" d="M18.63,110.56a2.73,2.73,0,1,1-2.73-2.72A2.73,2.73,0,0,1,18.63,110.56Z"/><polygon class="cls-9" points="52.19 133.26 48.52 129.59 44.96 133.15 44.25 132.44 48.52 128.18 52.9 132.55 52.19 133.26"/><polygon class="cls-9" points="32.85 25.76 32.07 25.14 35.07 21.3 37.29 22.39 40.1 19.25 40.84 19.91 37.53 23.61 35.36 22.56 32.85 25.76"/><polygon class="cls-9" points="32.85 22.39 32.07 21.77 35.07 17.93 37.29 19.02 40.1 15.88 40.84 16.55 37.53 20.25 35.36 19.19 32.85 22.39"/><path class="cls-9" d="M10.58,133.64a2,2,0,0,1-1.37-.56L6.94,130.8a1.93,1.93,0,0,1,0-2.74l2.27-2.28a2,2,0,0,1,2.75,0l2.27,2.28a1.93,1.93,0,0,1,0,2.74L12,133.08A2,2,0,0,1,10.58,133.64Zm0-7.42a.93.93,0,0,0-.66.27l-2.28,2.27a1,1,0,0,0-.27.67.94.94,0,0,0,.27.66l2.28,2.28a.94.94,0,0,0,1.33,0l2.27-2.28a.94.94,0,0,0,0-1.33l-2.27-2.27A1,1,0,0,0,10.58,126.22Z"/><polygon class="cls-13" points="123.39 9.17 132.25 7.29 129.33 15.86 123.39 9.17"/><path class="cls-14" d="M14.66,11.58A3.66,3.66,0,1,1,11,7.92,3.66,3.66,0,0,1,14.66,11.58Z"/><path class="cls-15" d="M60.56,115.54c-4.87,4.7-12.87,4.72-21.84-1.16-15.16-10-27.8-32.93-28.13-51.15-.2-10.77,5.53-18.17,12.11-19.8l.13,0A23.27,23.27,0,0,0,16,60.27c.32,18.21,13,41.17,28.13,51.13C50.14,115.35,56.72,116.8,60.56,115.54Z"/><path class="cls-16" d="M62,119.7l5.65-3.09a21.81,21.81,0,0,0,7.45-6.84c1.29-2.27,2.17-4.73,2.92-10l-6.45,2.45S66.36,116,62,119.7Z"/><path class="cls-17" d="M89.14,99.56,77.73,92.33c-.47-10.25-5.93-22.69-9.32-28.84a67,67,0,0,0-5.78-8.76,66.47,66.47,0,0,0-6.94-7.68,49.93,49.93,0,0,0-9.23-7c-8.85-5.11-17-5.6-23.14-2.27l-4.26,2.32s10.9-1,19.75,4.14A56.25,56.25,0,0,1,54.12,57.82c4.37,5.41,17.82,37.23,17.82,37.23l13.19,8.38A24.9,24.9,0,0,1,89.14,99.56Z"/><path class="cls-10" d="M85.15,103.41,72.34,95.29c-3.42-25-16.07-42.95-31.44-52.2-8.35-5-16-5.78-21.8-3l-.28.13A16.59,16.59,0,0,0,12,46.93a29.87,29.87,0,0,0-3.48,14.2c-.42,20.43,13.4,45.57,30.83,56.06,6.16,3.69,15.23,6.81,22.7,2.46a19.12,19.12,0,0,0,10.13-17l9.64,6.11A22.37,22.37,0,0,1,85.15,103.41Zm-18.48,1.51c-1,5.06-3.29,8.77-6.53,10.75-5.61,3.21-12.48,1.43-18.58-2.28-7.71-4.64-15-12.69-20.46-22.62s-8.36-20.43-8.18-29.55c.17-3.66.42-7.54,2.86-12a12.31,12.31,0,0,1,5-5,10.53,10.53,0,0,1,1.88-.75c4.41-1.34,10-.16,15.93,3.42,7.77,4.67,15,12.7,20.49,22.62a72.74,72.74,0,0,1,7.79,22.87C67.61,96.43,66.92,103.74,66.67,104.92Z"/><path class="cls-10" d="M22.83,43.39h0l-.12,0Z"/><path class="cls-1" d="M66.59,104.92c-1,5.06-3.29,8.77-6.53,10.75-4.46,1-10-.32-16-4.27-15.17-10-27.81-32.92-28.13-51.13A23.26,23.26,0,0,1,22.74,43.4c4.39-1.28,9.92-.09,15.81,3.45,7.77,4.67,15,12.7,20.49,22.62a72.74,72.74,0,0,1,7.79,22.87C67.53,96.43,66.84,103.74,66.59,104.92Z"/><g class="cls-18"><polygon class="cls-9" points="64.09 144.66 63.93 135.63 20.24 110.26 20.4 119.29 64.09 144.66"/><polygon class="cls-9" points="63.95 129.41 63.66 124.86 19.96 99.5 20.26 104.05 63.95 129.41"/><polygon class="cls-9" points="63.81 116.54 63.65 107.51 19.95 82.15 20.11 91.18 63.81 116.54"/><polygon class="cls-9" points="63.67 101.3 63.68 97.89 19.98 72.53 19.98 75.93 63.67 101.3"/><polygon class="cls-9" points="63.44 80.65 63.55 79.35 19.85 53.99 19.74 55.28 63.44 80.65"/><polygon class="cls-9" points="63.54 121.38 63.65 120.09 19.95 94.72 19.85 96.02 63.54 121.38"/><polygon class="cls-9" points="63.29 68.96 63.4 67.66 19.7 42.3 19.59 43.6 63.29 68.96"/><polygon class="cls-9" points="63.29 66.69 63.39 65.39 19.7 40.03 19.59 41.33 63.29 66.69"/><polygon class="cls-9" points="63.76 106.21 63.86 104.91 20.17 79.55 20.06 80.85 63.76 106.21"/><polygon class="cls-9" points="63.76 103.94 63.86 102.64 20.17 77.28 20.06 78.58 63.76 103.94"/><polygon class="cls-9" points="63.95 134.58 64.06 133.28 20.36 107.92 20.26 109.22 63.95 134.58"/><polygon class="cls-9" points="63.95 132.31 64.06 131.01 20.36 105.65 20.25 106.94 63.95 132.31"/><polygon class="cls-9" points="63.63 45.96 63.73 44.66 20.04 19.3 19.93 20.6 63.63 45.96"/><polygon class="cls-9" points="63.63 43.69 63.73 42.4 20.04 17.03 19.93 18.33 63.63 43.69"/><polygon class="cls-9" points="63.42 57.8 63.52 56.51 19.82 31.14 19.72 32.44 63.42 57.8"/><polygon class="cls-9" points="63.38 95.03 63.38 83.19 19.68 57.83 19.68 69.67 63.38 95.03"/><polygon class="cls-9" points="63.4 76.97 63.4 70.16 19.7 44.8 19.7 51.61 63.4 76.97"/><polygon class="cls-9" points="63 63.96 63.08 59.54 19.39 34.18 19.31 38.6 63 63.96"/><polygon class="cls-9" points="63.1 53.32 63.11 46.51 19.41 21.14 19.41 27.96 63.1 53.32"/><polygon class="cls-9" points="62.96 40.46 62.8 31.43 19.1 6.06 19.27 15.1 62.96 40.46"/></g><path class="cls-7" d="M52.39,123.51c-6.14,0-11.91-2.92-14.69-4.59C20.22,108.41,6.35,83.18,6.77,62.69a30,30,0,0,1,3.51-14.3,16.74,16.74,0,0,1,6.89-6.75l.23-.1.06,0c6.07-3,13.88-1.91,22,3C56.29,54.62,67.78,73.67,71,96.73L83.7,104.8a.18.18,0,0,1,.09.16v7.5a.19.19,0,0,1-.1.17.2.2,0,0,1-.21,0l-12.66-8a19.35,19.35,0,0,1-10.22,16.8A16.11,16.11,0,0,1,52.39,123.51ZM24.89,40.26a16.47,16.47,0,0,0-7.26,1.61l-.08,0-.19.1a16.35,16.35,0,0,0-6.74,6.59,29.7,29.7,0,0,0-3.45,14.1c-.42,20.37,13.37,45.44,30.73,55.89,4,2.37,14.09,7.35,22.5,2.46a19,19,0,0,0,10-16.81.19.19,0,0,1,.1-.17.22.22,0,0,1,.21,0l12.65,8v-7L70.67,97a.19.19,0,0,1-.09-.14c-3.15-23-14.57-42-31.34-52.06C34.21,41.8,29.31,40.26,24.89,40.26Z"/><path class="cls-19" d="M29.55,69.9C32,79.31,34.38,86.82,32,87.43s-8.56-5.93-11-15.35S20.92,54,23.26,53.35,27.13,60.49,29.55,69.9Z"/><path class="cls-20" d="M41.33,97c4,4.22,7.46,7.45,6.4,8.45s-6.2-.62-10.21-4.84-5.36-9.45-4.3-10.45S37.32,92.72,41.33,97Z"/><g class="cls-2"><path class="cls-21" d="M81.8,105.81c-.79,2.29-1.46,6.11,1,7.7l30.53,18.4a3.12,3.12,0,0,1-.76-.65,5.46,5.46,0,0,1-1-3.9,12.69,12.69,0,0,1,1-4.11,13.58,13.58,0,0,1,5.58-6.52c1.78-1,3.38-1,4.52-.34L92.25,98.05c-1.14-.69-2.74-.63-4.52.34a10.88,10.88,0,0,0-1.2.8A14.29,14.29,0,0,0,81.8,105.81Z"/></g><path class="cls-10" d="M96.34,105.61c-3,0-9.55-5.25-9.84-5.48l.19-.23c.07.06,7.43,5.93,10,5.37.27-.06.43-.18.48-.38.37-1.28-3.25-5.14-4.68-6.51l.21-.22c.54.52,5.24,5.12,4.76,6.82a.85.85,0,0,1-.71.58A1.86,1.86,0,0,1,96.34,105.61Z"/><path class="cls-10" d="M113.23,116.14c-2.48,0-4.88-2.08-7.4-4.27-2.72-2.35-5.52-4.78-8.37-4.35-5.81.87-12.6-6.2-12.89-6.51l.22-.2c.06.07,6.24,6.48,11.68,6.48a5.86,5.86,0,0,0,.94-.07c3-.44,5.85,2,8.61,4.42s5.29,4.58,7.9,4.14c1.47-.26,2.29-.71,2.44-1.36.28-1.21-1.81-2.75-1.83-2.77l.18-.24c.09.07,2.27,1.68,1.94,3.08-.18.77-1.08,1.31-2.68,1.58A3.71,3.71,0,0,1,113.23,116.14Z"/><path class="cls-10" d="M94.52,103a3.17,3.17,0,0,1-1-.28,19.07,19.07,0,0,1-2.31-1.19c-1.12-.66-3.91-2.63-3.62-3.13.08-.13.3-.48,4.34,1.92a17.38,17.38,0,0,1,2.14,1.47c.82.67.84.92.74,1.07A.29.29,0,0,1,94.52,103Zm-6.61-4.4a15.39,15.39,0,0,0,3.45,2.67,9.46,9.46,0,0,0,3.18,1.43,9.49,9.49,0,0,0-2.77-2.12A20.94,20.94,0,0,0,87.91,98.58Z"/><path class="cls-10" d="M98.83,115.37h-.06a3.3,3.3,0,0,1-1.54-.49h0a3.29,3.29,0,0,1-1.16-1.12,1.18,1.18,0,0,1-.1-1.2,1.16,1.16,0,0,1,1.1-.47,3.19,3.19,0,0,1,1.54.49c1.09.65,1.64,1.66,1.26,2.31A1.13,1.13,0,0,1,98.83,115.37Zm-1.82-3a.84.84,0,0,0-.78.34.87.87,0,0,0,.1.89,3,3,0,0,0,1.06,1h0a2.91,2.91,0,0,0,1.39.45.89.89,0,0,0,.83-.33c.29-.49-.24-1.36-1.16-1.91a3,3,0,0,0-1.39-.44Z"/><path class="cls-10" d="M100,123.57a2.5,2.5,0,0,1-1.65-.68l.19-.23a2.2,2.2,0,0,0,3.2-.23c1.94-1.91,3.2-6.89,1.09-9.45l-.06-.07c-.86-1-2.63-3.2-4.51-3.2h-.14a3.41,3.41,0,0,0-2.54,1.85c-1.72,2.69-1,4.11-.49,5.05.29.56.54,1-.1,1.41-1.43.83-5.67-.52-5.85-.58l.09-.28s4.29,1.37,5.61.6c.37-.22.29-.42,0-1-.49-.94-1.31-2.51.51-5.35a3.65,3.65,0,0,1,2.77-2h.16c2,0,3.85,2.22,4.74,3.3l.06.07c2.21,2.67.91,7.87-1.11,9.85A2.81,2.81,0,0,1,100,123.57Z"/><path class="cls-10" d="M96.4,121.5l0-.3a5.44,5.44,0,0,0,4.18-2.19,6.45,6.45,0,0,0,.5-4.84l.29-.09a6.65,6.65,0,0,1-.53,5.09A5.75,5.75,0,0,1,96.4,121.5Z"/><path class="cls-10" d="M109.2,113h-.12c-.65-.1-1.25-1-2-2.1s-1.39-2.14-2.15-2.41c-1.83-.63-5.69-5.89-5.85-6.11l.24-.18c0,.06,4,5.4,5.71,6,.86.3,1.59,1.43,2.3,2.53.6.92,1.22,1.88,1.75,2a.52.52,0,0,0,.41-.13c1.3-1.08,1.11-3.27,1.11-3.29l.3,0c0,.1.2,2.37-1.22,3.55A.83.83,0,0,1,109.2,113Z"/><path class="cls-10" d="M89.26,115.21a3.15,3.15,0,0,1-1.84-.64,26.24,26.24,0,0,1-3-2.55,9.47,9.47,0,0,0-3.19-2.31l.09-.29a9.76,9.76,0,0,1,3.31,2.39,26.56,26.56,0,0,0,3,2.52,2.66,2.66,0,0,0,3.21.07A3.59,3.59,0,0,0,92.37,111c-.4-1.59-6.75-4.92-10.06-6.46l.13-.27c.4.18,9.69,4.53,10.22,6.66A3.87,3.87,0,0,1,91,114.65,3.09,3.09,0,0,1,89.26,115.21Z"/><path class="cls-10" d="M121.35,119.42a14.46,14.46,0,0,0-8-.22c-3.95,1.25-10.25-5.91-10.52-6.21l.23-.2c.06.07,6.43,7.32,10.2,6.13a14.92,14.92,0,0,1,8.18.21Z"/><path class="cls-10" d="M114.83,129.11c0-.05-1.85-4.72-4-6-.33-.19-.69-.43-1.07-.67-1.49-1-3.34-2.17-4.68-1.86a1.87,1.87,0,0,0-1.2,1,3.8,3.8,0,0,0-.55,3,4.43,4.43,0,0,0,2.33,2.55l-.14.27a4.71,4.71,0,0,1-2.48-2.74,4.07,4.07,0,0,1,.58-3.26,2.16,2.16,0,0,1,1.39-1.1c1.46-.35,3.29.84,4.92,1.9l1.06.67c2.23,1.32,4,6,4.1,6.14Z"/><path class="cls-22" d="M111.52,127.69c-.09,4.09,2.75,5.83,6.33,3.88a14.13,14.13,0,0,0,6.63-11c.09-4.11-2.75-5.83-6.33-3.88A14.12,14.12,0,0,0,111.52,127.69Z"/><path class="cls-23" d="M115.08,130.37a1.22,1.22,0,0,1-.94-.35,3.27,3.27,0,0,1-.62-2.29,12.09,12.09,0,0,1,5.59-9.24,3.93,3.93,0,0,1,1.82-.56,1.2,1.2,0,0,1,.93.34,3.3,3.3,0,0,1,.62,2.3,12.12,12.12,0,0,1-5.59,9.25,4,4,0,0,1-1.81.55Z"/></g></g></g></svg>