<?xml version="1.0" encoding="utf-8"?>
<!-- Generator: Adobe Illustrator 22.1.0, SVG Export Plug-In . SVG Version: 6.00 Build 0)  -->
<svg version="1.1" id="Layer_1" xmlns="http://www.w3.org/2000/svg" xmlns:xlink="http://www.w3.org/1999/xlink" x="0px" y="0px"
	 viewBox="0 0 100.6 100.6" style="enable-background:new 0 0 100.6 100.6;" xml:space="preserve">
<style type="text/css">
	.st0{fill:#C9905C;}
	.st1{fill:#EABC8C;}
	.st2{fill:#965D4A;}
	.st3{fill:#AF794A;}
	.st4{fill:#00A9CE;}
	.st5{fill:#A67250;}
	.st6{fill:#BF8D5D;}
	.st7{fill:#252E3F;}
	.st8{fill:#374866;}
	.st9{fill:#5B83AC;}
	.st10{fill:#8E745E;}
	.st11{fill:#20272E;}
	.st12{fill:#FFFFFF;}
	.st13{fill:#69CDF0;}
	.st14{fill:#1FC3EC;}
	.st15{fill:#777777;}
	.st16{fill:#0792C5;}
	.st17{fill:#DC4C43;}
	.st18{fill:#F1D51B;}
	.st19{fill:#3CB987;}
	.st20{fill:#98989A;}
</style>
<g>
	<g>
		<polygon class="st0" points="15.3,50.5 22.5,46.3 15.7,43 8.9,46.3 		"/>
		<polygon class="st1" points="8.9,46.3 5.8,46.7 12.9,43.2 15.7,43 		"/>
		<polygon class="st1" points="15.7,43 19,43 25.5,46.1 22.5,46.3 		"/>
		<polygon class="st2" points="15.7,43 15.7,50.2 22.5,46.3 		"/>
		<polygon class="st3" points="15.7,43 14.1,49.7 15.3,50.5 15.7,50.2 		"/>
	</g>
	<g>
		<path class="st4" d="M13.8,52.1c-1.6-20.6,5.9-25.6,9.2-26.8c4.1-1.5,8.8,0.1,11.4,3.8L33,30c-2.2-3.1-6.1-4.4-9.5-3.2
			C17.4,29,14.4,38.4,15.4,52L13.8,52.1z"/>
		<g>
			<polygon class="st4" points="31.6,30.1 35,32.2 35.1,28.2 			"/>
		</g>
	</g>
	<g>
		<polygon class="st5" points="8.9,46.3 8.9,54.3 15.3,58.2 15.3,50.5 		"/>
		<polygon class="st0" points="22.5,46.3 15.3,50.5 15.3,58.2 22.5,54.1 		"/>
		<polygon class="st6" points="5.8,49.7 5.8,49.8 11.9,54.5 15.3,50.5 		"/>
		<polygon class="st1" points="8.9,46.3 5.8,49.7 11.9,54.2 15.2,50.4 		"/>
		<polygon class="st6" points="25.5,49.8 25.5,49.9 18.6,54.7 15.3,50.5 		"/>
		<polygon class="st1" points="22.5,46.3 25.5,49.8 18.7,54.4 15.4,50.4 		"/>
	</g>
	<g>
		<polygon class="st0" points="85.6,50.5 92.8,46.2 85.9,43 79.1,46.3 		"/>
		<polygon class="st1" points="79.1,46.3 76,46.7 83.1,43.2 85.9,43 		"/>
		<polygon class="st1" points="85.9,43 89.2,42.9 95.7,46 92.8,46.2 		"/>
		<polygon class="st2" points="85.9,43 86,50.2 92.8,46.2 		"/>
		<polygon class="st3" points="85.9,43 84.4,49.7 85.6,50.5 86,50.2 		"/>
	</g>
	<g>
		<g>
			<g>
				<polygon class="st0" points="49.9,55.5 67.6,45.5 51,37.4 34.2,45.3 				"/>
				<polygon class="st1" points="34.2,45.3 26.7,45.9 44,37.6 51,37.4 				"/>
				<polygon class="st1" points="51,37.4 58.9,37.4 74.9,45.1 67.6,45.5 				"/>
				<polygon class="st2" points="51,37.4 50.9,54.9 67.6,45.5 				"/>
				<polygon class="st3" points="51,37.4 47.1,53.6 49.9,55.5 50.9,54.9 				"/>
			</g>
			<g>
				<polygon class="st7" points="47.3,28 49.9,26.9 53.2,28 56.7,62.8 50.3,63.4 49.7,55.8 49.1,63.3 42.5,62.7 				"/>
				<path class="st8" d="M38.8,36.7c0.6-1.8,1.2-3.6,2-5.4c0,0-0.5-1.3,5.3-2.4l2.1-0.5L48.1,43l-3.2,22.9l-5.5-1
					c0,0-0.4-0.2-0.3-0.9c0.1-0.7,3-18.2,3-18.2l-0.3-7.2l-1.4,7l4.3,5.8c0,0.1-1.4,0.1-1.4,0.2v0.1c-0.1,0.6-1,0.7-1.2,0.2
					l-5.3-5.6c-0.2-0.3-0.3-0.7-0.2-1C37.1,42.3,37.9,39.5,38.8,36.7z"/>
				<path class="st8" d="M60.7,36.8c-0.6-1.9-1.2-3.7-1.9-5.5c0,0,0.5-1.3-5.3-2.5l-2.1-0.5L51.4,43l2.8,22.9l5.5-1
					c0,0,0.4-0.2,0.3-0.8c-0.1-0.7-2.7-18.2-2.7-18.2l0.5-7.2l1.2,7.1l-2.9,5.8c0,0.1-0.1,0.2,0,0.2v0.1c0.1,0.6,1,0.7,1.2,0.2
					l5.4-5.5c0.2-0.3,0.3-0.7,0.2-1C62.3,42.5,61.6,39.7,60.7,36.8z"/>
				<path class="st9" d="M56.3,28.6c-0.8-1-1.8-2-3-2.7c-0.9-0.6-2-1-3.2-1c-0.7,0-1.3,0.1-2,0.3c-1,0.3-1.9,0.9-2.6,1.5
					c-0.7,0.6-1.4,1.2-1.9,1.9c-0.1,0.2-0.1,0.3,0.2,0.4l4,0.8l0.6,1.3l-3.2,0.3c-0.2,0-0.3,0.2-0.2,0.3l3.4,10.7l0.4-13.1
					c0-0.6,0.6-1,1.2-1h0.1c0.7,0.1,1.2,0.5,1.2,1l0.2,13.1l3.5-10.7c0.1-0.1-0.1-0.3-0.2-0.3L51.5,31l0.6-1.4l4.1-0.8
					C56.3,28.9,56.4,28.7,56.3,28.6z"/>
				<ellipse class="st10" cx="44.5" cy="37.5" rx="0.7" ry="0.7"/>
				<ellipse class="st10" cx="45.2" cy="42" rx="0.7" ry="0.7"/>
				<ellipse class="st10" cx="45.2" cy="46.7" rx="0.7" ry="0.7"/>
				<ellipse class="st10" cx="43.9" cy="51.2" rx="0.7" ry="0.7"/>
				<polygon class="st11" points="47.3,32.2 45.9,32.4 45.8,32.3 47.3,32 				"/>
				<ellipse class="st10" cx="55.1" cy="37.6" rx="0.7" ry="0.7"/>
				<ellipse class="st10" cx="54.4" cy="42.2" rx="0.7" ry="0.7"/>
				<ellipse class="st10" cx="54.4" cy="46.7" rx="0.7" ry="0.7"/>
				<ellipse class="st10" cx="55.6" cy="51.3" rx="0.7" ry="0.7"/>
				<polygon class="st11" points="52.4,32.2 53.8,32.5 53.9,32.3 52.4,32.1 				"/>
			</g>
			<g>
				<path class="st12" d="M50.2,61.5l-8.2,1.1c-0.8,0.1-1.6-0.5-1.7-1.3l-2-15.4c-0.1-0.8,0.5-1.6,1.3-1.7l8.2-1.1
					c0.8-0.1,1.6,0.5,1.7,1.3l2,15.4C51.7,60.7,51.1,61.4,50.2,61.5z"/>
				
					<rect x="40.1" y="44.5" transform="matrix(0.9916 -0.1297 0.1297 0.9916 -6.4239 6.2697)" class="st13" width="9.7" height="15.9"/>
				<polygon class="st14" points="48.9,45.7 41.1,61 50.8,59.8 				"/>
			</g>
			<g>
				<path class="st12" d="M59.5,55.8c-0.2,0.2-0.3,0.3-0.6,0.5c-0.9,0.4-2-0.1-2.8-0.7c-1.7-1.2-3-2.9-4.3-4.6
					c-0.1-0.2-0.3-0.3-0.3-0.6c-0.1-0.2-0.1-0.5-0.1-0.7c0.1-0.7,0.2-1.4,0.4-2c0.1-0.2,0.1-0.3,0.3-0.5c0.1-0.1,0.3-0.1,0.4-0.2
					c0.5-0.1,0.9-0.2,1.3-0.3c0.2-0.1,0.5-0.1,0.7-0.2c0.2-0.2,0.4-0.4,0.5-0.6c0.3-0.6,0.6-1.1,0.9-1.6c0.1-0.1,0.1-0.2,0.2-0.4
					c0-0.2-0.1-0.3-0.1-0.5c-0.2-0.5-0.3-0.9-0.5-1.2c-0.1-0.2-0.1-0.5-0.1-0.7c0.1-0.2,0.2-0.5,0.4-0.6c0.5-0.5,0.9-0.9,1.4-1.2
					c0.3-0.2,0.6-0.3,0.9-0.3c0.3-0.1,0.7,0.1,1,0.1c1.6,0.2,3.3,0.6,4.9,1.1c0.2,0.1,0.5,0.2,0.7,0.3c0.9,0.5,1.8,1,1.9,2
					c0.1,0.5-0.1,0.9-0.5,1.2c-0.2,0.1-0.5,0.2-0.6,0.2c-0.7,0.1-1.4,0.3-2.1,0.6c-0.3,0.1-0.7,0.3-1,0.5c-0.3,0.3-0.6,0.7-0.8,1
					c-0.7,1.1-1.4,2.3-2,3.5c-0.3,0.5-0.6,0.9-0.6,1.5c0,0.6,0.1,1.1,0.2,1.6c0.2,0.6,0.3,1.1,0.5,1.8c0.1,0.2,0.1,0.5,0.1,0.6
					C59.6,55.6,59.5,55.7,59.5,55.8z"/>
				<ellipse class="st15" cx="54" cy="49.6" rx="0.9" ry="0.9"/>
				<ellipse class="st15" cx="59.5" cy="45.3" rx="0.9" ry="0.9"/>
				<ellipse class="st12" cx="55.6" cy="46.9" rx="0.3" ry="0.3"/>
				<ellipse class="st12" cx="56.8" cy="44.8" rx="0.3" ry="0.3"/>
				<ellipse class="st16" cx="57.8" cy="43.2" rx="0.5" ry="0.5"/>
				<ellipse class="st17" cx="58.9" cy="41.1" rx="0.5" ry="0.5"/>
				<ellipse class="st18" cx="57.3" cy="41.5" rx="0.5" ry="0.5"/>
				<ellipse class="st19" cx="59.4" cy="42.7" rx="0.5" ry="0.5"/>
				<path class="st20" d="M57.6,48l-0.3,0.6l-0.6-0.3c-0.1-0.1-0.2,0-0.2,0.1l-0.2,0.5c-0.1,0.1,0,0.2,0.1,0.2l0.6,0.3L56.6,50
					c-0.1,0.1,0,0.2,0.1,0.2l0.5,0.2c0.1,0.1,0.2,0,0.2-0.1l0.3-0.6l0.6,0.3c0.1,0.1,0.2,0,0.2-0.1l0.2-0.5c0.1-0.1,0-0.2-0.1-0.2
					L58,49l0.3-0.6c0.1-0.1,0-0.2-0.1-0.2L57.8,48C57.8,47.9,57.7,47.9,57.6,48z"/>
			</g>
			<g>
				<polygon class="st5" points="34.2,45.3 34.1,64.8 49.8,74.4 49.9,55.5 				"/>
				<polygon class="st0" points="67.6,45.5 49.9,55.5 49.8,74.4 67.5,64.4 				"/>
				<polygon class="st6" points="26.6,53.3 26.6,53.7 41.4,65.3 49.9,55.5 				"/>
				<polygon class="st1" points="34.2,45.3 26.6,53.3 41.4,64.6 49.7,55.2 				"/>
				<polygon class="st6" points="74.8,54.1 74.8,54.4 57.8,65.8 49.9,55.5 				"/>
				<polygon class="st1" points="67.6,45.5 74.8,54.1 57.9,65.2 50.2,55.3 				"/>
			</g>
		</g>
		<circle class="st15" cx="43.7" cy="44.2" r="0.2"/>
	</g>
	<g>
		<path class="st4" d="M86.9,52.1L85.3,52c1-13.5-2-22.9-8.1-25.2c-3.4-1.2-7.2,0.1-9.5,3.2l-1.4-0.9c2.6-3.7,7.3-5.2,11.4-3.8
			C81,26.6,88.6,31.6,86.9,52.1z"/>
		<g>
			<polygon class="st4" points="65.6,28.2 65.7,32.2 69.1,30.1 			"/>
		</g>
	</g>
	<g>
		<polygon class="st5" points="79.1,46.3 79.1,54.3 85.6,58.2 85.6,50.5 		"/>
		<polygon class="st0" points="92.8,46.2 85.6,50.5 85.6,58.2 92.9,54 		"/>
		<polygon class="st6" points="76,49.7 76,49.8 82.2,54.5 85.6,50.5 		"/>
		<polygon class="st1" points="79.1,46.3 76,49.7 82.1,54.2 85.5,50.4 		"/>
		<polygon class="st6" points="95.7,49.7 95.7,49.8 88.8,54.7 85.6,50.5 		"/>
		<polygon class="st1" points="92.8,46.2 95.7,49.7 88.9,54.3 85.7,50.4 		"/>
	</g>
</g>
</svg>
