<?xml version="1.0" encoding="utf-8"?>
<!-- Generator: Adobe Illustrator 22.1.0, SVG Export Plug-In . SVG Version: 6.00 Build 0)  -->
<svg version="1.1" id="Layer_1" xmlns="http://www.w3.org/2000/svg" xmlns:xlink="http://www.w3.org/1999/xlink" x="0px" y="0px"
	 viewBox="0 0 100.6 100.6" style="enable-background:new 0 0 100.6 100.6;" xml:space="preserve">
<style type="text/css">
	.st0{fill:#C9C9C9;}
	.st1{fill:#4B5861;}
	.st2{fill:#D6D7D9;}
	.st3{fill:#FFFFFF;}
	.st4{fill:#B9B9BB;}
	.st5{fill:#0B1627;}
	.st6{fill:#00A9CE;}
	.st7{fill:#C0BCBD;}
	.st8{fill:#E9E5E6;}
	.st9{fill:#767878;}
</style>
<g>
	<path class="st0" d="M57.7,71.5h4.7c0,0,6.7-3.3,8.8-13.3l3.1-1.1c0,0-0.9,11.7-11.1,17.3h-6L57.7,71.5z"/>
	<path class="st1" d="M49.7,36.5L49.7,36.5c0.2,0,0.4,0.2,0.4,0.4v1.3c0,0.2-0.2,0.4-0.4,0.4l0,0c-0.2,0-0.4-0.2-0.4-0.4v-1.3
		C49.3,36.6,49.5,36.5,49.7,36.5z"/>
	<path class="st1" d="M49.7,36.5L49.7,36.5c0.2,0,0.4,0.2,0.4,0.4v1.3c0,0.2-0.2,0.4-0.4,0.4l0,0c-0.2,0-0.4-0.2-0.4-0.4v-1.3
		C49.3,36.6,49.5,36.5,49.7,36.5z"/>
	<path class="st1" d="M49.6,55.4L49.6,55.4c0.2,0,0.4,0.2,0.4,0.4v1.3c0,0.2-0.2,0.4-0.4,0.4l0,0c-0.2,0-0.4-0.2-0.4-0.4v-1.3
		C49.3,55.6,49.4,55.4,49.6,55.4z"/>
	<circle class="st1" cx="50.1" cy="47.1" r="12.9"/>
	<path class="st2" d="M40.8,47.7c0-5.5,4.5-10,10-10c2.2,0,4.4,0.8,6.2,2.2c-4-3.8-10.3-3.7-14.2,0.3s-3.7,10.3,0.3,14.2
		c0.3,0.2,0.5,0.5,0.8,0.7C41.9,53.1,40.8,50.4,40.8,47.7z"/>
	<path class="st3" d="M60.2,47.1c0-2.8-1.1-5.4-3.1-7.3c-4.4-3.4-10.7-2.6-14.1,1.8c-3.2,4-2.7,9.8,1,13.4
		c4.4,3.4,10.7,2.7,14.1-1.7C59.4,51.5,60.2,49.3,60.2,47.1L60.2,47.1z"/>
	<path class="st4" d="M50.5,40.2L50.5,40.2c0.2,0,0.4,0.2,0.4,0.4v6.9c0,0.2-0.2,0.4-0.4,0.4l0,0c-0.2,0-0.4-0.2-0.4-0.4v-6.9
		C50.1,40.4,50.3,40.2,50.5,40.2z"/>
	<path class="st4" d="M49.5,47.5l0.8,0.8l0,0L46.6,52c-0.2,0.2-0.6,0.2-0.8,0l0,0c-0.2-0.2-0.2-0.6,0-0.8L49.5,47.5L49.5,47.5z"/>
	<path class="st4" d="M50.7,47h7.5c0.2,0,0.4,0.2,0.4,0.4l0,0c0,0.2-0.2,0.4-0.4,0.4h-7.5l0,0V47L50.7,47z"/>
	<path class="st1" d="M50.2,36.6L50.2,36.6c0.2,0,0.4,0.2,0.4,0.4v1.3c0,0.2-0.2,0.4-0.4,0.4l0,0c-0.2,0-0.4-0.2-0.4-0.4V37
		C49.8,36.8,50,36.6,50.2,36.6z"/>
	<path class="st1" d="M50.1,55.6L50.1,55.6c0.2,0,0.4,0.2,0.4,0.4v1.3c0,0.2-0.2,0.4-0.4,0.4l0,0c-0.2,0-0.4-0.2-0.4-0.4v-1.3
		C49.7,55.7,49.9,55.6,50.1,55.6z"/>
	<path class="st1" d="M60.6,47.1L60.6,47.1c0,0.2-0.2,0.4-0.4,0.4H59c-0.2,0-0.4-0.2-0.4-0.4l0,0c0-0.2,0.2-0.4,0.4-0.4h1.3
		C60.5,46.7,60.6,46.9,60.6,47.1z"/>
	<path class="st1" d="M41.7,47L41.7,47c0,0.2-0.2,0.4-0.4,0.4H40c-0.2,0-0.4-0.2-0.4-0.4l0,0c0-0.2,0.2-0.4,0.4-0.4h1.3
		C41.5,46.7,41.7,46.8,41.7,47z"/>
	<path class="st5" d="M50.2,39.9L50.2,39.9c0.2,0,0.4,0.2,0.4,0.4v6.9c0,0.2-0.2,0.4-0.4,0.4l0,0c-0.2,0-0.4-0.2-0.4-0.4v-6.9
		C49.8,40.1,50,39.9,50.2,39.9z"/>
	<path class="st5" d="M49.2,47.3L50,48l0,0l-3.7,3.7c-0.2,0.2-0.6,0.2-0.8,0l0,0c-0.2-0.2-0.2-0.6,0-0.8L49.2,47.3L49.2,47.3z"/>
	<path class="st6" d="M50.4,46.7h7.5c0.2,0,0.4,0.2,0.4,0.4l0,0c0,0.2-0.2,0.4-0.4,0.4h-7.5l0,0V46.7L50.4,46.7z"/>
	<circle class="st7" cx="50.4" cy="47.4" r="1.7"/>
	<circle class="st8" cx="50.1" cy="47.1" r="1.7"/>
	<circle class="st6" cx="50.1" cy="47.1" r="1"/>
	<path class="st9" d="M78.4,45.9c-0.6-2.6-2.1-5-4.4-6.3c-3.4-13.2-16.8-21.1-29.9-17.8c-8.7,2.2-15.6,9-17.8,17.8
		c-2.3,1.3-3.8,3.6-4.4,6.3c-0.5,2.4-0.3,4.9,0.5,7.2c0.7,1.9,2,3.6,3.8,4.6c0.8,0.4,1.6,0.7,2.5,0.8l0.4,0.1
		c0.9,0.1,1.8,0.3,2.6-0.1c0.7-0.4,1.1-1.1,1.3-1.8c0.3-1.3,0-3-0.1-4c0-0.3-0.1-0.6-0.1-0.9c-0.2-2.3-0.1-4.6,0.1-6.9
		c0-0.2,0.1-0.5,0.1-0.7c0.2-1.3,0.3-2.8-0.2-4c-0.1-0.4-0.4-0.8-0.7-1.1c-0.3-0.2-0.5-0.3-0.9-0.3C35,28.1,46.7,22.8,57.2,26.7
		c5.5,2.1,9.9,6.4,11.9,11.9c-0.3,0-0.6,0.2-0.8,0.3c-0.3,0.3-0.6,0.7-0.7,1.1c-0.5,1.3-0.4,2.7-0.2,4c0,0.2,0.1,0.5,0.1,0.7
		c0.2,2.3,0.3,4.6,0.1,6.9c0,0.3-0.1,0.6-0.1,0.9c-0.1,1.1-0.4,2.7-0.1,4c0.2,0.8,0.5,1.5,1.3,1.8c0.8,0.4,1.7,0.3,2.6,0.1l0.4-0.1
		c0.9-0.1,1.7-0.4,2.5-0.8c1.8-1,3.1-2.7,3.8-4.6C78.7,50.8,78.9,48.3,78.4,45.9z"/>
	<ellipse class="st9" cx="51.8" cy="72.6" rx="6.7" ry="5.5"/>
</g>
</svg>
