<?xml version="1.0" encoding="utf-8"?>
<!-- Generator: Adobe Illustrator 22.1.0, SVG Export Plug-In . SVG Version: 6.00 Build 0)  -->
<svg version="1.1" id="Layer_1" xmlns="http://www.w3.org/2000/svg" xmlns:xlink="http://www.w3.org/1999/xlink" x="0px" y="0px"
	 viewBox="0 0 100.6 100.6" style="enable-background:new 0 0 100.6 100.6;" xml:space="preserve">
<style type="text/css">
	.st0{fill:#057487;}
	.st1{fill:#00A9CE;}
	.st2{opacity:0.39;fill:#FFFFFF;enable-background:new    ;}
	.st3{fill:#BBD162;}
	.st4{fill:#8CB843;}
	.st5{fill:#DBDCDA;}
	.st6{fill:#CB8F2B;}
	.st7{fill:#F9BF61;}
	.st8{fill:#FCDCAE;}
	.st9{fill:#D6862D;}
	.st10{fill:#E6AB23;}
	.st11{opacity:0.15;fill:#090909;enable-background:new    ;}
</style>
<g>
	<path class="st0" d="M27.4,63.4l8.2,7.5c0.3,0.3,0.7,0.4,1.1,0.2l24.5-8.8"/>
	<path class="st1" d="M27.4,63l8.2,7.5c0.3,0.3,0.7,0.4,1.1,0.2l24.5-8.8"/>
	<path class="st2" d="M50.8,62.6l-7.6,2.5c0,0-2.8-4.1-8.5-1l-2.2-1.8L44,61L50.8,62.6z"/>
	<path class="st0" d="M20.4,48.2l-8,12c-0.1,0.2-0.1,0.5,0.1,0.7c0.1,0.1,0.2,0.1,0.3,0.1h77c0.3,0,0.5-0.2,0.5-0.5
		c0-0.1,0-0.2-0.1-0.3l-7.5-11.9c-0.2-0.4-0.7-0.6-1.1-0.6H21.6C21.1,47.6,20.7,47.8,20.4,48.2z"/>
	<path class="st1" d="M20.4,47.8l-8,12c-0.1,0.2-0.1,0.5,0.1,0.7c0.1,0.1,0.2,0.1,0.3,0.1h77c0.3,0,0.5-0.2,0.5-0.5
		c0-0.1,0-0.2-0.1-0.3l-7.5-11.9c-0.2-0.4-0.7-0.6-1.1-0.6H21.6C21.1,47.2,20.7,47.4,20.4,47.8z"/>
	<path class="st3" d="M20.1,54.9l2.3-4.5c0,0,7.3,1.6,8.4-2.7h42.1c0,0,2,2.8,8,2.6l2.5,4.5c0,0-6.3,0.6-6.6,2.9H26.7
		C26.7,57.6,25.7,54.2,20.1,54.9z"/>
	<ellipse class="st4" cx="51.6" cy="53.1" rx="11.8" ry="4.4"/>
	<path class="st5" d="M53,55.5v0.8h-2.6v-0.8c-2.1-0.2-3.8-0.7-4-1.5l3-0.2c0.2,0.6,1.3,0.8,2.4,0.8c1.1,0,1.8-0.2,1.8-0.5
		c0-0.2-0.3-0.3-1.1-0.4l-2.5-0.2c-1.8-0.1-3.4-0.5-3.4-1.3c0-0.8,1.5-1.3,3.7-1.4V50H53v0.8c2,0.2,3.5,0.7,3.7,1.4l-3,0.2
		c-0.1-0.6-1.2-0.8-2.1-0.8c-1,0-1.6,0.2-1.6,0.5c0,0.2,0.3,0.3,1,0.4l2.5,0.2c2.1,0.2,3.4,0.6,3.4,1.3C56.8,54.9,55.1,55.4,53,55.5
		z"/>
	<path class="st0" d="M17.5,45.9l-8,12c-0.1,0.2-0.1,0.5,0.1,0.7c0.1,0.1,0.2,0.1,0.3,0.1h77c0.3,0,0.5-0.2,0.5-0.5
		c0-0.1,0-0.2-0.1-0.3l-7.5-11.9c-0.2-0.4-0.7-0.6-1.1-0.6H18.6C18.1,45.3,17.7,45.5,17.5,45.9z"/>
	<path class="st1" d="M17.5,45.5l-8,12c-0.1,0.2-0.1,0.5,0.1,0.7c0.1,0.1,0.2,0.1,0.3,0.1h77c0.3,0,0.5-0.2,0.5-0.5
		c0-0.1,0-0.2-0.1-0.3l-7.5-11.9c-0.2-0.4-0.7-0.6-1.1-0.6H18.6C18.1,44.9,17.7,45.1,17.5,45.5z"/>
	<path class="st2" d="M17.1,53l2.3-4.1c0,0,7.3-1.2,8.4-2.4h42.1c0,0,2,2.3,8,2.1l2.5,4.6c0,0-6.3-1.1-6.6,3H23.7
		C23.7,56.1,22.7,52.3,17.1,53z"/>
	<ellipse class="st1" cx="48.6" cy="50.8" rx="11.8" ry="4.4"/>
	<path class="st5" d="M50,53.2V54h-2.6v-0.8c-2.1-0.2-3.8-0.7-4-1.5l3-0.2c0.2,0.6,1.3,0.8,2.4,0.8s1.8-0.2,1.8-0.5
		c0-0.2-0.3-0.3-1.1-0.4l-2.5-0.2c-1.8-0.1-3.4-0.5-3.4-1.3c0-0.8,1.5-1.3,3.7-1.4v-0.8H50v0.8c2,0.2,3.5,0.7,3.7,1.4l-3,0.2
		c-0.1-0.6-1.2-0.8-2.1-0.8c-1,0-1.6,0.2-1.6,0.5c0,0.2,0.3,0.3,1,0.4l2.5,0.2c2.1,0.2,3.4,0.6,3.4,1.3C53.8,52.6,52.1,53.1,50,53.2
		z"/>
	<path class="st0" d="M23.1,51.1l-8,12c-0.1,0.2-0.1,0.5,0.1,0.7c0.1,0.1,0.2,0.1,0.3,0.1h77c0.3,0,0.5-0.2,0.5-0.5
		c0-0.1,0-0.2-0.1-0.3l-7.5-11.9c-0.2-0.4-0.7-0.6-1.1-0.6H24.2C23.8,50.5,23.3,50.7,23.1,51.1z"/>
	<path class="st6" d="M54,48.9c0,1.8-3.9,3.2-8.6,3.2s-8.6-1.4-8.6-3.2v-1.6c0.9-1.4,16.5-1.7,17.2-0.2V48.9z"/>
	<ellipse class="st7" cx="45.4" cy="47.2" rx="8.6" ry="3.2"/>
	<path class="st8" d="M48,50.2c-0.9,0.1-1.8,0.1-2.6,0.1c-4.8,0-8.6-1.4-8.6-3.2c0-1.2,1.7-2.2,4.3-2.7c0.8-0.2,1.7-0.3,2.5-0.4
		L48,50.2z"/>
	<path class="st9" d="M52.1,47c0,0.1,0,0.1,0,0.2c-0.2-1.3-3-2.3-6.4-2.3c-3.4,0-6.2,1-6.4,2.3c0-0.1,0-0.1,0-0.2
		c0-1.4,2.9-2.5,6.5-2.5C49.2,44.5,52.1,45.6,52.1,47z"/>
	<path class="st10" d="M52.1,47.2c-0.2,1.3-3,2.3-6.4,2.3c-3.4,0-6.2-1-6.4-2.3c0.2-1.3,3-2.3,6.4-2.3C49,44.9,51.8,45.9,52.1,47.2z
		"/>
	<ellipse class="st9" cx="45.5" cy="47" rx="3.1" ry="1"/>
	<ellipse class="st7" cx="45.5" cy="46.6" rx="3.1" ry="1"/>
	<path class="st6" d="M54,46.6c0,1.8-3.9,3.2-8.6,3.2s-8.6-1.4-8.6-3.2v-1.6c0.9-1.4,16.5-1.7,17.2-0.2V46.6z"/>
	<ellipse class="st7" cx="45.4" cy="44.9" rx="8.6" ry="3.2"/>
	<path class="st8" d="M48,47.9c-0.9,0.1-1.8,0.1-2.6,0.1c-4.8,0-8.6-1.4-8.6-3.2c0-1.2,1.7-2.2,4.3-2.7c0.8-0.2,1.7-0.3,2.5-0.4
		L48,47.9z"/>
	<path class="st9" d="M52.1,44.7c0,0.1,0,0.1,0,0.2c-0.2-1.3-3-2.3-6.4-2.3c-3.4,0-6.2,1-6.4,2.3c0-0.1,0-0.1,0-0.2
		c0-1.4,2.9-2.5,6.5-2.5C49.2,42.2,52.1,43.3,52.1,44.7z"/>
	<path class="st10" d="M52.1,44.9c-0.2,1.3-3,2.3-6.4,2.3c-3.4,0-6.2-1-6.4-2.3c0.2-1.3,3-2.3,6.4-2.3C49,42.6,51.8,43.6,52.1,44.9z
		"/>
	<ellipse class="st9" cx="45.5" cy="44.7" rx="3.1" ry="1"/>
	<ellipse class="st7" cx="45.5" cy="44.3" rx="3.1" ry="1"/>
	<path class="st6" d="M54.4,44.6c0,1.8-3.9,3.2-8.6,3.2s-8.6-1.4-8.6-3.2V43c0.9-1.4,16.5-1.7,17.2-0.2V44.6z"/>
	<ellipse class="st7" cx="45.7" cy="42.9" rx="8.6" ry="3.2"/>
	<path class="st8" d="M48.4,46c-0.9,0.1-1.8,0.1-2.6,0.1c-4.8,0-8.6-1.4-8.6-3.2c0-1.2,1.7-2.2,4.3-2.7c0.8-0.2,1.7-0.3,2.5-0.4
		L48.4,46z"/>
	<path class="st9" d="M52.4,42.7c0,0.1,0,0.1,0,0.2c-0.2-1.3-3-2.3-6.4-2.3s-6.2,1-6.4,2.3c0-0.1,0-0.1,0-0.2c0-1.4,2.9-2.5,6.5-2.5
		S52.4,41.3,52.4,42.7z"/>
	<path class="st10" d="M52.4,42.9c-0.2,1.3-3,2.3-6.4,2.3s-6.2-1-6.4-2.3c0.2-1.3,3-2.3,6.4-2.3S52.2,41.6,52.4,42.9z"/>
	<ellipse class="st9" cx="45.8" cy="42.7" rx="3.1" ry="1"/>
	<ellipse class="st7" cx="45.8" cy="42.4" rx="3.1" ry="1"/>
	<path class="st6" d="M53.7,42.6c0,1.8-3.9,3.2-8.6,3.2s-8.6-1.4-8.6-3.2V41c0.9-1.4,16.5-1.7,17.2-0.2V42.6z"/>
	<ellipse class="st7" cx="45.1" cy="41" rx="8.6" ry="3.2"/>
	<path class="st8" d="M47.7,44c-0.9,0.1-1.8,0.1-2.6,0.1c-4.8,0-8.6-1.4-8.6-3.2c0-1.2,1.7-2.2,4.3-2.7c0.8-0.2,1.7-0.3,2.5-0.4
		L47.7,44z"/>
	<path class="st9" d="M51.8,40.7c0,0.1,0,0.1,0,0.2c-0.2-1.3-3-2.3-6.4-2.3s-6.2,1-6.4,2.3c0-0.1,0-0.1,0-0.2c0-1.4,2.9-2.5,6.5-2.5
		S51.8,39.4,51.8,40.7z"/>
	<path class="st10" d="M51.7,40.9c-0.2,1.3-3,2.3-6.4,2.3s-6.2-1-6.4-2.3c0.2-1.3,3-2.3,6.4-2.3S51.5,39.6,51.7,40.9z"/>
	<ellipse class="st9" cx="45.2" cy="40.7" rx="3.1" ry="1"/>
	<ellipse class="st7" cx="45.2" cy="40.4" rx="3.1" ry="1"/>
	<path class="st6" d="M54,40.3c0,1.8-3.9,3.2-8.6,3.2s-8.6-1.4-8.6-3.2v-1.6c0.9-1.4,16.5-1.7,17.2-0.2V40.3z"/>
	<ellipse class="st7" cx="45.4" cy="38.6" rx="8.6" ry="3.2"/>
	<path class="st8" d="M48,41.7c-0.9,0.1-1.8,0.1-2.6,0.1c-4.8,0-8.6-1.4-8.6-3.2c0-1.2,1.7-2.2,4.3-2.7c0.8-0.2,1.7-0.3,2.5-0.4
		L48,41.7z"/>
	<path class="st9" d="M52.1,38.4c0,0.1,0,0.1,0,0.2c-0.2-1.3-3-2.3-6.4-2.3c-3.4,0-6.2,1-6.4,2.3c0-0.1,0-0.1,0-0.2
		c0-1.4,2.9-2.5,6.5-2.5C49.2,36,52.1,37.1,52.1,38.4z"/>
	<path class="st10" d="M52.1,38.6c-0.2,1.3-3,2.3-6.4,2.3c-3.4,0-6.2-1-6.4-2.3c0.2-1.3,3-2.3,6.4-2.3C49,36.3,51.8,37.3,52.1,38.6z
		"/>
	<ellipse class="st9" cx="45.5" cy="38.4" rx="3.1" ry="1"/>
	<ellipse class="st7" cx="45.5" cy="38.1" rx="3.1" ry="1"/>
	<path class="st6" d="M54.5,37.7c0,1.8-3.9,3.2-8.6,3.2s-8.6-1.4-8.6-3.2v-1.6c0.9-1.4,16.5-1.7,17.2-0.2V37.7z"/>
	<ellipse class="st7" cx="45.9" cy="36" rx="8.6" ry="3.2"/>
	<path class="st8" d="M48.5,39c-0.9,0.1-1.8,0.1-2.6,0.1c-4.8,0-8.6-1.4-8.6-3.2c0-1.2,1.7-2.2,4.3-2.7c0.8-0.2,1.7-0.3,2.5-0.4
		L48.5,39z"/>
	<path class="st9" d="M52.6,35.8c0,0.1,0,0.1,0,0.2c-0.2-1.3-3-2.3-6.4-2.3s-6.2,1-6.4,2.3c0-0.1,0-0.1,0-0.2c0-1.4,2.9-2.5,6.5-2.5
		S52.6,34.4,52.6,35.8z"/>
	<path class="st10" d="M52.6,36c-0.2,1.3-3,2.3-6.4,2.3s-6.2-1-6.4-2.3c0.2-1.3,3-2.3,6.4-2.3S52.3,34.7,52.6,36z"/>
	<ellipse class="st9" cx="46" cy="35.8" rx="3.1" ry="1"/>
	<ellipse class="st7" cx="46" cy="35.4" rx="3.1" ry="1"/>
	<path class="st6" d="M55.7,35c0,1.8-3.9,3.2-8.6,3.2s-8.6-1.4-8.6-3.2v-1.6c0.9-1.4,16.5-1.7,17.2-0.2V35z"/>
	<ellipse class="st7" cx="47.1" cy="33.4" rx="8.6" ry="3.2"/>
	<path class="st8" d="M49.7,36.4c-0.9,0.1-1.8,0.1-2.6,0.1c-4.8,0-8.6-1.4-8.6-3.2c0-1.2,1.7-2.2,4.3-2.7c0.8-0.2,1.7-0.3,2.5-0.4
		L49.7,36.4z"/>
	<path class="st9" d="M53.7,33.1c0,0.1,0,0.1,0,0.2c-0.2-1.3-3-2.3-6.4-2.3c-3.4,0-6.2,1-6.4,2.3c0-0.1,0-0.1,0-0.2
		c0-1.4,2.9-2.5,6.5-2.5C50.8,30.7,53.7,31.8,53.7,33.1z"/>
	<path class="st10" d="M53.7,33.3c-0.2,1.3-3,2.3-6.4,2.3c-3.4,0-6.2-1-6.4-2.3c0.2-1.3,3-2.3,6.4-2.3
		C50.7,31.1,53.5,32.1,53.7,33.3z"/>
	<ellipse class="st9" cx="47.2" cy="33.1" rx="3.1" ry="1"/>
	<ellipse class="st7" cx="47.2" cy="32.8" rx="3.1" ry="1"/>
	<path class="st6" d="M55,32.3c0,1.8-3.9,3.2-8.6,3.2s-8.6-1.4-8.6-3.2v-1.6c0.8-1.4,16.5-1.7,17.2-0.2V32.3z"/>
	<ellipse class="st7" cx="46.4" cy="30.7" rx="8.6" ry="3.2"/>
	<path class="st8" d="M49,33.7c-0.9,0.1-1.8,0.1-2.6,0.1c-4.8,0-8.6-1.4-8.6-3.2c0-1.2,1.7-2.2,4.3-2.7c0.8-0.2,1.7-0.3,2.5-0.4
		L49,33.7z"/>
	<path class="st9" d="M53.1,30.5c0,0.1,0,0.1,0,0.2c-0.2-1.3-3-2.3-6.4-2.3c-3.4,0-6.2,1-6.4,2.3c0-0.1,0-0.1,0-0.2
		c0-1.4,2.9-2.5,6.5-2.5S53.1,29.1,53.1,30.5z"/>
	<path class="st10" d="M53.1,30.7c-0.2,1.3-3,2.3-6.4,2.3c-3.4,0-6.2-1-6.4-2.3c0.2-1.3,3-2.3,6.4-2.3C50,28.4,52.8,29.4,53.1,30.7z
		"/>
	<ellipse class="st9" cx="46.5" cy="30.5" rx="3.1" ry="1"/>
	<ellipse class="st7" cx="46.5" cy="30.1" rx="3.1" ry="1"/>
	<path class="st1" d="M23.1,50.7l-8,12c-0.1,0.2-0.1,0.5,0.1,0.7c0.1,0.1,0.2,0.1,0.3,0.1h77c0.3,0,0.5-0.2,0.5-0.5
		c0-0.1,0-0.2-0.1-0.3l-7.5-11.9c-0.2-0.4-0.7-0.6-1.1-0.6H24.2C23.8,50.1,23.3,50.3,23.1,50.7z"/>
	<path class="st1" d="M23.1,50.7l-8,12c-0.1,0.2-0.1,0.5,0.1,0.7c0.1,0.1,0.2,0.1,0.3,0.1h77c0.3,0,0.5-0.2,0.5-0.5
		c0-0.1,0-0.2-0.1-0.3l-7.5-11.9c-0.2-0.4-0.7-0.6-1.1-0.6H24.2C23.8,50.1,23.3,50.3,23.1,50.7z"/>
	<path class="st2" d="M22.7,58.1l2.3-3.9c0,0,7.3-0.8,8.4-2.2h42.1c0,0,2,2.1,8,1.9l2.5,4.4c0,0-6.3-0.7-6.6,2.8H29.3
		C29.3,61.1,28.3,57.4,22.7,58.1z"/>
	<ellipse class="st1" cx="54.3" cy="56.1" rx="11.8" ry="4.4"/>
	<path class="st5" d="M55.7,58.4v0.8h-2.6v-0.8c-2.1-0.2-3.8-0.7-4-1.5l3-0.2c0.2,0.6,1.3,0.8,2.4,0.8s1.8-0.2,1.8-0.5
		c0-0.2-0.3-0.3-1.1-0.4l-2.5-0.2c-1.8-0.1-3.4-0.5-3.4-1.3c0-0.8,1.5-1.3,3.7-1.4v-0.8h2.6v0.8c2,0.2,3.5,0.7,3.7,1.4l-3,0.2
		c-0.1-0.6-1.2-0.8-2.1-0.8c-1,0-1.6,0.2-1.6,0.5c0,0.2,0.3,0.3,1,0.4l2.5,0.2c2.1,0.2,3.4,0.6,3.4,1.3
		C59.4,57.8,57.8,58.3,55.7,58.4z"/>
	<path class="st11" d="M57.2,54.6c1.2,0.8,1.4,2.4,0.4,3.4l0,0c-3.3,3.4-8.6,4-12.5,1.4l-6.6-4.3l15.5-2.6L57.2,54.6z"/>
	<path class="st11" d="M76.5,58.4c1.4,0.9,1.6,2.8,0.5,4l0,0c-3.8,3.9-9.9,4.7-14.7,1.6l-12.4-8l6.8-10.5L76.5,58.4z"/>
	<path class="st11" d="M71.8,52.6c1.2,0.8,1.4,2.4,0.4,3.4l0,0c-3.3,3.4-8.6,4-12.5,1.4l-6.6-4.3l15.5-2.6L71.8,52.6z"/>
	<path class="st6" d="M68.4,50.4c0,1.8-3.9,3.2-8.6,3.2s-8.6-1.4-8.6-3.2v-1.6c0.9-1.4,16.5-1.7,17.2-0.2V50.4z"/>
	<ellipse class="st7" cx="59.8" cy="48.8" rx="8.6" ry="3.2"/>
	<path class="st8" d="M62.5,51.8c-0.9,0.1-1.8,0.1-2.6,0.1c-4.8,0-8.6-1.4-8.6-3.2c0-1.5,2.9-2.8,6.8-3.1L62.5,51.8z"/>
	<path class="st9" d="M66.5,48.5c0,0.1,0,0.1,0,0.2c-0.2-1.3-3-2.3-6.4-2.3c-3.4,0-6.2,1-6.4,2.3c0-0.1,0-0.1,0-0.2
		c0-1.4,2.9-2.5,6.5-2.5S66.5,47.2,66.5,48.5z"/>
	<path class="st10" d="M66.5,48.7c-0.2,1.3-3,2.3-6.4,2.3c-3.4,0-6.2-1-6.4-2.3c0.2-1.3,3-2.3,6.4-2.3
		C63.5,46.4,66.3,47.4,66.5,48.7z"/>
	<ellipse class="st9" cx="59.9" cy="48.5" rx="3.1" ry="1"/>
	<ellipse class="st7" cx="59.9" cy="48.2" rx="3.1" ry="1"/>
	<path class="st6" d="M67.3,48.5c0,1.8-3.9,3.2-8.6,3.2S50,50.3,50,48.5v-1.6c0.9-1.4,16.5-1.7,17.2-0.2V48.5z"/>
	<ellipse class="st7" cx="58.6" cy="46.9" rx="8.6" ry="3.2"/>
	<path class="st8" d="M61.3,49.9c-0.9,0.1-1.8,0.1-2.6,0.1c-4.8,0-8.6-1.4-8.6-3.2c0-1.5,2.9-2.8,6.8-3.1L61.3,49.9z"/>
	<path class="st9" d="M65.3,46.7c0,0.1,0,0.1,0,0.2c-0.2-1.3-3-2.3-6.4-2.3s-6.2,1-6.4,2.3c0-0.1,0-0.1,0-0.2c0-1.4,2.9-2.5,6.5-2.5
		S65.3,45.3,65.3,46.7z"/>
	<path class="st10" d="M65.3,46.8c-0.2,1.3-3,2.3-6.4,2.3s-6.2-1-6.4-2.3c0.2-1.3,3-2.3,6.4-2.3S65.1,45.6,65.3,46.8z"/>
	<ellipse class="st9" cx="58.7" cy="46.7" rx="3.1" ry="1"/>
	<ellipse class="st7" cx="58.7" cy="46.3" rx="3.1" ry="1"/>
	<path class="st6" d="M68.6,46.5c0,1.8-3.9,3.2-8.6,3.2s-8.6-1.4-8.6-3.2v-1.6c0.9-1.4,16.5-1.7,17.2-0.2V46.5z"/>
	<ellipse class="st7" cx="60" cy="44.8" rx="8.6" ry="3.2"/>
	<path class="st8" d="M62.6,47.9C61.8,48,60.9,48,60,48c-4.8,0-8.6-1.4-8.6-3.2c0-1.5,2.9-2.8,6.8-3.1L62.6,47.9z"/>
	<path class="st9" d="M66.7,44.6c0,0.1,0,0.1,0,0.2c-0.2-1.3-3-2.3-6.4-2.3c-3.4,0-6.2,1-6.4,2.3c0-0.1,0-0.1,0-0.2
		c0-1.4,2.9-2.5,6.5-2.5C63.8,42.2,66.7,43.3,66.7,44.6z"/>
	<path class="st10" d="M66.7,44.8c-0.2,1.3-3,2.3-6.4,2.3c-3.4,0-6.2-1-6.4-2.3c0.2-1.3,3-2.3,6.4-2.3
		C63.6,42.5,66.4,43.5,66.7,44.8z"/>
	<ellipse class="st9" cx="60.1" cy="44.6" rx="3.1" ry="1"/>
	<ellipse class="st7" cx="60.1" cy="44.3" rx="3.1" ry="1"/>
	<path class="st6" d="M54.8,53.8c0,1.8-3.9,3.2-8.6,3.2s-8.6-1.4-8.6-3.2v-1.6c0.9-1.4,16.5-1.7,17.2-0.2V53.8z"/>
	<ellipse class="st7" cx="46.2" cy="52.2" rx="8.6" ry="3.2"/>
	<path class="st8" d="M48.8,55.2c-0.9,0.1-1.8,0.1-2.6,0.1c-4.8,0-8.6-1.4-8.6-3.2c0-1.5,2.9-2.8,6.8-3.1L48.8,55.2z"/>
	<path class="st9" d="M52.8,52c0,0.1,0,0.1,0,0.2c-0.2-1.3-3-2.3-6.4-2.3c-3.4,0-6.2,1-6.4,2.3c0-0.1,0-0.1,0-0.2
		c0-1.4,2.9-2.5,6.5-2.5C50,49.5,52.8,50.6,52.8,52z"/>
	<path class="st10" d="M52.8,52.1c-0.2,1.3-3,2.3-6.4,2.3c-3.4,0-6.2-1-6.4-2.3c0.2-1.3,3-2.3,6.4-2.3
		C49.8,49.9,52.6,50.9,52.8,52.1z"/>
	<ellipse class="st9" cx="46.3" cy="52" rx="3.1" ry="1"/>
	<ellipse class="st7" cx="46.3" cy="51.6" rx="3.1" ry="1"/>
	<path class="st6" d="M53.4,51.4c0,1.8-3.9,3.2-8.6,3.2s-8.6-1.4-8.6-3.2v-1.6c0.9-1.4,16.5-1.7,17.2-0.2V51.4z"/>
	<ellipse class="st7" cx="44.8" cy="49.8" rx="8.6" ry="3.2"/>
	<path class="st8" d="M47.4,52.8c-0.9,0.1-1.8,0.1-2.6,0.1c-4.8,0-8.6-1.4-8.6-3.2c0-1.5,2.9-2.8,6.8-3.1L47.4,52.8z"/>
	<path class="st9" d="M51.5,49.6c0,0.1,0,0.1,0,0.2c-0.2-1.3-3-2.3-6.4-2.3s-6.2,1-6.4,2.3c0-0.1,0-0.1,0-0.2c0-1.4,2.9-2.5,6.5-2.5
		S51.5,48.2,51.5,49.6z"/>
	<path class="st10" d="M51.5,49.7C51.2,51,48.4,52,45,52s-6.2-1-6.4-2.3c0.2-1.3,3-2.3,6.4-2.3S51.2,48.5,51.5,49.7z"/>
	<ellipse class="st9" cx="44.9" cy="49.6" rx="3.1" ry="1"/>
	<ellipse class="st7" cx="44.9" cy="49.2" rx="3.1" ry="1"/>
</g>
</svg>
