<?xml version="1.0" encoding="utf-8"?>
<!-- Generator: Adobe Illustrator 22.1.0, SVG Export Plug-In . SVG Version: 6.00 Build 0)  -->
<svg version="1.1" id="Layer_1" xmlns="http://www.w3.org/2000/svg" xmlns:xlink="http://www.w3.org/1999/xlink" x="0px" y="0px"
	 viewBox="0 0 100.6 100.6" style="enable-background:new 0 0 100.6 100.6;" xml:space="preserve">
<style type="text/css">
	.st0{fill:#73787B;}
	.st1{fill:#4C5861;}
	.st2{fill:#00A9CE;}
	.st3{fill:#C1BDC4;}
	.st4{fill:#EADBCD;}
	.st5{fill:#37383A;}
	.st6{fill:#6E6F72;}
	.st7{fill:#BDBEC0;}
	.st8{fill:#F0CFA9;}
	.st9{fill:#D4A67E;}
	.st10{opacity:0.5;fill:#B68B6A;enable-background:new    ;}
</style>
<g>
	<g id="Layer_1_4_">
		<rect x="33.6" y="23.3" class="st0" width="5" height="47.4"/>
		<rect x="30.8" y="54.1" class="st0" width="2.8" height="16.6"/>
		<rect x="32.2" y="54.1" class="st1" width="1.4" height="16.6"/>
		<polygon class="st2" points="30.8,70.7 12.1,70.1 11.8,69.7 11.8,68.6 30.8,68.6 		"/>
		<rect x="35.1" y="24.8" class="st1" width="1.9" height="44.3"/>
		<rect x="38.6" y="27.6" class="st0" width="2.6" height="6.2"/>
		<rect x="39" y="33.8" class="st3" width="1.9" height="0.4"/>
		<rect x="39.4" y="34.1" class="st0" width="1.1" height="36.5"/>
		<rect x="37.8" y="39.2" class="st0" width="3.9" height="0.9"/>
		<rect x="38.6" y="26.5" class="st1" width="3.1" height="1.1"/>
		<path class="st0" d="M69.3,36.9L68.8,34l-2-2H54.1l-4.5,3L43,53.2v5h2.1l4,2.6h8.8l12.9-9v-3.9L69.3,36.9z M69,50.8L57.3,59h-7.7
			l-4-2.6h-0.8v-2.9L51,36.3l0,0l3.9-2.6l0,0h11.2l1.1,1.1L69,47.9V50.8z"/>
		<polygon class="st0" points="39.9,71.6 77.6,71.6 80.4,71.6 85.5,69.5 85.5,60.8 45.6,60.8 41.3,59.1 38.3,59.1 38.3,64.3 		"/>
		<path class="st2" d="M85,52.6l-0.5-0.5H71.9l-12.9,9l-1,0.7h-9.4l-1.1-0.7l-3.2-2H42v1.3c4.6,0,8.3,3.7,8.4,8.2c0,0,0,0.1,0,0.1
			c0,0.2,0,0.4,0,0.6v0.7h20.3c0-0.1,0-0.2,0-0.4s0-0.2,0-0.4c0.4-3.7,3.7-6.8,7.3-6.8c3.1,0,6.1,2.1,7.2,4.9c0,0.1,0.1,0.2,0.1,0.3
			c0.1,0.2,0.1,0.4,0.2,0.6v0c0.1,0.3,0.1,0.7,0.1,1l1.5-0.7l0.5-0.2V55.3L85,52.6z"/>
		<path class="st4" d="M85,52.6c-0.5,0.3-1.1,0.6-1.6,0.8c-1.4,0.6-3.2,1.3-5,2c-2,0.8-4.1,1.7-6.1,2.7c-1.6,0.8-3.1,1.8-4.3,2.9
			c-2.3,2-3.8,4.4-3.8,7.5H50.4c0,0,0,0.1,0,0.1c0,0.2,0,0.4,0,0.6v0.7h20.3c0-0.1,0-0.2,0-0.4c0.2-3.8,3.6-7,7.4-7
			c3.2,0,6.3,2.1,7.2,5c0.1,0.2,0.1,0.4,0.2,0.6v0c0.1,0.3,0.1,0.7,0.1,1l1.5-0.7l0.5-0.2V55.3L85,52.6z"/>
		<path class="st1" d="M87.6,62.5v5.9l-0.5,0.2l-1.5,0.7l-0.1,0.1l-0.3,0.2c-0.2-3.9-3.6-6.9-7.5-6.7c-3.7,0.2-6.7,3.3-6.7,7.1v0.1
			h-1.1v0c0-4.3,3.6-7.9,7.9-7.9h7.7C86.3,62.2,87,62.3,87.6,62.5z"/>
		<path class="st5" d="M49.2,68.5c0,4-3.2,7.2-7.2,7.2c-4,0-7.2-3.2-7.2-7.2c0-4,3.2-7.2,7.2-7.2l0,0C46,61.2,49.2,64.5,49.2,68.5
			L49.2,68.5z"/>
		<polygon class="st1" points="49.4,68.2 49.3,67.2 46.9,67.4 49.2,66.7 48.9,65.7 46.6,66.4 48.7,65.2 48.1,64.3 46,65.5 
			47.8,63.9 47.1,63.1 45.3,64.8 46.8,62.8 45.9,62.2 44.5,64.1 45.5,61.9 44.5,61.5 43.5,63.7 44.1,61.3 43,61.1 42.5,63.5 
			42.5,61.1 41.5,61.1 41.5,63.5 41,61.1 40,61.3 40.5,63.7 39.5,61.5 38.5,61.9 39.5,64.1 38.1,62.2 37.3,62.8 38.7,64.7 
			36.9,63.1 36.2,63.9 38,65.5 35.9,64.3 35.4,65.2 37.5,66.4 35.2,65.7 34.8,66.7 37.1,67.4 34.7,67.2 34.6,68.2 37,68.5 
			34.6,68.7 34.7,69.7 37.1,69.5 34.8,70.2 35.2,71.2 37.5,70.5 35.4,71.7 35.9,72.6 38,71.4 36.2,73 36.9,73.8 38.7,72.2 
			37.3,74.1 38.1,74.7 39.5,72.8 38.5,75 39.5,75.4 40.5,73.2 40,75.6 41,75.8 41.5,73.4 41.5,75.8 42.5,75.8 42.5,73.4 43,75.8 
			44.1,75.6 43.5,73.2 44.5,75.4 45.5,75 44.5,72.8 45.9,74.7 46.8,74.1 45.4,72.2 47.1,73.8 47.8,73 46,71.4 48.1,72.6 48.7,71.7 
			46.6,70.5 48.9,71.2 49.2,70.2 46.9,69.5 49.3,69.7 49.4,68.7 47,68.5 		"/>
		<path class="st6" d="M46.7,68.5c0,2.6-2.1,4.7-4.7,4.7l0,0l0,0c-2.6,0-4.7-2.1-4.7-4.7l0,0c0-2.6,2.1-4.7,4.7-4.7l0,0
			C44.6,63.7,46.7,65.8,46.7,68.5L46.7,68.5z"/>
		<path class="st1" d="M45.9,68.5c0,2.2-1.8,3.9-3.9,3.9s-3.9-1.8-3.9-3.9c0-2.2,1.8-3.9,3.9-3.9l0,0C44.2,64.5,45.9,66.3,45.9,68.5
			z"/>
		<path class="st7" d="M42.3,65.8c0,0.2-0.2,0.3-0.3,0.3c-0.2,0-0.3-0.2-0.3-0.3c0-0.2,0.2-0.3,0.3-0.3
			C42.2,65.4,42.3,65.6,42.3,65.8C42.3,65.8,42.3,65.8,42.3,65.8z M42,70.8c-0.2,0-0.3,0.2-0.3,0.3s0.2,0.3,0.3,0.3l0,0
			c0.2,0,0.3-0.2,0.3-0.3S42.2,70.8,42,70.8z M40.5,65.8c-0.2,0.1-0.2,0.3-0.1,0.5c0.1,0.2,0.3,0.2,0.5,0.1c0.2-0.1,0.2-0.3,0.1-0.5
			C40.9,65.8,40.7,65.8,40.5,65.8L40.5,65.8z M43.2,70.5c-0.2,0.1-0.2,0.3-0.1,0.5c0.1,0.2,0.3,0.2,0.5,0.1c0.2-0.1,0.2-0.3,0.1-0.5
			C43.5,70.4,43.3,70.4,43.2,70.5L43.2,70.5z M39.4,66.9c-0.1,0.2,0,0.4,0.1,0.5c0.2,0.1,0.4,0,0.5-0.1c0.1-0.2,0-0.4-0.1-0.5l0,0
			C39.7,66.7,39.5,66.8,39.4,66.9L39.4,66.9z M44,69.6c-0.1,0.2,0,0.4,0.1,0.5l0,0c0.2,0.1,0.4,0,0.5-0.1s0-0.4-0.1-0.5
			C44.3,69.4,44.1,69.5,44,69.6L44,69.6z M39,68.5c0,0.2,0.2,0.3,0.3,0.3c0.2,0,0.3-0.2,0.3-0.3s-0.2-0.3-0.3-0.3
			C39.2,68.1,39,68.3,39,68.5L39,68.5z M44.3,68.5c0,0.2,0.2,0.3,0.3,0.3s0.3-0.2,0.3-0.3s-0.2-0.3-0.3-0.3
			C44.5,68.1,44.3,68.3,44.3,68.5L44.3,68.5L44.3,68.5z M39.4,70c0.1,0.2,0.3,0.2,0.5,0.1c0.2-0.1,0.2-0.3,0.1-0.5
			c-0.1-0.2-0.3-0.2-0.5-0.1C39.4,69.6,39.3,69.8,39.4,70L39.4,70z M44,67.3c0.1,0.2,0.3,0.2,0.5,0.1c0,0,0,0,0,0
			c0.2-0.1,0.2-0.3,0.1-0.5c-0.1-0.2-0.3-0.2-0.5-0.1c0,0,0,0,0,0C44,66.9,43.9,67.1,44,67.3C44,67.3,44,67.3,44,67.3z M40.5,71.1
			c0.2,0.1,0.4,0,0.5-0.1l0,0c0.1-0.2,0.1-0.4-0.1-0.5s-0.4-0.1-0.5,0.1c0,0,0,0,0,0C40.3,70.8,40.3,71,40.5,71.1L40.5,71.1z
			 M43.2,66.4c0.2,0.1,0.4,0,0.5-0.1c0.1-0.2,0-0.4-0.1-0.5c-0.2-0.1-0.4,0-0.5,0.1C43,66.1,43,66.3,43.2,66.4
			C43.2,66.4,43.2,66.4,43.2,66.4z"/>
		<path class="st7" d="M43.6,68.5c0,0.9-0.7,1.6-1.6,1.6c-0.9,0-1.6-0.7-1.6-1.6c0-0.9,0.7-1.6,1.6-1.6l0,0
			C42.9,66.8,43.6,67.6,43.6,68.5z"/>
		<path class="st5" d="M84,69.7c0,3.3-2.7,6-6,6c-3.3,0-6-2.7-6-6c0-3.3,2.7-6,6-6C81.3,63.7,84,66.4,84,69.7
			C84,69.7,84,69.7,84,69.7z"/>
		<polygon class="st1" points="84.1,69.5 84,68.7 82.1,68.9 84,68.2 83.7,67.4 81.8,68 83.5,67 83.1,66.3 81.4,67.3 82.8,65.9 
			82.3,65.3 80.8,66.7 82,65 81.3,64.5 80.1,66.1 80.9,64.3 80.1,64 79.3,65.8 79.7,63.8 78.9,63.6 78.4,65.6 78.4,63.6 77.6,63.6 
			77.6,65.6 77.2,63.6 76.3,63.8 76.7,65.8 75.9,64 75.1,64.3 75.9,66.1 74.8,64.5 74.1,65 75.2,66.6 73.8,65.3 73.2,65.9 
			74.7,67.3 72.9,66.3 72.5,67 74.2,68 72.3,67.4 72.1,68.2 74,68.9 72,68.7 71.9,69.5 73.9,69.7 71.9,69.9 72,70.8 74,70.6 
			72.1,71.2 72.3,72 74.2,71.4 72.5,72.4 72.9,73.1 74.7,72.1 73.2,73.5 73.8,74.1 75.3,72.8 74.1,74.4 74.8,74.9 75.9,73.3 
			75.1,75.1 75.9,75.5 76.7,73.6 76.3,75.6 77.2,75.8 77.6,73.8 77.6,75.8 78.4,75.8 78.4,73.8 78.9,75.8 79.7,75.6 79.3,73.6 
			80.1,75.5 80.9,75.1 80.1,73.3 81.3,74.9 82,74.4 80.8,72.8 82.3,74.1 82.8,73.5 81.4,72.1 83.1,73.1 83.5,72.4 81.8,71.4 
			83.7,72 84,71.2 82.1,70.6 84,70.8 84.1,69.9 82.1,69.7 		"/>
		<path class="st6" d="M81.9,69.7c0,2.2-1.8,3.9-3.9,3.9l0,0l0,0c-2.2,0-3.9-1.8-3.9-3.9l0,0l0,0c0-2.2,1.8-3.9,3.9-3.9l0,0l0,0
			C80.2,65.8,81.9,67.5,81.9,69.7L81.9,69.7z"/>
		<path class="st1" d="M81.3,69.7c0,1.8-1.5,3.3-3.3,3.3s-3.3-1.5-3.3-3.3c0-1.8,1.5-3.3,3.3-3.3l0,0C79.8,66.5,81.3,67.9,81.3,69.7
			L81.3,69.7z"/>
		<path class="st7" d="M78.3,67.5c0,0.2-0.1,0.3-0.3,0.3s-0.3-0.1-0.3-0.3c0-0.2,0.1-0.3,0.3-0.3S78.3,67.3,78.3,67.5z M78,71.6
			c-0.2,0-0.3,0.1-0.3,0.3c0,0.2,0.1,0.3,0.3,0.3c0.2,0,0.3-0.1,0.3-0.3C78.3,71.8,78.2,71.6,78,71.6L78,71.6z M76.8,67.6
			c-0.1,0.1-0.2,0.2-0.1,0.4c0.1,0.1,0.3,0.2,0.4,0.1c0.1-0.1,0.2-0.3,0.1-0.4C77.1,67.5,76.9,67.5,76.8,67.6
			C76.8,67.6,76.8,67.6,76.8,67.6z M79,71.4c-0.1,0.1-0.2,0.2-0.1,0.4c0.1,0.1,0.2,0.2,0.4,0.1c0.1-0.1,0.2-0.2,0.1-0.4l0,0
			C79.3,71.4,79.1,71.3,79,71.4L79,71.4z M75.9,68.5c-0.1,0.1,0,0.3,0.1,0.4c0.1,0.1,0.3,0,0.4-0.1c0.1-0.1,0-0.3-0.1-0.4
			C76.1,68.3,75.9,68.3,75.9,68.5C75.9,68.5,75.9,68.5,75.9,68.5L75.9,68.5z M79.7,70.7c-0.1,0.1,0,0.3,0.1,0.4
			c0.1,0.1,0.3,0,0.4-0.1c0.1-0.1,0-0.3-0.1-0.4C79.9,70.5,79.8,70.5,79.7,70.7C79.7,70.7,79.7,70.7,79.7,70.7L79.7,70.7z
			 M75.5,69.7c0,0.2,0.1,0.3,0.3,0.3c0.2,0,0.3-0.1,0.3-0.3c0-0.2-0.1-0.3-0.3-0.3l0,0C75.6,69.4,75.5,69.6,75.5,69.7z M79.9,69.7
			c0,0.2,0.1,0.3,0.3,0.3l0,0c0.2,0,0.3-0.1,0.3-0.3c0-0.2-0.1-0.3-0.3-0.3C80.1,69.4,79.9,69.6,79.9,69.7z M75.8,71
			c0.1,0.1,0.2,0.2,0.4,0.1c0.1-0.1,0.2-0.2,0.1-0.4c0,0,0,0,0,0c-0.1-0.1-0.3-0.2-0.4-0.1C75.8,70.7,75.8,70.8,75.8,71z M79.7,68.8
			c0.1,0.1,0.3,0.2,0.4,0.1c0.1-0.1,0.2-0.2,0.1-0.4c0,0,0,0,0,0c-0.1-0.1-0.2-0.2-0.4-0.1c0,0,0,0,0,0
			C79.7,68.4,79.6,68.6,79.7,68.8L79.7,68.8z M76.8,71.9c0.1,0.1,0.3,0,0.4-0.1c0.1-0.1,0-0.3-0.1-0.4c-0.1-0.1-0.3,0-0.4,0.1
			C76.6,71.6,76.6,71.8,76.8,71.9C76.7,71.9,76.8,71.9,76.8,71.9z M79,68c0.1,0.1,0.3,0,0.4-0.1c0.1-0.1,0-0.3-0.1-0.4
			c-0.1-0.1-0.3,0-0.4,0.1C78.8,67.8,78.8,68,79,68C79,68,79,68,79,68z"/>
		<path class="st7" d="M79.4,69.7c0,0.7-0.6,1.4-1.4,1.4c-0.7,0-1.4-0.6-1.4-1.4c0-0.7,0.6-1.4,1.4-1.4C78.8,68.4,79.4,69,79.4,69.7
			z"/>
		<polygon class="st0" points="46.5,46.8 48.3,46.8 51.3,50.5 51.3,52.6 47.4,58.7 43.7,58.1 43.3,53.6 		"/>
		<polygon class="st0" points="66.7,53.3 58.7,54 55.3,56.6 55.3,59.9 57.6,59.9 		"/>
		<path class="st1" d="M69.7,33.1L69.7,33.1l-2.2-2.2H53.9l-4.8,3.2L42,53.7V59h2.2l4.3,2.8H58l13.9-9.7l0.8-1.8L69.7,33.1z
			 M70,50.2l-12.7,9.6h-8.3l-4.3-2.8h-0.9V54l6.6-18.4l0,0l4.1-2.8l0,0h12l1.2,1.2l2,14.1L70,50.2z"/>
		<polygon class="st0" points="64.2,42.3 65.9,42.3 65.3,53.2 64.5,54.2 57.4,54.8 56.4,54.3 56.4,53.2 62.3,51.5 63.3,48 
			62.8,44.8 63,43 		"/>
		<polygon class="st0" points="51,55.4 49.8,54.2 50.4,53.6 51,54.2 52.1,53 52.1,51.1 53,51.1 53,53.4 		"/>
		<path class="st0" d="M53,51.1c0,0.2-0.2,0.4-0.4,0.4s-0.4-0.2-0.4-0.4s0.2-0.4,0.4-0.4C52.8,50.6,53,50.8,53,51.1z"/>
		<path class="st0" d="M52.5,48.9c0.2,0.2,0.2,0.5,0,0.7l0,0l0,0c-0.2,0.2-0.5,0.2-0.7,0l0,0l-3.3-3.3c-0.2-0.2-0.2-0.5,0-0.7l0,0
			c0.2-0.2,0.5-0.2,0.7,0l0,0L52.5,48.9z"/>
		<path class="st0" d="M51.4,46.7c0.3,0.3,0.3,0.8,0,1.2l-1.6,1.6c-0.3,0.3-0.8,0.3-1.2,0l0,0c-0.3-0.3-0.3-0.8,0-1.2l0,0l1.6-1.6
			C50.5,46.4,51,46.4,51.4,46.7L51.4,46.7L51.4,46.7z"/>
		<path class="st1" d="M49,43.2c-0.1,0-0.1,0-0.1,0l-1.2-0.4c-0.2-0.1-0.4-0.3-0.3-0.6s0.3-0.4,0.6-0.3c0,0,0,0,0,0l0.8,0.3l1-2.8
			L49,39.1c-0.2-0.1-0.3-0.3-0.3-0.6c0.1-0.2,0.3-0.3,0.6-0.3l1.2,0.4c0.2,0.1,0.3,0.3,0.3,0.6L49.4,43c0,0.1-0.1,0.2-0.2,0.2
			C49.1,43.2,49.1,43.2,49,43.2z"/>
		<path class="st1" d="M49.5,34.1c0,1-0.8,1.7-1.7,1.7c0,0,0,0,0,0v-3.5C48.8,32.4,49.5,33.2,49.5,34.1
			C49.5,34.1,49.5,34.1,49.5,34.1z"/>
		<rect x="47.1" y="32.4" class="st8" width="0.7" height="3.5"/>
		<polygon class="st2" points="42,60.4 37.8,60.4 37.8,59.1 42,59 		"/>
		<polygon class="st0" points="42,58.9 42,59 39.4,59.1 39.4,56.9 42,54 		"/>
		<rect x="50.4" y="69.3" class="st1" width="11" height="0.7"/>
		<rect x="13.7" y="54.1" class="st9" width="17.1" height="14.6"/>
		<polygon class="st10" points="30.8,54.1 30.8,68.6 13.7,68.6 		"/>
		<rect x="14.8" y="43.4" class="st9" width="15.1" height="10.7"/>
		<polygon class="st10" points="29.9,43.4 14.8,54.1 29.9,54.1 		"/>
	</g>
</g>
</svg>
