<?xml version="1.0" encoding="UTF-8"?>
<svg width="100px" height="100px" viewBox="0 0 100 100" version="1.1" xmlns="http://www.w3.org/2000/svg" xmlns:xlink="http://www.w3.org/1999/xlink">
    <!-- Generator: Sketch 60 (88103) - https://sketch.com -->
    <title>Group 9</title>
    <desc>Created with Sketch.</desc>
    <g id="Delivarables-Page" stroke="none" stroke-width="1" fill="none" fill-rule="evenodd">
        <g id="Extra-Large-Devices-1280px-" transform="translate(-580.000000, -1255.000000)">
            <g id="Group-24-Copy" transform="translate(20.000000, 1255.000000)">
                <g id="Group-9" transform="translate(560.000000, 0.000000)">
                    <circle id="Oval-Copy-8" fill="#00629F" cx="50" cy="50" r="50"></circle>
                    <g id="USPS-landscape" transform="translate(7.000000, 43.000000)" fill="#FFFFFF" fill-rule="nonzero">
                        <g id="Layer_2_2_">
                            <g id="Layer_1-2_1_">
                                <path d="M1.70817262,13.6470553 C2.30011362,13.4274864 2.90896723,13.1910275 3.50090823,12.9545686 C8.38864968,11.0628976 13.2763911,9.17122655 18.1641326,7.24577567 C18.485472,7.12754623 18.7560736,6.89108735 18.908287,6.58706879 C19.1450634,6.08037119 19.415665,5.59056351 19.500228,5.03319615 C19.5678784,4.59405823 19.584791,4.17181023 19.1788886,3.85090175 C18.9590248,3.69889247 18.7053358,3.61444288 18.4347342,3.61444288 C17.9611814,3.58066304 17.5045412,3.56377312 17.0309884,3.58066304 C16.9464254,3.59755296 16.8618624,3.5468832 16.8280372,3.47932352 C16.709649,3.32731424 16.5574355,3.22597472 16.3883095,3.17530496 C15.8301937,2.955736 15.2551653,2.7868368 14.6801369,2.68549728 C13.3271289,2.41525856 11.9910335,2.14501984 10.6380255,1.87478112 L6.10544866,0.928945599 L2.90896723,0.27023872 C2.89205463,0.27023872 2.85822943,0.2533488 2.85822943,0.20267904 C2.92587983,0.18578912 2.99353023,0.1688992 3.06118063,0.18578912 C9.31884268,0.18578912 15.5765047,0.18578912 21.8341668,0.18578912 C22.0032928,0.18578912 22.037118,0.20267904 22.0032928,0.388468159 C21.6481282,2.0267904 21.2929636,3.64822272 20.9547116,5.26965503 C20.5657218,7.07687647 20.176732,8.88409791 19.8046548,10.6913193 C19.6017036,11.6540448 19.3987524,12.5998803 19.1958012,13.5626057 C19.1788886,13.6470553 19.1450634,13.6808352 19.0605004,13.6808352 C19.0266752,13.6808352 18.99285,13.6808352 18.9590248,13.6808352 L1.70817262,13.6808352 L1.70817262,13.6470553 Z" id="Shape"></path>
                                <path d="M7.98274727,4.22247999 C8.15187327,4.74606751 8.32099928,5.26965503 8.49012528,5.77635263 C8.74381428,6.53639903 8.98059068,7.29644543 9.21736708,8.05649183 C9.25119228,8.15783135 9.26810488,8.19161119 9.40340568,8.14094143 C11.2299665,7.26266559 13.1241777,6.58706879 15.0860393,6.11415103 C15.7625433,5.94525183 16.4559599,5.87769215 17.1493766,5.91147199 C17.30159,5.91147199 17.5045412,5.91147199 17.5214538,6.09726111 C17.5383664,6.28305023 17.3185026,6.26616031 17.2001144,6.28305023 C14.4602731,6.80663775 11.9064705,7.82003295 9.42031828,9.03610719 C6.34222506,10.5393101 3.28104443,12.0594029 0.219863802,13.5794957 L0,13.6808352 C0.152213401,12.9883485 0.287514203,12.2958617 0.439727604,11.6202649 C0.794892207,9.98194271 1.13314421,8.34362047 1.48830881,6.68840831 C1.70817262,5.60745343 1.94494902,4.52649855 2.18172542,3.42865376 C2.19863802,3.32731424 2.23246322,3.2935344 2.35085142,3.2935344 C5.78410925,3.2935344 9.20045448,3.2935344 12.6337123,3.31042432 C13.5469927,3.2935344 14.4771857,3.377984 15.3735535,3.56377312 C15.5934173,3.59755296 15.8132811,3.68200255 16.0162323,3.78334207 C16.0838827,3.81712191 16.1515331,3.88468159 16.2022709,3.95224127 C16.2530087,4.01980095 16.2530087,4.08736063 16.2360961,4.17181023 C16.2022709,4.25625983 16.1177079,4.20559007 16.0669701,4.20559007 L7.98274727,4.22247999 L7.98274727,4.22247999 Z" id="Shape"></path>
                                <path d="M24.2526686,7.12754623 C24.320319,6.75596799 24.320319,6.75596799 24.6923962,6.75596799 L81.7555091,6.75596799 C81.7385965,7.12754623 81.7385965,7.12754623 81.3665193,7.12754623 L24.2526686,7.12754623 Z" id="Shape"></path>
                                <path d="M33.9435885,3.98602111 C34.0450641,3.52999328 34.1296271,3.1246352 34.2141901,2.71927712 C34.3833161,1.90856096 34.5524421,1.11473472 34.7046555,0.32090848 C34.7215681,0.21956896 34.7723059,0.1688992 34.8737815,0.18578912 C35.1105579,0.20267904 35.3473343,0.18578912 35.5841107,0.18578912 C35.7024989,0.18578912 35.7194115,0.21956896 35.7024989,0.32090848 C35.3980721,1.73966176 35.0936453,3.15841504 34.8061311,4.57716831 C34.7723059,4.74606751 34.7215681,4.93185663 34.6877429,5.11764575 C34.6708303,5.21898527 34.6370051,5.26965503 34.5186169,5.26965503 C34.1465397,5.25276511 33.7913751,5.25276511 33.4192979,5.26965503 C33.3009097,5.28654495 33.1994341,5.21898527 33.1825215,5.10075583 C33.1825215,5.10075583 33.1825215,5.10075583 33.1825215,5.10075583 C32.8104443,3.95224127 32.4214545,2.82061664 32.0493773,1.67210208 C32.0324647,1.62143232 32.0155521,1.57076256 31.9817269,1.48631296 L31.5081741,3.74956223 C31.4066985,4.20559007 31.3052229,4.66161791 31.2206599,5.13453567 C31.2037473,5.23587519 31.1530095,5.26965503 31.0515339,5.26965503 C30.8316701,5.25276511 30.5948937,5.25276511 30.3750299,5.26965503 C30.2059039,5.28654495 30.2059039,5.20209535 30.2397291,5.08386591 C30.4088551,4.30692959 30.5610685,3.5468832 30.7301945,2.76994688 C30.8993205,1.95923072 31.0853591,1.16540448 31.2544851,0.35468832 C31.2713977,0.23645888 31.3052229,0.20267904 31.4405237,0.20267904 C31.8295135,0.20267904 32.2185033,0.20267904 32.6074931,0.20267904 C32.7089687,0.20267904 32.7597065,0.23645888 32.7766191,0.3377984 C33.1656089,1.53698272 33.5376861,2.73616704 33.9435885,3.98602111 Z" id="Shape"></path>
                                <path d="M48.4376868,5.25276511 C48.0317844,5.25276511 47.6427946,5.25276511 47.2538048,5.25276511 C47.118504,5.25276511 47.0846788,5.21898527 47.1015914,5.08386591 C47.4398434,3.49621344 47.7780954,1.89167104 48.1163474,0.30401856 C48.13326,0.20267904 48.1839978,0.18578912 48.2685608,0.18578912 C49.148016,0.20267904 50.0274713,0.15200928 50.9238391,0.20267904 C51.8371195,0.2533488 52.4628857,0.878275839 52.4797983,1.79033152 C52.4967109,3.07396544 52.0400707,4.12114047 50.9238391,4.83051711 C50.4164611,5.11764575 49.8414326,5.26965503 49.2664042,5.25276511 L48.4376868,5.25276511 Z M48.8435892,4.44204895 C49.2494916,4.47582879 49.655394,4.40826911 50.0443839,4.27314975 C50.8900139,3.93535135 51.4988675,2.82061664 51.3635667,1.92545088 C51.2790037,1.40186336 51.0084021,1.0978448 50.4841115,1.0133952 C50.0782091,0.945835519 49.6723066,1.0133952 49.2494916,0.979615359 C49.1141908,0.979615359 49.0803656,1.03028512 49.063453,1.14851456 C48.8774144,2.06057024 48.6744632,2.98951584 48.4884246,3.91846143 C48.4545994,4.08736063 48.3362112,4.30692959 48.4038616,4.40826911 C48.4884246,4.52649855 48.725201,4.42515903 48.8435892,4.44204895 Z" id="Shape"></path>
                                <path d="M33.2332593,10.5562 C33.2501719,11.9242835 32.3876293,13.1572477 31.0684465,13.5963856 C30.5272433,13.7821747 29.9353023,13.8159545 29.3771865,13.714615 C28.3793431,13.511936 27.702839,12.7687795 27.7366643,11.7384944 C27.7535769,10.5730899 28.2271297,9.59347455 29.2587983,8.98543743 C29.9860401,8.56318943 30.8654953,8.42807007 31.6773001,8.63074911 C32.6582309,8.81653823 33.2332593,9.55969471 33.2332593,10.5562 Z M32.0662899,10.6406496 C32.0662899,10.5393101 32.0493773,10.4548605 32.0493773,10.3704109 C32.0324647,9.88060319 31.6773001,9.45835519 31.2037473,9.37390559 C30.7301945,9.27256607 30.2228165,9.35701567 29.8169141,9.64414431 C29.1742353,10.0832822 28.7175951,11.2486867 28.8867211,12.0087331 C28.9881967,12.4647609 29.2080605,12.8025593 29.6647007,12.9038989 C30.3412047,13.089688 31.0515339,12.870119 31.4743489,12.3127517 C31.8633387,11.8398339 32.0662899,11.2486867 32.0662899,10.6406496 L32.0662899,10.6406496 Z" id="Shape"></path>
                                <path d="M62.1030678,10.9108883 C62.3736694,10.9277782 62.6273584,10.9108883 62.89796,10.8771085 C63.3546002,10.8095488 63.6928522,10.4379705 63.74359,9.98194271 C63.7774152,9.67792415 63.6252018,9.45835519 63.320775,9.44146527 C62.9486978,9.42457535 62.5935332,9.44146527 62.221456,9.42457535 C62.136893,9.42457535 62.1199804,9.47524511 62.1030678,9.54280479 C61.8324662,10.8602185 61.544952,12.1776323 61.2743504,13.4781561 C61.2405252,13.6301654 61.1897874,13.6808352 61.037574,13.6808352 C60.7838849,13.6639453 60.5301959,13.6639453 60.2765069,13.6808352 C60.1073809,13.6977251 60.1073809,13.6301654 60.1412061,13.4950461 C60.3610699,12.4647609 60.5809337,11.4513657 60.8007975,10.4210806 C60.9191857,9.86371327 61.0544866,9.28945599 61.1559622,8.73208863 C61.1728748,8.64763903 61.1897874,8.61385919 61.291263,8.61385919 C62.136893,8.63074911 62.9994356,8.56318943 63.8450656,8.64763903 C64.6061326,8.71519871 64.9612972,9.17122655 64.8767342,9.94816287 C64.7752586,10.7757689 64.3524436,11.2824665 63.5406388,11.4682557 C63.405338,11.5020355 63.4560758,11.5527053 63.4729884,11.6202649 L64.166405,13.4443763 C64.250968,13.6639453 64.250968,13.6639453 64.0141916,13.6639453 C63.7266774,13.6639453 63.4391632,13.6639453 63.151649,13.6639453 C63.067086,13.6639453 63.0163482,13.6470553 62.9994356,13.5626057 C62.6780962,12.7012198 62.390582,11.8060541 62.1030678,10.9108883 C61.6802528,9.61036447 62.1030678,10.9277782 62.1030678,10.9108883 Z" id="Shape"></path>
                                <path d="M26.2821806,0.18578912 C26.2821806,0.18578912 26.2990932,0.18578912 26.2990932,0.18578912 C26.4682192,0.20267904 26.7049956,0.10133952 26.7895586,0.21956896 C26.8741216,0.3377984 26.7557334,0.557367359 26.7219082,0.726266559 C26.5358696,1.62143232 26.3329184,2.51659808 26.1468798,3.41176384 C26.1299672,3.52999328 26.1130546,3.66511264 26.1130546,3.78334207 C26.1299672,4.23936991 26.3667436,4.47582879 26.8064712,4.50960863 C27.7366643,4.57716831 28.2271297,4.17181023 28.4300809,3.19219488 C28.6330321,2.22946944 28.8359833,1.28363392 29.0389345,0.32090848 C29.0558471,0.21956896 29.0896723,0.1688992 29.2080605,0.18578912 C29.4786621,0.18578912 29.7492637,0.20267904 30.0198653,0.18578912 C30.1551661,0.18578912 30.1889913,0.21956896 30.1551661,0.35468832 C29.9860401,1.13162464 29.8169141,1.89167104 29.6477881,2.66860736 C29.5801377,3.00640576 29.5124873,3.36109408 29.4279243,3.69889247 C29.1911479,4.59405823 28.5653817,5.06697599 27.6859264,5.25276511 C27.0939854,5.38788447 26.4682192,5.38788447 25.8762782,5.21898527 C25.1152112,4.99941631 24.7938718,4.45893887 24.9460852,3.69889247 C25.1828616,2.56726784 25.419638,1.45253312 25.6564144,0.32090848 C25.673327,0.21956896 25.7071522,0.1688992 25.8255404,0.18578912 C25.9946664,0.20267904 26.1468798,0.18578912 26.2821806,0.18578912 Z" id="Shape"></path>
                                <path d="M64.4708318,1.21607424 L63.1854742,3.56377312 C62.89796,4.08736063 62.6104458,4.61094815 62.3229316,5.13453567 C62.2891064,5.21898527 62.2045434,5.26965503 62.1199804,5.25276511 C61.798641,5.25276511 61.4773016,5.25276511 61.1390496,5.25276511 C61.1728748,5.16831551 61.2067,5.11764575 61.2405252,5.06697599 C62.136893,3.49621344 63.0501734,1.90856096 63.9465412,0.3377984 C63.997279,0.21956896 64.0987546,0.15200928 64.2171428,0.1688992 C64.5553948,0.18578912 64.8936468,0.1688992 65.2318988,0.1688992 C65.3333744,0.1688992 65.3671996,0.20267904 65.3841122,0.30401856 C65.519413,1.1822944 65.6547138,2.0267904 65.7900146,2.88817632 C65.8914902,3.58066304 66.0098784,4.29003967 66.1282666,4.99941631 C66.1620918,5.25276511 66.1790044,5.25276511 65.9253154,5.25276511 C64.9951224,5.25276511 64.0649294,5.25276511 63.1178238,5.25276511 C63.0501734,5.26965503 62.9656104,5.25276511 62.89796,5.23587519 C63.0332608,4.98252639 63.1685616,4.74606751 63.3038624,4.49271871 C63.3376876,4.42515903 63.405338,4.45893887 63.4560758,4.45893887 C63.8958034,4.45893887 64.3186184,4.45893887 64.758346,4.45893887 C64.8936468,4.45893887 64.9105594,4.42515903 64.8936468,4.30692959 C64.7921712,3.61444288 64.7076082,2.92195616 64.6061326,2.22946944 C64.5723074,1.90856096 64.5215696,1.58765248 64.4708318,1.21607424 Z" id="Shape"></path>
                                <path d="M42.2476752,13.6808352 C42.3998886,13.4105965 42.5182768,13.1741376 42.6535776,12.9376787 C42.6874028,12.8532291 42.7550532,12.8870089 42.8227036,12.8870089 C43.2455186,12.8870089 43.6683336,12.8870089 44.0911486,12.8870089 C44.243362,12.8870089 44.2771872,12.8532291 44.2602746,12.7012198 C44.158799,12.0087331 44.074236,11.3162464 43.9727604,10.6237597 C43.9220226,10.3197411 43.8881974,9.99883263 43.8374596,9.64414431 C43.735984,9.81304351 43.651421,9.96505279 43.5837706,10.1001721 C42.9580044,11.2317968 42.3322382,12.3803113 41.706472,13.511936 C41.6726468,13.6132755 41.5542586,13.6808352 41.452783,13.6639453 C41.1483562,13.6470553 40.8439294,13.6639453 40.5056774,13.6639453 C40.607153,13.4950461 40.691716,13.3430368 40.776279,13.1910275 C41.621909,11.7047145 42.467539,10.2352915 43.313169,8.76586847 C43.3639068,8.64763903 43.4653824,8.58007935 43.5837706,8.59696927 C43.9220226,8.61385919 44.2602746,8.59696927 44.581614,8.59696927 C44.7000022,8.59696927 44.75074,8.63074911 44.7676526,8.74897855 C44.8860408,9.52591487 45.004429,10.3028512 45.1228172,11.0797875 C45.2412054,11.8567238 45.3595936,12.6167702 45.4779818,13.3937065 C45.4779818,13.4274864 45.4779818,13.4443763 45.4948944,13.4612662 C45.5456322,13.6301654 45.4948944,13.6808352 45.3088558,13.6808352 C44.3617502,13.6639453 43.397732,13.6808352 42.4506264,13.6808352 L42.2476752,13.6808352 Z" id="Shape"></path>
                                <path d="M46.4250874,4.44204895 L46.272874,5.16831551 C46.2559614,5.25276511 46.2052236,5.26965503 46.1375732,5.26965503 C44.9875164,5.26965503 43.8374596,5.26965503 42.6874028,5.26965503 C42.5690146,5.26965503 42.5859272,5.23587519 42.6028398,5.13453567 C42.8734414,3.85090175 43.144043,2.56726784 43.4146446,1.28363392 C43.482295,0.962725439 43.566858,0.641816959 43.6175958,0.32090848 C43.6345084,0.21956896 43.6852462,0.18578912 43.7867218,0.18578912 C44.919866,0.18578912 46.0530102,0.18578912 47.1692418,0.18578912 C47.3045426,0.18578912 47.3214552,0.23645888 47.28763,0.3377984 C47.2538048,0.506697599 47.203067,0.675596799 47.1861544,0.861385919 C47.1861544,0.979615359 47.1354166,1.0133952 47.0170284,1.0133952 C46.272874,1.0133952 45.5287196,1.0133952 44.7845652,1.0133952 C44.666177,1.0133952 44.6154392,1.03028512 44.581614,1.16540448 C44.5308762,1.48631296 44.4463132,1.82411136 44.3786628,2.14501984 C44.3448376,2.29702912 44.3786628,2.33080896 44.5308762,2.33080896 C45.1566424,2.31391904 45.765496,2.33080896 46.3912622,2.33080896 C46.5096504,2.33080896 46.5773008,2.33080896 46.526563,2.48281824 C46.4589126,2.66860736 46.4927378,2.92195616 46.3743496,3.05707552 C46.2559614,3.19219488 46.0022724,3.09085536 45.7993212,3.09085536 C45.3088558,3.09085536 44.8183904,3.09085536 44.327925,3.09085536 C44.2095368,3.09085536 44.158799,3.1246352 44.1418864,3.24286464 C44.074236,3.59755296 43.989673,3.96913119 43.90511,4.32381951 C43.8712848,4.44204895 43.90511,4.47582879 44.0404108,4.47582879 C44.835303,4.44204895 45.6132826,4.44204895 46.4250874,4.44204895 Z" id="Shape"></path>
                                <path d="M74.3816155,4.44204895 C74.3308777,4.69539775 74.2801399,4.91496671 74.2294021,5.13453567 C74.2124895,5.23587519 74.1786643,5.25276511 74.0771887,5.25276511 C72.9271319,5.25276511 71.7939876,5.25276511 70.6439308,5.25276511 C70.50863,5.25276511 70.5255426,5.18520543 70.5424552,5.10075583 C70.7454064,4.13803039 70.9483576,3.19219488 71.1513088,2.22946944 C71.2866096,1.6045424 71.4219104,0.979615359 71.5572112,0.35468832 C71.5741238,0.21956896 71.6248616,0.18578912 71.7601624,0.18578912 C72.8594815,0.18578912 73.9757131,0.18578912 75.0750321,0.18578912 C75.2272455,0.18578912 75.2779833,0.21956896 75.2272455,0.371578239 C75.1765077,0.540477439 75.1426825,0.692486719 75.1257699,0.861385919 C75.1088573,0.979615359 75.0581195,0.996505279 74.9566439,0.996505279 C74.2124895,0.996505279 73.4683351,0.996505279 72.7241807,0.996505279 C72.5888799,0.996505279 72.5381421,1.03028512 72.5212295,1.16540448 C72.4535791,1.48631296 72.4028413,1.82411136 72.3182783,2.14501984 C72.2844531,2.29702912 72.3013657,2.33080896 72.4535791,2.33080896 C73.0793453,2.31391904 73.7051115,2.33080896 74.3308777,2.33080896 C74.4661785,2.33080896 74.5169163,2.34769888 74.4661785,2.49970816 C74.4154407,2.65171744 74.3816155,2.7868368 74.3647029,2.93884608 C74.3477903,3.07396544 74.2801399,3.09085536 74.1617517,3.09085536 C73.5359855,3.09085536 72.9102193,3.09085536 72.2844531,3.09085536 C72.1322397,3.09085536 72.0815019,3.14152512 72.0645892,3.27664448 C71.9969388,3.6313328 71.9292884,3.98602111 71.8447254,4.32381951 C71.8109002,4.45893887 71.861638,4.45893887 71.9631136,4.45893887 C72.7072681,4.45893887 73.4345099,4.45893887 74.1786643,4.45893887 L74.3816155,4.44204895 Z" id="Shape"></path>
                                <path d="M78.4744647,13.6808352 C77.9163489,13.6808352 77.3582331,13.6808352 76.7832047,13.6808352 C76.6479039,13.6808352 76.6309913,13.6470553 76.6648165,13.511936 C77.0030685,11.9242835 77.3413205,10.3535209 77.6795725,8.76586847 C77.6964851,8.64763903 77.7472229,8.59696927 77.8825237,8.59696927 C78.9987553,8.59696927 80.1149869,8.59696927 81.2312185,8.59696927 C81.3665193,8.59696927 81.4003445,8.63074911 81.3665193,8.76586847 C81.3157815,8.93476767 81.2819563,9.10366687 81.2650437,9.27256607 C81.2481311,9.40768543 81.1973933,9.42457535 81.0790051,9.42457535 C80.3348507,9.42457535 79.5906963,9.42457535 78.8465419,9.42457535 C78.7281537,9.42457535 78.6774159,9.45835519 78.6435907,9.57658463 C78.5759403,9.91438303 78.5082899,10.2521814 78.4237269,10.5899798 C78.3899017,10.7250992 78.4406395,10.7250992 78.5421151,10.7250992 C79.1678813,10.7250992 79.8105601,10.7250992 80.4363263,10.7250992 C80.5885397,10.7250992 80.6223649,10.7757689 80.5885397,10.9108883 C80.5378019,11.0966774 80.5547145,11.3500262 80.4363263,11.4513657 C80.3179381,11.5527053 80.0473365,11.4851456 79.8443853,11.4851456 C79.3708325,11.4851456 78.8972797,11.4851456 78.4237269,11.4851456 C78.2884261,11.4851456 78.2207757,11.5020355 78.1869505,11.6709347 C78.1362127,12.025623 78.0516497,12.3803113 77.9670867,12.7349997 C77.9332615,12.8532291 77.9670867,12.870119 78.0685623,12.870119 C78.8127167,12.870119 79.5568711,12.870119 80.3010255,12.870119 C80.4363263,12.870119 80.5039767,12.8870089 80.4532389,13.0390182 C80.4025011,13.1910275 80.3855885,13.3430368 80.3686759,13.4950461 C80.3517633,13.6301654 80.3010255,13.6808352 80.1488121,13.6808352 C79.5737837,13.6808352 79.0156679,13.6808352 78.4744647,13.6808352 Z" id="Shape"></path>
                                <path d="M57.4521027,13.6808352 L55.7439301,13.6808352 C55.6593671,13.6808352 55.6086293,13.6808352 55.6424545,13.5626057 C55.9807065,11.9749533 56.3189585,10.3704109 56.6572105,8.78275839 C56.6741231,8.66452895 56.7248609,8.61385919 56.8432491,8.61385919 C57.9594807,8.61385919 59.0757123,8.61385919 60.1919439,8.61385919 C60.3272447,8.61385919 60.3610699,8.64763903 60.3272447,8.76586847 C60.2765069,8.90098783 60.2595943,9.05299711 60.2426817,9.18811647 C60.2257691,9.37390559 60.1581187,9.44146527 59.9551675,9.44146527 C59.2448383,9.42457535 58.5175965,9.44146527 57.7903547,9.44146527 C57.6719665,9.44146527 57.6212287,9.47524511 57.6043161,9.59347455 C57.5366657,9.91438303 57.4690153,10.2521814 57.4013649,10.5730899 C57.3675397,10.7082093 57.3844523,10.758879 57.5535783,10.758879 C58.1793445,10.7419891 58.8051107,10.758879 59.4308769,10.758879 C59.5661777,10.758879 59.6169155,10.7757689 59.5661777,10.9277782 C59.4985273,11.1135673 59.5323525,11.3838061 59.4139643,11.5020355 C59.2955761,11.6202649 59.0418871,11.5358153 58.8389359,11.5358153 C58.3484705,11.5358153 57.8580051,11.5358153 57.3675397,11.5358153 C57.2491515,11.5358153 57.1984137,11.5695952 57.1815011,11.6878246 C57.1138507,12.0425129 57.0292877,12.3972013 56.9616373,12.7518896 C56.9278121,12.8870089 56.9616373,12.9207888 57.0969381,12.9207888 C57.8241799,12.9207888 58.5683343,12.9207888 59.2955761,12.9207888 C59.4647021,12.9207888 59.4816147,12.9714585 59.4477895,13.1065779 C59.4139643,13.2585872 59.3632265,13.4274864 59.3463139,13.5794957 C59.3294013,13.6808352 59.2786635,13.714615 59.1771879,13.714615 C58.5852469,13.6808352 58.0102185,13.6808352 57.4521027,13.6808352 Z" id="Shape"></path>
                                <path d="M25.250512,8.61385919 L26.3329184,8.61385919 C27.2969366,8.61385919 27.5675382,9.28945599 27.4998878,9.94816287 C27.3984122,10.978448 26.5358696,11.7553843 25.504201,11.7384944 C25.3181624,11.7553843 25.1321238,11.7384944 24.9460852,11.7047145 C24.8784348,11.6878246 24.8446096,11.6878246 24.8446096,11.603375 C24.8446096,11.4344758 24.827697,11.2655766 24.8107844,11.0966774 C24.7938718,10.9953379 24.8107844,10.9446681 24.9460852,10.9615581 C25.1828616,10.9953379 25.419638,10.9953379 25.6564144,10.9446681 C26.1130546,10.8264387 26.434394,10.3873008 26.4174814,9.91438303 C26.434394,9.66103423 26.2314428,9.44146527 25.9777538,9.42457535 C25.9608412,9.42457535 25.9439286,9.42457535 25.927016,9.42457535 C25.6225892,9.40768543 25.3181624,9.42457535 25.0137356,9.42457535 C24.8953474,9.42457535 24.8953474,9.49213503 24.8784348,9.55969471 C24.6078332,10.8095488 24.3541442,12.0594029 24.0835426,13.3261469 C24.0158922,13.6639453 24.0158922,13.6639453 23.6776402,13.6639453 C23.474689,13.6639453 23.2548252,13.6639453 23.051874,13.6639453 C22.9334858,13.6639453 22.882748,13.6301654 22.9165732,13.511936 C23.136437,12.4816509 23.3563008,11.4682557 23.5761646,10.4379705 C23.6945528,9.88060319 23.812941,9.30634591 23.9313292,8.74897855 C23.9482418,8.63074911 23.9989796,8.59696927 24.1173678,8.59696927 C24.4725324,8.61385919 24.8615222,8.61385919 25.250512,8.61385919 Z" id="Shape"></path>
                                <path d="M67.1091974,12.6167702 L68.1916038,10.6406496 C68.5298558,10.0157225 68.8681078,9.39079551 69.2063598,8.76586847 C69.240185,8.66452895 69.3416606,8.59696927 69.4600488,8.61385919 C69.7644756,8.63074911 70.0689024,8.61385919 70.3733292,8.61385919 C70.4071544,8.66452895 70.3564166,8.71519871 70.339504,8.74897855 C69.4262236,10.3535209 68.5129432,11.9580633 67.5996628,13.5626057 C67.5658376,13.6301654 67.4981872,13.6808352 67.4136242,13.6808352 C67.0584596,13.6808352 66.703295,13.6808352 66.3312178,13.6808352 C66.2297422,13.6808352 66.195917,13.6470553 66.1790044,13.5457158 C66.026791,12.5661005 65.8745776,11.5864851 65.7392768,10.6237597 C65.6378012,9.99883263 65.5532382,9.37390559 65.4517626,8.73208863 C65.43485,8.61385919 65.4517626,8.59696927 65.5532382,8.59696927 C65.8407524,8.59696927 66.1282666,8.59696927 66.4157808,8.59696927 C66.5003438,8.59696927 66.5510816,8.61385919 66.5510816,8.71519871 C66.6356446,9.37390559 66.7202076,10.0326125 66.8047706,10.6913193 C66.8893336,11.3162464 66.9738966,11.9411734 67.041547,12.5829904 L67.1091974,12.6167702 Z" id="Shape"></path>
                                <path d="M54.9490379,5.25276511 C54.5262229,5.25276511 54.2048835,5.25276511 53.8666315,5.25276511 C53.7313307,5.25276511 53.6805929,5.21898527 53.7144181,5.08386591 C53.7482433,4.91496671 53.7989811,4.74606751 53.8158937,4.57716831 C53.8328063,4.47582879 53.8835441,4.44204895 53.9850197,4.44204895 C54.4247473,4.44204895 54.8813875,4.44204895 55.3380277,4.44204895 C55.5071537,4.44204895 55.6762797,4.42515903 55.8454057,4.40826911 C56.2513081,4.32381951 56.3866089,3.98602111 56.1498325,3.64822272 C56.0145317,3.4624336 55.8454057,3.31042432 55.6762797,3.15841504 C55.3549403,2.90506624 55.0505135,2.6179376 54.7629993,2.31391904 C54.2048835,1.62143232 54.4078347,0.776936319 55.2365521,0.405358079 C55.4225907,0.32090848 55.6086293,0.27023872 55.8115805,0.23645888 C56.5049971,0.13511936 57.2153263,0.20267904 57.9087429,0.18578912 C57.9933059,0.18578912 58.0102185,0.20267904 57.9933059,0.28712864 C57.9425681,0.489807679 57.9087429,0.692486719 57.8580051,0.895165759 C57.8410925,0.996505279 57.7734421,0.996505279 57.7057917,0.996505279 C57.3168019,0.996505279 56.9447247,0.996505279 56.5557349,0.996505279 C56.3696963,0.996505279 56.1836577,1.0133952 55.9976191,1.08095488 C55.7777553,1.13162464 55.6593671,1.3511936 55.7101049,1.55387264 C55.7270175,1.6045424 55.7439301,1.63832224 55.7608427,1.67210208 C55.9130561,1.90856096 56.0990947,2.11124 56.3189585,2.2801392 C56.6572105,2.533488 56.9785499,2.83750656 57.2491515,3.15841504 C57.6550539,3.64822272 57.5874035,4.37448927 57.0969381,4.77984735 C57.0292877,4.83051711 56.9616373,4.88118687 56.8939869,4.91496671 C56.7079483,5.01630623 56.5049971,5.10075583 56.3020459,5.15142559 C55.8792309,5.23587519 55.4056781,5.26965503 54.9490379,5.25276511 Z" id="Shape"></path>
                                <path d="M76.0390503,5.25276511 C75.7007983,5.25276511 75.3625463,5.25276511 75.0412069,5.25276511 C74.9228187,5.25276511 74.8889935,5.21898527 74.9228187,5.11764575 C74.9566439,4.94874655 75.0073817,4.76295743 75.0412069,4.57716831 C75.0581195,4.45893887 75.1088573,4.42515903 75.2272455,4.42515903 C75.6669731,4.42515903 76.1236133,4.42515903 76.5802535,4.42515903 C76.7493795,4.42515903 76.9015929,4.40826911 77.0707189,4.39137919 C77.4935339,4.32381951 77.6288347,3.96913119 77.3920583,3.61444288 C77.2398449,3.42865376 77.0876315,3.25975456 76.9015929,3.1246352 C76.5802535,2.8712864 76.2927393,2.60104768 76.0390503,2.31391904 C75.4471093,1.6045424 75.6500605,0.743156479 76.4956905,0.388468159 C76.6648165,0.32090848 76.8339425,0.27023872 77.0199811,0.23645888 C77.7303103,0.13511936 78.4575521,0.18578912 79.1678813,0.1688992 C79.2524443,0.1688992 79.2693569,0.20267904 79.2524443,0.27023872 C79.2017065,0.456027839 79.1509687,0.658706879 79.1171435,0.861385919 C79.1002309,0.979615359 79.0494931,0.979615359 78.9480175,0.979615359 C78.5759403,0.979615359 78.1869505,0.979615359 77.8148733,0.979615359 C77.6288347,0.979615359 77.4427961,1.0133952 77.2567575,1.06406496 C77.0368937,1.11473472 76.9015929,1.31741376 76.9523307,1.53698272 C76.9692433,1.58765248 76.9861559,1.63832224 77.0199811,1.688992 C77.1552819,1.90856096 77.3244079,2.11124 77.5442717,2.26324928 C77.8317859,2.49970816 78.1023875,2.73616704 78.3560765,2.98951584 C79.0664057,3.73267231 78.8465419,4.67850783 77.8825237,5.05008607 C77.4427961,5.20209535 76.9861559,5.26965503 76.5295157,5.23587519 C76.3434771,5.25276511 76.1912637,5.25276511 76.0390503,5.25276511 Z" id="Shape"></path>
                                <path d="M33.0472207,13.6808352 C33.0979585,13.4274864 33.1486963,13.1910275 33.1994341,12.9545686 C33.2163467,12.8532291 33.3009097,12.8870089 33.3685601,12.8870089 C33.8590255,12.8870089 34.3494909,12.8870089 34.8230437,12.8870089 C34.9921697,12.8870089 35.1443831,12.870119 35.3135091,12.8194493 C35.5502855,12.7687795 35.6855863,12.5492105 35.6517611,12.3127517 C35.6348485,12.245192 35.6010233,12.1776323 35.5671981,12.1269625 C35.4318973,11.9411734 35.2627713,11.7722742 35.0767327,11.6202649 C34.7215681,11.3500262 34.4002287,11.0460077 34.1127145,10.7082093 C33.6729869,10.133952 33.7575499,9.44146527 34.2987531,9.03610719 C34.5017043,8.88409791 34.7215681,8.78275839 34.9583445,8.73208863 C35.2627713,8.66452895 35.5841107,8.61385919 35.8885375,8.63074911 C36.3282651,8.63074911 36.7679927,8.63074911 37.2077203,8.63074911 C37.3768463,8.63074911 37.3937589,8.69830879 37.3599337,8.83342815 C37.3261085,9.00232735 37.2753707,9.17122655 37.2584581,9.32323583 C37.2415455,9.42457535 37.1908077,9.45835519 37.0724195,9.45835519 C36.6665171,9.45835519 36.2606147,9.45835519 35.8547123,9.45835519 C35.6855863,9.45835519 35.5333729,9.47524511 35.3642469,9.54280479 C35.1443831,9.59347455 35.0259949,9.81304351 35.0598201,10.0157225 C35.0767327,10.0663923 35.0936453,10.1001721 35.1105579,10.1508419 C35.1951209,10.3028512 35.3135091,10.4548605 35.4657225,10.5730899 C35.6855863,10.7757689 35.9223627,10.9615581 36.1591391,11.1642371 C36.3451777,11.3162464 36.4973911,11.4851456 36.6326919,11.6709347 C37.0216817,12.1776323 36.9371187,12.9038989 36.4297407,13.292367 C36.3959155,13.3261469 36.3620903,13.3430368 36.3282651,13.3599267 C35.9900131,13.5626057 35.6179359,13.6808352 35.2120335,13.6977251 C35.0090823,13.714615 34.8230437,13.714615 34.6200925,13.714615 C34.1127145,13.6808352 33.5884239,13.6808352 33.0472207,13.6808352 Z" id="Shape"></path>
                                <path d="M52.5981865,13.6808352 C52.1922841,13.6808352 51.8540321,13.6808352 51.5326927,13.6808352 C51.4143045,13.6808352 51.3973919,13.6470553 51.4312171,13.5457158 C51.4819549,13.3768166 51.5157801,13.1910275 51.5496053,13.0052384 C51.5665179,12.8870089 51.6172557,12.870119 51.7187313,12.870119 C52.3106723,12.870119 52.8857007,12.9038989 53.4776417,12.8363392 C53.5791173,12.8363392 53.6636803,12.8025593 53.7482433,12.7687795 C53.9681071,12.6843299 54.0526701,12.4309811 53.9681071,12.2283021 C53.9681071,12.2114121 53.9511945,12.1945222 53.9511945,12.1776323 C53.8497189,12.0087331 53.7144181,11.8398339 53.5622047,11.7216045 C53.2239527,11.4513657 52.8857007,11.1473472 52.5812739,10.8264387 C52.2430219,10.4548605 52.0569833,10.0495024 52.2430219,9.52591487 C52.3783227,9.18811647 52.6320117,8.93476767 52.9702637,8.79964831 C53.3423409,8.64763903 53.7482433,8.58007935 54.1541457,8.58007935 C54.6276985,8.56318943 55.1181639,8.58007935 55.5917167,8.58007935 C55.7101049,8.58007935 55.7608427,8.59696927 55.7101049,8.73208863 C55.6593671,8.90098783 55.6255419,9.08677695 55.5917167,9.27256607 C55.5748041,9.39079551 55.5240663,9.42457535 55.4056781,9.42457535 C54.9997757,9.42457535 54.5938733,9.42457535 54.1879709,9.42457535 C54.0357575,9.42457535 53.8666315,9.44146527 53.7313307,9.50902495 C53.4269039,9.61036447 53.3423409,9.84682335 53.4776417,10.133952 C53.5791173,10.3197411 53.7313307,10.4886403 53.9004567,10.6068697 C54.2556213,10.8771085 54.5769607,11.181127 54.8983001,11.5020355 C55.4733285,12.1776323 55.3042025,13.0221283 54.4923977,13.4105965 C54.2725339,13.511936 54.0188449,13.5794957 53.7820685,13.6132755 C53.3930787,13.6808352 52.9871763,13.6977251 52.5981865,13.6808352 Z" id="Shape"></path>
                                <path d="M76.1067007,12.8194493 C76.0221377,13.0727981 75.9544873,13.3261469 75.8699243,13.5626057 C75.8530117,13.5963856 75.8530117,13.6639453 75.7853613,13.6639453 C75.0242943,13.7652848 74.2632273,13.8497344 73.5021603,13.5963856 C72.5888799,13.292367 72.1153271,12.5661005 72.1998901,11.603375 C72.3521035,9.88060319 73.4683351,8.74897855 75.1765077,8.52940959 C75.6669731,8.47873983 76.1743511,8.49562975 76.6648165,8.58007935 C76.7493795,8.59696927 76.8170299,8.61385919 76.7832047,8.73208863 C76.7493795,8.91787775 76.7324669,9.08677695 76.7155543,9.27256607 C76.6986417,9.42457535 76.6648165,9.47524511 76.4956905,9.42457535 C76.1236133,9.32323583 75.7515361,9.28945599 75.3794589,9.30634591 C74.5000037,9.34012575 73.7220241,9.94816287 73.4345099,10.9277782 C73.3330343,11.2486867 73.3161217,11.5864851 73.3668595,11.9242835 C73.4852477,12.5323206 73.9588005,12.9038989 74.5845667,12.9207888 C75.0242943,12.9376787 75.4471093,12.8870089 75.8699243,12.7856694 C75.9713999,12.8025593 76.0390503,12.8025593 76.1067007,12.8194493 Z" id="Shape"></path>
                                <path d="M59.9889927,0.996505279 L58.4330335,0.996505279 C58.4837713,0.760046399 58.5345091,0.523587519 58.5852469,0.30401856 C58.6021595,0.20267904 58.6528973,0.18578912 58.7374603,0.18578912 C60.0735557,0.18578912 61.3927386,0.18578912 62.728834,0.18578912 C62.8641348,0.18578912 62.8810474,0.23645888 62.8472222,0.3377984 C62.8303096,0.405358079 62.813397,0.472917759 62.7964844,0.540477439 C62.7626592,0.692486719 62.7964844,0.912055679 62.6780962,0.979615359 C62.559708,1.04717504 62.3736694,0.996505279 62.221456,0.996505279 C61.9001166,0.996505279 61.5956898,0.996505279 61.2743504,0.996505279 C61.1728748,0.996505279 61.122137,1.0133952 61.1052244,1.13162464 C60.8346227,2.41525856 60.5640211,3.69889247 60.2934195,4.98252639 C60.2426817,5.25276511 60.2426817,5.25276511 59.9551675,5.25276511 C59.7183911,5.25276511 59.4816147,5.25276511 59.2617509,5.25276511 C59.1602753,5.25276511 59.1264501,5.23587519 59.1433627,5.11764575 C59.4308769,3.80023199 59.7014785,2.49970816 59.9889927,1.1822944 C59.9720801,1.13162464 59.9720801,1.08095488 59.9889927,0.996505279 Z" id="Shape"></path>
                                <path d="M68.0055652,0.996505279 C67.5320124,0.996505279 67.0584596,0.996505279 66.5849068,0.996505279 C66.449606,0.996505279 66.4326934,0.945835519 66.449606,0.844495999 C66.4834312,0.675596799 66.534169,0.506697599 66.5679942,0.3377984 C66.5849068,0.23645888 66.618732,0.18578912 66.7371202,0.18578912 C68.056303,0.18578912 69.3923984,0.18578912 70.7115812,0.18578912 C70.846882,0.18578912 70.8637946,0.23645888 70.8299694,0.3377984 L70.8130568,0.405358079 C70.762319,0.591147199 70.7961442,0.878275839 70.6608434,0.962725439 C70.5255426,1.04717504 70.2718536,1.0133952 70.0689024,1.0133952 C69.7983008,1.0133952 69.5446118,1.0133952 69.2740102,1.0133952 C69.1725346,1.0133952 69.1217968,1.03028512 69.0879716,1.14851456 C68.81737,2.46592832 68.5298558,3.76645215 68.2592542,5.06697599 C68.225429,5.21898527 68.1746912,5.26965503 68.0055652,5.25276511 C67.7518762,5.23587519 67.4812746,5.25276511 67.2275856,5.25276511 C67.1091974,5.25276511 67.0753722,5.23587519 67.1091974,5.10075583 C67.379799,3.81712191 67.6504006,2.51659808 67.9379148,1.23296416 L68.0055652,0.996505279 Z" id="Shape"></path>
                                <path d="M40.0828624,8.61385919 C40.7255412,8.61385919 41.3851326,8.61385919 42.0278114,8.61385919 C42.1631122,8.61385919 42.2307626,8.61385919 42.1800248,8.78275839 C42.129287,8.95165759 42.0954618,9.12055679 42.0785492,9.28945599 C42.0616366,9.39079551 42.0278114,9.42457535 41.9094232,9.42457535 C41.4866082,9.42457535 41.0637932,9.42457535 40.6409782,9.42457535 C40.4887648,9.42457535 40.4549396,9.47524511 40.438027,9.59347455 C40.1674254,10.9108883 39.8799112,12.2283021 39.6093096,13.5288259 C39.592397,13.6470553 39.5416592,13.6639453 39.4401836,13.6639453 C39.169582,13.6639453 38.8820678,13.6639453 38.6114661,13.6639453 C38.4930779,13.6639453 38.4592527,13.6301654 38.4930779,13.511936 C38.7805921,12.1945222 39.0511938,10.8771085 39.338708,9.57658463 C39.3725332,9.42457535 39.3217954,9.40768543 39.2034072,9.40768543 C38.7805921,9.40768543 38.3577771,9.40768543 37.9349621,9.40768543 C37.8334865,9.40768543 37.7996613,9.39079551 37.8334865,9.27256607 C37.8842243,9.08677695 37.9349621,8.90098783 37.9518747,8.71519871 C37.9687873,8.59696927 38.0195251,8.58007935 38.1210007,8.58007935 C38.7467669,8.61385919 39.423271,8.61385919 40.0828624,8.61385919 Z" id="Shape"></path>
                                <path d="M40.776279,0.18578912 C41.4189578,0.18578912 42.0616366,0.18578912 42.7043154,0.18578912 C42.890354,0.18578912 42.9410918,0.21956896 42.8734414,0.405358079 C42.8227036,0.557367359 42.7888784,0.709376639 42.7719658,0.878275839 C42.7550532,0.996505279 42.7043154,0.996505279 42.6197524,0.996505279 C42.1969374,0.996505279 41.7572098,0.996505279 41.3343948,0.996505279 C41.2160066,0.996505279 41.1652688,1.03028512 41.1483562,1.14851456 C40.8777546,2.41525856 40.607153,3.66511264 40.3365514,4.93185663 C40.268901,5.25276511 40.268901,5.25276511 39.9475616,5.25276511 C39.7276978,5.25276511 39.5247466,5.25276511 39.3048828,5.25276511 C39.169582,5.25276511 39.1357568,5.21898527 39.169582,5.08386591 C39.3217954,4.35759935 39.4909214,3.6313328 39.6431348,2.88817632 C39.761523,2.29702912 39.8799112,1.70588192 40.015212,1.11473472 C40.0490372,0.979615359 39.9982994,0.979615359 39.8968238,0.979615359 C39.4740088,0.979615359 39.0342812,0.979615359 38.6114661,0.979615359 C38.5099905,0.979615359 38.4592527,0.962725439 38.5099905,0.844495999 C38.5607283,0.675596799 38.5945535,0.506697599 38.6283787,0.32090848 C38.6452913,0.18578912 38.6960291,0.1688992 38.8144174,0.1688992 C39.4740088,0.18578912 40.1336002,0.18578912 40.776279,0.18578912 Z" id="Shape"></path>
                                <path d="M47.4060182,12.8870089 L49.7061318,12.8870089 C49.655394,13.1234678 49.6046562,13.3599267 49.5539184,13.5963856 C49.5370058,13.6808352 49.486268,13.6977251 49.4186176,13.6977251 C48.3531238,13.6977251 47.28763,13.6977251 46.2221362,13.6977251 C46.103748,13.6977251 46.103748,13.6639453 46.1206606,13.5626057 C46.4589126,11.9749533 46.7971646,10.3704109 47.1354166,8.78275839 C47.1523292,8.68141887 47.203067,8.63074911 47.3214552,8.63074911 C47.5920568,8.64763903 47.879571,8.63074911 48.1501726,8.63074911 C48.2516482,8.63074911 48.302386,8.63074911 48.2685608,8.76586847 C47.9810466,10.0663923 47.710445,11.3500262 47.4398434,12.6505501 C47.4398434,12.7181097 47.4229308,12.7856694 47.4060182,12.8870089 Z" id="Shape"></path>
                                <path d="M36.2944399,5.25276511 C36.1591391,5.25276511 36.0238383,5.25276511 35.8716249,5.25276511 C35.7701493,5.25276511 35.7194115,5.25276511 35.7532367,5.11764575 C35.9731005,4.12114047 36.1760517,3.1246352 36.3790029,2.12812992 C36.4973911,1.55387264 36.6326919,0.979615359 36.7341675,0.388468159 C36.7679927,0.21956896 36.8187305,0.1688992 37.0047691,0.1688992 C37.2584581,0.18578912 37.5290597,0.1688992 37.7827487,0.1688992 C37.8673117,0.1688992 37.9180495,0.1688992 37.8842243,0.28712864 C37.5459723,1.89167104 37.2077203,3.47932352 36.8694683,5.08386591 C36.8525557,5.20209535 36.8018179,5.25276511 36.6665171,5.25276511 C36.5650415,5.25276511 36.4297407,5.25276511 36.2944399,5.25276511 Z" id="Shape"></path>
                                <path d="M70.5593678,13.6808352 C70.424067,13.6808352 70.2887662,13.6808352 70.1365528,13.6808352 C69.9843394,13.6808352 69.9843394,13.6470553 70.001252,13.5288259 C70.2380284,12.3972013 70.4917174,11.2655766 70.7284938,10.1170621 C70.8299694,9.66103423 70.931445,9.20500639 71.016008,8.74897855 C71.0329206,8.63074911 71.0667458,8.59696927 71.2020466,8.59696927 C71.4726482,8.61385919 71.7432498,8.61385919 72.0138514,8.59696927 C72.1491523,8.59696927 72.1829775,8.63074911 72.1491523,8.76586847 C71.946201,9.72859391 71.7432498,10.6913193 71.5402986,11.6540448 C71.4049978,12.2789718 71.269697,12.9038989 71.1343962,13.5288259 C71.1174836,13.6470553 71.0667458,13.6808352 70.9652702,13.6639453 C70.846882,13.6808352 70.6946686,13.6808352 70.5593678,13.6808352 Z" id="Shape"></path>
                                <path d="M17.639842,4.93185663 C17.0648136,4.96563647 16.4728725,5.03319615 15.8640189,5.10075583 C15.4412039,5.15142559 15.0014763,5.18520543 14.5786613,5.16831551 C14.4771857,5.16831551 14.3757101,5.15142559 14.3587975,5.03319615 C14.3418849,4.91496671 14.4771857,4.88118687 14.5786613,4.86429695 C14.9507385,4.83051711 15.3228157,4.77984735 15.6948929,4.71228767 C15.9316693,4.67850783 16.1346205,4.56027839 16.2868339,4.37448927 C16.3375717,4.29003967 16.4390473,4.25625983 16.5405229,4.27314975 C17.047901,4.27314975 17.555279,4.25625983 18.0795696,4.30692959 C18.14722,4.30692959 18.1979578,4.32381951 18.2656082,4.34070943 C18.7053358,4.44204895 18.8744618,4.67850783 18.7560736,5.10075583 C18.6376854,5.52300383 18.4516468,5.92836191 18.1979578,6.31683007 C18.1810452,6.35060991 18.14722,6.38438975 18.1303074,6.40127967 C18.0964822,6.43505951 18.0457444,6.46883935 17.9950066,6.43505951 C17.9442688,6.40127967 17.9442688,6.35060991 17.9611814,6.29994015 C18.0288318,6.08037119 18.0964822,5.87769215 18.1810452,5.65812319 C18.231783,5.52300383 18.2656082,5.37099455 18.2825208,5.21898527 C18.2994334,5.10075583 18.2148704,4.99941631 18.0964822,4.98252639 C18.0964822,4.98252639 18.0795696,4.98252639 18.0795696,4.98252639 C17.9273562,4.94874655 17.7751428,4.93185663 17.639842,4.93185663 Z" id="Shape"></path>
                            </g>
                        </g>
                        <g id="Group" transform="translate(82.364363, 11.147347)">
                            <path d="M0,1.31741376 C0,0.591147199 0.591941005,0 1.31918281,0 C2.04642462,0 2.63836562,0.591147199 2.63836562,1.31741376 C2.63836562,2.04368032 2.04642462,2.63482752 1.31918281,2.63482752 C0.591941005,2.63482752 0,2.04368032 0,1.31741376 Z M2.36776402,1.31741376 C2.36776402,0.743156479 1.89421122,0.27023872 1.31918281,0.27023872 C0.744154407,0.27023872 0.270601602,0.743156479 0.270601602,1.31741376 C0.270601602,1.89167104 0.744154407,2.3645888 1.31918281,2.3645888 C1.89421122,2.3645888 2.36776402,1.89167104 2.36776402,1.31741376 Z" id="Shape"></path>
                            <path d="M0.744154407,0.591147199 C0.744154407,0.591147199 0.744154407,0.591147199 0.744154407,0.591147199 C0.930193008,0.591147199 1.13314421,0.591147199 1.31918281,0.591147199 C1.40374581,0.591147199 1.47139621,0.608037119 1.55595921,0.624927039 C1.60669701,0.641816959 1.67434742,0.658706879 1.70817262,0.709376639 C1.75891042,0.743156479 1.77582302,0.793826239 1.79273562,0.861385919 C1.80964822,0.945835519 1.80964822,1.03028512 1.79273562,1.11473472 C1.77582302,1.1822944 1.72508522,1.24985408 1.65743481,1.28363392 C1.62360961,1.30052384 1.58978441,1.31741376 1.55595921,1.33430368 C1.55595921,1.33430368 1.55595921,1.33430368 1.55595921,1.33430368 C1.55595921,1.33430368 1.55595921,1.33430368 1.55595921,1.33430368 C1.60669701,1.3511936 1.65743481,1.38497344 1.69126002,1.41875328 C1.72508522,1.46942304 1.75891042,1.5200928 1.79273562,1.57076256 C1.86038602,1.70588192 1.92803642,1.84100128 1.99568682,1.95923072 C1.99568682,1.95923072 1.99568682,1.95923072 1.99568682,1.95923072 C1.99568682,1.95923072 1.99568682,1.95923072 1.99568682,1.95923072 C1.87729862,1.95923072 1.75891042,1.95923072 1.62360961,1.95923072 C1.62360961,1.95923072 1.62360961,1.95923072 1.60669701,1.95923072 C1.55595921,1.84100128 1.48830881,1.72277184 1.43757101,1.62143232 C1.42065841,1.58765248 1.40374581,1.55387264 1.36992061,1.5200928 C1.33609541,1.48631296 1.28535761,1.45253312 1.23461981,1.45253312 C1.20079461,1.45253312 1.15005681,1.45253312 1.11623161,1.45253312 C1.11623161,1.45253312 1.09931901,1.45253312 1.09931901,1.45253312 C1.09931901,1.62143232 1.09931901,1.80722144 1.09931901,1.97612064 C0.980930809,1.97612064 0.862542608,1.97612064 0.744154407,1.97612064 C0.744154407,1.5200928 0.744154407,1.04717504 0.744154407,0.591147199 Z M1.09931901,1.19918432 C1.15005681,1.19918432 1.21770721,1.19918432 1.26844501,1.19918432 C1.30227021,1.19918432 1.31918281,1.19918432 1.35300801,1.1822944 C1.40374581,1.16540448 1.43757101,1.13162464 1.45448361,1.08095488 C1.47139621,1.03028512 1.47139621,0.979615359 1.45448361,0.945835519 C1.43757101,0.895165759 1.40374581,0.861385919 1.36992061,0.844495999 C1.33609541,0.827606079 1.30227021,0.827606079 1.26844501,0.827606079 C1.21770721,0.827606079 1.16696941,0.827606079 1.11623161,0.827606079 C1.11623161,0.827606079 1.11623161,0.827606079 1.11623161,0.827606079 C1.09931901,0.962725439 1.09931901,1.08095488 1.09931901,1.19918432 Z" id="Shape"></path>
                        </g>
                    </g>
                </g>
            </g>
        </g>
    </g>
</svg>