<?xml version="1.0" encoding="UTF-8"?>
<svg width="100px" height="100px" viewBox="0 0 100 100" version="1.1" xmlns="http://www.w3.org/2000/svg" xmlns:xlink="http://www.w3.org/1999/xlink">
    <!-- Generator: Sketch 60 (88103) - https://sketch.com -->
    <title>Shopify</title>
    <desc>Created with Sketch.</desc>
    <g id="Delivarables-Page" stroke="none" stroke-width="1" fill="none" fill-rule="evenodd">
        <g id="Extra-Large-Devices-1280px-" transform="translate(-160.000000, -1255.000000)">
            <g id="Group-24-Copy" transform="translate(20.000000, 1255.000000)">
                <g id="Shopify" transform="translate(140.000000, 0.000000)">
                    <circle id="Oval-Copy-2" fill="#8DB849" cx="50" cy="50" r="50"></circle>
                    <g transform="translate(7.000000, 38.000000)" fill="#FFFFFE">
                        <path d="M29.8821533,13.9047256 C29.1435163,13.4980496 28.7635082,13.1554416 28.7635082,12.6845022 C28.7635082,12.0848406 29.2910511,11.6996509 30.1146265,11.6996509 C31.0736027,11.6996509 31.9301135,12.1063269 31.9301135,12.1063269 L32.605769,10.0080974 C32.605769,10.0080974 31.9846205,9.51567178 30.1568068,9.51567178 C27.6126982,9.51567178 25.8499848,10.9929488 25.8499848,13.069692 C25.8499848,14.2473335 26.673175,15.1466305 27.7712115,15.7888739 C28.6579611,16.3025905 28.9746024,16.6666847 28.9746024,17.2018875 C28.9746024,17.7587719 28.5312276,18.2084204 27.7078447,18.2084204 C26.4811487,18.2084204 25.3222493,17.5659817 25.3222493,17.5659817 L24.6044136,19.6642111 C24.6044136,19.6642111 25.674715,20.3922042 27.4755641,20.3922042 C30.0934401,20.3922042 31.9722938,19.0860358 31.9722938,16.7309481 C31.9722938,15.4677522 31.02237,14.5684552 29.8821533,13.9047256" id="Fill-4"></path>
                        <path d="M40.311477,9.49438086 C39.0237255,9.49438086 38.0104349,10.115138 37.2292323,11.0570168 L37.187052,11.0357259 L38.3060823,5.10513173 L35.3925589,5.10513173 L32.5635887,20.1994139 L35.4769195,20.1994139 L36.4480298,15.03959 C36.8282304,13.0911782 37.8203346,11.8922458 38.7494571,11.8922458 C39.4037335,11.8922458 39.657008,12.3418943 39.657008,12.9841377 C39.657008,13.3908137 39.6150203,13.8832393 39.5304671,14.2901107 L38.4326232,20.1994139 L41.3461467,20.1994139 L42.4861708,14.0975158 C42.6127118,13.4550771 42.697265,12.6845022 42.697265,12.1705903 C42.697265,10.5005231 41.8315092,9.49438086 40.311477,9.49438086" id="Fill-5"></path>
                        <path d="M47.8486564,18.144157 C46.8563597,18.144157 46.4341713,17.2876371 46.4341713,16.2170362 C46.4341713,14.525678 47.2997345,11.763719 48.8831334,11.763719 C49.9176105,11.763719 50.2552456,12.663016 50.2552456,13.5406314 C50.2552456,15.360907 49.389875,18.144157 47.8486564,18.144157 Z M49.2843279,9.49438086 C45.7797023,9.49438086 43.4574737,12.7057931 43.4574737,16.2812996 C43.4574737,18.5721239 44.8505797,20.4134951 47.4684557,20.4134951 C50.9097146,20.4134951 53.2319432,17.2876371 53.2319432,13.626381 C53.2319432,11.5066653 52.0075584,9.49438086 49.2843279,9.49438086 L49.2843279,9.49438086 Z" id="Fill-6"></path>
                        <path d="M57.8977795,18.1867388 C57.1414229,18.1867388 56.6945812,17.7587719 56.6945812,17.7587719 L57.1801363,14.9966175 C57.517964,13.1554416 58.4678878,11.9350229 59.481371,11.9350229 C60.3679281,11.9350229 60.642389,12.7700565 60.642389,13.5621176 C60.642389,15.4677522 59.5235513,18.1867388 57.8977795,18.1867388 Z M60.6845693,9.49438086 C58.7182733,9.49438086 57.6023247,11.2500024 57.6023247,11.2500024 L57.5601443,11.2500024 L57.7290582,9.6654895 L55.1533625,9.6654895 C55.026629,10.7360905 54.7945409,12.3631852 54.5622603,13.5836039 L52.5354865,24.3958729 L55.4490099,24.3958729 L56.2512063,20.02811 L56.3145731,20.02811 C56.3145731,20.02811 56.9126091,20.4134951 58.0247056,20.4134951 C61.444778,20.4134951 63.6824534,16.8594749 63.6824534,13.2624822 C63.6824534,11.2712933 62.8170828,9.49438086 60.6845693,9.49438086 L60.6845693,9.49438086 Z" id="Fill-7"></path>
                        <path d="M67.8415481,5.25494946 C66.9128107,5.25494946 66.1739811,6.00423341 66.1739811,6.96779382 C66.1739811,7.84560458 66.722903,8.4450708 67.5460932,8.4450708 L67.5884662,8.4450708 C68.4962097,8.4450708 69.2776048,7.82431366 69.2985987,6.73242177 C69.2985987,5.87590193 68.7284903,5.25494946 67.8415481,5.25494946" id="Fill-8"></path>
                        <polyline id="Fill-9" points="63.7671992 20.1994139 66.6807227 20.1994139 68.6651235 9.7297529 65.7306062 9.7297529 63.7671992 20.1994139"></polyline>
                        <path d="M76.0751841,9.70826666 L74.0484104,9.70826666 L74.1539574,9.21603633 C74.3228713,8.20950343 74.9139735,7.31040175 75.8850838,7.31040175 C76.4039595,7.31040175 76.8138212,7.46002415 76.8138212,7.46002415 L77.3839295,5.14790889 C77.3839295,5.14790889 76.8773805,4.89085528 75.8007232,4.89085528 C74.7662461,4.89085528 73.7315765,5.19068605 72.9507591,5.87590193 C71.9582698,6.73242177 71.4939011,7.97393606 71.2616205,9.21603633 L71.1772598,9.70826666 L69.8261415,9.70826666 L69.4039532,11.9350229 L70.7548789,11.9350229 L69.2136602,20.1994139 L72.1271837,20.1994139 L73.6684023,11.9350229 L75.6739896,11.9350229 L76.0751841,9.70826666" id="Fill-10"></path>
                        <path d="M83.0842428,9.7297529 C83.0842428,9.7297529 81.2631703,14.3834782 80.445373,16.9237383 L80.4031927,16.9237383 C80.3471448,16.1058937 79.6853569,9.7297529 79.6853569,9.7297529 L76.6241061,9.7297529 L78.3766115,19.3428941 C78.4185992,19.5569752 78.3976053,19.685502 78.3132447,19.8355151 C77.975417,20.4992447 77.4053086,21.1414881 76.7296531,21.6124275 C76.1807312,22.0192989 75.5686351,22.2761572 75.08308,22.4474611 L75.8850838,24.9525619 C76.4763786,24.8240351 77.700956,24.3316095 78.7352405,23.3467581 C80.0653649,22.0835623 81.2899423,20.1351505 82.5565074,17.480232 L86.1243072,9.7297529 L83.0842428,9.7297529" id="Fill-11"></path>
                        <path d="M14.8709687,2.91744137 L14.8709687,2.91744137 C14.8709687,2.91744137 14.8709687,2.91744137 14.8711616,2.91744137 L14.8709687,2.91744137" id="Fill-12"></path>
                        <path d="M20.3913897,14.644829 C20.3507502,14.3664845 20.3099182,14.086968 20.2692787,13.8074515 C20.2284466,13.5277396 20.1876145,13.2480278 20.1471676,12.9694879 C19.9235542,11.437128 19.7049484,9.93543486 19.5167741,8.6456742 C19.4653488,8.29369044 19.41662,7.95752838 19.370395,7.64089926 C19.2473209,6.79648985 19.1442777,6.08978773 19.0716659,5.59052553 C18.9990541,5.09126334 18.9564886,4.79905041 18.9543699,4.78381471 C18.9503252,4.75334331 18.940695,4.72599718 18.9272127,4.70236231 C18.8863807,4.6314577 18.8104946,4.59219647 18.7452018,4.58653192 C18.6581447,4.5791094 16.8153079,4.44062078 16.8153079,4.44062078 C16.8153079,4.44062078 16.6901152,4.31482859 16.514075,4.13746941 C16.4435818,4.06636947 16.3649993,3.98726102 16.28295,3.90463665 C16.2417327,3.86322679 16.1999376,3.82123095 16.1577572,3.77864912 C16.0733966,3.69348546 15.9878804,3.60754048 15.9060236,3.52511143 C15.6606459,3.27762896 15.4476256,3.06315717 15.3950447,3.00944156 C15.3713544,2.98561136 15.342849,2.96822704 15.3131879,2.95396798 C15.2611848,2.93228641 15.2299829,2.92251993 15.1974328,2.91744137 L14.1635336,24.3644248 L21.5716681,22.7390881 C21.5716681,22.7390881 21.0002115,18.8207784 20.3913897,14.644829 Z" id="Fill-13"></path>
                        <path d="M11.9179614,3.76653869 C11.9183466,3.68371898 11.9187319,3.60246191 11.9187319,3.51339166 C11.9187319,2.73812889 11.812607,2.11366049 11.6421523,1.61889087 C12.3262823,1.70600783 12.7817912,2.49513899 13.0749347,3.40342116 C12.7317141,3.51124304 12.3411128,3.63371463 11.9179614,3.76653869 Z M10.4077521,11.4943596 C10.4077521,11.4943596 9.60728909,11.0609234 8.6261634,11.0609234 C7.18760278,11.0609234 7.11537621,11.9766281 7.11537621,12.2071169 C7.11537621,13.4660155 10.3505486,13.9480887 10.3505486,16.8963921 C10.3505486,19.2159299 8.90004654,20.7096146 6.94395849,20.7096146 C4.59649875,20.7096146 3.39638211,19.2282357 3.39638211,19.2282357 L4.02484955,17.122193 C4.02484955,17.122193 5.25867192,18.1965053 6.29989012,18.1965053 C6.97997548,18.1965053 7.25694029,17.653294 7.25694029,17.2565797 C7.25694029,15.61464 4.60266208,15.5413914 4.60266208,12.8433051 C4.60266208,10.5725997 6.20955876,8.37514284 9.45378356,8.37514284 C10.7037847,8.37514284 11.3212737,8.73826038 11.3212737,8.73826038 L10.4077521,11.4943596 Z M9.87520151,0.890897836 C10.0086762,0.890897836 10.1431139,0.936604938 10.2717735,1.02665184 C9.28082501,1.49954455 8.21861296,2.69046849 7.77003782,5.06880045 C7.11441319,5.27487307 6.47361909,5.47606245 5.88097603,5.66221146 C6.40678544,3.84799109 7.6540901,0.890897836 9.87520151,0.890897836 Z M11.1076757,3.8851037 C11.1076757,3.93295942 11.1072904,3.97671323 11.1069052,4.02105303 C10.3544007,4.25740172 9.53679596,4.51406468 8.71726518,4.77150895 C9.17739656,2.97057099 10.0398781,2.10076874 10.7939234,1.77241986 C10.9840238,2.25586036 11.1076757,2.9494754 11.1076757,3.8851037 Z M14.5470085,2.94205288 C14.5310223,2.94674079 14.2673472,3.02936517 13.8307135,3.16629115 C13.4031323,1.91872165 12.6487017,0.772137502 11.3212737,0.772137502 C11.2846789,0.772137502 11.2471211,0.773895467 11.2089855,0.776044092 C10.8314813,0.269554706 10.3640309,0.0496136922 9.96013995,0.0496136922 C6.86787984,0.0496136922 5.39079839,3.96968137 4.92758534,5.96184691 C3.72612046,6.33941883 2.87249874,6.60780155 2.76348477,6.6425702 C2.09264441,6.85606534 2.07165056,6.87735626 1.98382305,7.51803701 C1.91718201,8.00343081 0.162365324,21.7665425 0.162365324,21.7665425 L13.8362991,24.3646201 L13.8370695,24.3646201 L14.8709687,2.91744137 C14.7465464,2.89771309 14.6138421,2.92212928 14.5470085,2.94205288 L14.5470085,2.94205288 Z" id="Fill-14"></path>
                    </g>
                </g>
            </g>
        </g>
    </g>
</svg>