<?xml version="1.0" encoding="UTF-8"?>
<svg width="152px" height="52px" viewBox="0 0 152 52" version="1.1" xmlns="http://www.w3.org/2000/svg" xmlns:xlink="http://www.w3.org/1999/xlink">
    <!-- Generator: Sketch 62 (91390) - https://sketch.com -->
    <title>Hims </title>
    <desc>Created with Sketch.</desc>
    <g id="Homepage" stroke="none" stroke-width="1" fill="none" fill-rule="evenodd">
        <g id="Extra-Large-Devices-1440px" transform="translate(-344.000000, -2935.000000)">
            <g id="Hims-" transform="translate(345.000000, 2936.000000)">
                <rect id="Rectangle" stroke="#FFFFFF" x="0" y="0" width="150" height="50"></rect>
                <g id="hims_logo" transform="translate(24.000000, 8.000000)" fill="#72757B" fill-rule="nonzero">
                    <path d="M12.1,34 C12.48,33.81 12.94,33.7 12.85,33.12 C12.76,32.54 12.24,32.56 11.85,32.46 C10.891241,32.310865 10.228547,31.4213429 10.36,30.46 C10.42,26.84 10.36,23.21 10.36,19.58 C10.3272269,18.6065222 10.4939799,17.6366327 10.85,16.73 C11.5334307,15.00408 13.2980875,13.9592716 15.14,14.19 C16.79,14.41 17.73,15.47 17.94,17.56 C18.2033345,21.6412268 18.2567383,25.733291 18.1,29.82 C18.1,31.06 18,32.47 16.23,32.71 C15.9,32.71 15.76,33.09 15.81,33.45 C15.836595,33.7777254 16.1220025,34.0229975 16.45,34 L17.38,34 L53,34 C53.5,34 54.09,34 54.23,33.4 C54.37,32.8 53.79,32.6 53.3,32.4 C51.77,31.91 51.46,31.49 51.46,29.88 C51.46,25.88 51.46,21.88 51.46,17.88 C51.3689074,16.7534218 51.8733111,15.6611791 52.79,15 C53.8575408,14.166058 55.2940228,13.9783577 56.54,14.51 C57.5444291,14.8230326 58.2470514,15.7292557 58.3,16.78 C58.46,21.37 58.68,25.95 58.48,30.55 C58.5429485,31.4356544 57.9541838,32.2362048 57.09,32.44 C56.61,32.58 56.16,32.75 56.31,33.38 C56.46,34.01 56.9,33.93 57.31,33.93 C60.5366667,33.93 63.7733333,33.93 67.02,33.93 C67.55,33.93 68.1,33.79 68.16,33.17 C68.22,32.55 67.66,32.44 67.16,32.35 C65.93,32.11 65.56,31.35 65.56,30.15 C65.56,25.98 65.56,21.81 65.56,17.63 C65.5334473,16.8972598 65.7873713,16.1819808 66.27,15.63 C67.3249182,14.4372142 68.995333,13.9988784 70.5,14.52 C71.8905776,14.9780122 72.7844499,16.3312357 72.66,17.79 L72.66,30.54 C72.7580941,31.4401076 72.1415696,32.2621402 71.25,32.42 C70.83,32.52 70.35,32.68 70.42,33.23 C70.49,33.78 71.02,33.98 71.57,33.98 L81.28,33.98 C81.72,33.98 82.17,33.98 82.28,33.38 C82.39,32.78 82.04,32.57 81.58,32.47 C80.12,32.18 79.87,31.19 79.86,29.87 C79.81,25.36 80.07,20.87 79.71,16.32 C79.6816681,13.7220823 77.7776906,11.5261616 75.21,11.13 C71.9586145,10.3634959 68.540322,11.2971264 66.13,13.61 C65.04,14.61 65.06,14.61 64.13,13.44 C63.6417418,12.7306123 62.9945537,12.1450611 62.24,11.73 C59.06,10.21 56.14,10.83 53.34,12.73 C52.71,13.17 52.1,14.24 51.53,13.98 C50.79,13.65 51.31,12.52 51.22,11.74 C51.15,11.14 50.94,10.79 50.35,11.15 C47.7457763,12.6025035 44.9273073,13.6320042 42,14.2 C41.69,14.27 41.41,14.37 41.38,14.77 C41.35,15.17 41.63,15.39 41.98,15.51 C42.16,15.57 42.36,15.59 42.54,15.64 C44.28,16.04 44.36,16.12 44.36,17.89 L44.36,29.7 C44.36,31.7 43.47,32.59 41.43,32.61 C38.92,32.61 38.02,31.89 38.02,29.73 C38.02,23.9633333 38.02,18.1933333 38.02,12.42 C38.02,10.86 37.89,10.78 36.58,11.5 C34.460191,12.6605089 32.192895,13.5284056 29.84,14.08 C29.33,14.2 28.55,14.08 28.51,14.88 C28.47,15.68 29.24,15.57 29.7,15.74 C30.37,15.99 30.85,16.26 30.85,17.12 L30.85,30.45 C30.8889688,31.0034646 30.6801518,31.5456561 30.28,31.93 C29.2496371,32.7568568 27.840707,32.9310377 26.64,32.38 C25.49,32 25.27,31 25.27,29.94 C25.27,25.6933333 25.27,21.4433333 25.27,17.19 C25.4575489,14.0472773 23.1323937,11.3162126 20,11 C16.9093785,10.5978507 13.7972892,11.5658128 11.48,13.65 C11.23,13.87 10.97,14.27 10.6,14.06 C10.23,13.85 10.44,13.42 10.44,13.06 C10.44,9.16 10.44,5.26 10.44,1.36 C10.4944781,0.897872738 10.4290441,0.429502841 10.25,-2.48681284e-14 C9.93511119,-0.0204711957 9.62320166,0.0716838923 9.37,0.26 C7.05686185,1.63054852 4.5274583,2.59767341 1.89,3.12 C1.49,3.2 0.94,3.25 0.89,3.77 C0.84,4.29 1.37,4.53 1.83,4.62 C2.83,4.81 3.13,5.39 3.16,6.35 C3.35,12.55 3.16,18.75 3.23,24.94 L3.23,29.85 C3.23,31.2 2.88,32.22 1.45,32.61 C1.21133753,32.6538983 1.01162498,32.8166472 0.920454086,33.0415354 C0.829283193,33.2664236 0.85928308,33.5222993 1,33.72 L2,33.96 L2,34 L12.07,34 L12.1,34 Z" id="Path"></path>
                    <path d="M98.22,31.17 C101.22,28.17 100.68,24.03 97.01,21.24 C95.3,19.95 93.36,19.01 91.69,17.65 C91.0017574,17.2007684 90.486869,16.5307081 90.23,15.75 C90.0537531,15.0804856 90.1607166,14.367949 90.5257755,13.7796935 C90.8908344,13.191438 91.4818311,12.7792822 92.16,12.64 C93.96,12.18 94.93,12.64 95.41,14.31 C96.15,16.82 96.95,17.39 99.16,17.16 C99.7841164,17.1240086 100.360142,16.8131134 100.732758,16.3111434 C101.105374,15.8091735 101.236215,15.1678141 101.09,14.56 C101.057986,14.4017063 100.993272,14.2518414 100.9,14.12 C100.177263,12.8428125 98.9927979,11.8909462 97.59,11.46 C94.3823322,10.4895233 90.9191372,10.8498974 87.98,12.46 C83.72,14.89 83.19,19.74 86.76,22.86 C87.6741917,23.6507085 88.6506935,24.3663639 89.68,25 C91.0712485,25.7818734 92.3412375,26.7621567 93.45,27.91 C94.318614,28.7665319 94.4842191,30.1079332 93.85,31.15 C92.98,32.62 91.51,32.68 90.04,32.57 C89.0673388,32.4961113 88.2898666,31.7313153 88.2,30.76 C88.0528494,29.9542925 87.7687391,29.1797536 87.36,28.47 C86.4653379,27.3363014 84.907952,26.9676649 83.6,27.58 C82.4686639,28.1413155 81.9625393,29.4808004 82.44,30.65 C82.7776654,31.6998204 83.5288308,32.5665496 84.52,33.05 C85.19,33.44 85.96,33.63 86.67,33.96 L92.56,33.96 C94.6892899,33.6360967 96.6662905,32.6615681 98.22,31.17 L98.22,31.17 Z" id="Path"></path>
                    <path d="M34.09,9.54 C35.5213718,9.61273721 36.8762674,8.89048654 37.6137796,7.66158797 C38.3512917,6.4326894 38.3512917,4.8973106 37.6137796,3.66841203 C36.8762674,2.43951346 35.5213718,1.71726279 34.09,1.79 C32.0263323,1.89486824 30.4069137,3.59866951 30.4069137,5.665 C30.4069137,7.73133049 32.0263323,9.43513176 34.09,9.54 L34.09,9.54 Z" id="Path"></path>
                </g>
            </g>
        </g>
    </g>
</svg>