<svg xmlns="http://www.w3.org/2000/svg" viewBox="0 0 450 450" width="450" height="450" preserveAspectRatio="xMidYMid meet" style="width: 100%; height: 100%; transform: translate3d(0px, 0px, 0px);"><defs><clipPath id="__lottie_element_15"><rect width="450" height="450" x="0" y="0"></rect></clipPath></defs><g clip-path="url(#__lottie_element_15)"><g transform="matrix(2.5,0,0,2.5,-102.5,21.5)" opacity="1" style="display: block;"><g opacity="1" transform="matrix(1,0,0,1,132.8000030517578,69.80000305175781)"><path fill="rgb(208,214,219)" fill-opacity="1" d=" M0,-1 C0.5529999732971191,-1 1,-0.5519999861717224 1,0 C1,0.5519999861717224 0.5529999732971191,1 0,1 C-0.5519999861717224,1 -1,0.5519999861717224 -1,0 C-1,-0.5519999861717224 -0.5519999861717224,-1 0,-1z"></path></g><g opacity="1" transform="matrix(1,0,0,1,151.7429962158203,116.22000122070312)"><path fill="rgb(181,113,64)" fill-opacity="1" d=" M-19.448999404907227,-10.449999809265137 C-19.448999404907227,-10.449999809265137 19.448999404907227,-32.849998474121094 19.448999404907227,-32.849998474121094 C19.448999404907227,-32.849998474121094 19.448999404907227,10.449000358581543 19.448999404907227,10.449000358581543 C19.448999404907227,10.449000358581543 -19.448999404907227,32.849998474121094 -19.448999404907227,32.849998474121094 C-19.448999404907227,32.849998474121094 -19.448999404907227,-10.449999809265137 -19.448999404907227,-10.449999809265137z"></path></g><g opacity="1" transform="matrix(1,0,0,1,112.89399719238281,116.22000122070312)"><path fill="rgb(255,180,120)" fill-opacity="1" d=" M19.399999618530273,-10.449999809265137 C19.399999618530273,-10.449999809265137 -19.399999618530273,-32.849998474121094 -19.399999618530273,-32.849998474121094 C-19.399999618530273,-32.849998474121094 -19.399999618530273,10.449000358581543 -19.399999618530273,10.449000358581543 C-19.399999618530273,10.449000358581543 19.399999618530273,32.849998474121094 19.399999618530273,32.849998474121094 C19.399999618530273,32.849998474121094 19.399999618530273,-10.449999809265137 19.399999618530273,-10.449999809265137z"></path></g><g opacity="1" transform="matrix(1,0,0,1,132.35000610351562,96.8499984741211)"><path fill="rgb(120,65,31)" fill-opacity="1" d=" M-0.05000000074505806,8.949999809265137 C-0.05000000074505806,8.949999809265137 38.849998474121094,-13.449999809265137 38.849998474121094,-13.449999809265137 C38.849998474121094,-13.449999809265137 38.849998474121094,-8.949999809265137 38.849998474121094,-8.949999809265137 C38.849998474121094,-8.949999809265137 -0.05000000074505806,13.449999809265137 -0.05000000074505806,13.449999809265137 C-0.05000000074505806,13.449999809265137 -38.849998474121094,-8.949999809265137 -38.849998474121094,-8.949999809265137 C-38.849998474121094,-8.949999809265137 -38.849998474121094,-13.449999809265137 -38.849998474121094,-13.449999809265137 C-38.849998474121094,-13.449999809265137 -0.05000000074505806,8.949999809265137 -0.05000000074505806,8.949999809265137z"></path></g><g opacity="1" transform="matrix(1,0,0,1,132.35000610351562,75.3499984741211)"><path fill="rgb(255,187,137)" fill-opacity="1" d=" M-40.349998474121094,-0.05000000074505806 C-40.349998474121094,-0.05000000074505806 -0.05000000074505806,-23.350000381469727 -0.05000000074505806,-23.350000381469727 C-0.05000000074505806,-23.350000381469727 40.349998474121094,-0.05000000074505806 40.349998474121094,-0.05000000074505806 C40.349998474121094,-0.05000000074505806 -0.05000000074505806,23.350000381469727 -0.05000000074505806,23.350000381469727 C-0.05000000074505806,23.350000381469727 -40.349998474121094,-0.05000000074505806 -40.349998474121094,-0.05000000074505806z"></path></g><g opacity="1" transform="matrix(1,0,0,1,152.5,91.94999694824219)"><path fill="rgb(181,112,65)" fill-opacity="1" d=" M20.200000762939453,-16.649999618530273 C20.200000762939453,-16.649999618530273 20.200000762939453,-7.449999809265137 20.200000762939453,-7.449999809265137 C20.200000762939453,-7.449999809265137 -20.200000762939453,16.649999618530273 -20.200000762939453,16.649999618530273 C-20.200000762939453,16.649999618530273 -20.200000762939453,6.75 -20.200000762939453,6.75 C-20.200000762939453,6.75 20.200000762939453,-16.649999618530273 20.200000762939453,-16.649999618530273z"></path></g><g opacity="1" transform="matrix(1,0,0,1,112.1500015258789,91.94999694824219)"><path fill="rgb(255,179,119)" fill-opacity="1" d=" M20.149999618530273,6.750999927520752 C20.149999618530273,6.750999927520752 -20.149999618530273,-16.649999618530273 -20.149999618530273,-16.649999618530273 C-20.149999618530273,-16.649999618530273 -20.149999618530273,-7.449999809265137 -20.149999618530273,-7.449999809265137 C-20.149999618530273,-7.449999809265137 20.149999618530273,16.649999618530273 20.149999618530273,16.649999618530273 C20.149999618530273,16.649999618530273 20.149999618530273,6.750999927520752 20.149999618530273,6.750999927520752z"></path></g></g><g transform="matrix(2.5,0,0,2.5,-102,21.5)" opacity="1" style="display: block;"><g opacity="1" transform="matrix(1,0,0,1,132.10000610351562,47.599998474121094)"><path fill="rgb(235,98,98)" fill-opacity="1" d=" M-0.10000000149011612,-21.600000381469727 C8.199999809265137,-21.600000381469727 15.100000381469727,-14.5 15.100000381469727,-5.699999809265137 C15.100000381469727,2.5999999046325684 5.599999904632568,16.5 -0.10000000149011612,21.600000381469727 C-5.599999904632568,16.399999618530273 -15.100000381469727,2.799999952316284 -15.100000381469727,-5.699999809265137 C-15.100000381469727,-14.5 -8.399999618530273,-21.600000381469727 -0.10000000149011612,-21.600000381469727z"></path></g><g opacity="1" transform="matrix(1,0,0,1,132,41)"><path fill="rgb(255,255,255)" fill-opacity="1" d=" M0,-7 C3.865999937057495,-7 7,-3.865999937057495 7,0 C7,3.865999937057495 3.865999937057495,7 0,7 C-3.865999937057495,7 -7,3.865999937057495 -7,0 C-7,-3.865999937057495 -3.865999937057495,-7 0,-7z"></path></g></g></g></svg>