<svg xmlns="http://www.w3.org/2000/svg" viewBox="0 0 450 450" width="450" height="450" preserveAspectRatio="xMidYMid meet" style="width: 100%; height: 100%; transform: translate3d(0px, 0px, 0px);"><defs><clipPath id="__lottie_element_5"><rect width="450" height="450" x="0" y="0"></rect></clipPath></defs><g clip-path="url(#__lottie_element_5)"><g transform="matrix(2.5,0,0,2.5,-102.5,-27.5)" opacity="1" style="display: block;"><g opacity="1" transform="matrix(1,0,0,1,131,101)"><path stroke-linecap="butt" stroke-linejoin="miter" fill-opacity="0" stroke-miterlimit="4" stroke="rgb(255,255,255)" stroke-opacity="1" stroke-width="1" d=" M-130,-100 C-130,-100 130,-100 130,-100 C130,-100 130,100 130,100 C130,100 -130,100 -130,100 C-130,100 -130,-100 -130,-100z"></path></g><g opacity="1" transform="matrix(1,0,0,1,130.39999389648438,96.44999694824219)"><path fill="rgb(235,240,245)" fill-opacity="1" d=" M-36.70000076293945,-35.650001525878906 C-36.70000076293945,-35.650001525878906 36.69900131225586,-35.650001525878906 36.69900131225586,-35.650001525878906 C36.69900131225586,-35.650001525878906 36.69900131225586,35.650001525878906 36.69900131225586,35.650001525878906 C36.69900131225586,35.650001525878906 -36.70000076293945,35.650001525878906 -36.70000076293945,35.650001525878906 C-36.70000076293945,35.650001525878906 -36.70000076293945,-35.650001525878906 -36.70000076293945,-35.650001525878906z"></path></g><g opacity="1" transform="matrix(1,0,0,1,130.39999389648438,66.19999694824219)"><path fill="rgb(0,0,0)" fill-opacity="1" d=" M-29.700000762939453,-16.200000762939453 C-29.700000762939453,-16.200000762939453 29.698999404907227,-16.200000762939453 29.698999404907227,-16.200000762939453 C29.698999404907227,-16.200000762939453 29.698999404907227,16.200000762939453 29.698999404907227,16.200000762939453 C29.698999404907227,16.200000762939453 -29.700000762939453,16.200000762939453 -29.700000762939453,16.200000762939453 C-29.700000762939453,16.200000762939453 -29.700000762939453,-16.200000762939453 -29.700000762939453,-16.200000762939453z"></path><path fill="rgb(248,249,250)" fill-opacity="1" d=" M-29.700000762939453,-16.200000762939453 C-29.700000762939453,-16.200000762939453 29.698999404907227,-16.200000762939453 29.698999404907227,-16.200000762939453 C29.698999404907227,-16.200000762939453 29.698999404907227,16.200000762939453 29.698999404907227,16.200000762939453 C29.698999404907227,16.200000762939453 -29.700000762939453,16.200000762939453 -29.700000762939453,16.200000762939453 C-29.700000762939453,16.200000762939453 -29.700000762939453,-16.200000762939453 -29.700000762939453,-16.200000762939453z"></path></g><g opacity="1" transform="matrix(1,0,0,1,130.39999389648438,82.3499984741211)"><path fill="rgb(204,218,223)" fill-opacity="1" d=" M-51.29999923706055,-4.849999904632568 C-51.29999923706055,-4.849999904632568 51.29999923706055,-4.849999904632568 51.29999923706055,-4.849999904632568 C51.900001525878906,-4.849999904632568 52.400001525878906,-4.349999904632568 52.400001525878906,-3.75 C52.400001525878906,-3.75 52.400001525878906,4.849999904632568 52.400001525878906,4.849999904632568 C52.400001525878906,4.849999904632568 -52.400001525878906,4.849999904632568 -52.400001525878906,4.849999904632568 C-52.400001525878906,4.849999904632568 -52.400001525878906,-3.75 -52.400001525878906,-3.75 C-52.400001525878906,-4.349999904632568 -51.900001525878906,-4.849999904632568 -51.29999923706055,-4.849999904632568z"></path></g><g opacity="1" transform="matrix(1,0,0,1,130.39999389648438,103.5)"><path fill="rgb(138,161,172)" fill-opacity="1" d=" M-52.400001525878906,-16.200000762939453 C-52.400001525878906,-16.200000762939453 52.400001525878906,-16.200000762939453 52.400001525878906,-16.200000762939453 C52.400001525878906,-16.200000762939453 52.400001525878906,15.100000381469727 52.400001525878906,15.100000381469727 C52.400001525878906,15.699999809265137 51.900001525878906,16.200000762939453 51.29999923706055,16.200000762939453 C51.29999923706055,16.200000762939453 -51.29999923706055,16.200000762939453 -51.29999923706055,16.200000762939453 C-51.900001525878906,16.200000762939453 -52.400001525878906,15.699999809265137 -52.400001525878906,15.100000381469727 C-52.400001525878906,15.100000381469727 -52.400001525878906,-16.200000762939453 -52.400001525878906,-16.200000762939453z"></path></g><g opacity="1" transform="matrix(1,0,0,1,130.14999389648438,111.5999984741211)"><path fill="rgb(93,120,133)" fill-opacity="1" d=" M-40.25,-8.100000381469727 C-40.25,-8.100000381469727 40.25,-8.100000381469727 40.25,-8.100000381469727 C40.25,-8.100000381469727 40.25,8.100000381469727 40.25,8.100000381469727 C40.25,8.100000381469727 -40.25,8.100000381469727 -40.25,8.100000381469727 C-40.25,8.100000381469727 -40.25,-8.100000381469727 -40.25,-8.100000381469727z"></path></g><g opacity="1" transform="matrix(1,0,0,1,130.39999389648438,128.1999969482422)"><path fill="rgb(0,0,0)" fill-opacity="1" d=" M-29.700000762939453,-21 C-29.700000762939453,-21 29.698999404907227,-21 29.698999404907227,-21 C29.698999404907227,-21 29.698999404907227,21 29.698999404907227,21 C29.698999404907227,21 -29.700000762939453,21 -29.700000762939453,21 C-29.700000762939453,21 -29.700000762939453,-21 -29.700000762939453,-21z"></path><path fill="rgb(248,249,250)" fill-opacity="1" d=" M-29.700000762939453,-21 C-29.700000762939453,-21 29.698999404907227,-21 29.698999404907227,-21 C29.698999404907227,-21 29.698999404907227,21 29.698999404907227,21 C29.698999404907227,21 -29.700000762939453,21 -29.700000762939453,21 C-29.700000762939453,21 -29.700000762939453,-21 -29.700000762939453,-21z"></path></g><g opacity="1" transform="matrix(1,0,0,1,178.6999969482422,98.0999984741211)"><path fill="rgb(235,98,98)" fill-opacity="1" d=" M-1.899999976158142,-1.100000023841858 C-1.899999976158142,-1.100000023841858 1.899999976158142,-1.100000023841858 1.899999976158142,-1.100000023841858 C1.899999976158142,-1.100000023841858 1.899999976158142,1.100000023841858 1.899999976158142,1.100000023841858 C1.899999976158142,1.100000023841858 -1.899999976158142,1.100000023841858 -1.899999976158142,1.100000023841858 C-1.899999976158142,1.100000023841858 -1.899999976158142,-1.100000023841858 -1.899999976158142,-1.100000023841858z"></path></g><g opacity="1" transform="matrix(1,0,0,1,178.6999969482422,102.4000015258789)"><path fill="rgb(153,224,255)" fill-opacity="1" d=" M-1.899999976158142,-1.100000023841858 C-1.899999976158142,-1.100000023841858 1.899999976158142,-1.100000023841858 1.899999976158142,-1.100000023841858 C1.899999976158142,-1.100000023841858 1.899999976158142,1.100000023841858 1.899999976158142,1.100000023841858 C1.899999976158142,1.100000023841858 -1.899999976158142,1.100000023841858 -1.899999976158142,1.100000023841858 C-1.899999976158142,1.100000023841858 -1.899999976158142,-1.100000023841858 -1.899999976158142,-1.100000023841858z"></path></g><g opacity="1" transform="matrix(1,0,0,1,147.41000366210938,131.85000610351562)"><path fill="rgb(28,32,43)" fill-opacity="1" d=" M-2.950000047683716,-7.550000190734863 C-2.950000047683716,-7.550000190734863 2.950000047683716,-7.550000190734863 2.950000047683716,-7.550000190734863 C2.950000047683716,-7.550000190734863 2.950000047683716,7.551000118255615 2.950000047683716,7.551000118255615 C2.950000047683716,7.551000118255615 -2.950000047683716,7.551000118255615 -2.950000047683716,7.551000118255615 C-2.950000047683716,7.551000118255615 -2.950000047683716,-7.550000190734863 -2.950000047683716,-7.550000190734863z"></path></g><g opacity="1" transform="matrix(1,0,0,1,130.10899353027344,131.85000610351562)"><path fill="rgb(28,32,43)" fill-opacity="1" d=" M-2.9489998817443848,-7.550000190734863 C-2.9489998817443848,-7.550000190734863 2.950000047683716,-7.550000190734863 2.950000047683716,-7.550000190734863 C2.950000047683716,-7.550000190734863 2.950000047683716,7.551000118255615 2.950000047683716,7.551000118255615 C2.950000047683716,7.551000118255615 -2.9489998817443848,7.551000118255615 -2.9489998817443848,7.551000118255615 C-2.9489998817443848,7.551000118255615 -2.9489998817443848,-7.550000190734863 -2.9489998817443848,-7.550000190734863z"></path></g><g opacity="1" transform="matrix(1,0,0,1,112.80999755859375,131.85000610351562)"><path fill="rgb(28,32,43)" fill-opacity="1" d=" M-2.950000047683716,-7.550000190734863 C-2.950000047683716,-7.550000190734863 2.950000047683716,-7.550000190734863 2.950000047683716,-7.550000190734863 C2.950000047683716,-7.550000190734863 2.950000047683716,7.551000118255615 2.950000047683716,7.551000118255615 C2.950000047683716,7.551000118255615 -2.950000047683716,7.551000118255615 -2.950000047683716,7.551000118255615 C-2.950000047683716,7.551000118255615 -2.950000047683716,-7.550000190734863 -2.950000047683716,-7.550000190734863z"></path></g><g opacity="1" transform="matrix(1,0,0,1,141.16000366210938,131.85000610351562)"><path fill="rgb(28,32,43)" fill-opacity="1" d=" M-1.600000023841858,-7.550000190734863 C-1.600000023841858,-7.550000190734863 1.600000023841858,-7.550000190734863 1.600000023841858,-7.550000190734863 C1.600000023841858,-7.550000190734863 1.600000023841858,7.551000118255615 1.600000023841858,7.551000118255615 C1.600000023841858,7.551000118255615 -1.600000023841858,7.551000118255615 -1.600000023841858,7.551000118255615 C-1.600000023841858,7.551000118255615 -1.600000023841858,-7.550000190734863 -1.600000023841858,-7.550000190734863z"></path></g><g opacity="1" transform="matrix(1,0,0,1,136.25999450683594,131.85000610351562)"><path fill="rgb(28,32,43)" fill-opacity="1" d=" M-1.600000023841858,-7.550000190734863 C-1.600000023841858,-7.550000190734863 1.600000023841858,-7.550000190734863 1.600000023841858,-7.550000190734863 C1.600000023841858,-7.550000190734863 1.600000023841858,7.551000118255615 1.600000023841858,7.551000118255615 C1.600000023841858,7.551000118255615 -1.600000023841858,7.551000118255615 -1.600000023841858,7.551000118255615 C-1.600000023841858,7.551000118255615 -1.600000023841858,-7.550000190734863 -1.600000023841858,-7.550000190734863z"></path></g><g opacity="1" transform="matrix(1,0,0,1,123.86000061035156,131.85000610351562)"><path fill="rgb(28,32,43)" fill-opacity="1" d=" M-1.600000023841858,-7.550000190734863 C-1.600000023841858,-7.550000190734863 1.600000023841858,-7.550000190734863 1.600000023841858,-7.550000190734863 C1.600000023841858,-7.550000190734863 1.600000023841858,7.551000118255615 1.600000023841858,7.551000118255615 C1.600000023841858,7.551000118255615 -1.600000023841858,7.551000118255615 -1.600000023841858,7.551000118255615 C-1.600000023841858,7.551000118255615 -1.600000023841858,-7.550000190734863 -1.600000023841858,-7.550000190734863z"></path></g><g opacity="1" transform="matrix(1,0,0,1,119.05999755859375,131.85000610351562)"><path fill="rgb(28,32,43)" fill-opacity="1" d=" M-1.600000023841858,-7.550000190734863 C-1.600000023841858,-7.550000190734863 1.600000023841858,-7.550000190734863 1.600000023841858,-7.550000190734863 C1.600000023841858,-7.550000190734863 1.600000023841858,7.551000118255615 1.600000023841858,7.551000118255615 C1.600000023841858,7.551000118255615 -1.600000023841858,7.551000118255615 -1.600000023841858,7.551000118255615 C-1.600000023841858,7.551000118255615 -1.600000023841858,-7.550000190734863 -1.600000023841858,-7.550000190734863z"></path></g><g opacity="1" transform="matrix(1,0,0,1,152,57.349998474121094)"><path fill="rgb(28,32,43)" fill-opacity="1" d=" M-6.300000190734863,-5.849999904632568 C-6.300000190734863,-5.849999904632568 6.300000190734863,-5.849999904632568 6.300000190734863,-5.849999904632568 C6.300000190734863,-5.849999904632568 6.300000190734863,5.849999904632568 6.300000190734863,5.849999904632568 C6.300000190734863,5.849999904632568 -6.300000190734863,5.849999904632568 -6.300000190734863,5.849999904632568 C-6.300000190734863,5.849999904632568 -6.300000190734863,-5.849999904632568 -6.300000190734863,-5.849999904632568z"></path></g><g opacity="1" transform="matrix(1,0,0,1,130.0500030517578,71)"><path fill="rgb(28,32,43)" fill-opacity="1" d=" M-27.25,-1.100000023841858 C-27.25,-1.100000023841858 27.25,-1.100000023841858 27.25,-1.100000023841858 C27.25,-1.100000023841858 27.25,1.100000023841858 27.25,1.100000023841858 C27.25,1.100000023841858 -27.25,1.100000023841858 -27.25,1.100000023841858 C-27.25,1.100000023841858 -27.25,-1.100000023841858 -27.25,-1.100000023841858z"></path></g><g opacity="1" transform="matrix(1,0,0,1,134.31500244140625,55.09600067138672)"><path fill="rgb(28,32,43)" fill-opacity="1" d=" M-8.399999618530273,-0.6000000238418579 C-8.399999618530273,-0.6000000238418579 8.399999618530273,-0.6000000238418579 8.399999618530273,-0.6000000238418579 C8.399999618530273,-0.6000000238418579 8.399999618530273,0.6000000238418579 8.399999618530273,0.6000000238418579 C8.399999618530273,0.6000000238418579 -8.399999618530273,0.6000000238418579 -8.399999618530273,0.6000000238418579 C-8.399999618530273,0.6000000238418579 -8.399999618530273,-0.6000000238418579 -8.399999618530273,-0.6000000238418579z"></path></g><g opacity="1" transform="matrix(1,0,0,1,134.1649932861328,57.49599838256836)"><path fill="rgb(28,32,43)" fill-opacity="1" d=" M-6.75,-0.6000000238418579 C-6.75,-0.6000000238418579 6.75,-0.6000000238418579 6.75,-0.6000000238418579 C6.75,-0.6000000238418579 6.75,0.6000000238418579 6.75,0.6000000238418579 C6.75,0.6000000238418579 -6.75,0.6000000238418579 -6.75,0.6000000238418579 C-6.75,0.6000000238418579 -6.75,-0.6000000238418579 -6.75,-0.6000000238418579z"></path></g><g opacity="1" transform="matrix(1,0,0,1,134.1649932861328,59.89500045776367)"><path fill="rgb(28,32,43)" fill-opacity="1" d=" M-8.850000381469727,-0.6000000238418579 C-8.850000381469727,-0.6000000238418579 8.850000381469727,-0.6000000238418579 8.850000381469727,-0.6000000238418579 C8.850000381469727,-0.6000000238418579 8.850000381469727,0.6000000238418579 8.850000381469727,0.6000000238418579 C8.850000381469727,0.6000000238418579 -8.850000381469727,0.6000000238418579 -8.850000381469727,0.6000000238418579 C-8.850000381469727,0.6000000238418579 -8.850000381469727,-0.6000000238418579 -8.850000381469727,-0.6000000238418579z"></path></g><g opacity="1" transform="matrix(1,0,0,1,120.58799743652344,76.08399963378906)"><path fill="rgb(28,32,43)" fill-opacity="1" d=" M-18.649999618530273,-0.550000011920929 C-18.649999618530273,-0.550000011920929 18.649999618530273,-0.550000011920929 18.649999618530273,-0.550000011920929 C18.649999618530273,-0.550000011920929 18.649999618530273,0.550000011920929 18.649999618530273,0.550000011920929 C18.649999618530273,0.550000011920929 -18.649999618530273,0.550000011920929 -18.649999618530273,0.550000011920929 C-18.649999618530273,0.550000011920929 -18.649999618530273,-0.550000011920929 -18.649999618530273,-0.550000011920929z"></path></g><g opacity="1" transform="matrix(1,0,0,1,0,0)"><path stroke-linecap="butt" stroke-linejoin="miter" fill-opacity="0" stroke-miterlimit="4" stroke="rgb(28,32,43)" stroke-opacity="1" stroke-width="0.599" d=" M160.10000610351562,68 C160.10000610351562,68 100.4000015258789,68 100.4000015258789,68"></path></g><g opacity="1" transform="matrix(1,0,0,1,0,0)"><path stroke-linecap="butt" stroke-linejoin="miter" fill-opacity="0" stroke-miterlimit="4" stroke="rgb(93,108,124)" stroke-opacity="1" stroke-width="0.599" d=" M100.0999984741211,74 C100.0999984741211,74 159.8000030517578,74 159.8000030517578,74"></path></g><g opacity="1" transform="matrix(1,0,0,1,0,0)"><path stroke-linecap="butt" stroke-linejoin="miter" fill-opacity="0" stroke-miterlimit="4" stroke="rgb(28,32,43)" stroke-opacity="1" stroke-width="0.599" d=" M118.0999984741211,50 C118.0999984741211,50 118.0999984741211,68 118.0999984741211,68"></path></g><g opacity="1" transform="matrix(1,0,0,1,110.25,58.45000076293945)"><path fill="rgb(28,32,43)" fill-opacity="1" d=" M-2.049999952316284,6.050000190734863 C-2.049999952316284,6.050000190734863 -2.049999952316284,1.0499999523162842 -2.049999952316284,1.0499999523162842 C-2.049999952316284,1.0499999523162842 -0.550000011920929,1.0499999523162842 -0.550000011920929,1.0499999523162842 C0.05000000074505806,1.0499999523162842 0.6499999761581421,1.0499999523162842 1.25,0.949999988079071 C1.850000023841858,0.8500000238418579 2.3499999046325684,0.6499999761581421 2.75,0.44999998807907104 C3.1500000953674316,0.25 3.549999952316284,-0.15000000596046448 3.8499999046325684,-0.6499999761581421 C4.150000095367432,-1.149999976158142 4.25,-1.75 4.25,-2.450000047683716 C4.25,-3.1500000953674316 4.150000095367432,-3.6500000953674316 3.8499999046325684,-4.150000095367432 C3.6500000953674316,-4.550000190734863 3.25,-4.949999809265137 2.8499999046325684,-5.25 C2.450000047683716,-5.550000190734863 1.9500000476837158,-5.75 1.4500000476837158,-5.849999904632568 C0.949999988079071,-5.949999809265137 0.3499999940395355,-6.050000190734863 -0.25,-6.050000190734863 C-0.25,-6.050000190734863 -4.25,-6.050000190734863 -4.25,-6.050000190734863 C-4.25,-6.050000190734863 -4.25,5.949999809265137 -4.25,5.949999809265137 C-4.25,5.949999809265137 -2.049999952316284,5.949999809265137 -2.049999952316284,5.949999809265137 C-2.049999952316284,5.949999809265137 -2.049999952316284,6.050000190734863 -2.049999952316284,6.050000190734863z M-0.75,-0.75 C-0.75,-0.75 -2.049999952316284,-0.75 -2.049999952316284,-0.75 C-2.049999952316284,-0.75 -2.049999952316284,-4.150000095367432 -2.049999952316284,-4.150000095367432 C-2.049999952316284,-4.150000095367432 -0.550000011920929,-4.150000095367432 -0.550000011920929,-4.150000095367432 C-0.25,-4.150000095367432 0.05000000074505806,-4.150000095367432 0.3499999940395355,-4.050000190734863 C0.6499999761581421,-4.050000190734863 0.949999988079071,-3.950000047683716 1.149999976158142,-3.8499999046325684 C1.350000023841858,-3.75 1.649999976158142,-3.549999952316284 1.75,-3.3499999046325684 C1.850000023841858,-3.1500000953674316 1.9500000476837158,-2.8499999046325684 1.9500000476837158,-2.450000047683716 C1.9500000476837158,-2.049999952316284 1.850000023841858,-1.75 1.649999976158142,-1.4500000476837158 C1.4500000476837158,-1.25 1.25,-1.0499999523162842 0.949999988079071,-0.949999988079071 C0.6499999761581421,-0.8500000238418579 0.3499999940395355,-0.75 0.05000000074505806,-0.75 C0.05000000074505806,-0.75 -0.75,-0.75 -0.75,-0.75z"></path></g><g opacity="1" transform="matrix(1,0,0,1,129.85000610351562,110.6500015258789)"><path fill="rgb(28,32,43)" fill-opacity="1" d=" M-26.450000762939453,-0.5509999990463257 C-26.450000762939453,-0.5509999990463257 26.450000762939453,-0.5509999990463257 26.450000762939453,-0.5509999990463257 C26.450000762939453,-0.5509999990463257 26.450000762939453,0.5509999990463257 26.450000762939453,0.5509999990463257 C26.450000762939453,0.5509999990463257 -26.450000762939453,0.5509999990463257 -26.450000762939453,0.5509999990463257 C-26.450000762939453,0.5509999990463257 -26.450000762939453,-0.5509999990463257 -26.450000762939453,-0.5509999990463257z"></path></g><g opacity="1" transform="matrix(1,0,0,1,129.85000610351562,113.35099792480469)"><path fill="rgb(28,32,43)" fill-opacity="1" d=" M-26.450000762939453,-0.5509999990463257 C-26.450000762939453,-0.5509999990463257 26.450000762939453,-0.5509999990463257 26.450000762939453,-0.5509999990463257 C26.450000762939453,-0.5509999990463257 26.450000762939453,0.5509999990463257 26.450000762939453,0.5509999990463257 C26.450000762939453,0.5509999990463257 -26.450000762939453,0.5509999990463257 -26.450000762939453,0.5509999990463257 C-26.450000762939453,0.5509999990463257 -26.450000762939453,-0.5509999990463257 -26.450000762939453,-0.5509999990463257z"></path></g><g opacity="1" transform="matrix(1,0,0,1,0,0)"><path stroke-linecap="butt" stroke-linejoin="miter" fill-opacity="0" stroke-miterlimit="4" stroke="rgb(28,32,43)" stroke-opacity="1" stroke-width="0.594" d=" M100.69999694824219,118.9000015258789 C100.69999694824219,118.9000015258789 160.0989990234375,118.9000015258789 160.0989990234375,118.9000015258789"></path></g><g opacity="1" transform="matrix(1,0,0,1,0,0)"><path stroke-linecap="butt" stroke-linejoin="miter" fill-opacity="0" stroke-miterlimit="4" stroke="rgb(28,32,43)" stroke-opacity="1" stroke-width="0.594" d=" M100.69999694824219,144.8000030517578 C100.69999694824219,144.8000030517578 160.0989990234375,144.8000030517578 160.0989990234375,144.8000030517578"></path></g></g><g transform="matrix(1,0,0,1,225.06298828125,224.93800354003906)" opacity="1" style="display: block;"><g opacity="1" transform="matrix(1,0,0,1,119,-7.015999794006348)"><path fill="rgb(230,33,44)" fill-opacity="1" d=" M5,-2.984499931335449 C5,-2.984499931335449 5,2.984499931335449 5,2.984499931335449 C5,2.984499931335449 -5,2.984499931335449 -5,2.984499931335449 C-5,2.984499931335449 -5,-2.984499931335449 -5,-2.984499931335449 C-5,-2.984499931335449 5,-2.984499931335449 5,-2.984499931335449z"></path><path fill="rgb(230,33,44)" fill-opacity="1" d=" M5,-2.984499931335449 C5,-2.984499931335449 5,2.984499931335449 5,2.984499931335449 C5,2.984499931335449 -5,2.984499931335449 -5,2.984499931335449 C-5,2.984499931335449 -5,-2.984499931335449 -5,-2.984499931335449 C-5,-2.984499931335449 5,-2.984499931335449 5,-2.984499931335449z"></path></g></g><g style="display: none;" transform="matrix(1,0,0,1,225,225)" opacity="1"><g opacity="1" transform="matrix(1,0,0,1,119,-7.015999794006348)"><path fill="rgb(255,255,255)" fill-opacity="1" d=" M5,-2.984499931335449 C5,-2.984499931335449 5,2.984499931335449 5,2.984499931335449 C5,2.984499931335449 -5,2.984499931335449 -5,2.984499931335449 C-5,2.984499931335449 -5,-2.984499931335449 -5,-2.984499931335449 C-5,-2.984499931335449 5,-2.984499931335449 5,-2.984499931335449z"></path><path fill="rgb(255,255,255)" fill-opacity="1" d=" M5,-2.984499931335449 C5,-2.984499931335449 5,2.984499931335449 5,2.984499931335449 C5,2.984499931335449 -5,2.984499931335449 -5,2.984499931335449 C-5,2.984499931335449 -5,-2.984499931335449 -5,-2.984499931335449 C-5,-2.984499931335449 5,-2.984499931335449 5,-2.984499931335449z"></path></g></g></g></svg>