<?xml version="1.0" encoding="UTF-8"?>
<svg width="152px" height="52px" viewBox="0 0 152 52" version="1.1" xmlns="http://www.w3.org/2000/svg" xmlns:xlink="http://www.w3.org/1999/xlink">
    <!-- Generator: Sketch 62 (91390) - https://sketch.com -->
    <title>Tuft&amp;Needle</title>
    <desc>Created with Sketch.</desc>
    <g id="Homepage" stroke="none" stroke-width="1" fill="none" fill-rule="evenodd">
        <g id="Extra-Large-Devices-1440px" transform="translate(-744.000000, -2935.000000)">
            <g id="Tuft&amp;Needle" transform="translate(745.000000, 2936.000000)">
                <rect id="Rectangle" stroke="#FFFFFF" x="0" y="0" width="150" height="50"></rect>
                <g id="Artboard-4" transform="translate(3.000000, 16.000000)" fill="#72757B" fill-rule="nonzero">
                    <path d="M56.05,16.9 C55.93,16.65 55.66,16.7 55.46,16.64 C53.6166856,16.2391637 52.15587,14.835015 51.6824568,13.0089927 C51.2090436,11.1829703 51.8036277,9.24594027 53.22,8 C53.6240432,7.71216281 53.7559858,7.1716238 53.53,6.73 C52.9789438,5.47643892 53.0286492,4.04017221 53.6650481,2.82770581 C54.301447,1.61523941 55.455288,0.758510982 56.8,0.5 C56.8,0.5 56.86,0.43 56.88,0.4 L58.55,0.4 C58.9948736,0.554761863 59.429136,0.738488237 59.85,0.95 C61.4391565,1.81730339 62.3593123,3.54751091 62.19,5.35 C62.19,5.67 62.05,5.74 61.78,5.71 C61.6172841,5.68991604 61.4527159,5.68991604 61.29,5.71 C60.72,5.81 60.57,5.58 60.57,5 C60.6622193,3.51006753 59.589132,2.20142444 58.11,2 C56.6513439,1.78856922 55.2661021,2.70489373 54.89,4.13 C54.7041165,4.85472893 54.7747825,5.62145549 55.09,6.3 C56.4336813,9.30035389 58.772104,11.7447475 61.71,13.22 C61.8426825,13.3522241 62.0573175,13.3522241 62.19,13.22 C62.8688764,12.5803661 63.433646,11.8295945 63.86,11 L63.64,11 C63.36,10.95 62.91,11.15 62.82,10.87 C62.7444622,10.4433174 62.7444622,10.0066826 62.82,9.58 C62.82,9.35 63.05,9.39 63.21,9.39 L66.53,9.39 C66.86,9.39 66.93,9.53 66.91,9.81 C66.8849733,10.0393192 66.8849733,10.2706808 66.91,10.5 C66.91,10.88 66.83,11.08 66.42,11 C66.01,10.92 65.7,11.15 65.5,11.59 C65.0280011,12.4788276 64.4245361,13.2913141 63.71,14 C64.4699322,14.2939916 65.2753586,14.4530464 66.09,14.47 C66.51,14.47 66.62,14.61 66.62,15.03 C66.62,16.15 66.62,16.15 65.54,16.03 C64.5742532,15.9319154 63.6239754,15.7170116 62.71,15.39 C62.52,15.32 62.32,15.2 62.12,15.39 C61.029477,16.0976742 59.8200434,16.6024518 58.55,16.88 L58.13,16.88 C57.99,16.7 57.86,16.7 57.72,16.88 L57.16,16.88 C57.02,16.71 56.88,16.7 56.75,16.88 L56.05,16.9 Z M60.52,14.49 C58.2248351,13.1760589 56.2558967,11.3609438 54.76,9.18 C54.56,8.88 54.45,9.07 54.3,9.18 C53.4445688,9.94310033 53.0372119,11.0896643 53.2194273,12.2214249 C53.4016428,13.3531855 54.1482841,14.3139538 55.2,14.77 C56.9198209,15.5122095 58.8875924,15.4086426 60.52,14.49 L60.52,14.49 Z" id="Shape"></path>
                    <path d="M18.47,16.9 C18.37,16.67 18.12,16.71 17.94,16.65 C15.5135633,15.9303841 13.8339022,13.7205166 13.79,11.19 C13.79,7.82 13.79,4.44 13.79,1.07 C13.79,0.62 13.95,0.5 14.35,0.55 C14.5123767,0.575000655 14.6776233,0.575000655 14.84,0.55 C15.33,0.48 15.45,0.68 15.44,1.16 L15.44,11.16 C15.4794186,13.2017229 16.981686,14.9192028 19,15.23 C21.0696701,15.5505495 23.0643411,14.315551 23.7,12.32 C23.8500738,11.8105273 23.9209017,11.2810045 23.91,10.75 C23.91,7.57 23.91,4.38 23.91,1.19 C23.91,0.5 24.23,0.53 24.7,0.55 C25.17,0.57 25.59,0.39 25.58,1.18 C25.53,4.37 25.58,7.56 25.58,10.74 C25.7457059,13.7117891 23.638772,16.3281865 20.7,16.8 C20.7,16.8 20.65,16.87 20.63,16.9 L18.47,16.9 Z" id="Path"></path>
                    <path d="M143,2.2 C140.87,2.2 138.75,2.2 136.62,2.2 C136.23,2.2 136.18,2.34 136.18,2.68 L136.18,7.32 C136.18,7.73 136.31,7.82 136.69,7.81 L141.54,7.81 C142.05,7.81 142.28,7.91 142.19,8.45 C142.164999,8.63582958 142.164999,8.82417042 142.19,9.01 C142.24,9.39 142.06,9.46 141.72,9.45 C140.08,9.45 138.44,9.45 136.8,9.45 C136.33,9.45 136.16,9.53 136.17,10.04 C136.17,11.52 136.22,13.04 136.17,14.48 C136.17,15.03 136.34,15.12 136.84,15.12 L143,15.12 L143,16.65 C140.32,16.65 137.65,16.65 135,16.65 C134.66,16.65 134.58,16.54 134.58,16.21 C134.58,11.1433333 134.58,6.06666667 134.58,0.98 C134.58,0.51 134.83,0.54 135.15,0.54 L143,0.54 L143,2.2 Z" id="Path"></path>
                    <path d="M1,0.54 L10.77,0.54 C11.52,0.54 11.45,0.89 11.44,1.36 C11.43,1.83 11.58,2.27 10.79,2.21 C9.79,2.13 8.71,2.21 7.68,2.21 C7.1,2.21 7.01,2.4 7.01,2.91 L7.01,16.01 C7.01,16.23 7.18,16.61 6.86,16.66 C6.41064781,16.7449655 5.94935219,16.7449655 5.5,16.66 C5.32,16.66 5.42,16.29 5.42,16.09 C5.42,11.73 5.42,7.36 5.42,3 C5.42,2.36 5.24,2.23 4.65,2.26 C3.43,2.31 2.2,2.26 0.98,2.26 L1,0.54 Z" id="Path"></path>
                    <path d="M56.75,16.9 C56.88,16.72 57.02,16.73 57.16,16.9 L56.75,16.9 Z" id="Path"></path>
                    <path d="M57.72,16.9 C57.86,16.72 57.99,16.72 58.13,16.9 L57.72,16.9 Z" id="Path"></path>
                    <path d="M82.05,11.35 L82.05,10.44 C82.05,7.36 82.05,4.28666667 82.05,1.22 C82.05,0.75 82.05,0.51 82.67,0.54 C83.67,0.59 83.67,0.54 83.67,1.54 L83.67,15.95 C83.67,16.58 83.45,16.68 82.93,16.62 C82.41,16.56 81.93,16.79 82.03,15.95 C82.2384305,14.5288972 81.7201508,13.0979946 80.65,12.14 C78.15,9.34 75.77,6.42 73.3,3.51 C73.1933722,3.74473617 73.1619365,4.00670087 73.21,4.26 C73.21,8.04666667 73.21,11.8333333 73.21,15.62 C73.21,16.62 73.21,16.54 72.31,16.62 C71.41,16.7 71.59,16.15 71.59,15.62 C71.59,11.47 71.59,7.31 71.59,3.15 C71.59,2.23 71.82,1.25 70.93,0.48 L72.62,0.48 C72.97,0.48 73.1,0.72 73.27,0.92 L82.05,11.35 Z" id="Path"></path>
                    <path d="M109.32,8.59 C109.32,6.14 109.32,3.69 109.32,1.24 C109.32,0.73 109.39,0.51 109.98,0.54 C111.434924,0.491690017 112.891189,0.578731137 114.33,0.8 C118.417952,1.59427325 121.212859,5.39184113 120.755845,9.53108695 C120.29883,13.6703328 116.742764,16.766689 112.58,16.65 C111.68,16.65 110.78,16.65 109.88,16.65 C109.4,16.65 109.31,16.49 109.32,16.06 C109.33,13.58 109.32,11.09 109.32,8.59 L109.32,8.59 Z M110.95,8.59 L110.95,13.37 C110.95,15.2 110.95,15.21 112.81,15.03 C115.311802,14.9131709 117.495726,13.2979366 118.34,10.94 C119.298728,8.68028427 118.814524,6.06637235 117.11,4.3 C115.681638,2.73798303 113.594153,1.95053333 111.49,2.18 C111.01,2.18 110.94,2.35 110.94,2.77 C111,4.7 111,6.64 111,8.58 L110.95,8.59 Z" id="Shape"></path>
                    <path d="M97.83,8.58 C97.83,6.11 97.83,3.64 97.83,1.17 C97.83,0.69 97.94,0.54 98.44,0.55 C100.84,0.55 103.243333,0.55 105.65,0.55 C106.16,0.55 106.38,0.67 106.29,1.2 C106.25997,1.35859097 106.25997,1.52140903 106.29,1.68 C106.36,2.13 106.15,2.21 105.74,2.2 C103.85,2.2 101.95,2.2 100.06,2.2 C99.56,2.2 99.45,2.34 99.46,2.82 L99.46,7.32 C99.46,7.72 99.57,7.83 99.96,7.82 L104.88,7.82 C105.38,7.82 105.55,7.97 105.48,8.44 C105.460026,8.59937663 105.460026,8.76062337 105.48,8.92 C105.54,9.34 105.4,9.48 104.96,9.47 C103.32,9.47 101.68,9.47 100.04,9.47 C99.59,9.47 99.45,9.57 99.46,10.03 L99.46,14.54 C99.46,15.05 99.62,15.13 100.08,15.12 L105.63,15.12 C106.11,15.12 106.33,15.17 106.3,15.74 C106.25,16.74 106.3,16.74 105.3,16.74 C103.06,16.74 100.82,16.74 98.58,16.74 C97.91,16.74 97.8,16.53 97.81,15.93 C97.85,13.44 97.83,11 97.83,8.58 L97.83,8.58 Z" id="Path"></path>
                    <path d="M86.59,8.58 C86.59,6.11 86.59,3.64 86.59,1.17 C86.59,0.69 86.69,0.54 87.19,0.55 L94.47,0.55 C94.89,0.55 95.12,0.62 95.05,1.1 C95.0199397,1.28545646 95.0199397,1.47454354 95.05,1.66 C95.11,2.09 94.94,2.2 94.51,2.2 C92.6,2.2 90.68,2.2 88.76,2.2 C88.36,2.2 88.21,2.27 88.22,2.72 L88.22,7.29 C88.22,7.74 88.36,7.82 88.76,7.81 L93.61,7.81 C94.15,7.81 94.32,7.97 94.25,8.47 C94.2201099,8.63196585 94.2201099,8.79803415 94.25,8.96 C94.3,9.35 94.15,9.46 93.75,9.46 C92.09,9.46 90.43,9.46 88.75,9.46 C88.34,9.46 88.19,9.53 88.2,9.98 L88.2,14.55 C88.2,15.04 88.36,15.12 88.79,15.11 L94.47,15.11 C94.93,15.11 95.14,15.25 95.01,15.68 C94.88,16.11 95.38,16.68 94.67,16.68 C92.11,16.68 89.54,16.68 86.98,16.68 C86.47,16.68 86.58,16.36 86.58,16.08 L86.59,8.58 Z" id="Path"></path>
                    <path d="M123.07,8.58 C123.07,6.14 123.07,3.69 123.07,1.24 C123.07,0.73 123.15,0.51 123.74,0.54 C124.74,0.6 124.74,0.54 124.74,1.54 L124.74,14.43 C124.74,14.95 124.88,15.07 125.39,15.07 L130.93,15.07 C131.44,15.07 131.66,15.17 131.58,15.71 C131.554882,15.9159034 131.554882,16.1240966 131.58,16.33 C131.58,16.6 131.51,16.69 131.23,16.69 C128.67,16.69 126.11,16.69 123.54,16.69 C123.04,16.69 123.14,16.38 123.14,16.09 L123.07,8.58 Z" id="Path"></path>
                    <path d="M28.05,8.58 C28.05,6.11 28.05,3.64 28.05,1.16 C28.05,0.69 28.15,0.54 28.65,0.55 L35.86,0.55 C36.36,0.55 36.6,0.64 36.51,1.18 C36.4850755,1.33902933 36.4850755,1.50097067 36.51,1.66 C36.58,2.11 36.38,2.2 35.97,2.19 C34.07,2.19 32.18,2.19 30.28,2.19 C29.79,2.19 29.67,2.31 29.68,2.8 L29.68,7.09 C29.68,7.65 29.77,7.84 30.38,7.82 L35.09,7.82 C35.56,7.82 35.78,7.93 35.7,8.43 C35.6800261,8.58937663 35.6800261,8.75062337 35.7,8.91 C35.78,9.4 35.54,9.47 35.12,9.46 C33.55,9.46 31.98,9.46 30.41,9.46 C29.76,9.46 29.67,9.66 29.68,10.23 L29.68,16.12 C29.68,16.62 29.53,16.74 29.06,16.73 C28.06,16.73 28.06,16.73 28.06,15.73 L28.05,8.58 Z" id="Path"></path>
                    <path d="M45,9.44 L45,16.02 C45,16.54 44.88,16.69 44.36,16.67 C43.36,16.62 43.36,16.67 43.36,15.67 C43.36,11.4 43.36,7.13 43.36,2.85 C43.36,2.29 43.2,2.16 42.67,2.18 C41.61,2.18 40.54,2.18 39.48,2.18 C39.09,2.18 38.91,2.18 38.91,1.67 C38.91,0.54 38.91,0.54 40.03,0.54 L48.7,0.54 C49.22,0.54 49.41,0.65 49.38,1.21 C49.38,2.21 49.38,2.21 48.38,2.21 C47.38,2.21 46.48,2.21 45.54,2.21 C45.05,2.21 44.92,2.33 44.92,2.82 C45,5 45,7.22 45,9.44 L45,9.44 Z" id="Path"></path>
                </g>
            </g>
        </g>
    </g>
</svg>