<svg width="14" height="14" viewBox="0 0 14 14" fill="none" xmlns="http://www.w3.org/2000/svg">
<path fill-rule="evenodd" clip-rule="evenodd" d="M12.9662 0H1.03442C0.463082 0 0 0.448948 0 1.00306V12.9964C0 13.5506 0.463245 13.9999 1.03442 13.9999H12.9662C13.5374 13.9999 14 13.5503 14 12.9964V1.00306C14 0.449111 13.5374 0 12.9662 0ZM4.2444 11.7189H2.12911V5.39816H4.2444V11.7189ZM3.17274 4.5345H3.18696C3.92395 4.5345 4.38286 4.04952 4.38286 3.44206C4.3688 2.82236 3.92379 2.35053 3.20031 2.35053C2.47689 2.35053 2.00356 2.82249 2.00356 3.44206C2.00356 4.04939 2.46339 4.5345 3.17274 4.5345ZM11.8694 11.7189H9.7548V8.33707C9.7548 7.48731 9.44841 6.90748 8.68369 6.90748C8.09868 6.90748 7.75141 7.29866 7.59892 7.67632C7.54241 7.8112 7.52842 7.99986 7.52842 8.18825V11.7188H5.41419C5.41419 11.7188 5.44186 5.99084 5.41419 5.39802H7.52874V6.29413C7.80945 5.86354 8.31107 5.24931 9.43399 5.24931C10.8258 5.24931 11.8694 6.15218 11.8694 8.09454V11.7189ZM7.55534 6.30136C7.54456 6.31627 7.53371 6.3316 7.52594 6.34434H7.55534V6.30136Z" fill="#221E85"/>
</svg>
