<svg width="41" height="35" viewBox="0 0 41 35" fill="none" xmlns="http://www.w3.org/2000/svg">
<path d="M40.4994 31.5243V2.58004C40.4987 1.896 40.2266 1.24017 39.7429 0.756479C39.2593 0.272785 38.6034 0.000726465 37.9194 0H2.58004C1.896 0.000726465 1.24017 0.272785 0.756479 0.756479C0.272785 1.24017 0.000726465 1.896 0 2.58004V31.5243C0.000726465 32.2084 0.272785 32.8642 0.756479 33.3479C1.24017 33.8316 1.896 34.1036 2.58004 34.1044H37.9194C38.6034 34.1036 39.2593 33.8316 39.7429 33.3479C40.2266 32.8642 40.4987 32.2084 40.4994 31.5243ZM2.58004 1.21973H37.9194C38.28 1.22014 38.6258 1.36358 38.8808 1.6186C39.1358 1.87362 39.2793 2.21939 39.2797 2.58004V6.9662H1.21973V2.58004C1.22014 2.21939 1.36358 1.87362 1.6186 1.6186C1.87362 1.36358 2.21939 1.22014 2.58004 1.21973ZM37.9194 32.8846H2.58004C2.21939 32.8842 1.87362 32.7408 1.6186 32.4858C1.36358 32.2307 1.22014 31.885 1.21973 31.5243V8.18594H39.2797V31.5243C39.2793 31.885 39.1358 32.2307 38.8808 32.4858C38.6258 32.7408 38.28 32.8842 37.9194 32.8846Z" fill="#E06F22"/>
<path d="M7.25098 4.7024H8.78236C8.9441 4.7024 9.09922 4.63815 9.2136 4.52377C9.32797 4.4094 9.39222 4.25428 9.39222 4.09253C9.39222 3.93079 9.32797 3.77566 9.2136 3.66129C9.09922 3.54692 8.9441 3.48267 8.78236 3.48267H7.25098C7.08923 3.48267 6.93411 3.54692 6.81974 3.66129C6.70537 3.77566 6.64111 3.93079 6.64111 4.09253C6.64111 4.25428 6.70537 4.4094 6.81974 4.52377C6.93411 4.63815 7.08923 4.7024 7.25098 4.7024Z" fill="#E06F22"/>
<path d="M10.9998 4.7024H12.5311C12.6929 4.7024 12.848 4.63815 12.9624 4.52377C13.0767 4.4094 13.141 4.25428 13.141 4.09253C13.141 3.93079 13.0767 3.77566 12.9624 3.66129C12.848 3.54692 12.6929 3.48267 12.5311 3.48267H10.9998C10.838 3.48267 10.6829 3.54692 10.5685 3.66129C10.4541 3.77566 10.3899 3.93079 10.3899 4.09253C10.3899 4.25428 10.4541 4.4094 10.5685 4.52377C10.6829 4.63815 10.838 4.7024 10.9998 4.7024Z" fill="#E06F22"/>
<path d="M3.50122 4.7024H5.03351C5.19526 4.7024 5.35038 4.63815 5.46476 4.52377C5.57913 4.4094 5.64338 4.25428 5.64338 4.09253C5.64338 3.93079 5.57913 3.77566 5.46476 3.66129C5.35038 3.54692 5.19526 3.48267 5.03351 3.48267H3.50122C3.33948 3.48267 3.18436 3.54692 3.06998 3.66129C2.95561 3.77566 2.89136 3.93079 2.89136 4.09253C2.89136 4.25428 2.95561 4.4094 3.06998 4.52377C3.18436 4.63815 3.33948 4.7024 3.50122 4.7024Z" fill="#E06F22"/>
<path d="M11.9975 25.4842C12.2454 25.4835 12.4841 25.3909 12.6675 25.2242L18.4375 19.9842L20.1575 22.8642C20.2358 22.9953 20.343 23.1067 20.471 23.1899C20.599 23.2731 20.7444 23.3259 20.8959 23.3442C21.0475 23.3626 21.2012 23.346 21.3454 23.2957C21.4895 23.2454 21.6203 23.1628 21.7275 23.0542L27.9375 16.7042C28.0295 16.6096 28.1019 16.4979 28.1506 16.3754C28.1993 16.2528 28.2235 16.1219 28.2216 15.9901C28.2198 15.8582 28.192 15.728 28.1398 15.6069C28.0876 15.4858 28.0121 15.3761 27.9175 15.2842C27.823 15.1923 27.7113 15.1199 27.5887 15.0711C27.4662 15.0224 27.3352 14.9982 27.2034 15.0001C27.0715 15.002 26.9413 15.0298 26.8202 15.0819C26.6991 15.1341 26.5895 15.2096 26.4975 15.3042L21.1975 20.7342L19.4975 17.9142C19.4209 17.7878 19.3173 17.6799 19.194 17.5983C19.0707 17.5167 18.9309 17.4635 18.7845 17.4425C18.6382 17.4214 18.4891 17.4331 18.3478 17.4766C18.2065 17.5202 18.0766 17.5945 17.9675 17.6942L11.3275 23.7542C11.1317 23.9321 11.0144 24.1804 11.0012 24.4447C10.9881 24.709 11.0803 24.9677 11.2575 25.1642C11.3519 25.266 11.4665 25.347 11.5939 25.4021C11.7213 25.4572 11.8587 25.4851 11.9975 25.4842Z" fill="#E06F22"/>
</svg>
