<svg width="24" height="24" viewBox="0 0 24 24" fill="none" xmlns="http://www.w3.org/2000/svg">
<g clip-path="url(#clip0)">
<path d="M7.00432 14.3032L6.4069 17.0074L5.51079 14.8013C5.41122 14.5167 4.71425 14.5167 4.51511 14.8013L3.619 17.0074L3.02158 14.3032C3.02158 14.0897 2.72287 13.9473 2.42417 14.0185C2.12546 14.0185 1.92633 14.232 2.0259 14.4455L3.02158 18.7153C3.02158 18.8577 3.22072 19 3.51943 19C3.81813 19 3.9177 18.9288 4.01727 18.7153L5.01295 16.1534L6.00863 18.7153C6.1082 18.8577 6.30734 19 6.50647 19C6.70561 19 6.90475 18.8577 7.00432 18.7153L8 14.4455C8 14.232 7.90044 14.0897 7.60173 14.0185C7.30303 14.0185 7.10389 14.0185 7.00432 14.3032Z" fill="#FB5E07"/>
<path d="M21 21.1001H3C1.6 21.1001 0.5 22.2001 0.5 23.6001C0.5 23.9001 0.7 24.1001 1 24.1001H23C23.3 24.1001 23.5 23.9001 23.5 23.6001C23.5 22.1001 22.4 21.1001 21 21.1001ZM1.60001 23.1001C1.80001 22.5001 2.4 22.1001 3 22.1001H21C21.7 22.1001 22.2 22.5001 22.4 23.1001H1.60001Z" fill="#1F1C84"/>
<path d="M4 12.1C4.8 12.1 5.6 11.7 6 11.1C6.5 11.7 7.2 12.1 8 12.1C8.8 12.1 9.5 11.7 10 11.1C10.5 11.7 11.2 12.1 12 12.1C12.8 12.1 13.5 11.7 14 11.1C14.5 11.7 15.2 12.1 16 12.1C16.8 12.1 17.5 11.7 18 11.1C18.5 11.7 19.2 12.1 20 12.1C21.4 12.1 22.5 11 22.5 9.60001C22.5 9.50001 22.5 9.39999 22.4 9.29999L19.5 4.39999V2.5C19.5 1.1 18.4 0 17 0H7C5.6 0 4.5 1.1 4.5 2.5V4.39999L1.60001 9.29999C1.60001 9.39999 1.5 9.50001 1.5 9.60001C1.5 11 2.6 12.1 4 12.1ZM9.5 9.60001C9.5 10.4 8.8 11.1 8 11.1C7.2 11.1 6.5 10.4 6.5 9.70001L7.39999 5.10001H9.5V9.60001ZM13.5 9.60001C13.5 10.4 12.8 11.1 12 11.1C11.2 11.1 10.5 10.4 10.5 9.60001V5.10001H13.5V9.60001ZM16 11.1C15.2 11.1 14.5 10.4 14.5 9.60001V5.10001H16.6L17.5 9.60001C17.5 10.4 16.8 11.1 16 11.1ZM21.5 9.60001C21.4 10.4 20.8 11 20 11C19.2 11 18.5 10.3 18.5 9.39999L17.6 5H18.7L21.5 9.60001ZM5.5 2.60001C5.5 1.80001 6.2 1.10001 7 1.10001H17C17.8 1.10001 18.5 1.80001 18.5 2.60001V4.10001H5.5V2.60001ZM5.3 5.10001H6.39999L5.5 9.60001C5.5 10.4 4.8 11.1 4 11.1C3.2 11.1 2.6 10.5 2.5 9.70001L5.3 5.10001Z" fill="#1F1C84"/>
<path d="M14.0043 14.3032L13.4069 17.0074L12.5108 14.8013C12.4112 14.5167 11.7142 14.5167 11.5151 14.8013L10.619 17.0074L10.0216 14.3032C10.0216 14.0897 9.72287 13.9473 9.42417 14.0185C9.12546 14.0185 8.92633 14.232 9.0259 14.4455L10.0216 18.7153C10.0216 18.8577 10.2207 19 10.5194 19C10.8181 19 10.9177 18.9288 11.0173 18.7153L12.013 16.1534L13.0086 18.7153C13.1082 18.8577 13.3073 19 13.5065 19C13.7056 19 13.9047 18.8577 14.0043 18.7153L15 14.4455C15 14.232 14.9004 14.0897 14.6017 14.0185C14.303 14.0185 14.1039 14.0185 14.0043 14.3032Z" fill="#FB5E07"/>
<path d="M21.0043 14.3032L20.4069 17.0074L19.5108 14.8013C19.4112 14.5167 18.7142 14.5167 18.5151 14.8013L17.619 17.0074L17.0216 14.3032C17.0216 14.0897 16.7229 13.9473 16.4242 14.0185C16.1255 14.0185 15.9263 14.232 16.0259 14.4455L17.0216 18.7153C17.0216 18.8577 17.2207 19 17.5194 19C17.7186 19 17.9177 18.9288 18.0173 18.7153L19.013 16.1534L20.0086 18.7153C20.1082 18.8577 20.3073 19 20.5065 19C20.7056 19 20.9047 18.8577 21.0043 18.7153L22 14.4455C22 14.232 21.9004 14.0897 21.6017 14.0185C21.303 14.0185 21.1039 14.0185 21.0043 14.3032Z" fill="#FB5E07"/>
</g>
<defs>
<clipPath id="clip0">
<rect width="24" height="24" fill="white"/>
</clipPath>
</defs>
</svg>
