<svg width="41" height="35" viewBox="0 0 41 35" fill="none" xmlns="http://www.w3.org/2000/svg">
<path d="M40.4994 31.5243V2.58004C40.4987 1.896 40.2266 1.24017 39.7429 0.756479C39.2593 0.272785 38.6034 0.000726465 37.9194 0H2.58004C1.896 0.000726465 1.24017 0.272785 0.756479 0.756479C0.272785 1.24017 0.000726465 1.896 0 2.58004V31.5243C0.000726465 32.2084 0.272785 32.8642 0.756479 33.3479C1.24017 33.8316 1.896 34.1036 2.58004 34.1044H37.9194C38.6034 34.1036 39.2593 33.8316 39.7429 33.3479C40.2266 32.8642 40.4987 32.2084 40.4994 31.5243ZM2.58004 1.21973H37.9194C38.28 1.22014 38.6258 1.36358 38.8808 1.6186C39.1358 1.87362 39.2793 2.21939 39.2797 2.58004V6.9662H1.21973V2.58004C1.22014 2.21939 1.36358 1.87362 1.6186 1.6186C1.87362 1.36358 2.21939 1.22014 2.58004 1.21973ZM37.9194 32.8846H2.58004C2.21939 32.8842 1.87362 32.7408 1.6186 32.4858C1.36358 32.2307 1.22014 31.885 1.21973 31.5243V8.18594H39.2797V31.5243C39.2793 31.885 39.1358 32.2307 38.8808 32.4858C38.6258 32.7408 38.28 32.8842 37.9194 32.8846Z" fill="#E06F22"/>
<path d="M7.25098 4.70216H8.78236C8.9441 4.70216 9.09922 4.6379 9.2136 4.52353C9.32797 4.40916 9.39222 4.25404 9.39222 4.09229C9.39222 3.93054 9.32797 3.77542 9.2136 3.66105C9.09922 3.54668 8.9441 3.48242 8.78236 3.48242H7.25098C7.08923 3.48242 6.93411 3.54668 6.81974 3.66105C6.70537 3.77542 6.64111 3.93054 6.64111 4.09229C6.64111 4.25404 6.70537 4.40916 6.81974 4.52353C6.93411 4.6379 7.08923 4.70216 7.25098 4.70216Z" fill="#E06F22"/>
<path d="M10.9998 4.70216H12.5311C12.6929 4.70216 12.848 4.6379 12.9624 4.52353C13.0767 4.40916 13.141 4.25404 13.141 4.09229C13.141 3.93054 13.0767 3.77542 12.9624 3.66105C12.848 3.54668 12.6929 3.48242 12.5311 3.48242H10.9998C10.838 3.48242 10.6829 3.54668 10.5685 3.66105C10.4541 3.77542 10.3899 3.93054 10.3899 4.09229C10.3899 4.25404 10.4541 4.40916 10.5685 4.52353C10.6829 4.6379 10.838 4.70216 10.9998 4.70216Z" fill="#E06F22"/>
<path d="M3.50122 4.70216H5.03351C5.19526 4.70216 5.35038 4.6379 5.46476 4.52353C5.57913 4.40916 5.64338 4.25404 5.64338 4.09229C5.64338 3.93054 5.57913 3.77542 5.46476 3.66105C5.35038 3.54668 5.19526 3.48242 5.03351 3.48242H3.50122C3.33948 3.48242 3.18436 3.54668 3.06998 3.66105C2.95561 3.77542 2.89136 3.93054 2.89136 4.09229C2.89136 4.25404 2.95561 4.40916 3.06998 4.52353C3.18436 4.6379 3.33948 4.70216 3.50122 4.70216Z" fill="#E06F22"/>
<path fill-rule="evenodd" clip-rule="evenodd" d="M27 26.9997H13C12.4487 26.9997 12 26.5513 12 26V14C12 13.4483 12.4487 13 13 13H16.3333V11.333C16.3333 11.149 16.4823 11 16.6667 11C16.851 11 17 11.149 17 11.333V13H23V11.333C23 11.149 23.149 11 23.3333 11C23.5177 11 23.6667 11.149 23.6667 11.333V13H27C27.5513 13 28 13.4483 28 14V26C28 26.5513 27.5513 26.9997 27 26.9997ZM27.3333 14C27.3333 13.8163 27.184 13.6663 27 13.6663H23.6667V14.6667C23.6667 14.8507 23.5177 14.9997 23.3333 14.9997C23.149 14.9997 23 14.8507 23 14.6667V13.6663H17V14.6667C17 14.8507 16.851 14.9997 16.6667 14.9997C16.4823 14.9997 16.3333 14.8507 16.3333 14.6667V13.6663H13C12.816 13.6663 12.6667 13.8163 12.6667 14V26C12.6667 26.1837 12.816 26.333 13 26.333H27C27.184 26.333 27.3333 26.1837 27.3333 26V14Z" fill="#E06F22"/>
<path fill-rule="evenodd" clip-rule="evenodd" d="M27 26.9997H13C12.4487 26.9997 12 26.5513 12 26V14C12 13.4483 12.4487 13 13 13H16.3333V11.333C16.3333 11.149 16.4823 11 16.6667 11C16.851 11 17 11.149 17 11.333V13H23V11.333C23 11.149 23.149 11 23.3333 11C23.5177 11 23.6667 11.149 23.6667 11.333V13H27C27.5513 13 28 13.4483 28 14V26C28 26.5513 27.5513 26.9997 27 26.9997ZM27.3333 14C27.3333 13.8163 27.184 13.6663 27 13.6663H23.6667V14.6667C23.6667 14.8507 23.5177 14.9997 23.3333 14.9997C23.149 14.9997 23 14.8507 23 14.6667V13.6663H17V14.6667C17 14.8507 16.851 14.9997 16.6667 14.9997C16.4823 14.9997 16.3333 14.8507 16.3333 14.6667V13.6663H13C12.816 13.6663 12.6667 13.8163 12.6667 14V26C12.6667 26.1837 12.816 26.333 13 26.333H27C27.184 26.333 27.3333 26.1837 27.3333 26V14Z" fill="url(#paint0_linear)"/>
<defs>
<linearGradient id="paint0_linear" x1="20" y1="11" x2="20" y2="26.9997" gradientUnits="userSpaceOnUse">
<stop stop-color="white" stop-opacity="0.1"/>
<stop offset="1" stop-opacity="0"/>
</linearGradient>
</defs>
</svg>
