<svg width="32" height="32" viewBox="0 0 32 32" fill="none" xmlns="http://www.w3.org/2000/svg">
<path d="M30.6666 15.3332H28.6333C28.2946 8.88117 23.1186 3.70517 16.6666 3.3665V1.33317C16.6666 0.965171 16.368 0.666504 16 0.666504C15.632 0.666504 15.3333 0.965171 15.3333 1.33317V3.3665C8.88263 3.70517 3.70529 8.88117 3.36663 15.3332H1.33329C0.965293 15.3332 0.666626 15.6318 0.666626 15.9998C0.666626 16.3678 0.965293 16.6665 1.33329 16.6665H3.36663C3.70529 23.1172 8.88129 28.2945 15.3333 28.6332V30.6665C15.3333 31.0345 15.632 31.3332 16 31.3332C16.368 31.3332 16.6666 31.0345 16.6666 30.6665V28.6332C23.1186 28.2945 28.2946 23.1185 28.6333 16.6665H30.6666C31.0346 16.6665 31.3333 16.3678 31.3333 15.9998C31.3333 15.6318 31.0346 15.3332 30.6666 15.3332ZM25.3333 16.6665H27.3C26.9653 22.3825 22.384 26.9638 16.6666 27.2998V25.3332C16.6666 24.9652 16.368 24.6665 16 24.6665C15.632 24.6665 15.3333 24.9652 15.3333 25.3332V27.2998C9.61729 26.9652 5.03596 22.3838 4.69996 16.6665H6.66663C7.03463 16.6665 7.33329 16.3678 7.33329 15.9998C7.33329 15.6318 7.03463 15.3332 6.66663 15.3332H4.69996C5.03596 9.61717 9.61729 5.03584 15.3333 4.69984V6.6665C15.3333 7.0345 15.632 7.33317 16 7.33317C16.368 7.33317 16.6666 7.0345 16.6666 6.6665V4.69984C22.3826 5.0345 26.964 9.61584 27.3 15.3332H25.3333C24.9653 15.3332 24.6666 15.6318 24.6666 15.9998C24.6666 16.3678 24.9653 16.6665 25.3333 16.6665ZM16 8.6665C11.9573 8.6665 8.66663 11.9558 8.66663 15.9998C8.66663 18.0185 9.48663 19.8492 10.812 21.1772C10.8146 21.1812 10.816 21.1865 10.8186 21.1892C10.836 21.2065 10.8573 21.2185 10.8746 21.2358C11.1893 21.5438 11.5293 21.8252 11.8946 22.0732C11.9426 22.1065 11.9946 22.1332 12.044 22.1652C12.396 22.3918 12.764 22.5932 13.1533 22.7585C13.2026 22.7798 13.2533 22.7932 13.3026 22.8132C13.6986 22.9705 14.1106 23.0998 14.5373 23.1865C14.5653 23.1918 14.5933 23.1945 14.62 23.1985C15.0666 23.2838 15.528 23.3332 16 23.3332C16.472 23.3332 16.9333 23.2838 17.38 23.1985C17.408 23.1932 17.436 23.1918 17.4626 23.1865C17.8893 23.0998 18.3 22.9705 18.6973 22.8132C18.7466 22.7932 18.7973 22.7785 18.8466 22.7585C19.236 22.5945 19.604 22.3918 19.956 22.1652C20.0053 22.1332 20.056 22.1065 20.1053 22.0732C20.4706 21.8252 20.8106 21.5425 21.1253 21.2345C21.1426 21.2172 21.164 21.2065 21.1813 21.1892C21.1853 21.1852 21.1853 21.1812 21.188 21.1772C22.5133 19.8505 23.3333 18.0185 23.3333 15.9998C23.3333 11.9558 20.0426 8.6665 16 8.6665ZM19.6013 20.7678C19.4626 20.8718 19.3253 20.9785 19.1773 21.0692C19.056 21.1452 18.9253 21.2078 18.7986 21.2745C17.0653 22.1625 14.924 22.1612 13.1933 21.2705C13.0706 21.2052 12.9453 21.1452 12.828 21.0718C12.676 20.9785 12.5333 20.8692 12.3893 20.7612C12.2866 20.6838 12.1893 20.5998 12.092 20.5158C12.7946 18.9958 14.3146 18.0012 16.0013 18.0012C17.688 18.0012 19.2053 18.9958 19.9093 20.5158C19.808 20.6012 19.708 20.6865 19.6013 20.7678ZM14 14.6665C14 13.5638 14.8973 12.6665 16 12.6665C17.1026 12.6665 18 13.5638 18 14.6665C18 15.7692 17.1026 16.6665 16 16.6665C14.8973 16.6665 14 15.7692 14 14.6665ZM20.864 19.4852C20.2453 18.4332 19.3133 17.6158 18.212 17.1412C18.8946 16.5305 19.3333 15.6518 19.3333 14.6665C19.3333 12.8292 17.8386 11.3332 16 11.3332C14.1613 11.3332 12.6666 12.8292 12.6666 14.6665C12.6666 15.6518 13.1053 16.5292 13.788 17.1412C12.6866 17.6158 11.7546 18.4332 11.1373 19.4852C10.428 18.4998 9.99996 17.3025 9.99996 15.9998C9.99996 12.6918 12.692 9.99984 16 9.99984C19.308 9.99984 22 12.6918 22 15.9998C22 17.3025 21.572 18.4998 20.864 19.4852Z" fill="#201C84"/>
<path d="M16 8.6665C11.9573 8.6665 8.66663 11.9558 8.66663 15.9998C8.66663 18.0185 9.48663 19.8492 10.812 21.1772C10.8146 21.1812 10.816 21.1865 10.8186 21.1892C10.836 21.2065 10.8573 21.2185 10.8746 21.2358C11.1893 21.5438 11.5293 21.8252 11.8946 22.0732C11.9426 22.1065 11.9946 22.1332 12.044 22.1652C12.396 22.3918 12.764 22.5932 13.1533 22.7585C13.2026 22.7798 13.2533 22.7932 13.3026 22.8132C13.6986 22.9705 14.1106 23.0998 14.5373 23.1865C14.5653 23.1918 14.5933 23.1945 14.62 23.1985C15.0666 23.2838 15.528 23.3332 16 23.3332C16.472 23.3332 16.9333 23.2838 17.38 23.1985C17.408 23.1932 17.436 23.1918 17.4626 23.1865C17.8893 23.0998 18.3 22.9705 18.6973 22.8132C18.7466 22.7932 18.7973 22.7785 18.8466 22.7585C19.236 22.5945 19.604 22.3918 19.956 22.1652C20.0053 22.1332 20.056 22.1065 20.1053 22.0732C20.4706 21.8252 20.8106 21.5425 21.1253 21.2345C21.1426 21.2172 21.164 21.2065 21.1813 21.1892C21.1853 21.1852 21.1853 21.1812 21.188 21.1772C22.5133 19.8505 23.3333 18.0185 23.3333 15.9998C23.3333 11.9558 20.0426 8.6665 16 8.6665ZM19.6013 20.7678C19.4626 20.8718 19.3253 20.9785 19.1773 21.0692C19.056 21.1452 18.9253 21.2078 18.7986 21.2745C17.0653 22.1625 14.924 22.1612 13.1933 21.2705C13.0706 21.2052 12.9453 21.1452 12.828 21.0718C12.676 20.9785 12.5333 20.8692 12.3893 20.7612C12.2866 20.6838 12.1893 20.5998 12.092 20.5158C12.7946 18.9958 14.3146 18.0012 16.0013 18.0012C17.688 18.0012 19.2053 18.9958 19.9093 20.5158C19.808 20.6012 19.708 20.6865 19.6013 20.7678ZM14 14.6665C14 13.5638 14.8973 12.6665 16 12.6665C17.1026 12.6665 18 13.5638 18 14.6665C18 15.7692 17.1026 16.6665 16 16.6665C14.8973 16.6665 14 15.7692 14 14.6665ZM20.864 19.4852C20.2453 18.4332 19.3133 17.6158 18.212 17.1412C18.8946 16.5305 19.3333 15.6518 19.3333 14.6665C19.3333 12.8292 17.8386 11.3332 16 11.3332C14.1613 11.3332 12.6666 12.8292 12.6666 14.6665C12.6666 15.6518 13.1053 16.5292 13.788 17.1412C12.6866 17.6158 11.7546 18.4332 11.1373 19.4852C10.428 18.4998 9.99996 17.3025 9.99996 15.9998C9.99996 12.6918 12.692 9.99984 16 9.99984C19.308 9.99984 22 12.6918 22 15.9998C22 17.3025 21.572 18.4998 20.864 19.4852Z" fill="#FB5E07"/>
</svg>
