<svg width="41" height="34" viewBox="0 0 41 34" fill="none" xmlns="http://www.w3.org/2000/svg">
<path d="M24.3966 14.376C24.5461 14.4308 24.711 14.4247 24.856 14.3589C25.0009 14.2932 25.1142 14.1731 25.1714 14.0246C25.2286 13.8761 25.2252 13.7111 25.1618 13.5651C25.0985 13.4191 24.9803 13.3038 24.8328 13.2442C23.783 12.8396 22.6588 12.6643 21.5358 12.73C20.4127 12.7958 19.3166 13.1011 18.3213 13.6255C17.326 14.1499 16.4544 14.8812 15.765 15.7702C15.0756 16.6593 14.5845 17.6856 14.3246 18.7802H12.5585C12.3976 18.7802 12.2433 18.8441 12.1296 18.9578C12.0158 19.0716 11.9519 19.2259 11.9519 19.3868C11.9519 19.5476 12.0158 19.7019 12.1296 19.8157C12.2433 19.9294 12.3976 19.9933 12.5585 19.9933H14.138C14.1229 20.1944 14.1129 20.3964 14.1129 20.5999C14.1135 20.904 14.1314 21.2078 14.1665 21.5098H12.5585C12.3976 21.5098 12.2433 21.5737 12.1296 21.6875C12.0158 21.8012 11.9519 21.9555 11.9519 22.1164C11.9519 22.2773 12.0158 22.4316 12.1296 22.5453C12.2433 22.6591 12.3976 22.723 12.5585 22.723H14.4031C14.6997 23.7806 15.2138 24.7646 15.9126 25.6121C16.6115 26.4596 17.4795 27.1518 18.4613 27.6444C19.4431 28.137 20.5169 28.4191 21.614 28.4728C22.7111 28.5265 23.8073 28.3504 24.8325 27.956C24.9826 27.8982 25.1036 27.783 25.1689 27.636C25.2341 27.4889 25.2383 27.322 25.1805 27.1718C25.1227 27.0217 25.0075 26.9007 24.8605 26.8354C24.7134 26.7701 24.5465 26.766 24.3963 26.8238C23.5562 27.1484 22.6589 27.2994 21.7588 27.2675C20.8587 27.2356 19.9744 27.0215 19.1593 26.6382C18.3443 26.2549 17.6154 25.7103 17.0168 25.0374C16.4181 24.3644 15.9621 23.5771 15.6763 22.723H21.0507C21.2116 22.723 21.3659 22.6591 21.4796 22.5453C21.5934 22.4316 21.6573 22.2773 21.6573 22.1164C21.6573 21.9555 21.5934 21.8012 21.4796 21.6875C21.3659 21.5737 21.2116 21.5098 21.0507 21.5098H15.3949C15.3515 21.2084 15.3285 20.9044 15.326 20.5999C15.326 20.3961 15.3376 20.1941 15.3564 19.9933H23.477C23.6379 19.9933 23.7922 19.9294 23.906 19.8157C24.0197 19.7019 24.0836 19.5476 24.0836 19.3868C24.0836 19.2259 24.0197 19.0716 23.906 18.9578C23.7922 18.8441 23.6379 18.7802 23.477 18.7802H15.5811C15.8337 17.8878 16.2696 17.0578 16.8611 16.3435C17.4527 15.6292 18.1867 15.0461 19.0164 14.6316C19.8461 14.2171 20.7531 13.9803 21.6796 13.9363C22.606 13.8923 23.5314 14.0421 24.3966 14.376Z" fill="#E06F22"/>
<path d="M2.56616 33.9209H37.7154C38.3958 33.9202 39.0481 33.6496 39.5291 33.1685C40.0102 32.6874 40.2808 32.0351 40.2816 31.3547V2.56616C40.2808 1.8858 40.0102 1.2335 39.5291 0.75241C39.0481 0.271317 38.3958 0.000722557 37.7154 0H2.56616C1.8858 0.000722557 1.2335 0.271317 0.75241 0.75241C0.271317 1.2335 0.000722557 1.8858 0 2.56616V31.3547C0.000722557 32.0351 0.271317 32.6874 0.75241 33.1685C1.2335 33.6496 1.8858 33.9202 2.56616 33.9209ZM37.7154 32.7077H2.56616C2.20745 32.7073 1.86354 32.5647 1.6099 32.311C1.35625 32.0574 1.21357 31.7134 1.21317 31.3547V8.1419H39.0684V31.3547C39.068 31.7134 38.9253 32.0574 38.6717 32.311C38.418 32.5647 38.0741 32.7073 37.7154 32.7077ZM2.56616 1.21317H37.7154C38.0741 1.21357 38.418 1.35625 38.6717 1.6099C38.9253 1.86354 39.068 2.20745 39.0684 2.56616V6.92873H1.21317V2.56616C1.21357 2.20745 1.35625 1.86354 1.6099 1.6099C1.86354 1.35625 2.20745 1.21357 2.56616 1.21317Z" fill="#E06F22"/>
<path d="M7.21181 4.67704H8.73495C8.89583 4.67704 9.05011 4.61313 9.16387 4.49937C9.27763 4.38562 9.34153 4.23133 9.34153 4.07045C9.34153 3.90958 9.27763 3.75529 9.16387 3.64153C9.05011 3.52778 8.89583 3.46387 8.73495 3.46387H7.21181C7.05093 3.46387 6.89665 3.52778 6.78289 3.64153C6.66913 3.75529 6.60522 3.90958 6.60522 4.07045C6.60522 4.23133 6.66913 4.38562 6.78289 4.49937C6.89665 4.61313 7.05093 4.67704 7.21181 4.67704Z" fill="#E06F22"/>
<path d="M10.9408 4.67704H12.464C12.6248 4.67704 12.7791 4.61313 12.8929 4.49937C13.0066 4.38562 13.0705 4.23133 13.0705 4.07045C13.0705 3.90958 13.0066 3.75529 12.8929 3.64153C12.7791 3.52778 12.6248 3.46387 12.464 3.46387H10.9408C10.7799 3.46387 10.6256 3.52778 10.5119 3.64153C10.3981 3.75529 10.3342 3.90958 10.3342 4.07045C10.3342 4.23133 10.3981 4.38562 10.5119 4.49937C10.6256 4.61313 10.7799 4.67704 10.9408 4.67704Z" fill="#E06F22"/>
<path d="M3.48256 4.67704H5.00661C5.16749 4.67704 5.32177 4.61313 5.43553 4.49937C5.54929 4.38562 5.6132 4.23133 5.6132 4.07045C5.6132 3.90958 5.54929 3.75529 5.43553 3.64153C5.32177 3.52778 5.16749 3.46387 5.00661 3.46387H3.48256C3.32169 3.46387 3.1674 3.52778 3.05364 3.64153C2.93988 3.75529 2.87598 3.90958 2.87598 4.07045C2.87598 4.23133 2.93988 4.38562 3.05364 4.49937C3.1674 4.61313 3.32169 4.67704 3.48256 4.67704Z" fill="#E06F22"/>
</svg>
