<svg width="34" height="35" viewBox="0 0 34 35" fill="none" xmlns="http://www.w3.org/2000/svg">
<path d="M2.45454 8.92725V27.8363" stroke="#FB5E07" stroke-width="1.5" stroke-linecap="round" stroke-linejoin="round"/>
<path d="M31.5454 8.92725V27.8363" stroke="#FB5E07" stroke-width="1.5" stroke-linecap="round" stroke-linejoin="round"/>
<path d="M7.54545 23.4727H17V33.6545H7.54545C7.35256 33.6545 7.16758 33.5778 7.03119 33.4415C6.8948 33.3051 6.81818 33.1201 6.81818 32.9272V24.1999C6.81818 24.007 6.8948 23.8221 7.03119 23.6857C7.16758 23.5493 7.35256 23.4727 7.54545 23.4727V23.4727Z" stroke="#1F1B84" stroke-width="1.5" stroke-linecap="round" stroke-linejoin="round"/>
<path d="M17 23.4727H26.4545C26.6474 23.4727 26.8324 23.5493 26.9688 23.6857C27.1052 23.8221 27.1818 24.007 27.1818 24.1999V32.9272C27.1818 33.1201 27.1052 33.3051 26.9688 33.4415C26.8324 33.5778 26.6474 33.6545 26.4545 33.6545H17V23.4727Z" stroke="#1F1B84" stroke-width="1.5" stroke-linecap="round" stroke-linejoin="round"/>
<path d="M12.7273 13.291H21.4545C21.6474 13.291 21.8324 13.3676 21.9688 13.504C22.1052 13.6404 22.1818 13.8254 22.1818 14.0183V23.4728H12V14.0183C12 13.8254 12.0766 13.6404 12.213 13.504C12.3494 13.3676 12.5344 13.291 12.7273 13.291V13.291Z" stroke="#1F1B84" stroke-width="1.5" stroke-linecap="round" stroke-linejoin="round"/>
<path d="M14.9091 13.291H19.2727V16.9274C19.2727 17.1203 19.1961 17.3052 19.0597 17.4416C18.9233 17.578 18.7383 17.6546 18.5454 17.6546H15.6363C15.4434 17.6546 15.2585 17.578 15.1221 17.4416C14.9857 17.3052 14.9091 17.1203 14.9091 16.9274V13.291Z" stroke="#1F1B84" stroke-width="1.5" stroke-linecap="round" stroke-linejoin="round"/>
<path d="M9.72726 23.4727H14.0909V27.109C14.0909 27.3019 14.0143 27.4869 13.8779 27.6233C13.7415 27.7597 13.5565 27.8363 13.3636 27.8363H10.4545C10.2617 27.8363 10.0767 27.7597 9.94028 27.6233C9.80389 27.4869 9.72726 27.3019 9.72726 27.109V23.4727Z" stroke="#1F1B84" stroke-width="1.5" stroke-linecap="round" stroke-linejoin="round"/>
<path d="M19.9091 23.4727H24.2727V27.109C24.2727 27.3019 24.1961 27.4869 24.0597 27.6233C23.9233 27.7597 23.7383 27.8363 23.5454 27.8363H20.6363C20.4435 27.8363 20.2585 27.7597 20.1221 27.6233C19.9857 27.4869 19.9091 27.3019 19.9091 27.109V23.4727Z" stroke="#1F1B84" stroke-width="1.5" stroke-linecap="round" stroke-linejoin="round"/>
<path d="M32.2727 8.92728C32.4656 8.92728 32.6506 8.85065 32.787 8.71426C32.9234 8.57787 33 8.39289 33 8.20001V6.54328C33.0002 6.39046 32.9522 6.24145 32.8629 6.11743C32.7736 5.99341 32.6475 5.90067 32.5025 5.85237L17.4364 1.06838C17.1496 0.977208 16.8417 0.977208 16.5549 1.06838L1.51494 5.8611C1.36478 5.90694 1.23349 6.00013 1.14068 6.12676C1.04787 6.25339 0.998531 6.40665 1.00003 6.56364V8.20001C1.00003 8.39289 1.07666 8.57787 1.21305 8.71426C1.34944 8.85065 1.53442 8.92728 1.72731 8.92728H32.2727Z" stroke="#FB5E07" stroke-width="1.5" stroke-linecap="round" stroke-linejoin="round"/>
</svg>
