<?xml version="1.0" encoding="utf-8"?>
<!-- Generator: Adobe Illustrator 22.1.0, SVG Export Plug-In . SVG Version: 6.00 Build 0)  -->
<svg version="1.1" id="Layer_1" xmlns="http://www.w3.org/2000/svg" xmlns:xlink="http://www.w3.org/1999/xlink" x="0px" y="0px"
	 viewBox="0 0 60.4 60.4" style="enable-background:new 0 0 60.4 60.4;" xml:space="preserve">
<style type="text/css">
	.st0{fill:#FFFFFF;stroke:#00A3C8;stroke-miterlimit:10;}
	.st1{fill:none;stroke:#00A3C8;stroke-linecap:round;stroke-linejoin:round;stroke-miterlimit:10;}
	.st2{fill:#FFFFFF;}
	.st3{fill:#00A3C8;}
</style>
<g>
	<g>
		<circle class="st0" cx="1407.5" cy="1403.1" r="30.2"/>
	</g>
	<g>
		<polyline class="st1" points="1393.9,1402.8 1407.5,1389.2 1421.1,1402.8 		"/>
		<line class="st1" x1="1407.5" y1="1389.3" x2="1407.5" y2="1417"/>
	</g>
</g>
<g>
	<g>
		<g>
			<circle class="st2" cx="30.2" cy="30.2" r="29.6"/>
			<path class="st3" d="M30.2,60.3c-16.6,0-30.1-13.5-30.1-30.1c0-16.6,13.5-30.1,30.1-30.1c16.6,0,30.1,13.5,30.1,30.1
				C60.3,46.8,46.8,60.3,30.2,60.3z M30.2,1.1c-16,0-29.1,13-29.1,29.1s13,29.1,29.1,29.1c16,0,29.1-13,29.1-29.1S46.2,1.1,30.2,1.1
				z"/>
		</g>
	</g>
	<g>
		<path class="st3" d="M16.9,30.4c-0.1,0-0.3,0-0.4-0.1c-0.2-0.2-0.2-0.5,0-0.7l13.3-13.3c0.2-0.2,0.5-0.2,0.7,0l13.3,13.3
			c0.2,0.2,0.2,0.5,0,0.7s-0.5,0.2-0.7,0l-13-13l-13,13C17.1,30.3,17,30.4,16.9,30.4z"/>
		<path class="st3" d="M30.2,44.3c-0.3,0-0.5-0.2-0.5-0.5V16.7c0-0.3,0.2-0.5,0.5-0.5s0.5,0.2,0.5,0.5v27.1
			C30.7,44.1,30.5,44.3,30.2,44.3z"/>
	</g>
</g>
</svg>
