<?xml version="1.0" encoding="utf-8"?>
<!-- Generator: Adobe Illustrator 22.1.0, SVG Export Plug-In . SVG Version: 6.00 Build 0)  -->
<svg version="1.1" id="Layer_1" xmlns="http://www.w3.org/2000/svg" xmlns:xlink="http://www.w3.org/1999/xlink" x="0px" y="0px"
	 viewBox="0 0 110.4 110.8" style="enable-background:new 0 0 110.4 110.8;" xml:space="preserve">
<style type="text/css">
	.st0{fill:#00A9CE;}
	.st1{fill:#FFFFFF;}
	.st2{fill:none;stroke:#FFFFFF;stroke-miterlimit:10;}
</style>
<circle class="st0" cx="55.3" cy="55.4" r="55"/>
<g>
	<rect x="27.1" y="38.8" class="st1" width="22.9" height="1"/>
	<rect x="29.8" y="27.5" class="st1" width="19.6" height="1"/>
	<path class="st1" d="M50,50.2H29.8c-0.3,0-0.5-0.2-0.5-0.5s0.2-0.5,0.5-0.5H50c0.3,0,0.5,0.2,0.5,0.5S50.3,50.2,50,50.2z"/>
	<path class="st1" d="M48.8,62.6c-12.6-0.5-22.5-10.8-22.5-23.4c0-12.9,10.5-23.4,23.4-23.4v1c-6.4,0-11.6,10-11.6,22.4
		c0,11.7,4.7,21.5,10.8,22.3l0.4,0.1v1L48.8,62.6z M45.4,17.3c-10.3,2-18.1,11.1-18.1,22s7.7,19.9,18,21.9
		c-4.9-3.3-8.2-11.8-8.2-21.9C37.1,29.2,40.6,20.6,45.4,17.3z"/>
	<path class="st1" d="M48.7,62.6c-6.6-0.9-11.6-11-11.6-23.3c0-12.9,5.7-23.4,12.6-23.4v1c-6.4,0-11.6,10-11.6,22.4
		c0,11.7,4.7,21.5,10.8,22.3L48.7,62.6z"/>
	<rect x="49.2" y="15.9" class="st1" width="1" height="46.8"/>
	<g>
		<rect x="49.5" y="38.8" class="st1" width="23.2" height="1"/>
		<rect x="49.5" y="27.5" class="st1" width="20.5" height="1"/>
		<path class="st1" d="M70.5,50.2H49.7c-0.3,0-0.5-0.2-0.5-0.5s0.2-0.5,0.5-0.5h20.7c0.3,0,0.5,0.2,0.5,0.5S70.7,50.2,70.5,50.2z"/>
		<g>
			<path class="st1" d="M70.7,50.2l-0.9-0.5c1.7-3.2,2.6-6.8,2.6-10.4c0-10.9-7.8-20-18.1-22c4.8,3.3,8.3,11.9,8.3,22h-1
				c0-12.4-5.2-22.4-11.6-22.4v-1c12.9,0,23.4,10.5,23.4,23.4C73.4,43.1,72.5,46.8,70.7,50.2z"/>
			<path class="st2" d="M50,16.4"/>
			<path class="st2" d="M50.1,40"/>
			<path class="st1" d="M61.2,50l-1-0.3c0.9-3.2,1.3-6.8,1.3-10.4c0-12.4-5.2-22.4-11.6-22.4v-1c7,0,12.6,10.5,12.6,23.4
				C62.6,43,62.2,46.6,61.2,50z"/>
		</g>
	</g>
	<path class="st1" d="M55.8,95.6c-0.5,0-0.9,0-1.1-0.4c-0.2-0.4,0.1-0.9,0.3-1.1c0.6-0.8,5.3-8.3,6.9-11.8c1-2.1,1.6-4.4,1.9-5.9
		h-7.9c-2.1-0.1-4.1-0.2-5.9-0.3c-4.4,5.2-4.9,5.4-5.1,5.5c-0.6,0.3-1.3,0.2-1.8,0c-0.3-0.2-0.5-0.5-0.6-1c0-0.2,0-0.7,1.2-5.4h0.1
		c-0.7-0.2-1.3-0.5-1.3-1.1c0-0.5,0.5-0.8,1.2-1.1c-1.3-4.8-1.2-5.2-1.2-5.4c0-0.4,0.2-0.7,0.6-0.9c0.5-0.3,1.2-0.3,1.8,0
		c0.2,0.1,0.7,0.3,5.1,5.5c1.8-0.1,3.7-0.2,5.8-0.3h8c-0.3-1.5-0.9-3.7-1.9-5.9c-1.6-3.5-6.3-11-6.9-11.8c-0.1-0.2-0.5-0.7-0.3-1.1
		c0.2-0.4,0.7-0.4,1.3-0.4h0.2c1,0,2,0.7,2.1,0.8l5,5.7h2.9c0.8,0,1.4,0.6,1.4,1.4S67,62,66.2,62h-0.4l2.8,3.2c0,0,0,0,0.1,0
		s0.2,0,0.3,0h3c0.8,0,1.4,0.6,1.4,1.4S72.8,68,72,68h-1l3.4,3.8h8c2.9,0,5.8,0.8,5.8,2.4s-2.9,2.4-5.8,2.4h-8L71,80.3h1
		c0.4,0,0.7,0.1,1,0.4s0.4,0.6,0.4,1s-0.1,0.7-0.4,1s-0.6,0.4-1,0.4h-3.1c-0.1,0-0.2,0-0.3,0l-2.8,3.2h0.4c0.8,0,1.4,0.6,1.4,1.4
		s-0.6,1.4-1.4,1.4h-2.9l-4.9,5.6c-0.2,0.1-1.1,0.9-2.1,0.9h-0.2C55.9,95.6,55.8,95.6,55.8,95.6z M55.8,94.6c0.1,0,0.1,0,0.2,0h0.2
		c0.6,0,1.2-0.4,1.5-0.6l5.2-5.9h3.4c0.2,0,0.4-0.2,0.4-0.4c0-0.2-0.2-0.4-0.4-0.4h-2.6l4.8-5.4l0.4,0.2c0.1,0,0.1,0.1,0.2,0.1H72
		c0.1,0,0.2,0,0.3-0.1c0.1-0.1,0.1-0.2,0.1-0.3c0-0.1,0-0.2-0.1-0.3c-0.1-0.1-0.2-0.1-0.3-0.1h-3.2l5.1-5.8h8.4
		c3.1,0,4.8-0.9,4.8-1.4s-1.7-1.4-4.8-1.4h-8.4L68.8,67H72c0.2,0,0.4-0.2,0.4-0.4c0-0.2-0.2-0.4-0.4-0.4h-3.1c-0.1,0-0.2,0-0.2,0.1
		l-0.4,0.2l-4.8-5.4h2.6c0.2,0,0.4-0.2,0.4-0.4S66.4,60,66.1,60h-3.3l-0.2-0.2L57.5,54c-0.1-0.1-0.8-0.5-1.4-0.5h-0.2
		c-0.1,0-0.1,0-0.2,0c0.7,1,5.4,8.5,7,11.9c1.1,2.4,1.8,5.1,2.1,6.5l-0.5,0.2l0.5-0.1l0.2,0.6h-0.6h-8.6c-2.2,0.1-4.2,0.2-6,0.3
		h-0.3l-0.2-0.2c-3.2-3.7-4.7-5.2-5-5.4c-0.3-0.1-0.7-0.1-0.8,0c-0.1,0-0.1,0.1-0.1,0.1c0,0.1,0,0.8,1.2,5.1L44.2,73l0.5-0.1
		l0.2,0.8l-0.5,0.2c-0.3,0.1-0.6,0.2-0.7,0.2c0.2,0.1,0.4,0.1,0.7,0.2l0.5,0.1l-0.2,0.8h-0.5l0.5,0.1c-1.1,4.3-1.2,5-1.2,5.1
		s0,0.1,0.1,0.1c0.2,0.1,0.5,0.1,0.8,0c0.3-0.2,1.8-1.7,4.9-5.4l0.2-0.2h0.3c1.8,0.2,3.8,0.3,6,0.3H65L64.8,76
		c-0.3,1.4-0.9,4.1-2.1,6.5C61.1,86.1,56.5,93.6,55.8,94.6z"/>
</g>
</svg>
