<?xml version="1.0" encoding="utf-8"?>
<!-- Generator: Adobe Illustrator 22.1.0, SVG Export Plug-In . SVG Version: 6.00 Build 0)  -->
<svg version="1.1" id="Layer_1" xmlns="http://www.w3.org/2000/svg" xmlns:xlink="http://www.w3.org/1999/xlink" x="0px" y="0px"
	 viewBox="0 0 110.4 110.8" style="enable-background:new 0 0 110.4 110.8;" xml:space="preserve">
<style type="text/css">
	.st0{fill:#00A9CE;}
	.st1{fill:#FFFFFF;}
</style>
<circle class="st0" cx="55.3" cy="55.4" r="55"/>
<g>
	<g>
		<g>
			
				<rect x="18.7" y="38.7" transform="matrix(0.9892 -0.1468 0.1468 0.9892 -5.7083 6.7455)" class="st1" width="48.3" height="6.7"/>
		</g>
		<path class="st1" d="M88.9,83.5h-47c-1.9,0-3.5-1.6-3.5-3.5V51.2c0-1.9,1.6-3.5,3.5-3.5h47c1.9,0,3.5,1.6,3.5,3.5V80
			C92.4,81.9,90.8,83.5,88.9,83.5z M41.9,48.7c-1.4,0-2.5,1.1-2.5,2.5V80c0,1.4,1.1,2.5,2.5,2.5h47c1.4,0,2.5-1.1,2.5-2.5V51.2
			c0-1.4-1.1-2.5-2.5-2.5H41.9z"/>
		<path class="st1" d="M22.6,70c-1.6,0-3-1.2-3.3-2.8l-4.4-28.8c-0.1-0.9,0.1-1.7,0.6-2.5c0.5-0.7,1.3-1.2,2.2-1.3l46.8-7.2
			c0.9-0.1,1.7,0.1,2.5,0.6c0.7,0.5,1.2,1.3,1.3,2.2l2.8,18c0,0.3-0.1,0.5-0.4,0.6c-0.3,0-0.5-0.1-0.6-0.4l-2.8-18
			c-0.1-0.6-0.4-1.1-0.9-1.5s-1.1-0.5-1.7-0.4l-46.8,7.2c-0.6,0.1-1.1,0.4-1.5,0.9s-0.5,1.1-0.4,1.7L20.3,67
			c0.2,1.3,1.4,2.1,2.6,1.9l15.9-2.4c0.3,0,0.5,0.1,0.6,0.4c0,0.3-0.1,0.5-0.4,0.6L23.1,70C22.9,70,22.7,70,22.6,70z"/>
		<path class="st1" d="M55.2,64.9H44c-0.5,0-1-0.4-1-1V56c0-0.5,0.5-1,1-1h11.3c0.5,0,1,0.5,1,1v7.9C56.2,64.4,55.8,64.9,55.2,64.9z
			"/>
		<path class="st1" d="M49.6,70.7H43c-0.3,0-0.5-0.2-0.5-0.5s0.2-0.5,0.5-0.5h6.6c0.3,0,0.5,0.2,0.5,0.5S49.9,70.7,49.6,70.7z"/>
		<path class="st1" d="M57.9,76.8H43c-0.3,0-0.5-0.2-0.5-0.5s0.2-0.5,0.5-0.5h14.9c0.3,0,0.5,0.2,0.5,0.5S58.2,76.8,57.9,76.8z"/>
		<path class="st1" d="M86.9,55.3H72c-0.3,0-0.5-0.2-0.5-0.5s0.2-0.5,0.5-0.5h14.9c0.3,0,0.5,0.2,0.5,0.5S87.2,55.3,86.9,55.3z"/>
		<path class="st1" d="M61.8,70.7h-6.6c-0.3,0-0.5-0.2-0.5-0.5s0.2-0.5,0.5-0.5h6.6c0.3,0,0.5,0.2,0.5,0.5S62,70.7,61.8,70.7z"/>
		<path class="st1" d="M73.9,70.7h-6.6c-0.3,0-0.5-0.2-0.5-0.5s0.2-0.5,0.5-0.5h6.6c0.3,0,0.5,0.2,0.5,0.5S74.2,70.7,73.9,70.7z"/>
		<path class="st1" d="M86.1,70.7h-6.6c-0.3,0-0.5-0.2-0.5-0.5s0.2-0.5,0.5-0.5h6.6c0.3,0,0.5,0.2,0.5,0.5S86.3,70.7,86.1,70.7z"/>
		<g>
			<circle class="st1" cx="83.7" cy="76.3" r="2.7"/>
		</g>
		<g>
			<circle class="st1" cx="80" cy="76.3" r="2.7"/>
		</g>
	</g>
</g>
</svg>
