<?xml version="1.0" encoding="utf-8"?>
<!-- Generator: Adobe Illustrator 22.1.0, SVG Export Plug-In . SVG Version: 6.00 Build 0)  -->
<svg version="1.1" id="Layer_1" xmlns="http://www.w3.org/2000/svg" xmlns:xlink="http://www.w3.org/1999/xlink" x="0px" y="0px"
	 viewBox="0 0 110.4 110.8" style="enable-background:new 0 0 110.4 110.8;" xml:space="preserve">
<style type="text/css">
	.st0{fill:#00A9CE;}
	.st1{fill:#FFFFFF;}
	.st2{font-family:'Arial-BoldMT';}
	.st3{font-size:19.1527px;}
</style>
<circle class="st0" cx="55.3" cy="55.4" r="55"/>
<g>
	<g>
		<rect x="53.5" y="45.7" class="st1" width="2.4" height="3.5"/>
		<rect x="53.5" y="63" class="st1" width="2.4" height="3.5"/>
		<text transform="matrix(1 0 0 1 48.2783 62.7603)" class="st1 st2 st3">S</text>
	</g>
	<path class="st1" d="M72.9,82.8c-0.1,0-0.2,0-0.2-0.1l-18-9.5l-18,9.5c-0.2,0.1-0.4,0.1-0.5,0C36,82.6,36,82.4,36,82.2l3.4-20.1
		L24.7,47.8c-0.1-0.1-0.2-0.3-0.1-0.5S24.8,47,25,47l20.2-2.9l9-18.3c0.2-0.3,0.7-0.3,0.9,0l9,18.3L84.3,47c0.2,0,0.3,0.2,0.4,0.3
		c0.1,0.2,0,0.4-0.1,0.5L70,62.1l3.4,20.1c0,0.2,0,0.4-0.2,0.5C73.2,82.7,73,82.8,72.9,82.8z M26.2,47.8l14.1,13.7
		c0.1,0.1,0.2,0.3,0.1,0.4l-3.3,19.4l17.4-9.1c0.1-0.1,0.3-0.1,0.5,0l17.4,9.1L69,62c0-0.2,0-0.3,0.1-0.4l14.1-13.7L63.7,45
		c-0.2,0-0.3-0.1-0.4-0.3l-8.7-17.6L46,44.7c-0.1,0.1-0.2,0.2-0.4,0.3L26.2,47.8z"/>
</g>
</svg>
