<?xml version="1.0" encoding="UTF-8" standalone="no"?>
<!-- Generator: Adobe Illustrator 22.1.0, SVG Export Plug-In . SVG Version: 6.00 Build 0)  -->

<svg
   xmlns:dc="http://purl.org/dc/elements/1.1/"
   xmlns:cc="http://creativecommons.org/ns#"
   xmlns:rdf="http://www.w3.org/1999/02/22-rdf-syntax-ns#"
   xmlns:svg="http://www.w3.org/2000/svg"
   xmlns="http://www.w3.org/2000/svg"
   xmlns:sodipodi="http://sodipodi.sourceforge.net/DTD/sodipodi-0.dtd"
   xmlns:inkscape="http://www.inkscape.org/namespaces/inkscape"
   version="1.1"
   id="Layer_1"
   x="0px"
   y="0px"
   viewBox="0 0 41.2 61"
   style="enable-background:new 0 0 41.2 61;"
   xml:space="preserve"
   sodipodi:docname="PopularItemsArrowLeft.svg"
   inkscape:version="0.92.3 (2405546, 2018-03-11)"><metadata
   id="metadata17"><rdf:RDF><cc:Work
       rdf:about=""><dc:format>image/svg+xml</dc:format><dc:type
         rdf:resource="http://purl.org/dc/dcmitype/StillImage" /><dc:title>NV</dc:title></cc:Work></rdf:RDF></metadata><defs
   id="defs15" /><sodipodi:namedview
   pagecolor="#ffffff"
   bordercolor="#666666"
   borderopacity="1"
   objecttolerance="10"
   gridtolerance="10"
   guidetolerance="10"
   inkscape:pageopacity="0"
   inkscape:pageshadow="2"
   inkscape:window-width="656"
   inkscape:window-height="480"
   id="namedview13"
   showgrid="false"
   inkscape:zoom="3.8688525"
   inkscape:cx="20.6"
   inkscape:cy="30.5"
   inkscape:window-x="1326"
   inkscape:window-y="236"
   inkscape:window-maximized="0"
   inkscape:current-layer="Layer_1" />
<style
   type="text/css"
   id="style2">
	.st0{fill:#D7D7D7;}
</style>
<title
   id="title4">NV</title>
<g
   id="g10"
   transform="matrix(-1,0,0,1,41.2,0)">
	<path
   class="st0"
   d="M 40.6,61 H 0.6 C 0.3,61 0.1,60.8 0.1,60.5 V 0.5 C 0.1,0.2 0.3,0 0.6,0 h 40 c 0.3,0 0.5,0.2 0.5,0.5 v 60 c 0,0.3 -0.2,0.5 -0.5,0.5 z M 1.1,60 h 39 V 1 h -39 v 59 z"
   id="path6"
   inkscape:connector-curvature="0"
   style="fill:#d7d7d7" />
	<path
   class="st0"
   d="m 15.1,44.5 c -0.1,0 -0.3,0 -0.4,-0.1 -0.2,-0.2 -0.2,-0.5 0,-0.7 L 27.8,30.6 14.8,17.4 c -0.2,-0.2 -0.2,-0.5 0,-0.7 0.2,-0.2 0.5,-0.2 0.7,0 L 29,30.1 c 0.1,0.1 0.1,0.2 0.1,0.4 0,0.2 -0.1,0.3 -0.1,0.4 L 15.5,44.4 c -0.1,0.1 -0.2,0.1 -0.4,0.1 z"
   id="path8"
   inkscape:connector-curvature="0"
   style="fill:#d7d7d7" />
</g>
</svg>