<?xml version="1.0" encoding="utf-8"?>
<!-- Generator: Adobe Illustrator 22.1.0, SVG Export Plug-In . SVG Version: 6.00 Build 0)  -->
<svg version="1.1" id="Layer_1" xmlns="http://www.w3.org/2000/svg" xmlns:xlink="http://www.w3.org/1999/xlink" x="0px" y="0px"
	 viewBox="0 0 350 316" style="enable-background:new 0 0 350 316;" xml:space="preserve">
<style type="text/css">
	.st0{fill:#FFFFFF;}
	.st1{fill:#808080;}
	.st2{fill:#FFFFFF;stroke:#808080;stroke-miterlimit:10;}
	.st3{fill:#F6F6F6;}
</style>
<g>
	<circle class="st0" cx="-327.1" cy="-921" r="20"/>
	<path class="st1" d="M-327.1-900.5c-11.3,0-20.5-9.2-20.5-20.5s9.2-20.5,20.5-20.5s20.5,9.2,20.5,20.5S-315.8-900.5-327.1-900.5z
		 M-327.1-940.5c-10.8,0-19.5,8.7-19.5,19.5s8.7,19.5,19.5,19.5s19.5-8.7,19.5-19.5S-316.3-940.5-327.1-940.5z"/>
</g>
<g>
	<path class="st1" d="M-327.7-913.6v-14.6h-3.3v-1.8h5.2v16.3H-327.7z"/>
</g>
<circle class="st2" cx="-265.3" cy="-921" r="20"/>
<text transform="matrix(1 0 0 1 -272.0557 -913.6193)" class="st1" style="font-family:'Montserrat-Light'; font-size:23.3434px;">2</text>
<circle class="st2" cx="-205" cy="-921" r="20"/>
<text transform="matrix(1 0 0 1 -211.1511 -913.6193)" class="st1" style="font-family:'Montserrat-Light'; font-size:23.3434px;">3</text>
<polygon class="st3" points="350,0 0,0 0,280 271.6,280 302.5,316 302.5,280 350,280 "/>
</svg>
