<?xml version="1.0" encoding="utf-8"?>
<!-- Generator: Adobe Illustrator 22.1.0, SVG Export Plug-In . SVG Version: 6.00 Build 0)  -->
<svg version="1.1" id="Layer_1" xmlns="http://www.w3.org/2000/svg" xmlns:xlink="http://www.w3.org/1999/xlink" x="0px" y="0px"
	 viewBox="0 0 450 170.6" style="enable-background:new 0 0 450 170.6;" xml:space="preserve">
<style type="text/css">
	.st0{fill:#FFFFFF;}
	.st1{clip-path:url(#SVGID_2_);fill:#C78E5C;}
	.st2{opacity:0.3;clip-path:url(#SVGID_2_);fill:#FFFFFF;enable-background:new    ;}
	.st3{clip-path:url(#SVGID_2_);}
	.st4{fill:#C9905C;}
	.st5{fill:#EABD8D;}
	.st6{fill:#A5714E;}
	.st7{opacity:0.3;fill:#FFFFFF;enable-background:new    ;}
	.st8{fill:#C4925C;}
	.st9{fill:#58595B;}
	.st10{fill:#475769;}
	.st11{fill:#0A6FC1;}
	.st12{fill:#9CA8B5;}
	.st13{fill:#97BBD3;}
	.st14{fill:#818B94;}
	.st15{fill:#5B6975;}
	.st16{fill:#A89B7A;}
	.st17{fill:#44BA92;}
	.st18{fill:#0299B2;}
	.st19{fill:#00A9CE;}
	.st20{fill:#F1B180;}
	.st21{fill:#E3A170;}
	.st22{fill:#E2EDF7;}
	.st23{fill:#57341C;}
	.st24{fill:#971D20;}
	.st25{fill:#F5C5A0;}
	.st26{clip-path:url(#SVGID_2_);fill:#A3714F;}
	.st27{clip-path:url(#SVGID_2_);fill:#E8BB89;}
	.st28{fill:#301717;}
	.st29{fill:#BF1B4E;}
	.st30{fill:#5D0B0E;}
	.st31{fill:#3F3B39;}
	.st32{fill:#F6F6F6;}
	.st33{fill:#888888;}
</style>
<rect x="0.2" class="st0" width="450" height="170.6"/>
<g>
	<defs>
		<rect id="SVGID_1_" x="21.2" y="3.8" width="418" height="163"/>
	</defs>
	<clipPath id="SVGID_2_">
		<use xlink:href="#SVGID_1_"  style="overflow:visible;"/>
	</clipPath>
	<path class="st1" d="M223.6,134.2l36.9-15.8c0.1,0,0.1,0,0.2,0.1c0,0,0,0,0,0.1l-0.1,47.6L223.5,182L223.6,134.2z"/>
	<polygon class="st2" points="247.4,123.8 241.1,126.4 241.2,174.3 247.6,171.6 	"/>
	<g class="st3">
		<g>
			<path class="st0" d="M228.9,153.7c-0.1,0.8-0.5,1.7-1.2,2.5c-0.6,0.7-1.3,1.4-2.1,1.8c0,0,0,0-0.1,0c-0.1,0-0.2-0.2-0.4-0.6
				c-0.2-0.5-0.3-0.7-0.3-0.9c0,0,0-0.1,0.1-0.1c0.4-0.2,0.7-0.5,1.1-0.8c0.4-0.4,0.6-0.8,0.7-1.2c0-0.3-0.1-0.5-0.3-0.7
				c-0.4-0.4-0.6-0.6-0.6-0.6c-0.2-0.3-0.3-0.8-0.2-1.2c0.1-0.7,0.5-1.5,1.1-2.2c0.6-0.6,1.2-1.2,1.9-1.5c0,0,0.1,0,0.1,0
				c0.1,0,0.1,0,0.1,0.1c0.1,0.5,0.3,0.9,0.5,1.3c0,0,0,0,0,0.1c0,0.1,0,0.1-0.1,0.1c0,0,0,0,0,0c0,0-0.1,0-0.1,0
				c-0.1,0-0.1,0-0.2,0c-0.2,0.1-0.5,0.3-0.7,0.5c-0.2,0.2-0.4,0.5-0.4,0.8c0,0.2,0.1,0.5,0.3,0.8c0.4,0.5,0.6,0.7,0.6,0.7
				C228.8,152.8,228.9,153.2,228.9,153.7z"/>
			<path class="st0" d="M235.3,149.5l-0.5,4.2c0,0.1-0.1,0.2-0.2,0.3c-0.1,0.1-0.4,0.2-0.8,0.3c-0.3,0.1-0.5,0.2-0.8,0.3
				c-0.1,0-0.2,0-0.1-0.2c0-0.3,0.1-0.9,0.2-1.6c0.1-0.7,0.2-1.2,0.2-1.6c0.1-0.5-0.1-0.6-0.6-0.4c-0.2,0.1-0.4,0.2-0.5,0.4
				c-0.2,0.2-0.4,0.4-0.4,0.6l-0.2,1.5c0,0.2-0.1,0.5-0.1,0.9c0,0.4-0.1,0.7-0.1,0.9c0,0.1-0.1,0.3-0.2,0.3
				c-0.1,0.1-0.4,0.2-0.9,0.4c-0.2,0.1-0.4,0.2-0.6,0.2c-0.1,0-0.2,0-0.2-0.1c0-0.3,0.1-0.8,0.2-1.4c0.1-0.6,0.1-1.1,0.2-1.4
				c0.2-1.3,0.3-2.4,0.4-3.3c0-0.3,0.1-0.6,0.1-0.9c0-0.3,0-0.6,0-0.9c0,0,0-0.1,0-0.1c0-0.1,0-0.1,0.1-0.2c0.2-0.1,0.3-0.2,0.5-0.3
				c0.3-0.1,0.5-0.2,0.5-0.2l1-0.5c0.1,0,0.1,0,0.1,0.1c0,0.1,0,0.3-0.1,0.5c0,0.3-0.1,0.4-0.1,0.5c-0.1,0.9-0.2,1.7-0.3,2.2
				c0,0.1,0,0.1,0,0.1c0,0,0.1-0.1,0.3-0.3c0.2-0.2,0.4-0.4,0.7-0.6c0.3-0.2,0.6-0.4,0.9-0.6c0.5-0.2,0.8-0.2,1.1-0.1
				C235.3,148.7,235.4,149,235.3,149.5z"/>
			<path class="st0" d="M238,150c0,0.3-0.1,0.7-0.1,1.3c-0.1,0.6-0.1,1-0.1,1.3c0,0.1-0.1,0.2-0.2,0.2c-0.3,0.1-0.6,0.3-0.8,0.4
				c-0.3,0.1-0.6,0.2-0.8,0.3c-0.1,0-0.1,0-0.1,0c0-0.1,0-0.1,0-0.2c0-0.3,0.1-0.7,0.2-1.3c0.1-0.6,0.1-1,0.2-1.3
				c0.1-0.9,0.2-1.8,0.2-2.7c0,0,0-0.1,0-0.1c0-0.1,0.1-0.1,0.2-0.2c0.1,0,0.3-0.1,0.5-0.2c0.2-0.1,0.4-0.1,0.5-0.2
				c0.1,0,0.3-0.1,0.5-0.2c0.2-0.1,0.4-0.2,0.5-0.2c0.1,0,0.1,0,0.1,0.1c0,0,0,0.1,0,0.1C238.3,148.1,238.1,149,238,150z
				 M238.7,145.4c-0.1,0.7-0.5,1.2-1.2,1.5c-0.3,0.1-0.5,0.1-0.7,0c-0.2-0.1-0.3-0.3-0.2-0.7c0-0.3,0.2-0.7,0.4-0.9
				c0.2-0.3,0.5-0.5,0.8-0.6c0.3-0.1,0.5-0.1,0.7,0C238.7,144.8,238.8,145.1,238.7,145.4L238.7,145.4z"/>
			<path class="st0" d="M245,147c-0.1,0.8-0.4,1.7-0.9,2.5c-0.5,0.8-1.2,1.4-2,1.6c-0.3,0.1-0.6,0.2-0.9,0.1c-0.3,0-0.4,0-0.4-0.1
				c0,0-0.1,0.1-0.1,0.2c0,0.2-0.1,0.5-0.1,0.9c0,0.4-0.1,0.7-0.1,0.9c0,0.1-0.1,0.2-0.2,0.3c0,0,0,0,0,0l-1.1,0.5
				c-0.2,0.1-0.3,0.1-0.5,0.2c-0.1,0-0.1,0-0.1-0.1c0,0,0,0,0,0l0.6-4.7c0.1-0.8,0.1-1.6,0.1-2.3c0,0,0-0.1,0-0.1
				c0-0.1,0-0.1,0.1-0.1c0.3-0.2,0.5-0.4,0.8-0.5c0.3-0.2,0.6-0.3,0.9-0.5c0.1-0.1,0.2,0,0.2,0.2c0,0.2,0,0.3,0,0.3
				c0,0,0.1-0.2,0.5-0.5c0.4-0.4,0.7-0.6,1-0.7c0.8-0.3,1.4-0.3,1.8,0.1C245,145.4,245.2,146.1,245,147z M243,147.8
				c0-0.3,0-0.6-0.2-0.8c-0.2-0.2-0.4-0.2-0.7-0.1c-0.3,0.1-0.6,0.4-0.7,0.7c-0.2,0.3-0.3,0.6-0.3,1c0,0.3,0,0.6,0.1,0.8
				c0.1,0.2,0.4,0.2,0.7,0.1C242.6,149.1,242.9,148.6,243,147.8L243,147.8z"/>
			<path class="st0" d="M247.7,146c0,0.3-0.1,0.7-0.1,1.3c-0.1,0.6-0.1,1-0.1,1.3c0,0.1-0.1,0.2-0.2,0.2c-0.3,0.1-0.6,0.3-0.8,0.4
				c-0.3,0.1-0.6,0.2-0.8,0.3c-0.1,0-0.1,0-0.1,0c0-0.1,0-0.1,0-0.2c0-0.3,0.1-0.7,0.2-1.3c0.1-0.6,0.1-1,0.2-1.3
				c0.1-0.9,0.2-1.8,0.2-2.7c0-0.1,0-0.1,0-0.1c0-0.1,0.1-0.1,0.2-0.2c0.1,0,0.3-0.1,0.5-0.2c0.2-0.1,0.4-0.1,0.5-0.2
				c0.1,0,0.3-0.1,0.5-0.2c0.2-0.1,0.4-0.2,0.5-0.2c0.1,0,0.1,0,0.1,0.1c0,0,0,0.1,0,0.1C248,144.1,247.8,145.1,247.7,146z
				 M248.4,141.4c-0.1,0.7-0.5,1.2-1.2,1.5c-0.3,0.1-0.5,0.1-0.7,0c-0.2-0.1-0.3-0.3-0.2-0.7c0-0.3,0.2-0.7,0.4-0.9
				c0.2-0.3,0.5-0.5,0.8-0.6c0.3-0.1,0.5-0.1,0.7,0C248.4,140.8,248.5,141.1,248.4,141.4L248.4,141.4z"/>
			<path class="st0" d="M252.3,145.1c0,0.2-0.1,0.4-0.1,0.6c0,0.2-0.1,0.4-0.1,0.6c0,0.1,0,0.2-0.1,0.2c-0.1,0.1-0.1,0.1-0.2,0.2
				c-0.5,0.5-1,0.8-1.6,1.1c-1,0.4-1.5,0.2-1.4-0.7c0-0.3,0.1-0.7,0.2-1.2c0.1-0.5,0.1-1,0.2-1.2c0-0.2-0.1-0.2-0.2-0.2l-0.1,0
				c0,0-0.1,0-0.1,0c-0.1,0.1-0.2,0-0.2-0.1c0-0.1,0-0.2,0-0.3c0-0.1,0-0.2,0-0.3c0-0.1,0-0.2,0-0.4s0-0.3,0-0.4
				c0-0.1,0.1-0.2,0.4-0.3c0.1-0.1,0.2-0.1,0.2-0.2c0.1-0.3,0.1-0.5,0.1-0.7c0-0.5,0.1-0.8,0.1-0.7c0.1-0.5,0.1-0.7,0.2-0.8
				c0.1-0.1,0.3-0.1,0.4-0.1c0.1,0,0.3,0,0.4-0.1c0.2,0,0.5-0.1,0.8-0.2c0.1,0,0.1,0,0.1,0.1c0,0.2-0.1,0.4-0.1,0.8
				c-0.1,0.3-0.1,0.6-0.1,0.8c0,0.2,0,0.3,0.1,0.2c0.1-0.1,0.3-0.1,0.6-0.3c0.3-0.1,0.4-0.2,0.6-0.3c0.1,0,0.1,0,0.1,0
				c0,0.1,0,0.2-0.1,0.4c0,0.2-0.1,0.3-0.1,0.4c0,0.1,0,0.2,0,0.4c0,0.2,0,0.3,0,0.4c0,0.1-0.1,0.2-0.2,0.2c-0.1,0-0.2,0.1-0.4,0.1
				c-0.2,0.1-0.3,0.1-0.4,0.1l-0.4,0.2c-0.1,0-0.1,0.1-0.1,0.3l-0.1,0.4c0,0.2,0,0.3,0,0.4c0,0.3,0,0.6,0,0.7c0.1,0.1,0.3,0.1,0.5,0
				c0.1-0.1,0.3-0.1,0.4-0.2C251.9,145.2,252.1,145.1,252.3,145.1C252.3,145,252.3,145,252.3,145.1z"/>
			<path class="st0" d="M258.2,141.5c-0.1,0.9-0.5,1.8-1,2.6c-0.6,0.8-1.3,1.4-2.1,1.7c-0.8,0.3-1.4,0.3-1.9-0.1
				c-0.4-0.4-0.6-1-0.5-1.9c0.1-1,0.5-1.8,1-2.6c0.6-0.8,1.3-1.4,2.1-1.7c0.8-0.3,1.4-0.3,1.9,0.1
				C258.2,139.9,258.3,140.6,258.2,141.5z M256.4,142.2c0-0.3,0-0.6-0.2-0.7c-0.1-0.2-0.4-0.2-0.6-0.1c-0.3,0.1-0.6,0.4-0.7,0.7
				c-0.2,0.3-0.3,0.6-0.4,1c0,0.3,0,0.6,0.2,0.7c0.1,0.2,0.4,0.2,0.7,0.1c0.3-0.1,0.6-0.4,0.7-0.7
				C256.3,142.9,256.4,142.6,256.4,142.2z"/>
			<path class="st0" d="M258.5,137.4C258.5,137.4,258.5,137.4,258.5,137.4c0,0-0.1,0-0.1,0c0,0-0.1,0-0.1,0l0,0c0,0,0,0,0,0l0-0.1
				c0,0,0-0.1-0.1-0.1c0,0,0,0,0,0l-0.1,0c0,0,0,0,0,0s0,0.1,0,0.1c0,0,0,0.1,0,0.1c0,0,0,0,0,0l0,0l-0.1,0c0,0-0.1,0-0.1,0
				c0,0,0,0,0,0c0,0,0-0.1,0-0.2c0-0.1,0-0.1,0-0.2c0-0.1,0-0.3,0-0.3l0,0c0,0,0,0,0,0c0,0,0.1,0,0.1-0.1l0.1-0.1c0.1,0,0.1,0,0.2,0
				c0.1,0,0.1,0.1,0.1,0.1c0,0,0,0.1,0,0.1c0,0,0,0.1-0.1,0.1c0,0,0,0,0,0l0.1,0.1C258.4,137.3,258.5,137.3,258.5,137.4z M258.3,137
				C258.3,136.9,258.2,136.9,258.3,137c-0.1-0.1-0.1-0.1-0.1-0.1c0,0,0,0,0,0c0,0,0,0.1,0,0.1c0,0,0,0,0,0c0,0,0,0,0,0c0,0,0,0,0,0
				c0,0,0,0,0.1,0C258.2,137.1,258.3,137,258.3,137L258.3,137z"/>
			<path class="st0" d="M258.2,137.9c-0.4,0.2-0.7,0-0.7-0.5s0.3-0.9,0.7-1c0.4-0.2,0.7,0,0.7,0.5l0,0
				C258.9,137.2,258.6,137.7,258.2,137.9z M258.2,136.5c-0.3,0.1-0.5,0.5-0.5,0.8s0.3,0.5,0.6,0.4c0.3-0.1,0.5-0.5,0.5-0.8
				c0,0,0,0,0,0C258.7,136.6,258.5,136.4,258.2,136.5z"/>
		</g>
	</g>
	<g class="st3">
		<polygon class="st4" points="71.9,87.5 100,55.3 113.2,94.8 85.1,127 		"/>
		<polygon class="st5" points="30.8,79.2 59,47.1 100,55.3 71.9,87.5 		"/>
		<polygon class="st6" points="71.9,87.5 85.1,127 44,118.7 30.8,79.2 		"/>
		<polygon class="st7" points="73.9,50 45.8,82.2 45.8,82.2 45.8,82.2 59,121.7 66.1,123.2 53,83.6 81.1,51.5 		"/>
		<path class="st8" d="M85.1,126.8c-0.1,0.1-0.3,0-0.3-0.2l-13.2-39c0-0.1,0-0.2,0.1-0.3l28.2-32.2c0.1-0.1,0.3-0.1,0.4,0
			c0.1,0.1,0.1,0.3,0,0.4l-28.1,32l13.1,38.9C85.3,126.5,85.3,126.7,85.1,126.8z"/>
		<polygon class="st7" points="90,66.8 90,66.8 90,66.8 49,58.5 44.2,63.9 85.2,72.3 98.5,111.6 103.4,106.1 		"/>
	</g>
	<g class="st3">
		<g>
			<path class="st0" d="M86.9,111.7c0.2,0.6,0.2,1.4-0.1,2.3c-0.3,0.9-0.7,1.8-1.2,2.5c0,0,0,0,0,0.1c-0.1,0.1-0.3,0-0.6-0.1
				c-0.4-0.1-0.6-0.2-0.6-0.3c0,0,0-0.1,0-0.1c0.2-0.4,0.5-0.8,0.7-1.2c0.2-0.5,0.3-0.9,0.2-1.2c-0.1-0.2-0.2-0.3-0.5-0.3
				c-0.5,0-0.7,0-0.7,0c-0.3-0.1-0.5-0.3-0.6-0.6c-0.2-0.5-0.1-1.2,0.2-2.1c0.3-0.8,0.7-1.6,1.1-2.3c0,0,0-0.1,0.1-0.1
				c0-0.1,0.1-0.1,0.1,0c0.3,0.2,0.6,0.4,0.9,0.5c0,0,0,0,0,0c0,0,0,0.1,0,0.2c0,0,0,0,0,0c0,0-0.1,0.1-0.1,0.1c0,0-0.1,0.1-0.1,0.1
				c-0.2,0.2-0.3,0.5-0.4,0.8c-0.1,0.3-0.2,0.6-0.1,0.8c0.1,0.2,0.2,0.3,0.5,0.3c0.5,0,0.8,0,0.8,0
				C86.6,111.2,86.8,111.4,86.9,111.7z"/>
			<path class="st0" d="M91,104.7l1.1,3c0,0.1,0,0.2,0,0.3c-0.1,0.1-0.3,0.4-0.6,0.8c-0.2,0.3-0.4,0.5-0.6,0.7
				c-0.1,0.1-0.2,0.1-0.2,0c-0.1-0.2-0.2-0.6-0.4-1.1c-0.2-0.5-0.3-0.9-0.4-1.1c-0.1-0.3-0.3-0.3-0.7,0.1c-0.1,0.2-0.2,0.4-0.3,0.6
				c-0.1,0.3-0.2,0.5-0.1,0.6l0.4,1.1c0.1,0.1,0.1,0.3,0.2,0.6c0.1,0.3,0.2,0.5,0.2,0.6c0,0.1,0,0.2-0.1,0.3
				c-0.1,0.1-0.3,0.4-0.7,0.9c-0.1,0.2-0.3,0.4-0.5,0.6c-0.1,0.1-0.2,0.1-0.2,0c-0.1-0.2-0.2-0.6-0.4-1c-0.2-0.5-0.3-0.8-0.4-1
				c-0.4-0.9-0.7-1.7-0.9-2.3c-0.1-0.2-0.2-0.4-0.3-0.6c-0.1-0.2-0.2-0.4-0.3-0.5c0,0,0,0,0-0.1c0,0,0-0.1,0-0.2
				c0.1-0.2,0.2-0.3,0.3-0.5c0.2-0.3,0.3-0.4,0.4-0.5l0.7-1c0-0.1,0.1-0.1,0.1,0c0,0.1,0.1,0.2,0.1,0.4c0.1,0.2,0.1,0.3,0.1,0.4
				c0.2,0.7,0.4,1.2,0.6,1.6c0,0.1,0,0.1,0.1,0c0,0,0.1-0.1,0.1-0.4c0.1-0.3,0.2-0.6,0.3-0.8c0.1-0.3,0.3-0.6,0.5-0.9
				c0.3-0.4,0.6-0.7,0.9-0.8C90.6,104.2,90.9,104.3,91,104.7z"/>
			<path class="st0" d="M93.5,103.1c0.1,0.2,0.2,0.5,0.4,0.9c0.2,0.4,0.3,0.7,0.4,0.9c0,0.1,0,0.2-0.1,0.2c-0.2,0.3-0.4,0.5-0.6,0.8
				c-0.2,0.3-0.4,0.5-0.6,0.8c-0.1,0.1-0.1,0.1-0.1,0.1c0,0,0-0.1-0.1-0.1c-0.1-0.2-0.2-0.5-0.3-0.9c-0.1-0.4-0.2-0.7-0.3-0.9
				c-0.2-0.6-0.5-1.3-0.8-1.8c0,0,0-0.1,0-0.1c0-0.1,0-0.1,0.1-0.2s0.2-0.2,0.3-0.4c0.2-0.2,0.3-0.3,0.3-0.4
				c0.1-0.1,0.2-0.3,0.3-0.5c0.1-0.2,0.3-0.4,0.3-0.5c0.1-0.1,0.1-0.1,0.1,0c0,0,0,0,0,0.1C93,101.8,93.3,102.5,93.5,103.1z
				 M92.4,99.8c0.2,0.5,0,1.1-0.5,1.7c-0.2,0.3-0.4,0.4-0.6,0.5c-0.2,0.1-0.4,0-0.4-0.2c-0.1-0.2-0.1-0.5,0-0.9
				c0.1-0.3,0.3-0.6,0.5-0.9c0.2-0.2,0.4-0.4,0.6-0.5C92.2,99.5,92.3,99.6,92.4,99.8L92.4,99.8z"/>
			<path class="st0" d="M98.5,96.4c0.2,0.6,0.3,1.3,0.1,2.2c-0.2,0.8-0.6,1.7-1.1,2.4c-0.2,0.3-0.5,0.5-0.7,0.7
				c-0.3,0.2-0.4,0.3-0.4,0.2c0,0,0,0.1,0,0.2c0.1,0.1,0.1,0.4,0.3,0.6c0.1,0.3,0.2,0.5,0.3,0.6c0,0.1,0,0.2-0.1,0.3c0,0,0,0,0,0
				l-0.8,1c-0.1,0.2-0.2,0.3-0.4,0.4c-0.1,0.1-0.1,0.1-0.2,0c0,0,0,0,0,0l-1.2-3.3c-0.2-0.6-0.5-1.1-0.8-1.5c0,0,0,0,0-0.1
				c0,0,0-0.1,0-0.1c0.2-0.3,0.3-0.6,0.5-0.9c0.2-0.3,0.4-0.6,0.6-0.9c0.1-0.1,0.2-0.1,0.3,0c0.1,0.1,0.1,0.2,0.1,0.2
				c0,0,0.1-0.2,0.2-0.7c0.2-0.5,0.4-0.9,0.6-1.1c0.6-0.7,1.1-1.1,1.6-1.2C97.9,95.5,98.3,95.8,98.5,96.4z M97.1,98.3
				c-0.1-0.2-0.2-0.3-0.4-0.4c-0.2,0-0.4,0.2-0.6,0.4c-0.2,0.3-0.4,0.6-0.4,0.9c0,0.3,0,0.6,0.1,0.8c0.1,0.2,0.2,0.4,0.4,0.4
				c0.2,0,0.4-0.1,0.6-0.4C97.2,99.5,97.3,98.9,97.1,98.3L97.1,98.3z"/>
			<path class="st0" d="M100.5,93.9c0.1,0.2,0.2,0.5,0.4,0.9c0.2,0.4,0.3,0.7,0.4,0.9c0,0.1,0,0.2-0.1,0.2c-0.2,0.3-0.4,0.5-0.6,0.8
				c-0.2,0.3-0.4,0.5-0.6,0.8c-0.1,0.1-0.1,0.1-0.1,0.1c0,0,0-0.1-0.1-0.1c-0.1-0.2-0.2-0.5-0.3-0.9c-0.1-0.4-0.2-0.7-0.3-0.9
				c-0.2-0.7-0.5-1.3-0.8-1.8c0,0,0-0.1,0-0.1c0-0.1,0-0.1,0.1-0.2s0.2-0.2,0.3-0.4c0.2-0.2,0.3-0.3,0.3-0.4s0.2-0.3,0.3-0.5
				c0.1-0.2,0.3-0.4,0.3-0.5c0.1-0.1,0.1-0.1,0.1,0c0,0,0,0,0,0.1C100,92.6,100.3,93.3,100.5,93.9z M99.4,90.6
				c0.2,0.5,0,1.1-0.5,1.7c-0.2,0.3-0.4,0.4-0.6,0.5c-0.2,0.1-0.4,0-0.4-0.3c-0.1-0.2-0.1-0.5,0-0.9c0.1-0.3,0.3-0.6,0.5-0.9
				c0.2-0.2,0.4-0.4,0.6-0.5C99.2,90.3,99.3,90.4,99.4,90.6L99.4,90.6z"/>
			<path class="st0" d="M104.1,90.3c0,0.1,0.1,0.3,0.1,0.4c0,0.1,0.1,0.3,0.1,0.4c0,0,0,0.1,0,0.2c0,0.1-0.1,0.2-0.1,0.3
				c-0.3,0.6-0.6,1.2-1,1.8c-0.8,1-1.2,1.2-1.5,0.5c-0.1-0.2-0.2-0.5-0.3-0.9c-0.1-0.4-0.2-0.7-0.3-0.9c0-0.1-0.1-0.1-0.3,0.1
				l-0.1,0.1c0,0,0,0.1,0,0.1c-0.1,0.1-0.2,0.2-0.2,0.1c0,0,0-0.1-0.1-0.2c0-0.1-0.1-0.2-0.1-0.2c0-0.1-0.1-0.1-0.1-0.3
				c-0.1-0.1-0.1-0.2-0.1-0.3c0-0.1,0-0.2,0.2-0.4c0.1-0.1,0.1-0.2,0.1-0.3c0-0.2-0.1-0.4-0.2-0.5c-0.1-0.4-0.2-0.5-0.2-0.5
				c-0.1-0.3-0.2-0.5-0.1-0.6c0.1-0.1,0.2-0.2,0.3-0.3c0.1-0.1,0.2-0.2,0.3-0.3c0.1-0.2,0.4-0.4,0.6-0.7c0.1-0.1,0.1-0.1,0.1-0.1
				c0,0.1,0.1,0.3,0.2,0.6c0.1,0.3,0.1,0.4,0.2,0.6c0.1,0.1,0.1,0.2,0.2,0.1c0.1-0.1,0.2-0.3,0.4-0.6c0.2-0.2,0.3-0.4,0.4-0.6
				c0.1-0.1,0.1-0.1,0.1,0c0,0.1,0.1,0.2,0.1,0.3s0.1,0.3,0.1,0.3c0,0.1,0.1,0.2,0.1,0.3c0.1,0.1,0.1,0.2,0.1,0.3
				c0,0.1,0,0.1-0.1,0.2c-0.1,0.1-0.1,0.2-0.3,0.3s-0.2,0.3-0.3,0.3l-0.3,0.4c0,0.1,0,0.1,0,0.3l0.1,0.3c0.1,0.1,0.1,0.2,0.1,0.3
				c0.1,0.2,0.2,0.4,0.3,0.4c0.1,0,0.3-0.1,0.5-0.4c0.1-0.1,0.2-0.3,0.3-0.4c0.1-0.1,0.2-0.3,0.2-0.4
				C104.1,90.2,104.1,90.2,104.1,90.3z"/>
			<path class="st0" d="M108,83.9c0.2,0.6,0.3,1.4,0.1,2.3c-0.2,0.9-0.6,1.8-1.2,2.5c-0.6,0.8-1.1,1.2-1.6,1.2
				c-0.5,0.1-0.9-0.2-1.1-0.8c-0.2-0.7-0.3-1.4-0.1-2.3c0.2-0.9,0.6-1.7,1.2-2.5c0.6-0.8,1.1-1.2,1.7-1.3
				C107.4,83,107.7,83.3,108,83.9z M106.7,85.6c-0.1-0.2-0.2-0.3-0.4-0.4c-0.2,0-0.4,0.1-0.6,0.4c-0.2,0.3-0.4,0.6-0.4,0.9
				c-0.1,0.3-0.1,0.6,0,0.8c0.1,0.2,0.2,0.3,0.4,0.4c0.2,0,0.4-0.1,0.6-0.4c0.2-0.3,0.4-0.6,0.4-0.9
				C106.8,86.1,106.8,85.8,106.7,85.6z"/>
			<path class="st0" d="M106.7,81.2C106.7,81.2,106.7,81.2,106.7,81.2c0,0,0,0.1-0.1,0.1c0,0,0,0.1-0.1,0.1l0,0c0,0,0,0,0,0l0,0
				c0,0-0.1,0-0.1,0c0,0,0,0,0,0l0,0c0,0,0,0,0,0c0,0,0,0,0,0.1c0,0,0,0,0,0.1c0,0,0,0,0,0l0,0l-0.1,0.1c0,0,0,0.1-0.1,0.1
				c0,0,0,0,0,0c0,0,0-0.1-0.1-0.1c0,0-0.1-0.1-0.1-0.1c-0.1-0.1-0.1-0.2-0.1-0.2l0,0c0,0,0,0,0,0c0,0,0-0.1,0.1-0.1l0.1-0.1
				c0-0.1,0.1-0.1,0.2-0.1c0.1,0,0.1,0,0.1,0c0,0,0,0.1,0,0.1c0,0,0,0.1,0,0.1c0,0,0,0,0,0L106.7,81.2
				C106.6,81.2,106.7,81.2,106.7,81.2z M106.3,81.1C106.3,81.1,106.3,81.1,106.3,81.1c-0.1,0-0.1,0-0.1,0.1c0,0,0,0,0,0.1
				c0,0,0,0,0,0.1c0,0,0,0,0,0c0,0,0,0,0,0c0,0,0,0,0,0c0,0,0,0,0-0.1C106.4,81.2,106.4,81.1,106.3,81.1L106.3,81.1z"/>
			<path class="st0" d="M106.6,81.7c-0.3,0.4-0.6,0.5-0.8,0.2c-0.2-0.2-0.1-0.7,0.2-1.1c0.3-0.4,0.6-0.5,0.8-0.2l0,0
				C107,80.8,106.9,81.3,106.6,81.7z M106.1,80.9c-0.2,0.3-0.3,0.7-0.2,0.9c0.1,0.2,0.4,0.1,0.6-0.2c0.2-0.3,0.3-0.7,0.2-0.9
				c0,0,0,0,0,0C106.6,80.5,106.3,80.6,106.1,80.9z"/>
		</g>
	</g>
	<g class="st3">
		<polygon class="st4" points="388.5,87.6 426.6,71.2 421.6,111.3 383.6,127.7 		"/>
		<polygon class="st5" points="356,63.2 394.1,46.9 426.6,71.2 388.5,87.6 		"/>
		<polygon class="st6" points="388.5,87.6 383.6,127.7 351.1,103.3 356,63.2 		"/>
		<polygon class="st7" points="405.9,55.7 367.9,72.1 367.9,72.1 367.8,72.1 362.9,112.2 368.6,116.5 373.5,76.4 411.6,60 		"/>
		<path class="st8" d="M383.7,127.5c-0.1,0-0.2-0.1-0.2-0.3l4.8-39.7c0-0.1,0.1-0.2,0.2-0.2L426.5,71c0.1-0.1,0.3,0,0.3,0.1
			c0.1,0.1,0,0.3-0.1,0.3l-38,16.3l-4.8,39.5C384,127.4,383.8,127.6,383.7,127.5z"/>
		<polygon class="st7" points="413,77.1 413,77.1 413,77.1 380.6,52.7 374.1,55.5 406.5,79.9 401.8,119.9 408.3,117.1 		"/>
	</g>
	<g class="st3">
		<g>
			<path class="st0" d="M390.9,117.2c-0.1,0.8-0.5,1.7-1.2,2.5c-0.6,0.7-1.3,1.4-2.1,1.8c0,0,0,0-0.1,0c-0.1,0-0.2-0.2-0.4-0.6
				c-0.2-0.5-0.3-0.7-0.3-0.9c0,0,0-0.1,0.1-0.1c0.4-0.2,0.7-0.5,1.1-0.8c0.4-0.4,0.6-0.8,0.7-1.2c0-0.3-0.1-0.5-0.3-0.7
				c-0.4-0.4-0.6-0.6-0.6-0.6c-0.2-0.3-0.3-0.8-0.2-1.2c0.1-0.7,0.5-1.5,1.1-2.2c0.6-0.6,1.2-1.2,1.9-1.5c0,0,0.1,0,0.1,0
				c0.1,0,0.1,0,0.1,0.1c0.1,0.5,0.3,0.9,0.5,1.3c0,0,0,0,0,0.1c0,0.1,0,0.1-0.1,0.1c0,0,0,0,0,0c0,0-0.1,0-0.1,0
				c-0.1,0-0.1,0-0.2,0c-0.2,0.1-0.5,0.3-0.7,0.5c-0.2,0.2-0.4,0.5-0.4,0.8c0,0.2,0.1,0.5,0.3,0.8c0.4,0.5,0.6,0.7,0.6,0.7
				C390.9,116.3,391,116.7,390.9,117.2z"/>
			<path class="st0" d="M397.4,113l-0.5,4.2c0,0.1-0.1,0.2-0.2,0.3c-0.1,0.1-0.4,0.2-0.8,0.3c-0.3,0.1-0.5,0.2-0.8,0.3
				c-0.1,0-0.2,0-0.1-0.2c0-0.3,0.1-0.9,0.2-1.6c0.1-0.7,0.2-1.2,0.2-1.6c0.1-0.5-0.1-0.6-0.6-0.5c-0.2,0.1-0.4,0.2-0.5,0.4
				c-0.2,0.2-0.4,0.4-0.4,0.6l-0.2,1.5c0,0.2-0.1,0.5-0.1,0.9c0,0.4-0.1,0.7-0.1,0.9c0,0.1-0.1,0.3-0.2,0.3
				c-0.1,0.1-0.4,0.2-0.9,0.4c-0.2,0.1-0.4,0.2-0.6,0.2c-0.1,0-0.2,0-0.2-0.1c0-0.3,0.1-0.8,0.2-1.4c0.1-0.6,0.1-1.1,0.2-1.5
				c0.2-1.3,0.3-2.4,0.4-3.3c0-0.3,0.1-0.6,0.1-0.9c0-0.3,0-0.6,0-0.9c0,0,0-0.1,0-0.1c0-0.1,0-0.1,0.1-0.2c0.2-0.1,0.3-0.2,0.5-0.3
				c0.3-0.1,0.5-0.2,0.5-0.2l1-0.5c0.1,0,0.1,0,0.1,0.1c0,0.1,0,0.3-0.1,0.5c0,0.3-0.1,0.4-0.1,0.5c-0.1,0.9-0.2,1.7-0.3,2.2
				c0,0.1,0,0.1,0,0.1c0,0,0.1-0.1,0.3-0.3c0.2-0.2,0.4-0.4,0.7-0.6c0.3-0.2,0.6-0.4,0.9-0.6c0.5-0.2,0.8-0.2,1.1-0.1
				C397.3,112.2,397.5,112.5,397.4,113z"/>
			<path class="st0" d="M400.1,113.5c0,0.3-0.1,0.7-0.1,1.3c-0.1,0.6-0.1,1-0.1,1.3c0,0.1-0.1,0.2-0.2,0.2c-0.3,0.1-0.6,0.3-0.8,0.4
				c-0.3,0.1-0.6,0.2-0.8,0.3c-0.1,0-0.1,0-0.1,0c0-0.1,0-0.1,0-0.2c0-0.3,0.1-0.7,0.2-1.3c0.1-0.6,0.1-1,0.2-1.3
				c0.1-0.9,0.2-1.8,0.2-2.7c0,0,0-0.1,0-0.1c0-0.1,0.1-0.1,0.2-0.2c0.1,0,0.3-0.1,0.5-0.2c0.2-0.1,0.4-0.1,0.5-0.2s0.3-0.1,0.5-0.2
				c0.2-0.1,0.4-0.2,0.5-0.2c0.1,0,0.1,0,0.1,0.1c0,0,0,0.1,0,0.1C400.3,111.6,400.2,112.5,400.1,113.5z M400.8,108.9
				c-0.1,0.7-0.5,1.2-1.2,1.5c-0.3,0.1-0.5,0.1-0.7,0c-0.2-0.1-0.3-0.3-0.2-0.7c0-0.3,0.2-0.7,0.4-0.9c0.2-0.3,0.5-0.5,0.8-0.6
				c0.3-0.1,0.5-0.1,0.7,0C400.7,108.3,400.8,108.6,400.8,108.9L400.8,108.9z"/>
			<path class="st0" d="M407.1,110.4c-0.1,0.8-0.4,1.7-0.9,2.5c-0.5,0.8-1.2,1.4-2,1.6c-0.3,0.1-0.6,0.2-0.9,0.1
				c-0.3,0-0.4,0-0.4-0.1c0,0-0.1,0.1-0.1,0.2c0,0.2-0.1,0.5-0.1,0.9c0,0.4-0.1,0.7-0.1,0.9c0,0.1-0.1,0.2-0.2,0.3c0,0,0,0,0,0
				l-1.1,0.5c-0.2,0.1-0.3,0.1-0.5,0.2c-0.1,0-0.1,0-0.1-0.1c0,0,0,0,0,0l0.6-4.7c0.1-0.8,0.1-1.6,0.1-2.3c0,0,0-0.1,0-0.1
				c0-0.1,0-0.1,0.1-0.1c0.3-0.2,0.5-0.4,0.8-0.5c0.3-0.2,0.6-0.3,0.9-0.5c0.1-0.1,0.2,0,0.2,0.2c0,0.2,0,0.3,0,0.3
				c0,0,0.1-0.2,0.5-0.5c0.4-0.4,0.7-0.6,1-0.7c0.8-0.3,1.4-0.3,1.8,0.1C407.1,108.9,407.2,109.5,407.1,110.4z M405.1,111.3
				c0-0.3,0-0.6-0.2-0.8c-0.2-0.2-0.4-0.2-0.7-0.1c-0.3,0.1-0.6,0.4-0.7,0.7c-0.2,0.3-0.3,0.6-0.3,1c0,0.3,0,0.6,0.1,0.8
				c0.1,0.2,0.4,0.2,0.7,0.1C404.6,112.6,405,112.1,405.1,111.3L405.1,111.3z"/>
			<path class="st0" d="M409.8,109.5c0,0.3-0.1,0.7-0.1,1.3c-0.1,0.6-0.1,1-0.1,1.3c0,0.1-0.1,0.2-0.2,0.2c-0.3,0.1-0.6,0.3-0.8,0.4
				c-0.3,0.1-0.6,0.2-0.8,0.3c-0.1,0-0.1,0-0.1,0c0-0.1,0-0.1,0-0.2c0-0.3,0.1-0.7,0.2-1.3c0.1-0.6,0.1-1,0.2-1.3
				c0.1-0.9,0.2-1.8,0.2-2.7c0-0.1,0-0.1,0-0.1c0-0.1,0.1-0.1,0.2-0.2c0.1,0,0.3-0.1,0.5-0.2c0.2-0.1,0.4-0.1,0.5-0.2
				c0.1,0,0.3-0.1,0.5-0.2c0.2-0.1,0.4-0.2,0.5-0.2c0.1,0,0.1,0,0.1,0.1c0,0,0,0.1,0,0.1C410.1,107.6,409.9,108.5,409.8,109.5z
				 M410.5,104.9c-0.1,0.7-0.5,1.2-1.2,1.5c-0.3,0.1-0.5,0.1-0.7,0c-0.2-0.1-0.3-0.3-0.2-0.7c0-0.3,0.2-0.7,0.4-0.9
				c0.2-0.3,0.5-0.5,0.8-0.6c0.3-0.1,0.5-0.1,0.7,0C410.5,104.3,410.6,104.6,410.5,104.9L410.5,104.9z"/>
			<path class="st0" d="M414.4,108.6c0,0.2-0.1,0.4-0.1,0.6c0,0.2-0.1,0.4-0.1,0.6c0,0.1,0,0.2-0.1,0.2c-0.1,0.1-0.1,0.1-0.2,0.2
				c-0.5,0.5-1,0.8-1.6,1.1c-1,0.4-1.5,0.2-1.4-0.7c0-0.3,0.1-0.7,0.2-1.2c0.1-0.5,0.1-1,0.2-1.2c0-0.2-0.1-0.2-0.2-0.2l-0.1,0
				c0,0-0.1,0-0.1,0c-0.1,0.1-0.2,0-0.2-0.1c0-0.1,0-0.2,0-0.3c0-0.1,0-0.2,0-0.3c0-0.1,0-0.2,0-0.4s0-0.3,0-0.4
				c0-0.1,0.1-0.2,0.4-0.3c0.1-0.1,0.2-0.1,0.2-0.2c0.1-0.3,0.1-0.5,0.1-0.7c0-0.5,0.1-0.8,0.1-0.7c0.1-0.5,0.1-0.7,0.2-0.8
				c0.1-0.1,0.3-0.1,0.4-0.1c0.1,0,0.3,0,0.4-0.1c0.2,0,0.5-0.1,0.8-0.2c0.1,0,0.1,0,0.1,0.1c0,0.2-0.1,0.4-0.1,0.8
				c-0.1,0.3-0.1,0.6-0.1,0.8c0,0.2,0,0.3,0.1,0.2c0.1-0.1,0.3-0.1,0.6-0.3c0.3-0.1,0.4-0.2,0.6-0.3c0.1,0,0.1,0,0.1,0
				c0,0.1,0,0.2-0.1,0.4c0,0.2-0.1,0.3-0.1,0.4c0,0.1,0,0.2,0,0.4c0,0.2,0,0.3,0,0.4c0,0.1-0.1,0.2-0.2,0.2c-0.1,0-0.2,0.1-0.4,0.1
				s-0.3,0.1-0.4,0.1l-0.4,0.2c-0.1,0-0.1,0.1-0.1,0.3l-0.1,0.4c0,0.2,0,0.3,0,0.4c0,0.3,0,0.6,0,0.7c0.1,0.1,0.3,0.1,0.5,0
				c0.1-0.1,0.3-0.1,0.4-0.2C414,108.6,414.1,108.6,414.4,108.6C414.3,108.5,414.4,108.5,414.4,108.6z"/>
			<path class="st0" d="M420.3,105c-0.1,0.9-0.5,1.8-1,2.6c-0.6,0.8-1.3,1.4-2.1,1.7c-0.8,0.3-1.4,0.3-1.9-0.1
				c-0.4-0.4-0.6-1-0.5-1.9c0.1-1,0.5-1.8,1-2.6c0.6-0.8,1.3-1.4,2.1-1.7c0.8-0.3,1.4-0.3,1.9,0.1
				C420.3,103.4,420.4,104.1,420.3,105z M418.5,105.7c0-0.3,0-0.6-0.2-0.8c-0.1-0.2-0.4-0.2-0.6-0.1c-0.3,0.1-0.6,0.4-0.8,0.7
				c-0.2,0.3-0.3,0.6-0.4,1c0,0.3,0,0.6,0.2,0.7c0.1,0.2,0.4,0.2,0.7,0.1c0.3-0.1,0.6-0.4,0.7-0.7
				C418.4,106.4,418.5,106,418.5,105.7z"/>
			<path class="st0" d="M420.6,100.8C420.6,100.8,420.6,100.8,420.6,100.8c0,0-0.1,0-0.1,0c0,0-0.1,0-0.1,0l0,0c0,0,0,0,0,0l0-0.1
				c0,0,0-0.1-0.1-0.1c0,0,0,0,0,0l-0.1,0c0,0,0,0,0,0c0,0,0,0.1,0,0.1s0,0.1,0,0.1c0,0,0,0,0,0l0,0l-0.1,0c0,0-0.1,0-0.1,0
				c0,0,0,0,0,0c0,0,0-0.1,0-0.2c0-0.1,0-0.1,0-0.2c0-0.1,0-0.3,0-0.3l0,0c0,0,0,0,0,0c0,0,0.1,0,0.1-0.1l0.1-0.1c0.1,0,0.1,0,0.2,0
				c0.1,0,0.1,0.1,0.1,0.1c0,0,0,0.1,0,0.1c0,0,0,0.1-0.1,0.1c0,0,0,0,0,0l0.1,0.1C420.5,100.7,420.5,100.8,420.6,100.8z
				 M420.3,100.4C420.3,100.4,420.3,100.4,420.3,100.4c-0.1-0.1-0.1-0.1-0.1-0.1c0,0,0,0,0,0c0,0,0,0.1,0,0.1c0,0,0,0,0,0
				c0,0,0,0,0,0c0,0,0,0,0,0c0,0,0,0,0.1,0C420.3,100.5,420.3,100.5,420.3,100.4L420.3,100.4z"/>
			<path class="st0" d="M420.3,101.3c-0.4,0.2-0.7,0-0.7-0.5c0-0.4,0.3-0.9,0.7-1c0.4-0.2,0.7,0,0.7,0.5l0,0
				C421,100.7,420.7,101.2,420.3,101.3z M420.3,100c-0.3,0.1-0.5,0.5-0.5,0.8c0,0.3,0.3,0.5,0.6,0.4s0.5-0.5,0.5-0.8c0,0,0,0,0,0
				C420.8,100,420.6,99.9,420.3,100z"/>
		</g>
	</g>
	<g class="st3">
		<g>
			<path d="M133.3,73.3v18.1c0,1.6,1.3,2.9,2.9,2.9h11.2c1.7,1.1,3.7,1.8,5.9,1.8c2.2,0,4.2-0.7,5.9-1.8h7.6c1.6,0,2.9-1.3,2.9-2.9
				V73.3H133.3z M153.2,93.4c-5.2,0-9.4-4.2-9.4-9.4c0-5.2,4.2-9.4,9.4-9.4c5.2,0,9.4,4.2,9.4,9.4C162.7,89.2,158.4,93.4,153.2,93.4
				z"/>
			<path class="st9" d="M166.8,70.4c0,0-0.1,0-0.2,0V68h-6.1v2.4c-1.5-0.2-2.7-3.6-2.7-3.6h-9.5c0,0-1.3,3.6-2.8,3.6c0,0,0,0,0,0
				v-2.2h-6.1v2.2c-1.8,0-3.3,0-3.3,0c-1.4,0-2.6,1-2.9,2.4h36.3C169.4,71.4,168.2,70.4,166.8,70.4z M157.1,70.8h-7.2v-2.7h7.2V70.8
				z"/>
			<path class="st9" d="M153.3,79c-2.8,0-5,2.2-5,5c0,2.8,2.2,5,5,5c2.8,0,5-2.2,5-5C158.2,81.3,156,79,153.3,79z"/>
			<path class="st9" d="M153.2,77.2c-3.7,0-6.7,3-6.7,6.7c0,3.7,3,6.7,6.7,6.7c3.7,0,6.7-3,6.7-6.7
				C159.9,80.2,156.9,77.2,153.2,77.2z M153.3,89.5c-3,0-5.4-2.4-5.4-5.4c0-3,2.4-5.4,5.4-5.4c3,0,5.4,2.4,5.4,5.4
				C158.7,87,156.2,89.5,153.3,89.5z"/>
		</g>
		<path class="st9" d="M164.4,96.3h-23.2c-1.1,0-2-0.9-2-2v-18c0-1.1,0.9-2,2-2h23.2c1.1,0,2,0.9,2,2v18
			C166.4,95.4,165.5,96.3,164.4,96.3z"/>
		<g>
			<path class="st0" d="M153.3,94.1c-5.2,0-9.4-4.2-9.4-9.4c0-5.2,4.2-9.4,9.4-9.4c5.2,0,9.4,4.2,9.4,9.4
				C162.7,89.9,158.5,94.1,153.3,94.1z"/>
			<path d="M153.3,79.8c-2.8,0-5,2.2-5,5s2.2,5,5,5c2.8,0,5-2.2,5-5S156,79.8,153.3,79.8z"/>
			<path class="st9" d="M153.3,78c-3.7,0-6.7,3-6.7,6.7c0,3.7,3,6.7,6.7,6.7c3.7,0,6.7-3,6.7-6.7C160,81,157,78,153.3,78z
				 M153.3,90.2c-3,0-5.4-2.4-5.4-5.4c0-3,2.4-5.4,5.4-5.4c3,0,5.4,2.4,5.4,5.4C158.7,87.8,156.3,90.2,153.3,90.2z"/>
		</g>
		<g>
			<circle cx="141.6" cy="80.3" r="0.9"/>
			<circle cx="141.6" cy="84.6" r="0.9"/>
			<circle cx="141.6" cy="88.8" r="0.9"/>
		</g>
		<g>
			<circle cx="164.6" cy="80.3" r="0.9"/>
			<circle cx="164.6" cy="84.6" r="0.9"/>
			<circle cx="164.6" cy="88.8" r="0.9"/>
		</g>
	</g>
	<g class="st3">
		
			<rect x="308.4" y="97.3" transform="matrix(1.745302e-03 -1 1 1.745302e-03 198.6504 419.8641)" class="st10" width="2.4" height="26.2"/>
		<path class="st11" d="M322.5,86.7c0.2-1.5,0.2-3,0-4.5l3.3-12.7c0,0-10.9-7.4-16.5-7.4c-5.5,0-16.5,7.4-16.5,7.4l3.5,12.7
			c-0.2,1.5-0.2,3,0,4.5c-0.7,2.4-0.7,5-0.1,7.5c-1.6,4.1-1,15.5-1,15.5h28c0,0,0.9-11.4-0.6-15.5C323.2,91.7,323.2,89.1,322.5,86.7
			z"/>
		
			<rect x="285.9" y="104.3" transform="matrix(0.1302 -0.9915 0.9915 0.1302 143.2296 378.075)" class="st10" width="2.4" height="6.2"/>
		
			<rect x="328" y="106.4" transform="matrix(0.9915 -0.1302 0.1302 0.9915 -11.1931 44.022)" class="st10" width="6.2" height="2.4"/>
		<polygon class="st12" points="308.4,79.4 309.4,80.6 310.4,79.4 310.4,111.7 308.4,111.7 		"/>
		<path class="st11" d="M292.9,69.6c-3.1,3.6-4.8,8.2-4.8,13c-1.9,1.4-2.4,5.9-1.8,8c-1.2,0.7-2.1,6-1.4,8.1
			c-1.6,2.3-1.2,7.6-1.2,7.6l7.3,1c1.4-2.3,2-5,1.8-7.8c1.2-2.3,1.8-4.9,1.6-7.5c1.1-2.1,1.6-4.4,1.5-6.8c0.4-0.9,0.6-1.8,0.6-2.8
			C297.1,77.8,295.8,73.2,292.9,69.6z"/>
		<path class="st13" d="M285.1,98.9c2.2,1.3,4.8,1.6,7.2,0.9C291.1,102,286.6,101.6,285.1,98.9z"/>
		<path class="st14" d="M303,75.5h-5.7v7c0,0.9,0.7,1.6,1.6,1.6h4.5c0.9,0,1.6-0.7,1.6-1.6v-7H303z"/>
		<polygon class="st12" points="301.6,75.1 297,75.1 297,76 301.6,76 305.4,76 305.4,75.1 		"/>
		<polygon class="st13" points="301.6,75.7 297,75.7 297,76 301.6,76 305.4,76 305.4,75.7 		"/>
		<polygon class="st13" points="297.3,77.5 297.3,78.5 301.2,81.5 305.1,78.5 305.1,77.5 301.4,76.2 		"/>
		<polygon class="st12" points="301.6,76 297,76 297,77.4 301.2,80.3 305.4,77.4 305.4,76 		"/>
		<path class="st14" d="M315.8,75.5h5.7v7c0,0.9-0.7,1.6-1.6,1.6h-4.5c-0.9,0-1.6-0.7-1.6-1.6v-7H315.8z"/>
		<polygon class="st12" points="317.3,75.1 321.8,75.1 321.8,76 317.3,76 313.5,76 313.5,75.1 		"/>
		<polygon class="st13" points="317.3,75.7 321.8,75.7 321.8,76 317.3,76 313.5,76 313.5,75.7 		"/>
		<polygon class="st13" points="321.6,77.5 321.6,78.5 317.7,81.5 313.8,78.5 313.8,77.5 317.5,76.2 		"/>
		<polygon class="st12" points="317.3,76 321.8,76 321.8,77.4 317.7,80.3 313.5,77.4 313.5,76 		"/>
		<path class="st13" d="M286.7,90.7c2.2,1.4,4.9,1.9,7.4,1.3C292.6,94.2,288.1,93.5,286.7,90.7z"/>
		<path class="st10" d="M298.9,66l10.5,14.6l10.5-14.6c-3.5-1.9-7.6-3.8-10.4-3.8C306.7,62.2,302.4,64.1,298.9,66z"/>
		<path class="st13" d="M293.9,70.1l14.3,9.5L300,65.4c-2.3,1.2-3.9,2.2-5.2,3L293.9,70.1z"/>
		<path class="st13" d="M288.3,82.7c2,1.8,4.6,2.7,7.3,2.5C293.6,86.9,289.3,85.7,288.3,82.7z"/>
		<path class="st12" d="M309.4,58.2c-3,0.1-5.9,1.2-8.2,3.1c-5.3,3.9-5.7,7.9-5.7,7.9l14,11.4l-7.1-14.3
			C303.3,62.7,305.9,59.7,309.4,58.2z"/>
		<path class="st14" d="M294.7,101.5v6h2.5c0.6,0,1.1-0.5,1.1-1.1v-4.9H294.7z"/>
		<path class="st12" d="M294.4,97.5v4.1h4c0.6,0,1.1-0.5,1.1-1.1v-3.1H294.4z"/>
		<path class="st13" d="M296.6,87c2.9,1.2,6.1,1.6,9.2,1.1C302.8,89.5,299.2,89.1,296.6,87z"/>
		<path class="st13" d="M296.6,94.2c2.9,1.3,6.1,1.8,9.2,1.4C303,96.5,298.8,96.5,296.6,94.2z"/>
		<path class="st11" d="M313.2,50.3c-1.2-0.4-2.6-0.7-3.9-0.8c-1.3,0.1-2.6,0.4-3.9,0.8l-9,10.8h25.7L313.2,50.3z"/>
		<path class="st11" d="M325.9,69.6c3.1,3.6,4.8,8.2,4.8,13c1.9,1.4,2.4,5.9,1.8,8c1.2,0.7,2.1,6,1.4,8.1c1.6,2.3,1.2,7.6,1.2,7.6
			l-7.3,1c-1.4-2.3-2-5-1.8-7.8c-1.2-2.3-1.8-4.9-1.6-7.5c-1.1-2.1-1.6-4.4-1.5-6.8c-0.4-0.9-0.6-1.8-0.6-2.8
			C321.8,77.9,323.1,73.2,325.9,69.6z"/>
		<path class="st13" d="M333.7,98.9c-2.2,1.3-4.9,1.6-7.3,0.9C327.8,102,332.2,101.6,333.7,98.9z"/>
		<path class="st13" d="M332.2,90.7c-2.2,1.4-4.9,1.9-7.4,1.3C326.3,94.2,330.8,93.5,332.2,90.7z"/>
		<path class="st13" d="M325,70.1l-14.3,9.5l8.2-14.1c2.3,1.2,3.9,2.2,5.2,3L325,70.1z"/>
		<path class="st13" d="M330.5,82.7c-2,1.8-4.6,2.7-7.3,2.5C325.3,86.9,329.6,85.7,330.5,82.7z"/>
		<path class="st12" d="M309.4,58.2c3,0.1,5.9,1.2,8.2,3.1c5.3,3.9,5.7,7.9,5.7,7.9l-14,11.4l7.1-14.3
			C315.5,62.7,312.9,59.7,309.4,58.2z"/>
		<path class="st14" d="M323.9,101.5v6h-2.5c-0.6,0-1.1-0.5-1.1-1.1v-4.9H323.9z"/>
		<path class="st12" d="M324.3,97.5v4.1h-4c-0.6,0-1.1-0.5-1.1-1.1v-3.1H324.3z"/>
		<path class="st13" d="M322.3,87c-2.9,1.2-6.1,1.6-9.2,1.1C316.1,89.7,319.7,89.2,322.3,87z"/>
		<path class="st13" d="M322.3,94.2c-2.9,1.3-6.1,1.8-9.2,1.4C316.2,96.8,319.7,96.3,322.3,94.2z"/>
		<rect x="306.6" y="62.6" class="st15" width="5.6" height="4.5"/>
		<path class="st13" d="M323,67.7c-1.2-2.6-3-4.8-5.3-6.4c-3.5-2.6-13.1-2.6-16.5,0c-2.3,1.6-4.1,3.8-5.3,6.4l-0.7,0.4
			c1.2,0.4,2.6,0.2,3.6-0.5c6.5-4,14.7-4,21.2,0c1.1,0.7,2.5,0.9,3.7,0.4L323,67.7z"/>
		<path class="st16" d="M324.9,65.9c-1.3,1.5-3.5,1.7-5.1,0.6c-6.5-4-14.7-4-21.2,0c-1.6,1.1-3.8,0.9-5.1-0.6
			c-1.1-1.5-0.3-4.3,2-5.7c8.3-5.1,18.9-5.1,27.2,0C325.3,61.5,326.1,64.5,324.9,65.9z"/>
		<rect x="294.7" y="101.7" class="st13" width="3.6" height="0.8"/>
		<rect x="320.3" y="101.7" class="st13" width="3.6" height="0.8"/>
	</g>
	<g class="st3">
		<path class="st17" d="M215.1,63.7c-2.2,0-3.8-0.1-4.3-0.4c-1.8-1.1-11-13.7-15.7-23.7c-2.9-0.3-9,2.4-9.1,5.9
			c9,11.9,14.5,21.2,16.9,27c2.4,5.8-1,29.9,8,49.5c3.6,4,7.9,3.5,10.3,3.7l-0.4-10.8C214.7,98,213.5,78.3,215.1,63.7L215.1,63.7z"
			/>
		<path class="st18" d="M215.1,63.7c-2.2,0-3.8-0.1-4.3-0.4c-1.8-1.1-11-13.7-15.7-23.7c-2.9-0.3-9,2.4-9.1,5.9
			c9,11.9,14.5,21.2,16.9,27c2.4,5.8-1,29.9,8,49.5c3.6,4,7.9,3.5,10.3,3.7l-0.4-10.8C214.7,98,213.5,78.3,215.1,63.7L215.1,63.7z"
			/>
		<path class="st19" d="M247.1,108.7c-0.6-2.9-9.6-21.3-8.8-24.4c0.8-3.1,22.9-28.9,31-39.8c-0.2-2.8-3.9-8.8-7-9.9
			c-5.5,12.2-23.1,22.2-27.4,25.5c-1.8,1.4-6.1,2.4-10.6,3c-3.1,0.4-6.1,0.6-9.2,0.7c-1.6,14.7-0.4,34.3,5.7,51.2v-0.5l5.2,7.3
			l2.1,3C233.7,122.3,247.4,115.8,247.1,108.7L247.1,108.7z"/>
		<path class="st20" d="M189.1,46.1c2,1.6,6.5-3.4,4.2-5c-0.8-1.4-6.4-9.8-6.3-10.6c0.1-0.8,2.9-5.2,2.3-5.6s-2.8-4.8-4.1-5
			c-1.3-0.1-6.7,2.5-7,3.2c-0.3,0.7,0.9,3,1.8,3.1c0.9,0.1,3.7-1.6,4.8-1.9s1.3,0.6,0.1,1.4c-1.2,0.9-6.8,4.6-8.2,6
			c-1.5,1.4,3.7,1.8,4.7,3.5c1.1,1.8,5.8,7.5,7.9,10.9L189.1,46.1L189.1,46.1z"/>
		<path class="st21" d="M183.8,20.2c-0.9-1.5-2-2.7-3-3.1c-1.7-0.5-2.8,1-2.9,1.8c-0.1,0.6,0.2,1.2,0.6,1.6
			c-1.6-0.2-5.4,4.4-5.5,5.5c-0.1,1,1.6,5,3.3,6.1c0-0.1,0.1-0.3,0.2-0.4c1.5-1.4,7-5.1,8.2-6s0.9-1.7-0.1-1.4
			c-1.1,0.3-3.9,2-4.8,1.9s-2.1-2.4-1.8-3.1C178.3,22.6,181.7,20.9,183.8,20.2L183.8,20.2z"/>
		<path class="st20" d="M266.3,44c-2.2,1.3-5.9-4.4-3.3-5.6c1-1.2,7.9-8.7,7.9-9.5c0-0.8-2.1-5.6-1.3-5.9c0.7-0.3,3.5-4.3,4.8-4.3
			c1.3,0.1,6.2,3.6,6.4,4.3c0.2,0.7-1.4,2.8-2.3,2.8c-0.9-0.1-3.4-2.2-4.4-2.7c-1-0.5-1.4,0.3-0.4,1.4c1,1.1,6,5.6,7.2,7.2
			c1.2,1.6-3.9,1.2-5.2,2.8c-1.3,1.6-6.9,6.5-9.6,9.5L266.3,44L266.3,44z"/>
		<path class="st21" d="M274.9,18.9c1.1-1.3,2.4-2.4,3.5-2.6c1.7-0.2,2.6,1.5,2.6,2.3c0,0.6-0.4,1.2-0.9,1.5
			c1.6,0.1,4.6,5.2,4.6,6.3c0,1-2.4,4.7-4.2,5.5c0-0.2-0.1-0.3-0.2-0.4c-1.2-1.6-6.1-6.2-7.2-7.2c-1.1-1.1-0.6-1.9,0.4-1.4
			c1,0.5,3.6,2.6,4.4,2.7c0.9,0.1,2.5-2,2.3-2.8C279.9,22.2,276.8,19.9,274.9,18.9L274.9,18.9z"/>
		<path class="st22" d="M218.6,61c-5.5,4.4-10,11.2-11.7,16.5c3.6-2.4,10.5-4,10.6-4c1-0.1,1.9-0.1,2.9,0.1
			C223.3,74.1,222.1,58.2,218.6,61z"/>
		<path class="st22" d="M227.4,60.7c4.8,5.1,8.3,12.6,9.2,18.1c-3.2-2.9-9.8-5.5-9.9-5.5c-0.9-0.3-1.9-0.4-2.8-0.3
			C220.8,73,224.4,57.4,227.4,60.7z"/>
		<polygon class="st22" points="256.7,38.6 262.6,32.7 273.8,44.1 267.8,49.9 256.7,38.6 		"/>
		<polygon class="st22" points="187.5,50.9 183.2,43.7 195.5,36.3 199.8,43.4 187.5,50.9 		"/>
		<path class="st20" d="M224.8,58L224.8,58c1.8,1.2,2.5,3,2.1,5.1l2,2.3l-5.3,14.3l-6.7-14.4l2.9-5.2
			C220.8,58.2,222.8,57.1,224.8,58L224.8,58z"/>
		<path class="st0" d="M226.7,71l-3.2,8.6l-4.1-8.9l3.9,0.5C224.4,71.5,225.6,71.4,226.7,71L226.7,71z"/>
		<path class="st23" d="M221.4,9.3c-0.3,0-0.6,0-0.8,0.1c-3.8,0.4-7.8,2.4-10,4.8c1.2-0.8,5.3-1.8,7.4,1.1c-8.6-4.8-15.3,6-13.6,11
			c0.5-3.3,2.2-6.8,6.3-6.8l0.4,0c-9.8,2.1-3,18.1-2.9,21.6c0.1,3.5-3.3,10.5-2.2,13.2c0.7,1.8,5.6,6.6,10.8,9.3c2,1,4,1.8,5.8,1.9
			c0.8-3.6,1.5-7.2,1.9-10.2C225.6,47.6,225.5,24.1,221.4,9.3L221.4,9.3z"/>
		<path class="st23" d="M239.6,54.8c1.1-3-1.2-11.2-1-15.7s2.9-10.2,2.1-13.7s-3.3-5.1-5.3-2.9c3.8-8.7-4.8-13.4-9.7-13.1
			c4,1.5,5.1,4.1,4.5,7.1c-1-5.5-5-7.4-9.4-7.2c4.1,14.8,4.2,38.3,3.2,46c-0.4,3-1.1,6.6-1.9,10.2c0.4,0,0.9,0,1.3,0
			C230,65.1,238.5,57.8,239.6,54.8L239.6,54.8z"/>
		<path class="st20" d="M223.2,21.7c4.8,0.4,13.8,3.4,14,7.1c0.3,4.4,0.6,18.9-0.9,21.5s-8.7-0.9-11.9-1.1
			C224.8,40.1,224.3,30.8,223.2,21.7z"/>
		<path class="st21" d="M224.9,49.3c-1.7,0-4.5,1.2-7.2,2c-2.3,0.8-4.5,1.3-5.8,0.6c-2.8-1.4-3.3-19-3.1-21.2
			c0.2-1.8,6.6-6.6,10.9-8.4c0.7-0.3,1.4-0.5,2.2-0.7c0.6-0.1,1.3-0.1,1.9,0c1.1,9.2,1.6,18.4,1.3,27.6L224.9,49.3z"/>
		<path class="st20" d="M240.8,36.6c-0.6-0.1-1.3-0.1-1.9,0.2c-0.1,0.8-0.2,1.5-0.3,2.3c0,1.9,0.1,3.8,0.5,5.7
			c1.9,0.4,3.8-1.1,4.3-3.3C243.9,39.3,242.7,37.1,240.8,36.6L240.8,36.6z"/>
		<path class="st21" d="M205.3,37.2c-1.9,0.5-3,2.7-2.4,4.9c0.6,2.2,2.6,3.6,4.5,3.1l0.1,0c0.4-1.6,0.7-3,0.7-4.1
			c0-0.7-0.3-2-0.7-3.6C206.8,37.1,206,37,205.3,37.2L205.3,37.2z"/>
		<path class="st21" d="M225.1,51c-0.2,0-0.4,0-0.5,0c-0.2,0,0.6-0.1-0.6,0c-1.2,0.1-6.3,1.5-6.9,2.8c-0.6,1.3,0.2,5.3,1.9,5.8
			c1.7,0.5,3.3-0.4,4.8-0.9l0.3-0.1C224.6,56.1,225,53.6,225.1,51L225.1,51z"/>
		<path class="st20" d="M231.7,52.5c-1.1-0.9-4.5-1.3-6.7-1.5c-0.1,2.6-0.4,5.1-1,7.6c0.4-0.1,0.7-0.2,1.1-0.2
			c1.7-0.2,3.4,1.5,5.3,0.5C232.4,57.8,232.9,53.4,231.7,52.5L231.7,52.5z"/>
		<path class="st0" d="M231.5,52.7c-2.7,1.4-9.8,1.8-13.9,1.2C222.2,57.4,225.6,58.5,231.5,52.7L231.5,52.7z"/>
		<path class="st24" d="M237.3,32l-7.4,0.2c-1.2,0-2.3,0.5-3.2,1.2c-0.8,0.7-1.3,1.8-1.3,2.9c0,0.3,0,0.5,0,0.8l-2.6,0.1
			c0-0.3,0-0.5,0-0.8c0-1.1-0.6-2.2-1.4-2.8c-0.9-0.7-2.1-1.1-3.2-1.1l-7.4,0.2c-1.2,0-2.3,0.5-3.2,1.2c-0.8,0.7-1.3,1.8-1.3,2.9
			c0.1,4.6,2.3,7.6,5.1,8.8c2.2,1,4.7,0.9,6.8-0.2c2.4-1.2,4.3-3.8,4.6-7.6l2.7-0.1c0.5,3.8,2.5,6.3,5,7.4c2.2,1,4.7,0.9,6.8-0.2
			c2.7-1.4,4.8-4.4,4.7-9c0-1.1-0.6-2.2-1.4-2.8C239.6,32.4,238.5,32,237.3,32L237.3,32z M210.9,33.8l7.4-0.2c0.9,0,1.8,0.3,2.5,0.8
			c0.6,0.5,1,1.2,1,2c0.1,4.1-1.7,6.8-4,7.9c-1.8,0.9-3.9,1-5.8,0.1c-2.4-1.1-4.3-3.6-4.4-7.8c0-0.8,0.3-1.5,0.9-2
			C209.1,34.1,210,33.8,210.9,33.8L210.9,33.8z M230,33.4l7.4-0.2c0.9,0,1.8,0.3,2.5,0.8c0.6,0.5,1,1.2,1,2c0.1,4.1-1.7,6.8-4,7.9
			c-1.8,0.9-3.9,1-5.8,0.1c-2.4-1.1-4.3-3.7-4.4-7.8c0-0.8,0.3-1.5,0.9-2C228.2,33.7,229.1,33.4,230,33.4L230,33.4z"/>
		<polygon class="st25" points="224.9,48.8 228.2,48.9 226.8,43.4 225.3,37.9 224.9,48.8 		"/>
		<polygon class="st20" points="225.3,37.9 225.2,38 223.5,43.3 221.7,48.7 224.9,48.8 224.9,48.8 225.3,37.9 		"/>
		<path d="M217.4,27.3l-1.8,0.4c-0.5,0.1-0.8,0.6-0.7,1.1l0,0c0.1,0.5,0.6,0.8,1.1,0.7l1.8-0.4c0.5-0.1,0.8-0.6,0.7-1.1l0,0
			C218.4,27.5,217.9,27.2,217.4,27.3z"/>
		<path d="M231.4,27.1l-1.8-0.3c-0.5-0.1-1,0.2-1.1,0.7l0,0c-0.1,0.5,0.2,1,0.7,1.1l1.8,0.3c0.5,0.1,1-0.2,1.1-0.7l0,0
			C232.2,27.6,231.9,27.2,231.4,27.1L231.4,27.1z"/>
		<path d="M213.4,40.2c0,0,2.7-2.5,6.2-1C219.7,39.2,215.1,35.3,213.4,40.2z"/>
		<path d="M235.3,40.2c0,0-2.7-2.5-6.2-1C229.1,39.2,233.6,35.3,235.3,40.2z"/>
	</g>
	<path class="st1" d="M187.4,118.9l36.4-14.3l36.7,13.8c0,0,0,0,0,0.1c0,0,0,0,0,0l-36.9,15.8L187.4,119
		C187.4,119,187.3,119,187.4,118.9C187.4,118.9,187.4,118.9,187.4,118.9z"/>
	<path class="st26" d="M223.8,104.5l36.7,13.8c0,0,0,0,0,0.1c0,0,0,0,0,0l-36.9,15.8L223.8,104.5z"/>
	<polygon class="st27" points="187.4,119 223.8,104.5 209.6,91.6 173.5,106.1 	"/>
	<polygon class="st27" points="259.9,118.2 223.8,104.5 238,91.2 273.8,105.3 	"/>
	<path class="st1" d="M260,118.3c0,0,0.1,0,0.1,0l13.7-12.7c0-0.1,0-0.1,0-0.2c-0.1,0-0.1,0-0.2,0l-13.7,12.7
		C259.9,118.1,260,118.3,260,118.3z"/>
	<path class="st1" d="M260,118.4c-0.1,0-0.2-0.1-0.2-0.3l0-0.1l0.1-0.1l13.7-12.7c0.1-0.1,0.3-0.1,0.4,0c0.1,0.1,0.1,0.3,0,0.4
		l-13.7,12.7C260.2,118.4,260.1,118.4,260,118.4z"/>
	<path class="st26" d="M223.6,134.2l-0.1,47.8l-36.4-15.3l0.1-47.6c0-0.1,0.1-0.2,0.2-0.2c0,0,0,0,0.1,0L223.6,134.2z"/>
	<polygon class="st2" points="200.6,124.6 200.6,124.2 200.6,124.9 200.5,172.4 206.8,175 206.9,127.2 	"/>
	<path class="st27" d="M203.1,133.1l-35.5-14.8c0,0-0.1-0.1,0-0.1c0,0,0-0.1,0.1-0.1l20,0.7l35.7,14.9c0,0,0.1,0.1,0,0.1
		c0,0,0,0-0.1,0L203.1,133.1z"/>
	<path class="st1" d="M223.4,134.3V134l-20.5-0.9c-0.1,0-0.1,0.1-0.1,0.1c0,0.1,0.1,0.1,0.1,0.1c0,0,0,0,0,0l20.6,0.9H223.4z"/>
	<path class="st1" d="M223.3,134.4L223.3,134.4l-20.3-0.8c-0.2,0-0.3-0.1-0.3-0.3s0.1-0.3,0.3-0.3l20.6,0.9v0.3h0.1v0.1
		c0,0.1-0.1,0.1-0.1,0.1L223.3,134.4L223.3,134.4z"/>
	<path class="st26" d="M202.9,133.1l-35.1-14.7c-0.1,0-0.2,0-0.2,0.1c0,0.1,0,0.2,0.1,0.2l35.1,14.7
		C202.8,133.3,202.9,133.1,202.9,133.1z"/>
	<path class="st26" d="M202.8,133.5L202.8,133.5l-35.2-14.8c-0.1-0.1-0.2-0.2-0.1-0.4c0,0,0,0,0,0c0.1-0.1,0.2-0.2,0.4-0.1
		c0,0,0,0,0,0l35.1,14.7l0.1,0v0.1C203,133.2,202.9,133.4,202.8,133.5L202.8,133.5z"/>
	<g id="g4290" class="st3">
		<path id="path4275" class="st28" d="M223.5,129.4c-3.9,0.4-6.7-0.5-9.4-1.7c-4.8-2.1-8.4-5.8-13.6-8c-3.7-1.5-5.9-4.8-6.8-7.1
			s2.4-6.2,11.2-4.7c8.7,1.5,22.4,10.6,22.4,10.6S227.7,126,223.5,129.4L223.5,129.4z"/>
		<path id="path4273" class="st29" d="M214.1,127.7c-4.8-2.1-8.4-5.8-13.6-8c-3.7-1.5-5.9-4.8-6.8-7.1s2.4-6.2,11.2-4.7
			c8.7,1.5,22.4,10.6,22.4,10.6s0.3,4.4-1.4,8c-3.2-4.8-12.5-5.8-13.6-2.6C211.7,125.2,212.4,127.1,214.1,127.7L214.1,127.7z"/>
		<path id="path4287" class="st30" d="M201.6,117.2c0.9,0.3,8.4,4.7,9.4,5.5c0.5,0.3,1,0.8,1.3,1.2l0.8-0.8c0,0-7.4-4.6-8.6-5.2
			c-1.2-0.6-2.8-1.4-2.8-1.4L201.6,117.2z"/>
		<path id="path4277" class="st0" d="M227.3,122c0.1-0.6,0.2-3.6,0.2-3.6s-3.2-2-4.5-2.8s-10.6-6.2-15.8-7.5
			c-5.2-1.3-8.4-0.7-11,0.2s-3.1,2.8-2.7,4.6s2.1,5.2,5.3,6.3c6.8-3.1,7.5-10,7.5-10s5.8,1.6,7.7,2.3c1.9,0.7,10.2,5.7,10.2,5.7
			s0.2,0.9,0.7,2.2c0.4,1.3,2.1,3.8,2.1,3.8S227.1,122.6,227.3,122z M209.9,123c0.6-0.4,2-2.2,2.2-2.7c0.1-0.6-0.8-1.2-1.2-0.4
			c-0.4,0.7-1.6,2.4-2.2,2.9c-0.3,0.3-0.2,0.6,0.2,0.5C209.4,123.2,209.7,123.1,209.9,123z M208.1,121.7c0.6-0.4,2-2.6,2.1-3.2
			s-0.8-0.6-1.1,0.1c-0.5,1-1.2,1.9-2,2.7c-0.5,0.4-0.1,0.6,0.5,0.5C207.7,121.9,207.9,121.8,208.1,121.7z M206.1,120.6
			c0.9-0.7,2.1-2.9,2.1-3.5c0-0.5-0.8-0.4-1.1,0.5c-0.4,0.9-1.8,2.1-2.4,2.6c-0.4,0.4-0.2,0.9,0.6,0.8
			C205.5,120.9,205.8,120.8,206.1,120.6L206.1,120.6z M202.4,119.7c0.5,0,0.9-0.1,1.3-0.3c0.8-0.4,2.3-2.4,2.4-2.8
			c0.2-0.7-0.1-1.7-0.7-1c-0.6,0.7-1.4,2.5-3.1,3.5C201.7,119.2,201.9,119.7,202.4,119.7L202.4,119.7z"/>
	</g>
	<g class="st3">
		<path class="st31" d="M244,131l-13.7-6.3c-0.5-0.2-0.7-0.8-0.5-1.3l12.5-27.3c0.2-0.5,0.8-0.7,1.3-0.5l13.7,6.3
			c0.5,0.2,0.7,0.8,0.5,1.3l-12.5,27.3C245.1,131,244.5,131.2,244,131z"/>
		
			<rect x="232" y="105.5" transform="matrix(0.4164 -0.9092 0.9092 0.4164 39.5341 287.7653)" class="st32" width="23.8" height="15.2"/>
		<g>
			<path class="st33" d="M250.9,101.6l-2.9-1.3c-0.1-0.1-0.2-0.2-0.1-0.3c0.1-0.1,0.2-0.2,0.3-0.1l2.9,1.3c0.1,0.1,0.2,0.2,0.1,0.3
				C251.2,101.6,251,101.6,250.9,101.6z"/>
			<path class="st33" d="M247.5,99.8c0.1-0.1,0-0.3-0.1-0.4c-0.1-0.1-0.3,0-0.4,0.1c-0.1,0.1,0,0.3,0.1,0.4
				C247.3,100,247.4,99.9,247.5,99.8z"/>
		</g>
		<circle class="st33" cx="238.1" cy="126" r="1.1"/>
	</g>
	<path class="st26" d="M223.6,134.3V134l20.6-0.9c0.1,0,0.1,0.1,0.1,0.1c0,0.1-0.1,0.1-0.1,0.1c0,0,0,0,0,0L223.6,134.3L223.6,134.3
		z"/>
	<path class="st26" d="M223.5,134.4l0-0.6l20.7-0.9c0.2,0,0.3,0.1,0.3,0.3c0,0.2-0.1,0.3-0.3,0.3L223.5,134.4z"/>
	<polygon class="st27" points="244.1,133.1 280.8,117.6 260.3,118.3 223.4,134 	"/>
	<path class="st1" d="M244.2,133.1l36.4-15.4c0.1,0,0.2,0,0.2,0.1s0,0.2-0.1,0.2l-36.4,15.4C244.3,133.4,244.1,133.2,244.2,133.1z"
		/>
	<path class="st1" d="M244.3,133.5L244.3,133.5c-0.2-0.1-0.3-0.2-0.3-0.4v-0.1l0.1-0.1l36.4-15.4c0.1,0,0.1,0,0.2,0
		c0.1,0,0.2,0.2,0.2,0.3c0,0.1-0.1,0.1-0.1,0.2L244.3,133.5z"/>
</g>
</svg>
