<svg width="220" height="198" viewBox="0 0 220 198" fill="none" xmlns="http://www.w3.org/2000/svg">
<path d="M98.8102 30.3366C106.417 46.9324 111.243 63.3317 165.694 59.6361C220.144 55.9404 239.162 124.515 195.731 165.721C134.289 224.02 23.6634 177.347 4.93837 114.039C-22.1001 22.6291 70.4784 -31.467 98.8102 30.3366Z" fill="url(#paint0_linear)"/>
<path d="M138.292 38.4082V191.162C86.3993 198.215 21.4676 165.038 4.93655 114.039C-7.67135 74.6463 4.00485 26.035 42.2333 8.19861C65.9282 15.6474 114.856 31.0361 138.292 38.4082Z" fill="url(#paint1_linear)"/>
<path d="M128.896 44.9827V184.084L107.184 190.922C75.6953 186.103 45.0881 170.496 24.1428 147.206C-9.62831 110.868 -8.7038 43.7995 31.5917 14.3827L128.896 44.9827Z" fill="url(#paint2_linear)"/>
<path d="M128.896 44.9827V184.084L107.184 190.922C99.4992 189.765 91.9239 187.972 84.5356 185.562V31.0336L101.579 36.3914L128.896 44.9827Z" fill="url(#paint3_linear)"/>
<path d="M128.896 84.2196V92.363L0.0671387 79.4461C0.160438 75.1811 0.535694 70.9268 1.19045 66.7113L128.896 84.2196Z" fill="url(#paint4_linear)"/>
<path d="M128.896 136.704V144.847L34.8275 157.743C31.0433 154.46 27.4713 150.94 24.1333 147.204L128.896 136.704Z" fill="url(#paint5_linear)"/>
<path d="M128.896 184.084L107.184 190.922C98.6072 189.624 90.168 187.539 81.9731 184.695L84.5359 184.082L128.896 184.084Z" fill="url(#paint6_linear)"/>
<path d="M128.896 136.704L24.1427 147.206C21.1725 143.89 18.4234 140.381 15.9131 136.704L128.896 136.704Z" fill="url(#paint7_linear)"/>
<path d="M128.896 44.9827H84.5359L17.0415 28.6959C21.1694 23.2423 26.0712 18.4205 31.5918 14.3827L101.58 36.3914L128.896 44.9827Z" fill="url(#paint8_linear)"/>
<path d="M85.7119 39.1483V78.4139L115.955 82.4449V47.4881L85.7119 39.1483Z" fill="url(#paint9_linear)"/>
<path d="M85.7118 78.4139L58.2925 74.5386V39.1483H85.7118V78.4139Z" fill="url(#paint10_linear)"/>
<path d="M97.8909 42.5087V49.7108L106.714 51.5287V44.9397L97.8909 42.5087Z" fill="white"/>
<path d="M43.3132 72.7613L79.4388 77.5779V37.419L43.3132 27.4601V72.7613Z" fill="url(#paint11_linear)"/>
<path d="M43.3134 72.7613V27.4601H0.0671387V66.4694L43.3134 72.7613Z" fill="url(#paint12_linear)"/>
<path d="M56.9631 31.2229V41.2321L68.4429 43.8356V34.3869L56.9631 31.2229Z" fill="white"/>
<path d="M107.363 108.712C107.363 108.712 98.4177 143.259 102.786 150.32C107.155 157.381 122.343 161.556 125.88 144.287C129.418 127.018 133.161 99.031 133.161 99.031L107.363 108.712Z" fill="url(#paint13_linear)"/>
<path d="M131.458 127.861C131.458 127.861 139.461 92.8659 133.892 83.3118C128.323 73.7577 112.25 75.7432 108.504 93.4695C104.758 111.196 102.298 124.577 103.345 126.347C104.391 128.117 129.274 133.343 131.458 127.861Z" fill="url(#paint14_linear)"/>
<path d="M94.4587 144.84C87.4554 150.902 73.6739 162.228 62.2516 163.618C49.682 165.153 45.7109 170.41 40.3842 171.79C35.0574 173.169 40.4704 175.143 45.7708 174.539C53.4854 173.675 37.0501 178.441 34.8514 180.786C32.6527 183.131 34.3485 183.796 35.8646 183.555C37.3807 183.313 48.8126 178.829 48.8126 178.829C48.8126 178.829 34.5425 184.304 34.1616 185.535C33.7808 186.766 34.2311 188.386 36.7172 187.823C39.2034 187.26 48.6018 183.617 48.6018 183.617C48.6018 183.617 38.8082 187.595 38.2741 188.436C37.7399 189.277 38.3339 191.116 41.3733 190.053C44.4127 188.989 50.937 186.977 50.937 186.977C50.937 186.977 43.8834 190 43.0164 191.027C42.1494 192.055 42.6236 193.794 45.7636 193.252C48.9036 192.711 63.636 185.619 66.7257 183.499C69.8154 181.38 78.1504 173.953 83.7861 171.133C89.4218 168.314 115.119 161.17 120.75 154.037C126.381 146.904 123.708 137.935 117.418 135.659C111.129 133.384 99.134 140.795 94.4587 144.84Z" fill="url(#paint15_linear)"/>
<path d="M51.7705 173.251C51.7705 173.251 59.7127 176.719 70.0237 173.85" stroke="white" stroke-width="2" stroke-linecap="round" stroke-linejoin="round"/>
<path d="M60.8504 181.813L54.4387 174.3" stroke="white" stroke-width="2" stroke-linecap="round" stroke-linejoin="round"/>
<path d="M92.5258 142.529H67.5974V186.062L92.5258 180.535V142.529Z" fill="url(#paint16_linear)"/>
<rect x="21.4243" y="142.529" width="46.1731" height="43.5337" fill="url(#paint17_linear)"/>
<rect x="37.6633" y="142.529" width="13.6977" height="12.9145" fill="url(#paint18_linear)"/>
<path d="M207.549 95.2635C214.904 76.8211 182.896 61.8277 155.335 61.8253C144.136 61.8253 115.715 75.8032 114.736 82.3826C113.756 88.962 123.08 133.221 112.34 165.615C107.395 180.537 107.601 185.344 121.708 191.557C141.923 200.457 204.157 201.456 201.154 182.728C199.12 169.998 187.609 145.288 207.549 95.2635Z" fill="url(#paint19_linear)"/>
<path d="M153.802 197.49C153.164 197.456 152.525 197.419 151.886 197.379V62.1606C152.558 62.0456 153.197 61.9602 153.802 61.9043V197.49Z" fill="url(#paint20_linear)"/>
<path d="M112.35 165.615C123.006 133.468 113.905 89.647 114.724 82.5479L115.533 80.5982C117.26 78.0762 121.555 74.9434 126.831 71.9638C126.831 71.9638 129.303 80.6246 136.605 89.4075C144.696 99.1388 153.132 103.158 153.132 103.158C153.132 103.158 161.261 98.2981 171.435 87.98C179.66 79.6378 184.874 67.1425 184.874 67.1425C200.886 73.0967 212.26 83.4724 207.561 95.2611C187.621 145.286 199.132 169.989 201.175 182.726C204.179 201.453 141.944 200.45 121.729 191.554C107.61 185.344 107.404 180.537 112.35 165.615Z" fill="url(#paint21_linear)"/>
<path d="M153.906 102.662V197.509C152.983 197.461 152.064 197.406 151.151 197.343V102.063C152.387 102.801 153.12 103.153 153.12 103.153C153.12 103.153 153.395 102.993 153.906 102.662Z" fill="url(#paint22_linear)"/>
<path d="M117.564 127.739H123.804C123.466 103.472 119.516 87.2614 116.858 79.0246L116.874 79.0078C117.066 78.8138 117.272 78.615 117.488 78.4138L117.658 78.2582C117.987 77.9596 118.337 77.657 118.709 77.3504L118.913 77.1851C119.291 76.8786 119.69 76.5696 120.11 76.2582L120.35 76.0834C120.771 75.7752 121.212 75.4646 121.672 75.1517L121.947 74.9625L122.364 74.6846L122.941 74.3062L123.38 74.026L123.681 73.8368L124.132 73.5565L124.22 73.5014L124.745 73.1805C132.8 96.0012 133.31 119.255 133.185 127.739H165.907C166.928 93.6707 183.392 75.5876 190.338 69.4393C191.973 70.2106 193.537 71.0321 195.01 71.9015H195.025C195.384 72.1139 195.738 72.3286 196.088 72.5458L196.131 72.5745C196.481 72.7917 196.824 73.012 197.161 73.2356C197.851 73.6939 198.515 74.1609 199.154 74.6367C177.909 93.8336 175.208 118.829 174.951 127.739H197.944C196.863 133.586 196.23 139.507 196.05 145.451H116.594C117.241 139.569 117.565 133.656 117.564 127.739Z" fill="url(#paint23_linear)"/>
<path d="M172.721 65.3893L169.438 36.303H146.021L140.392 65.3893C140.392 65.3893 143.851 73.0824 152.502 73.8153C160.516 74.4931 172.721 65.3893 172.721 65.3893Z" fill="url(#paint24_linear)"/>
<path d="M171.867 57.823C171.867 57.823 174.439 60.0984 177.785 64.8814C176.535 70.7662 165.455 83.9537 165.455 83.9537C165.455 83.9537 160.88 76.2894 153.122 73.8463C153.122 73.8463 162.327 73.3673 168.894 64.2659C172.025 59.9091 171.867 57.823 171.867 57.823Z" fill="url(#paint25_linear)"/>
<path d="M151.592 73.7433C151.592 73.7433 144.229 73.8511 137.504 81.4365C137.504 81.4365 136.443 72.529 136.627 67.1089C139.156 61.272 141.856 57.823 141.856 57.823C141.856 57.823 138.574 67.4466 151.592 73.7433Z" fill="url(#paint26_linear)"/>
<path d="M133.6 44.8487C133.6 44.8487 128.409 44.4319 127.48 39.1651C126.551 33.8982 128.22 30.7606 132.783 31.7402C137.345 32.7198 133.6 44.8487 133.6 44.8487Z" fill="url(#paint27_linear)"/>
<path d="M171.129 29.8289C171.129 29.8289 172.666 26.7608 176.319 28.9403C181.885 32.2599 180.168 42.6572 173.433 43.0356C173.433 43.0356 170.288 53.2196 160.2 61.4277C146.452 72.6177 136.682 60.4912 132.807 48.0557C128.723 34.9616 130.364 22.428 139.094 17.2521C148.088 11.9182 165.891 8.86684 171.129 29.8289Z" fill="url(#paint28_linear)"/>
<path d="M169.526 36.2407C169.526 36.2407 169.09 28.0086 174.489 28.2122C174.489 28.2122 175.552 15.0391 171.483 10.6776C167.414 6.31606 160.152 9.37223 160.152 9.37223C160.152 9.37223 140.512 5.31969 132.898 12.2344C125.284 19.1491 131.025 40.0872 131.025 40.0872C131.025 40.0872 129.317 28.126 135.755 23.5034C141.42 19.4317 150.567 19.9754 152.914 23.2926C155.261 26.6099 163.146 21.7933 164.853 25.4363C166.561 29.0793 166.626 37.5316 166.626 37.5316L169.526 36.2407Z" fill="url(#paint29_linear)"/>
<path d="M176.875 33.5461C176.875 33.5461 172.721 30.9426 172.721 38.5758" stroke="#382824" stroke-width="2" stroke-linecap="round" stroke-linejoin="round"/>
<path d="M175.438 23.0244C175.438 23.0244 168.343 17.3551 150.126 18.8473C131.909 20.3394 128.618 27.1392 128.618 27.1392C128.618 27.1392 124.661 5.74839 142.383 1.19528C156.557 -2.44291 174.235 1.51143 175.438 23.0244Z" fill="url(#paint30_linear)"/>
<path d="M156.832 22.4807C156.832 22.4807 149.218 17.6306 139.542 20.6436C129.865 23.6567 129.125 29.3379 129.125 29.3379L126.012 31.4935C126.012 31.4935 123.777 21.7741 133.968 17.4916C144.159 13.2092 154.327 18.8233 156.832 22.4807Z" fill="url(#paint31_linear)"/>
<path d="M175.437 23.0244C175.437 23.0244 163 23.125 160.657 23.2208C154.346 23.4795 151.117 16.4282 140.617 17.142C130.155 17.8605 126.314 23.6639 126.007 31.4959C126.007 31.4959 123.21 24.8327 131.363 18.5479C140.109 11.7913 161.658 12.1673 175.437 23.0244Z" fill="url(#paint32_linear)"/>
<circle cx="156.509" cy="45.3827" r="2.88372" fill="url(#paint33_linear)"/>
<circle cx="134.023" cy="47.3587" r="2.88372" fill="url(#paint34_linear)"/>
<path d="M143.18 40.5662C142.521 42.7385 141.946 43.8379 141.875 45.5552C141.776 47.9791 145.278 46.9444 145.278 46.9444" stroke="#382824" stroke-width="2" stroke-linecap="round" stroke-linejoin="round"/>
<path d="M176.513 35.8454C176.513 35.8454 174.077 34.8107 172.879 36.3029" stroke="#382824" stroke-width="2" stroke-linecap="round" stroke-linejoin="round"/>
<path d="M146.821 56.259C146.821 56.259 151.592 56.3404 151.592 51.5621" stroke="#382824" stroke-width="2" stroke-linecap="round" stroke-linejoin="round"/>
<path d="M125.349 147.736L110.451 123.401L98.6311 126.807L116.918 150.979C117.657 151.962 117.838 153.257 117.397 154.406C116.633 156.41 117.562 158.663 119.517 159.546C121.542 160.466 123.931 159.582 124.87 157.565L125.794 155.58C126.97 153.056 126.803 150.11 125.349 147.736Z" fill="url(#paint35_linear)"/>
<path d="M119.412 128.203L93.6984 137.771L88.3527 123.404L108.38 115.952C113.381 114.091 118.944 116.637 120.805 121.638L121.529 123.584C122.221 125.444 121.275 127.512 119.415 128.204L119.412 128.203Z" fill="url(#paint36_linear)"/>
<path d="M98.7136 135.946L86.7244 140.407C85.0036 141.047 83.0896 140.171 82.4493 138.45L80.8072 134.037C79.3841 130.213 81.3309 125.959 85.1555 124.535L89.526 122.909C93.3506 121.486 97.6048 123.433 99.0279 127.257L100.67 131.671C101.31 133.391 100.434 135.305 98.7136 135.946H98.7136Z" fill="url(#paint37_linear)"/>
<path d="M97.5073 134.316L86.5574 138.391C85.5867 138.752 84.507 138.258 84.1458 137.287L82.6289 133.211C81.6717 130.638 82.9812 127.777 85.5536 126.82L90.7098 124.901C93.2823 123.944 96.1437 125.253 97.1009 127.826L98.6177 131.902C98.7916 132.37 98.7722 132.887 98.5639 133.34C98.3555 133.793 97.9753 134.144 97.5073 134.316Z" fill="url(#paint38_linear)"/>
<path d="M108.384 115.941C112.768 114.31 117.69 116.055 120.07 120.082L106.147 125.408C104.571 126.009 102.792 125.387 101.934 123.935C100.497 121.502 98.8058 120.419 97.637 119.938L108.384 115.941Z" fill="url(#paint39_linear)"/>
<path d="M200.476 118.932C200.476 118.932 196.1 139.051 193.77 144.725C190.819 151.975 184.046 153.642 174.343 153.415C161.678 153.115 133.684 148.414 130.273 150.193C126.862 151.973 120.213 155.898 118.396 155.278C117.265 154.856 116.321 154.046 115.732 152.993C115.732 152.993 111.962 153.211 111.119 151.122C110.046 148.466 109.359 149.333 107.811 147.29C106.264 145.247 108.834 140.313 108.834 140.313C108.834 140.313 111.483 144.078 114.01 144.145C116.147 144.198 119.758 142.744 119.519 139.973C119.279 137.202 115.876 134.361 115.186 131.662C114.738 129.892 116.863 127.854 121.083 131.183C124.989 134.256 127.713 132.656 132.136 135.451C136.311 138.086 164.696 132.464 175.821 130.714L179.79 113.229L200.476 118.932Z" fill="url(#paint40_linear)"/>
<path d="M201.037 128.445C201.037 128.445 212.16 94.3126 207.468 84.2914C202.776 74.2703 186.592 74.8068 181.263 92.1259C175.933 109.445 172.288 122.563 173.174 124.412C174.06 126.261 198.369 133.71 201.037 128.445Z" fill="url(#paint41_linear)"/>
<path d="M183.756 137.511C183.756 137.511 182.731 132.342 175.821 130.707" stroke="white" stroke-width="2" stroke-linecap="round" stroke-linejoin="round"/>
<path d="M85.0482 127.035C85.2171 126.946 85.3906 126.866 85.568 126.795L90.7151 124.879C93.2885 123.924 96.1492 125.234 97.1076 127.806L98.6237 131.878C98.8083 132.373 98.7744 132.923 98.5303 133.391L67.5974 186.062L21.4243 142.541L85.0482 127.035Z" fill="url(#paint42_linear)"/>
<circle cx="17.2329" cy="142.993" r="17.2329" fill="url(#paint43_linear)"/>
<path d="M9.38403 142.586L15.0629 148.267L24.981 138.349" stroke="white" stroke-width="10" stroke-linecap="round" stroke-linejoin="round"/>
<defs>
<linearGradient id="paint0_linear" x1="-47.6341" y1="-73.2492" x2="-53.009" y2="206.962" gradientUnits="userSpaceOnUse">
<stop stop-color="#1F1B84"/>
<stop offset="1" stop-color="white"/>
</linearGradient>
<linearGradient id="paint1_linear" x1="470.859" y1="-194.929" x2="27.283" y2="-194.929" gradientUnits="userSpaceOnUse">
<stop stop-color="#04AFA5"/>
<stop offset="1" stop-color="white"/>
</linearGradient>
<linearGradient id="paint2_linear" x1="84.1645" y1="-33.3373" x2="-111.426" y2="-22.0889" gradientUnits="userSpaceOnUse">
<stop stop-color="#5E5BA7"/>
<stop offset="1" stop-color="white"/>
</linearGradient>
<linearGradient id="paint3_linear" x1="113.501" y1="-12.1856" x2="45.9954" y2="-10.7103" gradientUnits="userSpaceOnUse">
<stop stop-color="#5E5BA7"/>
<stop offset="1" stop-color="white"/>
</linearGradient>
<linearGradient id="paint4_linear" x1="470.859" y1="35.3759" x2="27.2828" y2="35.3759" gradientUnits="userSpaceOnUse">
<stop stop-color="#04AFA5"/>
<stop offset="1" stop-color="white"/>
</linearGradient>
<linearGradient id="paint5_linear" x1="470.859" y1="102.683" x2="27.2829" y2="102.683" gradientUnits="userSpaceOnUse">
<stop stop-color="#04AFA5"/>
<stop offset="1" stop-color="white"/>
</linearGradient>
<linearGradient id="paint6_linear" x1="108.327" y1="183.371" x2="51.7156" y2="183.371" gradientUnits="userSpaceOnUse">
<stop stop-color="#04AFA5"/>
<stop offset="1" stop-color="white"/>
</linearGradient>
<linearGradient id="paint7_linear" x1="91.2874" y1="136.446" x2="-27.2781" y2="136.446" gradientUnits="userSpaceOnUse">
<stop stop-color="#04AFA5"/>
<stop offset="1" stop-color="white"/>
</linearGradient>
<linearGradient id="paint8_linear" x1="108.042" y1="7.98402" x2="-50.5918" y2="7.98402" gradientUnits="userSpaceOnUse">
<stop stop-color="#5E5CA7"/>
<stop offset="1" stop-color="white"/>
</linearGradient>
<linearGradient id="paint9_linear" x1="25.7406" y1="134.363" x2="128.513" y2="134.363" gradientUnits="userSpaceOnUse">
<stop stop-color="#1B345B"/>
<stop offset="1" stop-color="#20B7AF"/>
</linearGradient>
<linearGradient id="paint10_linear" x1="56.0866" y1="122.15" x2="144.589" y2="122.15" gradientUnits="userSpaceOnUse">
<stop stop-color="#1B345B"/>
<stop offset="1" stop-color="#20B7AF"/>
</linearGradient>
<linearGradient id="paint11_linear" x1="-28.3228" y1="137.675" x2="94.4389" y2="137.675" gradientUnits="userSpaceOnUse">
<stop stop-color="#1B345B"/>
<stop offset="1" stop-color="#20B7AF"/>
</linearGradient>
<linearGradient id="paint12_linear" x1="-3.41205" y1="123.221" x2="136.175" y2="123.221" gradientUnits="userSpaceOnUse">
<stop stop-color="#1B345B"/>
<stop offset="1" stop-color="#20B7AF"/>
</linearGradient>
<linearGradient id="paint13_linear" x1="22.9069" y1="237.427" x2="143.57" y2="237.427" gradientUnits="userSpaceOnUse">
<stop stop-color="#FFDDBB"/>
<stop offset="1" stop-color="#FF786E"/>
</linearGradient>
<linearGradient id="paint14_linear" x1="186.795" y1="293.74" x2="186.795" y2="77.3743" gradientUnits="userSpaceOnUse">
<stop stop-color="#04AFA5"/>
<stop offset="1" stop-color="white"/>
</linearGradient>
<linearGradient id="paint15_linear" x1="22.907" y1="203.243" x2="143.571" y2="203.243" gradientUnits="userSpaceOnUse">
<stop stop-color="#FFDDBB"/>
<stop offset="1" stop-color="#FF786E"/>
</linearGradient>
<linearGradient id="paint16_linear" x1="103.021" y1="112.003" x2="43.1337" y2="112.003" gradientUnits="userSpaceOnUse">
<stop stop-color="#FFDDBB"/>
<stop offset="1" stop-color="#FF786E"/>
</linearGradient>
<linearGradient id="paint17_linear" x1="30.1904" y1="216.687" x2="141.326" y2="216.687" gradientUnits="userSpaceOnUse">
<stop stop-color="#FFDDBB"/>
<stop offset="1" stop-color="#FF786E"/>
</linearGradient>
<linearGradient id="paint18_linear" x1="36.5075" y1="139.207" x2="37.2935" y2="153.08" gradientUnits="userSpaceOnUse">
<stop stop-color="#FFDD8E"/>
<stop offset="1" stop-color="white"/>
</linearGradient>
<linearGradient id="paint19_linear" x1="238" y1="293.74" x2="238" y2="77.3744" gradientUnits="userSpaceOnUse">
<stop stop-color="#04AFA5"/>
<stop offset="1" stop-color="white"/>
</linearGradient>
<linearGradient id="paint20_linear" x1="153.677" y1="164.664" x2="153.677" y2="46.1109" gradientUnits="userSpaceOnUse">
<stop stop-color="#04AFA5"/>
<stop offset="1" stop-color="white"/>
</linearGradient>
<linearGradient id="paint21_linear" x1="171.521" y1="305.946" x2="435.214" y2="305.946" gradientUnits="userSpaceOnUse">
<stop stop-color="#FB5E07"/>
<stop offset="0.234349" stop-color="#FFD1B7"/>
</linearGradient>
<linearGradient id="paint22_linear" x1="153.837" y1="165.069" x2="153.837" y2="74.3948" gradientUnits="userSpaceOnUse">
<stop stop-color="#1B1D31"/>
<stop offset="1" stop-color="#006088"/>
</linearGradient>
<linearGradient id="paint23_linear" x1="207.117" y1="165.069" x2="207.117" y2="74.3948" gradientUnits="userSpaceOnUse">
<stop stop-color="#1B1D31"/>
<stop offset="1" stop-color="#006088"/>
</linearGradient>
<linearGradient id="paint24_linear" x1="175.611" y1="75.8544" x2="165.059" y2="48.3492" gradientUnits="userSpaceOnUse">
<stop stop-color="#FFDDBB"/>
<stop offset="1" stop-color="#FF786E"/>
</linearGradient>
<linearGradient id="paint25_linear" x1="185.564" y1="14.4879" x2="79.1012" y2="14.4879" gradientUnits="userSpaceOnUse">
<stop stop-color="#1B345B"/>
<stop offset="1" stop-color="#20B7AF"/>
</linearGradient>
<linearGradient id="paint26_linear" x1="185.564" y1="-14.2471" x2="79.1011" y2="-14.2471" gradientUnits="userSpaceOnUse">
<stop stop-color="#1B345B"/>
<stop offset="1" stop-color="#20B7AF"/>
</linearGradient>
<linearGradient id="paint27_linear" x1="114.115" y1="55.6319" x2="133.894" y2="55.404" gradientUnits="userSpaceOnUse">
<stop stop-color="#FFDDBB"/>
<stop offset="1" stop-color="#FF786E"/>
</linearGradient>
<linearGradient id="paint28_linear" x1="202.63" y1="83.7957" x2="202.63" y2="-18.0016" gradientUnits="userSpaceOnUse">
<stop stop-color="#FFDDBB"/>
<stop offset="1" stop-color="#FF786E"/>
</linearGradient>
<linearGradient id="paint29_linear" x1="171.605" y1="13.0272" x2="139.81" y2="13.0272" gradientUnits="userSpaceOnUse">
<stop stop-color="#1B1D31"/>
<stop offset="1" stop-color="#006088"/>
</linearGradient>
<linearGradient id="paint30_linear" x1="157.784" y1="49.6363" x2="283.229" y2="49.6363" gradientUnits="userSpaceOnUse">
<stop stop-color="#FB5E07"/>
<stop offset="0.234349" stop-color="#FFD1B7"/>
</linearGradient>
<linearGradient id="paint31_linear" x1="125.882" y1="41.9827" x2="198.816" y2="41.9827" gradientUnits="userSpaceOnUse">
<stop stop-color="#1B345B"/>
<stop offset="1" stop-color="#20B7AF"/>
</linearGradient>
<linearGradient id="paint32_linear" x1="210.449" y1="6.75999" x2="118.848" y2="6.75999" gradientUnits="userSpaceOnUse">
<stop stop-color="#1B345B"/>
<stop offset="1" stop-color="#20B7AF"/>
</linearGradient>
<linearGradient id="paint33_linear" x1="141.639" y1="17.7551" x2="139.991" y2="50.2161" gradientUnits="userSpaceOnUse">
<stop stop-color="#FFDDBB"/>
<stop offset="1" stop-color="#FF786E"/>
</linearGradient>
<linearGradient id="paint34_linear" x1="119.315" y1="16.6222" x2="117.667" y2="49.0808" gradientUnits="userSpaceOnUse">
<stop stop-color="#FFDDBB"/>
<stop offset="1" stop-color="#FF786E"/>
</linearGradient>
<linearGradient id="paint35_linear" x1="136.573" y1="145.607" x2="110.85" y2="119.964" gradientUnits="userSpaceOnUse">
<stop stop-color="#1B345B"/>
<stop offset="1" stop-color="#20B7AF"/>
</linearGradient>
<linearGradient id="paint36_linear" x1="70.1943" y1="128.704" x2="82.0708" y2="160.362" gradientUnits="userSpaceOnUse">
<stop stop-color="#1B345B"/>
<stop offset="1" stop-color="#20B7AF"/>
</linearGradient>
<linearGradient id="paint37_linear" x1="82.0187" y1="143.49" x2="102.743" y2="135.416" gradientUnits="userSpaceOnUse">
<stop stop-color="#1B345B"/>
<stop offset="1" stop-color="#20B7AF"/>
</linearGradient>
<linearGradient id="paint38_linear" x1="60.5007" y1="112.411" x2="70.9216" y2="145.348" gradientUnits="userSpaceOnUse">
<stop stop-color="#04AFA5"/>
<stop offset="1" stop-color="white"/>
</linearGradient>
<linearGradient id="paint39_linear" x1="85.6009" y1="113.881" x2="87.3644" y2="132.552" gradientUnits="userSpaceOnUse">
<stop stop-color="#1B1D31"/>
<stop offset="1" stop-color="#006088"/>
</linearGradient>
<linearGradient id="paint40_linear" x1="77.5324" y1="109.637" x2="77.5324" y2="178.688" gradientUnits="userSpaceOnUse">
<stop stop-color="#FFDDBB"/>
<stop offset="1" stop-color="#FF786E"/>
</linearGradient>
<linearGradient id="paint41_linear" x1="264.033" y1="293.74" x2="264.033" y2="77.3743" gradientUnits="userSpaceOnUse">
<stop stop-color="#04AFA5"/>
<stop offset="1" stop-color="white"/>
</linearGradient>
<linearGradient id="paint42_linear" x1="62.1654" y1="99.5865" x2="29.1935" y2="152.439" gradientUnits="userSpaceOnUse">
<stop stop-color="white"/>
<stop offset="1" stop-color="white" stop-opacity="0.01"/>
</linearGradient>
<linearGradient id="paint43_linear" x1="52.8483" y1="91.963" x2="-49.2125" y2="91.963" gradientUnits="userSpaceOnUse">
<stop stop-color="#1B345B"/>
<stop offset="1" stop-color="#20B7AF"/>
</linearGradient>
</defs>
</svg>
