<?xml version="1.0" encoding="UTF-8"?>
<svg width="152px" height="52px" viewBox="0 0 152 52" version="1.1" xmlns="http://www.w3.org/2000/svg" xmlns:xlink="http://www.w3.org/1999/xlink">
    <!-- Generator: Sketch 62 (91390) - https://sketch.com -->
    <title>Boonlook</title>
    <desc>Created with Sketch.</desc>
    <g id="Homepage" stroke="none" stroke-width="1" fill="none" fill-rule="evenodd">
        <g id="Extra-Large-Devices-1440px" transform="translate(-544.000000, -2935.000000)">
            <g id="Boonlook" transform="translate(545.000000, 2936.000000)">
                <rect id="Rectangle" stroke="#FFFFFF" x="0" y="0" width="150" height="50"></rect>
                <g id="Artboard-30" transform="translate(10.000000, 15.000000)" fill="#72757B" fill-rule="nonzero">
                    <path d="M39.14,2.65 L39.14,0.9 L42.14,0.9 C42.28,0.9 42.44,1.09 42.53,1.23 L48.73,10.84 L50.49,13.56 L50.49,2.65 L49.19,2.65 L49.19,0.93 L53.25,0.93 L53.25,2.61 L52.37,2.61 L52.37,17 C51.74,17 51.15,17 50.56,17 C50.44,17 50.3,16.81 50.21,16.67 C47.6566667,12.7233333 45.1133333,8.77333333 42.58,4.82 L42.16,4.19 L42.16,15.29 L43.47,15.29 L43.47,17 L39.15,17 L39.15,15.32 L40.22,15.32 L40.22,2.65 L39.14,2.65 Z" id="Path"></path>
                    <path d="M1,2.62 L0,2.62 L0,0.94 L0.31,0.94 L6.4,0.94 C6.96083282,0.954597229 7.51799871,1.03515133 8.06,1.18 C9.74734622,1.5064949 10.9744828,2.97154573 11,4.69 C11.1908348,6.14728095 10.6023091,7.59771203 9.45,8.51 C10.1455559,8.8971519 10.6912853,9.5062563 11,10.24 C12,12.85 11.33,16.5 7,16.93 C4.74,17.16 2.44,17.01 0.16,17.03 C0.105243005,17.0302787 0.0509366899,17.0200963 0,17 L0,15.31 L1,15.31 L1,2.62 Z M2.89,15.22 L6.89,15.22 C7.34208648,15.1792795 7.78107493,15.0465621 8.18,14.83 C9.30006398,14.2348835 9.8601429,12.9446276 9.53,11.72 C9.43309414,10.6581551 8.59184486,9.81690586 7.53,9.72 C6.02,9.56 4.53,9.59 2.94,9.53 L2.89,15.22 Z M2.89,7.82 L5.75,7.82 C6.35692138,7.79579815 6.95835201,7.69499972 7.54,7.52 C8.62194598,7.25517353 9.33770307,6.22654059 9.21,5.12 C9.13,3.72 8.62,2.96 7.31,2.8 C6,2.64 4.39,2.64 2.91,2.57 L2.91,2.95 L2.89,7.82 Z" id="Shape"></path>
                    <path d="M118.4,15.33 L118.4,2.64 L117.26,2.64 L117.26,0.94 L121.34,0.94 L121.34,2.6 L120.34,2.6 L120.34,7 L122.98,4.8 C123.81,4.11 124.62,3.4 125.47,2.73 C125.773631,2.53360362 125.934051,2.17754946 125.88,1.82 C125.86499,1.53019423 125.86499,1.23980577 125.88,0.95 L129.88,0.95 L129.88,2.6 C129.740388,2.61474074 129.599612,2.61474074 129.46,2.6 C128.716133,2.50250844 127.971038,2.77074262 127.46,3.32 C125.58,4.94 123.66,6.51 121.75,8.1 L121.28,8.5 C121.57,8.77 121.83,9.03 122.1,9.27 C124.1,11.09 126.1,12.9 128.1,14.74 C128.440478,15.1526543 128.969688,15.3605581 129.5,15.29 C129.662969,15.2745747 129.827031,15.2745747 129.99,15.29 L129.99,17 L125.7,17 L125.7,15.35 C125.708812,15.251451 125.684151,15.1528082 125.63,15.07 C123.89,13.46 122.13,11.87 120.38,10.27 L120.3,10.27 L120.3,15.27 L121.3,15.27 L121.3,17 L117.21,17 L117.21,15.33 L118.4,15.33 Z" id="Path"></path>
                    <path d="M17.66,9 C17.6473977,7.60208133 17.9231372,6.21657549 18.47,4.93 C19.2441365,3.02096504 20.8511169,1.5724713 22.83,1 C24.6533831,0.435303597 26.6102889,0.473880593 28.41,1.11 C30.5240819,1.82772466 32.1359562,3.55983206 32.7,5.72 C33.3597296,7.822802 33.3597296,10.077198 32.7,12.18 C31.8486163,15.1180145 29.1881515,17.1629685 26.13,17.23 C24.833934,17.3391573 23.5297296,17.1616216 22.31,16.71 C19.8248158,15.7503433 18.0997834,13.4632217 17.86,10.81 C17.73,10.22 17.71,9.59 17.66,9 L17.66,9 Z M31.33,9 L31.23,9 C31.23,8.7 31.23,8.41 31.23,8.11 C31.1767295,6.64231407 30.6347135,5.23448037 29.69,4.11 C28.5194745,2.89466035 26.860375,2.27663658 25.18,2.43 C22.6005205,2.30945353 20.3247857,4.10361899 19.84,6.64 C19.4378729,8.22472718 19.4620228,9.88761873 19.91,11.46 C20.3066785,13.299009 21.7212261,14.7485317 23.55,15.19 C24.3381758,15.3816704 25.1497978,15.4591281 25.96,15.42 C28.3987179,15.4615778 30.5115651,13.7374945 30.96,11.34 C31.1234493,10.566874 31.2469464,9.78583817 31.33,9 L31.33,9 Z" id="Shape"></path>
                    <path d="M76.9999881,9 C76.9978798,7.57199509 77.2800285,6.15785199 77.83,4.84 C78.8411163,2.32719157 81.2714347,0.675365416 83.98,0.66 C86.0162082,0.436618105 88.0480875,1.1163475 89.54,2.52 C90.7419229,3.72660477 91.4967474,5.30679825 91.68,7 C92.0805985,9.16476062 91.8011365,11.4004563 90.88,13.4 C89.8237804,15.6564668 87.5901113,17.1288334 85.1,17.21 C83.4595717,17.4033806 81.8010674,17.0520026 80.38,16.21 C78.6232384,15.0679692 77.4596698,13.2091867 77.2,11.13 C77.07,10.43 76.9999881,9.71 76.9999881,9 L76.9999881,9 Z M90,9.19 C89.94,8.47 89.91,7.95 89.85,7.44 C89.5,4.54 87.79,2.73 85,2.44 C82.21,2.15 80,3.38 79.18,6.44 C78.8425841,7.783717 78.7813485,9.18192968 79,10.55 C79.43,13.63 81.36,15.41 84.33,15.47 C86.8948489,15.6872804 89.2055644,13.9217899 89.67,11.39 C89.85,10.61 89.91,9.79 90,9.19 L90,9.19 Z" id="Shape"></path>
                    <path d="M112,9 C112.033607,10.6815945 111.637801,12.3439788 110.85,13.83 C109.842872,15.7140666 107.973036,16.9818156 105.85,17.22 C103.631757,17.6564304 101.33585,17.0520506 99.62,15.58 C98.4030287,14.4564154 97.6087458,12.949043 97.37,11.31 C96.8662095,9.01825997 97.1333776,6.62429308 98.13,4.5 C99.2324082,2.18587692 101.566708,0.711377777 104.13,0.71 C105.730083,0.565760802 107.333758,0.944747394 108.7,1.79 C110.524032,3.03295289 111.691871,5.03076548 111.88,7.23 C112,7.77 112,8.36 112,9 L112,9 Z M110.15,9.2 C110.08,8.45 110.05,7.87 109.97,7.3 C109.55,4.5 107.92,2.82 105.24,2.54 C102.56,2.26 100.24,3.36 99.41,6.24 C98.8949587,7.98954901 98.8949587,9.85045099 99.41,11.6 C100.086345,13.9458453 102.250046,15.548035 104.691159,15.5106233 C107.132272,15.4732117 109.245859,13.8054696 109.85,11.44 C110.007901,10.6839514 110.121428,9.91931137 110.19,9.15 L110.15,9.2 Z" id="Shape"></path>
                    <polygon id="Path" points="61.05 17 61.05 15.3 62.15 15.3 62.15 2.65 61.07 2.65 61.07 0.94 65.84 0.94 65.84 2.62 64.09 2.62 64.09 15.27 70.33 15.27 70.33 13.35 72.19 13.35 72.19 17"></polygon>
                    <path d="M128.83,18.12 C129.38,17.97 129.2,18.54 129.39,18.74 C129.66,18.61 129.39,17.93 130,18.13 L130,19.23 L129.85,19.23 L129.78,18.52 L129.43,19.38 L129.02,18.56 L128.97,19.22 L128.83,19.22 L128.83,18.12 Z" id="Path"></path>
                    <path d="M128.5,18.15 C128.391802,18.2973647 128.304321,18.4588687 128.24,18.63 C128.214977,18.8225237 128.214977,19.0174763 128.24,19.21 L128.09,19.21 L127.78,18.11 L128.5,18.15 Z" id="Path"></path>
                </g>
            </g>
        </g>
    </g>
</svg>