<?xml version="1.0" encoding="UTF-8"?>
<svg width="152px" height="52px" viewBox="0 0 152 52" version="1.1" xmlns="http://www.w3.org/2000/svg" xmlns:xlink="http://www.w3.org/1999/xlink">
    <title>Group 50</title>
    <g id="Homepage-V1" stroke="none" stroke-width="1" fill="none" fill-rule="evenodd">
        <g id="Extra-Large-Devices-1440px-Copy" transform="translate(-139.000000, -3728.000000)">
            <g id="Group-50" transform="translate(140.000000, 3729.000000)">
                <g id="curology_logo" transform="translate(12.000000, 11.000000)" fill="#72757B" fill-rule="nonzero">
                    <path d="M44.2244453,9.50544125 L43.7651969,7.08127624 L40.4688584,7.08127624 L40.4688584,22.1076467 L44.5486465,22.1076467 L44.5486465,15.2392233 C44.5486465,12.0081512 46.3583665,10.9849916 48.4381808,10.9849916 C48.8169287,10.9849916 49.1956766,11.0122771 49.654925,11.1204033 L49.654925,7.02780916 C49.3404014,6.9957554 49.0249981,6.97791832 48.7091549,6.97429792 C47.4391837,6.97429792 45.0624415,7.51263333 44.2244453,9.50544125 L44.2244453,9.50544125 Z M73.5899456,0 L69.5112573,0 L69.5112573,22.1076467 L73.5899456,22.1076467 L73.5899456,0 Z M11.4005498,18.4452617 C7.91598098,18.4452617 4.37695343,15.9141183 4.37695343,11.3093263 C4.37695343,6.38134749 8.10421122,4.06644342 11.346091,4.06644342 C13.8588921,4.06644342 15.5609263,5.25006166 16.7492973,7.10860583 L19.8018472,4.415825 C17.9648538,1.75040467 15.0472631,0 11.346091,0 C5.51090973,0 0,4.38966543 0,11.3093263 C0,18.2028275 5.32153577,22.5651854 11.4005498,22.5651854 C15.1016779,22.5651854 18.0453542,20.7066413 19.8834913,18.2028275 L17.0203154,15.7251954 C15.9124448,17.2877942 13.8044773,18.4452617 11.4005498,18.4452617 L11.4005498,18.4452617 Z M59.1913664,6.62378166 C54.6793834,6.62378166 51.1404438,9.96293584 51.1404438,14.5950575 C51.1404438,19.1986575 54.6793834,22.5651854 59.1913664,22.5651854 C63.7029095,22.5651854 67.2422889,19.1986575 67.2422889,14.5950575 C67.2422889,9.96293584 63.7029095,6.62378166 59.1913664,6.62378166 L59.1913664,6.62378166 Z M59.1913664,18.8754267 C57.1920525,18.8754267 55.2200119,17.4221021 55.2200119,14.5950575 C55.2200119,11.766865 57.1920525,10.3134963 59.1913664,10.3134963 C61.1902404,10.3134963 63.1622809,11.7406833 63.1622809,14.5950575 C63.1622809,17.4493875 61.1902404,18.8754267 59.1913664,18.8754267 Z M84.0989906,6.62378166 C79.5883272,6.62378166 76.048068,9.96293584 76.048068,14.5950575 C76.048068,19.1986575 79.5883272,22.5651854 84.0989906,22.5651854 C88.6122932,22.5651854 92.1499131,19.1986575 92.1499131,14.5950575 C92.1499131,9.96293584 88.5837002,6.62378166 84.0989906,6.62378166 L84.0989906,6.62378166 Z M84.0989906,18.8754267 C82.1001165,18.8754267 80.128076,17.4221021 80.128076,14.5950575 C80.128076,11.766865 82.1009963,10.3134963 84.0989906,10.3134963 C86.0983045,10.3134963 88.0712248,11.7406833 88.0712248,14.5950575 C88.0712248,17.4493875 86.0719109,18.8754267 84.0989906,18.8754267 Z M32.3374354,15.8332775 C32.3374354,17.5836954 31.2840235,18.79463 29.5014889,18.79463 C27.6100807,18.79463 26.7459988,17.4482837 26.7459988,15.7786625 L26.7459988,7.08127624 L22.6389374,7.08127624 L22.6389374,16.5867175 C22.6389374,19.8451192 24.7196755,22.5105263 28.3663889,22.5105263 C29.9606932,22.5105263 31.7160425,21.8914383 32.5268093,20.4915367 L32.8238691,22.1076467 L36.3900821,22.1076467 L36.3900821,7.08012831 L32.310206,7.08012831 L32.310206,15.8321737 L32.3374354,15.8321737 L32.3374354,15.8332775 Z M106.225611,5.17041292 L104.199024,7.1894025 C103.317918,6.81862084 102.372148,6.62638658 101.41626,6.62378166 C97.6608932,6.62378166 94.7976294,9.15492499 94.7976294,12.8446396 C94.7976294,14.7828325 95.8784466,16.5867175 97.1756912,17.5028988 C96.4454687,17.9877229 95.7693531,18.6341846 95.3646515,19.4410917 L95.2841511,19.6300146 L98.4443428,21.1914654 L98.5261629,21.0036904 C99.0386383,19.9259158 100.200836,19.2259871 101.443534,19.2259871 C103.280527,19.2259871 104.685545,20.5723775 104.685545,22.5116742 C104.685545,24.2609442 103.200027,25.6619496 101.442654,25.6619496 C100.444536,25.6619496 99.0659116,25.1771254 98.4988895,23.8034496 L98.4170694,23.6156304 L95.1754975,25.2033071 L95.2568777,25.39223 C96.3376949,27.6274721 98.6880435,29 101.389427,29 C105.307114,29 108.279032,26.3345929 108.279032,22.6459821 C108.279032,20.4380696 107.144108,18.7149813 105.631315,17.5017508 C107.036334,16.3977946 108.035331,14.7828325 108.035331,12.8708212 C108.035331,11.2547112 107.548809,10.2326996 106.712133,9.12874334 L108.440032,7.40450707 L106.225611,5.17041292 L106.225611,5.17041292 Z M101.41626,15.8606071 C99.7688607,15.8606071 98.4716161,14.5950575 98.4716161,12.8981067 C98.4716161,11.1215513 99.7688607,9.93565041 101.41626,9.93565041 C103.117327,9.93565041 104.361344,11.1750183 104.361344,12.8981067 C104.388618,14.621195 103.14592,15.8606071 101.41626,15.8606071 Z M122.650338,7.08127624 L118.759923,15.4827612 L114.924056,7.08127624 L110.358846,7.08127624 L116.572775,19.8177896 L116.275407,20.41074 L111.925745,28.812225 L116.248134,28.812225 L127,7.08127624 L122.650338,7.08127624 Z" id="Shape"></path>
                </g>
                <g id="Group-60-Copy-3" stroke="#FFFFFF">
                    <rect id="Rectangle-Copy-20" x="0" y="0" width="150" height="50"></rect>
                </g>
            </g>
        </g>
    </g>
</svg>