<?xml version="1.0" encoding="UTF-8"?>
<svg width="152px" height="52px" viewBox="0 0 152 52" version="1.1" xmlns="http://www.w3.org/2000/svg" xmlns:xlink="http://www.w3.org/1999/xlink">
    <!-- Generator: Sketch 62 (91390) - https://sketch.com -->
    <title>Goat</title>
    <desc>Created with Sketch.</desc>
    <g id="Homepage" stroke="none" stroke-width="1" fill="none" fill-rule="evenodd">
        <g id="Extra-Large-Devices-1440px" transform="translate(-944.000000, -2935.000000)">
            <g id="Goat" transform="translate(945.000000, 2936.000000)">
                <rect id="Rectangle" stroke="#FFFFFF" x="0" y="0" width="150" height="50"></rect>
                <g id="Artboard-2" transform="translate(16.000000, 11.000000)" fill="#72757B" fill-rule="nonzero">
                    <path d="M46.62,1 C54.33,1.06 59.51,6.55 59.44,14.61 C59.37,22.22 53.91,27.5 46.17,27.43 C38.73,27.37 33.5,21.81 33.57,14.05 C33.64,6.29 39,1 46.62,1 L46.62,1 Z M37.87,14.24 C37.866297,15.3032063 37.9837207,16.363374 38.22,17.4 C39.0018222,21.2152171 42.4174462,23.9130957 46.31,23.79 C50.59,23.85 53.6,21.65 54.69,17.66 C55.1265823,15.9933408 55.2319051,14.2572133 55,12.55 C54.49,7.98 51.62,5.06 47.38,4.7 C42.91,4.33 39.49,6.61 38.29,10.77 C37.9914909,11.9019249 37.8501653,13.0695436 37.87,14.24 L37.87,14.24 Z" id="Shape"></path>
                    <path d="M23,19.59 L23,23.87 C23.0474744,24.3781326 22.7932425,24.8670402 22.35,25.12 C17.66,28.24 10.35,28.32 5.7,25.12 C1.24,22.12 -0.24,17.65 0.31,12.5 C1.11,5.03 6.71,0.5 14.31,0.99 C17.1436287,1.06263991 19.8841151,2.01691642 22.15,3.72 C22.69,4.14 22.86,4.5 22.36,5.04 C22.2731172,5.15668163 22.1961805,5.28044935 22.13,5.41 C21.04,7.15 20.87,7.22 19.13,6.16 C17.0774016,4.92175527 14.6700925,4.40439498 12.29,4.69 C8.09,5.09 5.21,7.93 4.59,12.27 C4.36993304,13.7924221 4.41051213,15.3411907 4.71,16.85 C5.35921242,19.8070067 7.38307931,22.2753895 10.1555052,23.4915393 C12.9279311,24.707689 16.1147128,24.5250044 18.73,23 C19.0283282,22.8607931 19.2051558,22.547326 19.17,22.22 C19.17,20.94 19.17,19.66 19.17,18.38 C19.17,17.77 18.93,17.64 18.39,17.66 C17.55,17.66 16.71,17.66 15.87,17.66 C15.03,17.66 14.69,17.37 14.68,16.5 C14.68,14.43 14.63,14.43 16.73,14.43 L22.21,14.43 C22.82,14.43 23.05,14.58 23.03,15.22 C23,16.66 23,18.13 23,19.59 L23,19.59 Z" id="Path"></path>
                    <path d="M79.75,20.5 C78.29,20.5 76.82,20.57 75.37,20.5 C75.0002966,20.4307565 74.6183482,20.5154193 74.3125323,20.7343985 C74.0067164,20.9533778 73.8035345,21.2876973 73.75,21.66 C73.3,23.05 72.75,24.39 72.23,25.77 C72.0434233,26.6986424 71.1690743,27.3238019 70.23,27.2 C69.5645367,27.1433528 68.8954633,27.1433528 68.23,27.2 C67.43,27.26 67.42,26.98 67.68,26.33 C69.91,20.77 72.11,15.2 74.32,9.64 C75.32,7.16 76.32,4.64 77.25,2.2 C77.49,1.57 77.78,1.25 78.5,1.32 C79.62,1.43 81,0.9 81.8,1.53 C82.6,2.16 82.74,3.44 83.14,4.46 C86.01,11.69 88.86,18.92 91.76,26.14 C92.1,27 92.02,27.23 91.05,27.2 C87.51,27.12 87.98,27.65 86.66,24.12 C86.31,23.2 85.91,22.3 85.66,21.35 C85.604578,21.0666813 85.4380342,20.8173442 85.1975421,20.6576425 C84.9570501,20.4979407 84.6626305,20.4411693 84.38,20.5 C82.82,20.53 81.28,20.5 79.75,20.5 L79.75,20.5 Z M84.14,17.5 C82.64,13.5 81.14,9.61 79.73,5.68 C79.36,6.73 79.02,7.77 78.64,8.79 C77.64,11.42 76.64,14.04 75.64,16.67 C75.53,16.96 75.05,17.48 75.89,17.49 C78.61,17.47 81.3,17.46 84.14,17.46 L84.14,17.5 Z" id="Shape"></path>
                    <path d="M109.69,16 L109.69,26.2 C109.69,26.94 109.53,27.26 108.69,27.2 C107.961677,27.1300274 107.228323,27.1300274 106.5,27.2 C105.67,27.27 105.4,27.03 105.4,26.13 C105.4,19.45 105.4,12.76 105.4,6.07 C105.4,5.07 105.11,4.8 104.13,4.84 C102.13,4.91 100.13,4.84 98.13,4.84 C97.5,4.84 97.34,4.65 97.33,4.04 C97.27,1.3 97.25,1.3 100.02,1.3 L116.57,1.3 C117.38,1.3 117.71,1.44 117.69,2.36 C117.69,4.85 117.69,4.85 115.17,4.85 C113.59,4.85 112.02,4.85 110.45,4.85 C109.77,4.85 109.6,5.04 109.6,5.71 C109.7,9.12 109.69,12.56 109.69,16 L109.69,16 Z" id="Path"></path>
                </g>
            </g>
        </g>
    </g>
</svg>