<?xml version="1.0" encoding="UTF-8"?>
<svg width="282px" height="92px" viewBox="0 0 282 92" version="1.1" xmlns="http://www.w3.org/2000/svg" xmlns:xlink="http://www.w3.org/1999/xlink">
    <!-- Generator: Sketch 62 (91390) - https://sketch.com -->
    <title>Group 50 Copy</title>
    <desc>Created with Sketch.</desc>
    <defs>
        <polygon id="path-1" points="0 0.140847609 11.5152725 0.140847609 11.5152725 43.1124462 0 43.1124462"></polygon>
        <polygon id="path-3" points="0.0730143483 0.152842044 11.5154873 0.152842044 11.5154873 43.155615 0.0730143483 43.155615"></polygon>
        <polygon id="path-5" points="0.0510551693 0.0354314865 11.5079505 0.0354314865 11.5079505 43.0552779 0.0510551693 43.0552779"></polygon>
    </defs>
    <g id="Homepage-V1" stroke="none" stroke-width="1" fill="none" fill-rule="evenodd">
        <g id="Components" transform="translate(-418.000000, -1462.000000)">
            <g id="Group-50-Copy" transform="translate(419.000000, 1463.000000)">
                <rect id="Rectangle" stroke="#F1F5F7" x="0" y="0" width="280" height="90"></rect>
                <g id="Group-61-Copy" transform="translate(82.000000, 9.000000)">
                    <g id="greenbelly_logo">
                        <path d="M48.5999974,69.8039732 C53.1350488,70.2209832 57.6812656,70.3244128 62.2271388,70.1258696 C70.0042855,69.7866484 77.6410915,68.6761233 84.834201,65.4620109 C90.0659745,63.1241911 94.548119,59.8393932 97.5050668,54.761643 C99.2271186,51.8044587 100.151787,48.6352177 100.140622,45.1489314 C100.093384,30.4314428 100.126708,15.7136076 100.103347,0.995945718 C100.101972,0.223255909 100.268079,-0.0276084058 101.070959,0.0023636429 C102.841795,0.0685446983 102.843513,0.0219407614 102.843513,1.82632739 C102.843513,16.7459974 102.930259,31.6665337 102.789747,46.584991 C102.74835,50.9725178 101.073364,54.9529098 98.308462,58.4288011 C97.4547358,59.5019045 96.6535737,60.6122562 95.6483427,61.5460675 C92.5642809,64.410737 89.0894296,66.6349055 85.204034,68.2617121 C82.1625724,69.5349178 79.0419226,70.4867469 75.8346977,71.1845932 C69.7208556,72.5146246 63.5235304,72.9279963 57.2853225,72.898544 C54.3962263,72.8848573 51.5162342,72.7093562 48.6388188,72.4702729 C48.9109115,71.5771751 48.7899814,70.6899678 48.5999974,69.8039732" id="Fill-1" fill="#0C2E61" fill-rule="nonzero"></path>
                        <g id="Group-5" transform="translate(0.000000, 10.529999)">
                            <g id="Fill-3-Clipped">
                                <mask id="mask-2" fill="white">
                                    <use xlink:href="#path-1"></use>
                                </mask>
                                <g id="path-1"></g>
                                <path d="M8.69915541,16.4356174 C8.69915541,12.9411441 8.70811724,9.44667067 8.69528944,5.95219735 C8.68913919,4.28330553 7.45292702,2.95944072 5.88582825,2.89356567 C4.08449058,2.81754277 2.78958692,4.26180584 2.78695107,6.39371495 C2.77939498,13.0390107 2.78431523,19.6843064 2.78449095,26.3292581 C2.78449095,26.8756942 2.83632927,27.4180023 3.03507212,27.9312429 C3.54994085,29.2604396 4.91407941,30.0115527 6.33550372,29.7630163 C7.64024786,29.5349476 8.68808481,28.26595 8.69423514,26.8330388 C8.70899585,23.3672889 8.69897964,19.9013672 8.69915541,16.4356174 M8.68457038,31.7695392 C7.34433013,32.4687091 6.01393041,32.7169015 4.63011086,32.4432535 C1.84683239,31.8926895 0.0370600056,29.7091811 0.022826433,26.7568438 C-0.01003379,19.8268923 0.00296972069,12.8967687 0.0157975083,5.96681714 C0.0238807717,1.64021983 4.41766161,-1.14218385 8.21732256,0.738092904 C8.35667098,0.807235903 8.53713865,0.984221341 8.65803616,0.764752518 C8.77823076,0.546143686 8.60707647,0.157945311 9.08961216,0.172393102 C9.81991743,0.19458078 10.5511013,0.184776922 11.2814066,0.203352654 C11.4583598,0.207824589 11.5043993,0.362794343 11.5093194,0.514668142 C11.5147669,0.686321654 11.5144155,0.858147165 11.5144155,1.02997267 C11.5144155,13.0572424 11.5177542,25.0846841 11.5112524,37.1119538 C11.5096709,39.863914 9.9884359,42.0606661 7.59368123,42.8327629 C4.2016979,43.9261511 0.597441028,41.6949994 0.121582825,38.2075779 C-0.142177574,36.2727779 -0.141650405,36.3049415 1.86387754,36.2619422 C2.56958157,36.2469784 2.78273372,36.407108 2.81963558,37.1343135 C2.91206593,38.960755 4.01771579,40.2632921 5.44546612,40.4235938 C6.99323534,40.5974833 8.56683584,39.4122485 8.65821185,37.7995998 C8.76909315,35.8393443 8.68457038,33.8685968 8.68457038,31.7695392" id="Fill-3" fill="#B6DC15" fill-rule="nonzero" mask="url(#mask-2)"></path>
                            </g>
                        </g>
                        <path d="M48.4017715,69.4338625 C48.5922849,70.316479 48.713552,71.2003036 48.440701,72.0899962 C41.1334949,71.4288105 34.0726128,69.8608459 27.5756918,66.2929283 C22.9882112,63.7736571 19.1794931,60.3947238 16.5882695,55.7895506 C14.8438486,52.6893472 13.7641577,49.3882511 13.7755265,45.7552677 C13.8116999,34.3452837 13.7977474,22.9351271 13.7699844,11.525143 C13.7679473,10.730374 13.9772365,10.4416338 14.7578937,10.5529532 C15.0953402,10.6009328 15.450012,10.5973084 15.7883197,10.5526081 C16.3398785,10.4797758 16.6402903,10.6646179 16.5808625,11.3228696 C18.7640154,10.1994924 20.8074699,10.2405685 22.6984793,11.7248277 C24.3765821,13.0418489 25.0836866,14.8295183 25.0116843,16.9445877 C25.008756,17.0305367 25.0373502,17.1587698 24.9925641,17.1958763 C24.2978619,17.7692146 23.480859,17.3422311 22.7258677,17.4551039 C22.3059114,17.517926 22.3047056,17.181724 22.2948871,16.8821108 C22.2721495,16.1922754 22.240627,15.5089984 21.8842325,14.8806045 C21.1745441,13.6291668 20.0088983,13.057727 18.7238801,13.3582032 C17.5284342,13.6377963 16.5576081,14.902178 16.5510624,16.2395646 C16.5388324,18.6823792 16.5472729,21.1255389 16.5472729,23.5685261 C16.5472729,30.6674273 16.6146243,37.7673642 16.5240186,44.8652299 C16.4616624,49.7417119 18.1854127,53.8938408 21.1828124,57.5955143 C23.7209817,60.7298902 26.9505804,62.9859642 30.5407076,64.7544764 C33.7930438,66.3566134 37.2302091,67.4102648 40.7576358,68.1893284 C43.0319113,68.6917329 45.3237567,69.0897214 47.6483305,69.2800863 C47.9020613,69.3007969 48.1507967,69.3810505 48.4017715,69.4338625" id="Fill-6" fill="#B6DC15" fill-rule="nonzero"></path>
                        <g id="Group-10" transform="translate(105.299994, 10.529999)">
                            <g id="Fill-8-Clipped">
                                <mask id="mask-4" fill="white">
                                    <use xlink:href="#path-3"></use>
                                </mask>
                                <g id="path-3"></g>
                                <path d="M8.72713045,31.7690921 C7.30781487,32.4842576 5.90572011,32.733654 4.42349562,32.3853591 C1.91610245,31.7960956 0.0991254109,29.6235951 0.0956109483,27.1105396 C0.0831346072,18.3732382 0.097895349,9.63576475 0.0757542361,0.898807372 C0.074172728,0.281680318 0.257803386,0.15044622 0.8561406,0.156982125 C2.87607784,0.178653811 2.87642929,0.154402163 2.87642929,2.09591003 C2.87642929,10.2888393 2.87344199,18.4817686 2.87871368,26.6748698 C2.87994375,28.5035474 4.07468522,29.7851008 5.75846414,29.8000646 C7.24929907,29.8131364 8.52961772,28.7152763 8.69708181,27.2624133 C8.73626806,26.9223743 8.72625185,26.5761433 8.72642762,26.2326643 C8.72783337,17.8391859 8.73714667,9.44553554 8.70990961,1.05205715 C8.70762525,0.340159471 8.88633562,0.136170427 9.61927672,0.15388617 C11.5121662,0.2001535 11.5130448,0.16489401 11.5130448,2.028315 C11.5130448,13.8593355 11.5223581,25.6905281 11.5051372,37.5217207 C11.5016228,39.9014782 10.3031911,41.6599807 8.12809037,42.6159428 C5.98251111,43.5590052 3.88121408,43.2750373 2.08918972,41.6935202 C0.607140944,40.3859951 -0.00472695186,38.7088475 0.0808502065,36.7651036 C0.0968410102,36.4033929 0.177849367,36.2296754 0.572874936,36.2735348 C0.775132245,36.2960664 0.982309798,36.2730187 1.18702724,36.2781787 C1.71138502,36.2915945 2.34486686,36.1383448 2.72917331,36.3734653 C3.11699423,36.6103059 2.82968694,37.2755922 2.90067908,37.7494454 C3.1364995,39.3282105 4.50766699,40.5213572 6.01589851,40.4315745 C7.47598189,40.3445438 8.70200207,39.021539 8.72168304,37.4546417 C8.74487853,35.5974125 8.72713045,33.7396675 8.72713045,31.7690921" id="Fill-8" fill="#0C2E61" fill-rule="nonzero" mask="url(#mask-4)"></path>
                            </g>
                        </g>
                        <g id="Group-13" transform="translate(67.229996, 0.000000)">
                            <g id="Fill-11-Clipped">
                                <mask id="mask-6" fill="white">
                                    <use xlink:href="#path-5"></use>
                                </mask>
                                <g id="path-5"></g>
                                <path d="M8.70911889,26.8592684 C8.70911889,23.3639351 8.71614783,19.8684297 8.70560438,16.3732683 C8.70138704,14.9506769 7.67656983,13.6928592 6.35934934,13.4396789 C4.47858481,13.0779681 2.84892862,14.4551522 2.84154825,16.5191222 C2.81659557,23.3950666 2.82151581,30.271183 2.8389124,37.1471273 C2.84365693,39.0212121 4.09884716,40.3065495 5.8095117,40.2928402 C7.51332306,40.2786859 8.70683445,38.962905 8.70841597,37.0872722 C8.71105179,33.6779376 8.70911889,30.268603 8.70911889,26.8592684 M2.95857984,11.4118283 C4.30830911,10.6615751 5.74800862,10.4489862 7.25184705,10.8323686 C9.65749657,11.4460558 11.4815025,13.6866673 11.4880043,16.122496 C11.5068067,23.2825802 11.5233246,30.4430084 11.4834355,37.6029207 C11.4618215,41.5132841 7.29946802,44.1314301 3.62896354,42.622152 C3.31898795,42.4948738 2.85929628,41.9329579 2.78232955,42.8620885 C2.75825549,43.1543122 2.32773385,43.0081144 2.08629029,43.0120703 C0.0716247428,43.0450939 0.0714490196,43.0402779 0.0714490196,41.1094339 C0.0714490196,27.7627713 0.0798837293,14.4162807 0.0510453252,1.0699621 C0.0494836299,0.248673996 0.235398688,0.00271756062 1.09556335,0.0386650397 C2.82959908,0.111247988 2.83188347,0.0596487357 2.83188347,1.7531362 C2.83188347,4.64596228 2.82872046,7.53861636 2.83645228,10.4312704 C2.83733089,10.7345021 2.75157801,11.0533855 2.95857984,11.4118283" id="Fill-11" fill="#0C2E61" fill-rule="nonzero" mask="url(#mask-6)"></path>
                            </g>
                        </g>
                        <path d="M89.5471963,20.0366811 C89.5471963,18.8649889 89.5563744,17.6932968 89.5449453,16.5217809 C89.5283208,14.763802 88.3105912,13.3955645 86.738557,13.3493808 C85.1566514,13.3030208 83.7913811,14.6913535 83.7650594,16.4650208 C83.7295595,18.8663991 83.7662719,21.2688352 83.7463573,23.6705661 C83.742547,24.1235899 83.8637659,24.2753617 84.3217999,24.2674293 C85.8467325,24.2409883 87.3728777,24.233761 88.8972904,24.2695446 C89.4562819,24.2825889 89.569016,24.0596025 89.556201,23.5512288 C89.5267624,22.380418 89.5468504,21.208197 89.5471963,20.0366811 M81.0106221,27.1770052 C81.0106221,23.6259688 80.9877635,20.0751088 81.0163366,16.5242488 C81.0509706,12.2356827 85.0013177,9.38321957 88.7713961,10.9781452 C91.1741257,11.9945401 92.2962656,13.9956006 92.3215482,16.6085076 C92.3530653,19.8655192 92.3186046,23.1234121 92.3399941,26.3806 C92.3431946,26.8976111 92.1686396,27.0106027 91.6951938,27.0065484 C89.3023341,26.9848667 86.9089559,27.0157146 84.5160962,26.9827514 C83.9403069,26.974819 83.7319838,27.0811122 83.7389109,27.7297999 C83.7747567,31.0455107 83.7435863,34.3619265 83.760384,37.6778136 C83.769908,39.553896 84.948155,40.8958686 86.5690232,40.9409947 C88.1819259,40.9859445 89.4871064,39.7428615 89.538884,38.0555684 C89.5766349,36.8241194 89.5652058,35.5902026 89.5383648,34.358401 C89.5278016,33.8681836 89.6734372,33.7150015 90.1711271,33.7042489 C92.329687,33.6584176 92.3345365,33.640614 92.3267435,35.7899208 C92.3236266,36.639737 92.3321114,37.492726 92.2659611,38.3386641 C92.0004917,41.7336981 89.6233913,43.8514519 86.243984,43.7354637 C83.3749083,43.6372792 81.0527024,41.0922377 81.0192802,37.9175459 C80.9817026,34.337777 81.0106221,30.7571266 81.0106221,27.1770052" id="Fill-14" fill="#0C2E61" fill-rule="nonzero"></path>
                        <path d="M53.482945,27.1778064 C53.482945,21.9811273 53.5064118,16.7840956 53.4601734,11.5879452 C53.4521773,10.7041766 53.7148321,10.4461317 54.5267845,10.5575282 C54.9248516,10.6121688 55.3364772,10.5610534 55.7416711,10.570924 C55.881603,10.5744492 56.1374784,10.6026508 56.1430409,10.645482 C56.3008771,11.8812422 56.9609035,10.9976498 57.2969138,10.8718001 C60.8553549,9.53892051 64.752066,12.2700721 64.7751852,16.1878073 C64.8035193,21.0027069 64.7819645,25.8177828 64.7821383,30.6328586 C64.7821383,34.7138108 64.764234,38.7949392 64.7998688,42.8757151 C64.8059528,43.5863962 64.5957943,43.7501419 63.9286409,43.7372749 C62.0408646,43.7009653 62.0403431,43.7307533 62.0403431,41.801938 C62.0403431,33.4050789 62.0443412,25.0080435 62.0375618,16.6111844 C62.0359973,14.5914188 60.6551046,13.198082 58.8681487,13.3736372 C57.3612303,13.5213432 56.2482071,14.8572192 56.2433399,16.5690582 C56.2332578,20.1510177 56.2400371,23.7329773 56.2400371,27.3147606 C56.2400371,32.511616 56.2283906,37.7082952 56.2548126,42.9049743 C56.2582891,43.5493815 56.1178358,43.7506707 55.4512039,43.7395663 C53.4834664,43.7064294 53.482945,43.73939 53.482945,41.7108115 L53.482945,27.1778064 Z" id="Fill-16" fill="#B6DC15" fill-rule="nonzero"></path>
                        <path d="M48.2507077,20.4955699 C48.2507077,19.3199938 48.2839775,18.1433847 48.2426951,16.969186 C48.1850391,15.3297842 46.8540739,14.0455689 45.2916138,14.059859 C43.7920353,14.0734604 42.4889401,15.3075742 42.4568896,16.8782802 C42.4074205,19.2859041 42.4509673,21.6950775 42.434942,24.1033901 C42.4318067,24.5587794 42.6080842,24.6978927 43.0496491,24.693072 C44.5870262,24.675855 46.1249258,24.6741333 47.6624771,24.6947937 C48.1106611,24.7008197 48.2709134,24.5611898 48.2615074,24.1080387 C48.2357276,22.9042267 48.2526238,21.6997261 48.2507077,20.4955699 M39.6932339,27.5417951 C39.6932339,24.0446802 39.6897502,20.5477373 39.6941048,17.0506223 C39.6981112,13.8305287 42.1097343,11.3610958 45.2613053,11.3399994 C48.4571197,11.3192585 50.9924158,13.7929957 51.0119248,16.989502 C51.0312596,20.1996098 51.0006026,23.4104062 51.0298661,26.6203418 C51.0352659,27.2191487 50.8755361,27.3994107 50.2597841,27.3901135 C47.9110425,27.3553352 45.5612558,27.3945899 43.21234,27.3634271 C42.6160968,27.3553352 42.4213555,27.5066725 42.4269294,28.1204582 C42.4565413,31.3880707 42.430239,34.6558554 42.4448708,37.9234679 C42.4528834,39.7353839 43.6774201,41.0041039 45.3588502,40.9946345 C47.0035266,40.9856817 48.2325922,39.667549 48.2508819,37.875949 C48.2623783,36.7580498 48.2702167,35.6398063 48.2451337,34.5224237 C48.235205,34.077881 48.3787354,33.9446215 48.8359771,33.9274045 C51.0166278,33.844763 51.0305628,33.8299563 51.0100088,35.9660683 C50.9997317,37.023708 51.1045925,38.0839302 50.9070641,39.1391595 C50.3477487,42.1263073 47.8007819,43.9929733 44.6420694,43.7121642 C41.885207,43.4671665 39.7052529,41.0536888 39.6960209,38.2046214 C39.6843504,34.6505181 39.6932339,31.0960706 39.6932339,27.5417951" id="Fill-18" fill="#B6DC15" fill-rule="nonzero"></path>
                        <path d="M34.4796383,20.4486035 C34.4796383,19.3018736 34.4798124,18.1553161 34.4794642,17.0087585 C34.4792901,16.9514306 34.4759821,16.8941027 34.4723258,16.836947 C34.3673395,15.2701571 33.0232358,14.0160022 31.494579,14.0581803 C29.9963909,14.0994977 28.7161843,15.3663922 28.6963362,16.9125234 C28.6656934,19.2913722 28.6980772,21.6710817 28.6784032,24.0502748 C28.6743987,24.5293844 28.8189072,24.7024009 29.3177229,24.6937932 C30.8249646,24.668142 32.333251,24.6696914 33.8404926,24.6939654 C34.3272949,24.7018845 34.5020981,24.553314 34.4900847,24.0602599 C34.4606607,22.8568909 34.4805089,21.6524889 34.4796383,20.4486035 M25.9256021,27.4818563 C25.9254281,24.0132613 25.9235129,20.5448385 25.9261245,17.0762436 C25.9285619,13.8240484 28.3683192,11.3444885 31.5650922,11.3399994 C34.7604724,11.3353643 37.23035,13.8114811 37.2402741,17.0488708 C37.2501982,20.2304821 37.2216447,23.4127819 37.2597741,26.5940488 C37.2676089,27.2547828 37.0713906,27.3995659 36.4350306,27.3890643 C34.1162776,27.3508457 31.7957836,27.4012873 29.4772046,27.3570434 C28.8049787,27.3443038 28.6660416,27.5505464 28.6723094,28.1770214 C28.7039968,31.4443662 28.6787514,34.7123997 28.6905906,37.980261 C28.6972067,39.7229941 29.9267481,40.9893721 31.5731011,40.9917824 C33.2093558,40.9940204 34.4448169,39.7278145 34.4761562,37.9873194 C34.4963525,36.869684 34.5000088,35.7510157 34.4721518,34.6337245 C34.4597901,34.1404982 34.5694774,33.9321897 35.1346277,33.9216881 C37.2428857,33.8822644 37.2609928,33.8600563 37.235225,35.9362553 C37.2207742,37.1067425 37.3565774,38.2823945 37.0881049,39.4475448 C36.4440842,42.2430107 33.8481533,44.0175926 30.8270539,43.7042691 C28.1306635,43.4245159 25.9461467,41.0461836 25.9306513,38.3171699 C25.9101067,34.7053413 25.9256021,31.0935127 25.9256021,27.4818563" id="Fill-20" fill="#B6DC15" fill-rule="nonzero"></path>
                        <path d="M97.1866809,21.9293796 C97.1866809,28.889372 97.178444,35.8495393 97.1999519,42.8095318 C97.2020879,43.4862002 97.1267336,43.7647048 96.4447306,43.7382888 C94.7909027,43.6744357 94.7895297,43.7209697 94.7895297,41.830217 C94.7893767,28.2303726 94.7976144,14.6301783 94.7699856,1.03033389 C94.7683264,0.155283444 94.9881353,-0.0280537949 95.7009506,0.0032604854 C97.1851557,0.0685131477 97.1866809,0.022678838 97.1866809,1.74793823 L97.1866809,21.9293796 Z" id="Fill-22" fill="#0C2E61" fill-rule="nonzero"></path>
                        <path d="M58.7239373,65.6099968 C57.0952197,65.6094673 55.887713,64.4068508 55.8899938,62.787788 C55.8921116,61.1868852 57.138326,59.934549 58.7235855,59.9399791 C60.3227444,59.9454803 61.555939,61.1838879 61.5600077,62.7879643 C61.5642084,64.4077323 60.3551182,65.6107015 58.7239373,65.6099968" id="Fill-24" fill="#B6DC15" fill-rule="nonzero"></path>
                    </g>
                </g>
            </g>
        </g>
    </g>
</svg>