<?xml version="1.0" encoding="UTF-8"?>
<svg width="100px" height="100px" viewBox="0 0 100 100" version="1.1" xmlns="http://www.w3.org/2000/svg" xmlns:xlink="http://www.w3.org/1999/xlink">
    <!-- Generator: Sketch 60 (88103) - https://sketch.com -->
    <title>Group 38</title>
    <desc>Created with Sketch.</desc>
    <g id="Delivarables-Page" stroke="none" stroke-width="1" fill="none" fill-rule="evenodd">
        <g id="Extra-Large-Devices-1280px-" transform="translate(-440.000000, -1255.000000)">
            <g id="Group-24-Copy" transform="translate(20.000000, 1255.000000)">
                <g id="Group-38" transform="translate(420.000000, 0.000000)">
                    <circle id="Oval-Copy-2" fill="#FAAD4D" cx="49.9999987" cy="49.9999987" r="49.9999987"></circle>
                    <g id="wix_logo-copy" transform="translate(16.000000, 37.999999)" fill="#FFFFFF" fill-rule="nonzero">
                        <path d="M35.0203348,0.118540785 C34.9808212,0.276595165 34.9356628,0.440294345 34.8961492,0.603993524 C34.2978005,2.90142684 33.693807,5.20450495 33.0898135,7.50193826 C32.4463063,9.96307075 31.8027992,12.429848 31.1592921,14.8909805 C30.4480474,17.6117738 29.7368027,20.3325671 29.025558,23.0477155 C28.7376732,24.1540962 28.4441436,25.2604768 28.1562589,26.3612127 C28.1280349,26.4797535 28.1280349,26.4741087 28.0038493,26.4853983 C27.3264734,26.5362015 26.6490975,26.4966879 25.9773663,26.4007263 C25.5144928,26.3329887 25.0911329,26.1579999 24.7016417,25.8983392 C24.6677729,25.87576 24.6395489,25.847536 24.6113249,25.819312 C24.4137569,25.6160992 24.2048994,25.4185312 23.9960418,25.2322528 C23.9226594,25.1701601 23.8549218,25.1024225 23.792829,25.0290401 C23.4597859,24.6056801 23.1549667,24.1653858 22.9517539,23.651709 C22.556618,22.6469348 22.161482,21.6421605 21.7889253,20.6317414 C21.6647397,20.2930535 21.5970021,19.9374311 21.5066853,19.5874535 C20.9026918,17.2222826 20.3043431,14.8571117 19.7059943,12.4919408 C19.2713448,10.7702771 18.8310504,9.05425807 18.3964009,7.33259428 C18.3568873,7.1688951 18.2835049,7.02777512 18.1988329,6.88101034 C18.0690025,6.65521837 17.8432106,6.55925678 17.6174186,6.46893999 C17.5722602,6.45200559 17.5271018,6.45765039 17.4819434,6.48022959 C17.408561,6.51974318 17.3295338,6.54796718 17.2561514,6.57619118 C17.0472939,6.66650797 16.9287531,6.83020715 16.8610155,7.03906472 C16.6069995,7.77853343 16.4545899,8.54622613 16.2513772,9.29698444 C16.0481644,10.0477427 15.861886,10.8041458 15.6699628,11.5549042 C15.1280621,13.6604143 14.5861614,15.7659244 14.0386158,17.8770794 C13.8241135,18.7181545 13.6096111,19.5592296 13.3894639,20.4003046 C13.3160815,20.6881894 13.1975407,20.9591398 13.0902896,21.2413797 C12.7854704,22.0711652 12.4806512,22.9065955 12.1588977,23.7307362 C11.9443953,24.272637 11.6226417,24.7468001 11.1992818,25.1532257 C11.0073586,25.3338592 10.8154354,25.5032032 10.6291571,25.6894816 C10.3017587,26.0112351 9.90662276,26.1918687 9.47761801,26.3273439 C9.22924685,26.4063711 8.97523088,26.4345951 8.72121491,26.4571743 C8.18495898,26.5079775 7.65434784,26.5305567 7.11809191,26.4910431 C6.99390632,26.4797535 6.99390632,26.4853983 6.96568233,26.3668575 C6.53667758,24.7524449 6.10767284,23.1436771 5.67866809,21.5292645 C4.95613378,18.8197608 4.23924427,16.115902 3.51670996,13.4063983 C2.92965083,11.1823474 2.34259171,8.96958608 1.74988778,6.75117996 C1.21363185,4.72469701 0.677375915,2.70385886 0.141119982,0.683020715 C0.0903167887,0.502387137 0.0451583943,0.327398359 -3.20869691e-15,0.146764782 C0.112895986,0.095961588 0.23708157,0.0903167887 0.355622356,0.0903167887 C0.891878288,0.0790271901 1.42813422,0.0620927922 1.95874535,0.112895986 C2.67563487,0.180633577 3.36994518,0.327398359 4.0190971,0.649151919 C4.60615622,0.937036683 5.03516097,1.38862063 5.36820413,1.94181096 C5.37949373,1.96439015 5.39078333,1.99261415 5.40207292,2.01519335 C5.5657721,2.48935649 5.71818168,2.96916443 5.84236727,3.45461717 C6.3616888,5.50932411 6.89229994,7.56403105 7.41726627,9.618738 C7.93658781,11.6395761 8.45590934,13.6547695 8.97523088,15.6756076 C9.15586445,16.3812076 9.33649803,17.0811627 9.51713161,17.7867626 C9.52277641,17.8149866 9.51713161,17.8545002 9.56229,17.8770794 C9.5961588,17.7641834 9.6243828,17.6512874 9.65260679,17.5440362 C10.2566003,15.2409581 10.8605938,12.93788 11.4645874,10.6348019 C11.8371441,9.22360205 12.1927665,7.81240222 12.5766128,6.4068472 C12.8419184,5.44158652 13.1693168,4.49326024 13.5870319,3.58444755 C13.6942831,3.34736598 13.8128239,3.11028441 13.9708783,2.90142684 C14.6313198,2.02648295 15.4836845,1.45635822 16.5674859,1.23621105 C17.0585835,1.13460466 17.5609706,1.12895986 18.0577129,1.16282865 C18.814116,1.20798705 19.4971368,1.49022701 20.1237095,1.91358696 C20.473687,2.15066853 20.7954406,2.4216189 21.0607462,2.75466206 C21.2583141,2.99738842 21.3994341,3.27962839 21.5292645,3.55622356 C21.8227941,4.18279628 22.0372964,4.83759299 22.2630884,5.49238971 C22.5509732,6.31653041 22.754186,7.1688951 22.9743331,8.0099702 C23.7307362,10.8718834 24.4871393,13.7394415 25.2435424,16.6013547 C25.3451488,16.9964907 25.4524,17.3859818 25.5540064,17.7811178 C25.565296,17.8206314 25.565296,17.860145 25.6048096,17.8940138 C25.7289952,17.4029162 25.8531808,16.9174635 25.9773663,16.4320107 C26.5079775,14.3660142 27.0329438,12.2943729 27.563555,10.2283763 C28.2070621,7.76724383 28.8336348,5.30611134 29.4658523,2.85062364 C29.6408411,2.17324773 29.9625947,1.574899 30.4480474,1.06686707 C30.656905,0.852364693 30.9165657,0.705599912 31.1875161,0.575769528 C31.4810457,0.434649546 31.7971544,0.361267155 32.118908,0.304819162 C32.9994967,0.152409581 33.8857302,0.0790271901 34.7832532,0.0846719894 C34.8509908,0.0846719894 34.9187284,0.0903167887 34.986466,0.095961588 C34.9977556,0.095961588 35.0034004,0.107251187 35.0203348,0.118540785 L35.0203348,0.118540785 Z" id="Path"></path>
                        <path d="M42.6859723,26.5418463 C42.7875786,26.3894367 42.8778954,26.2539615 42.9625674,26.1241311 C44.548756,23.764605 46.1349446,21.4107237 47.7211332,19.0511976 C48.9855683,17.1714795 50.2500033,15.2917613 51.5144384,13.4120431 C51.5765311,13.3160815 51.5765311,13.3160815 51.5144384,13.2257647 C50.1879105,11.250085 48.8557379,9.28005004 47.5292101,7.30437029 C46.405895,5.63915449 45.2882247,3.9682939 44.1649097,2.30307811 C43.6963913,1.603123 43.227873,0.903167887 42.7537099,0.208857574 C42.7367755,0.180633577 42.7029067,0.15805438 42.7029067,0.112895986 C42.832737,0.112895986 42.9625674,0.107251187 43.0923978,0.112895986 C43.4988234,0.135475183 43.9052489,0.16369918 44.3116745,0.186278377 C44.8479304,0.220147172 45.3898311,0.254015968 45.9317319,0.282239965 C46.1857478,0.299174363 46.434119,0.31610876 46.688135,0.32175356 C46.8405445,0.327398359 46.9873093,0.355622356 47.1284293,0.406425549 C47.9469252,0.71688951 48.6299459,1.21363185 49.188781,1.88536296 C49.2226498,1.92487656 49.2508738,1.96439015 49.2790978,2.00954855 C50.4080577,3.70298834 51.5313728,5.40207292 52.6603326,7.09551271 C53.044179,7.67128224 53.4506045,8.24140697 53.8288061,8.8228213 C53.9925052,9.07683726 54.2295868,9.26311564 54.477958,9.43245962 C54.5456956,9.47761801 54.6303676,9.49455241 54.70375,9.52842121 C54.7376188,9.53971081 54.7658427,9.53971081 54.7940667,9.52277641 C55.1666235,9.35907723 55.4883771,9.11635086 55.7028794,8.7720181 C56.5552441,7.43984547 57.4471224,6.13025203 58.3277111,4.8150138 C58.9373494,3.90055631 59.5526325,2.99174363 60.1622709,2.07728614 C60.410642,1.71037419 60.7323956,1.41119982 61.0767284,1.14024946 C61.5000883,0.812851098 61.9686066,0.564479929 62.4766386,0.395135951 C62.7645233,0.299174363 63.0636977,0.254015968 63.3628721,0.214502373 C64.0515376,0.112895986 64.7402031,0.095961588 65.4288686,0.107251187 C65.8522286,0.112895986 66.2812333,0.107251187 66.7045933,0.107251187 C66.7328173,0.107251187 66.7610412,0.095961588 66.7836204,0.118540785 C66.79491,0.15805438 66.7610412,0.186278377 66.738462,0.214502373 C65.2256558,2.46677729 63.7128496,4.71905221 62.2000434,6.97132713 C60.918674,8.87926929 59.6373045,10.7928562 58.3502903,12.7007984 C58.2317495,12.8757872 58.1132087,13.050776 58.0003127,13.2257647 C57.9212856,13.3443055 57.9212856,13.3160815 58.0059575,13.4402671 C58.8188086,14.653899 59.6373045,15.861886 60.4501556,17.0755179 C62.521797,20.1575783 64.5990831,23.2396387 66.6707245,26.3273439 C66.7158829,26.3894367 66.7553964,26.4571743 66.7892652,26.5079775 C66.7836204,26.5418463 66.766686,26.5362015 66.7553964,26.5362015 C65.9651245,26.5305567 65.1692078,26.5531359 64.3789359,26.5249119 C63.9160624,26.5079775 63.4588337,26.4628191 63.0016049,26.3781471 C62.3580978,26.2596063 61.7766835,25.9830111 61.2347827,25.621744 C60.946898,25.4298208 60.6703028,25.2322528 60.4332212,24.9782369 C60.3485492,24.8822753 60.2638773,24.7863137 60.1961397,24.6790625 C58.7341367,22.471946 57.2721336,20.2704743 55.8157754,18.0690025 C55.714169,17.9109482 55.6069178,17.7585386 55.4827323,17.6174186 C55.3020987,17.4198506 55.0932411,17.2617962 54.8448699,17.1489003 C54.7884219,17.1206763 54.731974,17.1206763 54.675526,17.1376107 C54.3989308,17.2053482 54.195718,17.380337 54.0207292,17.5891946 C53.8683197,17.775473 53.7328445,17.9786858 53.5917245,18.1762537 C52.4458302,19.8076007 51.3789632,21.4953957 50.2782273,23.1606115 C49.9734081,23.623485 49.668589,24.0863586 49.3694146,24.5492321 C49.2508738,24.7298657 49.1097539,24.8935649 48.9573443,25.0403297 C48.3702851,25.6104544 47.6872644,26.0225247 46.9082821,26.2708959 C46.6260422,26.3612127 46.3268678,26.4063711 46.0333382,26.4402399 C45.4801479,26.5079775 44.9326024,26.5362015 44.3737672,26.5305567 C43.8657353,26.5249119 43.3577034,26.5305567 42.8496714,26.5305567 C42.8101578,26.5418463 42.7649994,26.5418463 42.6859723,26.5418463 L42.6859723,26.5418463 Z" id="Path"></path>
                        <path d="M40.7385165,4.36342985 L40.7385165,6.65521837 C40.7385165,12.2097009 40.7441613,17.7698282 40.7441613,23.3243107 C40.7441613,23.8605666 40.5917517,24.357309 40.303867,24.8032481 C39.8014798,25.5765856 39.1071695,26.1015519 38.2322256,26.3837919 C37.9838544,26.4628191 37.7185489,26.4741087 37.4588881,26.5023327 C36.9960146,26.5587807 36.533141,26.5362015 36.0759123,26.5362015 C35.9855955,26.5362015 35.9855955,26.5362015 35.9855955,26.4345951 C35.9855955,25.6951264 35.9855955,24.9613025 35.9855955,24.2218338 C35.9855955,22.6356452 35.9855955,21.0551014 35.9799507,19.4689128 C35.9743059,16.9231083 35.9686611,14.3773038 35.9630163,11.8314993 C35.9630163,10.5501299 35.9573715,9.26876044 35.9573715,7.987391 C35.9573715,7.88578461 35.9743059,7.79546782 36.0194643,7.71079584 C36.1210707,7.51322786 36.2000979,7.29872549 36.3525075,7.12938151 C36.5387858,6.92052393 36.7702226,6.77375915 37.012949,6.64957357 C37.7637073,6.26008242 38.5144656,5.87059127 39.2539343,5.45852092 C39.7280974,5.19321535 40.1853262,4.89404099 40.5691725,4.49890504 C40.6199757,4.44810184 40.6651341,4.39729865 40.7159373,4.34085066 C40.7215821,4.35778505 40.7328717,4.35778505 40.7385165,4.36342985 Z" id="Path"></path>
                        <path d="M35.9855955,6.22056882 C35.9686611,5.85365687 35.9291475,5.52061371 35.9630163,5.18192575 C35.9686611,5.15370176 35.9686611,5.12547776 35.9686611,5.10289856 C35.9799507,4.56664263 36.0533331,4.04167629 36.1605843,3.51670996 C36.2904147,2.87320284 36.5557202,2.29178851 36.9395666,1.76682218 C37.3347025,1.22492145 37.8483793,0.812851098 38.4523728,0.530611134 C38.7402576,0.395135951 39.0507215,0.327398359 39.3555407,0.259660768 C39.795835,0.15805438 40.2417742,0.0790271901 40.6877133,0.0338687958 C40.7441613,0.0282239965 40.8062541,0.0169343979 40.8627021,0.0112895986 C40.9191501,0.00564479929 40.9360845,0.0282239965 40.9473741,0.0846719894 C40.9812429,0.299174363 40.9755981,0.513676736 40.9643085,0.728179109 C40.9530189,0.970905479 40.9191501,1.20798705 40.8739917,1.44506862 C40.7949645,1.83455977 40.6764237,2.20711652 40.5240141,2.56838368 C40.2587086,3.2006012 39.8861518,3.75943633 39.4232783,4.26182347 C39.2031311,4.49890504 38.9265359,4.66824902 38.6499408,4.8206586 C38.3733456,4.97306818 38.079816,5.08596416 37.7806417,5.19321535 C37.1992273,5.40771772 36.6629714,5.71818168 36.1662291,6.08509364 C36.1210707,6.12460723 36.0646227,6.16412083 35.9855955,6.22056882 L35.9855955,6.22056882 Z" id="Path"></path>
                    </g>
                </g>
            </g>
        </g>
    </g>
</svg>