<?xml version="1.0" encoding="UTF-8"?>
<svg width="100px" height="100px" viewBox="0 0 100 100" version="1.1" xmlns="http://www.w3.org/2000/svg" xmlns:xlink="http://www.w3.org/1999/xlink">
    <!-- Generator: Sketch 60 (88103) - https://sketch.com -->
    <title>Group 30 Copy</title>
    <desc>Created with Sketch.</desc>
    <defs>
        <circle id="path-1" cx="50" cy="50" r="50"></circle>
    </defs>
    <g id="Delivarables-Page" stroke="none" stroke-width="1" fill="none" fill-rule="evenodd">
        <g id="Extra-Large-Devices-1280px-" transform="translate(-20.000000, -1255.000000)">
            <g id="Group-24-Copy" transform="translate(20.000000, 1255.000000)">
                <g id="Group-30-Copy">
                    <mask id="mask-2" fill="white">
                        <use xlink:href="#path-1"></use>
                    </mask>
                    <use id="Mask" fill="#13235F" xlink:href="#path-1"></use>
                    <g id="CDL-logo-blue" mask="url(#mask-2)" fill="#FFFFFF" fill-rule="nonzero">
                        <g transform="translate(9.000000, 36.000000)">
                            <path d="M50.6984015,1.01520003 C53.4816016,1.08640003 56.2432017,0.970400029 58.9592018,1.26880004 C63.5584019,1.77520005 66.808802,5.44320016 67.054402,10.0688003 C67.191202,12.6288004 66.703202,15.0288004 65.1048019,17.1136005 C63.4528019,19.2688006 61.2360018,20.4640006 58.5592017,20.6504006 C56.3992017,20.8008006 54.2184016,20.7304006 52.0472016,20.7544006 C51.6088015,20.7592006 51.1672015,20.7544006 50.6984015,20.7544006 L50.6984015,1.01520003 Z M54.4296016,17.7040005 C55.4800017,17.7040005 56.5096017,17.7472005 57.5256017,17.6960005 C60.2960018,17.5560005 62.1816019,16.0888005 62.9656019,13.4768004 C63.4478712,11.9113621 63.4816836,10.2420839 63.0632019,8.65840026 C62.5584019,6.7384002 61.4136018,5.33600016 59.5368018,4.59520014 C57.8816017,3.94240012 56.1512017,4.22400013 54.4280016,4.16080012 L54.4296016,17.7040005 Z" id="Shape"></path>
                            <path d="M47.1808014,5.35120016 C46.3288014,5.04720015 45.5336014,4.70000014 44.7008013,4.48320013 C43.2648013,4.10800012 41.8024012,4.03120012 40.3552012,4.45600013 C37.9448011,5.16400015 36.2472011,7.34480022 36.0352011,9.9984003 C35.9336011,11.2584003 36.0032011,12.5032004 36.4512011,13.7024004 C37.4344011,16.3360005 40.0472012,17.8624005 43.0688013,17.6128005 C44.5456013,17.4888005 45.9208014,17.0992005 47.1856014,16.2008005 C47.1984014,16.3608005 47.2136014,16.4704005 47.2144014,16.5808005 C47.2144014,17.5408005 47.2032014,18.5008006 47.2224014,19.4608006 C47.2288014,19.7424006 47.1328014,19.8952006 46.8928014,20.0208006 C45.7728014,20.6128006 44.5656013,20.8512006 43.3208013,20.9440006 C41.2824012,21.0952006 39.2856012,20.9120006 37.4344011,19.9840006 C34.186401,18.3560005 32.438401,15.6856005 32.124801,12.0800004 C31.972801,10.3352003 32.096801,8.60480026 32.755201,6.96560021 C34.172801,3.4400001 36.8104011,1.44000004 40.5600012,0.930400028 C42.3304013,0.690400021 44.1008013,0.781600023 45.8248014,1.30800004 C47.1848014,1.72320005 47.1848014,1.73280005 47.1848014,3.12080009 L47.1808014,5.35120016 Z" id="Path"></path>
                            <path d="M9.56480029,14.2848004 C7.86080023,13.4760004 6.31440019,14.1472004 4.66560014,14.9128004 C5.89200018,13.4552004 7.16640021,12.2144004 8.71520026,11.1976003 L12.4624004,16.3176005 C10.5384003,17.3448005 9.44480028,19.0424006 8.54240025,20.9336006 L8.81280026,20.7736006 C9.62000029,20.3088006 10.4176003,19.8264006 11.2392003,19.3888006 C11.5389512,19.2448687 11.8602855,19.1510899 12.1904004,19.1112006 C12.5792004,19.0504006 12.7936004,19.2552006 12.8248004,19.6496006 C12.8680004,20.1960006 12.6064004,20.6312006 12.2784004,21.0248006 C11.9504004,21.4184006 11.6040003,21.7696006 11.2760003,22.1280007 C12.4288004,22.6880007 15.6576005,20.8848006 16.7552005,18.9968006 L19.2128006,20.1496006 C18.5976006,20.9120006 18.0640005,21.6616006 17.4400005,22.3200007 C15.5688005,24.3000007 13.2800004,25.6920008 10.7896003,26.7200008 C9.31680028,27.3296008 7.77760023,27.7760008 6.26720019,28.2936008 C6.15810467,28.3198526 6.04749502,28.3393562 5.93600018,28.3520008 C7.56400023,27.2264008 8.79520026,25.9328008 9.14800027,23.9712007 C6.5600002,26.5472008 3.56640011,27.3384008 0,26.1424008 C2.41600007,25.2192008 3.3248001,23.2800007 3.80800011,21.0520006 C4.46160013,18.0392005 6.38400019,16.0784005 9.00800027,14.6832004 C9.19440027,14.5840004 9.38800028,14.4960004 9.57760029,14.4024004 L9.56480029,14.2848004 Z" id="Path"></path>
                            <path d="M20.7648006,7.73520023 L13.3400004,16.7528005 C12.6552004,15.8192005 11.9864004,14.9128004 11.3192003,13.9976004 C10.2400003,12.5248004 9.17200027,11.0456003 8.08000024,9.58320029 C7.87920023,9.31520028 7.90160024,9.16320027 8.10880024,8.91440027 C10.4128003,6.13520018 12.7093337,3.3504001 14.9984004,0.560000017 C15.0736004,0.468800014 15.1584005,0.381600011 15.2784005,0.240000007 L20.7648006,7.73520023 Z" id="Path"></path>
                            <path d="M13.6800004,17.0496005 L21.0872006,8.05200024 L29.4912009,12.0000004 C29.3968009,12.1232004 29.3224009,12.2280004 29.2408009,12.3272004 C26.9384008,15.1224005 24.6368007,17.9200005 22.3360007,20.7200006 C22.1832007,20.9064006 22.0712007,21.0320006 21.7864006,20.8968006 C19.1768006,19.6584006 16.5592005,18.4376005 13.9464004,17.2096005 C13.8640004,17.1696005 13.7896004,17.1200005 13.6800004,17.0496005 Z" id="Path"></path>
                            <polygon id="Path" points="70.4000021 20.7200006 70.4000021 1.10640003 74.0152022 1.10640003 74.0152022 17.4880005 81.6952024 17.4880005 81.6952024 20.7200006"></polygon>
                            <path d="M29.4576009,11.3504003 C26.6576008,10.0360003 23.9568007,8.77200026 21.2616006,7.50080022 C21.1340294,7.43340292 21.0243382,7.33660044 20.9416006,7.21840022 C19.2152006,4.86640015 17.4930672,2.51200007 15.7752005,0.155200005 C15.7520005,0.124000004 15.7352005,0.0888000026 15.6824005,0 C15.8096005,0.0464000014 15.8888005,0.068000002 15.9616005,0.102400003 C18.6256006,1.35040004 21.288534,2.60053341 23.9504007,3.85280011 C24.1290774,3.93597354 24.2847753,4.06146554 24.4040007,4.21840013 C26.0466674,6.51440019 27.6832008,8.8149336 29.3136009,11.1200003 C29.3440009,11.1616003 29.3688009,11.2080003 29.4576009,11.3504003 Z" id="Path"></path>
                            <path d="M45.9352014,22.6632007 C46.6848014,22.5488007 46.6856014,22.5480007 46.9264014,23.1936007 C47.1760014,23.8664007 47.4248014,24.5400007 47.6936014,25.2664008 C47.742585,25.1892446 47.7866719,25.1090867 47.8256014,25.0264007 C48.0560014,24.4160007 48.2808014,23.8040007 48.5112014,23.1936007 C48.7512015,22.5592007 48.7512015,22.5600007 49.5048015,22.6600007 C49.6240015,23.8600007 49.7448015,25.0784007 49.8672015,26.3240008 L49.2000015,26.3240008 C49.1200015,25.4552008 49.0488015,24.5992007 48.9648015,23.6408007 C48.8848015,23.8008007 48.8376015,23.8664007 48.8096015,23.9424007 C48.5696014,24.5912007 48.3344014,25.2424008 48.0896014,25.8888008 C48.0192014,26.0728008 47.9992014,26.3728008 47.7000014,26.2800008 C47.5520014,26.2336008 47.4008014,26.0520008 47.3408014,25.8976008 C47.0720014,25.2056008 46.8344014,24.5016007 46.5032014,23.8016007 C46.4392014,24.6328007 46.3752014,25.4648008 46.3096014,26.3240008 L45.6472014,26.3240008 C45.7408014,25.1000007 45.8400014,23.8760007 45.9352014,22.6632007 Z" id="Path"></path>
                            <path d="M58.5000017,25.6048008 C58.8512018,25.6784008 59.1680018,25.7648008 59.4920018,25.8056008 C59.7624018,25.8376008 59.9984018,25.7336008 60.0728018,25.4352008 C60.1424018,25.1576007 59.9544018,25.0192007 59.7464018,24.9088007 C59.4880018,24.7720007 59.2184018,24.6552007 58.9656018,24.5088007 C58.5656017,24.2800007 58.3824017,23.9288007 58.4552017,23.4688007 C58.5256017,23.0248007 58.8152018,22.7544007 59.2368018,22.6624007 C59.5092322,22.6056901 59.7887518,22.5911206 60.0656018,22.6192007 C60.6256018,22.6720007 60.6768018,22.7616007 60.5752018,23.3288007 C60.3040018,23.2752007 60.0272018,23.1640007 59.7632018,23.1872007 C59.5632018,23.2056007 59.3784018,23.3960007 59.1864018,23.5072007 C59.2960018,23.6832007 59.3696018,23.9072007 59.5224018,24.0240007 C59.7376018,24.1936007 60.0192018,24.2752007 60.2576018,24.4184007 C60.6952018,24.6816007 60.8640018,25.0392007 60.7888018,25.4856008 C60.7136018,25.9320008 60.4032018,26.2608008 59.9088018,26.3392008 C59.6209397,26.3821285 59.328465,26.384283 59.0400018,26.3456008 C58.4512017,26.2736008 58.4152017,26.2040008 58.5000017,25.6048008 Z" id="Path"></path>
                            <path d="M61.4104018,24.9896007 C61.4040018,24.1264007 61.9456018,23.5272007 62.7496019,23.5080007 C63.5536019,23.4888007 64.1096019,24.0680007 64.1096019,24.9480007 C64.1096019,25.8280008 63.5728019,26.4056008 62.7584019,26.4032082 C61.9440018,26.4008008 61.4168018,25.8440008 61.4104018,24.9896007 Z M63.4616019,24.9984007 C63.4473353,24.8537324 63.42463,24.7100209 63.3936019,24.5680007 C63.3072019,24.2648007 63.1432019,24.0376007 62.7904019,24.0288007 C62.4376019,24.0200007 62.2048019,24.2152007 62.1632019,24.5264007 C62.1117978,24.861296 62.1355726,25.2034339 62.2328019,25.5280008 C62.2872019,25.6880008 62.5944019,25.8680008 62.7832019,25.8632008 C62.9720019,25.8584008 63.1912019,25.6640008 63.3256019,25.4960008 C63.4304019,25.3648008 63.4256019,25.1464007 63.4616019,24.9984007 Z" id="Shape"></path>
                            <path d="M76.1256023,24.9768007 C76.1176023,25.8568008 75.5784023,26.4216008 74.7552022,26.4032008 C73.9464022,26.3856008 73.4256022,25.8160008 73.4352022,24.9632007 C73.4448022,24.1104007 74.0000022,23.5072007 74.8000022,23.5079999 C75.6216023,23.5079999 76.1344023,24.0800007 76.1256023,24.9768007 Z M75.4992023,25.0168007 C75.4624022,24.8224007 75.4464022,24.6768007 75.4072022,24.5368007 C75.3272022,24.2432007 75.1528022,24.0400007 74.8224022,24.0288007 C74.4760022,24.0168007 74.2264022,24.2088007 74.1928022,24.5200007 C74.1560022,24.8720007 74.1584022,25.2720008 74.2920022,25.5888008 C74.4784022,26.0320008 75.0864022,26.0064008 75.3176022,25.5776008 C75.4160022,25.3976008 75.4480022,25.1808008 75.4992023,25.0168007 Z" id="Shape"></path>
                            <path d="M56.1280017,25.2072008 L54.4736016,25.2072008 C54.5384016,25.8208008 55.0088016,25.9784008 55.9976017,25.7520008 C56.0664017,26.2520008 56.0296017,26.3000008 55.5384017,26.3568008 C54.3704016,26.4912008 53.6696016,25.8528008 53.7784016,24.7496007 C53.8584016,23.8944007 54.4792016,23.4160007 55.3232016,23.5584007 C56.0120017,23.6744007 56.3584017,24.3584007 56.1280017,25.2072008 Z M55.6000017,24.7200007 C55.5608017,24.2160007 55.4040017,24.0256007 55.0664016,24.0240007 C54.7104016,24.0240007 54.4856016,24.2640007 54.4496016,24.7200007 L55.6000017,24.7200007 Z" id="Shape"></path>
                            <path d="M37.7096011,26.2272008 C37.5608011,26.2592008 37.3096011,26.3520008 37.0576011,26.3584008 C36.6072011,26.3688008 36.3144011,26.0896008 36.2696011,25.6744008 C36.2216011,25.2248008 36.4376011,24.9064007 36.8920011,24.7880007 C37.0482024,24.7551776 37.2069028,24.7356411 37.3664011,24.7296007 C37.5096011,24.7176007 37.6528011,24.7160007 37.7904011,24.7096007 C37.8744011,24.0136007 37.5840011,23.9056007 36.5104011,24.1944007 C36.4040011,23.6856007 36.4344011,23.6264007 36.9000011,23.5544007 C37.1093732,23.5157201 37.3226941,23.5028241 37.5352011,23.5160007 C38.1896011,23.5736007 38.4864011,23.8984007 38.4952011,24.5560007 C38.5040011,25.1016007 38.4952011,25.6488008 38.4952011,26.1952008 C38.4843938,26.2577726 38.4683371,26.3193234 38.4472011,26.3792008 L37.7096011,26.2272008 Z M37.8056011,25.1768008 C37.2344011,25.0968007 36.9200011,25.2280008 36.9256011,25.5392008 C36.9256011,25.8080008 37.1040011,25.9048008 37.3496011,25.9040057 C37.7112011,25.9040057 37.8504011,25.6920008 37.8056011,25.1768008 Z" id="Shape"></path>
                            <path d="M66.480002,23.5792007 L67.062402,23.5792007 C67.062402,24.1160007 67.062402,24.6312007 67.062402,25.1464007 C67.062402,25.6344008 67.213602,25.8480008 67.560002,25.8664008 C67.920802,25.8840008 68.184802,25.6048008 68.200002,25.1520007 C68.214402,24.6360007 68.200002,24.1200007 68.200002,23.5816007 L68.8096021,23.5816007 L68.8096021,26.3200008 L68.236802,26.3200008 C68.219202,26.2464008 68.194402,26.1424008 68.168002,26.0336008 C68.000002,26.1392008 67.857602,26.2736008 67.688002,26.3264008 C66.968002,26.5664008 66.436802,26.1840008 66.428002,25.4240008 C66.420802,24.8520007 66.428002,24.2792007 66.432802,23.7072007 C66.4427642,23.6626223 66.458638,23.6195748 66.480002,23.5792007 L66.480002,23.5792007 Z" id="Path"></path>
                            <path d="M76.9256023,23.5728007 L77.4952023,23.5728007 L77.5592023,23.8888007 C77.6000023,23.8728007 77.6392023,23.8696007 77.6616023,23.8472007 C77.9952023,23.4824007 78.4096023,23.4472007 78.8328023,23.6152007 C79.2328024,23.7752007 79.3128024,24.1464007 79.3128024,24.5440007 C79.3080024,25.1280007 79.3128024,25.7120008 79.3128024,26.3232008 L78.6808023,26.3232008 C78.6808023,25.8144008 78.6808023,25.3000008 78.6808023,24.7856007 C78.6808023,24.2712007 78.5080023,24.0424007 78.1568023,24.0440007 C77.8056023,24.0456007 77.5496023,24.3472007 77.5384023,24.7920007 C77.5264023,25.2952008 77.5384023,25.7984008 77.5384023,26.3264008 L76.9304023,26.3264008 L76.9256023,23.5728007 Z" id="Path"></path>
                            <polygon id="Path" points="33.604801 22.6304007 34.240001 22.6304007 34.240001 25.7504008 35.6800011 25.7504008 35.6800011 26.3200008 33.600001 26.3200008"></polygon>
                            <path d="M80.1552024,25.7376008 C80.4488024,25.7864008 80.7208024,25.8576008 80.9936024,25.8624008 C81.1032024,25.8624008 81.2616024,25.7392008 81.3080024,25.6328008 C81.3368024,25.5672008 81.2192024,25.3928008 81.1256024,25.3288008 C80.9528024,25.2096008 80.7424024,25.1440007 80.5584024,25.0376007 C80.2384024,24.8544007 80.0720024,24.5800007 80.1352024,24.2064007 C80.1984024,23.8328007 80.4640024,23.6360007 80.8160024,23.5664007 C80.999496,23.5340652 81.1865023,23.5265312 81.3720024,23.5440007 C81.8520024,23.5776007 81.8688024,23.6080007 81.8168024,24.1192007 C81.5848024,24.0920007 81.3512024,24.0344007 81.1224024,24.0496007 C80.9857499,24.0762746 80.8692666,24.1649675 80.8072024,24.2896007 C80.7784024,24.3560007 80.8944024,24.5296007 80.9880024,24.5944007 C81.1848024,24.7280007 81.4168024,24.8088007 81.6200024,24.9344007 C81.9056024,25.1096007 82.0472024,25.3656008 81.9848024,25.7112008 C81.9385212,26.0264558 81.6936238,26.2755589 81.3792024,26.3272008 C81.1437222,26.3710925 80.9032638,26.3818633 80.6648024,26.3592008 C80.1392024,26.3200008 80.1176024,26.2792008 80.1552024,25.7376008 Z" id="Path"></path>
                            <path d="M40.9840012,24.1184007 C40.7440012,24.0880007 40.5328012,24.0304007 40.3264012,24.0464007 C40.2040012,24.0560007 40.0264012,24.1608007 39.9944012,24.2608007 C39.9664012,24.3464007 40.0848012,24.5240007 40.1848012,24.5960007 C40.3656012,24.7264007 40.5848012,24.8000007 40.7808012,24.9160007 C41.0768104,25.0663856 41.2329841,25.3985018 41.1600012,25.7224008 C41.0984012,26.0912008 40.8464012,26.2728008 40.5136012,26.3360008 C40.2910759,26.3736104 40.0644788,26.3808766 39.8400012,26.3576008 C39.3288012,26.3160008 39.3032012,26.2776008 39.3424012,25.7336008 C39.6072012,25.7824008 39.8720012,25.8624008 40.1376012,25.8664008 C40.2616012,25.8664008 40.3872012,25.7232008 40.5120012,25.6448008 C40.4360012,25.5320008 40.3832012,25.3880008 40.2792012,25.3136008 C40.1192012,25.2000008 39.9200012,25.1440007 39.7480012,25.0448007 C39.4160012,24.8536007 39.2496012,24.5648007 39.3272012,24.1784007 C39.4024012,23.8032007 39.6752012,23.6240007 40.0272012,23.5632007 C40.2115626,23.5434094 40.3971339,23.5372594 40.5824012,23.5448007 C40.9808012,23.5352007 41.0992012,23.7320007 40.9840012,24.1184007 Z" id="Path"></path>
                            <path d="M69.8856021,24.0592007 L69.4856021,23.9992007 C69.4784021,23.8664007 69.4728021,23.7504007 69.4656021,23.6120007 L69.8600021,23.5136007 C69.8736021,23.3128007 69.8864021,23.1184007 69.9008021,22.8968007 L70.4856021,22.8968007 C70.5008021,23.0944007 70.5160021,23.2872007 70.5352021,23.5320007 L71.2016021,23.5776007 L71.2016021,24.0000007 L70.5192021,24.0504007 C70.5192021,24.5480007 70.4992021,25.0368007 70.5264021,25.5224008 C70.5440021,25.8256008 70.7440021,25.8968007 71.2088021,25.8248008 C71.3304021,26.2928008 71.2808021,26.3640008 70.8200021,26.3728008 C70.1800021,26.3856008 69.8952021,26.1088008 69.8832021,25.4584008 C69.8792021,25.0088007 69.8856021,24.5600007 69.8856021,24.0592007 Z" id="Path"></path>
                            <path d="M42.0176013,23.5128007 C42.0320013,23.3096007 42.0464013,23.1128007 42.0616013,22.8952007 L42.6464013,22.8952007 C42.6608013,23.0984007 42.6752013,23.2952007 42.6928013,23.5272007 L43.3464013,23.5792007 L43.3464013,24.0040007 L42.6776013,24.0512007 C42.6776013,24.5552007 42.6584013,25.0440007 42.6848013,25.5304008 C42.7008013,25.8216008 42.8824013,25.8856008 43.3712013,25.8384008 C43.4584013,26.3184008 43.4088013,26.3768008 42.9368013,26.375232 C42.3416013,26.375232 42.0568013,26.1008008 42.0424013,25.5000008 C42.0320013,25.0352007 42.0424013,24.5704007 42.0424013,24.0848007 L41.6424012,23.9824007 C41.6368012,23.8640007 41.6312012,23.7480007 41.6248012,23.6112007 L42.0176013,23.5128007 Z" id="Path"></path>
                            <polygon id="Path" points="65.500002 26.3336008 64.9264019 26.3336008 64.9264019 22.4648007 65.500002 22.4648007"></polygon>
                            <path d="M52.3528016,26.3200008 C52.3528016,25.1264007 52.3528016,23.9568007 52.3528016,22.7864007 C52.3528016,22.6832007 52.3664016,22.5792007 52.3752016,22.4576007 L52.9600016,22.4576007 L52.9600016,26.3200008 L52.3528016,26.3200008 Z" id="Path"></path>
                            <polygon id="Path" points="51.3600015 26.3288008 50.7752015 26.3288008 50.7752015 23.5824007 51.3600015 23.5824007"></polygon>
                            <polygon id="Path" points="72.0648021 23.5744007 72.6400022 23.5744007 72.6400022 26.3200008 72.0680021 26.3200008"></polygon>
                            <path d="M72.3200022,22.1352007 C72.5128022,22.3840007 72.7096022,22.5272007 72.7040022,22.6616007 C72.6984022,22.7960007 72.5200022,23.0104007 72.3768022,23.0520007 C72.1416021,23.1208007 71.9520021,22.9424007 71.9768021,22.6992007 C71.9936021,22.5416007 72.1504022,22.4000007 72.3200022,22.1352007 Z" id="Path"></path>
                            <path d="M51.0816015,23.2392007 C50.8984015,22.9872007 50.7320015,22.8560007 50.7064015,22.7024007 C50.6812952,22.5960768 50.7130354,22.4843343 50.7902853,22.4070844 C50.8675352,22.3298345 50.9792776,22.2980944 51.0856015,22.3232007 C51.2296015,22.3544007 51.4176015,22.5568007 51.4328015,22.6984007 C51.4480015,22.8400007 51.2584015,22.9840007 51.0816015,23.2392007 Z" id="Path"></path>
                        </g>
                    </g>
                </g>
            </g>
        </g>
    </g>
</svg>