<?xml version="1.0" encoding="UTF-8"?>
<svg width="100px" height="100px" viewBox="0 0 100 100" version="1.1" xmlns="http://www.w3.org/2000/svg" xmlns:xlink="http://www.w3.org/1999/xlink">
    <!-- Generator: Sketch 60 (88103) - https://sketch.com -->
    <title>eBay</title>
    <desc>Created with Sketch.</desc>
    <g id="Delivarables-Page" stroke="none" stroke-width="1" fill="none" fill-rule="evenodd">
        <g id="Extra-Large-Devices-1280px-" transform="translate(-300.000000, -1395.000000)">
            <g id="Group-24-Copy" transform="translate(20.000000, 1255.000000)">
                <g id="eBay" transform="translate(280.000000, 140.000000)">
                    <circle id="Oval-Copy-16" fill="#333333" cx="50" cy="50" r="50"></circle>
                    <g id="EBay_logo" transform="translate(13.000000, 36.000000)" fill-rule="nonzero">
                        <path d="M57.6510686,28.8578383 C57.8921947,28.3383972 58.177162,27.8442067 58.4475155,27.3428017 C59.2256954,25.8782665 60.011182,24.4137312 60.7966687,22.9491959 C60.8551235,22.8445862 60.8551235,22.7616199 60.7966687,22.653403 C58.597306,18.5808406 56.3979433,14.5082782 54.1985806,10.439323 C54.1730066,10.3960362 54.1693532,10.3311061 54.107245,10.3166772 C54.107245,10.3166772 54.1108984,10.3202844 54.1108984,10.3202844 C54.1218587,10.2806049 54.107245,10.2589615 54.0707107,10.2409254 C53.9282271,9.89823852 53.7382489,9.5808023 53.559231,9.25975885 C53.4605885,9.07939736 53.3911734,8.87739249 53.2340761,8.72949607 C53.2450363,8.65374425 53.2048486,8.59242134 53.1683144,8.52749121 C52.8979608,8.02608627 52.6276073,7.5210741 52.3572537,7.01966916 C52.4303222,6.97277517 52.4960839,6.99081132 52.5581922,6.99081132 C53.8551585,6.99081132 55.1521249,6.99441855 56.4490913,6.98720409 C56.6171489,6.98720409 56.7048311,7.03049085 56.7815531,7.18560173 C58.7836308,11.1571617 60.7893618,15.1251145 62.7950929,19.0930672 C62.8243204,19.1507829 62.8572012,19.2084986 62.8864286,19.2698215 C62.9594971,19.2445709 62.966804,19.1760335 62.992378,19.1291395 C65.0017625,15.1503651 67.011147,11.1679834 69.0132247,7.18920896 C69.0826398,7.04852699 69.1557083,6.99081132 69.3274193,6.99081132 C70.4892089,7.00163301 71.654652,6.99441855 72.8164416,6.99441855 L73.01738,6.99441855 C73.01738,7.08459929 72.9698855,7.14231497 72.9370046,7.20363788 C69.247044,14.3531673 65.5607367,21.5026967 61.8707761,28.6522262 C61.8342418,28.7207635 61.7794404,28.7820864 61.7830938,28.8650527 C60.4020987,28.8578383 59.0284103,28.8578383 57.6510686,28.8578383 L57.6510686,28.8578383 Z" id="Shape" fill="#86B717"></path>
                        <path d="M18.3767348,0.0912670007 C18.3767348,0.0638869005 18.3767348,0.0365068003 18.3767348,0 L22.1032297,0 L22.1032297,0.100393701 C20.8610647,0.0365068003 19.6188998,0.0638869005 18.3767348,0.0912670007 Z" id="Shape" fill="#FEFEFE"></path>
                        <path d="M18.3767348,0.0360722978 C19.6188998,0.0288578383 20.8610647,0.0180361489 22.1032297,0.0396795276 L22.1032297,9.05414675 C22.1836051,8.95314432 22.2420599,8.87378526 22.3078216,8.79803344 C23.0275466,7.94311998 23.9518635,7.38039213 24.99309,6.99441855 C26.4909948,6.43890516 28.043701,6.2982232 29.6256347,6.41004732 C31.0833518,6.51104976 32.4497333,6.90784503 33.680938,7.69422113 C35.4966909,8.85214189 36.6073325,10.5078604 37.1224656,12.5639813 C37.4183932,13.736331 37.4622343,14.9267168 37.3160972,16.1243171 C37.305137,16.2072834 37.3087904,16.2902497 37.305137,16.373216 L37.305137,16.3696088 C37.2649493,16.3876449 37.2759095,16.4237172 37.2759095,16.4561823 C37.1480396,16.8493703 37.056704,17.2497728 37.0092094,17.660997 C36.8265381,18.1768309 36.6438668,18.6890575 36.3808201,19.1724263 C35.2592182,21.2465834 33.5274941,22.5668295 31.2331423,23.1331646 C29.0447399,23.6742491 26.878258,23.5407816 24.7775378,22.6858681 C23.6961236,22.2457861 22.808341,21.585663 22.0776557,20.69107 C22.0666954,20.9363617 22.0557352,21.1600099 22.0447749,21.3800509 C22.0192009,21.8129185 21.9826666,22.2421788 21.9607461,22.6750464 C21.9534392,22.8265501 21.8986378,22.8698368 21.7415405,22.8662296 C20.6564729,22.8590151 19.5750586,22.8590151 18.489991,22.8662296 C18.3402005,22.8662296 18.2963594,22.8373718 18.3036663,22.6822609 C18.4242293,20.4529929 18.3694279,18.2237249 18.3803882,15.9944569 C18.3803882,15.9403484 18.3767348,15.88624 18.3730814,15.8321315 C18.3767348,15.4894447 18.3803882,15.1467579 18.3803882,14.804071 C18.3803882,14.3026661 18.3876951,13.7976539 18.3548142,13.296249 C18.4059622,13.2277116 18.3803882,13.1447453 18.3803882,13.0726007 C18.3767348,8.7331033 18.3767348,4.38278419 18.3767348,0.0360722978 L18.3767348,0.0360722978 Z M27.8171886,8.87739249 C27.6710515,8.87739249 27.5249145,8.87378526 27.3787774,8.87739249 C27.2691746,8.88099972 27.1595718,8.89542864 27.0499691,8.90625033 C25.2561367,9.11186243 23.8751415,9.95956143 22.9727452,11.5106702 C22.1068831,13.0004561 21.916905,14.6128878 22.2310996,16.2830352 C22.4612655,17.5239223 23.0019726,18.6205201 23.9372498,19.5006842 C24.8761803,20.3844555 26.0160494,20.8137158 27.3020555,20.9363617 C29.6439018,21.1564027 31.8505713,19.9479807 32.8698773,17.848573 C33.5421078,16.4633967 33.6772845,15.0060759 33.406931,13.5054683 C33.2059925,12.3800126 32.7456608,11.3735955 31.9455604,10.5367182 C30.827612,9.36436851 29.4210428,8.87739249 27.8171886,8.87739249 L27.8171886,8.87739249 Z" id="Shape" fill="#0164D1"></path>
                        <path d="M37.005556,17.6646042 C37.0530505,17.25338 37.1443862,16.8529775 37.2722561,16.4597895 C37.3014835,16.4381461 37.3014835,16.405681 37.3014835,16.373216 L37.3014835,16.3768232 C37.527996,15.9042761 37.7946961,15.4533724 38.170999,15.0782205 C38.8834172,14.3603818 39.7565861,13.9166925 40.7101304,13.6028635 C41.9084542,13.2060682 43.1433123,13.029314 44.400091,12.9535621 C46.2779522,12.8381308 48.1631202,12.9102754 50.0409814,12.888632 C50.2528801,12.8850248 50.5305405,12.9788128 50.654757,12.8489525 C50.7789735,12.7190922 50.6839844,12.44855 50.6912913,12.2393307 C50.6985981,11.8641788 50.6693707,11.4962413 50.5524611,11.1355183 C50.2309596,10.1507446 49.5221948,9.54473 48.5832643,9.16597088 C47.6991351,8.80885513 46.7748182,8.71145992 45.8285807,8.75113945 C45.094242,8.77999729 44.374517,8.88821418 43.7022866,9.20204317 C42.8729588,9.58801676 42.2811037,10.1796024 42.069205,11.0886244 C42.0472844,11.1751979 42.0107502,11.1896268 41.9376816,11.1896268 C40.7320509,11.1896268 39.5264202,11.1860196 38.3207895,11.1896268 C38.1636922,11.1896268 38.196573,11.1066605 38.2038799,11.0164798 C38.3463635,9.76837825 38.9784062,8.79442621 39.9538711,8.02608627 C40.8928017,7.28660416 41.9888296,6.88259442 43.1469658,6.64451726 C44.9444516,6.27297259 46.7602045,6.23329306 48.5759574,6.467763 C49.8035087,6.62648111 50.9762585,6.96556071 52.0284453,7.64732714 C52.4887771,7.94672721 52.8796937,8.31827188 53.2377295,8.72949607 C53.3948268,8.87739249 53.4642419,9.07939736 53.5628844,9.25975885 C53.7419023,9.58440953 53.9318805,9.90184575 54.0743641,10.2409254 C54.0341764,10.2914266 54.0634038,10.3094627 54.1145518,10.3202844 C54.1145518,10.3202844 54.1108984,10.3166772 54.1108984,10.3166772 C54.0962847,10.4934314 54.1839669,10.6485423 54.2241546,10.8144749 C54.3666382,11.4385256 54.4177862,12.0697909 54.4177862,12.7118778 C54.4141328,14.991647 54.4214396,17.267809 54.4141328,19.5475782 C54.4104794,20.611711 54.4397068,21.6758438 54.5456561,22.7327621 C54.5566164,22.8445862 54.5310424,22.8770513 54.4141328,22.8770513 C53.3655994,22.873444 52.3207195,22.873444 51.2721861,22.8770513 C51.1370093,22.8770513 51.1187422,22.8265501 51.1114353,22.7111187 C51.0675942,22.0113161 51.0347134,21.3079063 51.0383668,20.5612098 C50.9470311,20.6766411 50.8812695,20.7632146 50.8082009,20.8497881 C49.9459923,21.8742414 48.8280438,22.5199355 47.5676117,22.9419814 C46.0952809,23.4325647 44.5754555,23.5624249 43.0300561,23.4578153 C41.8098117,23.374849 40.6334084,23.107914 39.5666079,22.5018994 C37.8275769,21.5171257 36.979982,20.0237325 37.005556,18.0469706 C36.9982491,17.9171103 37.0019026,17.7908573 37.005556,17.6646042 L37.005556,17.6646042 Z M44.8823433,21.0770436 C45.196538,21.0662219 45.5107327,21.0662219 45.8249273,21.0301496 C46.7127099,20.9291472 47.5712651,20.7199279 48.349445,20.2690241 C49.6098771,19.5403637 50.3478692,18.4545876 50.6072625,17.0369463 C50.7095584,16.4886473 50.6657173,15.9403484 50.6876379,15.3920495 C50.6912913,15.2513675 50.6182228,15.2549662 50.5195802,15.2549662 C48.521156,15.2621892 46.5190783,15.2297241 44.5279609,15.4714085 C43.8265031,15.5543748 43.1360055,15.6842351 42.4783887,15.9475629 C41.1412347,16.4850401 40.6699427,17.3976692 40.8928017,18.6890575 C41.0425922,19.5656143 41.5832993,20.1968796 42.3870531,20.5972821 C43.1725398,20.9904701 44.0164813,21.0842581 44.8823433,21.0770436 L44.8823433,21.0770436 Z" id="Shape" fill="#F4AF03"></path>
                        <path d="M18.3475074,13.3070707 C18.3803882,13.8084756 18.3730814,14.3098805 18.3730814,14.8148927 C18.3730814,15.1575795 18.3694279,15.5002664 18.3657745,15.8429532 C13.5761325,15.8429532 8.78283706,15.8429532 3.99319505,15.839346 C3.83609772,15.839346 3.7922566,15.871811 3.7922566,16.0341364 C3.82513744,18.1984743 5.27554772,20.1139133 7.3908816,20.737964 C8.92166727,21.1888677 10.4451461,21.1636171 11.9247838,20.5395664 C12.9367829,20.110306 13.6857353,19.3960745 14.1168396,18.382443 C14.1533739,18.2994767 14.197215,18.2778333 14.2775904,18.2778333 C15.4649539,18.2814405 16.6523175,18.2814405 17.8396811,18.2778333 C17.9712045,18.2778333 17.9712045,18.3247273 17.9492839,18.429337 C17.7008509,19.6125083 17.0870753,20.5864604 16.1883324,21.3908726 C15.1324921,22.3323596 13.8647532,22.8445862 12.4947183,23.1259501 C10.8506764,23.4614225 9.19567425,23.468637 7.53701866,23.281061 C6.30216054,23.1403791 5.11114353,22.8518007 3.99319505,22.2962873 C2.09341333,21.3475859 0.909703173,19.8325493 0.36534264,17.8125007 C0.09133566,16.7952619 0.0073068528,15.7563797 0.0292274112,14.7066758 C0.0292274112,14.6417457 0.0292274112,14.5732083 0.0255739848,14.5082782 C0.0767219544,13.4549671 0.219205584,12.4196921 0.573587945,11.4168823 C1.35176777,9.21286486 2.88620686,7.77358018 5.08556955,6.99802578 C6.64923605,6.44611962 8.26770394,6.29461597 9.91539925,6.33790273 C11.1319902,6.3703678 12.3303141,6.53630037 13.4701831,6.96916794 C16.2723612,8.0296935 17.8616017,10.0533494 18.3073197,12.9679911 C18.3255868,13.0798152 18.3365471,13.1952465 18.3475074,13.3070707 Z M9.18836739,13.4188948 L10.0469226,13.4188948 C11.4754123,13.4188948 12.9075555,13.4152876 14.3360452,13.422502 C14.4748754,13.422502 14.5333302,13.3936442 14.5150631,13.2457478 C14.4931425,13.0798152 14.4931425,12.9102754 14.471222,12.7443428 C14.2629767,11.1968412 13.4701831,10.0244916 12.0416934,9.35354683 C10.1601788,8.46977553 8.24943681,8.53470566 6.40445648,9.46897818 C4.90289823,10.2264964 4.01876904,11.4421329 3.88724569,13.1375309 C3.86532513,13.4188948 3.85801828,13.4188948 4.14663896,13.4188948 L9.18836739,13.4188948 Z" id="Shape" fill="#E43238"></path>
                        <g id="Group" transform="translate(37.264949, 10.208460)" fill="#FEFEFE">
                            <path d="M16.8773122,0.129251539 C16.8004458,0.120124839 16.7531433,0.0973080888 16.8122714,0.0288578383 C16.8713994,0.0516745884 16.9009635,0.0836180387 16.8773122,0.129251539 Z" id="Shape"></path>
                            <path d="M0.0895137461,6.1647557 C0.0895137461,6.20240334 0.0895137461,6.2358679 0.00967122638,6.2651494 C0.00967122638,6.22750176 -0.0202697185,6.18567105 0.0895137461,6.1647557 Z" id="Shape"></path>
                        </g>
                    </g>
                </g>
            </g>
        </g>
    </g>
</svg>