<?xml version="1.0" encoding="UTF-8"?>
<svg width="152px" height="52px" viewBox="0 0 152 52" version="1.1" xmlns="http://www.w3.org/2000/svg" xmlns:xlink="http://www.w3.org/1999/xlink">
    <!-- Generator: Sketch 62 (91390) - https://sketch.com -->
    <title>MarioBaldescu</title>
    <desc>Created with Sketch.</desc>
    <g id="Homepage" stroke="none" stroke-width="1" fill="none" fill-rule="evenodd">
        <g id="Extra-Large-Devices-1440px" transform="translate(-1144.000000, -2935.000000)">
            <g id="MarioBaldescu" transform="translate(1145.000000, 2936.000000)">
                <rect id="Rectangle" stroke="#FFFFFF" x="0" y="0" width="150" height="50"></rect>
                <g id="Artboard-10" transform="translate(22.000000, 3.000000)" fill="#72757B" fill-rule="nonzero">
                    <path d="M17.3519995,4.39199988 L17.3519995,14.0399996 C17.3519995,14.3189996 17.2259995,14.3189996 16.6499996,14.3189996 L16.0199996,14.3189996 L16.0199996,15.1199996 L20.2769995,15.1199996 L20.2769995,14.3999996 L19.3769995,14.3999996 C18.7739995,14.3999996 18.6119995,14.3999996 18.4769995,13.6349996 C18.3382733,12.304775 18.2841644,10.967083 18.3149995,9.62999974 L18.3149995,3.53699991 L23.3099994,14.5439996 C23.3099994,14.6699996 23.4359994,14.9309996 23.5979994,14.9309996 C23.7599994,14.9309996 23.8139994,14.6429996 23.8769994,14.5439996 L28.7999992,3.12299992 L28.7999992,13.9229996 C28.7999992,14.1479996 28.7999992,14.2739996 28.4489992,14.2739996 L27.5039993,14.2739996 L27.5039993,15.1019996 L33.4169991,15.1019996 L33.4169991,14.3999996 L32.3999991,14.3999996 C31.6709992,14.3999996 31.4999992,14.3009996 31.4999992,11.2859997 L31.4999992,1.69199996 C31.4999992,1.46699996 31.4999992,1.31399997 31.8509992,1.31399997 L32.8679991,1.31399997 L32.8679991,0.575999985 L29.0339992,0.575999985 L24.5789993,10.9799997 L19.7099995,0.575999985 L15.3449996,0.575999985 L15.3449996,1.34099996 L15.9839996,1.34099996 C17.2619995,1.34099996 17.3519995,2.42099994 17.3519995,4.39199988 L17.3519995,4.39199988 Z" id="Path"></path>
                    <path d="M39.6899989,14.3999996 L38.384999,14.3999996 C38.006999,14.3999996 37.745999,14.3369996 37.745999,13.8869996 C38.0358212,12.5123105 38.4640021,11.1704758 39.023999,9.88199974 L43.8929988,9.88199974 L45.2609988,13.8239996 C45.4139988,14.2739996 45.3509988,14.3639996 44.9099988,14.3639996 L43.8929988,14.3639996 L43.8929988,15.1649996 L49.6439987,15.1649996 L49.6439987,14.3999996 L49.1039987,14.3999996 C48.3389987,14.3999996 48.1499987,14.1119996 47.4479987,12.2399997 C46.1789988,8.80199977 43.6319988,2.05199995 43.6319988,1.25999997 C43.6319988,0.809999979 44.0819988,0.74699998 44.0819988,0.494999987 C44.0819988,0.242999994 44.0189988,0.206999995 43.8569988,0.206999995 C43.5059988,0.206999995 42.4259989,0.494999987 42.0119989,0.557999985 C39.6899989,5.98499984 37.304999,11.4299997 36.350999,13.9409996 C36.2777774,14.2075299 36.0230403,14.382424 35.7479991,14.3549996 L35.0099991,14.3549996 L35.0099991,15.1199996 L39.6539989,15.1199996 L39.6539989,14.3999996 L39.6899989,14.3999996 Z M41.6609989,3.50099991 L43.5419988,8.90099976 L39.401999,8.90099976 C40.1039989,7.19999981 40.8059989,5.31899986 41.6609989,3.50099991 L41.6609989,3.50099991 Z" id="Shape"></path>
                    <path d="M52.8929986,4.49999988 L52.8929986,14.0399996 C52.8929986,14.2649996 52.8929986,14.3909996 52.5419986,14.3909996 L51.5249986,14.3909996 L51.5249986,15.1559996 L57.4469985,15.1559996 L57.4469985,14.3999996 L56.4209985,14.3999996 C55.6919985,14.3999996 55.5209985,14.3009996 55.5209985,11.2859997 L55.5209985,8.49599977 L56.9519985,8.49599977 C58.6169984,11.6999997 60.2999984,14.3999996 60.9749984,14.9309996 C61.322309,15.106158 61.7145168,15.1720489 62.0999984,15.1199996 L64.7099983,15.1199996 L64.7099983,14.3999996 C63.8099983,14.3999996 63.6569983,14.2109996 63.0539983,13.5449996 C61.6713777,11.805674 60.4084723,9.97446111 59.2739984,8.06399979 C61.1551694,7.96234717 62.6145548,6.38333994 62.5679983,4.49999988 C62.5679983,2.61899993 61.0109984,0.557999985 57.7619985,0.557999985 L51.0839986,0.557999985 L51.0839986,1.32299996 L52.1009986,1.32299996 C52.7669986,1.34099996 52.8929986,1.43999996 52.8929986,4.49999988 L52.8929986,4.49999988 Z M55.5929985,1.79999995 C55.5929985,1.57499996 55.6559985,1.51199996 55.8809985,1.51199996 L56.8979985,1.51199996 C58.650296,1.65099012 59.9742794,3.15841701 59.8859984,4.91399987 C59.8859984,6.98399981 58.2299985,7.77599979 56.4209985,7.77599979 L55.5929985,7.77599979 L55.5929985,1.79999995 Z" id="Shape"></path>
                    <path d="M68.6429982,4.49999988 L68.6429982,14.0399996 C68.6429982,14.2649996 68.6429982,14.3909996 68.2919982,14.3909996 L67.2749982,14.3909996 L67.2749982,15.1559996 L73.1969981,15.1559996 L73.1969981,14.3999996 L72.1709981,14.3999996 C71.4419981,14.3999996 71.2709981,14.3009996 71.2709981,11.2859997 L71.2709981,1.69199996 C71.2709981,1.46699996 71.2709981,1.31399997 71.6219981,1.31399997 L72.6389981,1.31399997 L72.6389981,0.575999985 L66.7619982,0.575999985 L66.7619982,1.34099996 L67.7879982,1.34099996 C68.4809982,1.34099996 68.6429982,1.43999996 68.6429982,4.49999988 Z" id="Path"></path>
                    <path d="M83.1869978,0.161999996 C78.5069979,0.161999996 75.356998,3.6989999 75.356998,8.26199978 C75.356998,12.8249997 78.2549979,15.5789996 82.7099978,15.5789996 C87.3809977,15.5789996 90.5309976,12.0509997 90.5309976,7.4789998 C90.5309976,2.90699992 87.6419977,0.161999996 83.1869978,0.161999996 Z M83.3759978,14.7059996 C81.2699978,14.7059996 77.9759979,12.9059997 77.9759979,6.97499982 C77.9759979,1.04399997 81.7649978,0.962999974 82.4759979,0.962999974 C84.5819978,0.962999974 87.8759977,2.76299993 87.8759977,8.69399977 C87.8759977,14.6249996 84.0779978,14.7059996 83.3759978,14.7059996 Z" id="Shape"></path>
                    <path d="M8.47799978,25.2719993 C9.93599974,24.8309993 11.5019997,23.9399994 11.5019997,22.2479994 C11.5019997,19.3859995 8.70299977,18.9089995 7.13699981,18.9089995 L0.39599999,18.9089995 L0.39599999,19.6739995 L1.41299996,19.6739995 C2.14199994,19.6739995 2.26799994,19.7639995 2.26799994,22.7879994 L2.26799994,32.3009991 C2.26799994,32.5259991 2.26799994,32.6519991 1.92599995,32.6519991 L0.899999976,32.6519991 L0.899999976,33.4169991 L6.29999983,33.4169991 C7.6319998,33.4169991 12.2489997,33.0929991 12.2489997,29.1779992 C12.2939997,26.9999993 10.4489997,25.6499993 8.47799978,25.2719993 L8.47799978,25.2719993 Z M4.94099987,20.0519995 C4.94099987,19.7639995 4.94099987,19.7639995 5.84099985,19.7639995 C8.22599978,19.7639995 9.05399976,21.2579994 9.05399976,22.6259994 C9.0892922,23.661732 8.48014572,24.6112838 7.5239998,25.0109993 C6.66075291,24.8779806 5.78687608,24.8267533 4.91399987,24.8579993 L4.94099987,20.0519995 Z M6.09299984,32.4899991 C4.94099987,32.4899991 4.94099987,32.3009991 4.94099987,28.7999992 L4.94099987,25.6139993 L5.39999986,25.6139993 C8.64899977,25.6139993 9.66599974,27.7469993 9.66599974,29.3399992 C9.65699974,31.1579992 8.56799977,32.4899991 6.09299984,32.4899991 Z" id="Shape"></path>
                    <path d="M23.5889994,32.6159991 L22.5719994,32.6159991 L22.5719994,33.3809991 L28.3319992,33.3809991 L28.3319992,32.6159991 L27.7559993,32.6159991 C26.9909993,32.6159991 26.8019993,32.3279991 26.0999993,30.4559992 C24.8309993,27.0179993 22.2839994,20.2769995 22.2839994,19.4759995 C22.2839994,19.0349995 22.7339994,18.9719995 22.7339994,18.7109995 C22.7339994,18.4499995 22.6709994,18.4229995 22.5089994,18.4229995 C22.1579994,18.4229995 21.0779994,18.7109995 20.7089995,18.7739995 C18.3689995,24.2999994 15.9839996,29.6999992 15.0299996,32.2019991 C14.9600816,32.470864 14.7030327,32.6473453 14.4269996,32.6159991 L13.6979996,32.6159991 L13.6979996,33.3809991 L18.3419995,33.3809991 L18.3419995,32.6159991 L17.0369995,32.6159991 C16.6499996,32.6159991 16.3979996,32.5529991 16.3979996,32.1119991 C16.6832928,30.7332076 17.1116098,29.3879305 17.6759995,28.0979993 L22.4999994,28.0979993 L23.8679994,32.0489992 C24.1019994,32.5259991 24.0029994,32.6159991 23.5889994,32.6159991 L23.5889994,32.6159991 Z M18.0539995,27.2159993 C18.7559995,25.4159993 19.4849995,23.6159994 20.3129995,21.7709994 L22.1939994,27.2159993 L18.0539995,27.2159993 Z" id="Shape"></path>
                    <path d="M31.5719992,32.6159991 L30.5999992,32.6159991 L30.5999992,33.3809991 L36.899999,33.3809991 C43.0379989,33.3809991 44.7839988,28.8359992 44.7839988,25.7759993 C44.7839988,22.1759994 42.3089989,18.8369995 37.115999,18.8369995 L30.0149992,18.8369995 L30.0149992,19.6019995 L31.0319992,19.6019995 C31.7699992,19.6019995 31.9319992,19.7009995 31.9319992,22.7249994 L31.9319992,32.2649991 C31.9229992,32.4899991 31.8959992,32.6159991 31.5719992,32.6159991 L31.5719992,32.6159991 Z M34.5689991,20.0789995 C34.5689991,19.7639995 34.6949991,19.7639995 35.7479991,19.7639995 C38.987999,19.7639995 41.8229989,22.1489994 41.8229989,26.7659993 C41.8229989,30.4559992 39.122999,32.5529991 35.4239991,32.4899991 C34.6589991,32.4899991 34.5239991,32.4269991 34.5239991,27.5579993 L34.5689991,20.0789995 Z" id="Shape"></path>
                    <path d="M48.3119987,32.6159991 L47.2949987,32.6159991 L47.2949987,33.3809991 L58.0949985,33.3809991 C58.3439516,32.6752548 58.5454016,31.9536429 58.6979984,31.2209992 C58.7055414,31.1487733 58.6826525,31.0766703 58.6348328,31.0220191 C58.587013,30.967368 58.5185864,30.9351105 58.4459985,30.9329992 C58.2479985,30.9329992 58.1849985,31.0589992 58.0949985,31.2209992 C57.3929985,32.4899991 54.2789986,32.4899991 53.0369986,32.4899991 L52.1999986,32.4899991 C51.4349986,32.4899991 51.3449986,32.4269991 51.3449986,27.5579993 L51.3449986,25.9019993 L53.4779986,25.9019993 C55.8899985,25.9019993 55.9889985,26.1629993 55.9889985,26.5409993 L55.9889985,27.3689993 L56.6999985,27.3689993 L56.6999985,23.3279994 L55.9799985,23.3279994 L55.9799985,24.1199994 C55.9799985,24.7949993 55.8809985,25.0199993 53.4689986,25.0199993 L51.2999988,25.0199993 L51.2999988,20.0519995 C51.2999988,19.8269995 51.3629986,19.7639995 51.5879986,19.7639995 L53.2439986,19.7639995 C55.8539985,19.7639995 57.0599985,20.3039995 57.0959985,20.6639995 C57.1319985,21.0239994 57.1589985,21.1769994 57.4469985,21.1769994 C57.7349985,21.1769994 57.6989985,21.0149994 57.9509985,18.8549995 L46.7999988,18.8549995 L46.7999988,19.6199995 L47.8169987,19.6199995 C48.5459987,19.6199995 48.7169987,19.7099995 48.7169987,22.7339994 L48.7169987,32.3009991 C48.6629987,32.4899991 48.5999987,32.6159991 48.3119987,32.6159991 Z" id="Path"></path>
                    <path d="M66.0689982,32.8679991 C64.8899983,32.8679991 62.9459983,32.3279991 62.5319983,31.0679992 C62.4689983,30.8429992 62.4059983,30.6179992 62.1539984,30.6179992 C61.9019984,30.6179992 61.8029984,30.8789992 61.8029984,31.0049992 C61.8029984,31.2929992 61.9649984,31.9049992 62.1809984,33.1649991 C63.3811849,33.6140137 64.6525715,33.8426803 65.9339983,33.8400224 C71.0639981,33.8400224 71.7299981,30.0149992 71.7299981,29.2499992 C71.7299981,23.7149994 64.2869983,25.4339993 64.2869983,21.8429994 C64.2869983,20.1869995 65.8709983,19.3949995 67.3379982,19.3949995 C68.1659982,19.3949995 69.7229982,19.7099995 69.9479981,20.6909995 C69.9479981,20.8889994 70.0469981,21.0779994 70.2629981,21.0779994 C70.4789981,21.0779994 70.5869981,21.0779994 70.5869981,20.7629994 C70.5869981,20.4479995 70.4879981,19.4849995 70.4519981,18.8819995 C69.5550772,18.5593341 68.6058578,18.4067265 67.6529982,18.4319995 C65.1149983,18.4319995 62.2529984,19.8719995 62.2529984,22.6349994 C62.2529984,27.8819993 69.6959982,26.0999993 69.6959982,29.9879992 C69.6329982,31.9499992 67.8509982,32.8679991 66.0689982,32.8679991 L66.0689982,32.8679991 Z" id="Path"></path>
                    <path d="M83.5019978,19.3499995 C84.8969978,19.3499995 86.5529977,20.0519995 86.7149977,20.6819995 C86.8409977,21.1319994 86.8409977,21.2579994 87.0659977,21.2579994 C87.2909977,21.2579994 87.4169977,21.2579994 87.5699977,19.1879995 C86.336845,18.6872384 85.0217534,18.4187278 83.6909978,18.3959995 C78.8849979,18.3959995 74.591998,21.6089994 74.591998,26.6399993 C74.591998,31.4099992 77.8049979,33.7591044 82.3589978,33.7591044 C84.2226869,33.766555 86.0655697,33.3672637 87.7589977,32.5889991 C87.8849977,31.0589992 87.9479977,30.5819992 87.9479977,30.3929992 C87.9457198,30.319735 87.9137524,30.2505454 87.8594383,30.2013233 C87.8051242,30.1521012 87.7331319,30.1270772 87.6599977,30.1319992 C87.3719977,30.1319992 87.3719977,30.3299992 87.3089977,30.5459992 C87.0209977,32.1119991 84.3209978,32.8049991 83.0429978,32.8049991 C79.3889979,32.8049991 77.4179979,29.5919992 77.4179979,26.1899993 C77.3999979,22.4999994 79.6859979,19.3499995 83.5019978,19.3499995 Z" id="Path"></path>
                    <path d="M101.600997,18.8999995 L101.600997,19.6649995 L102.500997,19.6649995 C103.103997,19.6649995 103.265997,19.6649995 103.400997,20.4299995 C103.539723,21.7602241 103.593832,23.0979161 103.562997,24.4349994 L103.562997,28.0349993 C103.562997,32.6159991 100.187997,32.8679991 99.1709974,32.8679991 C95.4449975,32.8679991 95.3189975,29.5919992 95.3189975,27.7829993 L95.3189975,19.9889995 C95.3189975,19.7639995 95.3189975,19.6019995 95.6699975,19.6019995 L96.6869974,19.6019995 L96.6869974,18.8369995 L90.7379976,18.8369995 L90.7379976,19.6019995 L91.7999976,19.6019995 C92.5289975,19.6019995 92.6999975,19.7009995 92.6999975,22.7249994 L92.6999975,28.7999992 C92.6999975,31.2839992 93.9329975,33.7949991 98.5859974,33.7949991 C101.474997,33.7949991 104.534997,32.2019991 104.534997,28.0079993 L104.534997,19.9079995 C104.534997,19.6199995 104.660997,19.6199995 105.227997,19.6199995 L105.866997,19.6199995 L105.866997,18.8999995 L101.600997,18.8999995 Z" id="Path"></path>
                    <path d="M17.2619995,38.537999 C17.2619995,37.637999 18.0809995,37.259999 18.8459995,37.259999 C19.2959995,37.259999 20.1239995,37.421999 20.2139995,37.934999 C20.2139995,38.024999 20.2769995,38.123999 20.3759995,38.123999 C20.4749995,38.123999 20.5379995,38.123999 20.5379995,37.961999 C20.5379995,37.799999 20.4749995,37.295999 20.4749995,36.980999 C20.0056132,36.8100251 19.5070505,36.7335584 19.0079995,36.755999 C17.6759995,36.755999 16.1459996,37.484999 16.1459996,38.951999 C16.1459996,41.6519989 20.0609995,40.7519989 20.0609995,42.7949989 C20.0609995,43.8209988 19.1069995,44.2979988 18.1799995,44.2979988 C17.5769995,44.2979988 16.5599996,44.0099988 16.3349996,43.3439989 C16.3349996,43.2089989 16.2719996,43.0829989 16.1459996,43.0829989 C16.0199996,43.0829989 15.9569996,43.2089989 15.9569996,43.2809989 C15.9569996,43.3529989 16.0469996,43.7219988 16.1459996,44.3879988 C16.7784539,44.6155022 17.4448887,44.7341824 18.1169995,44.7389988 C20.8169994,44.7389988 21.1409994,42.7319989 21.1409994,42.3539989 C21.1679994,39.518999 17.2619995,40.4099989 17.2619995,38.537999 L17.2619995,38.537999 Z" id="Path"></path>
                    <path d="M28.1429993,40.1939989 C28.9979992,39.392999 29.8259992,38.600999 30.5909992,37.799999 C30.9689992,37.385999 31.0319992,37.385999 31.4909992,37.385999 L31.4909992,37.007999 L28.9349992,37.007999 L28.9349992,37.385999 L29.6999992,37.385999 C29.8259992,37.385999 29.9249992,37.385999 29.9249992,37.520999 C29.7688913,37.780819 29.5880516,38.0249527 29.3849992,38.249999 C28.4849992,39.203999 27.5849993,40.1309989 26.6129993,41.0849989 L26.6129993,37.610999 C26.6129993,37.484999 26.6129993,37.421999 26.8109993,37.421999 L27.3509993,37.421999 L27.3509993,37.043999 L24.1919994,37.043999 L24.1919994,37.421999 L24.7319993,37.421999 C25.1189993,37.421999 25.1819993,37.484999 25.1819993,39.041999 L25.1819993,44.0369988 C25.1819993,44.1629988 25.1819993,44.2349988 24.9929993,44.2349988 L24.4529994,44.2349988 L24.4529994,44.6129988 L27.5669993,44.6129988 L27.5669993,44.2349988 L26.9999993,44.2349988 C26.6129993,44.2349988 26.5499993,44.1629988 26.5499993,42.6059989 L26.5499993,41.7059989 L27.2249993,41.1389989 L29.3219992,43.9379988 C29.8349992,44.6039988 29.8979992,44.6399988 30.3749992,44.6399988 L31.9589992,44.6399988 L31.9589992,44.2529988 C31.4549992,44.2529988 31.3289992,44.1899988 31.1039992,43.9649988 C30.7799992,43.5959988 29.2499992,41.5889989 28.1429993,40.1939989 Z" id="Path"></path>
                    <path d="M35.5859991,44.1989988 L35.0459991,44.1989988 L35.0459991,44.5769988 L38.159999,44.5769988 L38.159999,44.1989988 L37.619999,44.1989988 C37.241999,44.1989988 37.178999,44.1359988 37.178999,42.5789989 L37.178999,37.583999 C37.178999,37.457999 37.178999,37.385999 37.367999,37.385999 L37.907999,37.385999 L37.907999,37.007999 L34.7579991,37.007999 L34.7579991,37.385999 L35.2979991,37.385999 C35.6759991,37.385999 35.7479991,37.457999 35.7479991,39.014999 L35.7479991,44.0099988 C35.7479991,44.0999988 35.7479991,44.1989988 35.5859991,44.1989988 L35.5859991,44.1989988 Z" id="Path"></path>
                    <path d="M48.7889987,44.5499988 L48.7889987,37.520999 C48.7889987,37.358999 48.8519987,37.358999 49.1669987,37.358999 L49.4999987,37.358999 L49.4999987,36.980999 L47.2949987,36.980999 L47.2949987,37.358999 L47.7719987,37.358999 C48.0869987,37.358999 48.1859987,37.358999 48.2489987,37.736999 C48.3260482,38.4361974 48.3561156,39.1397763 48.3389987,39.8429989 L48.3389987,42.3899989 L43.5689988,36.944999 L41.3999989,36.944999 L41.3999989,37.322999 L41.7509989,37.322999 C42.2279989,37.322999 42.4889989,37.871999 42.4889989,38.537999 L42.4889989,43.9379988 C42.4889989,44.0999988 42.4169989,44.0999988 42.1019989,44.0999988 L41.7509989,44.0999988 L41.7509989,44.4779988 L43.9829988,44.4779988 L43.9829988,44.0999988 L43.5059988,44.0999988 C43.1819989,44.0999988 43.0919989,44.0999988 43.0289989,43.7219988 C42.9445837,43.0233609 42.9114951,42.3194749 42.9299989,41.6159989 L42.9299989,38.348999 L48.2399987,44.3609988 C48.4379987,44.5769988 48.5009987,44.6759988 48.5909987,44.6759988 C48.6809987,44.6759988 48.7889987,44.6489988 48.7889987,44.5499988 L48.7889987,44.5499988 Z" id="Path"></path>
                    <path d="M61.8929984,44.1989988 C61.9649984,43.4069989 61.9919984,43.1459989 61.9919984,43.0559989 C61.9875122,43.0176794 61.9678367,42.9827628 61.9373826,42.9590763 C61.9069285,42.9353897 61.8682431,42.9249145 61.8299984,42.9299989 C61.6769984,42.9299989 61.6769984,43.0199989 61.6409984,43.1459989 C61.4879984,43.9739988 60.0839984,44.3249988 59.4179984,44.3249988 C57.5099985,44.3249988 56.4569985,42.6419989 56.4569985,40.8599989 C56.4569985,38.888999 57.6629985,37.259999 59.6699984,37.259999 C60.3989984,37.259999 61.2629984,37.610999 61.3529984,37.961999 C61.4429984,38.312999 61.4159984,38.249999 61.5509984,38.249999 C61.6859984,38.249999 61.7399984,38.249999 61.8029984,37.169999 C61.1581504,36.9017632 60.4673913,36.7611663 59.7689984,36.755999 C57.2489985,36.755999 54.9899985,38.438999 54.9899985,41.0849989 C54.9899985,43.7309988 56.6819985,44.8379988 59.0669984,44.8379988 C60.0415872,44.8107828 61.0015102,44.5937301 61.8929984,44.1989988 L61.8929984,44.1989988 Z" id="Path"></path>
                    <path d="M65.8439983,43.9469988 C65.996323,43.2248373 66.2193996,42.5194328 66.5099982,41.8409989 L69.0569982,41.8409989 L69.7859982,43.9109988 C69.8849981,44.1629988 69.8489981,44.1989988 69.5969982,44.1989988 L69.0569982,44.1989988 L69.0569982,44.5769988 L72.0809981,44.5769988 L72.0809981,44.1989988 L71.7929981,44.1989988 C71.3789981,44.1989988 71.2799981,44.0369988 70.8929981,43.0829989 C70.2179981,41.2829989 68.8859982,37.736999 68.8859982,37.322999 C68.8859982,37.070999 69.1379982,37.070999 69.1379982,36.908999 C69.1379982,36.746999 69.1379982,36.755999 69.0119982,36.755999 C68.6908035,36.8016368 68.372332,36.8647302 68.0579982,36.944999 C66.8519982,39.8069989 65.5739983,42.6689989 65.0969983,43.9739988 C65.0695672,44.1214902 64.9304137,44.2208855 64.7819983,44.1989988 L64.4399983,44.1989988 L64.4399983,44.5769988 L66.8609982,44.5769988 L66.8609982,44.1989988 L66.1949982,44.1989988 C65.9699983,44.1989988 65.8439983,44.1629988 65.8439983,43.9469988 L65.8439983,43.9469988 Z M67.8779982,38.546999 L68.8679982,41.3999989 L66.6989982,41.3999989 C67.0859982,40.4099989 67.4369982,39.455999 67.8779982,38.501999 L67.8779982,38.546999 Z" id="Shape"></path>
                    <path d="M75.482998,39.014999 L75.482998,44.0099988 C75.482998,44.1359988 75.482998,44.1989988 75.293998,44.1989988 L74.753998,44.1989988 L74.753998,44.5769988 L77.8679979,44.5769988 L77.8679979,44.1989988 L77.327998,44.1989988 C76.949998,44.1989988 76.886998,44.1359988 76.886998,42.5789989 L76.886998,41.1479989 L77.6159979,41.1479989 C78.1771805,42.3501983 78.881261,43.4803533 79.7129979,44.5139988 C79.899958,44.6053625 80.1096396,44.6397879 80.3159979,44.6129988 L81.6839978,44.6129988 L81.6839978,44.2349988 C81.2069978,44.2349988 81.1439979,44.1359988 80.7839979,43.7849988 C80.0545571,42.876894 79.3870493,41.9207342 78.7859979,40.9229989 C79.7383676,40.8580405 80.4839281,40.0773489 80.5049979,39.122999 C80.5049979,38.132999 79.6769979,37.052999 77.9849979,37.052999 L74.492998,37.052999 L74.492998,37.430999 L75.041998,37.430999 C75.383998,37.358999 75.482998,37.421999 75.482998,39.014999 L75.482998,39.014999 Z M76.850998,37.610999 C76.850998,37.484999 76.850998,37.457999 77.012998,37.457999 L77.5529979,37.457999 C78.4752215,37.5345804 79.1670312,38.3343604 79.1099979,39.257999 C79.1099979,40.3379989 78.2099979,40.7519989 77.309998,40.7519989 L76.859998,40.7519989 L76.850998,37.610999 Z" id="Shape"></path>
                    <path d="M90.1799976,43.3079989 C90.0899976,43.3079989 90.0539976,43.3709989 89.9909976,43.4699988 C89.6129976,44.1359988 87.9839977,44.1359988 87.3539977,44.1359988 L86.9399977,44.1359988 C86.5259977,44.1359988 86.4899977,44.1359988 86.4899977,41.5619989 L86.4899977,40.6619989 L87.6059977,40.6619989 C88.8749976,40.6619989 88.9109976,40.7879989 88.9109976,41.0129989 L88.9109976,41.4539989 L89.2619976,41.4539989 L89.2619976,39.293999 L88.9109976,39.293999 L88.9109976,39.7079989 C88.9109976,40.0499989 88.8479976,40.1849989 87.6059977,40.1849989 L86.4899977,40.1849989 L86.4899977,37.547999 C86.4899977,37.421999 86.4899977,37.385999 86.6519977,37.385999 L87.5519977,37.385999 C88.9199976,37.385999 89.5589976,37.673999 89.5589976,37.871999 C89.5589976,38.069999 89.5589976,38.123999 89.7479976,38.123999 C89.9369976,38.123999 89.8739976,38.024999 90.0089976,36.908999 L84.1229978,36.908999 L84.1229978,37.295999 L84.6629978,37.295999 C85.0409977,37.295999 85.1039977,37.358999 85.1039977,38.915999 L85.1039977,43.9109988 C85.1039977,44.0369988 85.1039977,44.0999988 84.9149978,44.0999988 L84.3749978,44.0999988 L84.3749978,44.4869988 L89.9999976,44.4869988 C90.1346516,44.1147988 90.2399731,43.7326322 90.3149976,43.3439989 C90.3149976,43.3439989 90.2789976,43.3079989 90.1799976,43.3079989 L90.1799976,43.3079989 Z" id="Path"></path>
                </g>
            </g>
        </g>
    </g>
</svg>