<svg xmlns="http://www.w3.org/2000/svg" viewBox="0 0 450 450" width="450" height="450" preserveAspectRatio="xMidYMid meet" style="width: 100%; height: 100%; transform: translate3d(0px, 0px, 0px);"><defs><clipPath id="__lottie_element_23"><rect width="450" height="450" x="0" y="0"></rect></clipPath></defs><g clip-path="url(#__lottie_element_23)"><g transform="matrix(2.5,0,0,2.5,-102.5,-27.5)" opacity="1" style="display: block;"><g opacity="1" transform="matrix(0.8999999761581421,0,0,0.8999999761581421,130,102)"><path fill="rgb(216,223,227)" fill-opacity="1" d=" M0,-65 C35.89799880981445,-65 65,-35.89799880981445 65,0 C65,35.89799880981445 35.89799880981445,65 0,65 C-35.89799880981445,65 -65,35.89799880981445 -65,0 C-65,-35.89799880981445 -35.89799880981445,-65 0,-65z"></path></g><g opacity="1" transform="matrix(0.8999999761581421,0,0,0.8999999761581421,130,102)"><path fill="rgb(236,240,242)" fill-opacity="1" d=" M0,-54 C29.822999954223633,-54 54,-29.822999954223633 54,0 C54,29.822999954223633 29.822999954223633,54 0,54 C-29.822999954223633,54 -54,29.822999954223633 -54,0 C-54,-29.822999954223633 -29.822999954223633,-54 0,-54z"></path></g><g opacity="1" transform="matrix(0.8999999761581421,0,0,0.8999999761581421,130,102)"><path fill="rgb(245,247,248)" fill-opacity="1" d=" M0,-45 C24.85300064086914,-45 45,-24.85300064086914 45,0 C45,24.85300064086914 24.85300064086914,45 0,45 C-24.85300064086914,45 -45,24.85300064086914 -45,0 C-45,-24.85300064086914 -24.85300064086914,-45 0,-45z"></path></g><g opacity="1" transform="matrix(1,0,0,1,130.14999389648438,101.5999984741211)"><path fill="rgb(28,32,43)" fill-opacity="1" d=" M31.850000381469727,-10.800000190734863 C31.049999237060547,-12.899999618530273 29.75,-14.699999809265137 28.049999237060547,-16.100000381469727 C26.25,-17.5 24.14900016784668,-18.5 21.850000381469727,-18.799999237060547 C20.549999237060547,-19 19.25,-19 17.948999404907227,-18.700000762939453 C16.64900016784668,-18.5 15.25,-18 14.050000190734863,-17.399999618530273 C13.449000358581543,-17.100000381469727 12.85099983215332,-16.799999237060547 12.25100040435791,-16.600000381469727 C10.35099983215332,-15.399999618530273 8.25,-14.800000190734863 6.050000190734863,-14.699999809265137 C4.948999881744385,-14.699999809265137 3.75,-14.800000190734863 2.6489999294281006,-15.100000381469727 C2.049999952316284,-15.199999809265137 1.4509999752044678,-15.399999618530273 0.9509999752044678,-15.600000381469727 C0.45100000500679016,-15.800000190734863 -0.14900000393390656,-15.899999618530273 -0.7490000128746033,-16 C-2.0490000247955322,-16.100000381469727 -3.3510000705718994,-16 -4.650000095367432,-15.800000190734863 C-4.650000095367432,-15.800000190734863 -7.749000072479248,-15.399999618530273 -7.749000072479248,-15.399999618530273 C-7.749000072479248,-15.399999618530273 -7.85099983215332,-15.399999618530273 -7.85099983215332,-15.399999618530273 C-8.649999618530273,-16.299999237060547 -9.649999618530273,-17.100000381469727 -10.649999618530273,-17.799999237060547 C-10.949999809265137,-18 -11.24899959564209,-18.200000762939453 -11.548999786376953,-18.200000762939453 C-12.548999786376953,-18.200000762939453 -12.75,-17 -12.85099983215332,-16.200000762939453 C-12.949999809265137,-15.199999809265137 -12.85099983215332,-14.199999809265137 -12.649999618530273,-13.300000190734863 C-12.550000190734863,-12.899999618530273 -12.449000358581543,-12.600000381469727 -12.24899959564209,-12.199999809265137 C-12.14900016784668,-11.699999809265137 -12.050000190734863,-11.300000190734863 -11.85099983215332,-10.800000190734863 C-12.149999618530273,-10.399999618530273 -12.449999809265137,-9.899999618530273 -12.649999618530273,-9.300000190734863 C-12.75,-9.100000381469727 -12.75,-9 -12.85099983215332,-8.800000190734863 C-13.149999618530273,-8.300000190734863 -13.550000190734863,-7.900000095367432 -13.85099983215332,-7.400000095367432 C-15.050000190734863,-5.900000095367432 -16.35099983215332,-4.5 -17.649999618530273,-3.0999999046325684 C-18.25,-2.4000000953674316 -23.548999786376953,-0.6000000238418579 -26.548999786376953,0.4000000059604645 C-26.350000381469727,-10.100000381469727 -20.249000549316406,-19.600000381469727 -11.048999786376953,-23.700000762939453 C-1.850000023841858,-27.799999237060547 8.850000381469727,-26 16.350000381469727,-19 C16.850000381469727,-19.200000762939453 17.448999404907227,-19.299999237060547 17.948999404907227,-19.399999618530273 C18.75,-19.5 19.450000762939453,-19.600000381469727 20.250999450683594,-19.600000381469727 C20.250999450683594,-19.600000381469727 20.64900016784668,-19.600000381469727 20.64900016784668,-19.600000381469727 C11.449000358581543,-30.200000762939453 -3.549999952316284,-32.599998474121094 -15.449999809265137,-25.5 C-27.35099983215332,-18.399999618530273 -32.94900131225586,-3.5999999046325684 -28.749000549316406,10.100000381469727 C-24.548999786376953,23.799999237060547 -12.050000190734863,32.599998474121094 1.5499999523162842,31.299999237060547 C15.14900016784668,30 26.14900016784668,19 27.850000381469727,4.800000190734863 C27.64900016784668,4.900000095367432 27.549999237060547,5 27.350000381469727,5.099999904632568 C26.64900016784668,5.5 25.850000381469727,5.900000095367432 25.14900016784668,6.199999809265137 C24.850000381469727,6.300000190734863 24.64900016784668,6.400000095367432 24.448999404907227,6.5 C24.448999404907227,6.5 24.14900016784668,6.599999904632568 24.14900016784668,6.599999904632568 C21.64900016784668,18.5 11.75,27.200000762939453 0.05000000074505806,27.700000762939453 C2.6489999294281006,23.700000762939453 7.750999927520752,15.899999618530273 9.25100040435791,14.800000190734863 C11.35099983215332,13.300000190734863 13.350000381469727,11.899999618530273 15.550000190734863,10.5 C17.448999404907227,9.199999809265137 19.448999404907227,8 21.549999237060547,7 C22.448999404907227,6.5 23.35099983215332,6.099999904632568 24.250999450683594,5.699999809265137 C25.250999450683594,5.300000190734863 26.14900016784668,4.900000095367432 27.14900016784668,4.400000095367432 C28.850000381469727,3.4000000953674316 30.250999450683594,2 31.250999450683594,0.4000000059604645 C32.250999450683594,-1.2000000476837158 32.849998474121094,-3 32.94900131225586,-5 C32.94900131225586,-7 32.64899826049805,-9 31.850000381469727,-10.800000190734863z M3.250999927520752,-7 C2.3510000705718994,-6.300000190734863 1.149999976158142,-6.300000190734863 0.25099998712539673,-6.900000095367432 C-0.6489999890327454,-7.5 -1.149999976158142,-8.600000381469727 -0.949999988079071,-9.600000381469727 C-0.949999988079071,-9.699999809265137 -0.8510000109672546,-9.800000190734863 -0.8510000109672546,-9.899999618530273 C-0.949999988079071,-9.600000381469727 -1.0499999523162842,-9.300000190734863 -0.8510000109672546,-10 C-0.6499999761581421,-10.600000381469727 -0.75,-10.399999618530273 -0.8510000109672546,-10 C-0.44999998807907104,-11 0.550000011920929,-11.699999809265137 1.5499999523162842,-11.600000381469727 C2.6489999294281006,-11.600000381469727 3.6489999294281006,-10.899999618530273 4.050000190734863,-9.800000190734863 C4.448999881744385,-8.800000190734863 4.150000095367432,-7.699999809265137 3.250999927520752,-7z"></path></g><g opacity="1" transform="matrix(1,0,0,1,98.4000015258789,150.39999389648438)"><path fill="rgb(249,172,77)" fill-opacity="1" d=" M0,-14.399999618530273 C7.953000068664551,-14.399999618530273 14.399999618530273,-7.953000068664551 14.399999618530273,0 C14.399999618530273,7.953000068664551 7.953000068664551,14.399999618530273 0,14.399999618530273 C-7.953000068664551,14.399999618530273 -14.399999618530273,7.953000068664551 -14.399999618530273,0 C-14.399999618530273,-7.953000068664551 -7.953000068664551,-14.399999618530273 0,-14.399999618530273z"></path></g><g opacity="1" transform="matrix(1,0,0,1,93.65799713134766,150.74400329589844)"><path fill="rgb(255,255,255)" fill-opacity="1" d=" M5.050000190734863,-3.799999952316284 C5.050000190734863,-3.799999952316284 5.050000190734863,-3.700000047683716 5.050000190734863,-3.700000047683716 C4.849999904632568,-3 4.75,-2.4010000228881836 4.550000190734863,-1.7000000476837158 C4.25,-0.9010000228881836 4.150000095367432,-0.20000000298023224 3.950000047683716,0.5 C3.75,1.2999999523162842 3.549999952316284,2.0989999771118164 3.3499999046325684,2.799999952316284 C3.25,3.200000047683716 3.1500000953674316,3.5 3.049999952316284,3.799999952316284 C3.049999952316284,3.799999952316284 2.450000047683716,3.799999952316284 2.450000047683716,3.799999952316284 C2.3499999046325684,3.799999952316284 2.1500000953674316,3.700000047683716 2.049999952316284,3.700000047683716 C1.9500000476837158,3.5989999771118164 1.9500000476837158,3.5 1.850000023841858,3.5 C1.850000023841858,3.5 1.75,3.3989999294281006 1.75,3.3989999294281006 C1.75,3.299999952316284 1.649999976158142,3.200000047683716 1.5499999523162842,3 C1.4500000476837158,2.700000047683716 1.350000023841858,2.3989999294281006 1.25,2.0989999771118164 C1.25,2 1.149999976158142,1.8990000486373901 1.149999976158142,1.7999999523162842 C0.949999988079071,1.2000000476837158 0.75,0.5 0.6499999761581421,-0.20000000298023224 C0.550000011920929,-0.699999988079071 0.3499999940395355,-1.2000000476837158 0.25,-1.7000000476837158 C0.25,-1.7000000476837158 0.25,-1.7999999523162842 0.15000000596046448,-1.7999999523162842 C0.15000000596046448,-1.9010000228881836 0.05000000074505806,-1.9010000228881836 -0.05000000074505806,-1.9010000228881836 C-0.05000000074505806,-1.9010000228881836 -0.15000000596046448,-1.9010000228881836 -0.15000000596046448,-1.9010000228881836 C-0.15000000596046448,-1.9010000228881836 -0.15000000596046448,-1.7999999523162842 -0.15000000596046448,-1.7999999523162842 C-0.25,-1.6009999513626099 -0.3499999940395355,-1.2999999523162842 -0.3499999940395355,-1.1009999513626099 C-0.44999998807907104,-0.9010000228881836 -0.44999998807907104,-0.699999988079071 -0.550000011920929,-0.5 C-0.6499999761581421,0.0989999994635582 -0.8500000238418579,0.699999988079071 -1.0499999523162842,1.2999999523162842 C-1.0499999523162842,1.5989999771118164 -1.149999976158142,1.7999999523162842 -1.149999976158142,2.0989999771118164 C-1.25,2.200000047683716 -1.25,2.200000047683716 -1.25,2.299999952316284 C-1.350000023841858,2.5989999771118164 -1.4500000476837158,2.799999952316284 -1.5499999523162842,3 C-1.649999976158142,3.200000047683716 -1.75,3.299999952316284 -1.850000023841858,3.3989999294281006 C-1.850000023841858,3.5 -1.9500000476837158,3.5 -1.9500000476837158,3.5989999771118164 C-2.049999952316284,3.700000047683716 -2.1500000953674316,3.700000047683716 -2.3499999046325684,3.799999952316284 C-2.3499999046325684,3.799999952316284 -2.549999952316284,3.799999952316284 -2.549999952316284,3.799999952316284 C-2.549999952316284,3.799999952316284 -3.049999952316284,3.799999952316284 -3.049999952316284,3.799999952316284 C-3.1500000953674316,3.299999952316284 -3.25,2.8989999294281006 -3.450000047683716,2.3989999294281006 C-3.6500000953674316,1.5989999771118164 -3.8499999046325684,0.800000011920929 -4.050000190734863,0.0989999994635582 C-4.25,-0.6010000109672546 -4.349999904632568,-1.2000000476837158 -4.550000190734863,-1.9010000228881836 C-4.75,-2.4010000228881836 -4.849999904632568,-3 -5.050000190734863,-3.6010000705718994 C-5.050000190734863,-3.6010000705718994 -5.050000190734863,-3.799999952316284 -5.050000190734863,-3.799999952316284 C-5.050000190734863,-3.799999952316284 -4.949999809265137,-3.799999952316284 -4.949999809265137,-3.799999952316284 C-4.949999809265137,-3.799999952316284 -4.449999809265137,-3.799999952316284 -4.449999809265137,-3.799999952316284 C-4.25,-3.799999952316284 -4.050000190734863,-3.700000047683716 -3.8499999046325684,-3.6010000705718994 C-3.6500000953674316,-3.5 -3.549999952316284,-3.4010000228881836 -3.450000047683716,-3.200000047683716 C-3.450000047683716,-3.1010000705718994 -3.3499999046325684,-2.9010000228881836 -3.3499999046325684,-2.799999952316284 C-3.25,-2.200000047683716 -3.049999952316284,-1.6009999513626099 -2.950000047683716,-1 C-2.8499999046325684,-0.4009999930858612 -2.6500000953674316,0.20000000298023224 -2.549999952316284,0.699999988079071 C-2.450000047683716,0.8989999890327454 -2.450000047683716,1.0989999771118164 -2.3499999046325684,1.2999999523162842 C-2.3499999046325684,1.2999999523162842 -2.3499999046325684,1.2000000476837158 -2.3499999046325684,1.2000000476837158 C-2.1500000953674316,0.5 -2.049999952316284,-0.10100000351667404 -1.850000023841858,-0.800000011920929 C-1.75,-1.2000000476837158 -1.649999976158142,-1.6009999513626099 -1.5499999523162842,-2 C-1.350000023841858,-2.200000047683716 -1.25,-2.5 -1.149999976158142,-2.799999952316284 C-1.149999976158142,-2.799999952316284 -1.0499999523162842,-2.9010000228881836 -1.0499999523162842,-3 C-0.8500000238418579,-3.299999952316284 -0.6499999761581421,-3.4010000228881836 -0.3499999940395355,-3.5 C-0.3499999940395355,-3.5 0.05000000074505806,-3.5 0.05000000074505806,-3.5 C0.25,-3.5 0.44999998807907104,-3.4010000228881836 0.6499999761581421,-3.299999952316284 C0.8500000238418579,-3.200000047683716 0.949999988079071,-3.1010000705718994 1.0499999523162842,-3 C1.0499999523162842,-2.9010000228881836 1.149999976158142,-2.9010000228881836 1.149999976158142,-2.799999952316284 C1.25,-2.6010000705718994 1.25,-2.4010000228881836 1.350000023841858,-2.200000047683716 C1.4500000476837158,-2 1.4500000476837158,-1.7000000476837158 1.5499999523162842,-1.5 C1.75,-0.699999988079071 2.049999952316284,0.20000000298023224 2.25,1 C2.25,1.0989999771118164 2.3499999046325684,1.2000000476837158 2.3499999046325684,1.2999999523162842 C2.3499999046325684,1.2000000476837158 2.450000047683716,1 2.450000047683716,0.8989999890327454 C2.6500000953674316,0.30000001192092896 2.75,-0.30000001192092896 2.950000047683716,-0.9010000228881836 C3.1500000953674316,-1.6009999513626099 3.3499999046325684,-2.299999952316284 3.450000047683716,-3 C3.549999952316284,-3.200000047683716 3.549999952316284,-3.4010000228881836 3.75,-3.5 C3.75,-3.6010000705718994 3.8499999046325684,-3.6010000705718994 3.950000047683716,-3.6010000705718994 C4.050000190734863,-3.6010000705718994 4.150000095367432,-3.700000047683716 4.25,-3.700000047683716 C4.449999809265137,-3.799999952316284 4.75,-3.799999952316284 5.050000190734863,-3.799999952316284 C4.949999809265137,-3.799999952316284 5.050000190734863,-3.799999952316284 5.050000190734863,-3.799999952316284z"></path></g><g opacity="1" transform="matrix(1,0,0,1,104.50800323486328,150.79400634765625)"><path fill="rgb(255,255,255)" fill-opacity="1" d=" M-3.5999999046325684,3.75 C-3.5999999046325684,3.75 -3.5,3.6500000953674316 -3.5,3.6500000953674316 C-3,2.950000047683716 -2.5999999046325684,2.25 -2.0999999046325684,1.649999976158142 C-1.7000000476837158,1.149999976158142 -1.399999976158142,0.550000011920929 -1,0.05000000074505806 C-1,0.05000000074505806 -1,-0.05000000074505806 -1,-0.05000000074505806 C-1.399999976158142,-0.6499999761581421 -1.7999999523162842,-1.149999976158142 -2.0999999046325684,-1.75 C-2.4000000953674316,-2.25 -2.700000047683716,-2.75 -3.0999999046325684,-3.1500000953674316 C-3.200000047683716,-3.3499999046325684 -3.4000000953674316,-3.549999952316284 -3.5,-3.75 C-3.5,-3.75 -3.4000000953674316,-3.75 -3.4000000953674316,-3.75 C-3.4000000953674316,-3.75 -3,-3.75 -3,-3.75 C-3,-3.75 -2.5,-3.75 -2.5,-3.75 C-2.5,-3.75 -2.299999952316284,-3.75 -2.299999952316284,-3.75 C-2.299999952316284,-3.75 -2.200000047683716,-3.75 -2.200000047683716,-3.75 C-2,-3.6500000953674316 -1.7999999523162842,-3.549999952316284 -1.600000023841858,-3.3499999046325684 C-1.2999999523162842,-2.8499999046325684 -1,-2.3499999046325684 -0.6000000238418579,-1.850000023841858 C-0.5,-1.649999976158142 -0.4000000059604645,-1.5499999523162842 -0.30000001192092896,-1.350000023841858 C-0.30000001192092896,-1.25 -0.20000000298023224,-1.25 -0.10000000149011612,-1.149999976158142 C-0.10000000149011612,-1.149999976158142 0,-1.149999976158142 0,-1.149999976158142 C0.10000000149011612,-1.149999976158142 0.20000000298023224,-1.25 0.30000001192092896,-1.350000023841858 C0.5,-1.75 0.800000011920929,-2.1500000953674316 1.100000023841858,-2.450000047683716 C1.2999999523162842,-2.75 1.5,-2.950000047683716 1.600000023841858,-3.25 C1.7000000476837158,-3.3499999046325684 1.7999999523162842,-3.450000047683716 1.899999976158142,-3.549999952316284 C2,-3.6500000953674316 2.200000047683716,-3.75 2.299999952316284,-3.75 C2.4000000953674316,-3.75 2.5,-3.75 2.5999999046325684,-3.8499999046325684 C2.5999999046325684,-3.8499999046325684 3.200000047683716,-3.8499999046325684 3.200000047683716,-3.8499999046325684 C3.200000047683716,-3.8499999046325684 3.5999999046325684,-3.8499999046325684 3.5999999046325684,-3.8499999046325684 C3.200000047683716,-3.25 2.700000047683716,-2.549999952316284 2.299999952316284,-1.9500000476837158 C1.899999976158142,-1.4500000476837158 1.600000023841858,-0.8500000238418579 1.2000000476837158,-0.25 C1.2000000476837158,-0.15000000596046448 1.100000023841858,-0.15000000596046448 1.100000023841858,-0.05000000074505806 C1.100000023841858,-0.05000000074505806 1.100000023841858,0.05000000074505806 1.100000023841858,0.05000000074505806 C1.2999999523162842,0.3499999940395355 1.600000023841858,0.75 1.7999999523162842,1.0499999523162842 C2.4000000953674316,1.9500000476837158 3,2.8499999046325684 3.5999999046325684,3.75 C3.5999999046325684,3.75 3.5999999046325684,3.8499999046325684 3.5999999046325684,3.8499999046325684 C3.5999999046325684,3.8499999046325684 2.9000000953674316,3.8499999046325684 2.9000000953674316,3.8499999046325684 C2.9000000953674316,3.8499999046325684 2.5,3.8499999046325684 2.5,3.8499999046325684 C2.299999952316284,3.8499999046325684 2.0999999046325684,3.75 2,3.6500000953674316 C1.899999976158142,3.549999952316284 1.7999999523162842,3.549999952316284 1.7999999523162842,3.450000047683716 C1.7999999523162842,3.450000047683716 1.7999999523162842,3.3499999046325684 1.7000000476837158,3.3499999046325684 C1.2999999523162842,2.75 0.8999999761581421,2.049999952316284 0.4000000059604645,1.4500000476837158 C0.4000000059604645,1.4500000476837158 0.30000001192092896,1.350000023841858 0.30000001192092896,1.350000023841858 C0,1.149999976158142 0,1.149999976158142 -0.10000000149011612,1.0499999523162842 C-0.20000000298023224,1.0499999523162842 -0.20000000298023224,1.149999976158142 -0.30000001192092896,1.149999976158142 C-0.30000001192092896,1.25 -0.4000000059604645,1.25 -0.4000000059604645,1.350000023841858 C-0.699999988079071,1.850000023841858 -1,2.3499999046325684 -1.399999976158142,2.75 C-1.5,2.8499999046325684 -1.600000023841858,3.049999952316284 -1.7000000476837158,3.1500000953674316 C-1.7000000476837158,3.25 -1.7999999523162842,3.25 -1.7999999523162842,3.25 C-2,3.450000047683716 -2.200000047683716,3.549999952316284 -2.4000000953674316,3.6500000953674316 C-2.4000000953674316,3.6500000953674316 -2.700000047683716,3.6500000953674316 -2.700000047683716,3.6500000953674316 C-2.700000047683716,3.6500000953674316 -3.200000047683716,3.6500000953674316 -3.200000047683716,3.6500000953674316 C-3.299999952316284,3.75 -3.4000000953674316,3.75 -3.5999999046325684,3.75z"></path></g><g opacity="1" transform="matrix(1,0,0,1,99.65799713134766,151.44400024414062)"><path fill="rgb(255,255,255)" fill-opacity="1" d=" M0.6499999761581421,-3.200000047683716 C0.6499999761581421,-3.200000047683716 0.6499999761581421,-2.5 0.6499999761581421,-2.5 C0.6499999761581421,-2.5 0.6499999761581421,2.299999952316284 0.6499999761581421,2.299999952316284 C0.6499999761581421,2.5 0.6499999761581421,2.5999999046325684 0.550000011920929,2.6989998817443848 C0.44999998807907104,2.9000000953674316 0.25,3.0999999046325684 -0.05000000074505806,3.1989998817443848 C-0.05000000074505806,3.1989998817443848 -0.25,3.1989998817443848 -0.25,3.1989998817443848 C-0.25,3.1989998817443848 -0.6499999761581421,3.1989998817443848 -0.6499999761581421,3.1989998817443848 C-0.6499999761581421,3.1989998817443848 -0.6499999761581421,2.5999999046325684 -0.6499999761581421,2.5999999046325684 C-0.6499999761581421,2.5999999046325684 -0.6499999761581421,1.1990000009536743 -0.6499999761581421,1.1990000009536743 C-0.6499999761581421,1.1990000009536743 -0.6499999761581421,-1 -0.6499999761581421,-1 C-0.6499999761581421,-1 -0.6499999761581421,-2.0999999046325684 -0.6499999761581421,-2.0999999046325684 C-0.6499999761581421,-2.0999999046325684 -0.6499999761581421,-2.200000047683716 -0.6499999761581421,-2.200000047683716 C-0.6499999761581421,-2.3010001182556152 -0.550000011920929,-2.3010001182556152 -0.550000011920929,-2.4000000953674316 C-0.550000011920929,-2.5 -0.44999998807907104,-2.5 -0.3499999940395355,-2.5999999046325684 C-0.15000000596046448,-2.700000047683716 0.05000000074505806,-2.8010001182556152 0.25,-2.9000000953674316 C0.3499999940395355,-3 0.550000011920929,-3.0999999046325684 0.6499999761581421,-3.200000047683716z"></path></g><g opacity="1" transform="matrix(1,0,0,1,99.75800323486328,147.843994140625)"><path fill="rgb(255,255,255)" fill-opacity="1" d=" M-0.75,0.8999999761581421 C-0.75,0.8999999761581421 -0.75,0.6000000238418579 -0.75,0.6000000238418579 C-0.75,0.4000000059604645 -0.75,0.29899999499320984 -0.6499999761581421,0.10000000149011612 C-0.6499999761581421,-0.10000000149011612 -0.550000011920929,-0.30000001192092896 -0.44999998807907104,-0.4000000059604645 C-0.3499999940395355,-0.6000000238418579 -0.15000000596046448,-0.7009999752044678 -0.05000000074505806,-0.800000011920929 C0.05000000074505806,-0.800000011920929 0.15000000596046448,-0.8999999761581421 0.25,-0.8999999761581421 C0.25,-0.8999999761581421 0.550000011920929,-0.8999999761581421 0.550000011920929,-0.8999999761581421 C0.550000011920929,-0.8999999761581421 0.6499999761581421,-0.8999999761581421 0.6499999761581421,-0.8999999761581421 C0.75,-0.8999999761581421 0.6499999761581421,-0.8999999761581421 0.6499999761581421,-0.8999999761581421 C0.6499999761581421,-0.8999999761581421 0.6499999761581421,-0.7009999752044678 0.6499999761581421,-0.7009999752044678 C0.6499999761581421,-0.7009999752044678 0.6499999761581421,-0.5 0.6499999761581421,-0.5 C0.6499999761581421,-0.4000000059604645 0.550000011920929,-0.30000001192092896 0.550000011920929,-0.20100000500679016 C0.44999998807907104,0 0.3499999940395355,0.10000000149011612 0.25,0.29899999499320984 C0.15000000596046448,0.4000000059604645 0.15000000596046448,0.4000000059604645 0.05000000074505806,0.5 C-0.05000000074505806,0.5 -0.15000000596046448,0.6000000238418579 -0.25,0.6000000238418579 C-0.44999998807907104,0.699999988079071 -0.550000011920929,0.699999988079071 -0.75,0.8999999761581421z"></path></g><g opacity="1" transform="matrix(1,0,0,1,168.39999389648438,62.400001525878906)"><path fill="rgb(9,18,54)" fill-opacity="1" d=" M0.0010000000474974513,-14.399999618530273 C7.953000068664551,-14.399999618530273 14.39900016784668,-7.953000068664551 14.39900016784668,0 C14.39900016784668,7.953000068664551 7.953000068664551,14.399999618530273 0.0010000000474974513,14.399999618530273 C-7.952000141143799,14.399999618530273 -14.399999618530273,7.953000068664551 -14.399999618530273,0 C-14.399999618530273,-7.953000068664551 -7.952000141143799,-14.399999618530273 0.0010000000474974513,-14.399999618530273z"></path></g><g opacity="1" transform="matrix(1,0,0,1,168.28599548339844,61.608001708984375)"><path fill="rgb(141,184,72)" fill-opacity="1" d=" M-0.6510000228881836,-8.399999618530273 C-0.550000011920929,-8.399999618530273 -0.44999998807907104,-8.399999618530273 -0.35100001096725464,-8.300000190734863 C-1.0499999523162842,-7.900000095367432 -1.8509999513626099,-7 -2.25,-5.300000190734863 C-2.75,-5.099999904632568 -3.1510000228881836,-5 -3.6510000228881836,-4.800000190734863 C-3.25,-6.199999809265137 -2.3510000705718994,-8.399999618530273 -0.6510000228881836,-8.399999618530273z M0.05000000074505806,-7.699999809265137 C0.14900000393390656,-7.300000190734863 0.25,-6.800000190734863 0.25,-6.099999904632568 C0.25,-6.099999904632568 0.25,-6 0.25,-6 C-0.25,-5.900000095367432 -0.8510000109672546,-5.699999809265137 -1.5499999523162842,-5.5 C-1.1510000228881836,-6.800000190734863 -0.550000011920929,-7.5 0.05000000074505806,-7.699999809265137z M1.75,-6.5 C1.5499999523162842,-6.400000095367432 1.25,-6.300000190734863 0.949999988079071,-6.199999809265137 C0.949999988079071,-6.199999809265137 0.949999988079071,-6.400000095367432 0.949999988079071,-6.400000095367432 C0.949999988079071,-7 0.8489999771118164,-7.400000095367432 0.75,-7.800000190734863 C1.25,-7.800000190734863 1.5499999523162842,-7.199999809265137 1.75,-6.5z M5.949999809265137,-5.5 C5.949999809265137,-5.599999904632568 5.848999977111816,-5.599999904632568 5.75,-5.599999904632568 C5.64900016784668,-5.599999904632568 4.25,-5.699999809265137 4.25,-5.699999809265137 C4.25,-5.699999809265137 3.25,-6.699999809265137 3.1489999294281006,-6.800000190734863 C3.049999952316284,-6.900000095367432 2.8489999771118164,-6.900000095367432 2.75,-6.900000095367432 C2.75,-6.900000095367432 2.549999952316284,-6.800000190734863 2.25,-6.699999809265137 C2.049999952316284,-7.599999904632568 1.4500000476837158,-8.5 0.44999998807907104,-8.5 C0.44999998807907104,-8.5 0.3490000069141388,-8.5 0.3490000069141388,-8.5 C0.05000000074505806,-8.800000190734863 -0.25,-9 -0.550000011920929,-9 C-2.8510000705718994,-9 -4.050000190734863,-6.099999904632568 -4.35099983215332,-4.599999904632568 C-5.25,-4.300000190734863 -5.949999809265137,-4.099999904632568 -5.949999809265137,-4.099999904632568 C-6.449999809265137,-3.9000000953674316 -6.550000190734863,-3.9000000953674316 -6.550000190734863,-3.4000000953674316 C-6.651000022888184,-3.0999999046325684 -7.949999809265137,7.099999904632568 -7.949999809265137,7.099999904632568 C-7.949999809265137,7.099999904632568 2.3489999771118164,9 2.3489999771118164,9 C2.3489999771118164,9 7.949999809265137,7.800000190734863 7.949999809265137,7.800000190734863 C7.949999809265137,7.900000095367432 5.949999809265137,-5.400000095367432 5.949999809265137,-5.5z"></path></g><g opacity="1" transform="matrix(1,0,0,1,173.43600463867188,62.65800094604492)"><path fill="rgb(90,133,61)" fill-opacity="1" d=" M0.699999988079071,-6.650000095367432 C0.6000000238418579,-6.650000095367432 -0.800000011920929,-6.75 -0.800000011920929,-6.75 C-0.800000011920929,-6.75 -1.7999999523162842,-7.75 -1.899999976158142,-7.849999904632568 C-1.899999976158142,-7.849999904632568 -2.000999927520752,-7.949999809265137 -2.000999927520752,-7.949999809265137 C-2.000999927520752,-7.949999809265137 -2.799999952316284,7.949999809265137 -2.799999952316284,7.949999809265137 C-2.799999952316284,7.949999809265137 2.8010001182556152,6.75 2.8010001182556152,6.75 C2.8010001182556152,6.75 0.8009999990463257,-6.550000190734863 0.8009999990463257,-6.550000190734863 C0.8009999990463257,-6.650000095367432 0.699999988079071,-6.650000095367432 0.699999988079071,-6.650000095367432z"></path></g><g opacity="1" transform="matrix(1,0,0,1,165.68600463867188,63.30799865722656)"><path fill="rgb(255,255,253)" fill-opacity="1" d=" M3.0510001182556152,-4.199999809265137 C3.0510001182556152,-4.199999809265137 2.3499999046325684,-2.200000047683716 2.3499999046325684,-2.200000047683716 C2.3499999046325684,-2.200000047683716 1.75,-2.5 1.0509999990463257,-2.5 C-0.05000000074505806,-2.5 -0.15000000596046448,-1.7999999523162842 -0.15000000596046448,-1.7000000476837158 C-0.15000000596046448,-0.800000011920929 2.249000072479248,-0.4000000059604645 2.249000072479248,1.7999999523162842 C2.249000072479248,3.5 1.149999976158142,4.599999904632568 -0.3499999940395355,4.599999904632568 C-2.1500000953674316,4.599999904632568 -3.0510001182556152,3.5 -3.0510001182556152,3.5 C-3.0510001182556152,3.5 -2.5510001182556152,1.899999976158142 -2.5510001182556152,1.899999976158142 C-2.5510001182556152,1.899999976158142 -1.649999976158142,2.700000047683716 -0.8500000238418579,2.700000047683716 C-0.3499999940395355,2.700000047683716 -0.15000000596046448,2.299999952316284 -0.15000000596046448,2 C-0.15000000596046448,0.800000011920929 -2.1500000953674316,0.699999988079071 -2.1500000953674316,-1.2999999523162842 C-2.1500000953674316,-3 -0.9490000009536743,-4.599999904632568 1.5509999990463257,-4.599999904632568 C2.5510001182556152,-4.5 3.0510001182556152,-4.199999809265137 3.0510001182556152,-4.199999809265137z"></path></g><g opacity="1" transform="matrix(1,0,0,1,95.4000015258789,51.400001525878906)"><path fill="rgb(156,94,144)" fill-opacity="1" d=" M0,-14.399999618530273 C7.953000068664551,-14.399999618530273 14.399999618530273,-7.953000068664551 14.399999618530273,0 C14.399999618530273,7.953000068664551 7.953000068664551,14.399999618530273 0,14.399999618530273 C-7.953000068664551,14.399999618530273 -14.399999618530273,7.953000068664551 -14.399999618530273,0 C-14.399999618530273,-7.953000068664551 -7.953000068664551,-14.399999618530273 0,-14.399999618530273z"></path></g><g opacity="1" transform="matrix(1,0,0,1,94.94999694824219,51.790000915527344)"><path fill="rgb(255,255,255)" fill-opacity="1" d=" M2.450000047683716,4.349999904632568 C2.3499999046325684,4.150000095367432 2.450000047683716,4.150000095367432 2.549999952316284,4.150000095367432 C2.549999952316284,4.150000095367432 8.449999809265137,4.150000095367432 8.449999809265137,4.150000095367432 C8.449999809265137,4.150000095367432 8.75,4.150000095367432 8.75,4.150000095367432 C9.649999618530273,3.950000047683716 10.350000381469727,3.1500000953674316 10.350000381469727,2.3499999046325684 C10.350000381469727,2.3499999046325684 10.350000381469727,1.4500000476837158 10.350000381469727,1.4500000476837158 C10.350000381469727,1.4500000476837158 10.350000381469727,-3.950000047683716 10.350000381469727,-3.950000047683716 C10.350000381469727,-3.950000047683716 10.350000381469727,-4.349999904632568 10.350000381469727,-4.349999904632568 C10.350000381469727,-4.849999904632568 10.149999618530273,-5.25 9.75,-5.550000190734863 C9.649999618530273,-5.650000095367432 9.550000190734863,-5.650000095367432 9.550000190734863,-5.75 C9.25,-6.050000190734863 8.850000381469727,-6.150000095367432 8.350000381469727,-6.150000095367432 C8.350000381469727,-6.150000095367432 -8.350000381469727,-6.150000095367432 -8.350000381469727,-6.150000095367432 C-8.350000381469727,-6.150000095367432 -8.75,-6.150000095367432 -8.75,-6.150000095367432 C-9.350000381469727,-6.050000190734863 -9.850000381469727,-5.650000095367432 -10.149999618530273,-5.050000190734863 C-10.350000381469727,-4.75 -10.350000381469727,-4.449999809265137 -10.350000381469727,-4.150000095367432 C-10.350000381469727,-4.150000095367432 -10.350000381469727,2.1500000953674316 -10.350000381469727,2.1500000953674316 C-10.350000381469727,2.3499999046325684 -10.350000381469727,2.6500000953674316 -10.25,2.8499999046325684 C-10.149999618530273,3.1500000953674316 -9.850000381469727,3.450000047683716 -9.649999618530273,3.6500000953674316 C-9.350000381469727,3.8499999046325684 -8.949999809265137,4.050000190734863 -8.550000190734863,4.050000190734863 C-8.550000190734863,4.050000190734863 -0.6499999761581421,4.050000190734863 -0.6499999761581421,4.050000190734863 C-0.550000011920929,4.050000190734863 -0.44999998807907104,4.050000190734863 -0.44999998807907104,4.150000095367432 C0.550000011920929,4.75 1.5499999523162842,5.25 2.549999952316284,5.849999904632568 C2.549999952316284,5.849999904632568 2.6500000953674316,5.849999904632568 2.6500000953674316,5.949999809265137 C2.75,6.050000190734863 2.8499999046325684,6.050000190734863 2.950000047683716,6.150000095367432 C2.950000047683716,5.449999809265137 2.6500000953674316,4.849999904632568 2.450000047683716,4.349999904632568z M4.550000190734863,-1.649999976158142 C4.75,-2.25 5.050000190734863,-2.8499999046325684 5.449999809265137,-3.3499999046325684 C5.75,-3.6500000953674316 6.150000095367432,-3.950000047683716 6.550000190734863,-4.050000190734863 C7.25,-4.150000095367432 7.849999904632568,-4.050000190734863 8.449999809265137,-3.549999952316284 C8.75,-3.3499999046325684 8.949999809265137,-2.950000047683716 9.050000190734863,-2.6500000953674316 C9.25,-2.25 9.25,-1.75 9.25,-1.25 C9.25,-0.3499999940395355 8.949999809265137,0.44999998807907104 8.449999809265137,1.25 C8.25,1.5499999523162842 8.050000190734863,1.850000023841858 7.650000095367432,2.049999952316284 C7.050000190734863,2.3499999046325684 6.449999809265137,2.3499999046325684 5.75,2.1500000953674316 C5.25,1.850000023841858 4.849999904632568,1.4500000476837158 4.650000095367432,0.8500000238418579 C4.550000190734863,0.550000011920929 4.449999809265137,0.15000000596046448 4.449999809265137,-0.15000000596046448 C4.349999904632568,-0.6499999761581421 4.449999809265137,-1.149999976158142 4.550000190734863,-1.649999976158142z M-1.75,-0.25 C-1.75,0.15000000596046448 -1.850000023841858,0.6499999761581421 -1.850000023841858,1.0499999523162842 C-1.850000023841858,1.0499999523162842 -1.850000023841858,2.450000047683716 -1.850000023841858,2.450000047683716 C-1.850000023841858,2.6500000953674316 -1.850000023841858,2.75 -1.9500000476837158,2.950000047683716 C-2.1500000953674316,3.1500000953674316 -2.3499999046325684,3.25 -2.6500000953674316,3.1500000953674316 C-2.8499999046325684,3.1500000953674316 -3.049999952316284,2.950000047683716 -3.1500000953674316,2.8499999046325684 C-3.75,2.1500000953674316 -4.150000095367432,1.350000023841858 -4.550000190734863,0.550000011920929 C-4.650000095367432,0.15000000596046448 -4.75,-0.15000000596046448 -4.949999809265137,-0.550000011920929 C-4.949999809265137,-0.550000011920929 -4.949999809265137,-0.6499999761581421 -5.050000190734863,-0.6499999761581421 C-5.050000190734863,-0.550000011920929 -5.150000095367432,-0.3499999940395355 -5.25,-0.15000000596046448 C-5.550000190734863,0.550000011920929 -5.949999809265137,1.149999976158142 -6.25,1.850000023841858 C-6.449999809265137,2.25 -6.650000095367432,2.549999952316284 -6.949999809265137,2.950000047683716 C-7.050000190734863,3.049999952316284 -7.150000095367432,3.1500000953674316 -7.349999904632568,3.1500000953674316 C-7.550000190734863,3.25 -7.650000095367432,3.1500000953674316 -7.849999904632568,3.049999952316284 C-7.849999904632568,2.950000047683716 -7.949999809265137,2.75 -8.050000190734863,2.6500000953674316 C-8.149999618530273,2.25 -8.350000381469727,1.850000023841858 -8.449999809265137,1.4500000476837158 C-8.649999618530273,0.550000011920929 -8.850000381469727,-0.44999998807907104 -9.050000190734863,-1.350000023841858 C-9.149999618530273,-2.049999952316284 -9.25,-2.75 -9.350000381469727,-3.450000047683716 C-9.350000381469727,-3.549999952316284 -9.350000381469727,-3.75 -9.449999809265137,-3.8499999046325684 C-9.449999809265137,-3.8499999046325684 -9.449999809265137,-4.25 -9.449999809265137,-4.25 C-9.350000381469727,-4.449999809265137 -9.149999618530273,-4.650000095367432 -8.850000381469727,-4.650000095367432 C-8.850000381469727,-4.650000095367432 -8.550000190734863,-4.650000095367432 -8.550000190734863,-4.650000095367432 C-8.350000381469727,-4.650000095367432 -8.149999618530273,-4.449999809265137 -8.149999618530273,-4.25 C-8.149999618530273,-4.150000095367432 -8.050000190734863,-3.950000047683716 -8.050000190734863,-3.75 C-7.949999809265137,-3.049999952316284 -7.849999904632568,-2.450000047683716 -7.75,-1.75 C-7.550000190734863,-1.149999976158142 -7.349999904632568,-0.3499999940395355 -7.25,0.3499999940395355 C-7.25,0.3499999940395355 -7.25,0.44999998807907104 -7.25,0.44999998807907104 C-7.25,0.3499999940395355 -7.150000095367432,0.25 -7.150000095367432,0.25 C-6.449999809265137,-0.8500000238418579 -5.949999809265137,-1.9500000476837158 -5.349999904632568,-3.049999952316284 C-5.25,-3.1500000953674316 -5.25,-3.25 -5.050000190734863,-3.450000047683716 C-4.849999904632568,-3.6500000953674316 -4.650000095367432,-3.6500000953674316 -4.449999809265137,-3.6500000953674316 C-4.349999904632568,-3.6500000953674316 -4.150000095367432,-3.549999952316284 -4.150000095367432,-3.3499999046325684 C-4.050000190734863,-3.1500000953674316 -4.050000190734863,-2.950000047683716 -3.950000047683716,-2.8499999046325684 C-3.8499999046325684,-2.1500000953674316 -3.6500000953674316,-1.4500000476837158 -3.450000047683716,-0.75 C-3.3499999046325684,-0.550000011920929 -3.3499999046325684,-0.3499999940395355 -3.25,-0.05000000074505806 C-3.25,-0.15000000596046448 -3.25,-0.3499999940395355 -3.1500000953674316,-0.44999998807907104 C-3.049999952316284,-1.350000023841858 -2.950000047683716,-2.1500000953674316 -2.6500000953674316,-3.049999952316284 C-2.549999952316284,-3.549999952316284 -2.3499999046325684,-3.950000047683716 -2.1500000953674316,-4.349999904632568 C-2.1500000953674316,-4.449999809265137 -2.049999952316284,-4.550000190734863 -1.9500000476837158,-4.650000095367432 C-1.75,-4.949999809265137 -1.4500000476837158,-5.050000190734863 -1.149999976158142,-4.949999809265137 C-0.8500000238418579,-4.849999904632568 -0.550000011920929,-4.550000190734863 -0.550000011920929,-4.25 C-0.550000011920929,-4.150000095367432 -0.550000011920929,-4.050000190734863 -0.6499999761581421,-3.950000047683716 C-1.0499999523162842,-3.3499999046325684 -1.25,-2.75 -1.4500000476837158,-2.1500000953674316 C-1.5499999523162842,-1.5499999523162842 -1.649999976158142,-0.8500000238418579 -1.75,-0.25z M-0.550000011920929,1.0499999523162842 C-0.75,0.550000011920929 -0.8500000238418579,0.05000000074505806 -0.8500000238418579,-0.25 C-0.8500000238418579,-1.25 -0.6499999761581421,-1.9500000476837158 -0.25,-2.6500000953674316 C-0.05000000074505806,-2.950000047683716 0.25,-3.3499999046325684 0.550000011920929,-3.549999952316284 C1.350000023841858,-4.349999904632568 2.6500000953674316,-4.150000095367432 3.25,-3.450000047683716 C3.6500000953674316,-3.1500000953674316 3.8499999046325684,-2.6500000953674316 3.950000047683716,-2.25 C4.050000190734863,-1.850000023841858 4.050000190734863,-1.350000023841858 4.050000190734863,-0.949999988079071 C3.8499999046325684,-0.15000000596046448 3.6500000953674316,0.6499999761581421 3.1500000953674316,1.25 C2.8499999046325684,1.649999976158142 2.549999952316284,1.9500000476837158 2.049999952316284,2.1500000953674316 C1.149999976158142,2.450000047683716 -0.05000000074505806,2.1500000953674316 -0.550000011920929,1.0499999523162842z"></path></g><g opacity="1" transform="matrix(1,0,0,1,96.4000015258789,50.88999938964844)"><path fill="rgb(255,255,255)" fill-opacity="1" d=" M0.800000011920929,-1.5499999523162842 C0.699999988079071,-1.75 0.5,-1.75 0.30000001192092896,-1.75 C0.10000000149011612,-1.75 -0.10000000149011612,-1.649999976158142 -0.20000000298023224,-1.5499999523162842 C-0.5,-1.25 -0.699999988079071,-0.949999988079071 -0.800000011920929,-0.550000011920929 C-1,0.05000000074505806 -1,0.6499999761581421 -0.800000011920929,1.25 C-0.699999988079071,1.350000023841858 -0.699999988079071,1.4500000476837158 -0.6000000238418579,1.5499999523162842 C-0.5,1.649999976158142 -0.30000001192092896,1.75 -0.10000000149011612,1.649999976158142 C0,1.649999976158142 0.10000000149011612,1.5499999523162842 0.20000000298023224,1.5499999523162842 C0.4000000059604645,1.350000023841858 0.6000000238418579,1.149999976158142 0.699999988079071,0.949999988079071 C0.8999999761581421,0.550000011920929 1,0.05000000074505806 1,-0.3499999940395355 C1,-0.3499999940395355 1,-0.8500000238418579 1,-0.8500000238418579 C1,-1.0499999523162842 0.8999999761581421,-1.350000023841858 0.800000011920929,-1.5499999523162842z"></path></g><g opacity="1" transform="matrix(1,0,0,1,101.8499984741211,50.790000915527344)"><path fill="rgb(255,255,255)" fill-opacity="1" d=" M-0.75,1.5499999523162842 C-0.550000011920929,1.850000023841858 -0.3499999940395355,1.850000023841858 -0.05000000074505806,1.75 C0.05000000074505806,1.75 0.05000000074505806,1.75 0.15000000596046448,1.649999976158142 C0.3499999940395355,1.5499999523162842 0.550000011920929,1.350000023841858 0.6499999761581421,1.0499999523162842 C0.949999988079071,0.6499999761581421 0.949999988079071,0.15000000596046448 1.0499999523162842,-0.3499999940395355 C1.0499999523162842,-0.3499999940395355 1.0499999523162842,-0.75 1.0499999523162842,-0.75 C1.0499999523162842,-1.0499999523162842 0.949999988079071,-1.25 0.75,-1.5499999523162842 C0.6499999761581421,-1.649999976158142 0.550000011920929,-1.75 0.44999998807907104,-1.75 C0.25,-1.850000023841858 0.15000000596046448,-1.75 -0.05000000074505806,-1.649999976158142 C-0.25,-1.5499999523162842 -0.44999998807907104,-1.350000023841858 -0.550000011920929,-1.149999976158142 C-0.949999988079071,-0.550000011920929 -1.0499999523162842,0.15000000596046448 -0.949999988079071,0.8500000238418579 C-0.949999988079071,1.149999976158142 -0.8500000238418579,1.350000023841858 -0.75,1.5499999523162842z"></path></g><g opacity="1" transform="matrix(1,0,0,1,151.39999389648438,146.39999389648438)"><path fill="rgb(0,168,79)" fill-opacity="1" d=" M0.0010000000474974513,-14.399999618530273 C7.953000068664551,-14.399999618530273 14.39900016784668,-7.953000068664551 14.39900016784668,0 C14.39900016784668,7.953000068664551 7.953000068664551,14.399999618530273 0.0010000000474974513,14.399999618530273 C-7.952000141143799,14.399999618530273 -14.399999618530273,7.953000068664551 -14.399999618530273,0 C-14.399999618530273,-7.953000068664551 -7.952000141143799,-14.399999618530273 0.0010000000474974513,-14.399999618530273z"></path></g><g opacity="1" transform="matrix(1,0,0,1,0,0)"><path fill="rgb(253,253,253)" fill-opacity="1" d=" M147.86000061035156,146.24000549316406 C147.86000061035156,146.24000549316406 147.86000061035156,145.5399932861328 147.86000061035156,145.5399932861328 C147.86000061035156,145.5399932861328 147.86000061035156,146.24000549316406 147.86000061035156,146.24000549316406 C147.86000061035156,146.24000549316406 147.86000061035156,147.13900756835938 147.86000061035156,147.13900756835938 C147.86000061035156,147.13900756835938 147.86000061035156,146.24000549316406 147.86000061035156,146.24000549316406z"></path></g><g opacity="1" transform="matrix(1,0,0,1,163.75999450683594,144.94000244140625)"><path fill="rgb(255,255,255)" fill-opacity="1" d=" M0,0 C-0.10000000149011612,-0.10100000351667404 0,-0.20000000298023224 -0.20000000298023224,-0.20000000298023224 C-0.20000000298023224,-0.20000000298023224 -0.20000000298023224,0.19900000095367432 -0.20000000298023224,0.19900000095367432 C-0.10000000149011612,0.10000000149011612 -0.20000000298023224,0 -0.10000000149011612,-0.10100000351667404 C0,0.10000000149011612 0,0.10000000149011612 0.10100000351667404,0 C0.20000000298023224,0.10000000149011612 0.10100000351667404,0.19900000095367432 0.20000000298023224,0.19900000095367432 C0.20000000298023224,0.19900000095367432 0.20000000298023224,-0.20000000298023224 0.20000000298023224,-0.20000000298023224 C0,-0.20000000298023224 0.10100000351667404,0 0,0z"></path></g><g opacity="1" transform="matrix(1,0,0,1,141.2100067138672,146.19000244140625)"><path fill="rgb(255,255,255)" fill-opacity="1" d=" M1.9509999752044678,-0.05000000074505806 C1.9509999752044678,-0.05000000074505806 0.3499999940395355,-0.05000000074505806 0.3499999940395355,-0.05000000074505806 C0.25099998712539673,-0.05000000074505806 0.1509999930858612,0.050999999046325684 0.1509999930858612,0.15000000596046448 C0.1509999930858612,0.15000000596046448 0.1509999930858612,0.5509999990463257 0.1509999930858612,0.5509999990463257 C0.1509999930858612,0.6499999761581421 0.25099998712539673,0.7509999871253967 0.3499999940395355,0.7509999871253967 C0.3499999940395355,0.7509999871253967 0.8500000238418579,0.7509999871253967 0.8500000238418579,0.7509999871253967 C0.6510000228881836,1.149999976158142 0.1509999930858612,1.2510000467300415 -0.24899999797344208,1.149999976158142 C-0.7490000128746033,0.949999988079071 -0.9490000009536743,0.6499999761581421 -1.0490000247955322,0.15000000596046448 C-1.0490000247955322,-0.3499999940395355 -0.7490000128746033,-0.7490000128746033 -0.3490000069141388,-0.9490000009536743 C0.050999999046325684,-1.149999976158142 0.5509999990463257,-1.0499999523162842 0.8500000238418579,-0.6499999761581421 C0.9509999752044678,-0.550000011920929 0.9509999752044678,-0.4490000009536743 1.1510000228881836,-0.4490000009536743 C1.350000023841858,-0.4490000009536743 1.5509999990463257,-0.550000011920929 1.7510000467300415,-0.550000011920929 C1.9509999752044678,-0.6499999761581421 1.9509999752044678,-0.7490000128746033 1.850000023841858,-0.8500000238418579 C1.7510000467300415,-1.0499999523162842 1.6510000228881836,-1.2489999532699585 1.5509999990463257,-1.4490000009536743 C0.9509999752044678,-1.9490000009536743 -0.15000000596046448,-2.1500000953674316 -0.9490000009536743,-1.7489999532699585 C-1.7489999532699585,-1.350000023841858 -2.1500000953674316,-0.550000011920929 -2.0490000247955322,0.3499999940395355 C-1.9490000009536743,1.149999976158142 -1.5490000247955322,1.7510000467300415 -0.7490000128746033,1.9500000476837158 C-0.04899999871850014,2.1500000953674316 0.6510000228881836,2.1500000953674316 1.2510000467300415,1.5509999990463257 C1.2510000467300415,1.5509999990463257 1.2510000467300415,1.7510000467300415 1.2510000467300415,1.7510000467300415 C1.2510000467300415,1.9500000476837158 1.350000023841858,2.0510001182556152 1.4509999752044678,2.0510001182556152 C1.4509999752044678,2.0510001182556152 1.850000023841858,2.0510001182556152 1.850000023841858,2.0510001182556152 C1.9509999752044678,2.0510001182556152 2.0510001182556152,1.9500000476837158 2.0510001182556152,1.850000023841858 C2.0510001182556152,1.850000023841858 2.0510001182556152,0.15000000596046448 2.0510001182556152,0.15000000596046448 C2.1510000228881836,0.050999999046325684 2.0510001182556152,-0.05000000074505806 1.9509999752044678,-0.05000000074505806z"></path></g><g opacity="1" transform="matrix(1,0,0,1,0,0)"><path fill="rgb(19,19,19)" fill-opacity="1" d=" M146.86000061035156,146.24000549316406 C146.86000061035156,146.24000549316406 146.86000061035156,144.5399932861328 146.86000061035156,144.5399932861328 C146.86000061035156,144.5399932861328 146.86000061035156,146.24000549316406 146.86000061035156,146.24000549316406 C146.86000061035156,146.24000549316406 146.86000061035156,147.5399932861328 146.86000061035156,147.5399932861328 C146.86000061035156,147.5399932861328 146.86000061035156,146.24000549316406 146.86000061035156,146.24000549316406z"></path></g><g opacity="1" transform="matrix(1,0,0,1,148.7100067138672,146.24000549316406)"><path fill="rgb(255,255,255)" fill-opacity="1" d=" M0.15000000596046448,-1.899999976158142 C-0.45100000500679016,-2 -1.0499999523162842,-1.899999976158142 -1.6510000228881836,-1.899999976158142 C-1.850000023841858,-1.899999976158142 -1.850000023841858,-1.899999976158142 -1.850000023841858,-1.6009999513626099 C-1.850000023841858,-1.6009999513626099 -1.850000023841858,0 -1.850000023841858,0 C-1.850000023841858,0 -1.850000023841858,1.2999999523162842 -1.850000023841858,1.2999999523162842 C-1.850000023841858,1.2999999523162842 -1.850000023841858,1.7000000476837158 -1.850000023841858,1.7000000476837158 C-1.850000023841858,1.8990000486373901 -1.850000023841858,2 -1.6510000228881836,2 C-1.6510000228881836,2 -0.05000000074505806,2 -0.05000000074505806,2 C1.0490000247955322,2 1.8489999771118164,1.2999999523162842 1.8489999771118164,0.10000000149011612 C1.8489999771118164,-1 1.25,-1.7999999523162842 0.15000000596046448,-1.899999976158142z M0.6499999761581421,0.5 C0.5490000247955322,0.8989999890327454 0.25,1 -0.1509999930858612,1 C-0.1509999930858612,1 -0.75,1 -0.75,1 C-0.8500000238418579,1 -0.8500000238418579,1 -0.8500000238418579,0.8989999890327454 C-0.8500000238418579,0.8989999890327454 -0.8500000238418579,0 -0.8500000238418579,0 C-0.8500000238418579,0 -0.8500000238418579,-0.699999988079071 -0.8500000238418579,-0.699999988079071 C-0.8500000238418579,-0.699999988079071 -0.8500000238418579,-0.8999999761581421 -0.8500000238418579,-0.8999999761581421 C-0.9509999752044678,-1 -0.8500000238418579,-1 -0.75,-1 C-0.75,-1 -0.25,-1 -0.25,-1 C0.6499999761581421,-1.1009999513626099 1.0490000247955322,-0.20000000298023224 0.6499999761581421,0.5z"></path></g><g opacity="1" transform="matrix(1,0,0,1,155.24400329589844,146.4080047607422)"><path fill="rgb(255,255,255)" fill-opacity="1" d=" M1.3990000486373901,-2.1010000705718994 C1.3990000486373901,-2.1010000705718994 0.8989999890327454,-2.1010000705718994 0.8989999890327454,-2.1010000705718994 C0.699999988079071,-2.1010000705718994 0.699999988079071,-2.1010000705718994 0.699999988079071,-1.8009999990463257 C0.699999988079071,-1.8009999990463257 0.699999988079071,-0.8009999990463257 0.699999988079071,-0.8009999990463257 C0.30000001192092896,-1.0010000467300415 0,-1.1009999513626099 -0.30000001192092896,-1.0010000467300415 C-1.2999999523162842,-0.7009999752044678 -1.7000000476837158,0.6000000238418579 -1,1.3990000486373901 C-0.6010000109672546,1.8990000486373901 0.20000000298023224,2.0999999046325684 0.699999988079071,1.600000023841858 C0.699999988079071,1.6990000009536743 0.800000011920929,1.7990000247955322 0.8989999890327454,1.7990000247955322 C0.8989999890327454,1.7990000247955322 1.5,1.7990000247955322 1.5,1.7990000247955322 C1.600000023841858,1.7990000247955322 1.7000000476837158,1.6990000009536743 1.7000000476837158,1.600000023841858 C1.7000000476837158,1.600000023841858 1.7000000476837158,-1.899999976158142 1.7000000476837158,-1.899999976158142 C1.600000023841858,-2.000999927520752 1.5,-2.1010000705718994 1.3990000486373901,-2.1010000705718994z M0,0.9990000128746033 C-0.30000001192092896,0.9990000128746033 -0.5,0.6990000009536743 -0.5,0.39899998903274536 C-0.5,0.10000000149011612 -0.20000000298023224,-0.20100000500679016 0.10000000149011612,-0.20100000500679016 C0.39899998903274536,-0.20100000500679016 0.6000000238418579,0.10000000149011612 0.6000000238418579,0.39899998903274536 C0.6000000238418579,0.6990000009536743 0.39899998903274536,0.9990000128746033 0,0.9990000128746033z"></path></g><g opacity="1" transform="matrix(1,0,0,1,158.3939971923828,146.4080047607422)"><path fill="rgb(255,255,255)" fill-opacity="1" d=" M1.5509999990463257,-1.899999976158142 C1.5509999990463257,-2.000999927520752 1.4490000009536743,-2.1010000705718994 1.350000023841858,-2.1010000705718994 C1.350000023841858,-2.1010000705718994 0.8500000238418579,-2.1010000705718994 0.8500000238418579,-2.1010000705718994 C0.6499999761581421,-2.1010000705718994 0.5509999990463257,-2.1010000705718994 0.5509999990463257,-1.8009999990463257 C0.5509999990463257,-1.8009999990463257 0.5509999990463257,-0.7009999752044678 0.5509999990463257,-0.7009999752044678 C0.25,-1.0010000467300415 -0.14900000393390656,-1.0010000467300415 -0.4490000009536743,-0.8999999761581421 C-0.9490000009536743,-0.8009999990463257 -1.3489999771118164,-0.4000000059604645 -1.4490000009536743,0.10000000149011612 C-1.5499999523162842,0.6990000009536743 -1.4500000476837158,1.1990000009536743 -1.0509999990463257,1.600000023841858 C-0.5509999990463257,1.9989999532699585 0.050999999046325684,2.0999999046325684 0.5509999990463257,1.6990000009536743 C0.6510000228881836,1.8990000486373901 0.6499999761581421,1.8990000486373901 0.7490000128746033,1.8990000486373901 C0.7490000128746033,1.8990000486373901 1.350000023841858,1.8990000486373901 1.350000023841858,1.8990000486373901 C1.4490000009536743,1.8990000486373901 1.5509999990463257,1.8990000486373901 1.5509999990463257,1.6990000009536743 C1.5509999990463257,1.6990000009536743 1.5509999990463257,-1.899999976158142 1.5509999990463257,-1.899999976158142z M0.050999999046325684,0.9990000128746033 C-0.25,0.9990000128746033 -0.5509999990463257,0.6990000009536743 -0.5509999990463257,0.39899998903274536 C-0.5509999990463257,0.10000000149011612 -0.25,-0.10100000351667404 0.050999999046325684,-0.10100000351667404 C0.35100001096725464,-0.10100000351667404 0.6499999761581421,0.19900000095367432 0.6499999761581421,0.49900001287460327 C0.6499999761581421,0.6990000009536743 0.35100001096725464,0.9990000128746033 0.050999999046325684,0.9990000128746033z"></path></g><g opacity="1" transform="matrix(1,0,0,1,161.6439971923828,147.5570068359375)"><path fill="rgb(255,255,255)" fill-opacity="1" d=" M1.2000000476837158,-2.0490000247955322 C1.2000000476837158,-2.0490000247955322 0.6000000238418579,-2.0490000247955322 0.6000000238418579,-2.0490000247955322 C0.4000000059604645,-2.0490000247955322 0.4000000059604645,-1.9490000009536743 0.3009999990463257,-1.850000023841858 C0.20000000298023224,-1.350000023841858 0.10000000149011612,-0.7490000128746033 0,-0.24899999797344208 C0,-0.24899999797344208 0,-0.3499999940395355 0,-0.3499999940395355 C-0.10000000149011612,-0.8500000238418579 -0.30000001192092896,-1.350000023841858 -0.4000000059604645,-1.9490000009536743 C-0.4000000059604645,-2.0490000247955322 -0.5,-2.1500000953674316 -0.6000000238418579,-2.1500000953674316 C-0.6000000238418579,-2.1500000953674316 -1.1990000009536743,-2.1500000953674316 -1.1990000009536743,-2.1500000953674316 C-1.5,-2.1500000953674316 -1.5,-2.1500000953674316 -1.399999976158142,-1.850000023841858 C-1.1990000009536743,-1.149999976158142 -1,-0.4490000009536743 -0.800000011920929,0.15000000596046448 C-0.6990000009536743,0.6499999761581421 -0.6990000009536743,0.5509999990463257 -0.30000001192092896,0.5509999990463257 C-0.30000001192092896,0.5509999990463257 -0.19900000095367432,0.5509999990463257 -0.19900000095367432,0.5509999990463257 C-0.19900000095367432,0.5509999990463257 -0.19900000095367432,0.6499999761581421 -0.19900000095367432,0.6499999761581421 C-0.19900000095367432,0.9509999752044678 -0.5,1.149999976158142 -0.6990000009536743,1.0509999990463257 C-0.800000011920929,1.0509999990463257 -0.8999999761581421,0.8500000238418579 -1.100000023841858,0.9509999752044678 C-1.1990000009536743,1.0509999990463257 -1.2999999523162842,1.149999976158142 -1.2999999523162842,1.2510000467300415 C-1.2999999523162842,1.2510000467300415 -1.399999976158142,1.350000023841858 -1.399999976158142,1.350000023841858 C-1.5,1.4509999752044678 -1.399999976158142,1.5509999990463257 -1.399999976158142,1.649999976158142 C-0.8999999761581421,2.0510001182556152 0.20000000298023224,2.1500000953674316 0.6000000238418579,1.2510000467300415 C0.699999988079071,1.0509999990463257 0.699999988079071,0.8500000238418579 0.8009999990463257,0.6499999761581421 C1,-0.15000000596046448 1.3009999990463257,-0.9490000009536743 1.5,-1.850000023841858 C1.5,-2.0490000247955322 1.5,-2.0490000247955322 1.2000000476837158,-2.0490000247955322z"></path></g><g opacity="1" transform="matrix(1,0,0,1,152.1439971923828,146.8070068359375)"><path fill="rgb(255,255,255)" fill-opacity="1" d=" M1.2999999523162842,-1.2990000247955322 C1.2999999523162842,-1.2990000247955322 0.6990000009536743,-1.2990000247955322 0.6990000009536743,-1.2990000247955322 C0.6000000238418579,-1.2990000247955322 0.49900001287460327,-1.2990000247955322 0.49900001287460327,-1.100000023841858 C-0.0010000000474974513,-1.600000023841858 -0.8009999990463257,-1.399999976158142 -1.1009999513626099,-1 C-1.6009999513626099,-0.4000000059604645 -1.6009999513626099,0.5 -1.1009999513626099,1 C-0.699999988079071,1.5 -0.0010000000474974513,1.600000023841858 0.6000000238418579,1.2009999752044678 C0.6000000238418579,1.399999976158142 0.6990000009536743,1.399999976158142 0.800000011920929,1.399999976158142 C0.800000011920929,1.399999976158142 1.3990000486373901,1.399999976158142 1.3990000486373901,1.399999976158142 C1.4989999532699585,1.399999976158142 1.600000023841858,1.2999999523162842 1.600000023841858,1.2009999752044678 C1.600000023841858,1.2009999752044678 1.600000023841858,-1.2000000476837158 1.600000023841858,-1.2000000476837158 C1.4989999532699585,-1.2990000247955322 1.4989999532699585,-1.2990000247955322 1.2999999523162842,-1.2990000247955322z M-0.0010000000474974513,0.6000000238418579 C-0.3009999990463257,0.6000000238418579 -0.6010000109672546,0.30000001192092896 -0.5009999871253967,0 C-0.5009999871253967,-0.29899999499320984 -0.3009999990463257,-0.5 -0.0010000000474974513,-0.5 C0.30000001192092896,-0.5 0.6000000238418579,-0.29899999499320984 0.6000000238418579,0 C0.6000000238418579,0.30000001192092896 0.30000001192092896,0.6000000238418579 -0.0010000000474974513,0.6000000238418579z"></path></g><g opacity="1" transform="matrix(1,0,0,1,144.99400329589844,146.85699462890625)"><path fill="rgb(255,255,255)" fill-opacity="1" d=" M-0.05000000074505806,-1.4500000476837158 C-0.8510000109672546,-1.4500000476837158 -1.5499999523162842,-0.8489999771118164 -1.5499999523162842,-0.05000000074505806 C-1.5499999523162842,0.75 -0.8510000109672546,1.4500000476837158 -0.05000000074505806,1.4500000476837158 C0.8489999771118164,1.4500000476837158 1.4500000476837158,0.75 1.5499999523162842,-0.05000000074505806 C1.5499999523162842,-0.8489999771118164 0.8489999771118164,-1.4500000476837158 -0.05000000074505806,-1.4500000476837158z M-0.05000000074505806,0.550000011920929 C-0.35100001096725464,0.550000011920929 -0.550000011920929,0.25 -0.550000011920929,-0.05000000074505806 C-0.550000011920929,-0.3490000069141388 -0.35100001096725464,-0.550000011920929 -0.05000000074505806,-0.550000011920929 C0.25,-0.550000011920929 0.44999998807907104,-0.25 0.44999998807907104,0.05000000074505806 C0.550000011920929,0.25 0.25,0.550000011920929 -0.05000000074505806,0.550000011920929z"></path></g><g opacity="1" transform="matrix(1,0,0,1,163.30999755859375,144.88999938964844)"><path fill="rgb(255,255,255)" fill-opacity="1" d=" M0.25,-0.15000000596046448 C0.25,-0.15000000596046448 -0.14900000393390656,-0.15000000596046448 -0.14900000393390656,-0.15000000596046448 C-0.14900000393390656,-0.15000000596046448 -0.25,-0.15000000596046448 -0.25,-0.15000000596046448 C-0.05000000074505806,-0.15000000596046448 -0.14900000393390656,-0.05000000074505806 -0.14900000393390656,0.05000000074505806 C-0.14900000393390656,0.15000000596046448 -0.14900000393390656,0.15000000596046448 -0.05000000074505806,0.15000000596046448 C0.050999999046325684,0.15000000596046448 -0.05000000074505806,0.05000000074505806 -0.05000000074505806,0.05000000074505806 C-0.05000000074505806,0.05000000074505806 0.050999999046325684,-0.05000000074505806 0.25,-0.15000000596046448 C0.25,-0.05000000074505806 0.25,-0.05000000074505806 0.25,-0.15000000596046448z"></path></g><g opacity="1" transform="matrix(1,0,0,1,78.4000015258789,104.4000015258789)"><path fill="rgb(13,131,235)" fill-opacity="1" d=" M0,-14.399999618530273 C7.953000068664551,-14.399999618530273 14.399999618530273,-7.953000068664551 14.399999618530273,0 C14.399999618530273,7.953000068664551 7.953000068664551,14.399999618530273 0,14.399999618530273 C-7.953000068664551,14.399999618530273 -14.399999618530273,7.953000068664551 -14.399999618530273,0 C-14.399999618530273,-7.953000068664551 -7.953000068664551,-14.399999618530273 0,-14.399999618530273z"></path></g><g opacity="1" transform="matrix(1,0,0,1,78.4520034790039,104.70600128173828)"><path fill="rgb(255,255,255)" fill-opacity="1" d=" M3.700000047683716,-1.7000000476837158 C4,-2.0989999771118164 4.5,-2.299999952316284 5,-2.299999952316284 C6.199999809265137,-2.299999952316284 7,-1.399999976158142 7,0 C7,1.4010000228881836 6.199999809265137,2.299999952316284 5,2.299999952316284 C4.5,2.299999952316284 4,2.0999999046325684 3.700000047683716,1.7000000476837158 C3.700000047683716,1.7000000476837158 3.700000047683716,2.200000047683716 3.700000047683716,2.200000047683716 C3.700000047683716,2.200000047683716 2.5999999046325684,2.200000047683716 2.5999999046325684,2.200000047683716 C2.5999999046325684,2.200000047683716 2.5999999046325684,-4 2.5999999046325684,-4 C2.5999999046325684,-4 3.700000047683716,-4 3.700000047683716,-4 C3.700000047683716,-4 3.700000047683716,-1.7000000476837158 3.700000047683716,-1.7000000476837158z M4.800000190734863,1.2999999523162842 C5.599999904632568,1.2999999523162842 5.800000190734863,0.6000000238418579 5.800000190734863,0 C5.800000190734863,-0.5989999771118164 5.5,-1.2999999523162842 4.800000190734863,-1.2999999523162842 C4.099999904632568,-1.2999999523162842 3.700000047683716,-0.5989999771118164 3.700000047683716,0 C3.700000047683716,0.800000011920929 4.199999809265137,1.2999999523162842 4.800000190734863,1.2999999523162842z M7.300000190734863,2.200000047683716 M7.300000190734863,-4 C7.300000190734863,-4 8.399999618530273,-4 8.399999618530273,-4 C8.399999618530273,-4 8.399999618530273,2.200000047683716 8.399999618530273,2.200000047683716 C8.399999618530273,2.200000047683716 7.300000190734863,2.200000047683716 7.300000190734863,2.200000047683716 C7.300000190734863,2.200000047683716 7.300000190734863,-4 7.300000190734863,-4z M-2.299999952316284,-0.0989999994635582 C-2.299999952316284,-0.0989999994635582 -2.299999952316284,0.30000001192092896 -2.299999952316284,0.30000001192092896 C-2.299999952316284,0.30000001192092896 -5.400000095367432,0.30000001192092896 -5.400000095367432,0.30000001192092896 C-5.400000095367432,0.9010000228881836 -4.900000095367432,1.2999999523162842 -4.300000190734863,1.2999999523162842 C-3.799999952316284,1.2999999523162842 -3.5,1.100000023841858 -3.200000047683716,0.800000011920929 C-3.200000047683716,0.800000011920929 -2.5,1.5 -2.5,1.5 C-3,2.0999999046325684 -3.5999999046325684,2.299999952316284 -4.400000095367432,2.299999952316284 C-5.699999809265137,2.299999952316284 -6.599999904632568,1.4010000228881836 -6.599999904632568,0 C-6.599999904632568,-1.399999976158142 -5.699999809265137,-2.299999952316284 -4.400000095367432,-2.299999952316284 C-3.0999999046325684,-2.299999952316284 -2.299999952316284,-1.399999976158142 -2.299999952316284,-0.0989999994635582z M-5.400000095367432,-0.5 C-5.400000095367432,-0.5 -3.4000000953674316,-0.5 -3.4000000953674316,-0.5 C-3.5,-1 -3.799999952316284,-1.2999999523162842 -4.400000095367432,-1.2999999523162842 C-4.900000095367432,-1.2999999523162842 -5.300000190734863,-1 -5.400000095367432,-0.5z M2.299999952316284,-0.0989999994635582 C2.299999952316284,-0.0989999994635582 2.299999952316284,0.30000001192092896 2.299999952316284,0.30000001192092896 C2.299999952316284,0.30000001192092896 -0.800000011920929,0.30000001192092896 -0.800000011920929,0.30000001192092896 C-0.800000011920929,0.9010000228881836 -0.30000001192092896,1.2999999523162842 0.30000001192092896,1.2999999523162842 C0.800000011920929,1.2999999523162842 1.100000023841858,1.100000023841858 1.399999976158142,0.800000011920929 C1.399999976158142,0.800000011920929 2.0999999046325684,1.5 2.0999999046325684,1.5 C1.600000023841858,2.0999999046325684 1,2.299999952316284 0.20000000298023224,2.299999952316284 C-1.2000000476837158,2.299999952316284 -2.0999999046325684,1.4010000228881836 -2.0999999046325684,0 C-2.0999999046325684,-1.399999976158142 -1.2000000476837158,-2.299999952316284 0.10000000149011612,-2.299999952316284 C1.399999976158142,-2.299999952316284 2.299999952316284,-1.399999976158142 2.299999952316284,-0.0989999994635582z M-0.800000011920929,-0.5 C-0.800000011920929,-0.5 1.2000000476837158,-0.5 1.2000000476837158,-0.5 C1.100000023841858,-1 0.699999988079071,-1.2999999523162842 0.20000000298023224,-1.2999999523162842 C-0.30000001192092896,-1.2999999523162842 -0.699999988079071,-1 -0.800000011920929,-0.5z M-7.800000190734863,-2.200000047683716 C-7.800000190734863,-2.200000047683716 -6.599999904632568,-2.200000047683716 -6.599999904632568,-2.200000047683716 C-6.599999904632568,-2.200000047683716 -7.800000190734863,2.200000047683716 -7.800000190734863,2.200000047683716 C-7.800000190734863,2.200000047683716 -9.100000381469727,2.200000047683716 -9.100000381469727,2.200000047683716 C-9.100000381469727,2.200000047683716 -9.899999618530273,-0.5989999771118164 -9.899999618530273,-0.5989999771118164 C-9.899999618530273,-0.5989999771118164 -10.699999809265137,2.200000047683716 -10.699999809265137,2.200000047683716 C-10.699999809265137,2.200000047683716 -12,2.200000047683716 -12,2.200000047683716 C-12,2.200000047683716 -13.199999809265137,-2.200000047683716 -13.199999809265137,-2.200000047683716 C-13.199999809265137,-2.200000047683716 -12,-2.200000047683716 -12,-2.200000047683716 C-12,-2.200000047683716 -11.300000190734863,0.6000000238418579 -11.300000190734863,0.6000000238418579 C-11.300000190734863,0.6000000238418579 -10.5,-2.200000047683716 -10.5,-2.200000047683716 C-10.5,-2.200000047683716 -9.199999809265137,-2.200000047683716 -9.199999809265137,-2.200000047683716 C-9.199999809265137,-2.200000047683716 -8.399999618530273,0.6000000238418579 -8.399999618530273,0.6000000238418579 C-8.399999618530273,0.6000000238418579 -7.800000190734863,-2.200000047683716 -7.800000190734863,-2.200000047683716z M12,-2.200000047683716 C12,-2.200000047683716 13.199999809265137,-2.200000047683716 13.199999809265137,-2.200000047683716 C13.199999809265137,-2.200000047683716 10.899999618530273,4 10.899999618530273,4 C10.899999618530273,4 9.800000190734863,4 9.800000190734863,4 C9.800000190734863,4 10.5,2.200000047683716 10.5,2.200000047683716 C10.5,2.200000047683716 8.699999809265137,-2.200000047683716 8.699999809265137,-2.200000047683716 C8.699999809265137,-2.200000047683716 10,-2.200000047683716 10,-2.200000047683716 C10,-2.200000047683716 11,0.800000011920929 11,0.800000011920929 C11,0.800000011920929 12,-2.200000047683716 12,-2.200000047683716z"></path></g><g opacity="1" transform="matrix(1,0,0,1,183.39999389648438,116.4000015258789)"><path fill="rgb(255,255,255)" fill-opacity="1" d=" M0.0010000000474974513,-14.399999618530273 C7.953000068664551,-14.399999618530273 14.39900016784668,-7.953000068664551 14.39900016784668,0 C14.39900016784668,7.953000068664551 7.953000068664551,14.399999618530273 0.0010000000474974513,14.399999618530273 C-7.952000141143799,14.399999618530273 -14.399999618530273,7.953000068664551 -14.399999618530273,0 C-14.399999618530273,-7.953000068664551 -7.952000141143799,-14.399999618530273 0.0010000000474974513,-14.399999618530273z"></path></g><g opacity="1" transform="matrix(1,0,0,1,191.9499969482422,117.3499984741211)"><path fill="rgb(133,183,22)" fill-opacity="1" d=" M-1.5499999523162842,3.450000047683716 C-1.4500000476837158,3.25 -1.3509999513626099,3.1500000953674316 -1.25,2.950000047683716 C-1.0499999523162842,2.450000047683716 -0.75,2.0510001182556152 -0.550000011920929,1.5509999990463257 C-0.550000011920929,1.5509999990463257 -0.550000011920929,1.4500000476837158 -0.550000011920929,1.4500000476837158 C-0.550000011920929,1.4500000476837158 -2.6510000228881836,-2.4489998817443848 -2.6510000228881836,-2.4489998817443848 C-2.6510000228881836,-2.549999952316284 -2.75,-2.6510000228881836 -2.8510000705718994,-2.750999927520752 C-2.8510000705718994,-2.8510000705718994 -2.950000047683716,-2.8499999046325684 -2.950000047683716,-2.9489998817443848 C-2.950000047683716,-2.9489998817443848 -2.950000047683716,-3.0510001182556152 -2.950000047683716,-3.0510001182556152 C-3.049999952316284,-3.250999927520752 -3.1510000228881836,-3.3510000705718994 -3.25,-3.5510001182556152 C-3.25,-3.5510001182556152 -3.1510000228881836,-3.5510001182556152 -3.1510000228881836,-3.5510001182556152 C-3.1510000228881836,-3.5510001182556152 -1.9500000476837158,-3.5510001182556152 -1.9500000476837158,-3.5510001182556152 C-1.8509999513626099,-3.5510001182556152 -1.8509999513626099,-3.549999952316284 -1.8509999513626099,-3.4489998817443848 C-1.25,-2.1500000953674316 -0.550000011920929,-0.9490000009536743 0.05000000074505806,0.3499999940395355 C0.05000000074505806,0.3499999940395355 0.05000000074505806,0.44999998807907104 0.05000000074505806,0.44999998807907104 C0.6489999890327454,-0.8500000238418579 1.3489999771118164,-2.049999952316284 1.9500000476837158,-3.3499999046325684 C1.9500000476837158,-3.3499999046325684 1.9500000476837158,-3.4489998817443848 2.049999952316284,-3.4489998817443848 C2.049999952316284,-3.4489998817443848 3.1489999294281006,-3.4489998817443848 3.1489999294281006,-3.4489998817443848 C3.1489999294281006,-3.4489998817443848 3.25,-3.4489998817443848 3.25,-3.4489998817443848 C3.25,-3.4489998817443848 3.25,-3.3499999046325684 3.25,-3.3499999046325684 C2.049999952316284,-1.0499999523162842 0.949999988079071,1.25 -0.25,3.450000047683716 C-0.25,3.450000047683716 -0.25,3.5510001182556152 -0.25,3.5510001182556152 C-0.75,3.450000047683716 -1.1510000228881836,3.450000047683716 -1.5499999523162842,3.450000047683716z"></path></g><g opacity="1" transform="matrix(1,0,0,1,178.60000610351562,111.6500015258789)"><path fill="rgb(253,253,253)" fill-opacity="1" d=" M-0.6000000238418579,0.050999999046325684 C-0.6000000238418579,0.050999999046325684 -0.6000000238418579,-0.05000000074505806 -0.6000000238418579,0.050999999046325684 C-0.6000000238418579,0.050999999046325684 0.6000000238418579,-0.050999999046325684 0.6000000238418579,-0.050999999046325684 C0.6000000238418579,-0.050999999046325684 0.6000000238418579,0.050999999046325684 0.6000000238418579,0.050999999046325684 C0.20000000298023224,-0.05000000074505806 -0.20000000298023224,0.050999999046325684 -0.6000000238418579,0.050999999046325684z"></path></g><g opacity="1" transform="matrix(1,0,0,1,181,115.4000015258789)"><path fill="rgb(1,99,209)" fill-opacity="1" d=" M-3,-3.8010001182556152 C-3,-3.8010001182556152 -1.7999999523162842,-3.8010001182556152 -1.7999999523162842,-3.8010001182556152 C-1.7999999523162842,-3.8010001182556152 -1.7999999523162842,-0.8999999761581421 -1.7999999523162842,-0.8999999761581421 C-1.7999999523162842,-0.8999999761581421 -1.7999999523162842,-1 -1.7000000476837158,-1 C-1.5,-1.3009999990463257 -1.2000000476837158,-1.5 -0.8999999761581421,-1.6009999513626099 C-0.4000000059604645,-1.7000000476837158 0,-1.8009999990463257 0.5,-1.8009999990463257 C1,-1.8009999990463257 1.399999976158142,-1.6009999513626099 1.7999999523162842,-1.399999976158142 C2.4000000953674316,-1 2.700000047683716,-0.5 2.9000000953674316,0.19900000095367432 C3,0.6000000238418579 3,1.0010000467300415 3,1.3009999990463257 C3,1.3009999990463257 3,1.399999976158142 3,1.399999976158142 C3,1.5010000467300415 2.9000000953674316,1.7000000476837158 2.9000000953674316,1.8009999990463257 C2.799999952316284,2.000999927520752 2.799999952316284,2.1010000705718994 2.700000047683716,2.3010001182556152 C2.299999952316284,3.000999927520752 1.7999999523162842,3.4000000953674316 1.100000023841858,3.6010000705718994 C0.4000000059604645,3.8010001182556152 -0.30000001192092896,3.700000047683716 -0.8999999761581421,3.500999927520752 C-1.2999999523162842,3.3010001182556152 -1.600000023841858,3.1010000705718994 -1.7999999523162842,2.8010001182556152 C-1.7999999523162842,2.8010001182556152 -1.7999999523162842,3.000999927520752 -1.7999999523162842,3.000999927520752 C-1.7999999523162842,3.000999927520752 -1.7999999523162842,3.4000000953674316 -1.7999999523162842,3.4000000953674316 C-1.7999999523162842,3.4000000953674316 -1.7999999523162842,3.500999927520752 -1.899999976158142,3.500999927520752 C-1.899999976158142,3.500999927520752 -2.9000000953674316,3.500999927520752 -2.9000000953674316,3.500999927520752 C-2.9000000953674316,3.500999927520752 -3,3.500999927520752 -3,3.4000000953674316 C-3,3.4000000953674316 -3,1.3009999990463257 -3,1.3009999990463257 C-3,1.3009999990463257 -3,1.2000000476837158 -3,1.2000000476837158 C-3,1.2000000476837158 -3,0.8999999761581421 -3,0.8999999761581421 C-3,0.8999999761581421 -3,0.4000000059604645 -3,0.4000000059604645 C-3,0.4000000059604645 -3,0.3009999990463257 -3,0.3009999990463257 C-3,0.3009999990463257 -3,-3.8010001182556152 -3,-3.8010001182556152z M0,-1 C0,-1 -0.10000000149011612,-1 -0.10000000149011612,-1 C-0.10000000149011612,-1 -0.20000000298023224,-1 -0.20000000298023224,-1 C-0.800000011920929,-0.8999999761581421 -1.2999999523162842,-0.6010000109672546 -1.600000023841858,-0.10100000351667404 C-1.7999999523162842,0.39899998903274536 -1.899999976158142,0.8999999761581421 -1.7999999523162842,1.399999976158142 C-1.7000000476837158,1.8009999990463257 -1.600000023841858,2.1010000705718994 -1.2999999523162842,2.4000000953674316 C-1,2.700000047683716 -0.6000000238418579,2.8010001182556152 -0.20000000298023224,2.9000000953674316 C0.5,3.000999927520752 1.2000000476837158,2.6010000705718994 1.600000023841858,1.899999976158142 C1.7999999523162842,1.5010000467300415 1.899999976158142,1.0010000467300415 1.7999999523162842,0.5009999871253967 C1.7000000476837158,0.10100000351667404 1.600000023841858,-0.20000000298023224 1.2999999523162842,-0.4000000059604645 C0.8999999761581421,-0.8009999990463257 0.5,-1 0,-1z"></path></g><g opacity="1" transform="matrix(1,0,0,1,186.64999389648438,116.3499984741211)"><path fill="rgb(244,174,3)" fill-opacity="1" d=" M-2.75,0.8500000238418579 C-2.75,0.75 -2.75,0.5509999990463257 -2.6500000953674316,0.44999998807907104 C-2.5510001182556152,0.25 -2.450000047683716,0.15000000596046448 -2.3510000705718994,0.050999999046325684 C-2.1500000953674316,-0.15000000596046448 -1.8509999513626099,-0.3499999940395355 -1.5509999990463257,-0.4490000009536743 C-1.149999976158142,-0.550000011920929 -0.75,-0.6499999761581421 -0.35100001096725464,-0.6499999761581421 C-0.35100001096725464,-0.6499999761581421 1.4490000009536743,-0.6499999761581421 1.4490000009536743,-0.6499999761581421 C1.4490000009536743,-0.6499999761581421 1.6490000486373901,-0.6499999761581421 1.6490000486373901,-0.6499999761581421 C1.6490000486373901,-0.6499999761581421 1.6490000486373901,-0.8500000238418579 1.6490000486373901,-0.8500000238418579 C1.6490000486373901,-0.8500000238418579 1.6490000486373901,-1.25 1.6490000486373901,-1.25 C1.5499999523162842,-1.5499999523162842 1.350000023841858,-1.75 1.0499999523162842,-1.850000023841858 C0.75,-1.9490000009536743 0.4490000009536743,-1.9490000009536743 0.14900000393390656,-1.9490000009536743 C-0.050999999046325684,-1.9490000009536743 -0.35100001096725464,-1.9490000009536743 -0.5509999990463257,-1.850000023841858 C-0.8510000109672546,-1.75 -0.949999988079071,-1.5499999523162842 -1.0509999990463257,-1.25 C-1.0509999990463257,-1.25 -2.1500000953674316,-1.25 -2.1500000953674316,-1.25 C-2.1500000953674316,-1.25 -2.1500000953674316,-1.350000023841858 -2.1500000953674316,-1.350000023841858 C-2.1500000953674316,-1.75 -1.9500000476837158,-2.049999952316284 -1.5509999990463257,-2.3499999046325684 C-1.25,-2.549999952316284 -0.949999988079071,-2.75 -0.5509999990463257,-2.75 C-0.25,-2.75 0.25,-2.75 0.8500000238418579,-2.6500000953674316 C1.25,-2.549999952316284 1.6490000486373901,-2.4489998817443848 1.9490000009536743,-2.25 C2.049999952316284,-2.1500000953674316 2.25,-2.049999952316284 2.3499999046325684,-1.9490000009536743 C2.3499999046325684,-1.9490000009536743 2.4489998817443848,-1.850000023841858 2.4489998817443848,-1.75 C2.549999952316284,-1.649999976158142 2.549999952316284,-1.5499999523162842 2.6489999294281006,-1.4490000009536743 C2.6489999294281006,-1.4490000009536743 2.6489999294281006,-1.25 2.6489999294281006,-1.25 C2.6489999294281006,-1.0499999523162842 2.75,-0.8500000238418579 2.75,-0.6499999761581421 C2.75,-0.6499999761581421 2.75,1.5509999990463257 2.75,1.5509999990463257 C2.75,1.5509999990463257 2.75,2.5510001182556152 2.75,2.5510001182556152 C2.75,2.5510001182556152 1.75,2.5510001182556152 1.75,2.5510001182556152 C1.75,2.5510001182556152 1.6490000486373901,2.450000047683716 1.6490000486373901,2.450000047683716 C1.6490000486373901,2.450000047683716 1.6490000486373901,1.75 1.6490000486373901,1.75 C1.6490000486373901,1.75 1.6490000486373901,1.850000023841858 1.5499999523162842,1.850000023841858 C1.25,2.1500000953674316 0.9490000009536743,2.3499999046325684 0.550000011920929,2.5510001182556152 C0.05000000074505806,2.75 -0.35100001096725464,2.75 -0.8510000109672546,2.75 C-1.25,2.75 -1.649999976158142,2.6500000953674316 -1.9500000476837158,2.450000047683716 C-2.450000047683716,2.1500000953674316 -2.75,1.649999976158142 -2.75,1.0509999990463257 C-2.75,1.0509999990463257 -2.75,0.8500000238418579 -2.75,0.8500000238418579z M-0.25,1.9500000476837158 C-0.25,1.9500000476837158 0.05000000074505806,1.9500000476837158 0.05000000074505806,1.9500000476837158 C0.3499999940395355,1.9500000476837158 0.6489999890327454,1.850000023841858 0.8500000238418579,1.75 C1.25,1.5509999990463257 1.4490000009536743,1.149999976158142 1.5499999523162842,0.75 C1.5499999523162842,0.75 1.5499999523162842,0.25 1.5499999523162842,0.25 C1.5499999523162842,0.25 1.4490000009536743,0.25 1.4490000009536743,0.25 C0.8500000238418579,0.25 0.14900000393390656,0.25 -0.44999998807907104,0.3499999940395355 C-0.6499999761581421,0.3499999940395355 -0.8510000109672546,0.44999998807907104 -1.0509999990463257,0.5509999990463257 C-1.4500000476837158,0.5509999990463257 -1.649999976158142,0.8500000238418579 -1.5509999990463257,1.25 C-1.5509999990463257,1.5509999990463257 -1.3509999513626099,1.75 -1.0509999990463257,1.850000023841858 C-0.8510000109672546,1.9500000476837158 -0.5509999990463257,1.9500000476837158 -0.25,1.9500000476837158z"></path></g><g opacity="1" transform="matrix(1,0,0,1,175.10000610351562,116.3489990234375)"><path fill="rgb(227,49,56)" fill-opacity="1" d=" M2.8989999294281006,-0.550000011920929 C2.8989999294281006,-0.550000011920929 2.8989999294281006,-0.05000000074505806 2.8989999294281006,-0.05000000074505806 C2.8989999294281006,-0.05000000074505806 2.8989999294281006,0.25 2.8989999294281006,0.25 C2.8989999294281006,0.25 -1.6009999513626099,0.25 -1.6009999513626099,0.25 C-1.6009999513626099,0.25 -1.7000000476837158,0.25 -1.7000000476837158,0.35100001096725464 C-1.7000000476837158,1.0509999990463257 -1.2000000476837158,1.6510000228881836 -0.6010000109672546,1.8509999513626099 C-0.10100000351667404,1.9500000476837158 0.39899998903274536,1.9500000476837158 0.800000011920929,1.75 C1.100000023841858,1.6510000228881836 1.3990000486373901,1.3509999513626099 1.4989999532699585,1.0509999990463257 C1.4989999532699585,1.0509999990463257 1.600000023841858,1.0509999990463257 1.600000023841858,1.0509999990463257 C1.600000023841858,1.0509999990463257 2.6989998817443848,1.0509999990463257 2.6989998817443848,1.0509999990463257 C2.6989998817443848,1.5509999990463257 2.499000072479248,1.8509999513626099 2.1989998817443848,2.0510001182556152 C1.8990000486373901,2.3510000705718994 1.4989999532699585,2.5510001182556152 0.9990000128746033,2.6510000228881836 C0.49900001287460327,2.75 -0.0010000000474974513,2.75 -0.6010000109672546,2.6510000228881836 C-0.8999999761581421,2.6510000228881836 -1.3009999990463257,2.5510001182556152 -1.6009999513626099,2.3510000705718994 C-2.200000047683716,2.0510001182556152 -2.6010000705718994,1.5509999990463257 -2.700000047683716,0.949999988079071 C-2.9000000953674316,0.6510000228881836 -2.9000000953674316,0.25 -2.9000000953674316,-0.05000000074505806 C-2.9000000953674316,-0.05000000074505806 -2.9000000953674316,-0.14900000393390656 -2.9000000953674316,-0.14900000393390656 C-2.9000000953674316,-0.4490000009536743 -2.8010001182556152,-0.8489999771118164 -2.700000047683716,-1.1490000486373901 C-2.500999927520752,-1.8489999771118164 -2.000999927520752,-2.3489999771118164 -1.3009999990463257,-2.549999952316284 C-0.8009999990463257,-2.6489999294281006 -0.3009999990463257,-2.75 0.19900000095367432,-2.75 C0.6000000238418579,-2.75 0.9990000128746033,-2.6489999294281006 1.2999999523162842,-2.549999952316284 C2.1989998817443848,-2.25 2.6989998817443848,-1.5499999523162842 2.799999952316284,-0.6489999890327454 C2.799999952316284,-0.6489999890327454 2.8989999294281006,-0.550000011920929 2.8989999294281006,-0.550000011920929z M-0.0010000000474974513,-0.4490000009536743 C-0.0010000000474974513,-0.4490000009536743 0.30000001192092896,-0.4490000009536743 0.30000001192092896,-0.4490000009536743 C0.30000001192092896,-0.4490000009536743 1.6990000009536743,-0.4490000009536743 1.6990000009536743,-0.4490000009536743 C1.6990000009536743,-0.4490000009536743 1.7999999523162842,-0.4490000009536743 1.7999999523162842,-0.550000011920929 C1.7999999523162842,-0.550000011920929 1.7999999523162842,-0.75 1.7999999523162842,-0.75 C1.600000023841858,-1.1490000486373901 1.2999999523162842,-1.5499999523162842 0.8989999890327454,-1.75 C0.30000001192092896,-2.049999952316284 -0.3009999990463257,-2.049999952316284 -0.8999999761581421,-1.75 C-1.399999976158142,-1.4490000009536743 -1.6009999513626099,-1.0499999523162842 -1.7000000476837158,-0.550000011920929 C-1.7000000476837158,-0.4490000009536743 -1.7000000476837158,-0.4490000009536743 -1.6009999513626099,-0.4490000009536743 C-1.6009999513626099,-0.4490000009536743 -0.0010000000474974513,-0.4490000009536743 -0.0010000000474974513,-0.4490000009536743z"></path></g><g opacity="1" transform="matrix(1,0,0,1,189.3000030517578,114.91000366210938)"><path fill="rgb(253,253,253)" fill-opacity="1" d=" M0.050999999046325684,0.05000000074505806 C-0.05000000074505806,0.05000000074505806 -0.05000000074505806,0.05000000074505806 0.050999999046325684,0.05000000074505806 C0.050999999046325684,-0.05000000074505806 0.050999999046325684,0.05000000074505806 0.050999999046325684,0.05000000074505806z"></path></g><g opacity="1" transform="matrix(1,0,0,1,184,116.91000366210938)"><path fill="rgb(253,253,253)" fill-opacity="1" d=" M0.050999999046325684,-0.05000000074505806 C0.050999999046325684,-0.05000000074505806 0.05000000074505806,0.05000000074505806 -0.050999999046325684,0.05000000074505806 C-0.050999999046325684,-0.05000000074505806 -0.05000000074505806,-0.05000000074505806 0.050999999046325684,-0.05000000074505806z"></path></g><g opacity="1" transform="matrix(1,0,0,1,131,101)"><path stroke-linecap="butt" stroke-linejoin="miter" fill-opacity="0" stroke-miterlimit="4" stroke="rgb(255,255,255)" stroke-opacity="1" stroke-width="1" d=" M-130,-100 C-130,-100 130,-100 130,-100 C130,-100 130,100 130,100 C130,100 -130,100 -130,100 C-130,100 -130,-100 -130,-100z"></path></g></g></g></svg>