<svg xmlns="http://www.w3.org/2000/svg" viewBox="0 0 450 450" width="450" height="450" preserveAspectRatio="xMidYMid meet" style="width: 100%; height: 100%; transform: translate3d(0px, 0px, 0px);"><defs><clipPath id="__lottie_element_27"><rect width="450" height="450" x="0" y="0"></rect></clipPath><clipPath id="__lottie_element_29"><path d="M0,0 L450,0 L450,450 L0,450z"></path></clipPath><mask id="__lottie_element_30"><path fill="#ffffff" clip-rule="nonzero" d=" M341.93798828125,229 C341.93798828125,229 341.93798828125,229 341.93798828125,229 C341.93798828125,229 341.93798828125,235 341.93798828125,235 C341.93798828125,235 341.93798828125,235 341.93798828125,235 C341.93798828125,235 341.93798828125,229 341.93798828125,229" fill-opacity="1"></path><path fill="#000000" clip-rule="nonzero" d=" M342.75,229 C342.75,229 341.93798828125,229 341.93798828125,229 C341.93798828125,229 341.93798828125,236.375 341.93798828125,236.375 C341.93798828125,236.375 342.75,236.375 342.75,236.375 C342.75,236.375 342.75,229 342.75,229" fill-opacity="1"></path></mask><clipPath id="__lottie_element_36"><path d="M0,0 L450,0 L450,450 L0,450z"></path></clipPath><mask id="__lottie_element_37"><path fill="#ffffff" clip-rule="nonzero" d=" M341.93798828125,217.375 C341.93798828125,217.375 341.93798828125,217.375 341.93798828125,217.375 C341.93798828125,217.375 341.93798828125,222.875 341.93798828125,222.875 C341.93798828125,222.875 341.93798828125,222.875 341.93798828125,222.875 C341.93798828125,222.875 341.93798828125,217.375 341.93798828125,217.375" fill-opacity="1"></path><path fill="#000000" clip-rule="nonzero" d=" M342.75,216.875 C342.75,216.875 341.93798828125,216.875 341.93798828125,216.875 C341.93798828125,216.875 341.93798828125,223.125 341.93798828125,223.125 C341.93798828125,223.125 342.75,223.125 342.75,223.125 C342.75,223.125 342.75,216.875 342.75,216.875" fill-opacity="1"></path></mask><clipPath id="__lottie_element_43"><path d="M0,0 L450,0 L450,450 L0,450z"></path></clipPath><mask id="__lottie_element_44"><path fill="#ffffff" clip-rule="nonzero" d=" M342.125,203.5 C342.125,203.5 342,203.5 342,203.5 C342,203.5 342,210.75 342,210.75 C342,210.75 342.125,210.75 342.125,210.75 C342.125,210.75 342.125,203.5 342.125,203.5" fill-opacity="1"></path><path fill="#000000" clip-rule="nonzero" d=" M341.75,203.18800354003906 C341.75,203.18800354003906 341.93798828125,203.125 341.93798828125,203.125 C341.93798828125,203.125 341.93798828125,210.75 341.93798828125,210.75 C341.93798828125,210.75 341.875,210.75 341.875,210.75 C341.875,210.75 341.75,203.18800354003906 341.75,203.18800354003906" fill-opacity="1"></path></mask></defs><g clip-path="url(#__lottie_element_27)"><g transform="matrix(2.5,0,0,2.5,-102.5,-27.5)" opacity="1" style="display: block;"><g opacity="1" transform="matrix(1,0,0,1,131,101)"><path stroke-linecap="butt" stroke-linejoin="miter" fill-opacity="0" stroke-miterlimit="4" stroke="rgb(255,255,255)" stroke-opacity="1" stroke-width="1" d=" M-130,-100 C-130,-100 130,-100 130,-100 C130,-100 130,100 130,100 C130,100 -130,100 -130,100 C-130,100 -130,-100 -130,-100z"></path></g><g opacity="1" transform="matrix(1,0,0,1,0.5,0.5)"><path fill="rgb(0,0,0)" fill-opacity="1" d="M0 0"></path></g><g opacity="1" transform="matrix(1,0,0,1,128.89999389648438,104.75)"><path fill="rgb(235,240,245)" fill-opacity="1" d=" M-19.899999618530273,-30.350000381469727 C-19.899999618530273,-30.350000381469727 -29.700000762939453,-28.950000762939453 -35.099998474121094,-23.850000381469727 C-40.5,-18.75 -58.20000076293945,0.3499999940395355 -58.20000076293945,0.3499999940395355 C-58.20000076293945,0.3499999940395355 -71.19999694824219,3.75 -71.19999694824219,3.75 C-71.19999694824219,3.75 -73.4000015258789,4.650000095367432 -73.69999694824219,6.449999809265137 C-74.0999984741211,8.25 -75,18.75 -75,18.75 C-75,18.75 -70.9000015258789,30.25 -70.9000015258789,30.25 C-70.9000015258789,30.25 -44.900001525878906,31.649999618530273 -44.900001525878906,31.649999618530273 C-44.900001525878906,31.649999618530273 56.900001525878906,32.04999923706055 56.900001525878906,32.04999923706055 C56.900001525878906,32.04999923706055 75,27.850000381469727 75,27.850000381469727 C75,27.850000381469727 75,-1.75 75,-1.75 C75,-6.449999809265137 74.5,-11.149999618530273 73.5999984741211,-15.649999618530273 C73.5999984741211,-15.649999618530273 71.0999984741211,-28.149999618530273 71.0999984741211,-28.149999618530273 C70.69999694824219,-30.25 68.9000015258789,-31.649999618530273 66.80000305175781,-31.75 C52,-31.75 -3.5,-32.04999923706055 -19.899999618530273,-30.350000381469727z"></path></g><g opacity="1" transform="matrix(1,0,0,1,56.599998474121094,114.5999984741211)"><path fill="rgb(197,221,227)" fill-opacity="1" d=" M-1.7000000476837158,-2.200000047683716 C-1.7000000476837158,-2.200000047683716 1.600000023841858,-2.4000000953674316 1.600000023841858,-2.4000000953674316 C1.899999976158142,-2.4000000953674316 2.0999999046325684,-2.200000047683716 2.0999999046325684,-1.899999976158142 C2.0999999046325684,-1.899999976158142 1.899999976158142,0.19900000095367432 1.899999976158142,0.19900000095367432 C1.7999999523162842,0.6990000009536743 1.5,1.100000023841858 1,1.2999999523162842 C1,1.2999999523162842 -2.0999999046325684,2.4000000953674316 -2.0999999046325684,2.4000000953674316 C-2.0999999046325684,2.4000000953674316 -1.7999999523162842,-1.3009999990463257 -1.7000000476837158,-2.200000047683716z"></path></g><g opacity="1" transform="matrix(1,0,0,1,129.39999389648438,130.89999389648438)"><path fill="rgb(235,240,245)" fill-opacity="1" d=" M-55.20000076293945,-4.699999809265137 C-49.599998474121094,-4.801000118255615 -44.099998474121094,-4.801000118255615 -38.5,-5 C-33.099998474121094,-5.099999904632568 -27.700000762939453,-5.301000118255615 -22.200000762939453,-5.199999809265137 C-11.199999809265137,-5 -0.30000001192092896,-4 10.699000358581543,-3.5 C21.600000381469727,-3 32.400001525878906,-3.200000047683716 43.29999923706055,-3.9000000953674316 C53.69900131225586,-4.599999904632568 64.0999984741211,-5.599999904632568 74.5999984741211,-5.900000095367432 C74.5999984741211,-5.900000095367432 74.5999984741211,1.6990000009536743 74.5999984741211,1.6990000009536743 C74.5999984741211,1.6990000009536743 56.5,5.900000095367432 56.5,5.900000095367432 C56.5,5.900000095367432 -45.400001525878906,5.5 -45.400001525878906,5.5 C-45.400001525878906,5.5 -71.5,4.198999881744385 -71.5,4.198999881744385 C-71.5,4.198999881744385 -74.5999984741211,-4.5 -74.5999984741211,-4.5 C-68.0999984741211,-4.599999904632568 -61.599998474121094,-4.599999904632568 -55.20000076293945,-4.699999809265137z"></path></g><g opacity="1" transform="matrix(1,0,0,1,60.400001525878906,129.60000610351562)"><path fill="rgb(67,70,79)" fill-opacity="1" d=" M1.7000000476837158,6.300000190734863 C1.7000000476837158,6.300000190734863 -2.5999999046325684,6.099999904632568 -4.800000190734863,5.499000072479248 C-5.400000095367432,5.300000190734863 -5.800000190734863,3.5999999046325684 -5.900000095367432,2.999000072479248 C-5.900000095367432,2.999000072479248 -6.099999904632568,1.6009999513626099 -6.099999904632568,1.6009999513626099 C-6.099999904632568,1.6009999513626099 -7.400000095367432,-0.8989999890327454 -7.400000095367432,-0.8989999890327454 C-7.5,-1.0989999771118164 -7.599999904632568,-1.399999976158142 -7.599999904632568,-1.600000023841858 C-7.599999904632568,-1.600000023841858 -7.599999904632568,-5.199999809265137 -7.599999904632568,-5.199999809265137 C-7.599999904632568,-5.801000118255615 -7.099999904632568,-6.301000118255615 -6.5,-6.301000118255615 C-6.5,-6.301000118255615 7.599999904632568,-6.099999904632568 7.599999904632568,-6.099999904632568 C7.599999904632568,-6.099999904632568 -0.699999988079071,-0.6000000238418579 1.7000000476837158,6.300000190734863z"></path></g><g opacity="1" transform="matrix(1,0,0,1,128.0500030517578,126.89900207519531)"><path fill="rgb(67,70,79)" fill-opacity="1" d=" M72.44999694824219,2.8010001182556152 C72.44999694824219,2.8010001182556152 -72.44999694824219,2.8010001182556152 -72.44999694824219,2.8010001182556152 C-72.44999694824219,2.8010001182556152 -72.44999694824219,-2.8010001182556152 -72.44999694824219,-2.8010001182556152 C-72.44999694824219,-2.8010001182556152 72.44999694824219,-2.8010001182556152 72.44999694824219,-2.8010001182556152 C72.44999694824219,-2.8010001182556152 72.44999694824219,2.8010001182556152 72.44999694824219,2.8010001182556152z"></path></g><g opacity="1" transform="matrix(1,0,0,1,203.5500030517578,129.35000610351562)"><path fill="rgb(67,70,79)" fill-opacity="1" d=" M-3.450000047683716,-5.25 C-3.450000047683716,-5.25 1.3509999513626099,-5.25 1.3509999513626099,-5.25 C1.3509999513626099,-5.25 1.3509999513626099,-0.9490000009536743 1.3509999513626099,-0.9490000009536743 C1.3509999513626099,-0.9490000009536743 0.75,0.75 0.75,0.75 C0.75,0.75 0.75,2.3510000705718994 0.75,2.3510000705718994 C0.75,2.3510000705718994 3.450000047683716,2.3510000705718994 3.450000047683716,2.3510000705718994 C3.450000047683716,2.3510000705718994 3.450000047683716,3.75 3.450000047683716,3.75 C3.450000047683716,3.75 -0.75,5.25 -0.75,5.25 C-0.75,5.25 -3.450000047683716,4.449999809265137 -3.450000047683716,4.449999809265137 C-3.450000047683716,4.449999809265137 -3.450000047683716,-5.25 -3.450000047683716,-5.25z"></path></g><g opacity="1" transform="matrix(1,0,0,1,172.89999389648438,130)"><path fill="rgb(28,32,43)" fill-opacity="1" d=" M-12.399999618530273,6.699999809265137 C-12.5,6.199999809265137 -12.5,5.598999977111816 -12.5,5.098999977111816 C-12.5,-1.4010000228881836 -6.900000095367432,-6.699999809265137 0,-6.699999809265137 C6.900000095367432,-6.699999809265137 12.5,-1.4010000228881836 12.5,5.098999977111816 C12.5,5.699999809265137 12.5,6.199999809265137 12.399999618530273,6.699999809265137 C12.399999618530273,6.699999809265137 -12.399999618530273,6.699999809265137 -12.399999618530273,6.699999809265137z"></path></g><g opacity="1" transform="matrix(1,0,0,1,89.5999984741211,98.0510025024414)"><path fill="rgb(149,190,205)" fill-opacity="1" d=" M14.300000190734863,5.548999786376953 C14.199999809265137,6.650000095367432 13.300000190734863,7.548999786376953 12.199999809265137,7.650000095367432 C12.199999809265137,7.650000095367432 -14.399999618530273,10.74899959564209 -14.399999618530273,10.74899959564209 C-15.699999809265137,10.850000381469727 -16.399999618530273,9.350000381469727 -15.600000381469727,8.449000358581543 C-15.600000381469727,8.449000358581543 0.30000001192092896,-8.75100040435791 0.30000001192092896,-8.75100040435791 C0.699999988079071,-9.151000022888184 1.2000000476837158,-9.451000213623047 1.7999999523162842,-9.550999641418457 C3.9000000953674316,-9.951000213623047 9.300000190734863,-10.850000381469727 14.5,-10.75100040435791 C15.600000381469727,-10.75100040435791 16.399999618530273,-9.75100040435791 16.299999237060547,-8.75100040435791 C16.299999237060547,-8.75100040435791 14.300000190734863,5.548999786376953 14.300000190734863,5.548999786376953z"></path></g><g opacity="1" transform="matrix(1,0,0,1,89.30000305175781,98.05000305175781)"><path fill="rgb(28,57,86)" fill-opacity="1" d=" M13.899999618530273,-10.25 C13.899999618530273,-10.25 14.300000190734863,-10.25 14.300000190734863,-10.25 C14.699999809265137,-10.25 15,-10.050000190734863 15.300000190734863,-9.850000381469727 C15.5,-9.550000190734863 15.699999809265137,-9.149999618530273 15.600000381469727,-8.850000381469727 C15.600000381469727,-8.850000381469727 13.699999809265137,5.449999809265137 13.699999809265137,5.449999809265137 C13.600000381469727,6.35099983215332 12.899999618530273,6.949999809265137 12,7.050000190734863 C12,7.050000190734863 -14.600000381469727,10.149999618530273 -14.600000381469727,10.149999618530273 C-15,10.25 -15.300000190734863,9.949999809265137 -15.5,9.649999618530273 C-15.600000381469727,9.35099983215332 -15.699999809265137,8.949999809265137 -15.399999618530273,8.649999618530273 C-15.399999618530273,8.649999618530273 0.5,-8.550000190734863 0.5,-8.550000190734863 C0.800000011920929,-8.949999809265137 1.2999999523162842,-9.149999618530273 1.7000000476837158,-9.25 C3.700000047683716,-9.350000381469727 8.800000190734863,-10.25 13.899999618530273,-10.25z"></path></g><g opacity="1" transform="matrix(1,0,0,1,89.1500015258789,98.19999694824219)"><path fill="rgb(67,70,79)" fill-opacity="1" d=" M-14.449999809265137,11.199999809265137 C-14.449999809265137,11.199999809265137 12.149999618530273,8.098999977111816 12.149999618530273,8.098999977111816 C13.449999809265137,8 14.550000190734863,6.89900016784668 14.75,5.598999977111816 C14.75,5.598999977111816 16.649999618530273,-8.699999809265137 16.649999618530273,-8.699999809265137 C16.75,-9.401000022888184 16.549999237060547,-10 16.149999618530273,-10.5 C15.75,-11 15.050000190734863,-11.300000190734863 14.449999809265137,-11.300000190734863 C9.149999618530273,-11.300000190734863 3.75,-10.401000022888184 1.649999976158142,-10 C0.949999988079071,-9.901000022888184 0.3499999940395355,-9.5 -0.15000000596046448,-9 C-0.15000000596046448,-9 -16.049999237060547,8.199999809265137 -16.049999237060547,8.199999809265137 C-16.549999237060547,8.800000190734863 -16.75,9.598999977111816 -16.350000381469727,10.300000190734863 C-16.049999237060547,10.89900016784668 -15.350000381469727,11.300000190734863 -14.649999618530273,11.300000190734863 C-14.550000190734863,11.199999809265137 -14.449999809265137,11.199999809265137 -14.449999809265137,11.199999809265137z"></path></g><g opacity="1" transform="matrix(1,0,0,1,101.0999984741211,111.6500015258789)"><path fill="rgb(67,70,79)" fill-opacity="1" d=" M-3.0999999046325684,0.75 C-3.0999999046325684,0.75 3.0999999046325684,0.75 3.0999999046325684,0.75 C3.4000000953674316,0.75 3.5999999046325684,0.550000011920929 3.5999999046325684,0.25 C3.5999999046325684,0.25 3.5999999046325684,-0.25 3.5999999046325684,-0.25 C3.5999999046325684,-0.5509999990463257 3.4000000953674316,-0.75 3.0999999046325684,-0.75 C3.0999999046325684,-0.75 -3.0999999046325684,-0.75 -3.0999999046325684,-0.75 C-3.4000000953674316,-0.75 -3.5999999046325684,-0.5509999990463257 -3.5999999046325684,-0.25 C-3.5999999046325684,-0.25 -3.5999999046325684,0.25 -3.5999999046325684,0.25 C-3.5999999046325684,0.4490000009536743 -3.4000000953674316,0.75 -3.0999999046325684,0.75z"></path></g><g opacity="1" transform="matrix(1,0,0,1,117.55000305175781,111.6500015258789)"><path fill="rgb(67,70,79)" fill-opacity="1" d=" M-3.049999952316284,0.75 C-3.049999952316284,0.75 3.1500000953674316,0.75 3.1500000953674316,0.75 C3.450000047683716,0.75 3.6500000953674316,0.550000011920929 3.6500000953674316,0.25 C3.6500000953674316,0.25 3.6500000953674316,-0.25 3.6500000953674316,-0.25 C3.6500000953674316,-0.5509999990463257 3.450000047683716,-0.75 3.1500000953674316,-0.75 C3.1500000953674316,-0.75 -3.049999952316284,-0.75 -3.049999952316284,-0.75 C-3.3499999046325684,-0.75 -3.549999952316284,-0.5509999990463257 -3.549999952316284,-0.25 C-3.549999952316284,-0.25 -3.549999952316284,0.25 -3.549999952316284,0.25 C-3.6500000953674316,0.4490000009536743 -3.3499999046325684,0.75 -3.049999952316284,0.75z"></path></g><g opacity="1" transform="matrix(1,0,0,1,203.14999389648438,117.6500015258789)"><path fill="rgb(223,129,155)" fill-opacity="1" d=" M-1.5499999523162842,6.449999809265137 C-1.5499999523162842,6.449999809265137 0.949999988079071,6.449999809265137 0.949999988079071,6.449999809265137 C1.649999976158142,6.449999809265137 2.1500000953674316,5.949999809265137 2.1500000953674316,5.250999927520752 C2.1500000953674316,5.250999927520752 2.1500000953674316,-5.249000072479248 2.1500000953674316,-5.249000072479248 C2.1500000953674316,-5.948999881744385 1.649999976158142,-6.448999881744385 0.949999988079071,-6.448999881744385 C0.949999988079071,-6.448999881744385 -1.4490000009536743,-6.448999881744385 -1.4490000009536743,-6.448999881744385 C-1.7489999532699585,-6.448999881744385 -2.049999952316284,-6.150000095367432 -2.049999952316284,-5.849999904632568 C-2.049999952316284,-5.849999904632568 -2.049999952316284,5.849999904632568 -2.049999952316284,5.849999904632568 C-2.1500000953674316,6.250999927520752 -1.850000023841858,6.449999809265137 -1.5499999523162842,6.449999809265137z"></path></g><g opacity="1" transform="matrix(1,0,0,1,172.3000030517578,136.64999389648438)"><path fill="rgb(67,70,79)" fill-opacity="1" d=" M9.899999618530273,-0.050999999046325684 C9.899999618530273,-5.551000118255615 5.5,-9.949999809265137 0,-9.949999809265137 C-5.5,-9.949999809265137 -9.899999618530273,-5.551000118255615 -9.899999618530273,-0.050999999046325684 C-9.899999618530273,5.448999881744385 -5.5,9.848999977111816 0,9.848999977111816 C5.5,9.949000358581543 9.899999618530273,5.448999881744385 9.899999618530273,-0.050999999046325684z"></path></g><g opacity="1" transform="matrix(1,0,0,1,172.39999389648438,136.6510009765625)"><path fill="rgb(255,255,255)" fill-opacity="1" d=" M5.699999809265137,-0.050999999046325684 C5.699999809265137,-3.25 3.0999999046325684,-5.75 0.0010000000474974513,-5.75 C-3.1989998817443848,-5.75 -5.698999881744385,-3.1510000228881836 -5.698999881744385,-0.050999999046325684 C-5.698999881744385,3.1489999294281006 -3.0999999046325684,5.64900016784668 0.0010000000474974513,5.64900016784668 C3.0999999046325684,5.75 5.699999809265137,3.1489999294281006 5.699999809265137,-0.050999999046325684z"></path></g><g opacity="1" transform="matrix(1,0,0,1,71.94999694824219,129.3000030517578)"><path fill="rgb(28,32,43)" fill-opacity="1" d=" M-12.149999618530273,6.5 C-12.25,5.800000190734863 -12.149999618530273,5.800000190734863 -12.149999618530273,5 C-12.149999618530273,-1.7000000476837158 -6.650000095367432,-7.199999809265137 0.05000000074505806,-7.199999809265137 C6.75,-7.199999809265137 12.25,-1.7000000476837158 12.25,5 C12.25,5.699999809265137 12.149999618530273,6.5 12.050000190734863,7.199999809265137 C12.050000190734863,7.199999809265137 -12.149999618530273,6.5 -12.149999618530273,6.5z"></path></g><g opacity="1" transform="matrix(1,0,0,1,72,136.60000610351562)"><path fill="rgb(67,70,79)" fill-opacity="1" d=" M9.899999618530273,0 C9.899999618530273,-5.5 5.5,-9.89900016784668 0,-9.89900016784668 C-5.5,-9.89900016784668 -9.899999618530273,-5.5 -9.899999618530273,0 C-9.899999618530273,5.5 -5.5,9.899999618530273 0,9.899999618530273 C5.5,9.899999618530273 9.899999618530273,5.5 9.899999618530273,0z"></path></g><g opacity="1" transform="matrix(1,0,0,1,72,136.6510009765625)"><path fill="rgb(255,255,255)" fill-opacity="1" d=" M5.699999809265137,-0.050999999046325684 C5.699999809265137,-3.25 3.0999999046325684,-5.75 0,-5.75 C-3.200000047683716,-5.75 -5.699999809265137,-3.1510000228881836 -5.699999809265137,-0.050999999046325684 C-5.699999809265137,3.1489999294281006 -3.0999999046325684,5.64900016784668 0,5.64900016784668 C3.0999999046325684,5.75 5.699999809265137,3.1489999294281006 5.699999809265137,-0.050999999046325684z"></path></g><g opacity="1" transform="matrix(1,0,0,1,168.6959991455078,98.73999786376953)"><path fill="rgb(19,124,168)" fill-opacity="1" d=" M0.30000001192092896,11.699999809265137 C0.30000001192092896,11.699999809265137 10,6.098999977111816 10,6.098999977111816 C10.199999809265137,6 10.300000190734863,5.800000190734863 10.300000190734863,5.598999977111816 C10.300000190734863,5.598999977111816 10.300000190734863,-5.599999904632568 10.300000190734863,-5.599999904632568 C10.300000190734863,-5.800000190734863 10.199999809265137,-6 10,-6.099999904632568 C10,-6.099999904632568 0.30000001192092896,-11.699999809265137 0.30000001192092896,-11.699999809265137 C0.10000000149011612,-11.800000190734863 -0.20000000298023224,-11.800000190734863 -0.4000000059604645,-11.699999809265137 C-0.4000000059604645,-11.699999809265137 -10.100000381469727,-6.099999904632568 -10.100000381469727,-6.099999904632568 C-10.199999809265137,-6 -10.300000190734863,-5.800000190734863 -10.300000190734863,-5.599999904632568 C-10.300000190734863,-5.599999904632568 -10.300000190734863,5.598999977111816 -10.300000190734863,5.598999977111816 C-10.300000190734863,5.800000190734863 -10.199999809265137,6 -10,6.098999977111816 C-10,6.098999977111816 -0.30000001192092896,11.699999809265137 -0.30000001192092896,11.699999809265137 C-0.20000000298023224,11.800000190734863 -0.10000000149011612,11.800000190734863 0,11.800000190734863 C0.10000000149011612,11.800000190734863 0.20000000298023224,11.699999809265137 0.30000001192092896,11.699999809265137z"></path></g><g opacity="1" transform="matrix(1,0,0,1,168.5959930419922,95.98899841308594)"><path fill="rgb(235,240,245)" fill-opacity="1" d=" M0,3.450000047683716 C0.10100000351667404,3.450000047683716 0.20000000298023224,3.450000047683716 0.3009999990463257,3.3499999046325684 C0.3009999990463257,3.3499999046325684 10,-2.25 10,-2.25 C10.300999641418457,-2.450000047683716 10.399999618530273,-2.8499999046325684 10.199999809265137,-3.049999952316284 C10,-3.3499999046325684 9.60099983215332,-3.450000047683716 9.399999618530273,-3.25 C9.399999618530273,-3.25 0,2.1500000953674316 0,2.1500000953674316 C0,2.1500000953674316 -9.39900016784668,-3.25 -9.39900016784668,-3.25 C-9.699000358581543,-3.450000047683716 -10.100000381469727,-3.3499999046325684 -10.199000358581543,-3.049999952316284 C-10.39900016784668,-2.75 -10.300000190734863,-2.3499999046325684 -10,-2.25 C-10,-2.25 -0.30000001192092896,3.3499999046325684 -0.30000001192092896,3.3499999046325684 C-0.19900000095367432,3.450000047683716 -0.10000000149011612,3.450000047683716 0,3.450000047683716z"></path></g><g opacity="1" transform="matrix(1,0,0,1,168.5959930419922,104.44000244140625)"><path fill="rgb(235,240,245)" fill-opacity="1" d=" M0,6.199999809265137 C0.3009999990463257,6.199999809265137 0.6010000109672546,5.89900016784668 0.6010000109672546,5.598999977111816 C0.6010000109672546,5.598999977111816 0.6010000109672546,-5.599999904632568 0.6010000109672546,-5.599999904632568 C0.6010000109672546,-5.901000022888184 0.3009999990463257,-6.199999809265137 0,-6.199999809265137 C-0.30000001192092896,-6.199999809265137 -0.6000000238418579,-5.901000022888184 -0.6000000238418579,-5.599999904632568 C-0.6000000238418579,-5.599999904632568 -0.6000000238418579,5.5 -0.6000000238418579,5.5 C-0.6000000238418579,5.89900016784668 -0.30000001192092896,6.199999809265137 0,6.199999809265137z"></path></g><g opacity="1" transform="matrix(1,0,0,1,95.9000015258789,97.5999984741211)"><path fill="rgb(148,190,206)" fill-opacity="1" d=" M-8.199999809265137,9.199999809265137 C-8.199999809265137,9.199999809265137 -5.699999809265137,-7.800000190734863 -5.699999809265137,-7.800000190734863 C-0.30000001192092896,-8.800000190734863 4.099999904632568,-9.199999809265137 7.5,-8.899999618530273 C7.800000190734863,-8.800000190734863 8.199999809265137,-8.600000381469727 8.199999809265137,-7.400000095367432 C8.199999809265137,-6.599999904632568 7.599999904632568,-2.0999999046325684 6.400000095367432,6.199999809265137 C6.099999904632568,7.099999904632568 5.5,7.699999809265137 4.599999904632568,7.801000118255615 C3.700000047683716,7.900000095367432 -0.6000000238418579,8.399999618530273 -8.199999809265137,9.199999809265137z"></path></g><g opacity="1" transform="matrix(1,0,0,1,84.25,99.5)"><path fill="rgb(148,190,206)" fill-opacity="1" d=" M4.75,-8.300000190734863 C4.75,-8.300000190734863 -4.75,1.899999976158142 -4.75,1.899999976158142 C-4.75,1.899999976158142 -4.75,8.300000190734863 -4.75,8.300000190734863 C-4.75,8.300000190734863 2.549999952316284,7.400000095367432 2.549999952316284,7.400000095367432 C2.549999952316284,7.400000095367432 4.75,-8.300000190734863 4.75,-8.300000190734863z"></path></g><g opacity="1" transform="matrix(1,0,0,1,131,118.3499984741211)"><path fill="rgb(67,70,79)" fill-opacity="1" d=" M69,-3.049999952316284 C69,-3.049999952316284 66.80000305175781,-3.049999952316284 63.099998474121094,-3.1500000953674316 C61.20000076293945,-3.1500000953674316 58.900001525878906,-3.1500000953674316 56.29999923706055,-3.25 C56.29999923706055,-3.25 47.5,-3.25 47.5,-3.25 C47.5,-3.25 37,-3.25 37,-3.25 C37,-3.25 25.299999237060547,-3.25 25.299999237060547,-3.25 C25.299999237060547,-3.25 19.100000381469727,-3.25 19.100000381469727,-3.25 C19.100000381469727,-3.25 16,-3.25 16,-3.25 C16,-3.25 12.800000190734863,-3.25 12.800000190734863,-3.25 C8.5,-3.1500000953674316 4.199999809265137,-3.049999952316284 -0.10000000149011612,-2.9489998817443848 C-2.299999952316284,-2.8499999046325684 -4.400000095367432,-2.8499999046325684 -6.599999904632568,-2.75 C-8.800000190734863,-2.6500000953674316 -10.899999618530273,-2.549999952316284 -13,-2.4489998817443848 C-15.100000381469727,-2.3499999046325684 -17.200000762939453,-2.25 -19.299999237060547,-2.1500000953674316 C-20.299999237060547,-2.049999952316284 -21.399999618530273,-2.049999952316284 -22.399999618530273,-1.9490000009536743 C-23.399999618530273,-1.850000023841858 -24.399999618530273,-1.850000023841858 -25.5,-1.75 C-26.5,-1.649999976158142 -27.5,-1.649999976158142 -28.5,-1.5499999523162842 C-29,-1.5499999523162842 -29.5,-1.4490000009536743 -30,-1.4490000009536743 C-30.5,-1.4490000009536743 -31,-1.350000023841858 -31.5,-1.350000023841858 C-33.400001525878906,-1.149999976158142 -35.29999923706055,-1.0499999523162842 -37.20000076293945,-0.8500000238418579 C-40.900001525878906,-0.550000011920929 -44.400001525878906,-0.15000000596046448 -47.599998474121094,0.15000000596046448 C-49.20000076293945,0.3499999940395355 -50.79999923706055,0.5509999990463257 -52.20000076293945,0.6499999761581421 C-53.70000076293945,0.8500000238418579 -55.099998474121094,1.0509999990463257 -56.400001525878906,1.149999976158142 C-57.099998474121094,1.25 -57.70000076293945,1.350000023841858 -58.29999923706055,1.4500000476837158 C-58.900001525878906,1.5509999990463257 -59.5,1.649999976158142 -60.099998474121094,1.75 C-61.20000076293945,1.9500000476837158 -62.29999923706055,2.0510001182556152 -63.20000076293945,2.25 C-63.70000076293945,2.3499999046325684 -64.0999984741211,2.3499999046325684 -64.5,2.450000047683716 C-64.9000015258789,2.5510001182556152 -65.30000305175781,2.5510001182556152 -65.69999694824219,2.6500000953674316 C-66.4000015258789,2.75 -67,2.8499999046325684 -67.5,2.950000047683716 C-68.5,3.1500000953674316 -69,3.25 -69,3.25 C-69,3.25 -68.5,3.1500000953674316 -67.5,3.0510001182556152 C-67,2.950000047683716 -66.4000015258789,2.8499999046325684 -65.69999694824219,2.75 C-65.30000305175781,2.6500000953674316 -64.9000015258789,2.6500000953674316 -64.5,2.5510001182556152 C-64.0999984741211,2.450000047683716 -63.599998474121094,2.450000047683716 -63.20000076293945,2.3499999046325684 C-62.29999923706055,2.25 -61.20000076293945,2.0510001182556152 -60.099998474121094,1.9500000476837158 C-59.5,1.850000023841858 -58.900001525878906,1.75 -58.29999923706055,1.75 C-57.70000076293945,1.649999976158142 -57.099998474121094,1.649999976158142 -56.400001525878906,1.5509999990463257 C-55.099998474121094,1.4500000476837158 -53.70000076293945,1.25 -52.20000076293945,1.0509999990463257 C-50.70000076293945,0.949999988079071 -49.20000076293945,0.75 -47.599998474121094,0.5509999990463257 C-46.79999923706055,0.44999998807907104 -46,0.3499999940395355 -45.099998474121094,0.3499999940395355 C-44.29999923706055,0.25 -43.400001525878906,0.25 -42.5,0.15000000596046448 C-42.099998474121094,0.15000000596046448 -41.599998474121094,0.050999999046325684 -41.20000076293945,0.050999999046325684 C-40.79999923706055,0.050999999046325684 -40.29999923706055,-0.05000000074505806 -39.900001525878906,-0.05000000074505806 C-39,-0.15000000596046448 -38.099998474121094,-0.15000000596046448 -37.20000076293945,-0.25 C-35.400001525878906,-0.4490000009536743 -33.400001525878906,-0.550000011920929 -31.5,-0.6499999761581421 C-31,-0.6499999761581421 -30.5,-0.75 -30,-0.75 C-29.5,-0.75 -29,-0.8500000238418579 -28.5,-0.8500000238418579 C-27.5,-0.9490000009536743 -26.5,-0.9490000009536743 -25.5,-1.0499999523162842 C-24.5,-1.149999976158142 -23.5,-1.149999976158142 -22.399999618530273,-1.25 C-21.399999618530273,-1.350000023841858 -20.299999237060547,-1.350000023841858 -19.299999237060547,-1.4490000009536743 C-18.299999237060547,-1.4490000009536743 -17.200000762939453,-1.5499999523162842 -16.200000762939453,-1.5499999523162842 C-15.100000381469727,-1.5499999523162842 -14.100000381469727,-1.649999976158142 -13,-1.649999976158142 C-10.899999618530273,-1.75 -8.699999809265137,-1.850000023841858 -6.599999904632568,-1.850000023841858 C-4.5,-1.9490000009536743 -2.299999952316284,-1.9490000009536743 -0.10000000149011612,-2.049999952316284 C4.199999809265137,-2.1500000953674316 8.5,-2.25 12.800000190734863,-2.3499999046325684 C17,-2.4489998817443848 21.200000762939453,-2.4489998817443848 25.299999237060547,-2.549999952316284 C33.400001525878906,-2.6500000953674316 41,-2.75 47.400001525878906,-2.75 C53.900001525878906,-2.8499999046325684 59.29999923706055,-2.8499999046325684 63.099998474121094,-2.9489998817443848 C66.9000015258789,-3.049999952316284 69,-3.049999952316284 69,-3.049999952316284z"></path></g><g opacity="1" transform="matrix(1,0,0,1,128.89999389648438,104.80000305175781)"><path fill="rgb(255,255,255)" fill-opacity="1" d=" M14.600000381469727,20 C14.899999618530273,20 15.300000190734863,19.799999237060547 15.399999618530273,19.60099983215332 C15.5,19.5 15.5,19.299999237060547 15.5,19.200000762939453 C15.5,19.200000762939453 15.5,18.799999237060547 15.5,18.799999237060547 C15.5,18.799999237060547 15.5,17.10099983215332 15.5,17.10099983215332 C15.5,17.10099983215332 15.600000381469727,13.800000190734863 15.600000381469727,13.800000190734863 C15.600000381469727,13.800000190734863 15.800000190734863,7.10099983215332 15.800000190734863,7.10099983215332 C15.800000190734863,7.10099983215332 16.200000762939453,-6.300000190734863 16.200000762939453,-6.300000190734863 C16.200000762939453,-6.300000190734863 16.399999618530273,-13 16.399999618530273,-13 C16.399999618530273,-13 16.5,-16.299999237060547 16.5,-16.299999237060547 C16.5,-16.299999237060547 16.5,-18 16.5,-18 C16.5,-18 16.5,-18.799999237060547 16.5,-18.799999237060547 C16.5,-18.799999237060547 16.5,-19.200000762939453 16.5,-19.200000762939453 C16.5,-19.299999237060547 16.5,-19.5 16.399999618530273,-19.600000381469727 C16.299999237060547,-19.899999618530273 15.899999618530273,-20 15.600000381469727,-20 C15.600000381469727,-20 14.600000381469727,-20 14.600000381469727,-20 C14.600000381469727,-20 12.5,-20 12.5,-20 C12.5,-20 8.399999618530273,-20 8.399999618530273,-20 C8.399999618530273,-20 0.10000000149011612,-20 0.10000000149011612,-20 C0.10000000149011612,-20 -8.199999809265137,-20 -8.199999809265137,-20 C-8.199999809265137,-20 -12.300000190734863,-20 -12.300000190734863,-20 C-12.300000190734863,-20 -14.399999618530273,-20 -14.399999618530273,-20 C-14.399999618530273,-20 -15.399999618530273,-20 -15.399999618530273,-20 C-15.399999618530273,-20 -15.699999809265137,-20 -15.699999809265137,-20 C-15.800000190734863,-20 -15.899999618530273,-20 -15.899999618530273,-19.899999618530273 C-16.100000381469727,-19.799999237060547 -16.200000762939453,-19.700000762939453 -16.299999237060547,-19.600000381469727 C-16.399999618530273,-19.5 -16.399999618530273,-19.299999237060547 -16.399999618530273,-19.200000762939453 C-16.399999618530273,-19.200000762939453 -16.399999618530273,-18.799999237060547 -16.399999618530273,-18.799999237060547 C-16.399999618530273,-18.799999237060547 -16.399999618530273,-18 -16.399999618530273,-18 C-16.399999618530273,-18 -16.399999618530273,-16.299999237060547 -16.399999618530273,-16.299999237060547 C-16.399999618530273,-16.299999237060547 -16.399999618530273,-13 -16.399999618530273,-13 C-16.399999618530273,-13 -16.399999618530273,-6.300000190734863 -16.399999618530273,-6.300000190734863 C-16.399999618530273,-6.300000190734863 -16.5,7.10099983215332 -16.5,7.10099983215332 C-16.5,7.10099983215332 -16.5,13.800000190734863 -16.5,13.800000190734863 C-16.5,13.800000190734863 -16.5,17.10099983215332 -16.5,17.10099983215332 C-16.5,17.10099983215332 -16.5,18.799999237060547 -16.5,18.799999237060547 C-16.5,18.799999237060547 -16.5,19.200000762939453 -16.5,19.200000762939453 C-16.5,19.200000762939453 -16.5,19.399999618530273 -16.5,19.399999618530273 C-16.5,19.5 -16.5,19.5 -16.399999618530273,19.60099983215332 C-16.200000762939453,19.899999618530273 -15.899999618530273,20 -15.600000381469727,20 C-15.899999618530273,20 -16.299999237060547,19.799999237060547 -16.399999618530273,19.60099983215332 C-16.399999618530273,19.5 -16.5,19.5 -16.5,19.399999618530273 C-16.5,19.399999618530273 -16.5,19.200000762939453 -16.5,19.200000762939453 C-16.5,19.200000762939453 -16.5,18.799999237060547 -16.5,18.799999237060547 C-16.5,18.799999237060547 -16.399999618530273,17.10099983215332 -16.399999618530273,17.10099983215332 C-16.399999618530273,17.10099983215332 -16.299999237060547,13.800000190734863 -16.299999237060547,13.800000190734863 C-16.299999237060547,13.800000190734863 -16.100000381469727,7.10099983215332 -16.100000381469727,7.10099983215332 C-16.100000381469727,7.10099983215332 -15.800000190734863,-6.300000190734863 -15.800000190734863,-6.300000190734863 C-15.800000190734863,-8.5 -15.699999809265137,-10.800000190734863 -15.699999809265137,-13 C-15.699999809265137,-13 -15.699999809265137,-16.299999237060547 -15.699999809265137,-16.299999237060547 C-15.699999809265137,-16.299999237060547 -15.699999809265137,-18 -15.699999809265137,-18 C-15.699999809265137,-18 -15.699999809265137,-18.799999237060547 -15.699999809265137,-18.799999237060547 C-15.699999809265137,-18.799999237060547 -15.699999809265137,-19.200000762939453 -15.699999809265137,-19.200000762939453 C-15.699999809265137,-19.200000762939453 -15.699999809265137,-19.299999237060547 -15.699999809265137,-19.299999237060547 C-15.699999809265137,-19.299999237060547 -15.699999809265137,-19.399999618530273 -15.699999809265137,-19.399999618530273 C-15.699999809265137,-19.399999618530273 -15.600000381469727,-19.5 -15.600000381469727,-19.5 C-15.600000381469727,-19.5 -15.5,-19.5 -15.5,-19.5 C-15.5,-19.5 -15.399999618530273,-19.5 -15.399999618530273,-19.5 C-15.399999618530273,-19.5 -14.399999618530273,-19.5 -14.399999618530273,-19.5 C-14.399999618530273,-19.5 -12.300000190734863,-19.5 -12.300000190734863,-19.5 C-12.300000190734863,-19.5 -8.199999809265137,-19.5 -8.199999809265137,-19.5 C-8.199999809265137,-19.5 -4.099999904632568,-19.5 -4.099999904632568,-19.5 C-4.099999904632568,-19.5 0,-19.5 0,-19.5 C0,-19.5 8.300000190734863,-19.5 8.300000190734863,-19.5 C8.300000190734863,-19.5 12.399999618530273,-19.5 12.399999618530273,-19.5 C12.399999618530273,-19.5 14.5,-19.5 14.5,-19.5 C14.5,-19.5 15.5,-19.5 15.5,-19.5 C15.600000381469727,-19.5 15.800000190734863,-19.399999618530273 15.800000190734863,-19.299999237060547 C15.800000190734863,-19.299999237060547 15.800000190734863,-19.200000762939453 15.800000190734863,-19.200000762939453 C15.800000190734863,-19.200000762939453 15.800000190734863,-19.100000381469727 15.800000190734863,-19.100000381469727 C15.800000190734863,-19.100000381469727 15.800000190734863,-18.700000762939453 15.800000190734863,-18.700000762939453 C15.800000190734863,-18.700000762939453 15.800000190734863,-17.899999618530273 15.800000190734863,-17.899999618530273 C15.800000190734863,-17.899999618530273 15.800000190734863,-16.200000762939453 15.800000190734863,-16.200000762939453 C15.800000190734863,-16.200000762939453 15.699999809265137,-12.899999618530273 15.699999809265137,-12.899999618530273 C15.699999809265137,-11.800000190734863 15.699999809265137,-10.699999809265137 15.600000381469727,-9.600000381469727 C15.600000381469727,-9.600000381469727 15.600000381469727,-6.300000190734863 15.600000381469727,-6.300000190734863 C15.600000381469727,-6.300000190734863 15.5,0.4000000059604645 15.5,0.4000000059604645 C15.5,0.4000000059604645 15.399999618530273,3.700000047683716 15.399999618530273,3.700000047683716 C15.399999618530273,3.700000047683716 15.399999618530273,7 15.399999618530273,7 C15.399999618530273,7 15.300000190734863,13.699999809265137 15.300000190734863,13.699999809265137 C15.300000190734863,13.699999809265137 15.300000190734863,17 15.300000190734863,17 C15.300000190734863,17 15.300000190734863,18.700000762939453 15.300000190734863,18.700000762939453 C15.300000190734863,18.700000762939453 15.300000190734863,19.10099983215332 15.300000190734863,19.10099983215332 C15.300000190734863,19.200000762939453 15.300000190734863,19.399999618530273 15.199999809265137,19.5 C15.300000190734863,19.799999237060547 15,20 14.600000381469727,20z"></path></g><g opacity="1" transform="matrix(1,0,0,1,147,79.6500015258789)"><path fill="rgb(0,0,0)" fill-opacity="1" d=" M-53,0.8500000238418579 C-52.70000076293945,0.75 -52.5,0.6499999761581421 -52.20000076293945,0.6499999761581421 C-51.900001525878906,0.550000011920929 -51.70000076293945,0.550000011920929 -51.400001525878906,0.44999998807907104 C-51.099998474121094,0.44999998807907104 -50.900001525878906,0.3499999940395355 -50.599998474121094,0.3499999940395355 C-50.599998474121094,0.3499999940395355 -49.79999923706055,0.25 -49.79999923706055,0.25 C-49.29999923706055,0.15000000596046448 -48.70000076293945,0.15000000596046448 -48.20000076293945,0.05000000074505806 C-48.20000076293945,0.05000000074505806 -47.400001525878906,-0.05000000074505806 -47.400001525878906,-0.05000000074505806 C-47.400001525878906,-0.05000000074505806 -46.599998474121094,-0.15000000596046448 -46.599998474121094,-0.15000000596046448 C-44.400001525878906,-0.3499999940395355 -42.20000076293945,-0.3499999940395355 -40,-0.44999998807907104 C-35.599998474121094,-0.550000011920929 -31.200000762939453,-0.550000011920929 -26.700000762939453,-0.44999998807907104 C-26.700000762939453,-0.44999998807907104 -20.100000381469727,-0.3499999940395355 -20.100000381469727,-0.3499999940395355 C-20.100000381469727,-0.3499999940395355 -13.5,-0.25 -13.5,-0.25 C-13.5,-0.25 -10.199999809265137,-0.25 -10.199999809265137,-0.25 C-10.199999809265137,-0.25 -6.900000095367432,-0.25 -6.900000095367432,-0.25 C-6.900000095367432,-0.25 -0.30000001192092896,-0.25 -0.30000001192092896,-0.25 C-0.30000001192092896,-0.25 3,-0.25 3,-0.25 C3,-0.25 6.300000190734863,-0.25 6.300000190734863,-0.25 C6.300000190734863,-0.25 12.899999618530273,-0.25 12.899999618530273,-0.25 C12.899999618530273,-0.25 19.5,-0.25 19.5,-0.25 C19.5,-0.25 26.100000381469727,-0.25 26.100000381469727,-0.25 C26.100000381469727,-0.25 39.79999923706055,-0.25 39.79999923706055,-0.25 C39.79999923706055,-0.25 46.400001525878906,-0.3499999940395355 46.400001525878906,-0.3499999940395355 C46.400001525878906,-0.3499999940395355 49.70000076293945,-0.3499999940395355 49.70000076293945,-0.3499999940395355 C49.70000076293945,-0.3499999940395355 53,-0.44999998807907104 53,-0.44999998807907104 C35.400001525878906,-0.550000011920929 17.700000762939453,-0.6499999761581421 0,-0.75 C-8.800000190734863,-0.75 -17.700000762939453,-0.8500000238418579 -26.5,-0.8500000238418579 C-30.899999618530273,-0.8500000238418579 -35.29999923706055,-0.8500000238418579 -39.79999923706055,-0.6499999761581421 C-42,-0.550000011920929 -44.20000076293945,-0.44999998807907104 -46.400001525878906,-0.25 C-46.400001525878906,-0.25 -47.20000076293945,-0.15000000596046448 -47.20000076293945,-0.15000000596046448 C-47.20000076293945,-0.15000000596046448 -48,-0.05000000074505806 -48,-0.05000000074505806 C-48.599998474121094,0.05000000074505806 -49.099998474121094,0.05000000074505806 -49.599998474121094,0.15000000596046448 C-49.599998474121094,0.15000000596046448 -50.400001525878906,0.25 -50.400001525878906,0.25 C-50.70000076293945,0.25 -50.900001525878906,0.3499999940395355 -51.20000076293945,0.44999998807907104 C-51.5,0.550000011920929 -51.70000076293945,0.550000011920929 -52,0.6499999761581421 C-52.5,0.6499999761581421 -52.79999923706055,0.75 -53,0.8500000238418579z"></path></g></g><g clip-path="url(#__lottie_element_43)" transform="matrix(1,0,0,1,0,0)" opacity="1" style="display: block;"><g mask="url(#__lottie_element_44)"><g transform="matrix(2.5,0,0,2.5,-102.5,-27.5)" opacity="1" style="display: block;"><g opacity="1" transform="matrix(1,0,0,1,188.0959930419922,94.13899993896484)"><path fill="rgb(19,124,168)" fill-opacity="1" d=" M-9.399999618530273,-0.5 C-9.399999618530273,-0.5 -9.399999618530273,-0.6000000238418579 -9.399999618530273,-0.5 C-9.399999618530273,-0.5 9.399999618530273,-0.6000000238418579 9.399999618530273,-0.6000000238418579 C9.399999618530273,-0.6000000238418579 -9.399999618530273,0.6000000238418579 -9.399999618530273,0.6000000238418579 C-9.399999618530273,0.6000000238418579 -9.399999618530273,-0.5 -9.399999618530273,-0.5z"></path></g></g></g></g><g clip-path="url(#__lottie_element_36)" transform="matrix(1,0,0,1,0,0)" opacity="1" style="display: block;"><g mask="url(#__lottie_element_37)"><g transform="matrix(2.5,0,0,2.5,-102.5,-27.5)" opacity="1" style="display: block;"><g opacity="1" transform="matrix(1,0,0,1,186.3459930419922,99.23899841308594)"><path fill="rgb(19,124,168)" fill-opacity="1" d=" M-7.849999904632568,-0.6000000238418579 C-7.849999904632568,-0.6000000238418579 7.949999809265137,-0.6000000238418579 7.949999809265137,-0.6000000238418579 C7.949999809265137,-0.6000000238418579 -7.949999809265137,0.6000000238418579 -7.949999809265137,0.6000000238418579 C-7.849999904632568,0.20000000298023224 -7.849999904632568,-0.20000000298023224 -7.849999904632568,-0.6000000238418579z"></path></g></g></g></g><g clip-path="url(#__lottie_element_29)" transform="matrix(1,0,0,1,0,0)" opacity="1" style="display: block;"><g mask="url(#__lottie_element_30)"><g transform="matrix(2.5,0,0,2.5,-102.5,-27.5)" opacity="1" style="display: block;"><g opacity="1" transform="matrix(1,0,0,1,184.54600524902344,103.88899993896484)"><path fill="rgb(19,124,168)" fill-opacity="1" d=" M-6.348999977111816,-0.5509999990463257 C-6.348999977111816,-0.5509999990463257 6.451000213623047,-0.5509999990463257 6.451000213623047,-0.5509999990463257 C6.451000213623047,-0.5509999990463257 -6.451000213623047,0.5509999990463257 -6.451000213623047,0.5509999990463257 C-6.451000213623047,0.15000000596046448 -6.348999977111816,-0.1509999930858612 -6.348999977111816,-0.5509999990463257z"></path></g></g></g></g></g></svg>