<svg width="33" height="31" fill="none" xmlns="http://www.w3.org/2000/svg"><path fill-rule="evenodd" clip-rule="evenodd" d="M29.817 6.788a6.454 6.454 0 011.957 2.645c.382.93.546 1.938.48 2.945a5.943 5.943 0 01-.866 2.69 6.021 6.021 0 01-2.107 2.03c-.48.253-.972.478-1.476.674-.47.202-.926.426-1.379.663a40.242 40.242 0 00-3.049 1.782 76.143 76.143 0 00-3.205 2.153c-.77.54-3.395 4.473-4.702 6.475 5.978-.258 11.036-4.62 12.318-10.623l.171-.075.28-.12a9.535 9.535 0 001.236-.575c.084-.048.162-.099.242-.15-.902 7.13-6.509 12.658-13.482 13.29-6.973.634-13.437-3.798-15.542-10.656-2.106-6.858.713-14.297 6.778-17.888 6.065-3.59 13.745-2.367 18.466 2.942h-.181a7.24 7.24 0 00-2.015.284C19.912 1.733 14.426.81 9.697 2.91c-4.728 2.101-7.83 6.84-7.94 12.131 1.56-.508 4.27-1.427 4.584-1.759.67-.71 1.342-1.425 1.97-2.172.194-.217.372-.448.534-.691.05-.08.09-.166.121-.256.099-.264.238-.511.413-.73a4.559 4.559 0 01-.213-.68 2.152 2.152 0 01-.181-.54 4.923 4.923 0 01-.119-1.46c.03-.398.148-1.009.651-1.009a.925.925 0 01.457.21c.51.342.984.741 1.41 1.19h.048l1.61-.188c.668-.1 1.342-.136 2.015-.106.294.028.584.09.864.187.29.097.585.179.884.246a7.48 7.48 0 001.729.187 6.292 6.292 0 003.167-.934c.127-.056.254-.114.38-.171.188-.085.377-.17.565-.253a8.323 8.323 0 012-.63 6.728 6.728 0 012.011-.031 6.537 6.537 0 013.16 1.337zm-14.22 4.632a1.352 1.352 0 001.528-.058c.429-.342.59-.93.4-1.453a1.38 1.38 0 00-1.26-.91 1.302 1.302 0 00-1.2.745l.033-.098s-.028.08-.065.168c.01-.023.02-.047.032-.07-.01.026-.02.059-.033.098-.105.315-.06.191-.003.036l.003-.008c-.02.056-.036.114-.047.174a1.36 1.36 0 00.612 1.376z" fill="#1B1D1D"/></svg>