<?xml version="1.0" encoding="utf-8"?>
<!-- Generator: Adobe Illustrator 25.2.1, SVG Export Plug-In . SVG Version: 6.00 Build 0)  -->
<svg version="1.1" id="Layer_1" xmlns="http://www.w3.org/2000/svg" xmlns:xlink="http://www.w3.org/1999/xlink" x="0px" y="0px"
	 viewBox="0 0 391.3 391.3" style="enable-background:new 0 0 391.3 391.3;" xml:space="preserve">
<style type="text/css">
	.st0{fill:#EAEAEA;}
	.st1{fill:#FCD89F;}
	.st2{fill:#331907;}
	.st3{fill:#BA8663;}
	.st4{fill:#3A1E0A;}
	.st5{fill:#605F6D;}
	.st6{fill:#7FA5B2;}
	.st7{fill:#C6A273;}
	.st8{fill:#AACC42;}
	.st9{fill:#FFD4AE;}
	.st10{fill:#3C313F;}
	.st11{fill:#B71C1C;}
	.st12{fill:#968D81;}
	.st13{fill:#C93131;}
	.st14{fill:#EFEAE4;}
	.st15{fill:#C68E75;}
	.st16{fill:#AA3131;}
	.st17{fill:#AA3570;}
	.st18{fill:#91B3BC;}
	.st19{fill:#A37246;}
	.st20{fill:#4C414F;}
	.st21{fill:#6D4524;}
	.st22{fill:#B5AC9E;}
	.st23{fill:#6BA534;}
	.st24{fill:#FFCC99;}
	.st25{fill:#473224;}
	.st26{fill:#FFFFFF;}
	.st27{fill:#597A1A;}
	.st28{fill:#93867C;}
	.st29{opacity:0.6;fill:#CC9A75;enable-background:new    ;}
	.st30{fill:#E0AA79;}
	.st31{fill:#8E5A46;}
	.st32{fill:#D66A18;}
	.st33{fill:#994710;}
	.st34{fill:#D67B30;}
	.st35{fill:#66666D;}
	.st36{fill:#9B6937;}
	.st37{fill:#F9D45F;}
	.st38{fill:#00A9CE;}
	.st39{opacity:0.35;fill:#00A9CE;enable-background:new    ;}
	.st40{opacity:0.66;fill:#00A9CE;enable-background:new    ;}
	.st41{opacity:0.95;fill:#00A9CE;enable-background:new    ;}
	.st42{opacity:0.79;fill:#00A9CE;enable-background:new    ;}
	.st43{opacity:0.47;fill:#00A9CE;enable-background:new    ;}
</style>
<rect x="0.2" y="-0.1" class="st0" width="391.3" height="391.3"/>
<g>
	<ellipse class="st1" cx="71.3" cy="333.5" rx="3.8" ry="2.2"/>
	<path class="st2" d="M85,318.3c0,8.9-9.4,10.7-13.9,10.7c-5.1,0-13.9-1.8-13.9-10.7c0-8.9,4.2-17.9,13.9-17.9
		C82.2,300.4,85,309.4,85,318.3z"/>
	<path class="st1" d="M65.4,351.4c-0.7,1.6-1.3,3.5-1.3,6.3c-0.1,5.3,2.3,26.3,2.1,30.4c0,0.9,0,1.3-0.3,1.7
		c-0.2,0.3,4.5,0.3,4.5,0.3s0.3,0.5,0.3-0.6l-0.4-32.2l0.9-0.1l0.9,0.1l1.2,9.4l3.1,22.7c0.2,1.1,0,0.6,0,0.6s5.6,0.7,5.3,0.4
		c-0.4-0.3-0.9-2.3-1.1-3.2c-0.5-2.7-1.1-13.2-1.6-21.3c0,0,1.2-0.5,0,0c-0.1-4.2-0.6-6.6-0.6-8.4c0-2.6-0.5-4.4-1.2-5.9
		C73.4,352.1,69.3,351.5,65.4,351.4z"/>
	<path class="st1" d="M80.5,306.1c-2-2.9-4.1-2.9-7.4-3.1h-3.6c-3.3,0.1-5.4,0.2-7.4,3.1s-1.2,3.6-1.1,7c0.1,2.6-1.5,0.5-0.4,8
		c0.9,6.3,7.3,8.9,10.6,8.9c3.3,0,9.6-2.6,10.6-8.9c1.2-7.6-0.2-9.7-0.9-12.2C80.6,307.6,82.5,309,80.5,306.1z"/>
	<rect x="69.2" y="329" class="st1" width="4.1" height="6.4"/>
	<path class="st3" d="M71.1,326.4c-1.2,0-2.6-0.3-3.3-1.1c-0.2-0.2-0.1-0.4,0-0.6c0.2-0.2,0.4-0.1,0.6,0c0.5,0.6,1.8,0.9,3.1,0.8
		c1.1-0.1,1.9-0.4,2.2-0.8c0.1-0.2,0.4-0.2,0.6-0.1s0.2,0.4,0.1,0.6c-0.4,0.6-1.5,1.1-2.8,1.2C71.4,326.4,71.3,326.4,71.1,326.4z"/>
	<path class="st4" d="M63.9,316.3c-0.2,0-0.3-0.1-0.4-0.3c-0.1-0.2,0-0.5,0.3-0.6c1.5-0.5,3.1-0.4,4,0.3c0.2,0.2,0.3,0.4,0.1,0.6
		c-0.2,0.2-0.4,0.3-0.6,0.1c-0.6-0.4-1.8-0.6-3.2-0.2C64,316.3,63.9,316.3,63.9,316.3z"/>
	<path class="st4" d="M75.3,316.4c-0.1,0-0.3-0.1-0.4-0.2c-0.1-0.2-0.1-0.5,0.1-0.6c0.8-0.5,3.2-0.7,4.2-0.1
		c0.2,0.1,0.3,0.4,0.2,0.6c-0.1,0.2-0.4,0.3-0.6,0.2c-0.7-0.4-2.7-0.3-3.2,0.1C75.5,316.4,75.4,316.4,75.3,316.4z"/>
	<path class="st1" d="M79.6,335.5c-0.7,1.3-0.6,1.8-1.5,2.9c1.2,1,2.9,3.4,3.1,4.5c0,0,0.3,0.5-0.9,2.7c0,0-1,2.2-2.1,3.7
		c-0.1,0.1-0.4-0.2-0.5-0.1c0.1,0.6,0.8,1.2,1.1,1.4c0.6,0.5,0.7,1.8,1.3,1c2.7-3.1,4-7.1,4.3-8.2C85,341.1,82.2,337.8,79.6,335.5z"
		/>
	<path class="st1" d="M63,335.5c-2.6,2.3-5.5,5.7-5,8.2c0.3,1.1,1.6,5.1,4.3,8.2c0.6,0.7,0.7-0.5,1.3-1c0.3-0.3,1-0.8,1.1-1.4
		c0-0.1-0.4,0.2-0.5,0.1c-1.2-1.5-2.1-3.7-2.1-3.7c-1.2-2.2-0.9-2.7-0.9-2.7c0.3-1.2,2.2-3.7,3.4-4.6
		C63.4,337.4,63.7,336.6,63,335.5z"/>
	<path class="st5" d="M65.5,349.9c-0.1,0.2-0.1,0.4-0.2,0.6C65.5,350.3,65.5,350.1,65.5,349.9z"/>
	<path class="st2" d="M79,308.9c0,0-1.9,2-7.5,3.4c-12.1,2.9-11.4,5.2-11.4,5.2s-3.1-1.9-0.8-8.6c3-9,16.8-9.2,20.1-4.9
		c7.1,9,2.6,16.5,2.6,16.5S82,314.2,79,308.9z"/>
	<path class="st4" d="M67.2,319.4c-0.1,0-0.2-0.1-0.3-0.1c-0.8-0.8-2-1-3.3-0.7c-0.2,0.1-0.5-0.1-0.5-0.3c-0.1-0.2,0.1-0.5,0.3-0.5
		c1.6-0.4,3.1,0,4.2,1c0.2,0.2,0.2,0.4,0,0.6C67.5,319.4,67.3,319.4,67.2,319.4z"/>
	<path class="st4" d="M75.4,319.4c-0.1,0-0.3,0-0.4-0.2c-0.2-0.2-0.2-0.5,0-0.6c1.1-1,2.6-1.3,4.2-0.9c0.2,0.1,0.4,0.3,0.3,0.5
		s-0.3,0.4-0.5,0.3c-1.3-0.4-2.5-0.1-3.4,0.6C75.6,319.4,75.5,319.4,75.4,319.4z"/>
	<path class="st6" d="M78.8,357.7c-0.4-2.9-0.7-4.4-1.3-5.9c0-0.1-0.2-0.2-0.3-0.2c-1.2,0.1-2.6,0.1-4.2,0.1c-1.4,0-2.9,0-4.3,0
		c-1.1,0-2.2,0-3.3,0l0,0c-0.1,0-0.2,0.1-0.3,0.2c-0.6,1.5-1.3,3.1-1.3,6c0,0.4,0,1.9,0,2.4c0,0.1,0.1,0.3,0.3,0.3
		c0.9,0,1.8,0.1,2.8,0.1s2.3,0,3.5-0.1c0.1,0,0.3-0.1,0.3-0.3v-2.6H72l0.2,2.7c0,0.1,0.1,0.2,0.2,0.3c0.3,0.1,2.3,0.1,2.9,0.1
		c1.2,0,2.8,0,3.6,0c0.1,0,0.1,0,0.2-0.1s0.1-0.1,0.1-0.2C79,360.1,78.9,357.9,78.8,357.7z"/>
	<path class="st7" d="M63.3,390.4c-0.3,0.2-0.4,0.3-0.3,0.6c0.1,0.2,0.4,0.2,0.8,0.2h6.7c0.5,0,0.3-0.6,0.3-1.8
		c-3.2,0-3.7-1.2-4.5-1.2C65.7,388.8,64.1,389.9,63.3,390.4z"/>
	<path class="st7" d="M83.9,390.4c0.3,0.2,0.4,0.3,0.3,0.6c-0.1,0.2-0.4,0.2-0.8,0.2h-6.7c-0.5,0-0.3-0.6-0.3-1.8
		c3.2,0,3.7-1.2,4.5-1.2C81.5,388.8,83.1,389.9,83.9,390.4z"/>
	<path class="st1" d="M79.1,366.1C79.1,366.1,80.2,365.6,79.1,366.1L79.1,366.1z"/>
	<path class="st8" d="M74.5,332L74.5,332c-0.1,0-0.7,1.1-3.2,1.1c-2.2,0-2.6-1.2-2.9-1.1h-0.1c-2.1,0.4-4.2,2.1-5.7,3.5
		c0.8,1.2,1.2,2.5,2.4,3.5c0.3-0.3,0.6-0.5,0.7-0.6c-0.1,1.3,0.7,2.4,0.8,2.6c0.8,1.1,0.8,3.4,0.2,6.1c-0.1,0.4-0.3,1-0.6,1.7
		c-0.2,0.4-0.3,0.8-0.5,1.2c0,0.2-0.1,0.4-0.2,0.6c-0.1,0.3-1.1,3.4-1.2,3.7c0,0,2.9,0.3,7.2,0.3s7.1-0.3,7.1-0.3
		c-0.1-0.4-1-3.4-1.1-3.7c-0.2-0.2-0.2-0.4-0.2-0.6c-0.2-0.4-0.3-0.8-0.5-1.2c-0.3-0.7-0.5-1.2-0.6-1.7c-0.6-2.7-0.5-5,0.2-6.1
		c0.2-0.2,0.9-1.2,0.8-2.6c0.2,0.2,0.5,0.4,0.8,0.7c0.9-1.1,1.5-2.3,2.2-3.6C78.8,334.2,77.2,332.5,74.5,332z"/>
	<path class="st1" d="M67.4,351.2c-0.5,0.2-1.5-0.3-1.8-0.5c0.3,0.2,2.2,1.3,1.3,1.8c-0.6,0.3-1.5-0.4-2-0.7
		c0.4,0.3,0.7,0.4,0.9,0.9c0.3,0.5-0.2,0.6-0.6,0.6c-0.7-0.1-2-0.8-2.6-1.1c-0.9-0.4,0-1,0.5-1.6c0.3-0.4,0.3-0.6,0.8-0.9
		c0.5-0.3,1.4-0.3,1.9-0.1c0.6,0.2,1.2,0.4,1.6,0.9C67.6,350.5,67.8,350.8,67.4,351.2C67.4,351.1,67.4,351.2,67.4,351.2z"/>
	<path class="st1" d="M75.1,351.2c0.5,0.2,1.5-0.3,1.8-0.5c-0.3,0.2-2.2,1.3-1.3,1.8c0.6,0.3,1.5-0.4,2-0.7
		c-0.4,0.3-0.7,0.4-0.9,0.9c-0.3,0.5,0.2,0.6,0.6,0.6c0.7-0.1,1.5-0.5,2.1-0.8c0.9-0.4,1.2-0.9,0.7-1.5c-0.3-0.4-0.9-1.1-1.3-1.3
		c-0.5-0.3-1.5-0.2-2,0c-0.6,0.2-1.2,0.4-1.6,0.9C74.9,350.6,74.6,350.9,75.1,351.2C75,351.1,75,351.2,75.1,351.2z"/>
</g>
<g>
	<path class="st9" d="M161.8,349.6c0.3,1.4,0.4,3.1,0.3,4.2l0,0c0.1,0.6,0.2,1.1,0.2,2.3c-0.3,0.3-0.5,1.1-0.8,1.4s-0.8,0.9,0,1
		c0.2,0,0.7-0.5,0.8-0.4s-0.1,0.5-0.1,0.6c-0.1,0.3-0.1,0.6-0.1,0.9s0,0.6,0.1,1c0.1,0.3,0.2,0.3,0.3,0.1c0.2-0.5,0.5-0.9,0.8-1.4
		s0.4-1,0.5-1.5c0-0.1,0.1-0.3,0.1-0.4c0.2-1.4,0.9-4.3,0.9-6.7C163.8,350.8,162.8,350.5,161.8,349.6z"/>
	<rect x="153.5" y="327.1" class="st9" width="4.1" height="6.8"/>
	<path class="st10" d="M162.4,357.9c0-1.6,0-3.2-0.4-4.6c0-0.1-0.2-0.2-0.3-0.2c-1.1,0.1-2.3,0.1-3.5,0.1c-3.1,0-5.4-0.5-8.8-0.7
		c-0.1,0-0.2,0.4-0.3,0.5c-0.4,1.5-0.5,3.3-0.5,5c0,2.4,2.2,29.4,1.9,30.1l0,0c0,0.1,0,0.1,0,0.2s-0.2,0.1-0.2,0.2
		c1.4,0.7,2.9,1.5,3.9,2.5c0.1,0,0.1,0.1,0.2,0.1c0.1,0,0.1,0,0.2,0c0.3-0.2,0.3-0.4,0.3-1.1l-0.1-33.7h1.3l3.5,33.7
		c0,0.5-0.1,0.8,0.2,1.1c0.1,0.1,0.2,0.1,0.3,0c1.5-0.7,3.1-1.5,4.2-2.3c0.1,0-0.2-0.1-0.2-0.2s0-0.1,0-0.2
		c-0.1-0.1-0.1-0.2-0.2-0.3C163.7,387.3,162.4,359.5,162.4,357.9z"/>
	<path class="st9" d="M143.1,334.1v-0.6c0.2-1.6,0.1-3.8-0.8-4.1c-1.1-0.4,0,2.5-0.7,2.5c-0.7-0.4-2.5-3.4-3.5-2.9
		c-0.8,0.4,1.9,2.5,1.7,2.9c-0.2,0.3-2.5-2.5-3.2-1.7c-0.5,0.6,1.2,1.8,1.6,2c0.2,0.2,0.9,0.9,0.5,0.9c-0.1,0-0.8-0.4-1.1-0.5
		c-0.3-0.2-1-0.5-1.2-0.1c-0.3,0.5,0.7,1,0.9,1.1c0.6,0.4,1.2,0.7,1.8,1.2c0.3,0.3,0.6,0.6,1,0.8c0.5,0.8,1.9,5.1,3.4,7.9
		c1.1-0.5,1.9-1.9,2.4-2.9C143.8,337,143.1,334,143.1,334.1z"/>
	<path class="st11" d="M160.9,338.9c0-0.4-0.1-0.8-0.1-0.8C160.8,338.4,160.8,338.7,160.9,338.9z"/>
	<path class="st12" d="M161.2,350.1c0.5,1.5-0.7-2.1-1-3.8c-0.7-2.9,0.2-5.8,0.3-6.1c0.2-0.4,0.3-0.9,0.3-1.2c0-0.3-0.1-0.5-0.1-0.8
		c0,0,0.1,0.3,0.1,0.8c0.8,5,0.9,8.6,0.9,10.6c0.1,0.9,2,1.2,3,0.9c0-3.4-0.2-6.8-0.4-8.2c-1.2-8.6-2-9.4-4.3-10.8
		c-0.1-0.1-0.5-0.4-1.3-0.7l-1.2-0.7c0,0-0.2,1.4-2,1.4s-2.2-1.4-2.2-1.4l-1,0.6c-2.8,1.1-3.8,2.9-4.5,4.8c-0.3,0.7-1.5,6.2-1.9,5.5
		c-0.1-0.1-0.2-0.3-0.3-0.5c-0.5,1.1-1.5,2.1-2.6,2.6c0.2,0.4,0.4,0.8,0.6,1.1c1.3,2.1,3.4,2.8,4.9-0.1c0.8-1.5,1.4-5.2,1.8-6.8
		c0.1,0.2-0.4,1.4,0.1,2.6s0.5,5.4,0,7.9c-0.3,1.4-1.2,3.7-1.7,6.1c0,0,1.7,0.7,6.2,0.7s6.9-0.7,6.9-0.7
		C162.1,352.2,161.4,350.5,161.2,350.1z"/>
	<path class="st13" d="M147,390.2c-0.4,0.2-0.4,0.3-0.3,0.7c0.1,0.2,0.4,0.2,0.8,0.2h7.2c0.5,0,0.3-0.7,0.3-1.9
		c-3.4,0-3.5-1.2-4.4-1.2C150.1,388.6,147.8,389.7,147,390.2z"/>
	<path class="st14" d="M148.7,390.4c0,0-0.3-0.7-0.6-0.8c-0.4-0.1-1.8,0.8-1.7,1c0,0.3-0.2,0.5,0.8,0.5c0.9,0,1.5,0,1.5,0
		S148.8,390.9,148.7,390.4z"/>
	<path class="st14" d="M155.2,390.9c0,0.1,0,0.3-0.1,0.3h-8.4c-0.1,0-0.3-0.1-0.3-0.3l0,0c0-0.1,0.1-0.3,0.3-0.3h8.4
		C155.2,390.7,155.2,390.8,155.2,390.9L155.2,390.9z"/>
	<path class="st14" d="M149.8,390c-0.1,0-0.2-0.1-0.2-0.2c-0.1-0.2-0.3-0.4-0.4-0.5l-0.1-0.1c-0.1-0.1-0.1-0.3,0-0.4s0.3-0.1,0.4,0
		l0.1,0.1c0.2,0.1,0.4,0.4,0.6,0.7c0.1,0.1,0,0.3-0.1,0.4C149.8,390,149.8,390,149.8,390z"/>
	<path class="st14" d="M150.6,389.4c-0.1,0-0.2-0.1-0.3-0.2c-0.1-0.2-0.4-0.4-0.4-0.5c-0.1-0.1-0.2-0.2-0.1-0.4s0.2-0.2,0.4-0.1
		s0.5,0.5,0.7,0.8C150.9,389.2,150.8,389.3,150.6,389.4C150.7,389.4,150.6,389.4,150.6,389.4z"/>
	<path class="st13" d="M167.7,390.2c0.4,0.2,0.4,0.3,0.3,0.7c-0.1,0.2-0.4,0.2-0.8,0.2H160c-0.5,0-0.3-0.7-0.3-1.9
		c3.4,0,3.5-1.2,4.4-1.2C164.5,388.6,166.9,389.7,167.7,390.2z"/>
	<path class="st14" d="M165.9,390.4c0,0,0.3-0.7,0.6-0.8c0.4-0.1,1.8,0.8,1.7,1s0.2,0.5-0.8,0.5c-0.9,0-1.5,0-1.5,0
		S165.8,390.9,165.9,390.4z"/>
	<path class="st14" d="M159.4,390.9c0,0.1,0,0.3,0.1,0.3h8.4c0.1,0,0.3-0.1,0.3-0.3l0,0c0-0.1-0.1-0.3-0.3-0.3h-8.4
		C159.4,390.7,159.4,390.8,159.4,390.9L159.4,390.9z"/>
	<path class="st14" d="M164.9,390C164.8,390,164.8,390,164.9,390c-0.2-0.1-0.3-0.3-0.2-0.4c0.1-0.3,0.4-0.5,0.6-0.7l0.1-0.1
		c0.1-0.1,0.3-0.1,0.4,0c0.1,0.1,0.1,0.3,0,0.4l-0.1,0.1c-0.1,0.1-0.4,0.3-0.4,0.5C165,389.9,165,390,164.9,390z"/>
	<path class="st14" d="M164,389.4L164,389.4c-0.2-0.1-0.3-0.3-0.2-0.4c0.1-0.3,0.5-0.6,0.7-0.8c0.1-0.1,0.3,0,0.4,0.1s0,0.3-0.1,0.4
		s-0.4,0.4-0.4,0.5C164.2,389.4,164.1,389.4,164,389.4z"/>
	<path class="st9" d="M164.9,303.8c-2-2.9-4.1-3-7.5-3.1h-3.7c-3.4,0.1-5.4,0.2-7.5,3.1c-2,2.9-1.2,3.6-1.1,7.1
		c0.1,2.6-1.4,0.8-0.4,8.1c1.1,7.3,7.4,9.7,10.8,9.7c3.4,0,9.2-2,10.8-9.7s-0.5-5.5-0.4-8.1C166.2,307.4,166.9,306.7,164.9,303.8z"
		/>
	<path class="st15" d="M155.3,325.6c-1.2,0-2.2-0.4-2.9-1.3c-0.2-0.2-0.1-0.4,0-0.6c0.2-0.2,0.4-0.1,0.6,0c0.8,1,1.9,1,2.5,1
		c0.9-0.1,1.8-0.4,2.1-1c0.1-0.2,0.4-0.2,0.6-0.1c0.2,0.1,0.2,0.4,0.1,0.6c-0.5,0.7-1.6,1.3-2.8,1.3
		C155.5,325.5,155.4,325.6,155.3,325.6z"/>
	<path class="st4" d="M151.1,317.4c0,1-0.7,1.8-1.5,1.8s-1.5-0.8-1.5-1.8s0.7-1.8,1.5-1.8C150.4,315.6,151.1,316.4,151.1,317.4z"/>
	<path class="st4" d="M151.4,314.6c-0.1,0-0.3-0.1-0.4-0.2c-0.4-0.5-1-0.6-1.4-0.6c-0.6,0-1.3,0.2-1.6,0.6c-0.2,0.2-0.4,0.2-0.6,0
		c-0.2-0.2-0.2-0.4,0-0.6c0.5-0.5,1.4-0.9,2.3-0.9c0.8,0,1.5,0.3,2,0.9c0.2,0.2,0.2,0.5,0,0.6C151.7,314.6,151.6,314.6,151.4,314.6z
		"/>
	<path class="st4" d="M160.1,314.6c-0.1,0-0.2,0-0.3-0.1c-0.2-0.2-0.2-0.4-0.1-0.6c0.4-0.5,1.1-0.8,1.9-0.8c0.8,0,1.6,0.3,2.1,0.8
		c0.2,0.2,0.2,0.5,0,0.6c-0.2,0.2-0.5,0.2-0.6,0c-0.5-0.5-1.1-0.5-1.4-0.5c-0.6,0-1,0.3-1.2,0.5
		C160.3,314.5,160.2,314.6,160.1,314.6z"/>
	<path class="st4" d="M163,317.4c0,1-0.7,1.8-1.5,1.8s-1.5-0.8-1.5-1.8s0.7-1.8,1.5-1.8S163,316.4,163,317.4z"/>
	<path class="st16" d="M161.2,321.1c-1.3,0-2.4-0.5-3-1.4c-0.7-0.9-1.1-2.4-1.1-3.2c0-1.8,5.8-1.8,5.9-1.8c2.2,0,3.3,0.4,3.3,1.2
		C166.3,319.3,163.7,321.1,161.2,321.1z M158,316.6c0,0.6,0.4,1.9,0.9,2.6c0.4,0.6,1.3,1,2.3,1c2,0,4.1-1.5,4.2-4.3
		c-0.2-0.1-0.8-0.4-2.4-0.4C160.4,315.7,158.3,316.2,158,316.6z"/>
	<path class="st16" d="M149.8,321.1L149.8,321.1c-2.5,0-5.1-1.8-5.1-5.2c0-0.3,0-1.2,3.4-1.2c0.2,0,5.8,0,5.8,1.8
		c0,0.8-0.4,2.2-1.1,3.2C152.2,320.6,151.1,321.1,149.8,321.1z M145.6,316c0,2.8,2.2,4.3,4.2,4.3l0,0c1,0,1.8-0.4,2.3-1
		c0.5-0.8,0.9-2,0.9-2.7c-0.2-0.4-2.3-0.9-4.9-0.9C146.5,315.6,145.8,315.9,145.6,316z"/>
	<path class="st16" d="M153.5,317.5c-0.2,0-0.3-0.1-0.4-0.2c-0.1-0.2-0.1-0.5,0.1-0.6c0.8-0.5,3.7-0.4,4.4-0.1
		c0.2,0.1,0.4,0.4,0.3,0.6c-0.1,0.2-0.4,0.4-0.6,0.3c-0.6-0.3-3.1-0.3-3.5,0.1C153.7,317.5,153.6,317.5,153.5,317.5z"/>
	<path class="st17" d="M168.9,311.4c0-6-2-11.2-7.4-13.2c-7.6-2.7-15.9-0.8-19.7,7.7c-1.5,3.3-1.3,10.4,0,13.9
		c1.8,4.8,3.4,6.2,3.8,6.5c-1.6-6.9-0.1-13.1,0-13.3c-0.1,0.3,17.6-4.3,18.9-5.7c1.7,4.7,2.3,9.1,1.8,11.6
		C168.6,316.5,168.9,313.7,168.9,311.4z"/>
</g>
<g>
	<path class="st10" d="M100.9,390c-0.4,0.3-0.6,0.4-0.4,0.8c0.1,0.3,0.5,0.2,1,0.2h9.1c0.7,0,0.4-0.9,0.4-2.3
		c-4.2,0-4.4-1.5-5.4-1.5C104.9,388,102,389.3,100.9,390z"/>
	<path class="st10" d="M124.3,390c0.4,0.3,0.6,0.4,0.4,0.8c-0.1,0.3-0.5,0.2-1,0.2h-9.1c-0.7,0-0.4-0.9-0.4-2.3
		c4.2,0,4.4-1.5,5.4-1.5C120.3,388,123.2,389.3,124.3,390z"/>
	<path class="st18" d="M119.6,387.5l0.3-34.3h-14.3l0.3,34.3c0,0,2.8,0.7,5.2,2.8c0.2-0.2,0.2-0.5,0.2-1l0.3-32.3h2.7l0.3,32.3
		c0,0.5,0.1,0.8,0.2,1C117.4,388,119.6,387.5,119.6,387.5z"/>
	<path class="st14" d="M103,390.2c0,0-0.3-0.9-0.7-1c-0.4-0.1-2.2,1-2.2,1.3s-0.2,0.6,1,0.6s2,0,2,0S103.2,390.9,103,390.2z"/>
	<path class="st14" d="M111.2,390.9c0,0.2,0,0.3-0.2,0.3h-10.6c-0.2,0-0.3-0.1-0.3-0.3l0,0c0-0.2,0.1-0.3,0.3-0.3H111
		C111.2,390.6,111.2,390.7,111.2,390.9L111.2,390.9z"/>
	<path class="st14" d="M104.4,389.6c-0.1,0-0.2-0.1-0.3-0.2c-0.1-0.3-0.4-0.5-0.6-0.7l-0.1-0.1c-0.1-0.1-0.1-0.3,0-0.4
		s0.3-0.1,0.4,0l0.1,0.1c0.2,0.2,0.5,0.5,0.7,0.8C104.7,389.3,104.6,389.5,104.4,389.6L104.4,389.6z"/>
	<path class="st14" d="M105.4,388.9c-0.1,0-0.2-0.1-0.3-0.2c-0.1-0.2-0.4-0.6-0.6-0.7c-0.1-0.1-0.2-0.3-0.1-0.4s0.3-0.2,0.4-0.1
		c0.3,0.2,0.7,0.6,0.8,1c0.1,0.1,0,0.3-0.1,0.4C105.5,388.9,105.5,388.9,105.4,388.9z"/>
	<path class="st14" d="M122.2,390.2c0,0,0.3-0.9,0.7-1c0.4-0.1,2.2,1,2.2,1.3c-0.1,0.3,0.2,0.6-1,0.6s-2,0-2,0
		S122,390.9,122.2,390.2z"/>
	<path class="st14" d="M114,390.9c0,0.2,0,0.3,0.2,0.3h10.6c0.2,0,0.3-0.1,0.3-0.3l0,0c0-0.2-0.1-0.3-0.3-0.3h-10.6
		C114,390.6,114,390.7,114,390.9L114,390.9z"/>
	<path class="st14" d="M120.8,389.6L120.8,389.6c-0.2-0.1-0.3-0.2-0.2-0.4c0.2-0.4,0.5-0.7,0.7-0.9l0.1-0.1c0.1-0.1,0.3-0.1,0.4,0
		s0.1,0.3,0,0.4l-0.1,0.1c-0.2,0.1-0.4,0.4-0.6,0.7C121,389.5,120.9,389.6,120.8,389.6z"/>
	<path class="st14" d="M119.7,388.9L119.7,388.9c-0.2-0.1-0.3-0.3-0.2-0.4c0.2-0.4,0.6-0.8,0.8-1c0.1-0.1,0.3,0,0.4,0.1
		s0,0.3-0.1,0.4c-0.2,0.1-0.5,0.5-0.6,0.7C120,388.8,119.9,388.9,119.7,388.9z"/>
	<path class="st19" d="M122.2,300.6c-1.8-2.5-4.9-4.4-7.9-4.5c0,0-0.1,0-0.2,0V296c0,0-0.7,0-1.5,0.1c-0.8,0-1.5-0.1-1.5-0.1v0.1
		c-0.1,0-0.2,0-0.2,0c-3,0.1-6.1,2-7.9,4.5c-3,4.1-1.7,13.2-1,16.4c1.8,6.8,6.4,8,10.6,8s8.9-1.2,10.6-8
		C123.9,314.1,125.3,305,122.2,300.6z"/>
	<path class="st19" d="M112.5,327.1l-3,0.2l-2.6,0.8c0,0,0.3,3.4,5.1,2.9c4.8-0.5,5.5-3.2,5.5-3.2l-1.7-0.4L112.5,327.1z"/>
	<path class="st19" d="M119.5,313.4c-0.4,2.2,0.9,4,2.9,4.4s3.9-0.8,4.3-2.9c0.4-2.2-0.9-4.3-2.9-4.6
		C121.8,309.8,119.9,311.2,119.5,313.4z"/>
	<path class="st19" d="M105.7,313.4c0.4,2.2-0.9,4-2.9,4.4s-3.9-0.8-4.3-2.9c-0.4-2.2,0.9-4.3,2.9-4.6
		C103.5,309.8,105.4,311.2,105.7,313.4z"/>
	<rect x="109.6" y="323.1" class="st19" width="6.1" height="6.8"/>
	<path class="st10" d="M124.2,332.9c-0.9-2.7-2.2-3.5-6.8-5.1c0,0-1.6,1.9-4.9,1.9s-4.7-1.9-4.7-1.9c-4.6,1.6-5.9,2.4-6.8,5.1
		c-0.4,1.2-2,6.7-2.6,13.2c1.5,0.4,2.9,1,4.5,1.6c0.2-3.6,2.1-9.5,2.3-11c0,0,0.9,8.2,0.9,11.1s-0.4,6-0.4,6l1.5-0.2
		c0,0,2.2,0.5,5.3,0.5s5.5-0.5,5.5-0.5l1.8,0.2c0,0-0.7-2.6-0.7-6s1-11.1,1-11.1c0.3,1.5,1.9,7.4,2,11c1.5-0.6,2.9-1.3,4.5-1.6
		C125.9,339.6,124.6,334.1,124.2,332.9z"/>
	<path class="st19" d="M107.3,353.5c-0.1,0-1-0.4-1.2-0.4s-0.7-0.4-0.7-0.4c-0.8-0.7-2.7-4.7-3-5.5c-1.4,0.5-2.7,0.5-4.2,0.9
		c2,5.3,6.1,9.8,7.3,10.7C105.5,358.3,107.3,353.9,107.3,353.5z"/>
	<path class="st19" d="M118,353.5c0.1,0,1-0.4,1.2-0.4s0.7-0.4,0.7-0.4c0.8-0.7,2.7-4.7,3-5.5c1.4,0.5,2.7,0.5,4.2,0.9
		c-2,5.3-6.1,9.8-7.3,10.7L118,353.5z"/>
	<path class="st10" d="M102.7,344.6c-0.8-0.4-3.4-1.9-4.4-0.2c-0.3,0.5-0.1,1.1-0.1,1.1c-0.5,0.6-0.7,1.9,0.1,2.2
		c-0.3,1.7,1.8,1.5,2.7,1.3c1-0.2,3.3-0.9,2-2.2C103.7,346.2,103.6,345.1,102.7,344.6z"/>
	<path class="st20" d="M101.6,344.9L101.6,344.9l-2.5-0.4c-0.1,0-0.1-0.1-0.1-0.3s0.1-0.2,0.1-0.2l2.5,0.4c0.1,0,0.1,0.1,0.1,0.3
		C101.7,344.8,101.7,344.9,101.6,344.9z"/>
	<path class="st20" d="M99.9,346.7L99.9,346.7l2.2-0.2c0.1,0,0.2,0.1,0.2,0.2s0,0.2-0.1,0.2l-2.2,0.2c-0.1,0-0.2-0.1-0.2-0.2
		C99.8,346.8,99.9,346.7,99.9,346.7z"/>
	<path class="st10" d="M122.1,344.8c0.8-0.4,3.5-2.1,4.6-0.5c0.4,0.5,0.2,1.1,0.2,1.1c0.6,0.5,0.9,1.8,0,2.2
		c0.4,1.7-1.7,1.6-2.8,1.5s-3.6-0.6-2.2-2.1C121.2,346.4,121.1,345.4,122.1,344.8z"/>
	<path class="st20" d="M123.2,345C123.3,345,123.3,345,123.2,345l2.6-0.6c0.1,0,0.1-0.1,0.1-0.3c0-0.1-0.1-0.2-0.2-0.2l-2.6,0.6
		c-0.1,0-0.1,0.1-0.1,0.3C123.1,344.9,123.2,345,123.2,345z"/>
	<path class="st20" d="M125.2,346.7C125.2,346.6,125.2,346.6,125.2,346.7l-2.3-0.1c-0.1,0-0.2,0.1-0.2,0.2s0,0.2,0.1,0.2l2.3,0.1
		c0.1,0,0.2-0.1,0.2-0.2C125.3,346.8,125.3,346.7,125.2,346.7z"/>
	<path class="st4" d="M107.9,312.2c0,0.9-0.6,1.6-1.3,1.6s-1.3-0.7-1.3-1.6s0.6-1.6,1.3-1.6S107.9,311.3,107.9,312.2z"/>
	<path class="st4" d="M120.1,312.2c0,0.9-0.6,1.6-1.3,1.6s-1.3-0.7-1.3-1.6s0.6-1.6,1.3-1.6S120.1,311.3,120.1,312.2z"/>
	<path class="st4" d="M104.7,309.7c-0.1,0-0.3-0.1-0.4-0.1c-0.1-0.1-0.2-0.2-0.2-0.4s0-0.3,0.1-0.4c0.5-0.5,1.6-0.9,2.6-0.9
		c0.7,0,1.3,0.2,1.8,0.5c0.1,0.1,0.2,0.2,0.2,0.3s0,0.3-0.1,0.4s-0.3,0.2-0.4,0.2s-0.2,0-0.3-0.1c-0.3-0.2-0.7-0.3-1.2-0.3
		c-0.8,0-1.6,0.3-1.9,0.6C105,309.6,104.8,309.7,104.7,309.7z"/>
	<path class="st4" d="M120.8,309.7c-0.1,0-0.3-0.1-0.4-0.2c-0.3-0.3-0.8-0.5-1.5-0.5c-0.6,0-1.3,0.2-1.8,0.5
		c-0.1,0.1-0.2,0.1-0.3,0.1c-0.2,0-0.3-0.1-0.4-0.2s-0.1-0.3-0.1-0.4s0.1-0.3,0.2-0.4c0.6-0.5,1.5-0.8,2.4-0.8s1.7,0.3,2.2,0.8
		c0.2,0.2,0.2,0.5,0,0.7C121,309.7,120.9,309.7,120.8,309.7z"/>
	<path class="st21" d="M112.5,321.3c-0.7,0-2.5-0.1-3.4-1.2c-0.1-0.1-0.1-0.2-0.1-0.4s0.1-0.3,0.2-0.3c0.1-0.1,0.2-0.1,0.3-0.1
		s0.3,0.1,0.4,0.2c0.5,0.5,1.5,0.9,2.7,0.9c0.2,0,0.3,0,0.4,0c1.1-0.1,2-0.4,2.2-0.8c0.1-0.1,0.3-0.2,0.4-0.2s0.2,0,0.3,0.1
		c0.1,0.1,0.2,0.2,0.2,0.3c0,0.1,0,0.3-0.1,0.4c-0.4,0.7-1.6,1.1-2.9,1.2C112.8,321.3,112.6,321.3,112.5,321.3z"/>
	<path class="st2" d="M101.5,310.7c0.1-2.9,0.2-8.2,2.8-8.2c1.9,0,2.4,0.4,8.2,0.4c5.2,0,6.6-0.6,8.6-0.6s2.6,2.8,2.6,6.6
		c0,0.8,0.1,1.6,0.1,2.4c0,0.4,0.1,0.9,0.1,1.4c0,0.2,0.1,0.7,0.3,0.6c0.3-0.1,0.3-1.1,0.3-1.3c0.2-1.5,0.3-3.1,0.3-4.6
		c0-2.8,0.8-8.3-4.3-11.7c-3.1-2.1-9.7-2.3-13.3-1.1c-2.5,0.8-5,3-5.9,5.5c-1,2.8-1,4.9-0.6,10.3c0,0.6,0.1,1.2,0.2,1.8
		c0.1,0.4,0.1,0.8,0.2,1.2c0.2,0.8,0.5,0.2,0.5-0.3C101.5,312.2,101.5,311.5,101.5,310.7z"/>
	<path class="st2" d="M115.6,324.5c-1,0.3-2,0-2.1-0.7c-0.1-0.9-1.6-0.9-1.7,0c-0.1,0.7-1,0.9-2,0.8c-0.6-0.1-1-0.4-1.2-0.5
		c-0.4,0-0.4,0.4,0,0.7c0.3,0.3,0.6,0.6,1.1,0.8c1.6,0.9,4.3,0.8,5.9,0c0.3-0.2,1.3-0.9,1.3-1.1C117,323.7,115.9,324.4,115.6,324.5z
		"/>
</g>
<g>
	<path class="st22" d="M337,316.3c0-4-0.8-8.7-4.3-13.6c-1.5-2.1-4.6-2.3-7.1-2.2c-1.2,0.1-2.3,0.2-3.5,0.5
		c-1.2-0.3-3.6-2.3-4.7-1.8c-2.3,1.1-3,1.4-5,3.6c-3.6,3.7-4.8,9.6-4.8,13.1c0,5.9,3.3,8.5,7.3,10.4c3.7,1.5,5,1.5,12.3,0.7
		C332.7,326.3,337,322,337,316.3z"/>
	<path class="st9" d="M331.9,354c0.1,0-1.2-18.2-1.7-20.4c-0.3-1.1-0.7-1.2-1.1-1.9c-1.5,0.4-1.5,1.9-1.7,3.9c0,0.2,0,0.4,0,0.7
		c0.5,4,0.9,8.6,1.1,12.5c0.1,1,0.4,5.7,0,6c-0.4,0.2-0.5,0.9-0.6,1.2l-0.2,2.3c-0.1,0.6,0.8,0.8,1,0.3c0.1-0.2,0.3-1.8,0.5-1.7
		c0.2,0,0.1,0,0.2,0.3c0.5,1.4-1.1,3-0.9,3.5c0.5,1.3,1.5,0.4,2.7-1.2C332.1,358.2,332.2,356,331.9,354z"/>
	<path class="st23" d="M332,353.9L332,353.9c0-0.3,0-0.9-0.2-2.9c-0.1-1.9-0.3-4.3-0.5-6.5c-0.3-3.6-0.8-9.8-1.1-11
		c-0.2-0.8-0.4-1.1-0.7-1.4c-0.1-0.2-0.3-0.3-0.4-0.5c0-0.1-0.1-0.1-0.2-0.1c-1.5,0.4-1.6,1.8-1.8,3.7v0.4l0,0c0,0.2,0,0.4,0,0.6
		c0,0,0,0,0,0.1c0.5,3.9,0.8,8.3,1.1,12.5v0.1c0.3,3.7,0.2,5.1,0.1,5.6c0,0.1,0,0.2,0.1,0.2c0.6,0.2,1.2,0.2,1.9,0.2
		c0.6,0,1.1-0.1,1.5-0.2c0.1,0,0.1-0.1,0.1-0.2C332.1,354.3,332.1,354.1,332,353.9z"/>
	<path class="st9" d="M327.3,335.1c0,0,0.2,0.3,0.3,0.6c0-2,0.1-4.1,1.5-4.7c-0.7-1-3-1.8-5.2-3.3c-0.6-0.2-1,0.5-1.4,0.6
		c-0.4-0.1-1.4-0.4-2-0.2c-0.8,0.4-2.7,1.3-3.2,1.6c1,3.1,2,5.9,1.1,8.8c0.5,1.3,0.5,3.4,0.3,5.6c-0.3,3-2.8,5.1-2.8,11.1
		c-0.1,5.5-1.9,26.2-2.6,30.3c-0.2,0.9-1,2.9-1.4,3.3c-0.3,0.2,1.2,0.6,1.2,0.6s3.7-0.6,3.8-1.8l4.2-33.1l1.5-0.1l1.2,0.1v9.4
		l-0.1,23.7c0,1.2,0.3,0.6,0.3,0.6s4.1,1.9,5.6,2.5c0.9,0.4,0.6-0.4,0.6-0.4s-1.5,0.1-1.6-1.5c0,0,0-0.7-0.3-1
		c-0.4-0.4-0.8-1.1-0.9-2c-0.1-2.9-0.4-13.6,0.3-21.9h0.6c0.3-3.9,0.8-7.3,0.8-9.1c-0.1-5.9-2.5-7.8-2.8-10.8s0.1-5.5,0.8-6.6
		c0.3-0.4,0.4-0.8,0.4-1.1c0-0.1,0-0.2,0-0.3C327.5,335.9,327.4,335.5,327.3,335.1z"/>
	<path class="st24" d="M327.7,336.6v-0.1v-0.1C327.7,336.4,327.7,336.5,327.7,336.6z"/>
	<path class="st24" d="M320.2,329L320.2,329c0-0.1,0-0.1-0.1-0.1H320c-1.7,0.4-2.8,1-2.8,1c-0.9,0.6-9.4,7.4-8.5,11.5
		c0.2,1,0.9,4.5,4.7,8.1c0,0,0,0,0.1-0.1c0.3-0.3,0.9-0.3,1.2,0c0.2-0.9,0.7-1.8,1-2.3l0.1-0.1c-1-0.6-2.7-3.2-2.7-3.2
		c-1.3-2.4-0.9-3.6-0.9-3.6c0.4-1.6,4.4-5,4.9-5.5c0,0,0.1,0.3,0.1,0.4c1-1.7,2.2-2.6,3.4-4.2C320.5,330.2,320.3,329.6,320.2,329z"
		/>
	<rect x="320.5" y="325.5" class="st9" width="4" height="6.2"/>
	<path class="st2" d="M325.6,328.7"/>
	<path class="st25" d="M312.5,387.8c-0.6,1.2-1.7,2-1.7,2c-0.7,0.8-0.7,1.2-0.1,1.2c0,0,1.3,0.2,2.2-0.1c1.9-0.5,2.9-1.9,3.1-2
		l0.1,1.4c0.5,0.3,0.8-0.1,0.8-0.1s0.6-4,0.1-4.4c-0.1-0.1,0,0,0,0s-1.4,2.6-3.7,3.1c-0.4,0.1-0.9,0.1-1.1-0.3
		C312.2,388.4,312.4,388,312.5,387.8z"/>
	<path class="st25" d="M328.2,387.8c0.6,1.2,1.7,2,1.7,2c0.7,0.8,0.7,1.2,0.1,1.2c0,0-1.3,0.2-2.2-0.1c-1.9-0.5-2.9-1.9-3.1-2
		l-0.1,1.4c-0.5,0.3-0.8-0.1-0.8-0.1s-0.6-4-0.1-4.4c0.1-0.1,0,0,0,0s1.4,2.6,3.7,3.1c0.4,0.1,0.9,0.1,1.1-0.3
		C328.6,388.4,328.3,388,328.2,387.8z"/>
	<path class="st5" d="M327.9,386.5c-0.1-2.9,0.5-14,1.2-22.3l0,0c0.3-3.9,0.5-7.3,0.5-9.1c0-3-1-4.9-1.6-6.5
		c-3.6,0-7.1-0.4-10.7-0.6c-0.9,1.7-1.7,3.7-2,7.1c-1.1,12.7-1.7,27.4-2.5,31.5c-0.2,0.9,4.8,1.3,5,0.1L322,355h1.2v9.1l0.1,22.6
		C323.2,387.9,327.9,387.4,327.9,386.5z"/>
	<path class="st23" d="M327.2,339.2c0-0.3,1.4-1.8,0.8-4.3c0.8-0.4,1.5-0.7,2.4-0.9c-0.3-2-1.3-3.7-3.2-4.6c0,0-1.8-0.8-1.9-0.8
		c0,0-0.8,7.8-2.9,7.8c-1.5,0-2.9-7.8-2.9-7.8c-0.9,0.4-1.9,0.7-1.9,0.8c0,0-1.6,0.4-3.2,2.3c-0.1,0.1-0.3,0.2-0.4,0.4
		c0.8,0.6,2.3,2,2.7,3l-0.1,0.4c-0.2,2.5,0.8,3.6,0.9,4.5c0.2,2.3,0,6-0.5,7.4c-0.4,1-1.2,2.9-1.4,4.5c1,1,12.5,1.2,13.5,0.2
		c-0.5-1.8-0.9-3.9-1.2-5.1C327.6,346.2,326.8,341.8,327.2,339.2z"/>
	<path class="st9" d="M317.4,347.5c-0.4-0.1-1.3-0.3-1.3-0.3c-0.2,0-0.5-0.2-0.9-0.6c-0.8,0.1-1.4,0.4-1.6,0.8
		c-0.3,0.5-0.5,1.1-0.6,1.7c0.5,0.5,1.2,1.1,2,1.4c0.7,0.3,1,0.1,2,0.8c0.4,0.3,0.8,0,0.5-0.6c-0.3-0.5-0.9-0.7-1.1-0.9
		c1,0,1.9,1,2.1,0.9c1.2-0.4-1-2-1.9-2.1c0.2,0,0.9-0.1,1.9,0.7c0.3,0.2,0.5,0.2,0.6,0c0.3-0.3,0.2-0.6-0.1-0.8
		C318.7,348,318,347.7,317.4,347.5z"/>
	<path class="st23" d="M316.4,330.4L316.4,330.4c-0.1-0.1-0.2-0.1-0.2,0c-2,1.6-8.6,7.2-7.7,11v0.1c0.3,1.1,1,4.6,4.7,8.1l0.1,0.1
		l0,0l0,0l0,0c1.3,0,2.4-1.9,2.5-2.5c0,0,0,0,0-0.1V347l0,0h-0.1c-0.9-0.6-2.6-3.1-2.6-3.1c-1.2-2.3-0.9-3.5-0.9-3.5
		c0.3-1.4,3.5-4.2,4.5-5.2c0.1,0,0.1-0.1,0.1-0.1v0.1c0,0.1,0,0.1,0.1,0.2c0.1,0,0.1,0,0.2-0.1c0.2-0.4,0.5-0.8,0.8-1.2
		c0,0,0-0.1,0-0.2C317.6,332.6,317,331.5,316.4,330.4z"/>
	<path class="st26" d="M325.5,328.7L325.5,328.7c-0.4,1.2-1.4,5.1-2.9,6.3c0,0-2.1-1.5-2.9-6.3l-0.1,0.1c0.5,2.7,0.6,18-0.5,23.7
		c-0.1,0.6,8,0.7,7.8,0.1c-1.3-4.8-1.6-14.6-1.5-20.2C325.4,330.6,325.4,329.3,325.5,328.7z"/>
	<path class="st27" d="M327.6,338.5c0,0-0.1,0-0.1-0.1c-0.1-0.1-0.1-0.2,0-0.3c0.3-0.4,0.4-1,0.3-1.8c0-0.4-0.3-1-0.5-1.5
		c-0.3-0.8-0.5-1.2-0.4-1.5c0-0.1,0.1-0.2,0.3-0.2c0.1,0,0.2,0.2,0.2,0.3c0,0.2,0.3,0.8,0.4,1.2c0.3,0.6,0.5,1.2,0.5,1.7
		c0.1,1.2-0.2,1.8-0.4,2.1C327.7,338.5,327.7,338.5,327.6,338.5z"/>
	<path class="st27" d="M316.6,335.3c0.1-0.1,0.2-0.2,0.2-0.2l-0.1,0.4c0,0.2,0,0.4,0,0.5c0.1-0.3,0.3-0.6,0.4-1
		c0.4-0.8,0.6-1.2,0.5-1.5c0-0.1-0.2-0.2-0.3-0.2c-0.1,0-0.2,0.2-0.2,0.3c0,0.2-0.3,0.8-0.5,1.2
		C316.7,335.1,316.7,335.2,316.6,335.3z"/>
	<path class="st24" d="M314.1,315.7c0.2,1.6-0.7,3.1-2.1,3.3c-1.4,0.2-2.6-1-2.9-2.7c-0.2-1.6,0.7-3.1,2.1-3.3
		S313.9,314,314.1,315.7z"/>
	<path class="st9" d="M331.9,302c-2-2.9-4.1-3-7.5-3.1h-3.7c-3.4,0.1-5.5,2-7.6,5c-2,2.9-1.2,1.8-1,5.3c0.1,2.6-1.4,0.8-0.4,8.1
		c1.1,7.3,7.5,9.7,10.8,9.7c3.4,0,9.2-2,10.8-9.7c1.6-7.7-0.5-5.5-0.4-8.1C333.1,305.6,333.9,304.9,331.9,302z"/>
	<path class="st4" d="M317.9,315.3c0,0.9-0.6,1.6-1.4,1.6s-1.4-0.7-1.4-1.6s0.6-1.6,1.4-1.6S317.9,314.4,317.9,315.3z"/>
	<path class="st28" d="M318.4,313.2c-0.1,0-0.4-0.1-0.5-0.1c-1-0.3-2-0.2-2.8,0c-0.3,0.1-0.4,0.2-0.6,0s-0.2-0.4,0-0.6
		c0.5-0.5,3.7-0.7,4.4,0c0.2,0.2,0.2,0.5,0,0.6C318.6,313.1,318.5,313.2,318.4,313.2z"/>
	<path class="st28" d="M327,313.1c-0.1,0-0.2,0-0.3-0.1c-0.2-0.2-0.2-0.4-0.1-0.6c0.4-0.5,3.5-0.6,4,0c0.2,0.2,0.2,0.5,0,0.6
		c-0.2,0.2-0.4,0-0.6,0c-1-0.2-1.8-0.1-2.3,0C327.5,313,327.1,313.1,327,313.1z"/>
	<path class="st15" d="M322.3,323.5c-1.2,0-2.6-0.3-3.4-1.2c-0.2-0.2-0.1-0.4,0-0.6c0.2-0.2,0.4-0.1,0.6,0c0.5,0.6,1.8,0.9,3.2,0.9
		c1.1-0.1,2-0.4,2.2-0.8c0.1-0.2,0.4-0.2,0.6-0.1s0.2,0.4,0.1,0.6c-0.4,0.6-1.5,1.1-2.9,1.2C322.7,323.5,322.5,323.5,322.3,323.5z"
		/>
	<path class="st4" d="M329.9,315.3c0,0.9-0.6,1.6-1.4,1.6s-1.4-0.7-1.4-1.6s0.6-1.6,1.4-1.6C329.3,313.7,329.9,314.4,329.9,315.3z"
		/>
	<path class="st22" d="M329.6,299.9c-4.9-3-9.8-2-13.6,0c-1.9,1-6.3,5.4-6.9,12.1c-2.2,6.9,3.1,8.7,3.1,8.7
		c-0.1-2.5-2.3-6.2,4.5-11.7c4.8-3.8,10-5.4,10-5.4s1.4,1.7,4.3,6.1c2,3,2.8,7.2,2.8,7.2l1-5.2l0,0
		C335.6,308.6,334.4,302.8,329.6,299.9z"/>
	<path class="st29" d="M317.7,322.8c-0.2,0-0.4-0.2-0.4-0.4c0-0.9,0.3-1.4,0.8-2c0.1-0.2,0.4-0.2,0.5-0.1c0.2,0.1,0.2,0.4,0.1,0.5
		c-0.4,0.5-0.6,0.9-0.6,1.5C318.1,322.7,318,322.8,317.7,322.8L317.7,322.8z"/>
	<path class="st29" d="M327.2,322.8L327.2,322.8c-0.2,0-0.4-0.2-0.4-0.4c0-0.7-0.2-1-0.6-1.5c-0.1-0.2-0.1-0.4,0.1-0.5
		s0.4-0.1,0.5,0.1c0.5,0.6,0.8,1.1,0.8,2C327.5,322.7,327.4,322.8,327.2,322.8z"/>
</g>
<g>
	<path class="st2" d="M210.2,304.3l-0.1-0.1c0,0-0.7,0-1.6-1.3c-0.1-0.2-0.4-0.7-0.6-1.2c-0.7-1.6-1.8-4.2-3.7-6.1
		c-2.4-2.4-6-3.6-10.8-3.6c-8.9,0-10.6,5.5-10.8,6.1c-0.5,0.3-4.1,2.7-3.4,11.2c0,0,0.1,3.4,1.7,6.7c1.1,2.1,1,3.2,0.7,3.8
		c-0.2,0.5-0.6,0.7-0.7,0.7c-0.3,0.1-0.3,0.3-0.3,0.4c0.1,0.4,1.1,0.8,1.9,0.8c0.4,0,0.7-0.1,0.9-0.2c0,0.3,0,0.8-0.5,1.2
		c-0.2,0.1-0.2,0.2-0.1,0.3c0.1,0.3,0.9,0.4,1.4,0.4c0.4,0,1.2-0.1,2-0.4c-0.2,0.3-0.4,0.6-0.5,0.7v0.1l0.1,0.1
		c0.2,0.1,0.4,0.1,0.6,0.1c1.4,0,2.4-1.3,2.5-2.5c0-0.2,0-0.4,0-0.6c3.7,0.2,10.3,0.7,10.6,0.7c0.1,0,0.2,0.2,0.4,0.4
		c0.6,0.7,1.6,1.9,3.6,1.9c0.2,0,0.4,0,0.7-0.1c0.8-0.1,1-0.2,1-0.4c0.1-0.2,0-0.3-0.2-0.4c-0.3-0.3-0.6-0.8-0.5-1.8
		c0.2,0.1,0.5,0.2,0.9,0.2s0.8-0.1,1.1-0.4c0.1-0.1,0.3-0.2,0.3-0.4c0-0.2-0.1-0.3-0.3-0.4c-0.3-0.3-0.8-0.7-0.4-2.2
		c0.2-0.2,1.2-1.4,1.9-3.5c0.7-2,1.4-5.2,0.4-9.1c0.1,0,0.2,0,0.3,0c0.4,0,1.1-0.2,1.6-1C210.2,304.4,210.2,304.3,210.2,304.3z"/>
	<path class="st30" d="M205.1,332.5c-0.6-3.3-2.4-4.9-4.5-5.9c-1.2,0.8-3,4.5,0.1,9.2c0.3,0.4,3.3,16.5,2.3,19.5
		c0.4,0.3,2.8,1.8,4.5,0.8C208,355.9,205.2,332.8,205.1,332.5z"/>
	<path class="st30" d="M203.6,299.8c-1.7-2.5-4.9-4.3-7.8-4.5c0,0-0.1,0-0.2,0v-0.1c0,0-0.7,0-1.5,0.1c-0.7,0-1.5-0.1-1.5-0.1v0.1
		c-0.1,0-0.2,0-0.2,0c-3,0.1-6.1,2-7.8,4.5c-3,4-1.7,13.1-1,16.3c1.3,5,6.3,7.9,10.5,7.9s9.2-3,10.5-7.9
		C205.2,313.3,206.7,304.2,203.6,299.8z"/>
	<path class="st4" d="M189.9,312.1c0,0.9-0.6,1.7-1.4,1.7s-1.4-0.8-1.4-1.7c0-0.9,0.6-1.7,1.4-1.7S189.9,311.2,189.9,312.1z"/>
	<path class="st4" d="M201.3,312.1c0,0.9-0.6,1.7-1.4,1.7s-1.4-0.8-1.4-1.7c0-1,0.6-1.7,1.4-1.7S201.3,311.2,201.3,312.1z"/>
	<path class="st4" d="M186.7,309.4c-0.1,0-0.2,0-0.3-0.1c-0.2-0.2-0.2-0.4,0-0.6c0.7-0.8,2.8-1.2,4.1-0.4c0.2,0.1,0.2,0.4,0.1,0.6
		s-0.4,0.2-0.6,0.1c-0.9-0.6-2.5-0.2-3,0.3C186.9,309.3,186.8,309.4,186.7,309.4z"/>
	<path class="st4" d="M201.7,309.4c-0.1,0-0.2,0-0.3-0.1c-0.6-0.7-2.2-0.6-3.1,0c-0.2,0.1-0.4,0.1-0.6-0.1s-0.1-0.4,0.1-0.6
		c1.2-1,3.3-0.9,4.2,0.1c0.2,0.2,0.2,0.4,0,0.6C201.9,309.4,201.8,309.4,201.7,309.4z"/>
	<path class="st2" d="M204.7,298.2c-2.2-2.6-5.6-3.9-10.2-3.9l0,0c-1.3,0-2.8,0.1-4.3,0.3c-0.2,0-3.9,0.5-6.4,4.1
		c-2.2,3.1-2.9,7.4-1.9,12.8c0,0.1,0.1,0.2,0.2,0.2c0,0,0,0,0.1,0s0.2,0,0.2-0.1c0.1-0.1,2.3-3.1,2.9-7.2c0.5,0.8,1.7,1.9,3.7,2.4
		c0,0,0,0,0.1,0s0.2-0.1,0.3-0.2c0.1-0.2,0.2-0.9-0.8-4.2c1.4,1.4,4.4,3.8,8.6,4.3l0,0c0.1,0,0.2,0,0.2-0.1s0.1-0.2,0-0.3l-1-2.8
		c1,0.8,3,2.1,5.8,3.5c1.9,0.9,3.4,1,4.1,1c0.4,0,0.5,0,0.5,0c0.1,0,0.2-0.1,0.2-0.2C207.1,307.6,208,302.2,204.7,298.2z"/>
	<path class="st30" d="M207.6,355.7c0.1,0-1.7-14.8-2.1-20.3c-1.6,1.5-1.9,1.4-3.4,3.1c0.4,3.6,0.8,7.6,1,10.3
		c0.1,1.1,0.3,5.2,0,6.1c-0.1,0.6-0.7,1.1-0.6,2.5l0.2,2.8c0.1,0.7,1,0.8,1.2,0.2c0-0.2-0.1-2.3,0.4-2c1,0.5-0.6,4.1-0.1,4.5
		c0.7,0.6,2.1,0.1,2.9-2.1C207.7,359,207.6,356.8,207.6,355.7z"/>
	<path class="st30" d="M193.9,325.3l-2.7,0.2l-2.4,0.7c0,0,1,4.5,5.9,3.9c4.9-0.5,4.3-4.1,4.3-4.1l-2.1-0.5L193.9,325.3z"/>
	<rect x="191.2" y="321.5" class="st30" width="5.7" height="6.4"/>
	<path class="st30" d="M186.7,368.3l-0.5,19.3c0,0,2.5,0.7,4.9,2.9c0.2-0.2,0.5-0.6,0.5-1l0.9-21.2
		C190.4,368.2,188.7,368.2,186.7,368.3z"/>
	<path class="st30" d="M195.2,368.3l0.2,21.1c0,0.5,0.4,0.9,0.6,1.1c3-2.5,4.8-3,4.8-3l0.1-19C198.8,368.5,197.2,368.4,195.2,368.3z
		"/>
	<path class="st10" d="M201.3,352.6L201,352h-13.8l-0.4,0.5l-0.4,17.9c2-0.1,4.4,0,6.5,0l0.5-14.4h1.4l0.1,14.4c2,0.1,4.3-0.1,6.3,0
		L201.3,352.6z"/>
	<path class="st30" d="M186.8,327c-1.2,0.6-2.3,1.5-3.6,2.9c1.4,2.2,1.4,1.4,2,4c0.2-0.8,1.6,0.5,1.7,0.1c0,0,0,0.4,0,0.9
		C187.5,332.5,187.4,329.7,186.8,327z"/>
	<path class="st13" d="M201.2,346.4c0-3.6-0.4-11-0.4-11c0,0.1-1.1-4.1,0.2-8.5c-0.7-0.3-1.5-0.6-2-0.8c0,0-0.7,3.6-4.8,3.6
		s-5-3.6-5-3.6c-0.9,0.3-1.6,0.6-2.3,1c0.6,2.7,0.7,5.4,0.1,8c0,2.4-0.1,9-0.1,11.4c0,2.9-0.1,6.1-0.1,6.1s4.1,0.4,7.2,0.4
		c3.1,0,7.3-0.4,7.3-0.4S201.2,349.9,201.2,346.4z"/>
	<path class="st13" d="M181.3,390.1c-0.4,0.4-0.6,0.4-0.4,0.9c0.1,0.3,0.6,0.2,1,0.2h9.2c0.7,0,0.4-0.9,0.4-2.4
		c-4.3,0-4.8-1.6-5.8-1.6C184,388.1,182.3,389.2,181.3,390.1z"/>
	<path class="st13" d="M205.5,390.1c0.4,0.4,0.6,0.4,0.4,0.9c-0.1,0.3-0.6,0.2-1,0.2h-9.2c-0.7,0-0.4-0.9-0.4-2.4
		c4.3,0,4.8-1.6,5.8-1.6C202.1,387.7,204.4,389.2,205.5,390.1z"/>
	<path class="st30" d="M184.5,329.6c0,0-0.1-0.1-0.2,0c-0.1,0-1.1,0.3-1.1,0.4c-6.7,11.6-4,13.7-4,13.7c0.7,1.1,2.5,2.6,7.7,3.7
		c1.1,0.3,3.8,0.1,5.3-0.5c0-0.3-2.4-3.4-3-4c-1.3,0-6.2-1.5-6.1-1.7c1.5-3.5,3.7-6.3,4.5-7.3C187.5,333.9,185.6,330.6,184.5,329.6z
		"/>
	<path class="st31" d="M197.3,318.9c-0.1-0.1-0.2-0.1-0.3-0.1h-5.9c-0.1,0-0.2,0.1-0.3,0.2s-0.1,0.2,0,0.4c0.2,0.7,1.2,1.8,3.2,1.8
		l0,0c1.8,0,3.3-0.8,3.3-1.9C197.4,319.1,197.3,319,197.3,318.9z"/>
	<path class="st26" d="M196.7,318.8c-0.1,0-0.1-0.1-0.2-0.1h-4.7c-0.1,0-0.2,0-0.2,0.1c-0.1,0.1-0.1,0.1,0,0.2
		c0.3,0.8,1.2,0.9,2.5,0.9l0,0c1.2,0,2.7,0,2.8-0.9C196.7,318.9,196.7,318.9,196.7,318.8z"/>
	<path class="st30" d="M190.9,346.7c0.1-1.1,0.8-1,1.4-2c0.5-0.9,1-1,1.4-2.7c0.2-0.7,1-0.7,1.1,0.1c0.2,0.8-0.4,1.7-0.4,1.9
		c1.1-0.9,1.2-2.8,1.5-2.9c1.7-0.7,0.5,2.7-0.3,3.7C195.9,344.5,192.8,347.7,190.9,346.7z"/>
	<g>
		<path class="st32" d="M184.9,332.3c3.5-2.4,8.2-1.6,10.6,1.9c2.4,3.4,1.5,8.2-2,10.6s-8.2,1.6-10.6-1.9S181.5,334.7,184.9,332.3z"
			/>
		<path class="st33" d="M196.8,338.2c-0.1-0.3-0.2-0.6-0.4-0.8c0,0-0.4-0.8-1.3-1.1c-0.2-0.1-0.5-0.2-0.8-0.2
			c-0.4,0-0.7,0.1-0.8,0.1c0,0,0,0,0-0.1c-0.1-0.1-0.2-0.3-0.3-0.6c-0.1-0.2-0.4-0.7-0.4-0.7c0.7-0.3,1.3-0.4,1.9-0.4h0.1
			c0.4,0,0.7,0.1,0.8,0.2l0.2,0.1c-0.1-0.1-0.2-0.3-0.3-0.4c0-0.1-0.1-0.1-0.1-0.2c-0.1,0-0.3-0.1-0.4-0.1c-0.1,0-0.1,0-0.2,0
			c-0.2,0-0.4,0-0.7,0.1c-0.4,0.1-1,0.2-1.3,0.3c-0.1,0-0.2,0-0.2,0.1c0,0,0-0.1-0.1-0.1c-0.1-0.1-0.2-0.2-0.3-0.4
			c-0.2-0.3-0.4-0.4-0.5-0.6c0.2-0.1,0.6-0.3,0.9-0.5c0.2-0.2,0.3-0.3,0.3-0.5c0-0.1,0-0.3-0.1-0.4c-0.2-0.1-0.4-0.2-0.6-0.3
			l0.1,0.1c0,0.1,0.1,0.3,0.1,0.4s-0.1,0.2-0.2,0.3c-0.1,0.2-0.6,0.4-0.9,0.5l0,0l-0.1-0.1c-0.3-0.3-1-1-1.6-1.3
			c-0.5-0.2-1-0.4-1.3-0.4s-0.7,0.1-1,0.2v0.1h0.1c0,0,0.1,0,0.3,0s0.4,0,0.5,0c0.4,0.1,0.7,0.2,1.2,0.5c0.7,0.4,1.2,0.9,1.3,1.1
			c-0.2,0.1-0.5,0.2-0.9,0.2c-0.6,0.1-1.3,0.1-1.3,0.1h-0.1c-0.1,0-0.2,0-0.4,0s-0.4,0-0.7,0c-0.5,0-0.9,0-1.2,0.1
			c-0.7,0.1-1.4,0.3-1.8,0.4h-0.1c-0.5,0.2-1.1,0.6-1.4,0.8c-0.3,0.4-0.4,0.8-0.6,1.3l0.3-0.4c0.1-0.1,0.3-0.4,0.6-0.6
			s0.7-0.4,1.2-0.6c0.8-0.4,1.8-0.5,3.2-0.5c0.2,0,0.5,0,0.7,0c0.1,0,0.2,0,0.3,0c1.3,0,2.3-0.3,2.8-0.4c0.1,0.1,0.2,0.2,0.3,0.3
			l0.2,0.2c0.2,0.3,0.4,0.4,0.4,0.6c-0.2,0.1-0.7,0.3-1.5,0.7c-1.2,0.5-1.2,0.5-3,1.6l-0.1,0.1c-1.2,0.7-2.3,1.5-3.2,2.3
			c-0.8,0.7-1.4,1.3-1.6,1.8c-0.2,0.3-0.3,0.5-0.3,0.7c0.1,0.3,0.2,0.5,0.4,0.7h0.1l-0.1-0.3c0,0,0-0.2,0.1-0.5
			c0.2-0.4,0.7-1,1.7-1.9c1.1-1,2.7-2,4.2-2.9c0.7-0.4,1.8-1,2.6-1.3c0.5-0.2,0.9-0.4,1.1-0.4c0,0,0,0,0,0.1
			c0.1,0.1,0.2,0.3,0.3,0.5c0.2,0.4,0.4,0.7,0.4,0.8c-0.1,0.1-0.4,0.2-0.9,0.6c-0.7,0.6-1.3,1.7-1.7,2.6v0.1c0,0.1-0.1,0.2-0.1,0.4
			c-0.3,0.6-0.6,1.6-1.5,3c-0.5,0.9-0.9,1.4-1.4,1.9c-0.4,0.4-0.7,0.5-0.7,0.5l-0.2,0.1c0.2,0.1,0.4,0.2,0.6,0.2
			c0.2-0.1,0.5-0.3,0.9-0.7c0.5-0.6,0.9-1.2,1.2-1.7c0.6-1,1.3-2.4,2-4.1c0.4-0.9,1.1-1.7,1.9-2.3l0,0c0.1-0.1,0.2-0.1,0.2-0.1
			c0.1,0.1,0.2,0.5,0.5,1.4c0.5,1.9,0.4,3,0.3,4.5c-0.2,1.3-1.2,2.2-1.2,2.2l-0.1,0.1l0.1,0.1c0.3-0.1,0.5-0.3,0.7-0.4l0,0l0.1-0.1
			c0.2-0.3,0.4-0.7,0.6-1.1c0.1-0.3,0.2-0.6,0.2-0.9v-0.2c0.2-0.7,0.1-2.3-0.2-3.7c-0.3-1.1-0.5-1.7-0.6-2c0.1,0,0.3-0.1,0.5-0.1
			c0.3,0,0.7,0,1.1,0.3c0.4,0.3,0.8,0.8,1,1.4v0.1c0.2,0.5,0.3,0.9,0.3,0.9l0.1,0.5l0,0c0.1-0.4,0.1-0.9,0.1-1.4
			C196.8,338.4,196.8,338.3,196.8,338.2z"/>
	</g>
	<path class="st30" d="M190.9,346.7c-0.4-0.3-0.9-0.6,0.4-1.7c0.4-0.4,0.7-0.4,1.5-2.1c0.4-0.8,1.1-0.8,1,0s-0.3,1-0.3,1.3
		c1.1-0.9,1.3-2.9,1.7-3c1.6-0.5,0.3,2.8-0.5,3.7C194.9,344.6,193,347.5,190.9,346.7z"/>
</g>
<g>
	<g>
		<path class="st24" d="M296.2,357.5c-1.1-9.6-4.2-21.5-6.7-25.3c-0.4-0.6-0.9-1.2-1.6-1.8c-0.1,0.5-0.2,1-0.3,1.5
			c-0.8-1.7-2.2-3.3-6-4.5V324h-6.1v3.5c-3.3,1.1-5,2.3-6,3.7c0-0.3-0.1-0.5-0.1-0.8c-0.7,0.6-1.3,1.3-1.8,2
			c-2.5,3.8-5.7,15.7-6.7,25.3c0,0.1-0.3,2.9,0.8,5.6c0.9,2.2,2.4,3.7,3.1,2.1c0.3-0.5-1-2.9-0.3-4.5c0.1-0.3,0.4-0.3,0.6-0.3
			s0.1,2,0.2,2.2c0.2,0.7,1.4,0.6,1.4-0.1l0.2-2.9c0-0.5,0-0.8-0.4-1.2c-0.2-0.2-0.4-0.4-0.5-0.6c0,0,0.1,0,0.1-0.1v-0.1
			c-0.1-0.2,1.4-10.6,3.5-17.1c0.2-1.3,0.3-2.7,0.3-4c0-0.1,0-0.2,0.1-0.3l16.5-2c0.2,1,0.5,2.3,0.8,3.7c0,0.8,0.1,1.5,0.2,2.2
			c2.1,6.5,3.7,17.3,3.6,17.5v0.1c0,0,0,0.1,0.1,0.1c-0.1,0.2-0.3,0.4-0.5,0.6c-0.4,0.4-0.4,0.7-0.4,1.2l0.2,2.9
			c0.1,0.8,1.3,0.8,1.4,0.1c0-0.2-0.1-2.2,0.2-2.2c0.2,0,0.5,0,0.6,0.3c0.7,1.6-0.5,4-0.3,4.5c0.7,1.5,2.2,0.1,3.1-2.1
			C296.6,360.5,296.2,357.6,296.2,357.5z"/>
		<path class="st24" d="M285.2,314.6c-0.4,2.1,0.9,3.9,2.8,4.3s3.8-0.8,4.2-2.9c0.4-2.1-0.9-4.2-2.8-4.5
			C287.5,311.1,285.6,312.5,285.2,314.6z"/>
		<path class="st24" d="M271.8,314.6c0.4,2.1-0.9,3.9-2.8,4.3s-3.8-0.8-4.2-2.9c-0.4-2.1,0.9-4.2,2.8-4.5
			C269.5,311.1,271.4,312.5,271.8,314.6z"/>
		<path class="st24" d="M288.1,300.4c-1.9-2.6-4.8-4.2-7.9-4.4c0,0-0.1,0-0.2,0v-0.1c0,0-0.8,0-1.5,0.1c-0.8,0-1.5-0.1-1.5-0.1v0.1
			c-0.1,0-0.2,0-0.2,0c-3.1,0.1-6.1,1.8-7.9,4.4c-1.9,2.6-2.1,5.8-2,8.9c0.1,2.3,0.5,6.1,0.6,8.4c1.9,7.1,6.6,8.3,11,8.3
			s9.2-1.2,11-8.3c0.1-2.3,0.5-6.1,0.6-8.4C290.2,306.1,290,302.9,288.1,300.4z"/>
		<path class="st20" d="M267,390.4c-0.4,1,0.2,0.8,0.5,0.8h8.2c0.1,0,0.6-0.1,0.9-0.4c-0.7-1.3-3.8-2.7-5.8-3.4
			C270.9,387.3,267.7,388.9,267,390.4z"/>
		<path class="st20" d="M290,390.4c-0.8-1.3-3.7-3-3.7-3c-1.8,0.6-4.7,1.8-5.9,3.4c0.1,0.1,0.2,0.2,0.3,0.2c0.3,0.2,0.5,0.2,0.6,0.2
			h8.2C289.8,391.2,290.5,391.3,290,390.4z M281.2,391L281.2,391L281.2,391z"/>
		<path class="st6" d="M286.3,387.4c0,0,2.9-16.4,2.9-29.2c0-13.7-21.6-14.8-21.6-0.1c0,13.5,3,29.3,3,29.3s3.5,1.3,6,3.4
			c0.2-0.2,0.2-0.5,0.2-1l1.5-27.1l1.8,27.1c0,0.5,0.1,0.8,0.3,1C283.4,388.5,286.3,387.4,286.3,387.4z"/>
		<path class="st34" d="M270.3,311.7c-0.1,0-0.2,0-0.3-0.1c-0.2-0.2-0.2-0.4,0-0.6c0.8-0.7,3.5-1.1,4.6-0.4c0.2,0.1,0.3,0.4,0.2,0.6
			c-0.1,0.2-0.4,0.3-0.6,0.2c-0.8-0.5-3-0.3-3.6,0.3C270.5,311.7,270.4,311.7,270.3,311.7z"/>
		<path class="st34" d="M287.1,311.9c-0.1,0-0.3-0.1-0.4-0.2c-0.4-0.5-2.8-0.8-3.7-0.4c-0.2,0.1-0.5,0-0.6-0.3
			c-0.1-0.2,0-0.5,0.3-0.6c1.1-0.4,3.9-0.3,4.7,0.7c0.2,0.2,0.1,0.5-0.1,0.6C287.3,311.8,287.2,311.9,287.1,311.9z"/>
		<path class="st3" d="M278.4,322.6c-1.4,0-2.6-0.4-3.4-1c-0.2-0.2-0.2-0.4-0.1-0.6c0.2-0.2,0.4-0.2,0.6-0.1
			c0.7,0.5,1.9,0.9,3.2,0.8c1.2-0.1,2.3-0.4,2.7-0.9c0.2-0.2,0.4-0.2,0.6,0s0.2,0.4,0,0.6c-0.6,0.6-1.9,1.1-3.3,1.2
			C278.7,322.6,278.5,322.6,278.4,322.6z"/>
		<path class="st34" d="M268.9,304.7c-0.2,0.3-0.1,2,1.8,2c1.6-0.1,2.6-1.1,3.4-1.9c0,0-1.5,2.4,0.5,2.9s4-2.2,4-2.2
			c-0.3,0.2-0.3,1.3,0.5,1.7c1.2,0.6,4.1,0.1,7.4-4.1c3,3.8,3.2,10.4,3.3,10.8c0,0.2,0.1,0.7,0.3,0.6c0.3-0.1,0.3-1.1,0.3-1.3
			c0.2-1.5,0.3-3.1,0.3-4.6c0-2.9,0.8-8.3-4.3-11.8c-3.2-2.1-9.7-2.3-13.4-1.1c-2.5,0.8-5,3-5.9,5.5c-1,2.8-1,4.9-0.6,10.4
			c0,0.6,0.1,1.2,0.2,1.8c0.1,0.4,0.1,0.8,0.2,1.2c0.2,0.8,0.5,0.2,0.5-0.3C267.3,313.5,267,307.7,268.9,304.7z"/>
		<path class="st3" d="M274.2,315c-0.1,0-0.1,0-0.2,0c-1.3-0.6-3.1-0.4-3.5,0c-0.2,0.2-0.5,0.1-0.6-0.1c-0.2-0.2-0.1-0.5,0.1-0.6
			c0.7-0.5,2.9-0.8,4.4,0c0.2,0.1,0.3,0.4,0.2,0.6C274.5,314.9,274.4,315,274.2,315z"/>
		<path class="st3" d="M286.6,314.9c-0.1,0-0.1,0-0.2,0c-0.8-0.4-2.6-0.5-3.4,0c-0.2,0.1-0.5,0.1-0.6-0.1s-0.1-0.5,0.1-0.6
			c1.2-0.7,3.3-0.5,4.3,0c0.2,0.1,0.3,0.4,0.2,0.6C286.9,314.8,286.7,314.9,286.6,314.9z"/>
	</g>
	<path class="st35" d="M287.8,340.9L287.8,340.9c-0.1-0.4-0.1-0.7-0.1-0.9v-0.1c-0.2-1.3-0.2-2.7-0.2-3.9c1.9-1,3.3-1.4,3.3-1.4
		c-0.5-2.3-1.9-3.7-2.6-4.3c0,0,0-0.1-0.1-0.1c-1.2-1.1-3.1-1.7-4.8-2.4c0,0-1.2,2.3-4.8,2.3c-3,0-4.6-2.4-4.7-2.3
		c-1.7,0.6-3.6,1.3-4.6,2.2c0,0-2.3,1.5-2.9,4.5c0,0,1.4,0.5,3.3,1.4c0,1.2,0,2.5-0.2,3.9c0,0.1,0,0.1,0,0.2
		c-0.1,0.4-0.2,1.5-0.8,3.6c-0.5,1.9-1.7,5.8-1.7,9.4c0,2.3,0.4,4.2,2.3,5.8c1.3,1.1,4.4,2.1,9.3,2.1c4.7,0,8.1-1.1,9.3-2.1
		c1.9-1.6,2.3-3.5,2.3-5.8c0-3.6-1.2-7.4-1.7-9.4C288.1,342.6,287.9,341.7,287.8,340.9z"/>
</g>
<g>
	<path class="st36" d="M249.1,311.7c-0.7-14.5-12.7-14.2-12.7-14.2h-0.1h-0.1c0,0-12-0.3-12.7,14.2s3.7,16.1,3.7,16.8
		c0,0.7-2.2,2.4-0.5,4.9c1.5,2.2,7.1,3,9.5,2.3c2.4,0.7,8-0.1,9.5-2.3c1.7-2.5-0.5-4.2-0.5-4.9C245.3,327.8,249.8,326.1,249.1,311.7
		z"/>
	<g>
		<path class="st10" d="M230.2,330.7L230.2,330.7L230.2,330.7c0.1-0.1,0.1-0.1,0.2-0.1l0,0c0.4-0.2,1.2-0.6,2.4-0.9h0.1l0.1,0.1l0,0
			c0.6,3.2,5.3,3.2,5.8,0l0,0c0,0,0-0.1,0.1-0.1h0.1c1.6,0.4,2.6,1,2.6,1c0.8,0.6,9.1,7.1,8.2,11.1c-0.3,1.1-1.6,5.2-4.2,8.4
			c-0.6,0.8-1.4-0.5-2-1.1c-0.3-0.3-1-0.9-1.1-1.5c0-0.1,0-0.2,0.1-0.3c1.2-1.6,2.5-3.5,2.5-3.5c1.2-2.3,0.9-2.8,0.9-2.8
			c-0.3-1.5-3.8-4.3-4.4-4.8c0.1,1.4-0.7,2.5-0.8,2.7c-0.7,1.1-0.8,3.5-0.2,6.2c0.1,0.4,0.3,1,0.6,1.7c0.2,0.4,0.3,0.8,0.5,1.2
			c0,0.2,0.1,0.4,0.2,0.6c0.6,1.9,1.3,4.4,1.7,7.6c1.1,9.5,2.4,34,2.3,34c-9.7,1.8-18.5,0.3-18.5,0.2c0-11.6,1.1-31.8,1.3-34.1
			c0.3-3.2,0.6-5.7,1.3-7.6c0.2-0.2,0.2-0.4,0.2-0.6c0.2-0.4,0.3-0.9,0.5-1.2c0.3-0.7,0.5-1.3,0.6-1.7c0.6-2.8,0.5-5.2-0.2-6.2
			c-0.2-0.2-0.9-1.3-0.8-2.7c-0.9,0.8-3.9,3.2-4.2,4.6c0,0-0.3,0.5,0.9,2.8c0,0,1.3,1.9,2.5,3.5c0.1,0.1,0.1,0.2,0.1,0.3
			c-0.1,0.6-0.8,1.2-1.1,1.5c-0.6,0.5-1.4,1.8-2,1.1c-2.7-3.2-4-7.3-4.2-8.4C221.3,337.9,228.8,331.8,230.2,330.7z"/>
		<path class="st5" d="M241.7,348.2c0.1,0.2,0.1,0.4,0.2,0.6C241.8,348.6,241.7,348.4,241.7,348.2z"/>
		<path class="st30" d="M239.8,349.5c0.5,0.2,1.5-0.3,1.8-0.5c-0.3,0.2-2.2,1.3-1.3,1.9c0.6,0.4,1.5-0.4,2-0.8
			c-0.4,0.3-0.7,0.4-0.9,0.9c-0.3,0.5,0.2,0.7,0.6,0.6c0.7-0.1,1.5-0.5,2-0.9c0.9-0.4,0.5-1.2,0-2c-0.3-0.4-0.7-0.9-1.1-1.2
			c-0.5-0.3-1.1,0-1.5,0.2c-0.6,0.2-1.2,0.4-1.6,1c-0.2,0.3-0.4,0.5-0.1,0.8C239.8,349.5,239.8,349.5,239.8,349.5z"/>
		<path class="st5" d="M229.9,348.8c-0.6,1.9-1,4.4-1,7.6L229.9,348.8z"/>
		<path class="st30" d="M232.2,349.5c-0.5,0.2-1.5-0.3-1.8-0.5c0.3,0.2,2.2,1.3,1.3,1.9c-0.6,0.4-1.5-0.4-2-0.8
			c0.4,0.3,0.7,0.4,0.9,0.9c0.3,0.5-0.2,0.7-0.6,0.6c-0.7-0.1-1.5-0.5-2-0.9c-0.9-0.4-0.5-1.2,0-2c0.3-0.4,0.7-0.9,1.1-1.2
			c0.5-0.3,1.1,0,1.5,0.2c0.6,0.2,1.2,0.4,1.6,1c0.2,0.3,0.4,0.5,0.1,0.8C232.2,349.5,232.2,349.5,232.2,349.5z"/>
		<path class="st30" d="M227.9,304c2-2.9,2.6-3.2,6-3.3l3.5-0.5c3.4,0.1,5.2,2,7.2,4.8c2,2.9,2.2,1,2.1,4.5
			c-0.1,2.7,1.5,0.8,0.4,8.2c-1.1,7.4-7.5,9.7-10.9,9.7s-9.8-1.9-10.9-9.7c-1.1-8,0.5-5.5,0.4-8.2
			C225.5,305.9,225.9,306.9,227.9,304z"/>
		<path class="st31" d="M236.4,323.7c1.2,0,2.6-0.3,3.4-1.2c0.2-0.2,0.2-0.5,0-0.6c-0.2-0.2-0.5-0.2-0.6,0c-0.5,0.6-1.8,0.9-3.2,0.8
			c-1.1-0.1-2-0.4-2.2-0.8c-0.1-0.2-0.4-0.3-0.6-0.1c-0.2,0.1-0.3,0.4-0.1,0.6c0.4,0.6,1.5,1.1,2.9,1.2
			C236.1,323.7,236.2,323.7,236.4,323.7z"/>
		<path class="st4" d="M240.8,315.7c0,1,0.7,1.8,1.5,1.8s1.5-0.8,1.5-1.8s-0.7-1.8-1.5-1.8C241.4,313.9,240.8,314.7,240.8,315.7z"/>
		<path class="st4" d="M240.4,312.5c0.1,0,0.3-0.1,0.4-0.2c0.4-0.5,1-0.6,1.4-0.6c0.6,0,1.3,0.2,1.7,0.6c0.2,0.2,0.4,0.2,0.6,0
			c0.2-0.2,0.2-0.4,0-0.6c-0.5-0.6-1.4-0.9-2.3-0.9c-0.8,0-1.6,0.3-2,0.9c-0.2,0.2-0.2,0.5,0,0.6
			C240.2,312.5,240.3,312.5,240.4,312.5z"/>
		<path class="st4" d="M231.7,312.5c0.1,0,0.2,0,0.3-0.1c0.2-0.2,0.2-0.4,0.1-0.6c-0.4-0.5-1.1-0.8-1.9-0.9c-0.8,0-1.6,0.3-2.1,0.8
			c-0.2,0.2-0.2,0.5,0,0.6c0.2,0.2,0.5,0.2,0.6,0c0.5-0.5,1.1-0.5,1.4-0.5c0.6,0,1,0.3,1.2,0.5C231.4,312.4,231.5,312.5,231.7,312.5
			z"/>
		<path class="st4" d="M228.7,315.7c0,1,0.7,1.8,1.5,1.8s1.5-0.8,1.5-1.8s-0.7-1.8-1.5-1.8S228.7,314.7,228.7,315.7z"/>
	</g>
	<path class="st37" d="M225,313.2c0,0,3.6-6.6,10.9-6.5c3.2,0,8.5,0.5,11.6,6.6c0,0,0.5-13.7-9.6-13.8
		C229.1,299.4,224.8,305,225,313.2z"/>
	<path class="st36" d="M224.5,313.8l0.5-0.5c0,0,1-9.8,11-9.8s11.5,9.9,11.5,9.9s0.9-5.3-0.7-8.4c-1.6-3-4.5-7.5-12.2-6
		C226.9,300.4,224.3,307.5,224.5,313.8z"/>
	<path class="st36" d="M246.1,327.5c-6.5,0.5-12.9,0.4-19.4,0.2c0.4,0.4,0.6,0.7,0.6,0.9c0,0.7,0,3.4,2.5,5.1
		c3,2.1,8.1,2.9,13.2-0.6c2.5-1.7,2.2-3.8,2.2-4.5C245.3,328.3,245.7,328.1,246.1,327.5z"/>
</g>
<polygon class="st38" points="181.5,168.1 181.5,199.6 158.6,217 181.5,217 181.5,230.1 263,230.1 263,168.1 "/>
<polygon class="st39" points="220.1,216.7 220.1,243.6 210.8,258.4 220.1,258.4 220.1,269.6 286.6,269.6 286.6,216.7 "/>
<polygon class="st40" points="128.6,227.8 128.6,250.9 146.3,266.7 128.6,266.7 128.6,283.9 57,283.9 57,227.8 "/>
<polygon class="st41" points="146.4,184.1 146.4,206.4 156.1,226.5 146.4,226.5 146.4,238.4 77.8,238.4 77.8,184.1 "/>
<polygon class="st42" points="274.8,250.4 274.8,271.5 266.9,283.2 274.8,283.2 274.8,292 330.7,292 330.7,250.4 "/>
<polygon class="st43" points="282.7,177.8 282.7,203.3 273.7,215 282.7,215 282.7,222.8 333.9,222.8 333.9,177.8 "/>
<polygon class="st43" points="190.1,248.8 190.1,269.9 201.4,281.6 190.1,281.6 190.1,290.4 149.7,290.4 149.7,248.8 "/>
<g>
	<path class="st26" d="M204.2,183.6l-0.8,1.7c-1.2-0.7-2.5-1.1-3.3-1.1c-1.1,0-1.9,0.4-1.9,1.2c0,2.5,6.1,1.2,6.1,5.3
		c0,2-1.8,3.3-4.3,3.3c-1.8,0-3.5-0.7-4.6-1.8l0.8-1.7c1.2,1.1,2.6,1.7,3.8,1.7c1.3,0,2.1-0.5,2.1-1.4c0-2.5-6.1-1.1-6.1-5.2
		c0-2,1.7-3.2,4.1-3.2C201.7,182.4,203.1,182.9,204.2,183.6z"/>
	<path class="st26" d="M214.8,188.5v5.4h-1.9V189c0-1.3-0.8-2.1-2.1-2.1c-1.5,0-2.5,1.2-2.5,2.7v4.3h-1.9v-12h1.9v5.1
		c0.6-1.2,1.7-1.8,3.2-1.8C213.6,185.2,214.8,186.5,214.8,188.5z"/>
	<path class="st26" d="M219.3,182.8c0,0.6-0.5,1.1-1.1,1.1s-1.1-0.5-1.1-1.1c0-0.7,0.5-1.1,1.1-1.1S219.3,182.1,219.3,182.8z
		 M217.3,193.9v-8.6h1.9v8.6H217.3z"/>
	<path class="st26" d="M231,189.6c0,2.6-1.6,4.4-4.1,4.4c-1.4,0-2.4-0.5-3-1.6v4.6H222v-11.8h1.9v1.5c0.6-1,1.7-1.6,3-1.6
		C229.3,185.2,231,187,231,189.6z M229.1,189.5c0-1.6-1.1-2.8-2.6-2.8s-2.6,1.2-2.6,2.8c0,1.7,1.1,2.8,2.6,2.8
		C228,192.4,229.1,191.2,229.1,189.5z"/>
	<path class="st26" d="M234.9,182.8c0,0.6-0.5,1.1-1.1,1.1s-1.1-0.5-1.1-1.1c0-0.7,0.5-1.1,1.1-1.1S234.9,182.1,234.9,182.8z
		 M232.9,193.9v-8.6h1.9v8.6H232.9z"/>
	<path class="st26" d="M242.4,193.3c-0.7,0.4-1.4,0.6-2.1,0.6c-1.3,0-2.4-0.7-2.4-2.5v-4.5h-1.2v-1.4h1.2v-2.4h1.9v2.4h2.6v1.4h-2.6
		v4.1c0,0.9,0.4,1.2,0.9,1.2c0.4,0,0.8-0.1,1.3-0.4L242.4,193.3z"/>
	<path class="st26" d="M252.2,189.6c0,2.6-1.8,4.4-4.5,4.4s-4.5-1.8-4.5-4.4c0-2.6,1.8-4.4,4.5-4.4
		C250.4,185.2,252.2,186.9,252.2,189.6z M245.1,189.6c0,1.7,1.1,2.8,2.7,2.8c1.5,0,2.6-1.1,2.6-2.8s-1.1-2.8-2.6-2.8
		C246.2,186.8,245.1,187.9,245.1,189.6z"/>
</g>
<g>
	<path class="st26" d="M203.3,217.8h1.4l-0.1,0.9h-1.4l-0.2,1.7h-0.8l0.2-1.7h-1.8l-0.2,1.7h-0.8l0.2-1.7h-1.4l0.1-0.9h1.4l0.2-1.8
		h-1.4l0.1-0.9h1.4l0.2-1.8h0.8l-0.2,1.8h1.8l0.2-1.8h0.8l-0.2,1.8h1.4l-0.1,0.9h-1.4L203.3,217.8z M200.9,216.1l-0.2,1.8h1.8
		l0.2-1.8H200.9z"/>
	<path class="st26" d="M206.8,220.4v-5.9h-1.4v-1.1h2.5v7H206.8L206.8,220.4z"/>
	<path class="st26" d="M218.3,214.5l-0.7,0.9c-0.5-0.5-1.2-0.9-2-0.9c-1.4,0-2.5,1.1-2.5,2.4s1.1,2.5,2.5,2.5c0.7,0,1.4-0.3,2-0.8
		l0.7,0.8c-0.7,0.7-1.7,1.2-2.7,1.2c-2,0-3.6-1.5-3.6-3.5s1.6-3.5,3.7-3.5C216.7,213.4,217.7,213.8,218.3,214.5z"/>
	<path class="st26" d="M224.6,217.1v3.3h-1.2v-3c0-0.8-0.5-1.3-1.3-1.3c-0.9,0-1.5,0.7-1.5,1.7v2.6h-1.2V213h1.2v3.1
		c0.4-0.7,1.1-1.1,2-1.1C223.8,215.1,224.6,215.8,224.6,217.1z"/>
	<path class="st26" d="M231.1,217.7c0,1.6-1.1,2.7-2.8,2.7c-1.6,0-2.8-1.1-2.8-2.7s1.1-2.7,2.8-2.7
		C230,215.1,231.1,216.1,231.1,217.7z M226.8,217.8c0,1,0.7,1.7,1.6,1.7c0.9,0,1.6-0.7,1.6-1.7s-0.7-1.7-1.6-1.7
		C227.4,216,226.8,216.7,226.8,217.8z"/>
	<path class="st26" d="M233.6,213.6c0,0.4-0.3,0.7-0.7,0.7s-0.7-0.3-0.7-0.7s0.3-0.7,0.7-0.7C233.3,212.9,233.6,213.2,233.6,213.6z
		 M232.3,220.4v-5.3h1.1v5.3H232.3z"/>
	<path class="st26" d="M239.5,215.9l-0.6,0.7c-0.4-0.4-0.9-0.6-1.5-0.6c-0.9,0-1.6,0.7-1.6,1.7s0.6,1.7,1.6,1.7
		c0.7,0,1.2-0.2,1.6-0.6l0.6,0.6c-0.5,0.6-1.2,1-2.2,1c-1.6,0-2.7-1.1-2.7-2.7c0-1.6,1.1-2.7,2.7-2.7
		C238.3,215.1,239,215.4,239.5,215.9z"/>
	<path class="st26" d="M245.2,218.2h-4c0.2,0.8,0.8,1.3,1.6,1.3c0.6,0,1.1-0.2,1.5-0.6l0.6,0.6c-0.5,0.6-1.3,0.9-2.2,0.9
		c-1.6,0-2.7-1.1-2.7-2.7c0-1.6,1.1-2.7,2.7-2.7C244.6,215.1,245.3,216.3,245.2,218.2z M244.2,217.3c0-0.9-0.6-1.4-1.5-1.4
		c-0.8,0-1.4,0.5-1.5,1.4H244.2z"/>
</g>
<g>
	<path class="st26" d="M102,210.3c0,0.1-0.1,0.1-0.3,0.1c-0.1,0.2-0.3,0.5-0.5,0.8h3.8v0.8H92.3v-0.8H96c-0.1-0.3-0.3-0.7-0.5-1
		l0.5-0.1h-1.5v-2.5h8.4v2.5h-1.4L102,210.3z M98.1,206.1v-1h-5.4v-0.7h5.4v-1l1.2,0.1c0,0.1-0.1,0.2-0.3,0.2v0.8h5.5v0.7H99v1h4.5
		v0.7h-9.9v-0.7h4.5V206.1z M94.2,216.2v-3.4h8.9v3.4h-1v-0.4h-7v0.4H94.2z M102.1,213.5h-7v1.5h7V213.5z M95.4,208.2v1.2h6.5v-1.2
		H95.4z M100.2,211.2c0.2-0.3,0.4-0.7,0.6-1.1h-4.5c0.3,0.3,0.4,0.8,0.5,1.1H100.2z"/>
	<path class="st26" d="M105.8,212.6c0.9-1.1,1.4-2.9,1.7-4.5l0.9,0.2c-0.3,1.6-0.7,3.6-1.7,4.7L105.8,212.6z M110.8,214.4
		c0,0.6,0.2,0.8,1,0.8h2.8c0.8,0,0.9-0.5,1-2.8c0.2,0.2,0.6,0.4,0.9,0.4c-0.1,2.5-0.4,3.2-1.9,3.2h-2.9c-1.4,0-1.8-0.4-1.8-1.7v-1.1
		c-1.1,0.7-2.2,1.4-3.4,2c-0.1-0.2-0.4-0.5-0.6-0.7c1.4-0.6,2.8-1.4,4-2.3V207l1.2,0.1c0,0.1-0.1,0.2-0.3,0.2v4.2
		c2.5-2.1,4.5-4.7,5.8-7.3l1.1,0.5c-0.1,0.1-0.2,0.1-0.4,0.1c-1.5,2.9-3.7,5.7-6.5,7.9L110.8,214.4L110.8,214.4z M110.3,203.3
		c1.5,0.5,3.3,1.3,4.2,2l-0.6,0.8c-0.9-0.7-2.7-1.6-4.2-2.1L110.3,203.3z M118.2,213.2c-0.4-1.3-1.3-3.3-2.4-4.8l0.8-0.4
		c1.1,1.5,2.1,3.4,2.5,4.7L118.2,213.2z"/>
	<path class="st26" d="M122.7,208.9v4.5c1.1,1.6,3.2,1.6,5.7,1.6c1.5,0,3.3,0,4.4-0.1c-0.1,0.2-0.3,0.7-0.3,0.9
		c-1,0-2.5,0.1-3.9,0.1c-2.9,0-4.8,0-6.2-1.7c-0.6,0.6-1.3,1.2-1.9,1.7c0,0.1,0,0.2-0.1,0.2l-0.5-1c0.6-0.4,1.3-1.1,2-1.7v-3.7H120
		v-0.9L122.7,208.9L122.7,208.9z M120.8,203.7c0.9,0.6,1.9,1.6,2.3,2.3l-0.7,0.6c-0.4-0.7-1.4-1.7-2.3-2.3L120.8,203.7z
		 M128.6,203.4c0,0.1-0.1,0.2-0.2,0.2c1,1.3,2.8,2.7,4.3,3.4c-0.2,0.2-0.4,0.6-0.5,0.8c-1.5-0.9-3.3-2.3-4.3-3.6
		c-0.9,1.3-2.5,2.8-4.2,3.7c-0.1-0.2-0.3-0.6-0.5-0.8c1.7-0.9,3.4-2.4,4.3-3.8L128.6,203.4z M126.4,210.9c0,0.1-0.1,0.1-0.3,0.1
		c-0.5,1-1.4,2-2.1,2.7c-0.2-0.1-0.5-0.4-0.7-0.5c0.8-0.6,1.6-1.6,2-2.6L126.4,210.9z M128.3,210v3.3c0,0.9-0.4,1-2.2,1
		c0-0.2-0.2-0.6-0.3-0.8c0.3,0,0.6,0,0.9,0c0.7,0,0.7,0,0.7-0.2V210h-3.7v-0.8h3.7v-1.4h-2.1V207h5.2v0.8h-2.2v1.4h4v0.8H128.3
		L128.3,210z M131.6,213.6c-0.4-0.8-1.3-1.9-2.1-2.8c0.4-0.2,0.5-0.3,0.7-0.4c0.8,0.8,1.8,2,2.2,2.7L131.6,213.6z"/>
</g>
<g>
	<path class="st26" d="M71.6,255.1c0.2,0.4,0.4,0.8,0.5,1.2c0.1,0.3,0.2,0.7,0.7,0.7c0.2,0,0.4-0.1,0.5-0.2c0.2-0.1,0.4-0.3,0.4-0.6
		l0.2-0.8l0.5-0.3l0,0c-0.1,0.3-0.1,0.6-0.1,0.8c0,0.7,0.5,0.9,0.9,0.9c0.2,0,0.4-0.1,0.4-0.4s-0.1-0.9-0.3-1.3
		c0.2-0.3,0.4-0.5,0.7-0.8l0,0c0.1,0.6,0.2,1.2,0.2,1.5c0,0.4-0.1,0.8-0.3,1.1c-0.2,0.5-0.7,1-1.2,1c-0.4,0-0.8-0.2-1.1-0.6l0,0
		c-0.3,0.4-0.7,0.8-1.4,0.8H72c0,0.5-0.1,0.9-0.3,1.2c-0.4,1-1.6,1.6-2.8,1.6c-1.6,0-2.4-1.1-2.4-2.5c0-0.9,0.3-1.7,0.6-2.3l0.3,0.2
		c-0.2,0.5-0.4,1.1-0.4,1.5c0,1.3,0.9,2,2,2c1,0,2.2-0.7,2.4-1.6c-0.1-1-0.4-1.4-0.8-2.2C71.1,255.7,71.3,255.4,71.6,255.1
		L71.6,255.1L71.6,255.1z M73.2,253.9c-0.4-0.3-0.6-0.6-1-0.9c0.2-0.3,0.4-0.6,0.6-0.8c0.4,0.3,0.6,0.5,0.9,0.9
		C73.6,253.5,73.4,253.7,73.2,253.9z M73.7,252.2c-0.4-0.3-0.6-0.6-1-0.9c0.2-0.3,0.4-0.6,0.6-0.8c0.4,0.3,0.6,0.5,0.9,0.9
		C74.1,251.7,73.9,252,73.7,252.2z M74.8,253.8c-0.4-0.3-0.6-0.6-1-0.9c0.2-0.3,0.4-0.6,0.6-0.8c0.4,0.3,0.6,0.5,0.9,0.9
		C75.2,253.4,75,253.6,74.8,253.8z"/>
	<path class="st26" d="M84.2,255.2c-0.2-0.7-0.4-1-0.6-1c-0.4,0-0.9,0.2-1.3,0.6s-0.8,0.8-0.8,1.1c0,0.7,2.1,0.6,2.7,1.1
		c0.2,0.2,0.4,0.4,0.4,0.9c0,0.4-0.3,1.2-0.7,1.5c-0.8,0.8-2,1.4-3.2,1.4c-1.9,0-2.9-1.3-2.9-3c0-0.8,0.2-1.4,0.4-2l0.3,0.1
		c-0.2,0.5-0.3,1-0.3,1.4c0,1.6,1.1,2.4,2.4,2.4c0.5,0,1.4-0.2,2.2-0.7c0.5-0.3,1-0.7,1-0.8c0-0.3-0.6-0.4-1.3-0.5
		c-0.7-0.1-1.3-0.3-1.5-0.5s-0.3-0.4-0.3-0.7c0-0.8,0.4-1.5,0.9-2.1c0.6-0.6,1.5-1.2,2-1.2c0.3,0,0.4,0.1,0.6,0.4
		c0.1,0.3,0.2,0.5,0.2,0.8C84.6,254.5,84.4,254.9,84.2,255.2L84.2,255.2z M80.3,263.2c-0.4-0.3-0.6-0.6-1-0.9
		c0.2-0.3,0.4-0.6,0.6-0.8c0.4,0.3,0.6,0.5,0.9,0.9C80.7,262.8,80.5,263,80.3,263.2z M81.9,263.1c-0.4-0.3-0.6-0.6-1-0.9
		c0.2-0.3,0.4-0.6,0.6-0.8c0.4,0.3,0.6,0.5,0.9,0.9C82.3,262.7,82.1,262.9,81.9,263.1z"/>
	<path class="st26" d="M90.2,258.7c-2.3,0-4-0.8-4-2.9c0-0.7,0.1-1.3,0.5-2l0.3,0.1c-0.2,0.5-0.2,0.9-0.2,1.2c0,1.7,1.6,2.3,3.7,2.3
		c1,0,1.9-0.1,2.8-0.4c0.4-0.1,0.7-0.2,1.1-0.4c0.1,0,0.1-0.1,0.1-0.1c0-0.4-0.4-1.2-0.8-2c0.2-0.4,0.4-0.7,0.6-0.9l0,0
		c0.4,0.7,0.8,1.7,0.8,2.5c0,0.6-0.2,1-0.4,1.4C93.9,258.1,91.8,258.7,90.2,258.7z M90.5,260.1c0.4,0.3,0.7,0.5,1,0.9
		c-0.2,0.3-0.4,0.6-0.7,0.8c-0.3-0.3-0.6-0.6-1-0.8C90,260.7,90.3,260.4,90.5,260.1z"/>
	<path class="st26" d="M102.8,255.2c-0.2-0.7-0.4-1-0.6-1c-0.4,0-0.9,0.2-1.3,0.6s-0.8,0.8-0.8,1.1c0,0.7,2.1,0.6,2.7,1.1
		c0.2,0.2,0.4,0.4,0.4,0.9c0,0.4-0.3,1.2-0.7,1.5c-0.8,0.8-2,1.4-3.2,1.4c-1.9,0-2.9-1.3-2.9-3c0-0.8,0.2-1.4,0.4-2l0.3,0.1
		c-0.2,0.5-0.3,1-0.3,1.4c0,1.6,1.1,2.4,2.4,2.4c0.5,0,1.4-0.2,2.2-0.7c0.5-0.3,1-0.7,1-0.8c0-0.3-0.6-0.4-1.3-0.5
		c-0.7-0.1-1.3-0.3-1.5-0.5s-0.3-0.4-0.3-0.7c0-0.8,0.4-1.5,0.9-2.1c0.6-0.6,1.5-1.2,2-1.2c0.3,0,0.4,0.1,0.6,0.4
		c0.1,0.3,0.2,0.5,0.2,0.8C103.3,254.5,103.1,254.9,102.8,255.2L102.8,255.2z M99,263.2c-0.4-0.3-0.6-0.6-1-0.9
		c0.2-0.3,0.4-0.6,0.6-0.8c0.4,0.3,0.6,0.5,0.9,0.9C99.4,262.8,99.2,263,99,263.2z M100.5,263.1c-0.4-0.3-0.6-0.6-1-0.9
		c0.2-0.3,0.4-0.6,0.6-0.8c0.4,0.3,0.6,0.5,0.9,0.9C101,262.7,100.8,262.9,100.5,263.1z"/>
	<path class="st26" d="M108.8,258.7c-2.3,0-4-0.8-4-2.9c0-0.7,0.1-1.3,0.5-2l0.3,0.1c-0.2,0.5-0.2,0.9-0.2,1.2
		c0,1.7,1.6,2.3,3.7,2.3c1,0,1.9-0.1,2.8-0.4c0.4-0.1,0.7-0.2,1.1-0.4c0.1,0,0.1-0.1,0.1-0.1c0-0.4-0.4-1.2-0.8-2
		c0.2-0.4,0.4-0.7,0.6-0.9l0,0c0.4,0.7,0.8,1.7,0.8,2.5c0,0.6-0.2,1-0.4,1.4C112.6,258.1,110.5,258.7,108.8,258.7z M108.5,253.2
		c-0.4-0.3-0.6-0.6-1-0.9c0.2-0.3,0.4-0.6,0.6-0.8c0.4,0.3,0.6,0.5,0.9,0.9C108.9,252.8,108.7,253,108.5,253.2z M110.1,253.1
		c-0.4-0.3-0.6-0.6-1-0.9c0.2-0.3,0.4-0.6,0.6-0.8c0.4,0.3,0.6,0.5,0.9,0.9C110.5,252.6,110.3,252.9,110.1,253.1z"/>
	<path class="st26" d="M117.8,257.5c-1,0-1.8-0.4-1.8-1.5c0-0.5,0.2-1,0.5-1.4c0.4-0.4,0.8-0.7,1.2-0.7c0.5,0,0.9,0.4,1.2,0.9
		c0.3,0.6,0.5,1.3,0.5,2.3c0,0.8-0.2,1.5-0.6,2.2c-0.7,1.1-1.4,1.6-2.1,1.6c-0.8,0-1.5-0.3-2.4-0.8l0.1-0.3c0.4,0.2,0.8,0.3,1.2,0.3
		c0.8,0,1.7-0.4,2.4-1.2c0.4-0.4,0.7-0.9,0.8-1.4C118.6,257.4,118.2,257.5,117.8,257.5z M117.5,254.9c-0.4,0-0.9,0.4-0.9,0.7
		c0,0.5,0.7,0.9,1.4,0.9c0.3,0,0.6,0,0.9-0.1C118.7,255.5,118.2,254.9,117.5,254.9z"/>
</g>
<g>
	<path class="st26" d="M284.4,273.6l-1.2,1.4v1.9H282v-7.3h1.2v3.8l3.5-3.8h1.4l-2.9,3.1l3,4.2h-1.5L284.4,273.6z"/>
	<path class="st26" d="M290.6,269.7c0,0.4-0.3,0.7-0.7,0.7c-0.4,0-0.7-0.3-0.7-0.7c0-0.4,0.3-0.7,0.7-0.7
		C290.3,269,290.6,269.3,290.6,269.7z M289.4,276.9v-5.6h1.2v5.6H289.4z"/>
	<path class="st26" d="M293.5,272.4c0.4-0.8,1.1-1.2,1.9-1.2v1.2c-1.1-0.1-1.8,0.6-1.9,1.5v2.9h-1.2v-5.6h1.2V272.4z"/>
	<path class="st26" d="M297.7,269.7c0,0.4-0.3,0.7-0.7,0.7c-0.4,0-0.7-0.3-0.7-0.7c0-0.4,0.3-0.7,0.7-0.7
		C297.4,269,297.7,269.3,297.7,269.7z M296.4,276.9v-5.6h1.2v5.6H296.4z"/>
	<path class="st26" d="M308.7,273.4v3.5h-1.2v-3.1c0-0.8-0.5-1.3-1.3-1.3c-1,0-1.5,0.8-1.5,1.7v2.8h-1.2v-3.1c0-0.8-0.5-1.3-1.3-1.3
		c-1,0-1.5,0.8-1.5,1.7v2.8h-1.2v-5.6h1.2v1.1c0.4-0.8,1.1-1.1,2-1.1c1,0,1.7,0.5,1.9,1.3c0.4-0.9,1.1-1.3,2.1-1.3
		C307.9,271.2,308.7,272.1,308.7,273.4z"/>
	<path class="st26" d="M315.6,273.6l-1.2,1.4v1.9h-1.2v-7.3h1.2v3.8l3.5-3.8h1.4l-2.9,3.1l3,4.2H318L315.6,273.6z"/>
	<path class="st26" d="M325.4,274.5h-4.2c0.2,0.9,0.8,1.4,1.7,1.4c0.6,0,1.2-0.2,1.6-0.6l0.6,0.7c-0.5,0.6-1.3,0.9-2.3,0.9
		c-1.7,0-2.9-1.2-2.9-2.8c0-1.7,1.2-2.8,2.8-2.9C324.8,271.2,325.6,272.5,325.4,274.5z M324.4,273.7c0-0.9-0.6-1.4-1.5-1.4
		s-1.5,0.5-1.6,1.4H324.4z"/>
</g>
<g>
	<path class="st26" d="M160.6,267.2l-0.4,0.9c-0.6-0.4-1.2-0.5-1.7-0.5c-0.6,0-0.9,0.2-0.9,0.6c0,1.2,3.1,0.6,3.1,2.7
		c0,1-0.9,1.7-2.2,1.7c-0.9,0-1.8-0.4-2.4-0.9l0.4-0.8c0.6,0.5,1.3,0.8,2,0.8s1.1-0.3,1.1-0.7c0-1.3-3.1-0.6-3.1-2.6
		c0-1,0.8-1.6,2.1-1.6C159.3,266.6,160.1,266.9,160.6,267.2z"/>
	<path class="st26" d="M166,269.7v2.7h-1V270c0-0.7-0.4-1.1-1.1-1.1c-0.8,0-1.2,0.6-1.2,1.4v2.1h-1v-6.1h1v2.6
		c0.3-0.6,0.9-0.9,1.6-0.9C165.4,268,166,268.6,166,269.7z"/>
	<path class="st26" d="M168.3,266.8c0,0.3-0.2,0.6-0.5,0.6s-0.5-0.2-0.5-0.6s0.2-0.6,0.5-0.6C168.1,266.2,168.3,266.4,168.3,266.8z
		 M167.3,272.4V268h0.9v4.4H167.3z"/>
	<path class="st26" d="M174.2,270.3c0,1.3-0.8,2.2-2.1,2.2c-0.7,0-1.2-0.3-1.5-0.8v2.4h-1v-6h1v0.8c0.3-0.5,0.8-0.8,1.5-0.8
		C173.3,268,174.2,268.9,174.2,270.3z M173.2,270.2c0-0.8-0.5-1.4-1.3-1.4s-1.3,0.6-1.3,1.4s0.5,1.4,1.3,1.4
		S173.2,271.1,173.2,270.2z"/>
	<path class="st26" d="M176.2,266.8c0,0.3-0.2,0.6-0.5,0.6s-0.5-0.2-0.5-0.6s0.2-0.6,0.5-0.6C176,266.2,176.2,266.4,176.2,266.8z
		 M175.2,272.4V268h0.9v4.4H175.2z"/>
	<path class="st26" d="M180,272.1c-0.4,0.2-0.7,0.3-1.1,0.3c-0.7,0-1.2-0.4-1.2-1.3v-2.3h-0.6v-0.7h0.6V267h0.9v1.2h1.3v0.7h-1.3
		v2.1c0,0.4,0.2,0.6,0.5,0.6c0.2,0,0.4-0.1,0.7-0.2L180,272.1z"/>
	<path class="st26" d="M185,270.2c0,1.3-0.9,2.2-2.3,2.2s-2.3-0.9-2.3-2.2c0-1.3,0.9-2.2,2.3-2.2S185,268.9,185,270.2z M181.4,270.3
		c0,0.8,0.5,1.4,1.3,1.4s1.3-0.6,1.3-1.4s-0.5-1.4-1.3-1.4C181.9,268.8,181.4,269.4,181.4,270.3z"/>
</g>
<g>
	<path class="st26" d="M296.9,196.8l-0.5,1c-0.7-0.4-1.5-0.6-2-0.6c-0.7,0-1.1,0.3-1.1,0.7c0,1.5,3.7,0.7,3.7,3.2c0,1.2-1.1,2-2.6,2
		c-1.1,0-2.1-0.4-2.8-1.1l0.5-1c0.7,0.6,1.6,1,2.3,1c0.8,0,1.3-0.3,1.3-0.8c0-1.5-3.7-0.7-3.7-3.1c0-1.2,1-1.9,2.5-1.9
		C295.4,196.1,296.3,196.4,296.9,196.8z"/>
	<path class="st26" d="M303.4,199.8v3.3h-1.2v-2.9c0-0.8-0.5-1.3-1.3-1.3c-0.9,0-1.5,0.7-1.5,1.6v2.6h-1.2v-7.3h1.2v3.1
		c0.4-0.7,1.1-1.1,2-1.1C302.6,197.8,303.4,198.5,303.4,199.8z"/>
	<path class="st26" d="M306.1,196.3c0,0.4-0.3,0.7-0.7,0.7c-0.4,0-0.7-0.3-0.7-0.7s0.3-0.7,0.7-0.7
		C305.8,195.6,306.1,195.9,306.1,196.3z M304.9,203.1v-5.3h1.1v5.3H304.9L304.9,203.1z"/>
	<path class="st26" d="M313.2,200.5c0,1.6-1,2.7-2.5,2.7c-0.8,0-1.5-0.4-1.9-1v2.8h-1.2v-7.2h1.2v0.9c0.4-0.6,1-1,1.8-1
		C312.3,197.8,313.2,198.9,313.2,200.5z M312.1,200.4c0-1-0.7-1.7-1.6-1.7s-1.6,0.7-1.6,1.7s0.7,1.7,1.6,1.7
		C311.5,202.2,312.1,201.4,312.1,200.4z"/>
	<path class="st26" d="M315.7,196.3c0,0.4-0.3,0.7-0.7,0.7c-0.4,0-0.7-0.3-0.7-0.7s0.3-0.7,0.7-0.7
		C315.4,195.6,315.7,195.9,315.7,196.3z M314.4,203.1v-5.3h1.1v5.3H314.4L314.4,203.1z"/>
	<path class="st26" d="M320.2,202.7c-0.4,0.3-0.9,0.4-1.3,0.4c-0.8,0-1.5-0.4-1.5-1.5v-2.7h-0.7V198h0.7v-1.4h1.1v1.4h1.6v0.9h-1.6
		v2.5c0,0.5,0.2,0.7,0.6,0.7c0.2,0,0.5-0.1,0.8-0.2L320.2,202.7z"/>
	<path class="st26" d="M326.2,200.5c0,1.6-1.1,2.7-2.8,2.7c-1.6,0-2.8-1.1-2.8-2.7c0-1.6,1.1-2.7,2.8-2.7S326.2,198.9,326.2,200.5z
		 M321.9,200.5c0,1,0.7,1.7,1.6,1.7s1.6-0.7,1.6-1.7s-0.7-1.7-1.6-1.7S321.9,199.4,321.9,200.5z"/>
</g>
<path class="st26" d="M265,239l1.4-0.1c0.1,0.4,0.3,1.4,0.7,4.1c1.4-0.3,1.7-0.9,1.7-1.9c0-0.6-0.2-1.4-0.4-2l1.3-0.1
	c0.1,0.5,0.3,1.2,0.3,2c0,1.3-0.4,2.6-2.8,3c0,0.1,0.2,1.2,0.3,1.6c0.3,0,0.9-0.1,1.6-0.2c1.8-0.4,2.9-1.2,2.9-3.6
	c0-1-0.2-2-0.5-2.7l1.4-0.1c0.2,0.5,0.4,1.5,0.4,2.5c0,3.5-2,4.7-4.3,5.1c-0.9,0.2-1.8,0.3-2.3,0.3C266.2,245,265.4,240.2,265,239z"
	/>
<path class="st26" d="M260.7,243.3c0.6-0.9,0.9-1.6,0.9-2.2c0-0.5-0.3-0.6-0.9-0.8c-0.4-0.1-0.6-0.2-0.9-0.3l0.3-1.2
	c0.2,0.1,0.5,0.2,0.8,0.3c1.4,0.3,1.8,0.7,1.8,1.8c0,0.9-0.4,1.9-1.1,2.9L260.7,243.3z"/>
<path class="st26" d="M251,245.5c0.4-0.1,1.3-0.1,2.2-0.1h3.1v-2.6c0-1.6-0.5-2.2-2.3-2.5c-0.6-0.1-1.2-0.2-1.6-0.3
	c-0.2,0.4-0.4,0.8-0.4,1.2c0,0.5,0.4,0.9,1.4,1l-0.3,1.2c-1.6-0.2-2.1-1-2.1-2c0-0.9,0.6-2,1-2.8c0.2,0.1,1,0.2,2.2,0.4
	c2.1,0.3,3.3,1,3.2,3.5v2.9c0,0.2-0.1,1-0.2,1.2h-4.5c-0.7,0-1.6,0-2,0L251,245.5z"/>
<path class="st26" d="M246.2,243.3c0.6-0.9,0.9-1.6,0.9-2.2c0-0.5-0.3-0.6-0.9-0.8c-0.4-0.1-0.6-0.2-0.9-0.3l0.3-1.2
	c0.2,0.1,0.5,0.2,0.8,0.3c1.4,0.3,1.8,0.7,1.8,1.8c0,0.9-0.4,1.9-1.1,2.9L246.2,243.3z"/>
<path class="st26" d="M235.7,239l1.3-0.1c0.4,1.7,0.7,4,1.1,6.6c0.3,0,0.6-0.1,1.2-0.2c1.6-0.3,2.5-1.4,2.5-3c0-1.4-0.7-2.1-1.8-2.2
	c-0.5,0-1,0.1-1.3,0.3l0.3-1.3c0.4-0.2,0.8-0.2,1.3-0.2c1.8,0,2.7,1.4,2.7,3.2c0,3-2,4.2-3.6,4.5c-0.8,0.2-1.7,0.3-2.1,0.3
	C236.8,244.3,236.3,241.3,235.7,239z"/>
<path class="st26" d="M232.2,242.3c0-1.2-0.1-1.7-1.2-2c-0.5-0.1-0.8-0.2-1-0.3l0.3-1.2c0.2,0.1,0.5,0.1,1,0.2
	c1.6,0.4,2.1,0.9,2.1,3v4.7h-1.1L232.2,242.3L232.2,242.3z"/>
</svg>
