<svg id="svg" version="1.1" xmlns="http://www.w3.org/2000/svg" xmlns:xlink="http://www.w3.org/1999/xlink" width="400" height="320" viewBox="0, 0, 400,320"><g id="svgg"><path id="path0" d="M283.680 39.278 C 202.436 39.349,191.799 39.413,191.485 39.838 C 191.172 40.263,181.725 40.328,110.055 40.399 L 28.979 40.480 28.573 41.280 C 27.898 42.612,28.137 278.514,28.814 279.191 C 29.257 279.634,37.721 279.685,110.334 279.681 C 182.237 279.678,191.360 279.732,191.360 280.159 C 191.360 280.586,201.653 280.640,283.014 280.640 C 333.423 280.640,374.859 280.714,375.094 280.804 C 375.448 280.940,375.520 260.605,375.520 160.004 C 375.520 93.474,375.520 39.076,375.520 39.119 C 375.520 39.163,334.192 39.235,283.680 39.278 M374.361 40.433 C 374.626 40.753,374.700 72.287,374.640 160.353 L 374.560 279.840 283.713 279.921 C 216.823 279.980,192.753 279.906,192.433 279.641 C 191.829 279.140,191.780 40.988,192.384 40.384 C 192.987 39.781,373.860 39.830,374.361 40.433 " stroke="none" fill="#ececec" fill-rule="evenodd"></path><path id="path1" d="M0.000 160.000 L 0.000 320.000 200.000 320.000 L 400.000 320.000 400.000 160.000 L 400.000 0.000 200.000 0.000 L 0.000 0.000 0.000 160.000 M379.563 33.169 C 379.262 33.687,379.218 33.644,379.210 32.816 C 379.203 32.128,379.296 31.968,379.553 32.225 C 379.806 32.478,379.809 32.746,379.563 33.169 M290.529 33.723 C 290.811 34.062,290.790 34.206,290.439 34.341 C 289.909 34.544,289.600 34.311,289.600 33.707 C 289.600 33.153,290.063 33.161,290.529 33.723 M298.720 33.920 C 298.720 34.179,298.468 34.440,298.160 34.499 C 297.767 34.575,297.600 34.402,297.600 33.920 C 297.600 33.438,297.767 33.265,298.160 33.341 C 298.468 33.400,298.720 33.661,298.720 33.920 M297.106 35.178 C 297.208 35.342,297.137 35.570,296.950 35.686 C 296.476 35.979,295.596 35.595,295.839 35.202 C 296.089 34.798,296.862 34.783,297.106 35.178 M283.753 35.434 C 283.089 35.503,282.081 35.502,281.513 35.431 C 280.945 35.360,281.488 35.304,282.720 35.305 C 283.952 35.306,284.417 35.364,283.753 35.434 M292.560 35.431 C 291.813 35.524,291.520 35.725,291.520 36.146 C 291.520 36.468,291.292 36.819,291.014 36.926 C 290.234 37.225,289.280 37.156,289.280 36.800 C 289.280 36.624,289.712 36.480,290.240 36.480 C 290.987 36.480,291.200 36.338,291.200 35.840 C 291.200 35.305,291.396 35.208,292.400 35.251 C 293.581 35.302,293.584 35.304,292.560 35.431 M381.600 35.520 C 380.726 35.896,380.480 35.896,380.480 35.520 C 380.480 35.344,380.876 35.210,381.360 35.222 C 382.140 35.242,382.167 35.276,381.600 35.520 M298.880 36.834 C 298.880 37.210,297.690 37.204,297.457 36.827 C 297.240 36.477,297.918 36.195,298.480 36.401 C 298.700 36.482,298.880 36.677,298.880 36.834 M378.298 36.870 C 377.916 37.252,376.895 37.085,376.738 36.614 C 376.665 36.397,376.991 36.322,377.616 36.414 C 378.256 36.508,378.498 36.670,378.298 36.870 M295.927 38.020 C 296.074 38.463,294.846 38.542,294.577 38.107 C 294.386 37.798,294.993 37.443,295.500 37.567 C 295.665 37.607,295.857 37.811,295.927 38.020 M375.680 37.920 C 375.680 38.184,375.544 38.400,375.379 38.400 C 374.975 38.400,374.686 37.900,374.942 37.645 C 375.302 37.284,375.680 37.425,375.680 37.920 M382.538 37.724 C 382.634 37.880,382.499 38.185,382.236 38.403 C 381.840 38.732,381.760 38.684,381.760 38.119 C 381.760 37.433,382.215 37.201,382.538 37.724 M335.440 39.278 C 360.901 39.342,373.120 39.267,373.120 39.046 C 373.120 38.867,373.408 38.720,373.760 38.720 C 374.112 38.720,374.400 38.881,374.400 39.077 C 374.400 39.279,374.684 39.360,375.053 39.264 C 375.582 39.125,375.669 39.210,375.512 39.707 C 375.354 40.202,375.474 40.320,376.138 40.320 C 377.186 40.320,377.197 40.866,376.160 41.338 L 375.360 41.703 375.360 160.059 L 375.360 278.416 376.160 278.720 C 377.207 279.118,377.185 279.680,376.123 279.680 C 375.432 279.680,375.316 279.797,375.459 280.345 C 375.592 280.852,375.515 280.965,375.136 280.820 C 374.859 280.714,374.470 280.860,374.258 281.150 C 373.907 281.629,373.835 281.629,373.361 281.155 C 372.696 280.491,300.615 280.355,298.000 281.014 C 296.868 281.298,296.486 281.298,296.391 281.014 C 296.230 280.530,291.960 280.507,291.663 280.988 C 291.508 281.238,291.350 281.238,291.100 280.988 C 290.852 280.740,276.415 280.640,241.056 280.640 C 197.039 280.640,191.360 280.585,191.360 280.159 C 191.360 279.732,182.237 279.678,110.334 279.681 C 37.721 279.685,29.257 279.634,28.814 279.191 C 28.137 278.514,27.898 42.612,28.573 41.280 L 28.979 40.480 110.055 40.399 C 181.572 40.328,191.172 40.262,191.485 39.840 C 191.798 39.419,198.097 39.361,244.080 39.354 C 281.695 39.348,296.320 39.248,296.320 38.996 C 296.320 38.766,296.568 38.738,297.040 38.914 C 297.436 39.062,314.716 39.226,335.440 39.278 M381.280 39.360 C 381.171 39.536,380.875 39.680,380.621 39.680 C 380.368 39.680,380.160 39.536,380.160 39.360 C 380.160 39.184,380.456 39.040,380.819 39.040 C 381.181 39.040,381.389 39.184,381.280 39.360 M379.589 41.019 C 379.101 41.507,378.740 41.147,379.011 40.440 C 379.171 40.023,379.310 39.982,379.594 40.266 C 379.879 40.551,379.878 40.730,379.589 41.019 M379.680 279.680 C 379.525 279.931,379.341 279.949,379.128 279.736 C 378.952 279.560,378.912 279.247,379.040 279.040 C 379.195 278.789,379.379 278.771,379.592 278.984 C 379.768 279.160,379.808 279.473,379.680 279.680 M381.137 280.800 C 381.112 281.275,380.396 281.188,380.230 280.689 C 380.140 280.420,380.286 280.300,380.620 280.369 C 380.914 280.430,381.146 280.624,381.137 280.800 M296.146 281.897 C 296.370 282.260,295.174 282.680,294.718 282.399 C 294.537 282.287,294.472 282.062,294.574 281.898 C 294.812 281.513,295.908 281.512,296.146 281.897 M375.729 282.319 C 375.363 282.685,374.626 282.330,374.885 281.912 C 374.982 281.756,375.282 281.713,375.552 281.816 C 375.873 281.940,375.934 282.114,375.729 282.319 M382.448 282.080 C 382.448 282.247,382.293 282.436,382.104 282.499 C 381.915 282.562,381.760 282.373,381.760 282.080 C 381.760 281.787,381.915 281.598,382.104 281.661 C 382.293 281.724,382.448 281.913,382.448 282.080 M291.014 283.074 C 291.292 283.181,291.520 283.532,291.520 283.853 C 291.520 284.245,291.810 284.481,292.400 284.571 C 293.219 284.695,293.208 284.707,292.240 284.752 C 291.508 284.786,291.200 284.658,291.200 284.320 C 291.200 284.024,290.900 283.840,290.419 283.840 C 289.616 283.840,289.139 283.447,289.502 283.085 C 289.760 282.827,290.359 282.823,291.014 283.074 M298.706 283.178 C 298.808 283.342,298.737 283.570,298.550 283.686 C 298.076 283.979,297.196 283.595,297.439 283.202 C 297.689 282.798,298.462 282.783,298.706 283.178 M378.344 283.368 C 378.375 283.540,378.004 283.726,377.520 283.781 C 376.558 283.892,376.296 283.336,377.200 283.103 C 377.942 282.911,378.276 282.989,378.344 283.368 M296.960 284.640 C 296.960 284.904,296.752 285.120,296.499 285.120 C 295.880 285.120,295.574 284.576,296.078 284.373 C 296.777 284.091,296.960 284.147,296.960 284.640 M381.440 284.480 C 381.828 284.731,381.782 284.791,381.200 284.795 C 380.804 284.798,380.480 284.656,380.480 284.480 C 380.480 284.079,380.820 284.079,381.440 284.480 M298.880 286.124 C 298.880 286.487,297.963 286.870,297.707 286.613 C 297.605 286.511,297.605 286.208,297.708 285.939 C 297.902 285.434,298.880 285.588,298.880 286.124 M290.560 286.240 C 290.560 286.504,290.344 286.720,290.080 286.720 C 289.816 286.720,289.600 286.504,289.600 286.240 C 289.600 285.976,289.816 285.760,290.080 285.760 C 290.344 285.760,290.560 285.976,290.560 286.240 M379.553 287.775 C 379.296 288.032,379.203 287.872,379.210 287.184 C 379.218 286.356,379.262 286.313,379.563 286.831 C 379.809 287.254,379.806 287.522,379.553 287.775 " stroke="none" fill="#fffaff" fill-rule="evenodd"></path><path id="path2" d="M192.384 40.384 C 191.780 40.988,191.829 279.140,192.433 279.641 C 192.753 279.906,216.823 279.980,283.713 279.921 L 374.560 279.840 374.640 160.353 C 374.700 72.287,374.626 40.753,374.361 40.433 C 373.860 39.830,192.987 39.781,192.384 40.384 M286.600 41.036 C 287.291 41.351,287.496 41.351,287.601 41.036 C 287.764 40.548,289.482 40.510,289.777 40.988 C 289.932 41.238,290.090 41.238,290.340 40.988 C 290.875 40.453,292.480 40.552,292.480 41.120 C 292.480 41.483,292.872 41.600,294.090 41.600 C 295.226 41.600,295.754 41.459,295.884 41.120 C 296.047 40.697,300.698 40.640,335.074 40.640 L 374.080 40.640 374.080 160.000 L 374.080 279.360 335.074 279.360 C 300.698 279.360,296.047 279.303,295.884 278.880 C 295.754 278.541,295.226 278.400,294.090 278.400 C 292.872 278.400,292.480 278.517,292.480 278.880 C 292.480 279.215,292.142 279.360,291.360 279.360 C 290.702 279.360,290.240 279.202,290.240 278.976 C 290.240 278.677,290.155 278.677,289.856 278.976 C 289.361 279.471,287.919 279.471,287.424 278.976 C 287.125 278.677,286.955 278.677,286.656 278.976 C 286.361 279.271,275.442 279.360,239.456 279.360 L 192.640 279.360 192.640 160.000 L 192.640 40.640 239.185 40.640 C 275.504 40.640,285.921 40.727,286.600 41.036 M296.235 41.791 C 295.810 42.217,296.444 42.880,297.275 42.880 C 298.668 42.880,299.137 42.051,297.885 41.801 C 296.642 41.552,296.475 41.551,296.235 41.791 M291.084 42.400 C 291.186 42.664,291.307 42.880,291.355 42.880 C 291.403 42.880,291.621 42.664,291.840 42.400 C 292.173 41.999,292.128 41.920,291.569 41.920 C 291.106 41.920,290.957 42.068,291.084 42.400 M296.399 277.489 C 295.742 278.146,295.939 278.400,297.101 278.400 C 298.054 278.400,298.855 277.948,298.511 277.605 C 298.130 277.223,296.741 277.147,296.399 277.489 M291.200 277.920 C 291.200 278.184,291.344 278.400,291.520 278.400 C 291.696 278.400,291.840 278.184,291.840 277.920 C 291.840 277.656,291.696 277.440,291.520 277.440 C 291.344 277.440,291.200 277.656,291.200 277.920 " stroke="none" fill="#4c4c4c" fill-rule="evenodd"></path><path id="path3" d="M379.210 32.816 C 379.218 33.644,379.262 33.687,379.563 33.169 C 379.809 32.746,379.806 32.478,379.553 32.225 C 379.296 31.968,379.203 32.128,379.210 32.816 M289.600 33.707 C 289.600 34.311,289.909 34.544,290.439 34.341 C 290.790 34.206,290.811 34.062,290.529 33.723 C 290.063 33.161,289.600 33.153,289.600 33.707 M297.600 33.920 C 297.600 34.402,297.767 34.575,298.160 34.499 C 298.468 34.440,298.720 34.179,298.720 33.920 C 298.720 33.661,298.468 33.400,298.160 33.341 C 297.767 33.265,297.600 33.438,297.600 33.920 M295.839 35.202 C 295.596 35.595,296.476 35.979,296.950 35.686 C 297.137 35.570,297.208 35.342,297.106 35.178 C 296.862 34.783,296.089 34.798,295.839 35.202 M281.513 35.431 C 282.081 35.502,283.089 35.503,283.753 35.434 C 284.417 35.364,283.952 35.306,282.720 35.305 C 281.488 35.304,280.945 35.360,281.513 35.431 M291.200 35.840 C 291.200 36.338,290.987 36.480,290.240 36.480 C 289.712 36.480,289.280 36.624,289.280 36.800 C 289.280 37.156,290.234 37.225,291.014 36.926 C 291.292 36.819,291.520 36.468,291.520 36.146 C 291.520 35.725,291.813 35.524,292.560 35.431 C 293.584 35.304,293.581 35.302,292.400 35.251 C 291.396 35.208,291.200 35.305,291.200 35.840 M380.480 35.520 C 380.480 35.896,380.726 35.896,381.600 35.520 C 382.167 35.276,382.140 35.242,381.360 35.222 C 380.876 35.210,380.480 35.344,380.480 35.520 M297.678 36.394 C 297.457 36.472,297.357 36.666,297.457 36.827 C 297.690 37.204,298.880 37.210,298.880 36.834 C 298.880 36.465,298.194 36.214,297.678 36.394 M376.738 36.614 C 376.895 37.085,377.916 37.252,378.298 36.870 C 378.498 36.670,378.256 36.508,377.616 36.414 C 376.991 36.322,376.665 36.397,376.738 36.614 M294.798 37.654 C 294.221 37.885,294.641 38.400,295.406 38.400 C 295.763 38.400,295.997 38.230,295.927 38.020 C 295.776 37.569,295.353 37.432,294.798 37.654 M374.942 37.645 C 374.686 37.900,374.975 38.400,375.379 38.400 C 375.544 38.400,375.680 38.184,375.680 37.920 C 375.680 37.425,375.302 37.284,374.942 37.645 M381.760 38.119 C 381.760 38.684,381.840 38.732,382.236 38.403 C 382.718 38.003,382.616 37.440,382.061 37.440 C 381.896 37.440,381.760 37.746,381.760 38.119 M296.320 39.025 C 296.320 39.209,296.920 39.360,297.653 39.360 C 299.225 39.360,299.181 39.208,297.520 38.908 C 296.760 38.771,296.320 38.814,296.320 39.025 M373.120 39.040 C 373.120 39.216,373.408 39.360,373.760 39.360 C 374.112 39.360,374.400 39.216,374.400 39.040 C 374.400 38.864,374.112 38.720,373.760 38.720 C 373.408 38.720,373.120 38.864,373.120 39.040 M380.160 39.360 C 380.160 39.536,380.368 39.680,380.621 39.680 C 380.875 39.680,381.171 39.536,381.280 39.360 C 381.389 39.184,381.181 39.040,380.819 39.040 C 380.456 39.040,380.160 39.184,380.160 39.360 M379.011 40.440 C 378.740 41.147,379.101 41.507,379.589 41.019 C 379.878 40.730,379.879 40.551,379.594 40.266 C 379.310 39.982,379.171 40.023,379.011 40.440 M375.360 40.960 C 375.360 41.691,375.481 41.729,376.341 41.269 C 377.206 40.806,377.113 40.320,376.160 40.320 C 375.573 40.320,375.360 40.491,375.360 40.960 M375.360 279.050 C 375.360 279.514,375.578 279.680,376.187 279.680 C 377.164 279.680,377.088 279.060,376.064 278.681 C 375.489 278.468,375.360 278.536,375.360 279.050 M379.040 279.040 C 378.912 279.247,378.952 279.560,379.128 279.736 C 379.341 279.949,379.525 279.931,379.680 279.680 C 379.808 279.473,379.768 279.160,379.592 278.984 C 379.379 278.771,379.195 278.789,379.040 279.040 M380.230 280.689 C 380.396 281.188,381.112 281.275,381.137 280.800 C 381.146 280.624,380.914 280.430,380.620 280.369 C 380.286 280.300,380.140 280.420,380.230 280.689 M296.320 280.960 C 296.320 281.329,297.088 281.329,298.240 280.960 C 298.920 280.742,298.835 280.699,297.680 280.672 C 296.932 280.654,296.320 280.784,296.320 280.960 M373.120 280.926 C 373.120 281.285,373.952 281.621,374.209 281.365 C 374.594 280.979,374.384 280.640,373.760 280.640 C 373.408 280.640,373.120 280.769,373.120 280.926 M294.574 281.898 C 294.472 282.062,294.537 282.287,294.718 282.399 C 295.174 282.680,296.370 282.260,296.146 281.897 C 295.908 281.512,294.812 281.513,294.574 281.898 M374.885 281.912 C 374.626 282.330,375.363 282.685,375.729 282.319 C 375.934 282.114,375.873 281.940,375.552 281.816 C 375.282 281.713,374.982 281.756,374.885 281.912 M381.760 282.080 C 381.760 282.373,381.915 282.562,382.104 282.499 C 382.293 282.436,382.448 282.247,382.448 282.080 C 382.448 281.913,382.293 281.724,382.104 281.661 C 381.915 281.598,381.760 281.787,381.760 282.080 M289.502 283.085 C 289.139 283.447,289.616 283.840,290.419 283.840 C 290.900 283.840,291.200 284.024,291.200 284.320 C 291.200 284.658,291.508 284.786,292.240 284.752 C 293.208 284.707,293.219 284.695,292.400 284.571 C 291.810 284.481,291.520 284.245,291.520 283.853 C 291.520 283.079,290.063 282.524,289.502 283.085 M297.439 283.202 C 297.196 283.595,298.076 283.979,298.550 283.686 C 298.737 283.570,298.808 283.342,298.706 283.178 C 298.462 282.783,297.689 282.798,297.439 283.202 M377.200 283.103 C 376.296 283.336,376.558 283.892,377.520 283.781 C 378.004 283.726,378.375 283.540,378.344 283.368 C 378.276 282.989,377.942 282.911,377.200 283.103 M296.078 284.373 C 295.574 284.576,295.880 285.120,296.499 285.120 C 296.752 285.120,296.960 284.904,296.960 284.640 C 296.960 284.147,296.777 284.091,296.078 284.373 M380.480 284.480 C 380.480 284.656,380.804 284.798,381.200 284.795 C 381.782 284.791,381.828 284.731,381.440 284.480 C 380.820 284.079,380.480 284.079,380.480 284.480 M297.708 285.939 C 297.468 286.565,297.757 286.851,298.386 286.610 C 299.019 286.367,299.020 285.882,298.388 285.640 C 298.105 285.531,297.816 285.658,297.708 285.939 M289.600 286.240 C 289.600 286.504,289.816 286.720,290.080 286.720 C 290.344 286.720,290.560 286.504,290.560 286.240 C 290.560 285.976,290.344 285.760,290.080 285.760 C 289.816 285.760,289.600 285.976,289.600 286.240 M379.210 287.184 C 379.203 287.872,379.296 288.032,379.553 287.775 C 379.806 287.522,379.809 287.254,379.563 286.831 C 379.262 286.313,379.218 286.356,379.210 287.184 " stroke="none" fill="#ffffff" fill-rule="evenodd"></path><path id="path4" d="M192.640 160.000 L 192.640 279.360 239.456 279.360 C 275.442 279.360,286.361 279.271,286.656 278.976 C 286.955 278.677,287.125 278.677,287.424 278.976 C 287.919 279.471,289.361 279.471,289.856 278.976 C 290.155 278.677,290.240 278.677,290.240 278.976 C 290.240 279.202,290.702 279.360,291.360 279.360 C 292.142 279.360,292.480 279.215,292.480 278.880 C 292.480 278.517,292.872 278.400,294.090 278.400 C 295.226 278.400,295.754 278.541,295.884 278.880 C 296.047 279.303,300.698 279.360,335.074 279.360 L 374.080 279.360 374.080 160.000 L 374.080 40.640 335.074 40.640 C 300.698 40.640,296.047 40.697,295.884 41.120 C 295.754 41.459,295.226 41.600,294.090 41.600 C 292.872 41.600,292.480 41.483,292.480 41.120 C 292.480 40.552,290.875 40.453,290.340 40.988 C 290.090 41.238,289.932 41.238,289.777 40.988 C 289.482 40.510,287.764 40.548,287.601 41.036 C 287.496 41.351,287.291 41.351,286.600 41.036 C 285.921 40.727,275.504 40.640,239.185 40.640 L 192.640 40.640 192.640 160.000 M297.885 41.801 C 298.691 41.962,298.818 42.089,298.526 42.441 C 298.050 43.014,296.437 43.007,296.216 42.431 C 295.906 41.624,296.284 41.481,297.885 41.801 M291.840 42.400 C 291.621 42.664,291.403 42.880,291.355 42.880 C 291.307 42.880,291.186 42.664,291.084 42.400 C 290.957 42.068,291.106 41.920,291.569 41.920 C 292.128 41.920,292.173 41.999,291.840 42.400 M298.511 277.605 C 298.855 277.948,298.054 278.400,297.101 278.400 C 295.939 278.400,295.742 278.146,296.399 277.489 C 296.741 277.147,298.130 277.223,298.511 277.605 M291.840 277.920 C 291.840 278.184,291.696 278.400,291.520 278.400 C 291.344 278.400,291.200 278.184,291.200 277.920 C 291.200 277.656,291.344 277.440,291.520 277.440 C 291.696 277.440,291.840 277.656,291.840 277.920 " stroke="none" fill="#444444" fill-rule="evenodd"></path></g></svg>