<svg xmlns="http://www.w3.org/2000/svg" xmlns:xlink="http://www.w3.org/1999/xlink" viewBox="0 0 139.4 139.4"><defs><style>.cls-1{fill:none;}.cls-2{isolation:isolate;}.cls-3{fill:url(#_ÂÁ_Ï_ÌÌ_È_ËÂÌÚ_13);}.cls-4{fill:#8dabfc;}.cls-5{fill:#303f75;}.cls-6{fill:#5677d3;}.cls-7{fill:#577af7;}.cls-8{fill:#eff1f3;}.cls-9{fill:#ffde95;}.cls-10{fill:url(#_ÂÁ_Ï_ÌÌ_È_ËÂÌÚ_93);}.cls-11{fill:#fed575;}.cls-12{mix-blend-mode:multiply;}.cls-13{fill:#b4bed8;}.cls-14{fill:#232c39;}.cls-15{fill:url(#_ÂÁ_Ï_ÌÌ_È_ËÂÌÚ_21);}.cls-16{fill:url(#_ÂÁ_Ï_ÌÌ_È_ËÂÌÚ_23);}.cls-17{fill:#fff;}.cls-18{fill:#5b5c70;}.cls-19{fill:#748afd;}.cls-20{fill:url(#_ÂÁ_Ï_ÌÌ_È_ËÂÌÚ_23-2);}.cls-21{fill:url(#_ÂÁ_Ï_ÌÌ_È_ËÂÌÚ_23-3);}.cls-22{fill:url(#_ÂÁ_Ï_ÌÌ_È_ËÂÌÚ_23-4);}.cls-23{fill:url(#_ÂÁ_Ï_ÌÌ_È_ËÂÌÚ_93-2);}.cls-24{clip-path:url(#clip-path);}.cls-25{fill:url(#_ÂÁ_Ï_ÌÌ_È_ËÂÌÚ_93-3);}.cls-26{fill:#f54c5c;}.cls-27{fill:#ffbf6f;}</style><radialGradient id="_ÂÁ_Ï_ÌÌ_È_ËÂÌÚ_13" cx="72.26" cy="86.55" r="63.86" gradientTransform="translate(69.7 -28.87) rotate(45)" gradientUnits="userSpaceOnUse"><stop offset="0" stop-color="#b6c8d6"/><stop offset="0.32" stop-color="#d2dde5"/><stop offset="0.76" stop-color="#f3f6f8"/><stop offset="1" stop-color="#fff"/></radialGradient><linearGradient id="_ÂÁ_Ï_ÌÌ_È_ËÂÌÚ_93" x1="122.09" y1="25.75" x2="132.5" y2="25.75" gradientUnits="userSpaceOnUse"><stop offset="0" stop-color="#fea14a"/><stop offset="0.14" stop-color="#fea750"/><stop offset="0.64" stop-color="#ffba5f"/><stop offset="1" stop-color="#ffc065"/></linearGradient><linearGradient id="_ÂÁ_Ï_ÌÌ_È_ËÂÌÚ_21" x1="96.29" y1="21.49" x2="102.57" y2="27.31" gradientTransform="matrix(-1, 0, 0, 1, 161.53, 0)" gradientUnits="userSpaceOnUse"><stop offset="0" stop-color="#fb5f81"/><stop offset="0.3" stop-color="#fa5c7b"/><stop offset="0.72" stop-color="#f75268"/><stop offset="1" stop-color="#f54a59"/></linearGradient><linearGradient id="_ÂÁ_Ï_ÌÌ_È_ËÂÌÚ_23" x1="95.94" y1="30.86" x2="101.11" y2="23.68" gradientTransform="matrix(-1, 0, 0, 1, 161.53, 0)" gradientUnits="userSpaceOnUse"><stop offset="0" stop-color="#dd1d30"/><stop offset="0.37" stop-color="#eb4a61"/><stop offset="0.79" stop-color="#f97a94"/><stop offset="1" stop-color="#ff8da8"/></linearGradient><linearGradient id="_ÂÁ_Ï_ÌÌ_È_ËÂÌÚ_23-2" x1="77.57" y1="87.87" x2="87.34" y2="87.87" gradientTransform="matrix(1, 0, 0, 1, 0, 0)" xlink:href="#_ÂÁ_Ï_ÌÌ_È_ËÂÌÚ_23"/><linearGradient id="_ÂÁ_Ï_ÌÌ_È_ËÂÌÚ_23-3" x1="74.96" y1="93.09" x2="84.72" y2="93.09" gradientTransform="matrix(1, 0, 0, 1, 0, 0)" xlink:href="#_ÂÁ_Ï_ÌÌ_È_ËÂÌÚ_23"/><linearGradient id="_ÂÁ_Ï_ÌÌ_È_ËÂÌÚ_23-4" x1="72.34" y1="98.32" x2="82.11" y2="98.32" gradientTransform="matrix(1, 0, 0, 1, 0, 0)" xlink:href="#_ÂÁ_Ï_ÌÌ_È_ËÂÌÚ_23"/><linearGradient id="_ÂÁ_Ï_ÌÌ_È_ËÂÌÚ_93-2" x1="81.98" y1="69.32" x2="65.64" y2="63.58" xlink:href="#_ÂÁ_Ï_ÌÌ_È_ËÂÌÚ_93"/><clipPath id="clip-path"><polygon class="cls-1" points="39.48 84.77 23.91 98.01 23.91 127.33 39.48 137.06 58.63 128.79 58.63 95.83 39.48 84.77"/></clipPath><linearGradient id="_ÂÁ_Ï_ÌÌ_È_ËÂÌÚ_93-3" x1="62.5" y1="121.33" x2="53.94" y2="105.37" xlink:href="#_ÂÁ_Ï_ÌÌ_È_ËÂÌÚ_93"/></defs><g class="cls-2"><g id="Layer_2" data-name="Layer 2"><g id="Layer_1-2" data-name="Layer 1"><circle class="cls-3" cx="69.7" cy="69.7" r="69.7" transform="translate(-28.87 69.7) rotate(-45)"/><polygon class="cls-4" points="108.08 39.09 118.49 45.22 128.91 39.23 118.49 33.1 108.08 39.09"/><path class="cls-5" d="M118.49,42.72a.19.19,0,0,1-.1,0L108,36.56a.18.18,0,0,1-.1-.17.19.19,0,0,1,.1-.17l10.41-6a.18.18,0,0,1,.2,0L129,36.36a.21.21,0,0,1,.1.17.22.22,0,0,1-.11.18l-10.41,6Zm-10-6.33,10,5.9,10-5.76-10-5.9Z"/><polygon class="cls-6" points="118.49 59.28 128.91 53.29 128.91 39.23 118.49 45.22 118.49 59.28"/><polygon class="cls-7" points="108.08 53.15 118.49 59.28 118.49 45.22 108.08 39.09 108.08 53.15"/><path class="cls-8" d="M113.57,48.48a.17.17,0,0,1-.1,0l-8.15-4.79a.22.22,0,0,1-.1-.18.21.21,0,0,1,.1-.17l3.28-1.88a.19.19,0,0,1,.27.07.2.2,0,0,1-.07.27l-3,1.72,7.75,4.56,3.21-1.85a.21.21,0,0,1,.27.07.21.21,0,0,1-.07.28l-3.31,1.9A.19.19,0,0,1,113.57,48.48Z"/><path class="cls-8" d="M113.57,59.48a.17.17,0,0,1-.1,0,.18.18,0,0,1-.1-.17v-11a.19.19,0,0,1,.1-.17l3.64-2.1a.21.21,0,0,1,.28.07.21.21,0,0,1-.08.28l-3.54,2V58.93l3.66-2.11a.21.21,0,0,1,.28.08.2.2,0,0,1-.08.27l-4,2.28A.19.19,0,0,1,113.57,59.48Z"/><path class="cls-8" d="M113.57,59.48a.17.17,0,0,1-.1,0l-8.15-4.8a.19.19,0,0,1-.1-.17v-11a.21.21,0,0,1,.1-.17.2.2,0,0,1,.2,0l8.15,4.8a.19.19,0,0,1,.1.17v11a.21.21,0,0,1-.2.2Zm-7.95-5.11,7.75,4.56V48.39l-7.75-4.56Z"/><polygon class="cls-9" points="111.67 15.58 122.09 21.71 132.5 15.72 122.09 9.59 111.67 15.58"/><path class="cls-5" d="M122.09,19.22a.17.17,0,0,1-.1,0l-10.42-6.13a.21.21,0,0,1-.1-.17.21.21,0,0,1,.1-.18l10.42-6a.23.23,0,0,1,.2,0l10.41,6.14a.19.19,0,0,1,0,.34l-10.41,6A.19.19,0,0,1,122.09,19.22Zm-10-6.33,10,5.9,10-5.76-10-5.9Z"/><polygon class="cls-10" points="122.09 35.78 132.5 29.79 132.5 15.72 122.09 21.71 122.09 35.78"/><polygon class="cls-11" points="111.67 29.65 122.09 35.78 122.09 21.71 111.67 15.58 111.67 29.65"/><path class="cls-8" d="M117.16,25a.18.18,0,0,1-.1,0l-8.14-4.8a.19.19,0,0,1,0-.34l3.28-1.89a.2.2,0,0,1,.2.35l-3,1.71,7.74,4.56,3.22-1.84a.19.19,0,0,1,.27.07.2.2,0,0,1-.07.27L117.26,25A.16.16,0,0,1,117.16,25Z"/><path class="cls-8" d="M117.16,36l-.1,0a.22.22,0,0,1-.1-.18v-11a.21.21,0,0,1,.1-.17l3.65-2.1a.2.2,0,0,1,.27.08.2.2,0,0,1-.07.27l-3.55,2V35.43L121,33.32a.2.2,0,0,1,.27.07.2.2,0,0,1-.07.28l-4,2.28Z"/><path class="cls-8" d="M117.16,36l-.1,0-8.14-4.8a.21.21,0,0,1-.1-.17V20a.19.19,0,0,1,.1-.17.18.18,0,0,1,.2,0l8.15,4.79a.2.2,0,0,1,.09.17v11a.19.19,0,0,1-.1.18Zm-7.94-5.11L117,35.42V24.89l-7.74-4.56Z"/><g class="cls-12"><path class="cls-13" d="M114.19,81.7C91,70.33,53.52,70.58,30.49,82.27S7.58,112.66,30.77,124s60.68,11.12,83.71-.58S137.39,93.08,114.19,81.7Z"/></g><path class="cls-14" d="M11.68,80.81a4.65,4.65,0,0,1-2.36-.59c-1.56-.89-2.43-2.71-2.45-5.11l-.19-25c0-5.14,3.82-11.56,8.6-14.31L62.06,9c2.42-1.4,4.79-1.63,6.49-.66S71,11,71,13.41l-.13,25c0,5.33-3.6,11.61-8.28,14.3L49.78,60.06,41.62,73.64c-1.31,2.16-3.4,3.33-4.77,2.66l-8.23-4.09L15.81,79.57A8.51,8.51,0,0,1,11.68,80.81ZM62.16,9.12l.1.17L15.48,36.15c-4.67,2.68-8.44,8.94-8.4,14l.19,25c0,2.25.82,3.94,2.25,4.77,1.58.9,3.8.66,6.1-.66l13-7.46L37,75.94c1.16.57,3.07-.55,4.24-2.51l8.22-13.66,12.9-7.41c4.49-2.58,8.12-8.84,8.08-14l.13-25c0-2.25-.82-3.95-2.25-4.77s-3.8-.67-6.09.65Z"/><polygon class="cls-13" points="29.56 60.28 37.66 55.58 37.66 56.84 29.56 61.54 29.56 60.28"/><polygon class="cls-13" points="28.07 61.14 28.07 62.4 21.02 66.48 21.02 65.23 28.07 61.14"/><polygon class="cls-13" points="33.25 60.97 37.66 58.41 37.66 59.66 33.25 62.22 33.25 60.97"/><polygon class="cls-13" points="27.01 64.59 27.01 65.84 21.02 69.31 21.02 68.06 27.01 64.59"/><polygon class="cls-13" points="28 64.02 32.63 61.33 32.63 62.58 28 65.27 28 64.02"/><polygon class="cls-13" points="33.25 55.34 37.66 52.78 37.66 54.03 33.25 56.59 33.25 55.34"/><polygon class="cls-13" points="27.01 58.96 27.01 60.21 21.02 63.68 21.02 62.43 27.01 58.96"/><polygon class="cls-13" points="28 58.38 32.63 55.7 32.63 56.95 28 59.64 28 58.38"/><polygon class="cls-13" points="44.41 49.46 59.63 40.63 59.63 41.78 44.41 50.61 44.41 49.46"/><polygon class="cls-13" points="54.65 46.11 59.63 43.22 59.63 44.37 54.65 47.26 54.65 46.11"/><polygon class="cls-13" points="52.79 47.19 52.79 48.34 44.41 53.2 44.41 52.05 52.79 47.19"/><polygon class="cls-13" points="44.41 54.63 59.63 45.81 59.63 46.95 44.41 55.78 44.41 54.63"/><path class="cls-15" d="M57.6,19.15c1.4-1.46,3.74-3,5.79-2l1.39.82c-.59-.29-2.59-.92-5.38,1.6A11.94,11.94,0,0,0,56.1,25c-.3,1,0,4.59.88,5.42a32.05,32.05,0,0,1,3.73,4.73l-1.56-.9s-3.94-4.43-4.25-4.91a5.62,5.62,0,0,1-.52-3.93A12.12,12.12,0,0,1,57.6,19.15Z"/><path class="cls-16" d="M56.43,30.31c.44.61,4.28,4.82,4.28,4.82s5.67-9.78,5.67-13.67a4.3,4.3,0,0,0-.95-2.94,2.77,2.77,0,0,0-2.33-.84c-2.06.18-3.88,1.81-5.06,3.39a11.47,11.47,0,0,0-2.35,6.12A4.89,4.89,0,0,0,56.43,30.31Zm5.69-10c1.62-.16,2.47,1.52,1.9,3.76s-2.34,4.19-3.95,4.35c-1.3.14-2-1.05-2.07-2.23C57.9,24,59.64,20.56,62.12,20.3Z"/><path class="cls-1" d="M61.75,36.47l-.19-.21c-.15-.17-3.85-4.22-4.29-4.84h0a5,5,0,0,1-.78-3.24A11.69,11.69,0,0,1,58.88,22c.73-1,2.69-3.24,5.2-3.47a3,3,0,0,1,2.5.9,4.55,4.55,0,0,1,1,3.08c0,3.9-5.46,13.37-5.7,13.77Zm-4.16-5.28c.38.52,3.31,3.75,4.08,4.6.86-1.52,5.51-9.87,5.51-13.33a4.19,4.19,0,0,0-.9-2.81,2.57,2.57,0,0,0-2.17-.77c-2.34.21-4.21,2.38-4.91,3.31a11.35,11.35,0,0,0-2.31,6A4.6,4.6,0,0,0,57.59,31.19Z"/><path class="cls-14" d="M59.85,28.62h-.23a1.65,1.65,0,0,1-.71-.23,1.88,1.88,0,0,1-.7-.7l-.18-.3h.35a4.67,4.67,0,0,0,4.35-4.76,3.93,3.93,0,0,0-.65-2.21l-.19-.3h.35a1.83,1.83,0,0,1,1.57.69,3.81,3.81,0,0,1,.41,3.32c-.59,2.31-2.44,4.33-4.13,4.5Zm-1.09-.87a1.39,1.39,0,0,0,.35.29,1.35,1.35,0,0,0,.56.17,1.6,1.6,0,0,0,.38,0c1.53-.16,3.23-2,3.78-4.21a3.47,3.47,0,0,0-.33-3,1.43,1.43,0,0,0-.89-.52,4.34,4.34,0,0,1,.52,2.11A5.11,5.11,0,0,1,58.76,27.75Z"/><path class="cls-9" d="M20.39,47.48l-1.74.67a.2.2,0,0,1-.27-.09l-.78-1.54c-.13-.27-.52-.05-.65.37l-.77,2.43a.88.88,0,0,1-.28.41L14.17,51c-.3.23-.42.76-.21.91l1.26.82a.35.35,0,0,1,.1.35L15,55.47c0,.41.26.51.53.18l1.55-1.92a.42.42,0,0,1,.34-.19l1.55.14c.27,0,.58-.44.53-.79l-.3-2a.77.77,0,0,1,.11-.47l1.25-2.26C20.81,47.76,20.69,47.36,20.39,47.48Z"/><path class="cls-9" d="M28.06,43.08l-1.73.67a.21.21,0,0,1-.28-.09l-.77-1.54c-.14-.27-.52,0-.66.37l-.77,2.43a.82.82,0,0,1-.28.41l-1.73,1.31c-.3.23-.42.76-.2.91l1.25.82a.35.35,0,0,1,.11.35l-.3,2.35c-.05.41.26.51.53.18l1.55-1.92a.44.44,0,0,1,.34-.19l1.55.14c.27,0,.58-.44.53-.79l-.29-2A.7.7,0,0,1,27,46l1.25-2.26C28.48,43.36,28.36,43,28.06,43.08Z"/><path class="cls-9" d="M35.74,38.68,34,39.35a.19.19,0,0,1-.27-.09L33,37.72c-.13-.27-.52,0-.65.37l-.78,2.43a.8.8,0,0,1-.27.41l-1.73,1.31c-.3.23-.42.76-.21.91l1.26.82a.37.37,0,0,1,.1.35l-.29,2.35c-.06.41.26.51.53.18l1.55-1.92a.42.42,0,0,1,.34-.19l1.55.14c.26,0,.58-.44.53-.79l-.3-2a.84.84,0,0,1,.1-.47l1.26-2.26C36.16,39,36,38.56,35.74,38.68Z"/><path class="cls-9" d="M43.41,34.28,41.68,35a.21.21,0,0,1-.28-.09l-.77-1.54c-.14-.27-.52,0-.66.37l-.77,2.43a.88.88,0,0,1-.28.41l-1.73,1.31c-.3.23-.42.76-.2.91l1.25.82a.35.35,0,0,1,.11.35l-.3,2.35c0,.41.26.51.53.18l1.55-1.92a.43.43,0,0,1,.34-.19l1.55.14c.27,0,.58-.44.53-.79l-.3-2a.77.77,0,0,1,.11-.47L43.61,35C43.83,34.55,43.71,34.16,43.41,34.28Z"/><path class="cls-17" d="M51.08,29.88l-1.73.67a.19.19,0,0,1-.27-.09l-.78-1.54c-.13-.27-.52-.05-.65.37l-.78,2.43a.8.8,0,0,1-.27.41l-1.74,1.31c-.3.23-.42.76-.2.9l1.25.83a.35.35,0,0,1,.11.35l-.3,2.35c0,.41.27.51.53.18l1.55-1.92a.44.44,0,0,1,.34-.19l1.55.14c.27,0,.58-.44.53-.79l-.29-2a.82.82,0,0,1,.1-.47l1.26-2.26C51.5,30.15,51.38,29.76,51.08,29.88Z"/><path class="cls-14" d="M16.08,56.89a.41.41,0,0,1-.16,0,.51.51,0,0,1-.25-.57l.3-2.35c0-.11,0-.15,0-.16L14.7,53a.44.44,0,0,1-.2-.4,1,1,0,0,1,.39-.82l1.73-1.32a.59.59,0,0,0,.21-.31l.77-2.43a.86.86,0,0,1,.64-.63.4.4,0,0,1,.38.23l.78,1.54,1.76-.68a.39.39,0,0,1,.46.1.78.78,0,0,1,0,.86l-1.26,2.26a.67.67,0,0,0-.08.34l.3,2a1,1,0,0,1-.29.81.58.58,0,0,1-.46.21l-1.55-.14s-.09,0-.16.12l-1.56,1.92A.62.62,0,0,1,16.08,56.89Zm2.18-9.44a.52.52,0,0,0-.28.34l-.77,2.43a1,1,0,0,1-.35.51l-1.73,1.32a.61.61,0,0,0-.23.46c0,.07,0,.11,0,.11l1.25.83a.54.54,0,0,1,.19.54l-.29,2.35a.35.35,0,0,0,0,.15s.08,0,.16-.12l1.55-1.92a.64.64,0,0,1,.52-.27l1.55.14a.24.24,0,0,0,.13-.08.63.63,0,0,0,.18-.48l-.3-2a1,1,0,0,1,.13-.59l1.26-2.27a.45.45,0,0,0,.06-.4l-.09-.17.07.18-1.73.68A.4.4,0,0,1,19,49l-.77-1.54Z"/><path class="cls-14" d="M23.75,52.49a.37.37,0,0,1-.15,0,.49.49,0,0,1-.25-.57l.29-2.35c0-.11,0-.15,0-.16l-1.25-.83a.49.49,0,0,1-.2-.4,1,1,0,0,1,.39-.82L24.3,46a.64.64,0,0,0,.2-.31l.78-2.43a.85.85,0,0,1,.63-.63.41.41,0,0,1,.39.23l.77,1.54,1.76-.68a.41.41,0,0,1,.47.1.77.77,0,0,1,0,.85L28,47a.6.6,0,0,0-.09.34l.3,2a1,1,0,0,1-.28.81.56.56,0,0,1-.46.21l-1.56-.14s-.09,0-.16.12l-1.55,1.92A.62.62,0,0,1,23.75,52.49Zm2.19-9.44c-.06,0-.21.12-.28.34l-.78,2.43a1,1,0,0,1-.34.51L22.8,47.65a.66.66,0,0,0-.23.46.27.27,0,0,0,0,.11l1.25.83a.53.53,0,0,1,.2.54l-.3,2.35c0,.1,0,.15,0,.15a.3.3,0,0,0,.16-.12l1.55-1.92a.61.61,0,0,1,.51-.27l1.55.14s.07,0,.14-.08a.67.67,0,0,0,.18-.48l-.3-2a.93.93,0,0,1,.13-.59l1.25-2.27a.42.42,0,0,0,.06-.4l-.09-.17.08.18-1.74.68a.4.4,0,0,1-.52-.19l-.78-1.54Z"/><path class="cls-14" d="M31.43,48.09a.41.41,0,0,1-.16,0,.5.5,0,0,1-.25-.57l.3-2.35a.31.31,0,0,0,0-.16L30,44.15a.49.49,0,0,1-.2-.4,1.05,1.05,0,0,1,.4-.82L32,41.61a.58.58,0,0,0,.2-.31L33,38.87a.85.85,0,0,1,.64-.63.38.38,0,0,1,.38.23L34.75,40l1.76-.68a.39.39,0,0,1,.46.1.77.77,0,0,1,0,.85L35.7,42.55a.58.58,0,0,0-.08.34l.29,2a1,1,0,0,1-.28.81.58.58,0,0,1-.46.21l-1.55-.14a.5.5,0,0,0-.17.12L31.9,47.82A.62.62,0,0,1,31.43,48.09Zm2.18-9.44a.5.5,0,0,0-.28.34l-.77,2.43a1.06,1.06,0,0,1-.35.51l-1.73,1.31a.7.7,0,0,0-.24.47.27.27,0,0,0,0,.11l1.26.83a.53.53,0,0,1,.19.54l-.29,2.35a.22.22,0,0,0,0,.15s.07,0,.16-.12l1.55-1.92a.63.63,0,0,1,.51-.27l1.56.14a.28.28,0,0,0,.13-.08.67.67,0,0,0,.18-.48l-.3-2a1,1,0,0,1,.13-.59l1.26-2.27a.45.45,0,0,0,.06-.4h0l-1.73.68a.4.4,0,0,1-.53-.19l-.77-1.54Z"/><path class="cls-14" d="M39.1,43.69a.33.33,0,0,1-.15,0,.51.51,0,0,1-.26-.57l.3-2.35a.24.24,0,0,0,0-.16l-1.25-.83a.44.44,0,0,1-.2-.4,1.06,1.06,0,0,1,.39-.83l1.73-1.31a.59.59,0,0,0,.21-.31l.77-2.43a.85.85,0,0,1,.64-.63.39.39,0,0,1,.39.23l.77,1.54,1.76-.68a.39.39,0,0,1,.46.1.75.75,0,0,1,0,.85l-1.26,2.27a.67.67,0,0,0-.08.34l.3,2a1.06,1.06,0,0,1-.28.81.61.61,0,0,1-.47.21l-1.55-.14a.31.31,0,0,0-.16.12l-1.55,1.92A.63.63,0,0,1,39.1,43.69Zm2.18-9.44c-.05,0-.2.11-.28.34L40.23,37a1,1,0,0,1-.35.51l-1.73,1.31a.68.68,0,0,0-.23.47c0,.07,0,.11,0,.11l1.25.83a.54.54,0,0,1,.2.54l-.3,2.35c0,.1,0,.15,0,.15s.07,0,.15-.12l1.56-1.92a.63.63,0,0,1,.51-.27l1.55.14A.24.24,0,0,0,43,41a.63.63,0,0,0,.18-.48l-.29-2A1,1,0,0,1,43,38l1.26-2.27c.11-.21.09-.37.06-.4l-.09-.17.07.18L42.59,36a.41.41,0,0,1-.53-.19l-.77-1.54Z"/><path class="cls-14" d="M46.77,39.29a.37.37,0,0,1-.15,0,.5.5,0,0,1-.25-.57l.29-2.35c0-.1,0-.15,0-.16l-1.25-.83a.49.49,0,0,1-.2-.4,1.1,1.1,0,0,1,.39-.83l1.74-1.31a.64.64,0,0,0,.2-.31l.78-2.43a.84.84,0,0,1,.63-.63.39.39,0,0,1,.39.23l.78,1.54,1.75-.68a.41.41,0,0,1,.47.1.75.75,0,0,1,0,.85l-1.25,2.27a.5.5,0,0,0-.08.34l.29,2a1,1,0,0,1-.28.81.56.56,0,0,1-.46.21L49,37s-.09,0-.17.12L47.25,39A.62.62,0,0,1,46.77,39.29ZM49,29.85a.47.47,0,0,0-.28.34l-.78,2.43a1,1,0,0,1-.34.51l-1.74,1.31a.7.7,0,0,0-.23.47.27.27,0,0,0,0,.11l1.26.83a.53.53,0,0,1,.19.54l-.3,2.35c0,.1,0,.15,0,.15s.07,0,.16-.12l1.55-1.92a.63.63,0,0,1,.51-.27l1.55.14a.34.34,0,0,0,.14-.08.67.67,0,0,0,.18-.48l-.3-2a1,1,0,0,1,.13-.6L52,31.29a.47.47,0,0,0,.07-.4l-.09-.17.07.18-1.74.68a.4.4,0,0,1-.52-.19L49,29.85Z"/><polygon class="cls-6" points="61.66 131.27 36.45 116.72 36.45 75.89 61.66 90.45 61.66 131.27"/><polygon class="cls-14" points="39.48 84.77 39.48 117.73 58.63 128.79 58.63 95.83 39.48 84.77"/><polygon class="cls-4" points="102.45 61.41 127.66 75.96 122.14 75.34 96.93 60.79 102.45 61.41"/><path class="cls-4" d="M83.17,49,36.45,75.84,61.66,90.4l54.65-27.79L94,49.05A10.7,10.7,0,0,0,83.17,49Z"/><polygon class="cls-14" points="99.98 94.22 124.42 82.34 127.04 87.46 128.79 92.05 122.97 88.73 103.58 103.38 99.98 105.93 99.98 94.22"/><polygon class="cls-13" points="119.18 78.05 132.28 85 128.16 88.5 113.65 81.27 119.18 78.05"/><polygon class="cls-14" points="90.08 105.19 88.61 115.71 85.16 112.85 69.01 122.78 68.62 108.17 90.08 105.19"/><polygon class="cls-14" points="132.28 88.51 129.19 92.47 128.16 88.5 132.28 85 132.28 88.51"/><path class="cls-14" d="M71.79,119.92a12.64,12.64,0,0,1,5.74-9.9c1.67-1,3.18-1,4.23-.31l3.59,2.08-2.43,4A13.48,13.48,0,0,1,79,122.09l-2.14,3.49-3.15-1.84a3.25,3.25,0,0,1-.57-.33h0A4.21,4.21,0,0,1,71.79,119.92Z"/><path class="cls-18" d="M75.46,122.11c0,3.67,2.59,5.14,5.79,3.3a12.76,12.76,0,0,0,5.78-10c0-3.67-2.59-5.15-5.78-3.3A12.73,12.73,0,0,0,75.46,122.11Z"/><path class="cls-14" d="M79.54,123.29a2,2,0,0,1-1-.26,2.56,2.56,0,0,1-1.09-2.35,5.07,5.07,0,0,1,0-.66,8,8,0,0,1,2.94-5,5.91,5.91,0,0,1,.52-.35,2.61,2.61,0,0,1,2.62-.24,2.57,2.57,0,0,1,1.09,2.36,7.73,7.73,0,0,1-3.51,6A3.29,3.29,0,0,1,79.54,123.29Zm3-8.75a2.87,2.87,0,0,0-1.43.44,3.64,3.64,0,0,0-.48.32,7.6,7.6,0,0,0-2.78,4.77,4.26,4.26,0,0,0,0,.61,2.16,2.16,0,0,0,.89,2,2.19,2.19,0,0,0,2.21-.24,7.26,7.26,0,0,0,3.31-5.69,2.18,2.18,0,0,0-.89-2A1.5,1.5,0,0,0,82.59,114.54Z"/><path class="cls-14" d="M110.82,97.47a12.64,12.64,0,0,1,5.74-9.9c1.68-1,3.18-1,4.23-.31l3.59,2.08-2.43,4a13.41,13.41,0,0,1-3.89,6.34l-2.13,3.49-3.16-1.84a3.25,3.25,0,0,1-.57-.33h0A4.2,4.2,0,0,1,110.82,97.47Z"/><path class="cls-18" d="M114.5,99.66c0,3.67,2.58,5.14,5.78,3.3a12.74,12.74,0,0,0,5.78-10c0-3.67-2.59-5.14-5.78-3.3A12.72,12.72,0,0,0,114.5,99.66Z"/><path class="cls-14" d="M118.57,100.84a2,2,0,0,1-1-.26,2.55,2.55,0,0,1-1.09-2.35,5.07,5.07,0,0,1,0-.66,8,8,0,0,1,2.94-5c.17-.13.35-.24.52-.35a2.61,2.61,0,0,1,2.62-.24,2.57,2.57,0,0,1,1.09,2.36,7.7,7.7,0,0,1-3.51,6A3.29,3.29,0,0,1,118.57,100.84Zm3.05-8.75a3,3,0,0,0-1.43.44,4.45,4.45,0,0,0-.48.32,7.6,7.6,0,0,0-2.78,4.77,4.35,4.35,0,0,0,0,.61A1.87,1.87,0,0,0,120,100a7.26,7.26,0,0,0,3.31-5.69,2.18,2.18,0,0,0-.89-2A1.5,1.5,0,0,0,121.62,92.09Z"/><path class="cls-19" d="M130.47,80.55v4.67l-4.54,3.7c-2.05-2.14-4-2.91-7.11-1a16.56,16.56,0,0,0-7.75,14.84L88.61,115.71c0-.47,0-1,0-1.47,0-4.91-3.47-6.89-7.75-4.42s-7.75,8.45-7.75,13.36c0,.52,0,1,0,1.46l-11.49,6.63V90.45L110.6,62.24a5.16,5.16,0,0,1,7.32,2.43l3.27,7.61a5.17,5.17,0,0,0,4.43,3.12h0A5.16,5.16,0,0,1,130.47,80.55Z"/><polygon class="cls-20" points="87.34 83.97 87.34 86.13 77.58 91.76 77.58 89.6 87.34 83.97"/><polygon class="cls-21" points="84.72 89.2 84.72 91.36 74.96 96.99 74.96 94.83 84.72 89.2"/><polygon class="cls-22" points="82.11 94.43 82.11 96.59 72.34 102.21 72.34 100.05 82.11 94.43"/><path class="cls-14" d="M114.35,81.06a.07.07,0,0,0,.06,0l5.3-3a.13.13,0,0,0,.06-.07l1-2.79a.1.1,0,0,0,0-.09l-5.08-10.86a.12.12,0,0,0-.11-.07h-.06l-1.22.69a.11.11,0,0,0-.06.11v16A.12.12,0,0,0,114.35,81.06Z"/><path class="cls-14" d="M101.05,88.79a.69.69,0,0,0,.31-.1l10.39-6a2.9,2.9,0,0,0,1.16-2.26V66.07c0-.36-.11-.73-.35-.73a.66.66,0,0,0-.31.1l-10.39,6a2.87,2.87,0,0,0-1.16,2.26V88.05a1.1,1.1,0,0,0,.14.62.23.23,0,0,0,.21.12Z"/><polygon class="cls-18" points="129.18 92.46 128.56 92.17 127.13 87.9 128.16 88.5 129.18 92.46"/><polygon class="cls-17" points="62.02 118.35 127.13 80.8 127.13 78.52 62.02 116.07 62.02 118.35"/><path class="cls-6" d="M106,105.93h-.4V100a6.27,6.27,0,0,0-1.43-4.1,5,5,0,0,0-3.49-1.83,2.55,2.55,0,0,1-2.41-2.55V76.39a8.57,8.57,0,0,1,4.14-7.32l12.2-7.33.21.34-12.2,7.33a8.16,8.16,0,0,0-4,7V91.51a2.17,2.17,0,0,0,2,2.15,5.39,5.39,0,0,1,3.76,2A6.62,6.62,0,0,1,106,100Z"/><polygon class="cls-23" points="85.14 54.62 85.14 68.82 66.4 79.66 66.4 65.44 85.14 54.62"/><path class="cls-8" d="M67.45,80.64l-.1,0a.22.22,0,0,1-.1-.18V66.21a.21.21,0,0,1,.1-.17L86.09,55.22a.23.23,0,0,1,.2,0,.19.19,0,0,1,.1.18V69.6a.18.18,0,0,1-.1.17L67.55,80.62Zm.2-14.31V80.1L86,69.49V55.74Z"/><polygon class="cls-11" points="66.4 65.44 56.88 59.96 56.88 74.17 66.4 79.66 66.4 65.44"/><polygon class="cls-9" points="56.88 59.96 75.77 49.12 85.14 54.62 66.4 65.44 56.88 59.96"/><polygon class="cls-17" points="81.28 52.39 62.61 63.26 60.7 62.16 79.55 51.31 81.28 52.39"/><polygon class="cls-13" points="62.6 63.26 62.6 67.65 60.7 66.5 60.7 62.16 62.6 63.26"/><path class="cls-14" d="M57.7,70.61v3l2,1.16v-3Zm1.84,3.82-1.65-1V70.93l1.65,1Z"/><polygon class="cls-14" points="58.33 73.3 59.02 73.7 59.02 72.89 59.35 73.09 58.67 71.67 57.99 72.3 58.33 72.5 58.33 73.3"/><polygon class="cls-13" points="71.82 70.29 80.4 65.28 80.4 60.2 71.82 65.21 71.82 70.29"/><polygon class="cls-14" points="79.67 61.34 79.1 61.68 79.1 65.4 79.67 65.06 79.67 61.34"/><polygon class="cls-14" points="78.71 61.91 78.43 62.1 78.43 65.82 78.71 65.63 78.71 61.91"/><polygon class="cls-14" points="77.89 62.4 77.32 62.74 77.32 66.46 77.89 66.11 77.89 62.4"/><polygon class="cls-14" points="76.93 62.97 76.71 63.09 76.71 66.81 76.93 66.69 76.93 62.97"/><polygon class="cls-14" points="75.62 63.75 75.53 63.79 75.53 67.51 75.62 67.47 75.62 63.75"/><polygon class="cls-14" points="78.21 62.23 78.12 62.27 78.12 66 78.21 65.95 78.21 62.23"/><polygon class="cls-14" points="74.88 64.19 74.8 64.23 74.8 67.95 74.88 67.91 74.88 64.19"/><polygon class="cls-14" points="74.74 64.27 74.65 64.31 74.65 68.03 74.74 67.99 74.74 64.27"/><polygon class="cls-14" points="77.24 62.78 77.15 62.82 77.15 66.54 77.24 66.5 77.24 62.78"/><polygon class="cls-14" points="77.09 62.87 77 62.91 77 66.63 77.09 66.58 77.09 62.87"/><polygon class="cls-14" points="79.03 61.72 78.95 61.76 78.95 65.48 79.03 65.44 79.03 61.72"/><polygon class="cls-14" points="78.89 61.8 78.8 61.85 78.8 65.56 78.89 65.52 78.89 61.8"/><polygon class="cls-14" points="73.41 65.02 73.32 65.06 73.32 68.78 73.41 68.73 73.41 65.02"/><polygon class="cls-14" points="73.26 65.1 73.17 65.14 73.17 68.86 73.26 68.82 73.26 65.1"/><polygon class="cls-14" points="74.17 64.59 74.08 64.63 74.08 68.35 74.17 68.31 74.17 64.59"/><polygon class="cls-14" points="76.54 63.22 75.78 63.66 75.78 67.38 76.54 66.94 76.54 63.22"/><polygon class="cls-14" points="75.39 63.88 74.95 64.14 74.95 67.86 75.39 67.6 75.39 63.88"/><polygon class="cls-14" points="74.57 64.39 74.29 64.55 74.29 68.27 74.57 68.11 74.57 64.39"/><polygon class="cls-14" points="73.89 64.78 73.46 65.03 73.46 68.75 73.89 68.5 73.89 64.78"/><polygon class="cls-14" points="73.08 65.26 72.51 65.61 72.51 69.33 73.08 68.98 73.08 65.26"/><g class="cls-24"><polygon class="cls-25" points="71.82 94.97 71.82 115.69 44.49 131.5 44.49 110.75 71.82 94.97"/><polygon class="cls-11" points="44.49 110.75 30.62 102.77 30.62 123.48 44.49 131.5 44.49 110.75"/><polygon class="cls-9" points="30.62 102.77 58.16 86.96 71.82 94.97 44.49 110.75 30.62 102.77"/><polygon class="cls-17" points="66.19 91.72 38.98 107.58 36.18 105.97 63.67 90.15 66.19 91.72"/><polygon class="cls-13" points="38.96 107.58 38.96 113.97 36.18 112.3 36.18 105.97 38.96 107.58"/><path class="cls-14" d="M37.45,106.25a.17.17,0,0,1-.1,0l-2.8-1.61a.19.19,0,0,1,0-.34L62,88.45a.18.18,0,0,1,.2,0L64.77,90a.2.2,0,0,1,.09.18.21.21,0,0,1-.1.17L37.55,106.22A.19.19,0,0,1,37.45,106.25Zm-2.4-1.81,2.4,1.37L64.28,90.19l-2.15-1.34Z"/><path class="cls-14" d="M37.43,112.64a.17.17,0,0,1-.1,0l-2.78-1.67a.19.19,0,0,1-.1-.17v-6.33a.21.21,0,0,1,.1-.17.18.18,0,0,1,.2,0l2.78,1.6a.21.21,0,0,1,.1.17v6.4a.22.22,0,0,1-.1.18Zm-2.58-2,2.38,1.43v-5.93l-2.38-1.37Z"/><path class="cls-14" d="M31.81,118.3v4.34l2.95,1.7V120Zm2.68,5.57-2.4-1.39v-3.71l2.4,1.39Z"/><polygon class="cls-14" points="32.73 122.22 33.73 122.8 33.73 121.62 34.22 121.91 33.23 119.83 32.24 120.76 32.73 121.04 32.73 122.22"/><polygon class="cls-13" points="52.41 117.83 64.92 110.52 64.92 103.11 52.41 110.42 52.41 117.83"/><polygon class="cls-14" points="63.85 104.78 63.02 105.28 63.02 110.7 63.85 110.2 63.85 104.78"/><polygon class="cls-14" points="62.44 105.61 62.04 105.88 62.04 111.31 62.44 111.03 62.44 105.61"/><polygon class="cls-14" points="61.26 106.32 60.43 106.82 60.43 112.24 61.26 111.74 61.26 106.32"/><polygon class="cls-14" points="59.85 107.15 59.53 107.33 59.53 112.76 59.85 112.58 59.85 107.15"/><polygon class="cls-14" points="57.94 108.29 57.82 108.35 57.82 113.77 57.94 113.71 57.94 108.29"/><polygon class="cls-14" points="61.72 106.08 61.59 106.14 61.59 111.56 61.72 111.5 61.72 106.08"/><polygon class="cls-14" points="56.87 108.93 56.74 108.99 56.74 114.41 56.87 114.35 56.87 108.93"/><polygon class="cls-14" points="56.66 109.05 56.53 109.11 56.53 114.54 56.66 114.48 56.66 109.05"/><polygon class="cls-14" points="60.3 106.88 60.17 106.94 60.17 112.36 60.3 112.3 60.3 106.88"/><polygon class="cls-14" points="60.09 107 59.96 107.06 59.96 112.48 60.09 112.42 60.09 107"/><polygon class="cls-14" points="62.92 105.33 62.8 105.39 62.8 110.82 62.92 110.76 62.92 105.33"/><polygon class="cls-14" points="62.71 105.45 62.59 105.52 62.59 110.94 62.71 110.88 62.71 105.45"/><polygon class="cls-14" points="54.71 110.14 54.59 110.2 54.59 115.62 54.71 115.56 54.71 110.14"/><polygon class="cls-14" points="54.5 110.26 54.38 110.32 54.38 115.74 54.5 115.68 54.5 110.26"/><polygon class="cls-14" points="55.82 109.52 55.7 109.58 55.7 115 55.82 114.94 55.82 109.52"/><polygon class="cls-14" points="59.28 107.52 58.18 108.16 58.18 113.58 59.28 112.94 59.28 107.52"/><polygon class="cls-14" points="57.6 108.49 56.97 108.86 56.97 114.28 57.6 113.91 57.6 108.49"/><polygon class="cls-14" points="56.42 109.23 56 109.46 56 114.88 56.42 114.65 56.42 109.23"/><polygon class="cls-14" points="55.42 109.79 54.79 110.16 54.79 115.58 55.42 115.21 55.42 109.79"/><polygon class="cls-14" points="54.24 110.5 53.41 111 53.41 116.42 54.24 115.92 54.24 110.5"/></g><path class="cls-8" d="M115.12,82a.32.32,0,0,1-.32-.32v-16a.31.31,0,0,1,.16-.28l1.22-.69a.32.32,0,0,1,.45.14l5.09,10.86a.36.36,0,0,1,0,.25l-1,2.79a.35.35,0,0,1-.15.17l-5.3,3A.29.29,0,0,1,115.12,82Zm0-.39Zm.12-15.9V81.57l5.16-3,1-2.73-5-10.77Zm6.15,10.11Zm-6.19-10.09Z"/><path class="cls-8" d="M101.82,89.76a.45.45,0,0,1-.37-.2,1.29,1.29,0,0,1-.18-.74V74.47A3.06,3.06,0,0,1,102.53,72l10.38-6a.82.82,0,0,1,.42-.13c.33,0,.55.37.55.93V81.2a3.06,3.06,0,0,1-1.26,2.43l-10.39,6A.81.81,0,0,1,101.82,89.76Zm11.51-23.45a.53.53,0,0,0-.22.07l-10.38,6a2.68,2.68,0,0,0-1.06,2.09V88.82a.87.87,0,0,0,.11.51l0,0a.37.37,0,0,0,.21-.08l10.38-6a2.69,2.69,0,0,0,1.07-2.09V66.84C113.48,66.49,113.37,66.31,113.33,66.31Z"/><path class="cls-14" d="M62.84,119.12v-2.74l.1-.06,65.41-37.73v2.75l-.1,0Zm.4-2.51v1.82L128,81.1V79.28Z"/><path class="cls-26" d="M18.83,95.6a2.72,2.72,0,1,1-2.72-2.72A2.72,2.72,0,0,1,18.83,95.6Z"/><path class="cls-27" d="M12.57,10.05A2.72,2.72,0,1,1,9.85,7.33,2.72,2.72,0,0,1,12.57,10.05Z"/><path class="cls-14" d="M88.82,31.53a1.26,1.26,0,0,1-.89-.37l-2.4-2.39a1.29,1.29,0,0,1-.36-.89,1.25,1.25,0,0,1,.36-.89l2.4-2.4a1.26,1.26,0,0,1,1.78,0l2.4,2.4a1.22,1.22,0,0,1,.37.89,1.26,1.26,0,0,1-.37.89l-2.4,2.39A1.24,1.24,0,0,1,88.82,31.53Zm0-6.31a.26.26,0,0,0-.18.07l-2.4,2.4a.27.27,0,0,0,0,.37l2.4,2.4a.27.27,0,0,0,.37,0l2.39-2.4a.27.27,0,0,0,0-.37L89,25.29A.26.26,0,0,0,88.82,25.22Z"/><polygon class="cls-19" points="123.66 126.11 132.53 124.23 129.6 132.81 123.66 126.11"/><polygon class="cls-14" points="108.01 124.18 104.34 120.51 100.78 124.07 100.08 123.36 104.34 119.09 108.72 123.47 108.01 124.18"/><polygon class="cls-14" points="6.24 132.64 5.45 132.02 8.46 128.18 10.67 129.27 13.48 126.13 14.23 126.8 10.91 130.5 8.74 129.44 6.24 132.64"/><polygon class="cls-14" points="6.24 129.27 5.45 128.66 8.46 124.82 10.67 125.9 13.48 122.76 14.23 123.43 10.91 127.13 8.74 126.07 6.24 129.27"/></g></g></g></svg>