<svg xmlns="http://www.w3.org/2000/svg" viewBox="0 0 2507.76 1617.08"><defs><style>.cls-1{fill:#d1e4f6;}.cls-1,.cls-11,.cls-12,.cls-13,.cls-14,.cls-15,.cls-16,.cls-17,.cls-18,.cls-2,.cls-28,.cls-3,.cls-34,.cls-35,.cls-36,.cls-37,.cls-38,.cls-39,.cls-40,.cls-5{fill-rule:evenodd;}.cls-2{fill:#eaf1f9;}.cls-3{fill:#0f4884;}.cls-35,.cls-4{fill:#1b326b;}.cls-5{fill:#f69b25;}.cls-13,.cls-6{fill:#151514;}.cls-7{fill:#bbbdbf;}.cls-8{fill:#e5e6e7;}.cls-9{fill:#252525;}.cls-10,.cls-14{fill:#1f3e7a;}.cls-11,.cls-24{fill:#fff;}.cls-12{fill:#c3dcfa;}.cls-15{fill:#ec1c24;}.cls-16{fill:#3d5aa0;}.cls-17,.cls-32{fill:#9bc6ff;}.cls-18{fill:#f68c21;}.cls-19{fill:#eb6804;}.cls-20{fill:#dab26d;}.cls-21{fill:#b27e45;}.cls-22{fill:#d1b380;}.cls-23{fill:#c19f65;}.cls-25{fill:#f6d5a0;}.cls-26{fill:#f0ca8c;}.cls-27{fill:#950a00;}.cls-28{fill:#f48120;}.cls-29{fill:#f28da1;}.cls-30{fill:#ffb1c0;}.cls-31{fill:#f698ab;}.cls-33,.cls-39{fill:#b1d2fc;}.cls-34{fill:#2a4589;}.cls-36{fill:#3d7dda;}.cls-37{fill:#e7eff9;}.cls-38{fill:#7ba9e3;}.cls-40{fill:#78c044;}</style></defs><g id="Layer_2" data-name="Layer 2"><g id="Layer_1-2" data-name="Layer 1"><polygon class="cls-1" points="2038.36 732.06 2155.74 732.06 2155.74 695.53 2331.82 695.53 2331.82 732.06 2331.82 738.18 2331.82 1609.06 2059.21 1609.06 2038.36 1609.06 1840.08 1609.06 1840.08 1617.08 1495.73 1617.08 1495.73 1609.06 1075.98 1609.06 616.61 1609.06 616.61 685.67 1075.98 685.67 1075.98 506.5 1495.73 506.5 1495.73 681.76 1684.88 681.76 1684.88 646.84 1852.47 646.84 1852.47 681.76 1852.47 853.79 2038.36 853.79 2038.36 732.06"/><path class="cls-2" d="M1170.22,564H1195V588.3h-24.78Zm-41.08,58.36h24.78v24.35h-24.78Zm41.08,0H1195v24.35h-24.78Zm41.09,0h24.78v24.35h-24.78Zm41.09,0h24.78v24.35H1252.4Zm41.08,0h24.79v24.35h-24.79ZM1129.14,564h24.78V588.3h-24.78Z"/><path class="cls-3" d="M4,1609.06H2503.76a4,4,0,0,1,0,8H4a4,4,0,0,1,0-8"/><rect class="cls-4" x="824.25" y="1362.63" width="1563.57" height="123.5"/><path class="cls-5" d="M2427.23,1486.13h-53.86c-17.46,0-25.22-31.67-35.89-49.37a65.42,65.42,0,0,0-64.1-52.29H2172a65.47,65.47,0,0,0-64.11,52.29l-4.91,24.1a31.61,31.61,0,0,1-31,25.27h-306V1255.8h0V907.49H1920.2a118.76,118.76,0,0,1,12,.62h.08c40.5,4.21,82.88,28.89,103.74,63h0l0,0,162.47,204.26,185.92,57.29a77.4,77.4,0,0,1,40.63,23.07h0c6.53,18.07,11.75,39.21,15.31,62.44h0v0q1.17,7.62,2.1,15.52l16,118.33a31.39,31.39,0,0,1-31.23,34"/><path class="cls-6" d="M1183,1502.78a111.49,111.49,0,1,1-111.48-111.49A111.48,111.48,0,0,1,1183,1502.78"/><path class="cls-7" d="M1125.93,1502.78a54.38,54.38,0,1,1-54.38-54.38,54.38,54.38,0,0,1,54.38,54.38"/><path class="cls-6" d="M2334.62,1502.78a111.49,111.49,0,1,1-111.48-111.49,111.48,111.48,0,0,1,111.48,111.49"/><path class="cls-8" d="M2435.86,1293.8a471,471,0,0,1,9.32,59.92c-64.11.79-97.09,7.19-125.42-59.92Z"/><path class="cls-6" d="M2493.29,1465.09c0,19.26-13.74,34.87-30.69,34.87H2354.52l-29.92-92.18h138c17,0,30.69,15.61,30.69,34.87Z"/><rect class="cls-9" x="2201.19" y="1384.47" width="8.33" height="0.36"/><path class="cls-7" d="M2277.52,1502.78a54.39,54.39,0,1,1-54.39-54.39,54.39,54.39,0,0,1,54.39,54.39"/><path class="cls-10" d="M2005.77,1195.48H1838.32a33,33,0,0,1-33-32.93V1046.24a33,33,0,0,1,30.85-32.89c.7,0,1.41-.08,2.12-.08h168a27.34,27.34,0,0,1,21.56,10.57l104.36,134.38a23,23,0,0,1,2.5,24.31l-.12.21a23,23,0,0,1-15.53,12.2,25.91,25.91,0,0,1-5.08.54H2005.77Z"/><path class="cls-11" d="M1050.93,1466a26.54,26.54,0,1,1-26.53,26.54,26.54,26.54,0,0,1,26.53-26.54"/><path class="cls-11" d="M2207.73,1466a26.54,26.54,0,1,1-26.53,26.54,26.54,26.54,0,0,1,26.53-26.54"/><path class="cls-12" d="M1766.06,1362.62H764.63V786.78A13.6,13.6,0,0,1,778,773h971.36a17,17,0,0,1,16.7,17.18Z"/><path class="cls-13" d="M1181.93,1486.13l-3-26.25-.91-5.62c-6.06-37.62-32.08-64.63-62.3-64.63H1022.5c-29.53,0-55.12,25.87-61.88,62.24,0,0,0,0,0,0l-4.23,34.23H747.67V1362.62H1766.06v123.51Z"/><path class="cls-14" d="M2063.56,1005.59s-13.74,5-14.31,10.13,120.31,154.44,120.31,154.44l29,5.28c-17.31-33.47-118.35-155.94-135-169.85"/><path class="cls-6" d="M2129,1129a26.37,26.37,0,0,1,26.36,26.37v33.29A26.36,26.36,0,0,1,2129,1215Z"/><path class="cls-15" d="M2235.07,1269.16h55.36a7.71,7.71,0,1,1,0,15.41h-55.36a7.71,7.71,0,0,1,0-15.41"/><polygon class="cls-16" points="1842.88 1013.27 1973.71 1195.48 2012.45 1195.48 1881.25 1013.27 1842.88 1013.27"/><polygon class="cls-16" points="1906.23 1013.27 2037.06 1195.48 2075.8 1195.48 1944.6 1013.27 1906.23 1013.27"/><path class="cls-17" d="M1737.86,1336.61l-943.28.82V799.14a.46.46,0,0,1,.14-.35l939.91-.76c1.91,0,3.23,1.93,3.23,3.72Zm-941.7,26h969.9V790.2a17,17,0,0,0-16.7-17.17H778a13.59,13.59,0,0,0-13.37,13.75v575.84h31.53Z"/><path class="cls-18" d="M1844.37,1211.73c14.28,0,25.86,7,25.86,15.62s-11.58,15.62-25.86,15.62-25.86-7-25.86-15.62,11.58-15.62,25.86-15.62"/><path class="cls-11" d="M1816.68,1220.37h55.38a7,7,0,0,1,0,14h-55.38a7,7,0,1,1,0-14"/><polygon class="cls-19" points="2127.74 1137.84 2027.6 1007.75 2022.72 1002.36 1785.35 1002.36 1785.35 1486.13 1782.11 1486.13 1782.11 1000.74 1782.11 999.13 1783.73 999.13 2023.43 999.13 2024.14 999.13 2024.63 999.66 2030.05 1005.65 2030.13 1005.75 2130.29 1135.87 2127.74 1137.84"/><polygon class="cls-19" points="2120.66 1194.94 2120.66 1409.35 2117.42 1413.87 2117.42 1194.94 2120.66 1194.94"/><rect class="cls-20" x="1095.02" y="819.38" width="609.51" height="496.04"/><rect class="cls-21" x="829.17" y="819.38" width="265.85" height="496.04"/><rect class="cls-22" x="918.32" y="819.38" width="87.53" height="118.34"/><rect class="cls-22" x="918.32" y="1197.08" width="87.53" height="118.34"/><rect class="cls-23" x="1484.88" y="1197.9" width="197.76" height="94.83"/><rect class="cls-24" x="1501.91" y="1216.13" width="67.67" height="61.6"/><rect class="cls-23" x="1131.92" y="857.87" width="221.28" height="54.3"/><rect class="cls-25" x="1384.8" y="819.38" width="102.13" height="93.6"/><path class="cls-26" d="M1623.73,1029.7a64,64,0,0,1-17.89-2.48,43.35,43.35,0,0,1-13.73-6.3l7.43-14.06a41.93,41.93,0,0,0,12.15,6.07,45.41,45.41,0,0,0,13.84,2.14q7.53,0,11.92-2.47t4.39-6.75a5.81,5.81,0,0,0-3.49-5.35,59.18,59.18,0,0,0-11.14-4,114.54,114.54,0,0,1-12.48-4.33,22.71,22.71,0,0,1-8.39-6.25q-3.54-4.15-3.54-11a23.21,23.21,0,0,1,4.44-14.07,28.12,28.12,0,0,1,12.61-9.34,50.85,50.85,0,0,1,19-3.26,63.09,63.09,0,0,1,15.08,1.75,40,40,0,0,1,12.15,5l-6.86,14a32.48,32.48,0,0,0-9.9-4.55,43.14,43.14,0,0,0-11.48-1.52q-7.77,0-12.26,2.7c-3,1.8-4.5,4.13-4.5,7a5.63,5.63,0,0,0,1.91,4.34,14.39,14.39,0,0,0,4.84,2.81c2,.71,4.69,1.56,8.21,2.53a92.27,92.27,0,0,1,12.37,4.11,22.42,22.42,0,0,1,8.28,6.07q3.42,4,3.43,10.52a22.92,22.92,0,0,1-4.5,14.12,28.93,28.93,0,0,1-12.72,9.34,50.83,50.83,0,0,1-19.12,3.32m-71.78,0a64,64,0,0,1-17.89-2.48,43.35,43.35,0,0,1-13.73-6.3l7.43-14.06a41.93,41.93,0,0,0,12.15,6.07,45.41,45.41,0,0,0,13.84,2.14q7.53,0,11.92-2.47t4.39-6.75a5.81,5.81,0,0,0-3.49-5.35,59.3,59.3,0,0,0-11.13-4,114.8,114.8,0,0,1-12.49-4.33,22.71,22.71,0,0,1-8.39-6.25q-3.54-4.15-3.54-11a23.16,23.16,0,0,1,4.45-14.07,28,28,0,0,1,12.6-9.34,50.85,50.85,0,0,1,19-3.26A63.09,63.09,0,0,1,1582.1,950a40,40,0,0,1,12.15,5l-6.86,14a32.48,32.48,0,0,0-9.9-4.55,43.2,43.2,0,0,0-11.48-1.52q-7.76,0-12.26,2.7c-3,1.8-4.5,4.13-4.5,7a5.63,5.63,0,0,0,1.91,4.34,14.49,14.49,0,0,0,4.84,2.81c2,.71,4.69,1.56,8.21,2.53a93.45,93.45,0,0,1,12.38,4.11,22.47,22.47,0,0,1,8.27,6.07q3.42,4,3.43,10.52a22.92,22.92,0,0,1-4.5,14.12,28.93,28.93,0,0,1-12.72,9.34A50.83,50.83,0,0,1,1552,1029.7Zm-72-65.48-3.37,17.1h36.56l-2.81,14.18h-36.68l-3.6,18.22h43l-3,14.63h-61l15.76-78.76h59.51l-3,14.63Zm-72.56,27.56q9.11,0,14.12-4.16t5-11.93q0-5.62-3.82-8.43t-10.92-2.82h-14.4l-5.51,27.34ZM1445,974a30.37,30.37,0,0,1-6,18.9,31.84,31.84,0,0,1-16.54,11.14l13.73,24.3h-19.24l-12.38-22H1389l-4.39,22h-18.34l15.75-78.76h32.07q14.63,0,22.72,6.42T1445,974ZM1326,991.78q9.12,0,14.07-4.16t5-11.93q0-5.62-3.77-8.43t-10.86-2.82h-14.29l-5.51,27.34Zm6.64-42.19q14.74,0,22.78,6.47t8,18.06a31.59,31.59,0,0,1-4.67,17.27,30.11,30.11,0,0,1-13.28,11.31q-8.6,3.93-20.3,3.93H1307.7l-4.28,21.72h-18.34l15.75-78.76Zm-76.61,39,21.6,39.72H1258l-14-26.78-23.85,26.78h-21.83L1236,987.51l-20.36-37.92h19.46l13.16,25.32,23-25.32h20.7Zm-92.6-24.41-3.37,17.1h36.56l-2.81,14.18h-36.68l-3.6,18.22h43l-3,14.63h-61l15.75-78.76h59.52l-3,14.63Z"/><path class="cls-27" d="M1383.19,413.11l240.46-222.18-74-25.48-35.37,63.39-.06.13-.07.1Zm-17.1,18.81-248-243.08-2.42-2.36,3.06-1.47,67.14-32.28,1.85-.89,1.14,1.71,48.61,72.82v0L1368,426.2l142.15-199.79,36.28-65,1-1.74,1.87.64L1629,187.72l3.77,1.3-2.93,2.7L1369.74,432l-1.87,2.63Zm-242.3-244.1L1354,413.42,1233.46,229h0L1186,157.9Z"/><path class="cls-5" d="M1373.83,0c122.11,0,225.54,79.94,260.86,190.34A272.25,272.25,0,0,0,1512,227.55c-32.49-34.22-86.89-52.67-137.33-52.67S1268.39,189,1235.44,227.7A272.18,272.18,0,0,0,1113,190.37C1148.26,80,1251.7,0,1373.83,0"/><path class="cls-28" d="M1506.4,224.38c-1.27-.7-2.55-1.4-3.84-2.09ZM1373.83,0C1443.28,0,1501,98.43,1512.2,227.69q-2.67-1.58-5.38-3.07l-.42-.24c-1.27-.7-2.55-1.4-3.84-2.09l-2-1-.1,0c-1.33-.69-2.66-1.38-4-2.05l-2-1c-1.23-.61-2.47-1.2-3.71-1.79l-2.36-1.1c-1.19-.55-2.39-1.1-3.59-1.63l-2.63-1.15-3.43-1.45c-.94-.39-1.89-.78-2.85-1.16s-2.16-.87-3.24-1.29l-3.12-1.18-3-1.1-3.48-1.22c-.91-.31-1.82-.63-2.73-.93-1.28-.42-2.55-.84-3.84-1.24l-2.45-.77-4.16-1.24-2.15-.61c-1.49-.42-3-.82-4.49-1.21l-1.93-.5q-2.47-.63-4.95-1.2l-1.39-.33c-1.79-.41-3.6-.8-5.4-1.17l-1.17-.24q-2.79-.57-5.6-1.07l-1-.19c-1.93-.34-3.87-.67-5.82-1l-.87-.13c-2-.3-4-.59-6.09-.85l-.59-.08c-2.12-.26-4.25-.51-6.38-.73l-.41,0c-2.21-.22-4.42-.42-6.65-.59h-.15c-2.29-.17-4.57-.32-6.87-.43h0c-2.33-.12-4.66-.21-7-.27h0c-2.34-.06-4.7-.09-7.06-.09s-4.72,0-7.07.09h0c-2.35.06-4.68.15-7,.27h0c-2.29.11-4.58.26-6.86.43h-.16c-2.22.17-4.44.37-6.64.59l-.42,0c-2.13.22-4.26.47-6.38.73l-.58.08c-2,.26-4.07.55-6.1.85l-.87.13c-1.94.3-3.88.63-5.82,1l-1.05.19c-1.87.33-3.74.69-5.59,1.07l-1.17.24q-2.71.56-5.41,1.17l-1.39.33q-2.48.57-4.94,1.2l-1.93.5c-1.5.39-3,.79-4.5,1.21l-2.14.61-4.17,1.24-2.45.77c-1.28.4-2.56.82-3.83,1.24-.92.3-1.83.62-2.74.93l-3.47,1.22-3,1.1-3.11,1.18c-1.09.42-2.17.85-3.25,1.29l-2.85,1.16-3.43,1.45-2.63,1.15-3.59,1.63-2.36,1.1c-1.24.59-2.47,1.18-3.7,1.79l-2,1c-1.34.67-2.67,1.36-4,2.05l-.09,0-2,1c-1.29.69-2.57,1.39-3.84,2.09l-.42.24c-1.8,1-3.6,2-5.38,3.07C1246.7,98.43,1304.37,0,1373.83,0Z"/><rect class="cls-20" x="1207.7" y="422.54" width="248.48" height="202.22"/><rect class="cls-21" x="1456.18" y="422.54" width="108.38" height="202.22"/><rect class="cls-22" x="1492.53" y="422.54" width="35.68" height="48.25"/><rect class="cls-22" x="1492.53" y="576.52" width="35.68" height="48.24"/><rect class="cls-23" x="1216.62" y="576.86" width="80.62" height="38.66"/><rect class="cls-24" x="1262.71" y="584.29" width="27.59" height="25.12"/><rect class="cls-23" x="1350.93" y="438.23" width="90.21" height="22.14"/><rect class="cls-26" x="1296.41" y="422.54" width="41.64" height="38.16"/><rect class="cls-27" x="1331.94" y="419.49" width="6" height="208.02"/><rect class="cls-27" x="1509.03" y="419.49" width="6" height="208.02"/><path class="cls-29" d="M713.05,899.44s-25.58,39.64,11.22,84.67c0,0,28.23,40.62,88.71-23.82,28-23.5,120.2-108.35,165.39-179,46.43-72.57,2.66-112.86-57.5-68.08-20,14.89-41.64,31.34-64.76,51.1-60,51.26-118.8,109.42-143.06,135.11"/><path class="cls-29" d="M756.28,712.5s-48.32,31.17-6.84,81.92c0,0-27.1,132.91,41.09,60.25,8-1,18.54-28.79,48-61.19,31-34.07,72.31-76.43,104.58-112.83,38.09-42.95,55.07-77.9,49.25-105.43-5.24-24.72-28.46-46.33-78.08-14.2-21.21,13.49-58.09,47.93-77.54,68.14-34.14,35.48-59.49,61.13-80.46,83.34"/><path class="cls-29" d="M772.79,542.08S697.56,592.85,744,639.16c0,0,32,83.27,92.55,4.09,18-25.12,68.06-80.54,101.21-131.58,60.72-93.49,1.78-144-70.35-83.36-41.55,35-73.44,88.94-94.59,113.77"/><path class="cls-30" d="M810.13,1017.2S787.56,1253,635.2,1294.63l-33,322.45H207.83l37.65-332.68c12.21-97.13-14.13-134.61-14.13-134.61-22.08-48.25-56.75-90.16-66.88-143.28-14.37-75.42,4.32-154.35,8.17-230,2.34-45.95,1.76-92,12.83-137,5.66-23,19.17-44.34,21.52-68.08,2.53-25.48,1.08-51.71,8.85-76.4,1.53-4.82,1.37-11.15,2-16.18,2.36-18.88,16.32-42.2,38-38.88,0,0,70-7.45,69.31,113.14,0,0,25.82,189.46,23,211S714.85,891,714.85,891l39.72-25.2s80-23,52.33,72.09,3.23,79.33,3.23,79.33"/><path class="cls-31" d="M805,1034.83S787.56,1253,635.2,1294.63l-33,322.45H533.37l13.14-389.87-51.25,78.33-10.06-81.85-44.46,147.58-1.93-153.42s-116.28,32.1-194.33-30.23c-5.14-26.45-13.13-37.83-13.13-37.83-11.21-24.5-25.68-47.38-38.52-70.91,21,19.8,20.63,49.16,109.08,65s228.35-44.79,228.35-44.79l279.87-81.92Z"/><rect class="cls-32" x="348.19" y="1204.09" width="159" height="465.07" transform="translate(-1040.16 1740.29) rotate(-85.11)"/><rect class="cls-33" x="464.03" y="1330.27" width="159" height="232.53" transform="translate(-944.07 1864.77) rotate(-85.11)"/><polygon class="cls-34" points="152.28 1404.11 699.23 1450.91 682.67 1617.08 129.04 1617.08 152.28 1404.11"/><polygon class="cls-35" points="428.45 1427.74 407.79 1617.08 129.04 1617.08 152.28 1404.11 428.45 1427.74"/><path class="cls-36" d="M773.16,263H389.75c-35.15,0-63.9,29.26-63.9,65v807.42c0,35.76,28.75,65,63.9,65H773.16c35.15,0,63.91-29.26,63.91-65V328c0-35.76-28.76-65-63.91-65"/><path class="cls-37" d="M776.18,292.56a34.13,34.13,0,0,1,34,33.95v804.76a34.13,34.13,0,0,1-34,34H386.73a34.13,34.13,0,0,1-34-34V326.51a34.13,34.13,0,0,1,34-33.95h82.18A20.53,20.53,0,0,0,489.38,313H681.2a20.53,20.53,0,0,0,20.47-20.47Z"/><path class="cls-12" d="M776.18,292.56a34.13,34.13,0,0,1,34,33.95V432.24H352.78V326.51a34.13,34.13,0,0,1,34-33.95h82.18A20.53,20.53,0,0,0,489.38,313H681.2a20.53,20.53,0,0,0,20.47-20.47Z"/><path class="cls-38" d="M748,346.41A21.08,21.08,0,1,1,727,367.49,21.08,21.08,0,0,1,748,346.41"/><path class="cls-38" d="M1948.21,675.7l127-219.91a149.65,149.65,0,0,0,20.5-75,147.47,147.47,0,1,0-294.94,0,149.55,149.55,0,0,0,20.5,75Z"/><path class="cls-11" d="M1948.21,485a104.28,104.28,0,1,1,104.28-104.27A104.47,104.47,0,0,1,1948.21,485"/><path class="cls-38" d="M1948.21,305a75.71,75.71,0,1,0,75.71,75.72A75.72,75.72,0,0,0,1948.21,305"/><path class="cls-39" d="M1929.78,323a33.37,33.37,0,1,0,33.37,33.37A33.36,33.36,0,0,0,1929.78,323"/><path class="cls-2" d="M2128.34,768.58h24.78v24.34h-24.78Zm41.09,0h24.78v24.34h-24.78Zm41.09,0h24.78v24.34h-24.78Zm41.08,0h24.78v24.34H2251.6Zm-164.35,58.36H2112v24.34h-24.79Zm41.09,0h24.78v24.34h-24.78Zm41.09,0h24.78v24.34h-24.78Zm41.09,0h24.78v24.34h-24.78Zm41.08,0h24.78v24.34H2251.6Zm-164.35-58.36H2112v24.34h-24.79Z"/><rect class="cls-20" x="518.76" y="504.59" width="226.83" height="184.6"/><rect class="cls-21" x="419.82" y="504.59" width="98.94" height="184.6"/><rect class="cls-22" x="453" y="504.59" width="32.58" height="44.04"/><rect class="cls-22" x="453" y="645.15" width="32.58" height="44.04"/><rect class="cls-23" x="663.85" y="645.46" width="73.6" height="35.29"/><rect class="cls-24" x="670.19" y="652.25" width="25.19" height="22.93"/><rect class="cls-23" x="532.49" y="518.91" width="82.35" height="20.21"/><rect class="cls-26" x="626.6" y="504.59" width="38.01" height="34.83"/><path class="cls-38" d="M450.36,890.26l36.25-62.78a42.79,42.79,0,0,0,5.85-21.42,42.1,42.1,0,0,0-84.2,0,42.79,42.79,0,0,0,5.85,21.42Z"/><path class="cls-11" d="M450.36,835.83a29.77,29.77,0,1,1,29.77-29.77,29.82,29.82,0,0,1-29.77,29.77"/><path class="cls-38" d="M450.36,784.45A21.61,21.61,0,1,0,472,806.06a21.6,21.6,0,0,0-21.61-21.61"/><path class="cls-39" d="M445.1,789.57a9.53,9.53,0,1,0,9.52,9.52,9.53,9.53,0,0,0-9.52-9.52"/><path class="cls-38" d="M535,775.19H637.08a10.35,10.35,0,0,1,10.32,10.32h0a10.36,10.36,0,0,1-10.32,10.32H535a10.35,10.35,0,0,1-10.32-10.32h0A10.35,10.35,0,0,1,535,775.19"/><path class="cls-38" d="M535,819.13H747.34a10.35,10.35,0,0,1,10.32,10.32h0a10.35,10.35,0,0,1-10.32,10.32H535a10.35,10.35,0,0,1-10.32-10.32h0A10.35,10.35,0,0,1,535,819.13"/><path class="cls-38" d="M535,863.07H747.34a10.35,10.35,0,0,1,10.32,10.32h0a10.35,10.35,0,0,1-10.32,10.32H535a10.35,10.35,0,0,1-10.32-10.32h0A10.35,10.35,0,0,1,535,863.07"/><path class="cls-40" d="M584,933.77a87,87,0,1,0,87,87,87,87,0,0,0-87-87"/><path class="cls-11" d="M568.79,1033.76,621.28,985a13.21,13.21,0,0,1,18,19.36l-62.56,58.06-.19.16a13.26,13.26,0,0,1-18.63-1.23L532,1031.88a13.2,13.2,0,0,1,19.86-17.4Z"/></g></g></svg>