<?xml version="1.0" encoding="utf-8"?>
<!-- Generator: Adobe Illustrator 23.1.1, SVG Export Plug-In . SVG Version: 6.00 Build 0)  -->
<svg version="1.1" id="Layer_1" xmlns="http://www.w3.org/2000/svg" xmlns:xlink="http://www.w3.org/1999/xlink" x="0px" y="0px"
	 viewBox="0 0 100.6 100.6" style="enable-background:new 0 0 100.6 100.6;" xml:space="preserve">
<style type="text/css">
	.st0{fill:#EAEAE8;}
	.st1{fill:#FFFFFF;}
	.st2{fill:#DBDADA;}
	.st3{fill:#00A8CD;}
	.st4{fill:#7F8080;}
</style>
<g>
	<rect x="27.1" y="31.8" class="st0" width="48" height="48.3"/>
	<rect x="28" y="32.9" class="st1" width="46.1" height="46.1"/>
	<g>
		<polygon class="st1" points="74.1,72.2 74.1,72.1 74,72.2 		"/>
		<polygon class="st1" points="67,79.1 67,79.2 67.1,79.1 		"/>
		<polygon class="st2" points="74,72.2 67,72.2 67,79.1 67.1,79.1 		"/>
		<polygon class="st0" points="67.1,79.1 74.1,79.1 74.1,72.2 74,72.2 		"/>
	</g>
	<rect x="27.1" y="19" class="st2" width="48" height="11"/>
	<rect x="27.1" y="31.8" class="st3" width="48" height="11"/>
	<rect x="35.6" y="26.7" class="st4" width="2.1" height="8.2"/>
	<rect x="64.3" y="26.7" class="st4" width="2.1" height="8.2"/>
</g>
<g>
	<path d="M38.4,66.2l0.7-1.4c1,0.6,2.4,1,3.6,1c3.4,0,5.1-2.8,4.8-7c-0.6,1.8-2.3,2.8-4.6,2.8c-3.1,0-5-1.9-5-5
		c0-3.2,2.1-5.2,5.3-5.2c3.8,0,6.2,2.8,6.2,7.6c0,5-2.5,8.3-6.5,8.3C41.5,67.3,39.7,67,38.4,66.2z M47.2,56.6c0-1.5-1.2-3.5-3.9-3.5
		c-2.2,0-3.8,1.3-3.8,3.6c0,2.1,1.4,3.4,3.6,3.4C45.7,60.2,47.2,58.4,47.2,56.6z"/>
	<path d="M64.7,59.5c0,5.1-2.3,7.9-6.5,7.9s-6.5-2.8-6.5-7.9s2.3-7.9,6.5-7.9C62.3,51.4,64.7,54.3,64.7,59.5z M53.5,59.5
		c0,4.3,1.6,6.4,4.7,6.4c3.1,0,4.7-2.1,4.7-6.4s-1.6-6.4-4.7-6.4S53.5,55.2,53.5,59.5z"/>
</g>
</svg>
