<?xml version="1.0" encoding="utf-8"?>
<!-- Generator: Adobe Illustrator 22.1.0, SVG Export Plug-In . SVG Version: 6.00 Build 0)  -->
<svg version="1.1" id="Layer_1" xmlns="http://www.w3.org/2000/svg" xmlns:xlink="http://www.w3.org/1999/xlink" x="0px" y="0px"
	 viewBox="0 0 100.6 100.6" style="enable-background:new 0 0 100.6 100.6;" xml:space="preserve">
<style type="text/css">
	.st0{fill:#FFFFFF;stroke:#D3D3D3;stroke-miterlimit:10;}
	.st1{fill:#EEEDEE;}
	.st2{opacity:0.5;fill:#A0B5AD;enable-background:new    ;}
	.st3{fill:#00A9CE;}
	.st4{fill:#C5C7D8;}
	.st5{fill:#C9905C;}
	.st6{fill:#EABC8C;}
	.st7{fill:#A5714F;}
	.st8{fill:#492A12;}
	.st9{fill:#804E33;}
	.st10{opacity:0.3;fill:#FFFFFF;enable-background:new    ;}
	.st11{fill:#C4925C;}
	.st12{opacity:0.15;fill:#090909;enable-background:new    ;}
</style>
<g>
	
		<rect x="32.1" y="25" transform="matrix(0.1316 -0.9913 0.9913 0.1316 4.811057e-02 99.176)" class="st0" width="49.1" height="49.1"/>
	<rect x="38" y="28.4" transform="matrix(0.1316 -0.9913 0.9913 0.1316 1.1883 98.4201)" class="st1" width="37.6" height="40.2"/>
	<polygon class="st2" points="74.2,69.8 58,67.7 75.5,60 	"/>
	<polygon class="st3" points="37.6,40.4 39.3,27.2 79.2,32.5 77.5,45.1 59.8,31.6 	"/>
	<polygon class="st4" points="55.5,60.9 47.7,59.8 38.7,52.4 46.9,48.9 	"/>
	<polygon class="st5" points="57.2,48.6 69,43.7 67.3,56 55.5,61 	"/>
	<polygon class="st6" points="47.2,40.9 59.1,36 69,43.7 57.2,48.6 	"/>
	<polygon class="st7" points="57.2,48.6 55.5,61 45.6,53.3 47.2,40.9 	"/>
	<g>
		<path class="st8" d="M58.8,49.8l2.7-1.1l-0.4,2.9l-2.7,1.1L58.8,49.8z M61.1,51.5l0.4-2.7l-2.5,1l-0.4,2.7L61.1,51.5z"/>
		<path class="st8" d="M60,51.5c0.1-0.1,0.3-0.1,0.2,0v0l-0.7,0.3v0c0-0.1,0.1-0.2,0.3-0.2l0,0l0,0.1l0.1,0L60,51.5L60,51.5z"/>
		<polygon class="st8" points="60,50.6 60,50.7 59.9,51.6 59.9,51.7 59.8,51.7 59.8,51.6 60,50.8 60,50.6 		"/>
		<path class="st8" d="M60.5,49.5l-0.1,0.9c0,0.2-0.1,0.3-0.3,0.4l0,0l0-0.2l-0.1,0l0,0.2l0,0c-0.1,0.1-0.2,0-0.2-0.2l0.1-0.9
			L60.5,49.5z"/>
	</g>
	<path class="st8" d="M63.2,48.8l0,0.1c0.3-0.1,0.5,0,0.5,0.2l-0.6,0.2L63,50.2c0,0.1-0.1,0.2-0.2,0.3c-0.1,0-0.2,0-0.2-0.1l0,0
		l0.1,0l0,0c0,0.1,0,0.1,0.1,0.1c0.1,0,0.1-0.1,0.1-0.2l0.1-0.9l-0.6,0.2c0.1-0.3,0.3-0.6,0.6-0.7L63.2,48.8L63.2,48.8z"/>
	<path class="st8" d="M61.9,48.5l2.7-1.1l-0.4,2.9l-2.7,1.1L61.9,48.5z M64.2,50.2l0.4-2.7l-2.5,1l-0.4,2.7L64.2,50.2z"/>
	<path class="st8" d="M63.6,48.4c0,0,0,0.1,0,0.1c0,0,0,0,0,0c0,0,0,0,0,0C63.5,48.6,63.5,48.5,63.6,48.4
		C63.5,48.5,63.6,48.4,63.6,48.4z"/>
	<path class="st8" d="M63.8,48.5c0,0,0,0.1,0,0.1c0,0,0,0,0,0c0,0,0,0,0,0C63.7,48.6,63.7,48.6,63.8,48.5
		C63.7,48.5,63.8,48.5,63.8,48.5z"/>
	<path class="st8" d="M63.4,48.4c0,0,0,0.1,0,0.1c0,0,0,0,0,0c0,0,0,0,0,0C63.3,48.5,63.3,48.5,63.4,48.4
		C63.3,48.4,63.4,48.4,63.4,48.4z"/>
	<path class="st8" d="M63.9,48.2c0,0,0,0.1,0,0.1c0,0,0,0,0,0c0,0,0,0,0,0C63.8,48.3,63.8,48.3,63.9,48.2
		C63.8,48.2,63.8,48.2,63.9,48.2z"/>
	<path class="st8" d="M63.7,48.1c0,0,0,0.1,0,0.1c0,0,0,0,0,0c0,0,0,0,0,0C63.6,48.3,63.6,48.3,63.7,48.1
		C63.6,48.2,63.6,48.2,63.7,48.1z"/>
	<g>
		<polygon class="st8" points="66.7,48.8 66.7,48.9 65.5,49.4 65.5,49.2 		"/>
		<polygon class="st8" points="66.6,46.9 66.8,47.3 66.6,47.4 66.5,48.7 66.3,48.8 66.5,47.5 66.4,47.5 		"/>
		<path class="st8" d="M65,47.2l2.7-1.1L67.4,49l-2.7,1.1L65,47.2z M67.3,48.9l0.3-2.7l-2.5,1L64.8,50L67.3,48.9z"/>
		<polygon class="st8" points="66.1,47.2 66.2,47.6 66.1,47.6 65.9,48.9 65.8,49 66,47.7 65.8,47.7 		"/>
	</g>
	<path class="st9" d="M57.2,48.7C57.2,48.7,57.2,48.7,57.2,48.7l-9.9-7.6c0,0,0-0.1,0-0.1c0,0,0.1,0,0.1,0l9.9,7.6
		C57.3,48.6,57.3,48.6,57.2,48.7C57.2,48.7,57.2,48.7,57.2,48.7z"/>
	<polygon class="st10" points="62.7,38.8 50.9,43.7 50.9,43.7 50.9,43.7 49.2,56.1 50.9,57.4 52.6,45.1 64.4,40.1 	"/>
	<path class="st11" d="M55.6,60.9C55.5,60.9,55.5,60.9,55.6,60.9l1.6-12.3c0,0,0-0.1,0-0.1L69,43.6c0,0,0.1,0,0.1,0c0,0,0,0.1,0,0.1
		c0,0,0,0,0,0l-11.8,4.9L55.6,60.9C55.6,60.9,55.6,60.9,55.6,60.9z"/>
	<polygon class="st10" points="64.8,45.4 64.8,45.4 64.8,45.4 54.9,37.8 52.9,38.6 62.8,46.3 61.2,58.6 63.2,57.8 	"/>
	<polygon class="st12" points="74.6,75 65.5,75.8 43.9,73 21.9,29.9 62.1,25.3 70.8,26.3 	"/>
	
		<rect x="21.6" y="25.6" transform="matrix(0.9971 -7.671183e-02 7.671183e-02 0.9971 -3.7117 3.6843)" class="st0" width="49.1" height="49.1"/>
	
		<rect x="25.9" y="30.3" transform="matrix(0.9971 -7.671183e-02 7.671183e-02 0.9971 -3.6328 3.6753)" class="st1" width="40.2" height="37.6"/>
	<polygon class="st2" points="67.5,66.3 51.2,67.6 66.7,56.4 	"/>
	<polygon class="st3" points="25.6,46.3 24.5,31.9 64.6,28.8 65.6,41.4 45.5,32 	"/>
	<polygon class="st4" points="47.4,61.4 39.5,62.1 29.2,56.7 36.4,51.6 	"/>
	<polygon class="st5" points="46.4,49.1 57,41.8 57.9,54.3 47.4,61.5 	"/>
	<polygon class="st6" points="35.1,43.7 45.7,36.4 57,41.8 46.4,49.1 	"/>
	<polygon class="st7" points="46.4,49.1 47.4,61.5 36.1,56.1 35.1,43.7 	"/>
	<g>
		<path class="st8" d="M48.3,49.9l2.4-1.7l0.2,2.9l-2.4,1.7L48.3,49.9z M50.9,51.1l-0.2-2.7L48.4,50l0.2,2.7L50.9,51.1L50.9,51.1z"
			/>
		<path class="st8" d="M49.8,51.4c0.1-0.1,0.2-0.1,0.2,0v0l-0.6,0.4v0c0-0.1,0.1-0.2,0.2-0.3l0,0l0,0.1l0.1,0L49.8,51.4L49.8,51.4z"
			/>
		<polygon class="st8" points="49.7,50.5 49.7,50.6 49.7,51.4 49.7,51.5 49.7,51.6 49.7,51.5 49.6,50.6 49.6,50.5 		"/>
		<path class="st8" d="M49.9,49.3l0.1,0.9c0,0.2-0.1,0.3-0.2,0.4l0,0l0-0.2l-0.1,0l0,0.2l0,0c-0.1,0.1-0.2,0-0.3-0.1l-0.1-0.9
			L49.9,49.3z"/>
	</g>
	<path class="st8" d="M52.3,48l0,0.1c0.3-0.2,0.5-0.1,0.6,0.1l-0.5,0.4l0.1,0.9c0,0.1-0.1,0.3-0.2,0.4c-0.1,0.1-0.2,0-0.2-0.1v0
		l0.1-0.1v0c0,0.1,0.1,0.1,0.1,0.1c0.1,0,0.1-0.1,0.1-0.2l-0.1-0.9L51.8,49c0-0.3,0.2-0.6,0.5-0.8L52.3,48L52.3,48z"/>
	<path class="st8" d="M51.1,48l2.4-1.7l0.2,2.9l-2.4,1.7L51.1,48z M53.6,49.2l-0.2-2.7l-2.3,1.5l0.2,2.7L53.6,49.2z"/>
	<path class="st8" d="M52.7,47.6c0,0,0,0.1,0,0.1c0,0,0,0,0,0.1c0,0,0,0,0,0c0,0,0,0,0-0.1C52.6,47.7,52.7,47.6,52.7,47.6z"/>
	<path class="st8" d="M52.9,47.6c0,0,0,0.1,0,0.1c0,0,0,0,0,0.1c0,0,0,0,0,0c0,0,0,0,0-0.1C52.8,47.7,52.9,47.6,52.9,47.6z"/>
	<path class="st8" d="M52.5,47.6c0,0,0,0.1,0,0.1c0,0,0,0,0,0.1c0,0,0,0,0,0c0,0,0,0,0-0.1C52.4,47.7,52.5,47.6,52.5,47.6z"/>
	<path class="st8" d="M52.9,47.3c0,0,0,0.1,0,0.1c0,0,0,0,0,0.1c0,0,0,0,0,0c0,0,0,0,0-0.1C52.8,47.4,52.9,47.3,52.9,47.3z"/>
	<path class="st8" d="M52.7,47.3c0,0,0,0.1,0,0.1c0,0,0,0,0,0.1c0,0,0,0,0,0c0,0,0,0,0-0.1C52.6,47.4,52.7,47.3,52.7,47.3z"/>
	<g>
		<polygon class="st8" points="55.8,47.3 55.8,47.4 54.8,48.1 54.7,48 		"/>
		<polygon class="st8" points="55.3,45.5 55.5,45.9 55.4,46 55.5,47.3 55.4,47.4 55.3,46.1 55.2,46.1 		"/>
		<path class="st8" d="M53.8,46.1l2.4-1.7l0.2,2.9L54.1,49L53.8,46.1z M56.4,47.3l-0.2-2.7l-2.3,1.5l0.2,2.7L56.4,47.3z"/>
		<polygon class="st8" points="54.9,45.9 55.1,46.2 55,46.3 55.1,47.6 54.9,47.7 54.8,46.4 54.7,46.5 		"/>
	</g>
	<polygon class="st10" points="49.8,38.4 39.3,45.6 39.3,45.6 39.3,45.6 40.2,58.1 42.2,59 41.2,46.6 51.8,39.3 	"/>
	<path class="st11" d="M47.4,61.5C47.4,61.5,47.3,61.5,47.4,61.5l-1-12.4c0,0,0-0.1,0-0.1L57,41.8c0,0,0.1,0,0.1,0c0,0,0,0.1,0,0.1
		l-10.5,7.2L47.4,61.5C47.5,61.4,47.4,61.5,47.4,61.5z"/>
	<polygon class="st10" points="53.2,44.4 53.2,44.4 53.2,44.4 41.9,39 40.1,40.2 51.4,45.7 52.4,58.1 54.2,56.8 	"/>
</g>
</svg>
