<?xml version="1.0" encoding="utf-8"?>
<!-- Generator: Adobe Illustrator 22.1.0, SVG Export Plug-In . SVG Version: 6.00 Build 0)  -->
<svg version="1.1" id="Layer_1" xmlns="http://www.w3.org/2000/svg" xmlns:xlink="http://www.w3.org/1999/xlink" x="0px" y="0px"
	 viewBox="0 0 391.3 391.3" style="enable-background:new 0 0 391.3 391.3;" xml:space="preserve">
<style type="text/css">
	.st0{fill:#E7E9EF;}
	.st1{opacity:0.15;}
	.st2{fill:#090909;}
	.st3{opacity:0.5;fill:#090909;enable-background:new    ;}
	.st4{opacity:7.000000e-02;fill:#090909;enable-background:new    ;}
	.st5{fill:#FFFFFF;stroke:#D3D3D3;stroke-miterlimit:10;}
	.st6{fill:#EEEDEE;}
	.st7{opacity:0.5;fill:#A0B5AD;enable-background:new    ;}
	.st8{fill:#00A9CE;}
	.st9{fill:#333333;}
	.st10{fill:#8FD1EA;}
	.st11{opacity:7.000000e-02;fill:#010101;enable-background:new    ;}
	.st12{fill:none;stroke:#FFFFFF;stroke-width:0.19;stroke-miterlimit:10;}
	.st13{fill:#FFFFFF;}
	.st14{opacity:0.3;fill:#090909;enable-background:new    ;}
	.st15{fill:#C5C7D8;}
	.st16{fill:#C9905C;}
	.st17{fill:#EABC8C;}
	.st18{fill:#A5714F;}
	.st19{fill:#492A12;}
	.st20{opacity:0.3;fill:#FFFFFF;enable-background:new    ;}
	.st21{fill:#C4925C;}
	.st22{fill:#965D4A;}
	.st23{fill:#AF794A;}
	.st24{fill:#A67250;}
	.st25{fill:#BF8D5D;}
	.st26{fill:#252E3F;}
	.st27{fill:#374866;}
	.st28{fill:#5B83AC;}
	.st29{fill:#8E745E;}
	.st30{fill:#20272E;}
	.st31{fill:#69CDF0;}
	.st32{fill:#1FC3EC;}
	.st33{fill:#777777;}
	.st34{fill:#0792C5;}
	.st35{fill:#DC4C43;}
	.st36{fill:#F1D51B;}
	.st37{fill:#3CB987;}
	.st38{fill:#98989A;}
	.st39{fill:#69341A;}
	.st40{fill:#19517C;}
	.st41{fill:#D9D9D8;}
	.st42{fill:#606161;}
	.st43{fill:#F7CB9F;}
	.st44{fill:#92643E;}
	.st45{fill:#D3A16F;}
	.st46{fill:#F26722;}
	.st47{fill:#CE5527;}
	.st48{fill:#353635;}
	.st49{fill:#9E4122;}
	.st50{fill:#CCCCCC;}
	.st51{fill:#676767;}
	.st52{fill:url(#SVGID_1_);}
	.st53{fill:url(#SVGID_2_);}
	.st54{fill:#F9A973;}
	.st55{fill:#FED8B6;}
	.st56{fill:url(#SVGID_3_);}
	.st57{fill:url(#SVGID_4_);}
	.st58{fill:url(#SVGID_5_);}
	.st59{fill:#F3CDAB;}
	.st60{fill:#FFF6EE;}
	.st61{fill:url(#SVGID_6_);}
	.st62{fill:#E1E2E1;}
	.st63{fill:url(#SVGID_7_);}
	.st64{fill:url(#SVGID_8_);}
	.st65{fill:#9E6D43;}
	.st66{fill:#E3E3E3;}
	.st67{fill:#C3C2C2;}
	.st68{fill:#CB2026;}
	.st69{fill:#991B1E;}
	.st70{fill:#FFCD05;}
	.st71{fill:#E3B623;}
	.st72{fill:#969696;}
	.st73{fill:#747474;}
	.st74{fill:#E71E25;}
	.st75{fill:#EE2524;}
	.st76{fill:#A21D21;}
	.st77{fill:#5E5E5E;}
	.st78{fill:#858585;}
</style>
<rect class="st0" width="391.3" height="391.3"/>
<g>
	<g class="st1">
		
			<rect x="297.2" y="132.2" transform="matrix(0.1833 -0.9831 0.9831 0.1833 108.1793 450.3371)" class="st2" width="55.8" height="55.8"/>
		
			<rect x="303.9" y="136" transform="matrix(0.1833 -0.9831 0.9831 0.1833 109.4939 449.5787)" class="st2" width="42.8" height="45.7"/>
		<polygon class="st3" points="343.9,184.1 325.5,180.7 345.9,173 		"/>
		<polygon class="st2" points="304,148.5 306.8,133.7 351.7,142 349.1,156.2 329.8,139.9 		"/>
		<path class="st2" d="M324.5,147.3l10.6,7.5c0.4,0.3,0.5,0.9,0.2,1.3l-10.9,15.5c-0.3,0.4-0.9,0.5-1.3,0.2l-10.6-7.5
			c-0.4-0.3-0.5-0.9-0.2-1.3l10.9-15.5C323.4,147.1,324,147,324.5,147.3z"/>
		
			<rect x="315.1" y="153.2" transform="matrix(0.5759 -0.8175 0.8175 0.5759 6.8016 332.3358)" class="st2" width="17.2" height="12.8"/>
		<polygon class="st4" points="324,170.3 316,164.7 333,157.6 		"/>
		<circle class="st2" cx="329.2" cy="151.9" r="0.1"/>
		<circle class="st2" cx="318.2" cy="167.4" r="0.5"/>
	</g>
	
		<rect x="295.4" y="129.5" transform="matrix(0.1833 -0.9831 0.9831 0.1833 109.3697 446.3347)" class="st5" width="55.8" height="55.8"/>
	
		<rect x="302.1" y="133.3" transform="matrix(0.1833 -0.9831 0.9831 0.1833 110.6808 445.5885)" class="st6" width="42.8" height="45.7"/>
	<polygon class="st7" points="342,181.4 323.7,178 344.1,170.3 	"/>
	<polygon class="st8" points="302.2,145.8 305,131 349.9,139.3 347.3,153.5 328,137.2 	"/>
	<path class="st9" d="M322.7,144.6l10.6,7.5c0.4,0.3,0.5,0.9,0.2,1.3L322.5,169c-0.3,0.4-0.9,0.5-1.3,0.2l-10.6-7.5
		c-0.4-0.3-0.5-0.9-0.2-1.3l10.9-15.5C321.6,144.4,322.2,144.3,322.7,144.6z"/>
	
		<rect x="313.3" y="150.5" transform="matrix(0.5759 -0.8175 0.8175 0.5759 8.2516 329.7057)" class="st10" width="17.2" height="12.8"/>
	<polygon class="st11" points="322.2,167.6 314.2,162 331.1,154.9 	"/>
	<circle class="st12" cx="327.4" cy="149.1" r="0.1"/>
	<circle class="st13" cx="316.4" cy="164.7" r="0.5"/>
	<g class="st1">
		
			<rect x="245.6" y="130.9" transform="matrix(0.9902 -0.1399 0.1399 0.9902 -19.5271 39.8223)" class="st2" width="55.8" height="55.8"/>
		
			<rect x="250.5" y="136.3" transform="matrix(0.9902 -0.1399 0.1399 0.9902 -19.3661 39.7867)" class="st2" width="45.7" height="42.8"/>
		<polygon class="st3" points="298.9,175.6 280.5,178.3 297.4,164.4 		"/>
		<polygon class="st2" points="249.9,155.9 247.7,139.7 292.9,133.3 295,147.5 271.5,138.2 		"/>
		<polygon class="st2" points="275.7,171.5 266.8,172.8 254.7,167.4 262.6,161.1 		"/>
		<polygon class="st2" points="273.8,157.6 285.2,148.6 287.2,162.7 275.8,171.7 		"/>
		<polygon class="st2" points="260.6,152.3 272,143.3 285.2,148.6 273.8,157.6 		"/>
		<polygon class="st2" points="273.8,157.6 275.8,171.7 262.5,166.3 260.6,152.2 		"/>
		<g>
			<path class="st2" d="M276,158.4l2.6-2.1l0.5,3.3l-2.6,2.1L276,158.4z M279,159.6l-0.4-3.1l-2.5,1.9l0.4,3.1L279,159.6z"/>
			<path class="st2" d="M277.7,160c0.1-0.1,0.3-0.1,0.3-0.1v0l-0.7,0.5v0c0-0.1,0.1-0.2,0.3-0.3l0,0v0.1L277.7,160L277.7,160
				L277.7,160z"/>
			<polygon class="st2" points="277.6,158.9 277.6,159.1 277.7,160 277.7,160.1 277.6,160.2 277.6,160.1 277.5,159.1 277.5,159 			
				"/>
			<path class="st2" d="M277.7,157.5l0.1,0.9c0,0.2,0,0.4-0.2,0.5l0,0l0-0.2l-0.1,0l0,0.2l0,0c-0.1,0.1-0.3,0-0.3-0.1l-0.1-0.9
				L277.7,157.5z"/>
		</g>
		<path class="st2" d="M280.4,155.9v0.1c0.3-0.2,0.6-0.2,0.6,0.1l-0.5,0.5l0.1,1c0,0.2,0,0.3-0.2,0.4c-0.1,0.1-0.2,0-0.3-0.1v0
			l0.1-0.1v0c0,0.1,0.1,0.1,0.1,0c0.1,0,0.1-0.1,0.1-0.3l-0.1-1l-0.6,0.4c0-0.4,0.2-0.7,0.5-1L280.4,155.9L280.4,155.9z"/>
		<path class="st2" d="M278.9,156l2.6-2.1l0.5,3.3l-2.6,2.1L278.9,156z M282,157.2l-0.4-3.1l-2.5,1.9l0.4,3.1L282,157.2z"/>
		<path class="st2" d="M280.8,155.4c0,0,0,0.1,0,0.1s0,0,0,0h0c0,0,0,0,0-0.1C280.7,155.5,280.8,155.5,280.8,155.4z"/>
		<path class="st2" d="M281,155.4c0,0,0,0.1,0,0.1s0,0,0,0l0,0C281,155.6,280.9,155.6,281,155.4C281,155.5,281,155.5,281,155.4z"/>
		<path class="st2" d="M280.5,155.4c0,0,0,0.1,0,0.1s0,0,0,0h0c0,0,0,0,0-0.1C280.5,155.5,280.5,155.5,280.5,155.4z"/>
		<path class="st2" d="M281,155.1c0,0,0,0.1,0,0.1s0,0,0,0h0c0,0,0,0,0-0.1C280.9,155.2,280.9,155.2,281,155.1z"/>
		<path class="st2" d="M280.8,155.1c0,0,0,0.1,0,0.1s0,0,0,0h0c0,0,0,0,0-0.1C280.7,155.2,280.7,155.2,280.8,155.1z"/>
		<g>
			<polygon class="st2" points="284.2,154.9 284.3,155 283.2,155.9 283.1,155.7 			"/>
			<polygon class="st2" points="283.6,152.9 283.9,153.3 283.8,153.4 284,154.9 283.9,155 283.6,153.5 283.5,153.6 			"/>
			<path class="st2" d="M282,153.7l2.6-2.1l0.5,3.3l-2.6,2.1L282,153.7z M285,154.9l-0.4-3.1l-2.5,1.9l0.4,3.1L285,154.9z"/>
			<polygon class="st2" points="283.1,153.3 283.4,153.7 283.2,153.8 283.5,155.3 283.3,155.4 283.1,153.9 283,154 			"/>
		</g>
		<polygon class="st14" points="276.8,145.2 265.4,154.2 265.4,154.2 265.4,154.2 267.3,168.3 269.6,169.2 267.7,155.1 279.2,146.1 
					"/>
		<path class="st2" d="M275.8,171.6C275.8,171.6,275.7,171.5,275.8,171.6l-2.1-14c0,0,0,0,0-0.1l11.5-9c0,0,0.1,0,0.1,0
			c0,0,0,0.1,0,0.1l0,0l-11.4,9L275.8,171.6C275.9,171.5,275.8,171.6,275.8,171.6z"/>
		<polygon class="st14" points="281.2,151.8 281.2,151.8 281.2,151.8 268,146.5 266,148 279.2,153.4 281.2,167.4 283.2,165.8 		"/>
	</g>
	
		<rect x="242.7" y="128.4" transform="matrix(0.9902 -0.1399 0.1399 0.9902 -19.1999 39.3935)" class="st5" width="55.8" height="55.8"/>
	
		<rect x="247.6" y="133.7" transform="matrix(0.9902 -0.1399 0.1399 0.9902 -19.0389 39.358)" class="st6" width="45.7" height="42.8"/>
	<polygon class="st7" points="296.1,173.1 277.6,175.7 294.5,161.9 	"/>
	<polygon class="st8" points="247,153.4 244.8,137.1 290.1,130.7 292.1,145 268.6,135.7 	"/>
	<polygon class="st15" points="272.8,169 264,170.3 251.8,164.9 259.7,158.6 	"/>
	<polygon class="st16" points="270.9,155 282.4,146 284.3,160.1 272.9,169.1 	"/>
	<polygon class="st17" points="257.7,149.7 269.1,140.7 282.4,146.1 270.9,155.1 	"/>
	<polygon class="st18" points="270.9,155 272.9,169.1 259.6,163.8 257.7,149.7 	"/>
	<g>
		<path class="st19" d="M273.1,155.9l2.6-2.1l0.5,3.3l-2.6,2.1L273.1,155.9z M276.1,157.1l-0.4-3.1l-2.5,1.9l0.4,3.1L276.1,157.1
			L276.1,157.1z"/>
		<path class="st19" d="M274.9,157.5c0.1-0.1,0.3-0.1,0.3-0.1v0l-0.6,0.5v0c0-0.1,0.1-0.2,0.3-0.3L274.9,157.5l-0.1,0.1L274.9,157.5
			L274.9,157.5L274.9,157.5z"/>
		<polygon class="st19" points="274.7,156.4 274.7,156.5 274.8,157.5 274.9,157.6 274.8,157.7 274.8,157.5 274.6,156.6 274.6,156.4 
					"/>
		<path class="st19" d="M274.8,155l0.1,0.9c0,0.2,0,0.4-0.2,0.5l0,0l0-0.2l-0.1,0l0,0.2l0,0.1c-0.1,0.1-0.3,0-0.3-0.1l-0.1-0.9
			L274.8,155z"/>
	</g>
	<path class="st19" d="M277.6,153.4v0.1c0.3-0.2,0.6-0.2,0.6,0.1l-0.6,0.4l0.1,1c0,0.2,0,0.3-0.2,0.4c-0.1,0.1-0.2,0-0.3-0.1v0
		l0.1-0.1v0.1c0,0.1,0.1,0.1,0.1,0c0.1,0,0.1-0.1,0.1-0.3l-0.1-1l-0.6,0.4c0-0.4,0.2-0.7,0.5-0.9L277.6,153.4L277.6,153.4z"/>
	<path class="st19" d="M276.1,153.5l2.6-2.1l0.5,3.3l-2.6,2.1L276.1,153.5z M279.1,154.7l-0.4-3.1l-2.5,1.9l0.4,3.1L279.1,154.7
		L279.1,154.7z"/>
	<path class="st19" d="M277.9,152.9c0,0,0,0.1,0,0.1s0,0,0,0h0c0,0,0,0,0-0.1C277.8,153,277.9,152.9,277.9,152.9z"/>
	<path class="st19" d="M278.1,152.9c0,0,0,0.1,0,0.1s0,0,0,0h0c0,0,0,0,0-0.1C278.1,153,278.1,152.9,278.1,152.9z"/>
	<path class="st19" d="M277.6,152.9c0,0,0,0.1,0,0.1c0,0,0,0,0,0h0c0,0,0,0,0-0.1C277.6,153,277.6,152.9,277.6,152.9z"/>
	<path class="st19" d="M278.1,152.6c0,0,0,0.1,0,0.1s0,0,0,0h0c0,0,0,0,0-0.1C278,152.7,278.1,152.6,278.1,152.6z"/>
	<path class="st19" d="M277.9,152.6c0,0,0,0.1,0,0.1s0,0,0,0h0c0,0,0,0,0-0.1C277.8,152.7,277.8,152.6,277.9,152.6z"/>
	<g>
		<polygon class="st19" points="281.4,152.4 281.4,152.5 280.3,153.4 280.2,153.2 		"/>
		<polygon class="st19" points="280.8,150.3 281,150.8 280.9,150.9 281.1,152.4 281,152.5 280.8,151 280.6,151.1 		"/>
		<path class="st19" d="M279.1,151.1l2.6-2.1l0.5,3.3l-2.6,2.1L279.1,151.1z M282.1,152.3l-0.4-3.1l-2.5,1.9l0.4,3.1L282.1,152.3
			L282.1,152.3z"/>
		<polygon class="st19" points="280.2,150.8 280.5,151.2 280.4,151.3 280.6,152.8 280.4,152.9 280.2,151.4 280.1,151.5 		"/>
	</g>
	<polygon class="st20" points="273.9,142.6 262.5,151.7 262.5,151.7 262.5,151.7 264.5,165.7 266.8,166.7 264.8,152.6 276.3,143.6 	
		"/>
	<path class="st21" d="M272.9,169C272.9,169,272.8,169,272.9,169l-2.1-14c0,0,0,0,0-0.1l11.5-9c0,0,0.1,0,0.1,0c0,0,0,0.1,0,0.1l0,0
		l-11.4,9L272.9,169C273,169,273,169,272.9,169z"/>
	<polygon class="st20" points="278.3,149.3 278.3,149.3 278.3,149.3 265.1,143.9 263.1,145.4 276.3,150.8 278.3,164.8 280.3,163.3 	
		"/>
</g>
<g>
	<g>
		<polygon class="st16" points="251.6,249.1 260.8,243.8 252.1,239.7 243.5,243.8 		"/>
		<polygon class="st17" points="243.5,243.8 239.4,244.2 248.5,239.8 252.1,239.7 		"/>
		<polygon class="st17" points="252.1,239.7 256.2,239.7 264.5,243.6 260.8,243.8 		"/>
		<polygon class="st22" points="252.1,239.7 252.1,248.8 260.8,243.8 		"/>
		<polygon class="st23" points="252.1,239.7 250.1,248.1 251.6,249.1 252.1,248.8 		"/>
	</g>
	<g>
		<path class="st8" d="M249.7,251.2c-2.1-26.2,7.5-32.5,11.7-34.1c5.2-1.9,11.1,0.1,14.5,4.8l-1.8,1.2c-2.8-4-7.7-5.6-12-4.1
			c-7.9,2.9-11.6,14.8-10.3,32.1L249.7,251.2z"/>
		<g>
			<polygon class="st8" points="272.3,223.2 276.6,225.8 276.8,220.8 			"/>
		</g>
	</g>
	<g>
		<polygon class="st24" points="243.5,243.8 243.5,254 251.6,258.9 251.6,249.1 		"/>
		<polygon class="st16" points="260.8,243.8 251.6,249.1 251.6,258.9 260.8,253.7 		"/>
		<polygon class="st25" points="239.4,248.1 239.4,248.2 247.2,254.3 251.6,249.1 		"/>
		<polygon class="st17" points="243.5,243.8 239.4,248.1 247.2,253.9 251.5,249 		"/>
		<polygon class="st25" points="264.5,248.2 264.5,248.4 255.8,254.4 251.6,249.1 		"/>
		<polygon class="st17" points="260.8,243.8 264.5,248.2 255.8,254.1 251.7,249 		"/>
	</g>
	<g>
		<polygon class="st16" points="340.9,249.1 350.1,243.7 341.3,239.7 332.7,243.8 		"/>
		<polygon class="st17" points="332.7,243.8 328.7,244.2 337.7,239.8 341.3,239.7 		"/>
		<polygon class="st17" points="341.3,239.7 345.5,239.5 353.8,243.4 350.1,243.7 		"/>
		<polygon class="st22" points="341.3,239.7 341.4,248.8 350.1,243.7 		"/>
		<polygon class="st23" points="341.3,239.7 339.4,248.1 340.9,249.1 341.4,248.8 		"/>
	</g>
	<g>
		<g>
			<g>
				<polygon class="st16" points="295.6,255.4 318.1,242.7 297,232.4 275.6,242.5 				"/>
				<polygon class="st17" points="275.6,242.5 266.1,243.3 288.1,232.7 297,232.4 				"/>
				<polygon class="st17" points="297,232.4 307,232.5 327.2,242.2 318.1,242.7 				"/>
				<polygon class="st22" points="297,232.4 296.8,254.7 318.1,242.7 				"/>
				<polygon class="st23" points="297,232.4 291.9,253 295.6,255.4 296.8,254.7 				"/>
			</g>
			<g>
				<polygon class="st26" points="292.2,220.5 295.5,219.2 299.7,220.5 304.2,264.7 296.1,265.5 295.3,255.9 294.6,265.4 
					286.2,264.6 				"/>
				<path class="st27" d="M281.5,231.5c0.8-2.3,1.6-4.6,2.5-6.9c0,0-0.6-1.7,6.8-3.1l2.6-0.6l-0.1,18.6l-4.1,29l-7-1.3
					c0,0-0.5-0.3-0.4-1.1c0.1-0.9,3.8-23.1,3.8-23.1l-0.3-9.2l-1.8,8.9l5.4,7.3c0,0.1-1.8,0.1-1.8,0.3v0.1c-0.1,0.8-1.3,0.9-1.6,0.2
					l-6.7-7.1c-0.3-0.4-0.3-0.9-0.2-1.3C279.3,238.7,280.3,235.1,281.5,231.5z"/>
				<path class="st27" d="M309.3,231.8c-0.7-2.4-1.5-4.7-2.4-7c0,0,0.7-1.7-6.7-3.1l-2.6-0.6l-0.2,18.6l3.6,29l7-1.3
					c0,0,0.5-0.3,0.4-1c-0.1-0.9-3.5-23.2-3.5-23.2l0.6-9.2l1.6,9l-3.7,7.3c0,0.1-0.1,0.2,0,0.3v0.1c0.1,0.8,1.3,0.9,1.6,0.2l6.8-7
					c0.3-0.4,0.3-0.9,0.3-1.3C311.3,239,310.4,235.4,309.3,231.8z"/>
				<path class="st28" d="M303.6,221.3c-1-1.3-2.3-2.5-3.8-3.4c-1.2-0.7-2.6-1.3-4.1-1.3c-0.9,0-1.7,0.1-2.5,0.3
					c-1.3,0.4-2.4,1.1-3.4,1.9c-0.9,0.7-1.8,1.5-2.4,2.4c-0.1,0.2-0.1,0.4,0.2,0.5l5.1,1l0.7,1.7l-4,0.4c-0.2,0-0.3,0.2-0.3,0.3
					l4.3,13.6l0.5-16.7c0-0.7,0.7-1.3,1.5-1.3h0.1c0.9,0.1,1.5,0.6,1.5,1.3l0.3,16.7l4.4-13.6c0.1-0.1-0.1-0.3-0.3-0.3l-4-0.5
					l0.8-1.8l5.1-1C303.6,221.7,303.7,221.4,303.6,221.3z"/>
				<ellipse class="st29" cx="288.7" cy="232.5" rx="0.9" ry="0.9"/>
				<ellipse class="st29" cx="289.6" cy="238.3" rx="0.9" ry="0.9"/>
				<ellipse class="st29" cx="289.5" cy="244.2" rx="0.9" ry="0.9"/>
				<ellipse class="st29" cx="287.9" cy="250" rx="0.9" ry="0.9"/>
				<polygon class="st30" points="292.2,225.8 290.4,226.1 290.3,226 292.2,225.6 				"/>
				<ellipse class="st29" cx="302.2" cy="232.7" rx="0.9" ry="0.9"/>
				<ellipse class="st29" cx="301.3" cy="238.5" rx="0.9" ry="0.9"/>
				<ellipse class="st29" cx="301.3" cy="244.3" rx="0.9" ry="0.9"/>
				<ellipse class="st29" cx="302.8" cy="250.1" rx="0.9" ry="0.9"/>
				<polygon class="st30" points="298.7,225.9 300.5,226.2 300.6,226 298.8,225.7 				"/>
			</g>
			<g>
				<path class="st13" d="M296,263.1l-10.4,1.4c-1,0.1-2-0.7-2.2-1.7l-2.6-19.5c-0.1-1,0.7-2,1.7-2.2l10.4-1.4c1-0.1,2,0.7,2.2,1.7
					l2.6,19.5C297.8,262,297,263,296,263.1z"/>
				
					<rect x="283.1" y="241.5" transform="matrix(0.9916 -0.1297 0.1297 0.9916 -30.1891 39.6345)" class="st31" width="12.3" height="20.2"/>
				<polygon class="st32" points="294.3,243 284.4,262.4 296.6,260.9 				"/>
			</g>
			<g>
				<path class="st13" d="M307.7,255.9c-0.2,0.2-0.4,0.4-0.7,0.6c-1.2,0.5-2.5-0.1-3.5-0.9c-2.2-1.5-3.8-3.7-5.5-5.8
					c-0.1-0.2-0.3-0.4-0.4-0.7c-0.1-0.3-0.1-0.6-0.1-0.9c0.1-0.9,0.2-1.8,0.5-2.6c0.1-0.2,0.1-0.4,0.3-0.6c0.1-0.1,0.3-0.1,0.5-0.2
					c0.6-0.1,1.1-0.2,1.7-0.3c0.3-0.1,0.7-0.1,0.9-0.3c0.3-0.2,0.5-0.5,0.7-0.8c0.4-0.7,0.8-1.4,1.2-2.1c0.1-0.1,0.1-0.3,0.2-0.5
					c0-0.2-0.1-0.4-0.1-0.7c-0.2-0.6-0.3-1.1-0.6-1.6c-0.1-0.3-0.1-0.6-0.1-0.9c0.1-0.3,0.3-0.6,0.5-0.8c0.6-0.6,1.1-1.2,1.8-1.6
					c0.3-0.2,0.7-0.3,1.1-0.4c0.4-0.1,0.9,0.1,1.3,0.1c2.1,0.3,4.2,0.7,6.2,1.4c0.3,0.1,0.6,0.2,0.9,0.3c1.1,0.6,2.3,1.3,2.4,2.6
					c0.1,0.6-0.1,1.2-0.7,1.5c-0.2,0.1-0.6,0.2-0.8,0.2c-0.9,0.1-1.8,0.4-2.6,0.7c-0.4,0.1-0.9,0.3-1.3,0.7c-0.4,0.3-0.7,0.9-1,1.3
					c-0.9,1.4-1.8,3-2.6,4.4c-0.3,0.6-0.7,1.2-0.8,1.9c0,0.7,0.1,1.4,0.3,2c0.2,0.8,0.3,1.4,0.6,2.2c0.1,0.3,0.1,0.6,0.1,0.8
					C307.8,255.6,307.7,255.7,307.7,255.9z"/>
				<ellipse class="st33" cx="300.8" cy="247.9" rx="1.2" ry="1.2"/>
				<ellipse class="st33" cx="307.7" cy="242.5" rx="1.2" ry="1.2"/>
				<ellipse class="st13" cx="302.8" cy="244.5" rx="0.4" ry="0.4"/>
				<ellipse class="st13" cx="304.3" cy="241.9" rx="0.4" ry="0.4"/>
				<ellipse class="st34" cx="305.5" cy="239.8" rx="0.7" ry="0.7"/>
				<ellipse class="st35" cx="307" cy="237.2" rx="0.7" ry="0.7"/>
				<ellipse class="st36" cx="305" cy="237.6" rx="0.7" ry="0.7"/>
				<ellipse class="st37" cx="307.6" cy="239.2" rx="0.7" ry="0.7"/>
				<path class="st38" d="M305.3,246l-0.4,0.8l-0.8-0.4c-0.1-0.1-0.2,0-0.3,0.1l-0.3,0.6c-0.1,0.1,0,0.2,0.1,0.3l0.8,0.4l-0.4,0.8
					c-0.1,0.1,0,0.2,0.1,0.3l0.6,0.3c0.1,0.1,0.2,0,0.3-0.1l0.4-0.8l0.8,0.4c0.1,0.1,0.2,0,0.3-0.1l0.3-0.6c0.1-0.1,0-0.2-0.1-0.3
					l-0.8-0.4l0.4-0.8c0.1-0.1,0-0.2-0.1-0.3l-0.6-0.3C305.5,245.8,305.4,245.8,305.3,246z"/>
			</g>
			<g>
				<polygon class="st24" points="275.6,242.5 275.5,267.3 295.4,279.5 295.6,255.4 				"/>
				<polygon class="st16" points="318.1,242.7 295.6,255.4 295.4,279.5 318,266.8 				"/>
				<polygon class="st25" points="266,252.7 266,253.1 284.7,267.9 295.6,255.4 				"/>
				<polygon class="st17" points="275.6,242.5 266,252.7 284.7,267.1 295.3,255.1 				"/>
				<polygon class="st25" points="327.1,253.7 327.1,254.1 305.6,268.6 295.6,255.4 				"/>
				<polygon class="st17" points="318.1,242.7 327.1,253.7 305.7,267.8 296,255.2 				"/>
			</g>
		</g>
		<circle class="st33" cx="287.7" cy="241.1" r="0.2"/>
	</g>
	<g>
		<path class="st8" d="M342.6,251.2l-2.1-0.1c1.3-17.1-2.5-29.1-10.3-32c-4.4-1.5-9.2,0.1-12,4.1l-1.8-1.2c3.4-4.7,9.3-6.6,14.5-4.8
			C335.1,218.7,344.7,225,342.6,251.2z"/>
		<g>
			<polygon class="st8" points="315.5,220.8 315.6,225.8 320,223.2 			"/>
		</g>
	</g>
	<g>
		<polygon class="st24" points="332.7,243.8 332.7,254 340.9,258.8 340.9,249.1 		"/>
		<polygon class="st16" points="350.1,243.7 340.9,249.1 340.9,258.8 350.1,253.5 		"/>
		<polygon class="st25" points="328.7,248.1 328.7,248.2 336.6,254.3 340.9,249.1 		"/>
		<polygon class="st17" points="332.7,243.8 328.7,248.1 336.4,253.9 340.7,248.9 		"/>
		<polygon class="st25" points="353.8,248.1 353.8,248.2 345,254.4 340.9,249.1 		"/>
		<polygon class="st17" points="350.1,243.7 353.8,248.1 345.1,254 341.1,248.9 		"/>
	</g>
</g>
<g>
	<g class="st1">
		<polygon class="st2" points="334.3,365 317.9,355.6 354.1,334.7 370.5,344.2 		"/>
		<rect x="327.9" y="359.9" class="st2" width="6.4" height="5.2"/>
	</g>
	<polygon class="st16" points="311.5,323 327.9,332.5 327.9,365 311.5,355.5 	"/>
	<polygon class="st18" points="327.9,332.6 360.8,313.7 360.8,346.1 327.9,365.1 	"/>
	<path class="st39" d="M340.1,353.7c0.1-0.1,0.2-0.2,0.3-0.4c0.1-0.1,0.3-0.3,0.4-0.4c0.1-0.1,0.3-0.2,0.4-0.3l0-0.1l0.1-0.1
		c0,0,0,0,0.1,0c0,0,0,0,0,0.1c0.2-0.1,0.3-0.2,0.5-0.2c0.2-0.1,0.3-0.1,0.5-0.1l0.2,0c0.1,0,0.3,0.1,0.3,0.3c0,0,0,0.1,0,0.1v0.1
		c-0.1,0-0.2,0-0.3,0.1c-0.1,0.1-0.2,0.2-0.3,0.3h0c-0.1,0-0.2,0-0.3,0.1c-0.1,0.1-0.2,0.2-0.3,0.3c-0.1,0-0.3,0-0.4,0.1
		c0,1,0,1.5,0,1.7c0,0.1,0,0.1,0,0.2c0,0.1-0.1,0.1-0.1,0.1c-0.1,0.1-0.2,0.1-0.3,0.2c-0.1,0-0.2,0.1-0.2,0.1
		c-0.1,0-0.1-0.1-0.1-0.2l0.1-0.1c0,0,0,0.1,0,0.1c0,0,0.1,0,0.1,0c0.1,0,0.2-0.1,0.3-0.2c0,0,0-0.1,0-0.1c0-0.1,0-0.1,0-0.1v-1.6
		c-0.1,0-0.1,0.1-0.2,0.1c-0.1,0-0.1,0.1-0.1,0.2h-0.1c-0.1,0-0.2,0-0.3,0.1c-0.1,0.1-0.2,0.2-0.3,0.3c-0.1,0-0.2,0-0.3,0.1
		c-0.1,0.1-0.2,0.2-0.3,0.3l0,0c0,0,0-0.1,0-0.1c0-0.1,0.1-0.2,0.1-0.3l0.1-0.1C339.9,354,340,353.9,340.1,353.7z M340.9,352.7
		c0,0,0,0.1,0,0.1c0,0,0,0-0.1,0h0c0-0.1,0.1-0.2,0.1-0.3C340.9,352.6,340.9,352.6,340.9,352.7z M341.2,352.2c0,0,0-0.1,0.1-0.1
		l0-0.1c0,0.1,0,0.1,0,0.2l-0.1,0.1C341.2,352.3,341.2,352.2,341.2,352.2L341.2,352.2z M341.6,351.8L341.6,351.8l0.1-0.3
		c0,0.1,0,0.1,0,0.2L341.6,351.8z M342.1,351.7l-0.1,0.1c0-0.1,0.1-0.2,0.1-0.3C342.2,351.5,342.2,351.6,342.1,351.7L342.1,351.7z
		 M341.9,352L341.9,352C341.9,352,341.9,352,341.9,352c0.1,0.1,0,0.1,0,0.2c0,0,0,0-0.1,0.1c0,0,0,0-0.1,0S341.8,352.1,341.9,352
		L341.9,352z M342.5,351.8c0-0.1,0.1-0.2,0.1-0.2v0.1l0,0.1L342.5,351.8C342.5,351.8,342.5,351.8,342.5,351.8L342.5,351.8z
		 M339.3,352.5l4.1-2.4v4.8l-4.1,2.4V352.5z M343.3,350.4l-3.8,2.2v4.3l3.8-2.2V350.4z"/>
	<path class="st39" d="M335.3,355.1l1.7-1v1.9c0,0,0,0.1,0,0.1c0,0.1,0,0.1,0,0.2c0,0.1-0.1,0.1-0.1,0.2c-0.1,0.1-0.2,0.2-0.3,0.3
		c-0.1,0.1-0.2,0.1-0.3,0.2v0.7c0,0.3,0,0.5,0,0.7c0.1,0,0.2-0.1,0.3-0.2l0.3-0.2v0.2l-1.5,0.9v-0.2l0.6-0.4v-1.3
		c-0.1,0.1-0.2,0.1-0.3,0.1c-0.1,0-0.2,0.1-0.3,0c0,0-0.1,0-0.1,0c0,0,0-0.1,0-0.1c0-0.3,0-0.6,0-1
		C335.3,355.6,335.3,355.2,335.3,355.1z M338,357.6v-4.3l-3.8,2.2v4.3L338,357.6z M334.1,360.1v-4.8l4.1-2.4v4.8L334.1,360.1z"/>
	<path class="st39" d="M330.2,357.8l0.7,1l-0.4,0.2v2.3l-0.4,0.3v-2.3l-0.4,0.2L330.2,357.8z M330.9,358.7l0.6-1.7l0.7,1l-0.4,0.2
		v2.3l-0.4,0.3v-2.3L330.9,358.7z M332.4,360.2v0.3l-3,1.7V362L332.4,360.2z M328.9,358.2l4.1-2.4v4.8l-4.1,2.4V358.2z M332.8,356.1
		l-3.8,2.2v4.3l3.8-2.2V356.1z"/>
	<path class="st40" d="M358.7,337.8c0-0.2-0.1-0.2-0.2-0.1l-7.8,4.5c-0.1,0.1-0.2,0.2-0.2,0.4v1.9c0,0.2,0.1,0.2,0.2,0.1l7.8-4.5
		c0.1-0.1,0.2-0.2,0.2-0.4V337.8z M358.5,344.1c0.1-0.1,0.2-0.2,0.2-0.4v-3.1c0-0.2-0.1-0.2-0.2-0.1l-7.8,4.5
		c-0.1,0.1-0.2,0.2-0.2,0.4v3.1c0,0.2,0.1,0.2,0.2,0.1L358.5,344.1z M350,349.5V342l9.2-5.3v7.5L350,349.5z"/>
	<path class="st41" d="M358.4,338.1l-7.5,4.3v0.3l7.5-4.4L358.4,338.1z M358.4,338.8l-7.5,4.3v0.3l7.5-4.4L358.4,338.8z
		 M358.7,337.8v1.9c0,0.2-0.1,0.3-0.2,0.4l-7.8,4.5c-0.2,0.1-0.2,0-0.2-0.1v-1.9c0-0.2,0.1-0.3,0.2-0.4l7.8-4.5
		C358.7,337.5,358.7,337.6,358.7,337.8z M358.4,339.5l-7.5,4.3v0.3l7.5-4.4L358.4,339.5z M358.4,341.9l-7.5,4.4v0.3l7.5-4.4
		L358.4,341.9z M358.4,341.1l-7.5,4.4v0.3l7.5-4.4L358.4,341.1z M358.5,344.1l-7.8,4.5c-0.2,0.1-0.2,0-0.2-0.1v-3.1
		c0-0.2,0.1-0.3,0.2-0.4l7.8-4.5c0.2-0.1,0.2,0,0.2,0.1v3.1C358.8,343.8,358.7,344,358.5,344.1z M358.4,342.7l-7.5,4.4v0.3l7.5-4.4
		L358.4,342.7z M358.4,343.5l-7.5,4.4v0.3l7.5-4.4L358.4,343.5z"/>
	<path class="st42" d="M358.4,338.8v0.3l-7.5,4.4v-0.3L358.4,338.8z M358.4,338.1v0.3l-7.5,4.4v-0.3L358.4,338.1z M358.4,341.1v0.3
		l-7.5,4.4v-0.3L358.4,341.1z M358.4,341.9v0.3l-7.5,4.4v-0.3L358.4,341.9z M358.4,339.5v0.3l-7.5,4.4v-0.3L358.4,339.5z
		 M358.4,343.5v0.3l-7.5,4.4v-0.3L358.4,343.5z M358.4,342.7v0.3l-7.5,4.4V347L358.4,342.7z"/>
	<polygon class="st43" points="328,332.6 311.6,323.1 328,313.6 344.4,323.1 	"/>
	<polygon class="st17" points="328,332.6 311.6,323.1 344.3,304.2 360.8,313.7 	"/>
	<polygon class="st44" points="311.6,323.1 328,332.5 328,332.8 311.6,323.4 	"/>
	<polygon class="st45" points="345.3,322.7 348.6,320.8 332.1,311.3 328.8,313.2 	"/>
	<polygon class="st45" points="321.8,329 318.5,327.1 351.2,308.2 354.5,310.1 	"/>
	<polygon class="st46" points="345.5,322.5 348.6,320.8 332.1,311.3 329,313 	"/>
	<polygon class="st44" points="318.5,327.1 321.8,329 321.8,361.4 318.5,359.5 	"/>
	<polygon class="st47" points="339.2,318.9 342.3,317.1 338.9,315.2 335.8,316.9 	"/>
	<path class="st48" d="M336.5,316.6l1.7-1l0.4,0.2l-1.7,1L336.5,316.6z M337.1,315.5c0-0.1,0-0.1-0.1-0.2c0,0-0.1-0.1-0.1-0.1
		c-0.1,0-0.1-0.1-0.2-0.1c-0.1,0-0.2,0-0.3,0c-0.1,0-0.2,0-0.3,0c-0.1,0-0.1,0-0.2,0.1c-0.1,0-0.1,0.1-0.1,0.1c0,0,0,0.1-0.1,0.1
		c0,0.1,0,0.1,0,0.1c0,0,0.1,0.1,0.1,0.1c0.1,0,0.1,0.1,0.2,0.1c0.1,0,0.2,0,0.2,0.1l0.1-0.1l-0.4-0.2l0.4-0.2l0.8,0.4l-1,0.6
		l-0.4-0.2l0,0c-0.1,0-0.1,0-0.2-0.1l-0.2-0.1c-0.1-0.1-0.2-0.1-0.3-0.2c-0.1-0.1-0.1-0.2-0.1-0.3c0-0.1,0-0.2,0.1-0.3
		c0.1-0.1,0.2-0.2,0.3-0.2c0.1-0.1,0.3-0.1,0.4-0.2c0.2,0,0.3-0.1,0.5-0.1c0.2,0,0.3,0,0.5,0.1c0.1,0,0.3,0.1,0.4,0.2
		c0.1,0.1,0.2,0.1,0.3,0.2c0.1,0.1,0.1,0.2,0.1,0.3L337.1,315.5z M343.2,319.1C343.2,319.1,343.2,319,343.2,319.1c0-0.1,0-0.1,0-0.2
		c0,0-0.1-0.1-0.1-0.1l-0.5,0.3c0,0,0.1,0,0.1,0.1h0.2c0,0,0.1,0,0.1,0C343,319.2,343,319.2,343.2,319.1
		C343.1,319.1,343.1,319.1,343.2,319.1L343.2,319.1z M345.1,319.5l0.4,0.2l-1.2,1.3l-0.4-0.2l0.1-0.2l-0.5-0.3l-0.3,0.1l-0.4-0.2
		L345.1,319.5z M345.2,320.6c0.1-0.1,0.2-0.1,0.4-0.2c0.2,0,0.3-0.1,0.5-0.1c0.2,0,0.3,0,0.5,0.1c0.1,0,0.3,0.1,0.4,0.2
		c0.1,0.1,0.2,0.1,0.3,0.2c0.1,0.1,0.1,0.2,0.1,0.3h-0.6c0-0.1,0-0.1-0.1-0.2c0,0-0.1-0.1-0.1-0.1c-0.1,0-0.1-0.1-0.2-0.1l-0.3,0
		c-0.1,0-0.2,0-0.3,0c-0.1,0-0.1,0-0.2,0.1c-0.1,0-0.1,0.1-0.1,0.1c0,0,0,0.1,0,0.1c0,0.1,0.1,0.2,0.2,0.3c0,0,0.1,0.1,0.2,0.1
		c0.1,0,0.1,0,0.2,0.1l0.1-0.1l-0.3-0.2l0.4-0.2l0.7,0.4l-1,0.6l-0.4-0.2l0,0c-0.1,0-0.1,0-0.2-0.1l-0.1-0.1
		c-0.1-0.1-0.2-0.1-0.3-0.2c-0.1-0.1-0.1-0.2-0.1-0.3c0-0.1,0-0.2,0.1-0.3C345,320.8,345.1,320.7,345.2,320.6L345.2,320.6z
		 M344.2,320.4l0.3-0.3l-0.6,0.2L344.2,320.4z M343,318.4l0.4,0.2c0.1,0.1,0.2,0.1,0.2,0.2c0.1,0.1,0.1,0.1,0.1,0.2
		c0,0.1,0,0.1-0.1,0.2c-0.1,0.1-0.1,0.1-0.2,0.2c-0.1,0.1-0.2,0.1-0.3,0.1c-0.1,0-0.2,0-0.4,0l-0.2,0.6l-0.5-0.3l0.2-0.4l-0.1-0.1
		l-0.4,0.3l-0.4-0.2L343,318.4z M342.8,318.2l-0.4,0.2l-0.6-0.4l-0.3,0.2l0.5,0.3l-0.4,0.2l-0.5-0.3l-0.7,0.4l-0.4-0.2l1.7-1
		L342.8,318.2z M334.6,314.8l0.3-0.3l-0.6,0.2L334.6,314.8z M334.3,315.1l-0.5-0.3l-0.3,0.1l-0.4-0.2l2.3-0.7l0.4,0.2l-1.2,1.3
		l-0.4-0.2L334.3,315.1z M332.9,313.5l0.1,0.1l0.2,0h0.1c0,0,0.1,0,0.1,0c0,0,0,0,0.1-0.1c0,0,0-0.1,0-0.1c0,0,0-0.1-0.1-0.1
		c0,0-0.1-0.1-0.1-0.1L332.9,313.5z M332.1,314l-0.4-0.2l1.7-1l0.4,0.2c0.1,0.1,0.2,0.1,0.2,0.2c0,0.1,0.1,0.1,0.1,0.2
		c0,0.1,0,0.1-0.1,0.2c-0.1,0.1-0.1,0.1-0.2,0.2c-0.1,0.1-0.2,0.1-0.3,0.1c-0.1,0-0.2,0-0.4,0l-0.2,0.6l-0.5-0.3l0.2-0.4l-0.1-0.1
		L332.1,314z M330.7,313.3l-0.4-0.2l1.7-1l1.1,0.6l-0.4,0.2l-0.7-0.4l-0.3,0.2l0.5,0.3l-0.4,0.2l-0.5-0.3L330.7,313.3z"/>
	<polygon class="st46" points="321.6,328.9 318.5,327.1 351.2,308.2 354.3,310 	"/>
	<polygon class="st47" points="318.5,327 321.6,328.8 321.6,361.3 318.5,359.6 	"/>
	<polygon class="st39" points="348.6,320.8 345.3,322.6 345.3,355.1 348.6,353.2 	"/>
	<polygon class="st49" points="348.6,320.8 345.5,322.5 345.5,355 348.6,353.2 	"/>
	<path class="st48" d="M328.3,323.4l0.3-0.2l-0.6-0.2L328.3,323.4z M328.8,322.5c-0.1-0.1-0.1-0.2-0.1-0.3c0-0.1,0-0.2,0.1-0.3
		c0.1-0.1,0.2-0.2,0.3-0.2c0.1-0.1,0.3-0.1,0.4-0.2c0.2,0,0.3-0.1,0.5-0.1v0.3c-0.1,0-0.2,0-0.3,0c-0.1,0-0.1,0-0.2,0.1
		c-0.1,0-0.1,0.1-0.1,0.1c0,0-0.1,0.1-0.1,0.2c0,0.1,0,0.1,0.1,0.1c0,0.1,0.1,0.1,0.1,0.1c0.1,0,0.1,0.1,0.2,0.1c0.1,0,0.2,0,0.3,0
		c0.1,0,0.2,0,0.2,0c0.1,0,0.1,0,0.2-0.1c0.1,0,0.1-0.1,0.1-0.1c0,0,0.1-0.1,0.1-0.1l-0.1-0.1l-0.4,0.2l-0.4-0.2l0.8-0.4l1,0.6
		l-0.4,0.2l0,0c0,0-0.1,0.1-0.1,0.1l-0.1,0.1c-0.1,0.1-0.3,0.1-0.4,0.2c-0.2,0-0.3,0.1-0.5,0.1c-0.2,0-0.3,0-0.5-0.1
		c-0.1,0-0.3-0.1-0.4-0.2C329,322.7,328.9,322.6,328.8,322.5L328.8,322.5z M332.5,321.3l0.6-0.4l0.4,0.2l-1,0.6l-1.7-1l0.4-0.2
		L332.5,321.3z M332.1,321.9l-0.4,0.2l-1.7-1l0.4-0.2L332.1,321.9z M334.5,320.2l0.4,0.2l-1.1,0.6l-1.7-1l1.1-0.6l0.4,0.2l-0.7,0.4
		l0.3,0.2l0.6-0.3l0.4,0.2l-0.6,0.3l0.3,0.2L334.5,320.2z M335.9,319l0.7,0.4l-0.4,0.2l-1.7-1l1-0.6l0.4,0.2l-0.6,0.4l0.3,0.2
		l0.5-0.3l0.4,0.2L335.9,319z M340.6,315l0.4-0.2l1.7,1l-0.4,0.2L340.6,315z M339.7,315.6c0.1-0.1,0.3-0.1,0.4-0.2
		c0.2,0,0.3-0.1,0.5-0.1v0.3c-0.1,0-0.2,0-0.3,0c-0.1,0-0.1,0-0.2,0.1c-0.1,0-0.1,0.1-0.1,0.1c0,0-0.1,0.1-0.1,0.2
		c0,0.1,0,0.1,0.1,0.2c0,0,0.1,0.1,0.1,0.1c0.1,0,0.1,0.1,0.2,0.1c0.1,0,0.2,0,0.3,0c0.1,0,0.2,0,0.2,0c0.1,0,0.1,0,0.2-0.1
		c0.1,0,0.1-0.1,0.1-0.1c0,0,0.1-0.1,0.1-0.1l-0.1-0.1l-0.3,0.2l-0.4-0.2l0.7-0.4l1,0.6l-0.4,0.2l0,0c0,0-0.1,0.1-0.1,0.1l-0.1,0.1
		c-0.1,0.1-0.3,0.1-0.4,0.2c-0.2,0-0.3,0.1-0.5,0c-0.3,0-0.6-0.1-0.9-0.2c-0.1-0.1-0.2-0.1-0.3-0.2c-0.1-0.1-0.1-0.2-0.1-0.3
		c0-0.1,0-0.2,0.1-0.3C339.5,315.7,339.6,315.6,339.7,315.6L339.7,315.6z M338.7,317l0.3,0.3l0.3-0.2L338.7,317z M337.8,316.7
		l0.4-0.2l2.3,0.7l-0.4,0.2l-0.3-0.1l-0.5,0.3l0.1,0.2l-0.4,0.2L337.8,316.7z M336.7,317.8l-0.2,0.1l0.5,0.3c0,0,0.1,0,0.1-0.1
		c0,0,0-0.1,0-0.1c0,0,0-0.1,0-0.1c0-0.1-0.1-0.1-0.2-0.1h-0.1L336.7,317.8z M336.5,317.5c0.1,0,0.2-0.1,0.4-0.1c0.1,0,0.2,0,0.4,0
		c0.1,0,0.2,0.1,0.3,0.1c0.1,0,0.2,0.1,0.2,0.2c0,0.1,0.1,0.1,0,0.2l1,0.1l-0.5,0.3l-0.7-0.1l-0.1,0.1l0.4,0.3l-0.4,0.2l-1.7-1
		l0.4-0.2C336.3,317.6,336.4,317.5,336.5,317.5L336.5,317.5z M343.7,314.8l0.4,0.2l-1,0.6l-1.7-1l0.4-0.2l1.3,0.8L343.7,314.8z
		 M343.7,313.2l0.4,0.2l-0.7,0.4l0.3,0.2l0.6-0.3l0.4,0.2l-0.6,0.3l0.3,0.2l0.7-0.4l0.4,0.2l-1.1,0.6l-1.7-1L343.7,313.2z
		 M321.5,328.1l-0.4,0.2l-1.7-1l0.4-0.2L321.5,328.1z M320.1,326.9l0.4-0.2l1.3,0.8l0.6-0.4l0.4,0.2l-1,0.6L320.1,326.9z
		 M327.1,322.8l0.4-0.2l2.3,0.7l-0.4,0.2l-0.3-0.1l-0.5,0.3l0.1,0.2l-0.4,0.2L327.1,322.8z M324.9,324.1l0.4,0.2l-0.6,0.4l0.3,0.2
		l0.5-0.3l0.4,0.2l-0.5,0.3l0.7,0.4l-0.4,0.2l-1.7-1L324.9,324.1z M326.5,323.9c0,0-0.1,0-0.1,0c0,0-0.1,0-0.1,0c-0.1,0-0.1,0-0.2,0
		l-0.2,0.1l0.5,0.3c0,0,0.1,0,0.1-0.1c0,0,0-0.1,0-0.1C326.6,324,326.6,324,326.5,323.9C326.6,324,326.5,323.9,326.5,323.9z
		 M326.2,323.6c0.1,0,0.2,0,0.4,0c0.1,0,0.2,0.1,0.3,0.1c0.1,0,0.2,0.1,0.2,0.2c0,0.1,0,0.1,0,0.2l1,0.1l-0.5,0.3l-0.7-0.1l-0.1,0.1
		l0.4,0.3l-0.4,0.2l-1.7-1l0.4-0.2c0.1-0.1,0.2-0.1,0.3-0.1C326,323.6,326.1,323.6,326.2,323.6z M322.5,325.5l0.4,0.2l-0.7,0.4
		l0.3,0.2l0.6-0.3l0.4,0.2l-0.6,0.3l0.3,0.2l0.7-0.4l0.4,0.2l-1.1,0.6l-1.7-1L322.5,325.5z"/>
	<path class="st48" d="M320.4,356v-0.3l-0.4-0.1L320.4,356z M319.9,359.1v-0.6l0.4,0.2v0.6l0.7,0.4v0.4l-1.7-1V358l0.4,0.2v0.8
		L319.9,359.1z M319.9,357.3C319.9,357.2,319.9,357.2,319.9,357.3c-0.1,0-0.1,0-0.2,0c0,0,0,0.1-0.1,0.1c0,0,0,0.1,0,0.1l0.5,0.3
		c0,0,0-0.1,0-0.1c0-0.1,0-0.1-0.1-0.2c0,0-0.1-0.1-0.1-0.1C320,357.3,319.9,357.3,319.9,357.3L319.9,357.3z M319.3,355.4v-0.4
		l1.7,0.4v0.5l-0.2,0v0.6l0.2,0.2v0.5L319.3,355.4z M319.7,356.7c0.1,0,0.2,0,0.2,0.1c0.1,0.1,0.2,0.1,0.3,0.2
		c0.1,0.1,0.1,0.2,0.2,0.3l0.6-0.1v0.5l-0.4,0.1v0.2l0.4,0.2v0.4l-1.7-1v-0.4c0-0.1,0-0.2,0.1-0.3c0-0.1,0.1-0.1,0.1-0.2
		C319.5,356.7,319.6,356.7,319.7,356.7L319.7,356.7z M319.8,353.1c0,0-0.1,0.1-0.1,0.1c0,0.1,0,0.1,0,0.2c0,0.1,0,0.2,0,0.2
		c0,0.1,0.1,0.2,0.1,0.2c0,0.1,0.1,0.1,0.2,0.2c0,0.1,0.1,0.1,0.2,0.1c0.1,0,0.1,0.1,0.2,0.1c0.1,0,0.1,0,0.2,0c0,0,0.1-0.1,0.1-0.1
		c0-0.1,0-0.1,0-0.2c0-0.1,0-0.1,0-0.2c0-0.1,0-0.1-0.1-0.2l-0.1,0v0.4l-0.4-0.2v-0.9l1,0.6v0.4h0c0,0.1,0,0.1,0,0.2v0.2
		c0,0.1,0,0.2-0.1,0.3c0,0.1-0.1,0.2-0.2,0.2c-0.1,0.1-0.2,0.1-0.3,0.1c-0.1,0-0.2-0.1-0.3-0.1c-0.1-0.1-0.2-0.2-0.3-0.3
		c-0.1-0.1-0.2-0.2-0.3-0.4c-0.1-0.1-0.1-0.3-0.2-0.4c0-0.1-0.1-0.3-0.1-0.4c0-0.1,0-0.2,0.1-0.3c0.1-0.1,0.1-0.2,0.2-0.2
		L319.8,353.1z M319.3,352.1v-0.4l1.7,1v0.4L319.3,352.1z M319.3,351.2v-0.4l1.3,0.8v-0.7l0.4,0.2v1.2L319.3,351.2z M319.9,345
		C319.9,345,319.8,345,319.9,345c-0.1,0-0.1,0-0.2,0c0,0,0,0.1-0.1,0.1c0,0,0,0.1,0,0.1l0.5,0.3c0-0.1,0-0.1,0-0.2
		c0-0.1,0-0.1-0.1-0.2c0,0-0.1-0.1-0.1-0.1C320,345.1,319.9,345,319.9,345z M319.7,332.9c0,0,0,0.1,0,0.1l0.5,0.3c0-0.1,0-0.1,0-0.2
		c0-0.1,0-0.1-0.1-0.2c0,0-0.1-0.1-0.1-0.1c0,0-0.1-0.1-0.1-0.1c0,0-0.1,0-0.1,0C319.8,332.8,319.8,332.8,319.7,332.9
		C319.7,332.8,319.7,332.8,319.7,332.9L319.7,332.9z M320.3,349.9l0.3,0.2v-0.8l0.4,0.2v1.3l-1.7-1v-1.3l0.4,0.2v0.8l0.3,0.1V349
		l0.4,0.2L320.3,349.9z M320.3,347.1l0.7,0.4v0.4l-1.7-1v-1.2l0.4,0.2v0.8l0.3,0.1v-0.6l0.4,0.2V347.1z M320.4,343.7v-0.3l-0.4-0.1
		L320.4,343.7z M321,343.5l-0.2,0v0.7l0.2,0.2v0.5l-1.7-1.7v-0.4l1.7,0.4V343.5z M321,345.5l-0.4,0.1v0.2l0.4,0.2v0.4l-1.7-1V345
		c0-0.1,0-0.2,0.1-0.3c0-0.1,0.1-0.1,0.1-0.2c0.1,0,0.1-0.1,0.2-0.1c0.1,0,0.2,0,0.2,0.1c0.1,0.1,0.2,0.1,0.3,0.2
		c0.1,0.1,0.1,0.2,0.2,0.3l0.6-0.1L321,345.5z M321,341.6L321,341.6c0,0.1,0,0.1,0,0.2v0.2c0,0.1,0,0.2-0.1,0.3
		c0,0.1-0.1,0.2-0.2,0.2c-0.1,0.1-0.2,0.1-0.3,0.1c-0.1,0-0.2-0.1-0.3-0.1c-0.1-0.1-0.2-0.2-0.3-0.3c-0.1-0.1-0.2-0.2-0.3-0.4
		c-0.1-0.1-0.1-0.3-0.2-0.4c0-0.1-0.1-0.3-0.1-0.4c0-0.1,0-0.2,0.1-0.3c0-0.1,0.1-0.2,0.2-0.2l0.3,0.5c0,0-0.1,0.1-0.1,0.1
		c0,0.1,0,0.1,0,0.2c0,0.1,0,0.1,0,0.2c0,0.1,0.1,0.2,0.1,0.2c0,0.1,0.1,0.1,0.2,0.2c0,0.1,0.1,0.1,0.2,0.1c0.1,0,0.1,0.1,0.2,0.1
		c0.1,0,0.1,0,0.2,0c0,0,0.1-0.1,0.1-0.1c0-0.1,0-0.1,0-0.2c0-0.1,0-0.1,0-0.2c0-0.1,0-0.1-0.1-0.2l-0.1,0v0.4l-0.4-0.2v-0.9l1,0.6
		L321,341.6z M321,340.4v0.4l-1.7-1v-0.4L321,340.4z M321,337.2v1.3l-1.7-1v-1.3l0.4,0.2v0.8l0.3,0.1v-0.6l0.4,0.2v0.7l0.3,0.2V337
		L321,337.2z M320.6,338.6l0.4,0.2v1.2l-1.7-1v-0.4l1.3,0.8V338.6z M320.3,334.9l0.7,0.4v0.4l-1.7-1v-1.2l0.4,0.2v0.8l0.3,0.1v-0.6
		l0.4,0.2V334.9z M320.4,332.8l0.6-0.1v0.5l-0.4,0.1v0.2l0.4,0.2v0.4l-1.7-1v-0.4c0-0.1,0-0.2,0.1-0.3c0-0.1,0.1-0.1,0.1-0.2
		c0.1,0,0.1-0.1,0.2-0.1c0.1,0,0.2,0,0.2,0.1c0.1,0.1,0.2,0.1,0.3,0.2C320.2,332.6,320.3,332.7,320.4,332.8L320.4,332.8z
		 M320.4,331.5v-0.3l-0.4-0.1L320.4,331.5z M319.2,330.9v-0.4l1.7,0.4v0.5l-0.2,0v0.6l0.2,0.2v0.5L319.2,330.9z M319.5,328.1
		l0.3,0.5c0,0-0.1,0.1-0.1,0.1c0,0.1,0,0.1,0,0.2c0,0.1,0,0.1,0,0.2c0,0.1,0.1,0.2,0.1,0.2c0,0.1,0.1,0.1,0.2,0.2
		c0,0.1,0.1,0.1,0.2,0.1c0.1,0,0.1,0.1,0.2,0.1c0.1,0,0.1,0,0.2,0c0,0,0.1-0.1,0.1-0.1c0-0.1,0-0.1,0-0.2c0-0.1,0-0.1,0-0.2
		c0-0.1,0-0.1-0.1-0.2l-0.1-0.1v0.4l-0.4-0.2v-0.9l1,0.6v0.4h0c0,0.1,0,0.1,0,0.2v0.2c0,0.1,0,0.2-0.1,0.3c0,0.1-0.1,0.2-0.2,0.2
		c-0.1,0.1-0.2,0.1-0.3,0.1c-0.1,0-0.2-0.1-0.3-0.1c-0.1-0.1-0.2-0.2-0.3-0.3c-0.1-0.1-0.2-0.2-0.3-0.4c-0.1-0.1-0.1-0.3-0.2-0.4
		c0-0.1-0.1-0.3-0.1-0.4c0-0.1,0-0.2,0.1-0.3C319.3,328.2,319.4,328.2,319.5,328.1L319.5,328.1z"/>
	<path class="st48" d="M346.5,311.5l0.4,0.2l-0.6,0.4l0.3,0.2l0.5-0.3l0.4,0.2l-0.5,0.3l0.7,0.4l-0.4,0.2l-1.7-1L346.5,311.5z
		 M348.1,311.3c0,0-0.1,0-0.1,0c0,0-0.1,0-0.1,0c-0.1,0-0.1,0-0.2,0l-0.2,0.1l0.5,0.3c0,0,0.1,0,0.1-0.1c0,0,0-0.1,0-0.1
		C348.2,311.4,348.2,311.4,348.1,311.3C348.2,311.3,348.2,311.3,348.1,311.3L348.1,311.3z M348.5,311.1c0.1,0,0.2,0.1,0.2,0.2
		c0,0.1,0,0.1,0,0.2l1,0.1l-0.5,0.3l-0.7-0.1l-0.1,0.1l0.4,0.3l-0.4,0.2l-1.7-1l0.4-0.2c0.1-0.1,0.2-0.1,0.3-0.1c0.1,0,0.2,0,0.4,0
		c0.1,0,0.2,0,0.4,0C348.3,311,348.4,311,348.5,311.1L348.5,311.1z M350.3,311.3l-0.4,0.2l-1.2-1.3l0.4-0.2l2.3,0.7l-0.4,0.2
		l-0.3-0.1l-0.5,0.3L350.3,311.3z M349.9,310.8l0.3-0.2l-0.6-0.2L349.9,310.8z M351.1,309.3c-0.1,0-0.1,0.1-0.1,0.1
		c0,0-0.1,0.1-0.1,0.2c0,0.1,0,0.1,0.1,0.1c0,0.1,0.1,0.1,0.1,0.1c0.1,0,0.1,0.1,0.2,0.1c0.1,0,0.2,0,0.3,0c0.1,0,0.2,0,0.2,0
		c0.1,0,0.1,0,0.2-0.1c0.1,0,0.1-0.1,0.1-0.1c0,0,0.1-0.1,0.1-0.1l-0.1-0.1l-0.4,0.2l-0.4-0.2l0.8-0.4l1,0.6l-0.4,0.2l0,0
		c0,0-0.1,0.1-0.1,0.1l-0.1,0.1c-0.1,0.1-0.3,0.1-0.4,0.2c-0.2,0-0.3,0.1-0.5,0.1c-0.2,0-0.3,0-0.5-0.1c-0.1,0-0.3-0.1-0.4-0.2
		c-0.1-0.1-0.2-0.1-0.3-0.2c-0.1-0.1-0.1-0.2-0.1-0.3c0-0.1,0-0.2,0.1-0.3c0.1-0.1,0.2-0.2,0.3-0.2c0.1-0.1,0.3-0.1,0.4-0.2
		c0.2,0,0.3-0.1,0.5-0.1v0.3c-0.1,0-0.2,0-0.3,0C351.2,309.2,351.1,309.3,351.1,309.3L351.1,309.3z"/>
	<path class="st48" d="M347.5,351.5l-0.3,0.2v0.7l-0.4,0.2v-0.7l-0.3,0.2v0.9l-0.4,0.2v-1.4l1.9-1.1v1.4l-0.4,0.3L347.5,351.5z
		 M347.9,348.3v0.5l-1.9,1.1v-0.5L347.9,348.3z M347.9,349.2v0.5l-1.5,0.9v0.8l-0.4,0.2v-1.3L347.9,349.2z M346.7,345.4v0.4l0.4-0.4
		L346.7,345.4z M347.8,346.6c0,0.1,0.1,0.3,0.1,0.4c0,0.2,0,0.3-0.1,0.4c0,0.2-0.1,0.3-0.2,0.5l-0.3-0.2c0-0.1,0.1-0.2,0.1-0.3
		c0-0.1,0-0.2,0-0.2c0-0.1,0-0.1,0-0.2c0-0.1-0.1-0.1-0.1-0.1c-0.1,0-0.1,0-0.2,0c-0.1,0-0.1,0-0.2,0.1c-0.1,0-0.1,0.1-0.2,0.2
		c-0.1,0.1-0.1,0.1-0.2,0.2c0,0.1-0.1,0.2-0.1,0.2c0,0.1,0,0.2,0,0.2c0,0.1,0,0.1,0,0.2c0,0,0,0.1,0.1,0.1l0.1-0.1v-0.4l0.4-0.2v0.9
		L346,349v-0.5l0,0c0,0,0-0.1,0-0.2v-0.2c0-0.2,0-0.3,0.1-0.4c0-0.2,0.1-0.3,0.2-0.5c0.1-0.2,0.2-0.3,0.3-0.4
		c0.1-0.1,0.2-0.2,0.4-0.3c0.1-0.1,0.2-0.1,0.4-0.1c0.1,0,0.2,0,0.3,0.1C347.7,346.5,347.8,346.6,347.8,346.6L347.8,346.6z
		 M347.9,344.6v0.5l-1.9,1.8v-0.5l0.2-0.2v-0.7l-0.2,0V345L347.9,344.6z M347.4,343.2l0.1-0.2v-0.2l-0.5,0.3c0,0,0,0.1,0,0.1
		c0,0,0,0.1,0.1,0.1c0,0,0,0,0.1,0c0,0,0.1,0,0.1,0c0,0,0.1-0.1,0.1-0.1C347.3,343.3,347.4,343.2,347.4,343.2L347.4,343.2z
		 M347.2,341.4v0.7l-0.4,0.2v-0.7l-0.7,0.4v-0.5l1.9-1.1v1.3l-0.4,0.3v-0.8L347.2,341.4z M347.9,342.1v0.5c0,0.1,0,0.3-0.1,0.4
		c0,0.1-0.1,0.3-0.2,0.4c-0.1,0.1-0.1,0.2-0.2,0.3c-0.1,0.1-0.2,0.2-0.3,0.2c-0.1,0.1-0.2,0.1-0.3,0.1c-0.1,0-0.2,0-0.2-0.1
		l-0.7,0.9v-0.6l0.5-0.6v-0.1l-0.5,0.3v-0.5L347.9,342.1z M347.4,338.2l-0.3,0.2v0.7l-0.4,0.2v-0.7l-0.3,0.2v0.9l-0.4,0.2v-1.4
		l2-1.1v1.4l-0.4,0.3L347.4,338.2z M346.4,337.2v0.8l-0.4,0.2v-1.3l1.9-1.1v0.5L346.4,337.2z M347.9,334.9v0.5l-1.9,1.1V336
		L347.9,334.9z M346.7,332v0.4l0.4-0.4L346.7,332z M347.8,333.3c0,0.1,0.1,0.2,0.1,0.4c0,0.2,0,0.3-0.1,0.4c0,0.2-0.1,0.3-0.2,0.5
		l-0.3-0.2c0-0.1,0.1-0.2,0.1-0.3c0-0.1,0-0.2,0-0.3c0-0.1,0-0.1,0-0.2c0-0.1-0.1-0.1-0.1-0.1c-0.1,0-0.1,0-0.2,0
		c-0.1,0-0.1,0-0.2,0.1c-0.1,0-0.1,0.1-0.2,0.2c-0.1,0.1-0.1,0.2-0.2,0.2c0,0.1-0.1,0.2-0.1,0.2c0,0.1,0,0.1,0,0.2
		c0,0.1,0,0.1,0,0.2c0,0,0,0.1,0.1,0.1l0.1-0.1v-0.4l0.4-0.2v0.9l-1.1,0.6v-0.5l0,0c0,0,0-0.1,0-0.2v-0.2c0-0.2,0-0.3,0.1-0.4
		c0-0.2,0.1-0.3,0.2-0.5c0.1-0.2,0.2-0.3,0.3-0.4c0.1-0.1,0.2-0.2,0.4-0.3c0.1-0.1,0.2-0.1,0.4-0.1c0.1,0,0.2,0,0.3,0.1
		C347.7,333.1,347.8,333.2,347.8,333.3L347.8,333.3z M346,331.6l1.9-0.4v0.5l-1.9,1.8V333l0.2-0.2v-0.7l-0.2,0V331.6z M347.4,329.8
		l0.1-0.2v-0.2l-0.5,0.3c0,0,0,0.1,0,0.1c0,0,0,0.1,0.1,0.1c0,0,0.1,0,0.1,0c0,0,0.1,0,0.1,0c0,0,0.1-0.1,0.1-0.1L347.4,329.8z
		 M347.2,328v0.7l-0.4,0.2v-0.7l-0.7,0.4v-0.5l1.9-1.1v1.3l-0.4,0.3v-0.8L347.2,328z M347.9,328.8v0.5c0,0.1,0,0.3-0.1,0.4
		c0,0.1-0.1,0.3-0.2,0.4c-0.1,0.1-0.1,0.2-0.2,0.3c-0.1,0.1-0.2,0.2-0.3,0.2c-0.1,0.1-0.2,0.1-0.3,0.1c-0.1,0-0.2,0-0.2-0.1
		l-0.7,0.9v-0.6l0.5-0.6v-0.1l-0.5,0.3v-0.5L347.9,328.8z M347.4,324.8l-0.3,0.2v0.7l-0.4,0.2v-0.7l-0.3,0.2v0.9l-0.4,0.2v-1.4
		l1.9-1.1v1.4l-0.4,0.3L347.4,324.8z M346.4,324.6l-0.4,0.2v-1.3l1.9-1.1v0.5l-1.5,0.8V324.6z M347.9,321.5v0.5l-1.9,1.1v-0.5
		L347.9,321.5z"/>
	<polygon class="st50" points="329.2,340.1 329.2,352 343.7,343.6 343.7,331.8 	"/>
	<polygon class="st51" points="329.7,340.3 329.7,351.2 343.4,343.3 343.4,332.4 	"/>
	<polygon class="st50" points="330,340.4 330,350.6 343.2,343 343.2,332.8 	"/>
	<polygon class="st51" points="334,342 330.6,344 330.6,344.4 334,342.4 	"/>
	<polygon class="st51" points="342.4,334.7 337.3,337.7 337.3,338.5 342.4,335.5 	"/>
	<polygon class="st51" points="342.4,337.9 335.8,341.7 335.8,342.2 342.4,338.4 	"/>
	<path class="st51" d="M331.3,341.7c-0.1,0.3,0.1,0.7,0.5,0.8c0.2,0,0.4,0,0.6-0.2c0.6-0.4,1-1.1,1.1-1.8c0.1-0.3-0.1-0.7-0.5-0.8
		c-0.2,0-0.4,0-0.6,0.2C331.7,340.3,331.3,341,331.3,341.7z M331.6,341.6c0-0.5,0.3-1,0.8-1.3c0.2-0.2,0.4-0.2,0.6-0.1
		c0.1,0.1,0.2,0.3,0.1,0.5c0,0.5-0.3,1-0.8,1.3c-0.2,0.2-0.4,0.2-0.6,0.1C331.6,342,331.5,341.8,331.6,341.6z"/>
	<path class="st51" d="M331.8,341.4c0,0.2,0.1,0.3,0.2,0.4c0.1,0,0.2,0,0.3-0.1c0.3-0.2,0.5-0.5,0.5-0.9c0-0.2-0.1-0.3-0.2-0.4
		c-0.1,0-0.2,0-0.3,0.1C332,340.7,331.8,341.1,331.8,341.4z"/>
	<polygon class="st51" points="334,343.2 330.6,345.2 330.6,345.6 334,343.6 	"/>
	<polygon class="st51" points="334,344.3 330.6,346.3 330.6,346.8 334,344.8 	"/>
	<polygon class="st51" points="342.4,339.1 335.8,342.9 335.8,343.3 342.4,339.5 	"/>
	<polygon class="st51" points="342.4,340.2 335.8,344.1 335.8,344.5 342.4,340.7 	"/>
	<polygon class="st51" points="342.4,335.9 337.3,338.9 337.3,339.7 342.4,336.7 	"/>
	<polygon class="st51" points="335.2,344.9 330.7,347.5 330.7,348.3 335.2,345.7 	"/>
	<polygon class="st51" points="335.2,346.1 330.7,348.7 330.7,349.5 335.2,346.9 	"/>
	<polygon class="st51" points="341.6,342 340.5,342.7 340.5,343.5 341.6,342.8 	"/>
	<polygon class="st51" points="339.9,342.9 338.8,343.6 338.8,344.4 339.9,343.7 	"/>
	<polygon class="st51" points="338.2,343.9 337,344.6 337,345.4 338.2,344.7 	"/>
	<polygon class="st51" points="335.9,339.7 334.7,340.4 334.7,341.2 335.9,340.5 	"/>
	<polygon class="st51" points="335.9,338.6 334.7,339.2 334.7,340 335.9,339.4 	"/>
	<path class="st50" d="M299.6,343.5c-2,1.1-4.4,1.7-7.2,1.7c-2.5,0.1-5-0.5-7.2-1.7c-2-1.1-3-2.5-3-4.1s1-3,3-4.1
		c2.2-1.2,4.7-1.8,7.2-1.7c2.5-0.1,5,0.5,7.2,1.7c2,1.1,3,2.5,3,4.1S301.6,342.3,299.6,343.5z"/>
	
		<linearGradient id="SVGID_1_" gradientUnits="userSpaceOnUse" x1="505.1875" y1="-25.7481" x2="518.8188" y2="-25.7481" gradientTransform="matrix(1.26 0 0 -0.28 -353.2585 329.2957)">
		<stop  offset="0" style="stop-color:#F89F63"/>
		<stop  offset="0.46" style="stop-color:#F26722"/>
		<stop  offset="0.89" style="stop-color:#DB5A26"/>
		<stop  offset="1" style="stop-color:#F26722"/>
	</linearGradient>
	<rect x="282.6" y="334.1" class="st52" width="17" height="4.9"/>
	
		<linearGradient id="SVGID_2_" gradientUnits="userSpaceOnUse" x1="682.0905" y1="-428.5192" x2="689.9246" y2="-420.6895" gradientTransform="matrix(1.09 0.63 1.09 -0.63 5.9604 -360.2876)">
		<stop  offset="0" style="stop-color:#F89F63"/>
		<stop  offset="0.46" style="stop-color:#F26722"/>
		<stop  offset="0.89" style="stop-color:#DB5A26"/>
		<stop  offset="1" style="stop-color:#F26722"/>
	</linearGradient>
	<path class="st53" d="M297.2,342.9c-1.8,1-3.9,1.5-6,1.4c-2.1,0.1-4.2-0.4-6-1.4c-1.7-1-2.5-2.1-2.5-3.5c0-1.4,0.8-2.5,2.5-3.5
		c1.8-1,3.9-1.5,6-1.4c2.1-0.1,4.2,0.4,6,1.4c1.7,1,2.5,2.1,2.5,3.5C299.7,340.7,298.9,341.9,297.2,342.9z"/>
	<path class="st54" d="M297.2,337.4c-1.8,1-3.9,1.5-6,1.4c-2.1,0.1-4.2-0.4-6-1.4c-1.7-1-2.5-2.1-2.5-3.5c0-1.4,0.8-2.5,2.5-3.5
		c1.8-1,3.9-1.5,6-1.4c2.1-0.1,4.2,0.4,6,1.4c1.7,1,2.5,2.1,2.5,3.5C299.7,335.3,298.9,336.5,297.2,337.4z"/>
	<path class="st55" d="M294.9,336.2c-2.4,1.2-5.2,1.2-7.6,0c-1-0.6-1.6-1.3-1.6-2.2c0-0.9,0.5-1.6,1.6-2.2c2.4-1.2,5.2-1.2,7.6,0
		c1,0.6,1.6,1.3,1.6,2.2C296.5,334.9,296,335.6,294.9,336.2z"/>
	
		<linearGradient id="SVGID_3_" gradientUnits="userSpaceOnUse" x1="423.412" y1="-650.6568" x2="431.2418" y2="-642.8226" gradientTransform="matrix(0.61 0.35 0.61 -0.35 423.9477 -41.8884)">
		<stop  offset="0" style="stop-color:#92643E"/>
		<stop  offset="0.26" style="stop-color:#B68156"/>
		<stop  offset="0.79" style="stop-color:#DFB080"/>
	</linearGradient>
	<path class="st56" d="M294.5,336c-2.1,1.1-4.6,1.1-6.7,0c-0.9-0.5-1.4-1.2-1.4-1.9c0-0.8,0.5-1.4,1.4-1.9c2.1-1.1,4.6-1.1,6.7,0
		c0.9,0.5,1.4,1.2,1.4,1.9C295.9,334.8,295.4,335.4,294.5,336z"/>
	<path class="st48" d="M285.5,339.6c-0.1-0.1-0.1-0.2-0.2-0.3c-0.1-0.1-0.2-0.2-0.3-0.2c0,0.5,0,0.9,0,1.2c0.1,0,0.2,0.1,0.3,0.1
		c0.1,0,0.1,0,0.2,0c0.1,0,0.1,0,0.1-0.1c0-0.1,0.1-0.1,0.1-0.2c0-0.1,0-0.2-0.1-0.3C285.6,339.8,285.5,339.7,285.5,339.6z
		 M285,338.1c0.2,0.1,0.4,0.3,0.6,0.4c0.2,0.2,0.4,0.4,0.5,0.6c0.1,0.2,0.3,0.4,0.3,0.7c0.1,0.2,0.1,0.5,0.1,0.7
		c0,0.2,0,0.4-0.1,0.5c-0.1,0.1-0.2,0.2-0.3,0.2c0.3,0.5,0.6,1,0.9,1.6c-0.4-0.2-0.7-0.3-1-0.5c-0.2-0.4-0.4-0.8-0.6-1.2l-0.3-0.1
		c0,0.3,0,0.5,0,0.8c-0.3-0.2-0.6-0.4-0.8-0.6c-0.1-0.9-0.1-2.1-0.1-3.7C284.5,337.7,284.7,337.9,285,338.1z M288.5,339.4
		c0.3,0.1,0.6,0.1,0.8,0.1c0.4,1.5,0.8,2.9,1.3,4.3c-0.3,0-0.6-0.1-0.9-0.1l-0.2-0.4c-0.4-0.1-0.8-0.2-1.2-0.3
		c0,0.1-0.1,0.3-0.1,0.4c-0.3-0.1-0.6-0.2-0.9-0.3C287.8,341.8,288.2,340.6,288.5,339.4L288.5,339.4z M289,341.4
		c-0.1,0.3-0.2,0.6-0.3,0.8c0.2,0.1,0.4,0.1,0.6,0.1C289.2,342,289.1,341.7,289,341.4L289,341.4z M294.1,341.3c0,0.7,0,1.4,0.1,2.1
		c-0.3,0.1-0.6,0.2-0.9,0.2c0,0,0-0.1,0-0.1c-0.1,0-0.2,0.1-0.3,0.1c-0.1,0-0.2,0.1-0.3,0.1c-0.2,0-0.5,0-0.7-0.1
		c-0.2-0.1-0.4-0.2-0.6-0.4c-0.2-0.2-0.3-0.4-0.4-0.7c-0.1-0.2-0.2-0.5-0.2-0.7c0-0.3,0-0.6,0.1-0.9c0.1-0.3,0.2-0.6,0.4-0.9
		c0.1-0.2,0.3-0.4,0.6-0.5c0.2-0.1,0.5-0.2,0.7-0.2c0.3,0,0.5,0,0.7,0c0.2,0.1,0.5,0.2,0.7,0.4c-0.2,0.3-0.4,0.6-0.6,0.9
		c-0.1-0.1-0.2-0.2-0.4-0.2c-0.1-0.1-0.3-0.1-0.4-0.1c-0.1,0-0.3,0.1-0.4,0.1c-0.1,0.1-0.2,0.2-0.3,0.3c-0.1,0.1-0.2,0.3-0.2,0.4
		c0,0.1-0.1,0.3-0.1,0.4c0,0.1,0,0.3,0.1,0.4c0.1,0.1,0.1,0.2,0.2,0.3c0.1,0.1,0.2,0.2,0.3,0.2c0.1,0,0.2,0.1,0.3,0.1
		c0.1,0,0.2,0,0.3-0.1c0.1-0.1,0.2-0.1,0.3-0.2c0-0.1,0-0.1,0-0.2c-0.3,0.1-0.5,0.1-0.7,0.1c0-0.3,0-0.6,0-0.9
		C293,341.6,293.5,341.5,294.1,341.3L294.1,341.3z M298.5,340.3c0,0.3,0,0.6,0,0.8c-0.7,0.5-1.4,1-2.1,1.3c0-1.1,0-2.4,0-3.9
		c0.3-0.1,0.6-0.3,0.9-0.4c0,1.2,0,2.2,0,3.1C297.7,340.9,298.1,340.6,298.5,340.3L298.5,340.3z M294.7,339.1
		c0.3-0.1,0.6-0.2,0.9-0.3c0,1.6,0,2.9,0,4c-0.3,0.1-0.6,0.3-0.9,0.4C294.7,342.1,294.7,340.7,294.7,339.1L294.7,339.1z
		 M299.6,337.7L299.6,337.7l0,0.8l0,0c0,0.2,0,0.4,0,0.7l0,0v0.9c-0.2,0.2-0.5,0.5-0.7,0.7c0-1.2,0-2.5,0-4c0.2-0.3,0.5-0.5,0.7-0.8
		v1l0,0C299.6,337.2,299.6,337.5,299.6,337.7L299.6,337.7z M282.7,338.5v-0.8c0.2,0.3,0.5,0.6,0.8,0.9c0,0.3,0,0.6,0,0.8
		C283.2,339.1,282.9,338.8,282.7,338.5L282.7,338.5z M282.7,336.9v-1c0.3,0.5,0.7,0.9,1.1,1.2c0,0.3,0,0.6,0,1
		C283.3,337.7,283,337.3,282.7,336.9L282.7,336.9z"/>
	<path class="st50" d="M276.6,359.5c-2.2,1.2-4.7,1.8-7.2,1.7c-2.5,0.1-5-0.5-7.2-1.7c-2-1.1-3-2.5-3-4.1s1-3,3-4.1
		c2.2-1.2,4.7-1.8,7.2-1.7c2.5-0.1,5,0.5,7.2,1.7c2,1.1,3,2.5,3,4.1S278.6,358.4,276.6,359.5z"/>
	
		<linearGradient id="SVGID_4_" gradientUnits="userSpaceOnUse" x1="555.2148" y1="131.6221" x2="568.8461" y2="131.6221" gradientTransform="matrix(1.26 0 0 -0.28 -439.1584 389.3957)">
		<stop  offset="0" style="stop-color:#F9EADD"/>
		<stop  offset="0.46" style="stop-color:#AA917B"/>
		<stop  offset="0.89" style="stop-color:#AA917B"/>
		<stop  offset="1" style="stop-color:#FCDDC0"/>
	</linearGradient>
	<rect x="259.7" y="350.1" class="st57" width="17" height="4.9"/>
	
		<linearGradient id="SVGID_5_" gradientUnits="userSpaceOnUse" x1="676.046" y1="-364.6617" x2="683.8757" y2="-356.8275" gradientTransform="matrix(1.09 0.63 1.09 -0.63 -79.9396 -300.1876)">
		<stop  offset="0" style="stop-color:#F9EADD"/>
		<stop  offset="0.46" style="stop-color:#AA917B"/>
		<stop  offset="0.89" style="stop-color:#AA917B"/>
		<stop  offset="1" style="stop-color:#FCDDC0"/>
	</linearGradient>
	<path class="st58" d="M274.3,358.9c-1.8,1-3.9,1.5-6,1.4c-2.1,0.1-4.2-0.4-6-1.4c-1.7-1-2.5-2.1-2.5-3.5c0-1.4,0.8-2.5,2.5-3.5
		c1.8-1,3.9-1.5,6-1.4c2.1-0.1,4.2,0.4,6,1.4c1.7,1,2.5,2.1,2.5,3.5C276.8,356.8,275.9,358,274.3,358.9z"/>
	<path class="st59" d="M274.3,353.5c-1.8,1-3.9,1.5-6,1.4c-2.1,0.1-4.2-0.4-6-1.4c-1.7-1-2.5-2.1-2.5-3.5c0-1.4,0.8-2.5,2.5-3.5
		c1.8-1,3.9-1.5,6-1.4c2.1-0.1,4.2,0.4,6,1.4c1.7,1,2.5,2.1,2.5,3.5C276.8,351.3,275.9,352.5,274.3,353.5z"/>
	<path class="st60" d="M272,352.3c-1.2,0.6-2.5,0.9-3.8,0.9c-1.3,0-2.6-0.3-3.8-0.9c-1-0.6-1.6-1.3-1.6-2.2s0.5-1.6,1.6-2.2
		c1.2-0.6,2.5-0.9,3.8-0.9c1.3,0,2.6,0.3,3.8,0.9c1,0.6,1.6,1.3,1.6,2.2S273.1,351.7,272,352.3z"/>
	
		<linearGradient id="SVGID_6_" gradientUnits="userSpaceOnUse" x1="412.1786" y1="-536.0425" x2="420.0128" y2="-528.2084" gradientTransform="matrix(0.61 0.35 0.61 -0.35 338.0477 18.2116)">
		<stop  offset="0" style="stop-color:#92643E"/>
		<stop  offset="0.26" style="stop-color:#B68156"/>
		<stop  offset="0.79" style="stop-color:#DFB080"/>
	</linearGradient>
	<path class="st61" d="M271.6,352c-1,0.6-2.2,0.8-3.4,0.8c-1.2,0-2.3-0.2-3.4-0.8c-0.9-0.5-1.4-1.2-1.4-1.9s0.5-1.4,1.4-1.9
		c1-0.6,2.2-0.8,3.4-0.8c1.2,0,2.3,0.2,3.4,0.8c0.9,0.5,1.4,1.2,1.4,1.9S272.5,351.5,271.6,352z"/>
	<path class="st62" d="M268,328.6L268,328.6L268,328.6z M258.7,322.1c0.4,0.2,0.9,0.5,1.2,0.7l12.8,6l3.8,2.3l-2.2,2.8v3.7l0.7,0.3
		c0.4,0.2,0.6,0.6,0.4,1c0,0.1-0.1,0.2-0.1,0.3c-0.1,0.1-0.1,0.1-0.2,0.2l-0.3,0.2c-1.1,0.6-2.2,1.1-3.3,1.7
		c-0.5,0.2-1.1,0.4-1.6,0.4c-0.5,0-1.1,0-1.6-0.2l-3.5,0.4l-0.3,0.4l-5.2,1.5l-0.3-0.2l-1.5,0.2l-2.5-1.6l-1.8,0.4
		c-0.4,0.8-1.2,1.2-2.5,1.3c-0.4,0.9-1.2,1.3-2.5,1.3c-0.5,0.9-1.4,1.4-2.4,1.3c-0.2,0.2-0.4,0.5-0.6,0.6c-0.2,0.2-0.5,0.3-0.7,0.2
		c-0.4,0-0.7-0.2-1.1-0.4c-0.4-0.2-0.7-0.5-1-0.8c-0.1-0.1-0.1-0.1-0.1-0.2c-0.3-0.4-0.6-0.8-0.8-1.3c-0.1-0.2-0.2-0.5-0.2-0.8
		c0-0.1,0-0.3,0-0.4c0-0.3,0.1-0.6,0.3-0.8c0.4-0.4,0.9-0.8,1.4-1l1.3-0.7c0.4-0.2,0.8-0.4,1.2-0.6l1.3-0.7c0.4-0.2,0.8-0.4,1.2-0.6
		l1.3-0.7c0.4-0.2,0.8-0.4,1.2-0.6c0.3-0.2,0.7-0.4,1-0.5l0,0v-1.1c-0.1,0-0.2,0-0.4-0.1c-0.6-0.2-1.1-0.4-1.6-0.6
		c-0.5-0.2-0.9-0.5-1.3-0.8c-0.3-0.3-0.7-0.6-0.9-1c-0.2-0.3-0.4-0.7-0.6-1v-6.8c0-0.4,0-0.7,0.1-1.1c0.1-0.4,0.3-0.7,0.5-1
		c0.3-0.4,0.6-0.7,1-1c0.4-0.3,0.9-0.6,1.4-0.8c0.5-0.2,1.1-0.4,1.7-0.6c0.6-0.1,1.2-0.2,1.9-0.3c0.6,0,1.3,0,1.9,0
		c0.6,0.1,1.3,0.2,1.9,0.3C257.6,321.6,258.2,321.8,258.7,322.1z M255,323.3L255,323.3L255,323.3L255,323.3z"/>
	
		<linearGradient id="SVGID_7_" gradientUnits="userSpaceOnUse" x1="-150.9722" y1="465.2089" x2="-108.4315" y2="465.2089" gradientTransform="matrix(0.35 0 0 -0.35 295.3861 491.9226)">
		<stop  offset="0" style="stop-color:#F9EADD"/>
		<stop  offset="0.46" style="stop-color:#AA917B"/>
		<stop  offset="0.89" style="stop-color:#AA917B"/>
		<stop  offset="1" style="stop-color:#FCDDC0"/>
	</linearGradient>
	<path class="st63" d="M248.4,330.8l-1,0.9v2.5c-0.1,0-0.2,0-0.4-0.1c-0.6-0.2-1.1-0.4-1.6-0.6c-0.5-0.2-0.9-0.5-1.3-0.8
		c-0.3-0.3-0.7-0.6-0.9-1c-0.2-0.3-0.4-0.7-0.6-1v-6.8c0.2,0.4,0.3,0.7,0.6,1c0.2,0.4,0.5,0.7,0.9,1c0.4,0.3,0.9,0.6,1.3,0.8
		c0.5,0.2,1.1,0.4,1.7,0.6c0.3,0.1,0.6,0.1,0.8,0.2l0.7,3L248.4,330.8z M257.5,327l0,3.4c-0.5,0.2-1.1,0.3-1.6,0.3
		c-0.5,0-1-0.1-1.5-0.3c-0.3-0.1-0.5-0.2-0.8-0.4c-0.2-0.1-0.4-0.3-0.5-0.5c-0.1-0.1-0.1-0.2-0.1-0.3c-0.2-0.6-0.3-1.1-0.4-1.7
		c0.1,0,0.2,0,0.3-0.1c0.6-0.2,1.1-0.4,1.7-0.6c0.5-0.2,0.9-0.4,1.3-0.7L257.5,327z"/>
	<path class="st59" d="M268.7,326.9l-0.1,0.2l-12.1-5.7c0.2,0.2,0.3,0.4,0.4,0.6c0.2,0.3,0.4,0.7,0.6,1c0.2,0.4,0.2,0.9,0,1.3
		l-1.3-0.6c0-0.4-0.1-0.9-0.3-1.2c-0.2-0.3-0.4-0.6-0.6-0.9c-0.1-0.1-0.2-0.2-0.3-0.2c-0.3-0.2-0.6-0.4-0.9-0.6
		c-0.1,0-0.1-0.1-0.2-0.1c-0.5-0.2-0.9-0.3-1.4-0.4c-0.5-0.1-1-0.2-1.6-0.2c-0.5-0.1-1.1-0.1-1.6,0c-0.5,0-1.1,0.1-1.6,0.2
		c-0.5,0.1-1,0.3-1.4,0.4c-0.4,0.2-0.8,0.4-1.2,0.6c-0.3,0.2-0.5,0.4-0.8,0.7l-0.1,0.1l-0.1,0.1l-0.3,0.6l-0.1,0.2
		c-0.1,0.3-0.1,0.6,0,0.9c0,0,0,0.1,0,0.1c0.1,0.3,0.3,0.5,0.4,0.8c0.1,0.2,0.2,0.3,0.4,0.4c0.1,0.1,0.3,0.2,0.4,0.3
		c0.4,0.3,0.7,0.5,1.2,0.7c0.5,0.2,1,0.4,1.5,0.6l0.2,0.8c-0.3,0-0.6-0.1-0.8-0.2c-0.6-0.2-1.1-0.4-1.7-0.6
		c-0.5-0.2-0.9-0.5-1.3-0.8c-0.3-0.3-0.7-0.6-0.9-1c-0.2-0.3-0.4-0.7-0.6-1c0-0.4,0.1-0.7,0.2-1.1c0.1-0.4,0.3-0.7,0.5-1
		c0.3-0.4,0.6-0.7,1-1c0.4-0.3,0.9-0.6,1.4-0.8c0.5-0.2,1.1-0.4,1.7-0.6c0.6-0.1,1.2-0.2,1.9-0.3c0.6,0,1.3,0,1.9,0
		c0.6,0.1,1.3,0.2,1.9,0.3c0.6,0.1,1.1,0.3,1.7,0.6c0.4,0.2,0.9,0.5,1.2,0.7L268.7,326.9z M269.5,331.9l0,5.2l-0.3,0.2v-6l0.2-0.1
		L269.5,331.9z M252.3,326.8c0.5-0.2,0.9-0.3,1.4-0.5c0.4-0.2,0.7-0.3,1.1-0.5l1,0.4c-0.4,0.2-0.9,0.5-1.3,0.7
		c-0.6,0.2-1.1,0.4-1.7,0.6c-0.1,0-0.2,0.1-0.3,0.1L252.3,326.8z"/>
	
		<linearGradient id="SVGID_8_" gradientUnits="userSpaceOnUse" x1="-114.3857" y1="476.7147" x2="-144.6994" y2="476.7147" gradientTransform="matrix(0.35 0 0 -0.35 295.3861 491.9226)">
		<stop  offset="0" style="stop-color:#92643E"/>
		<stop  offset="0.26" style="stop-color:#B68156"/>
		<stop  offset="0.79" style="stop-color:#DFB080"/>
	</linearGradient>
	<path class="st64" d="M244.6,323.4c0,0.3,0.1,0.5,0.2,0.8c0.1,0.3,0.3,0.5,0.5,0.8c0.2,0.3,0.5,0.5,0.8,0.6c0.5,0.3,1,0.5,1.4,0.7
		l0.1,0.5c-0.5-0.2-1-0.4-1.5-0.6c-0.4-0.2-0.8-0.4-1.1-0.6c-0.1-0.1-0.3-0.2-0.4-0.3L244.6,323.4z M254.8,325.7
		c-0.4,0.2-0.7,0.4-1.1,0.5c-0.5,0.2-0.9,0.4-1.4,0.5l-0.1-0.4c0.2,0,0.3-0.1,0.4-0.1c0.4-0.1,0.8-0.3,1.2-0.5
		c0.1-0.1,0.3-0.2,0.4-0.3L254.8,325.7z"/>
	<path class="st65" d="M244.7,323.1l-0.1,0.2v1.9c-0.1-0.1-0.3-0.3-0.4-0.4c-0.2-0.2-0.3-0.5-0.4-0.8c0,0,0-0.1,0-0.1
		c-0.1-0.3-0.1-0.6,0-0.9L244.7,323.1z M254.1,320.8l-0.6,0.2c-0.2-0.1-0.3-0.2-0.5-0.2c-0.4-0.1-0.9-0.2-1.3-0.3
		c-0.5-0.1-0.9-0.1-1.4-0.1c-0.5,0-0.9,0-1.4,0.1c-0.4,0.1-0.9,0.2-1.3,0.3c-0.4,0.1-0.8,0.3-1.1,0.5c-0.4,0.2-0.8,0.5-1.1,0.8
		l-0.9-0.1l0,0c0.2-0.2,0.5-0.5,0.8-0.7c0.4-0.3,0.8-0.5,1.2-0.7c0.5-0.2,0.9-0.3,1.4-0.4c0.5-0.1,1-0.2,1.6-0.2c0.5,0,1.1,0,1.6,0
		c0.5,0,1,0.1,1.6,0.2c0.5,0.1,0.9,0.3,1.4,0.4C254,320.7,254,320.7,254.1,320.8L254.1,320.8z M256.2,323.7l-0.7-0.3
		c0-0.4-0.2-0.8-0.4-1.1c-0.1-0.1-0.2-0.3-0.3-0.4l0.4-0.3c0.2,0.3,0.5,0.6,0.6,0.9C256.1,322.8,256.2,323.3,256.2,323.7z
		 M264.5,326.7c-0.1-0.1-0.3-0.2-0.5-0.2c-0.2,0-0.4,0-0.6,0.2h-0.9l-5.1-2.4c0.2-0.4,0.2-0.9,0-1.3c-0.2-0.4-0.3-0.7-0.6-1
		c-0.1-0.2-0.3-0.4-0.4-0.6l12.1,5.7l-0.4,0.6c-0.9-0.3-1.8-0.6-2.7-0.9c-0.2-0.1-0.4-0.1-0.7-0.1L264.5,326.7z M257.4,330.4l0-3.4
		c1,0.5,2.1,1,3.1,1.5c0.2,0.1,0.3,0.2,0.4,0.4l0,0.1c-0.1,0.3-0.4,0.5-0.7,0.6L257.4,330.4z"/>
	<path class="st66" d="M272.5,322.5l-3.1,4l-1,1.3l-0.3-0.1l0.4-0.6l0.1-0.2l3.5-4.5L272.5,322.5z M244.6,323.4l0.1-0.2l0.6-1.1
		c0.4-0.3,0.7-0.5,1.1-0.8c0.4-0.2,0.7-0.4,1.1-0.5c0.4-0.1,0.9-0.2,1.3-0.3c0.5-0.1,0.9-0.1,1.4-0.1c0.5,0,0.9,0.1,1.4,0.1
		c0.4,0.1,0.9,0.2,1.3,0.3c0.2,0.1,0.3,0.1,0.5,0.2l1.3,0.9c0.1,0.1,0.2,0.2,0.3,0.4c0.2,0.3,0.3,0.7,0.4,1.1
		c-1.2-0.6-2.4-1.1-3.7-1.6c-0.3-0.1-0.6-0.2-0.8-0.3l-0.1-0.1l0.1,0.1c0.1,0.1,0.1,0.3,0,0.4c0,0-0.1,0-0.1,0.1
		c-0.1,0.1-0.2,0.1-0.3,0.2c-0.1,0-0.3,0.1-0.4,0.1c-0.3,0-0.6-0.1-0.7-0.4c0-0.1,0-0.1,0-0.2c0-0.1,0.1-0.1,0.1-0.2l0,0h0
		c-0.8,0.1-1.5,0.4-2.1,1c-0.2,0.2-0.3,0.4-0.4,0.6v0c0,0,0,0.1,0,0.1v0.2l0.6,2.9c-0.5-0.2-1-0.4-1.4-0.7c-0.3-0.2-0.6-0.4-0.8-0.6
		c-0.2-0.2-0.4-0.5-0.5-0.8C244.8,323.9,244.7,323.6,244.6,323.4z M249.9,331.3l2.6,1.6l0.1,0.1l1.4,0.9l1.3,0.8l-0.2,0.4l-6.7-4.2
		l0.2-0.3l0.1-0.1L249.9,331.3z M263.4,326.7c0.2-0.1,0.4-0.2,0.6-0.2c0.2,0,0.4,0.1,0.5,0.2l0.1,0.1c0,0.1,0.1,0.1,0.1,0.2
		c0,0.2-0.2,0.3-0.4,0.4c-0.3,0.1-0.7,0-0.9-0.2c-0.1,0-0.1-0.1-0.1-0.2C263.3,326.8,263.4,326.7,263.4,326.7z M249.3,321.9
		c0.1,0,0.1,0,0.2,0c0.2,0.1,0.4,0.2,0.5,0.4v0.5l-0.7-0.4L249.3,321.9z M250.6,321.4l-0.2-0.1h-0.1h-0.1l-0.2,0l-0.1,0l-0.1,0.1
		l-0.1,0.1l0,0.1v0.1l0,0.1l0.1,0.1l0.1,0l0.3,0l0.3,0l0.1,0l0.1-0.1l0.1-0.1l0-0.1v-0.1L250.6,321.4L250.6,321.4L250.6,321.4z
		 M266.8,329.8c0,0.2-0.2,0.3-0.4,0.4c-0.3,0.1-0.7,0-0.9-0.2c0-0.1-0.1-0.1-0.1-0.2c0.1-0.1,0.2-0.2,0.3-0.3
		c0.1-0.1,0.3-0.1,0.4-0.1c0.2,0,0.4,0.1,0.6,0.3C266.8,329.6,266.8,329.7,266.8,329.8z M263.9,326.7L263.9,326.7v0.1v0.1h0.1
		L263.9,326.7L263.9,326.7l0.1,0h0.1l0.2,0l-0.2-0.1l0,0v-0.1h-0.1v0.1L263.9,326.7L263.9,326.7l-0.3,0v0.1L263.9,326.7L263.9,326.7
		z M254.2,325.5c-0.1,0.1-0.3,0.2-0.4,0.3c-0.4,0.2-0.8,0.3-1.2,0.5c-0.1,0.1-0.3,0.1-0.4,0.1l-0.2-1l0,0c0.1-0.1,0.1-0.1,0.2-0.1
		c0.1-0.1,0.3-0.1,0.4-0.2c0.1,0,0.3,0,0.4,0C253.5,325.2,253.8,325.3,254.2,325.5z M259.5,332.2L259.5,332.2v0.1v0.1h0.1
		L259.5,332.2L259.5,332.2l0.1,0h0.1l0.2,0l-0.3-0.1l0,0V332h-0.1v0.1L259.5,332.2l-0.3,0v0L259.5,332.2L259.5,332.2z M260.3,332.4
		L260.3,332.4c-0.1,0.2-0.2,0.3-0.4,0.4c-0.2,0.1-0.5,0.1-0.7,0c-0.1,0-0.2-0.1-0.2-0.2c-0.1,0-0.1-0.1-0.1-0.2
		c0.1-0.3,0.4-0.4,0.7-0.4c0.2,0,0.4,0.1,0.6,0.3C260.2,332.2,260.3,332.3,260.3,332.4z M266,329.6v0.1v0.1h0.1L266,329.6L266,329.6
		l0.1,0h0.1l0.2,0l-0.3-0.1L266,329.6l0.1-0.2h0L266,329.6L266,329.6L266,329.6l-0.3,0v0L266,329.6L266,329.6L266,329.6z"/>
	<path class="st67" d="M245.3,322l-0.6,1.1l-0.8-0.1l0.1-0.2l0.3-0.6l0.1-0.1l0.1-0.1L245.3,322z M255.3,321.6l-0.4,0.3l-1.3-0.9
		l0.6-0.2c0.3,0.2,0.6,0.4,0.9,0.6C255.1,321.4,255.2,321.5,255.3,321.6L255.3,321.6z M270.4,328.6l-1-2.2l3.1-4v6.8l-1.1,1.4
		l-0.2-0.4l0.1-0.1c0.1-0.1,0.1-0.2,0.1-0.2c0-0.2,0.1-0.4,0-0.5l0,0c0-0.1,0-0.1-0.1-0.2c0-0.1-0.1-0.1-0.2-0.2L270.4,328.6z
		 M251,321.4l0.2,0.2c-0.1,0.1-0.2,0.2-0.2,0.3l-0.1,0.2c-0.2-0.1-0.5-0.1-0.7,0l-0.3,0.1c-0.1-0.2-0.3-0.3-0.5-0.4
		c-0.1,0-0.1,0-0.2,0l0.2-0.5l0,0l0.1,0l0,0c0,0-0.1,0.1-0.1,0.2c0,0.1,0,0.1,0,0.2c0.1,0.3,0.4,0.5,0.7,0.4c0.1,0,0.3-0.1,0.4-0.1
		c0.1,0,0.2-0.1,0.3-0.2C251.1,321.9,251.1,321.7,251,321.4C251,321.5,251,321.5,251,321.4L251,321.4z M269.3,337.3v0.3
		c0,0.2-0.1,0.3-0.2,0.4c-0.2,0.3-0.5,0.6-0.9,0.8c-0.5,0.3-0.9,0.4-1.4,0.6c-0.3,0.1-0.6,0.1-0.8,0.1c-0.3,0-0.6,0-0.9-0.1
		c-0.1,0-0.2,0-0.3-0.1v-5.6c0.8-0.1,1.5-0.2,2.1-0.2c0.3,0,0.5-0.1,0.8-0.2c0.4-0.2,0.9-0.4,1.2-0.7c0.2-0.2,0.4-0.4,0.5-0.6V337.3
		z M248.4,330.8l6.7,4.2v6.6h0l-1.5,0.2l-2.6-1.6c0.6-0.2,1.1-0.4,1.7-0.7c0.2-0.1,0.4-0.3,0.5-0.5c0.1-0.3,0.1-0.7,0-1
		c-0.1-0.5-0.3-0.9-0.6-1.3c-0.1-0.2-0.2-0.4-0.4-0.6l-0.2-0.2l0,0l0,0l-0.5-0.4l-0.1-0.1l0,0c-1.8-1.4-2.8-1.8-3.2-1.1l-0.9,1v-3.6
		L248.4,330.8z M263.9,326.7L263.9,326.7L263.9,326.7L263.9,326.7l-0.3,0v-0.1L263.9,326.7L263.9,326.7l0-0.1v-0.1h0.1v0.1l0,0
		l0.3,0.1l-0.2,0h-0.1l0,0v0v0.2h-0.1v-0.1L263.9,326.7z M259.5,332.2L259.5,332.2L259.5,332.2L259.5,332.2l-0.3,0v-0.1L259.5,332.2
		l0-0.1V332h0.1v0.1l0,0l0.3,0.1l-0.2,0h-0.1l0,0v0v0.2h-0.1v-0.1L259.5,332.2z M266.1,329.8L266.1,329.8v-0.2l0,0l0,0H266l-0.2,0v0
		l0.2,0h0.1l0,0v-0.1h0.1v0.1l0,0l0.3,0.1l-0.2,0h-0.1h0v0v0.2L266.1,329.8z"/>
	<path class="st68" d="M255.5,323.4l0.7,0.3l1.3,0.6l5.1,2.4h0.9c-0.1,0.1-0.1,0.1-0.1,0.2v0.3c0,0.1,0.2,0.3,0.4,0.3
		c0.2,0.1,0.5,0,0.7,0c0.2-0.1,0.3-0.2,0.3-0.3c0-0.1,0-0.2,0-0.2c0-0.1-0.1-0.1-0.1-0.2l-0.1-0.1h0.3c0.2,0,0.4,0.1,0.6,0.1
		c0.9,0.3,1.8,0.6,2.7,0.9l0.3,0.1c0.7,0.3,1.4,0.5,2.1,0.8l0.7,0.3c0.1,0,0.1,0.1,0.2,0.2c0,0.1,0.1,0.1,0.1,0.2c0,0.1,0,0.2,0,0.3
		c0,0.1-0.1,0.2-0.1,0.2c0,0.1-0.1,0.1-0.1,0.1l-0.1,0.1c-0.2,0.1-0.5,0.3-0.7,0.4l-1.1,0.6c-0.1,0.2-0.2,0.3-0.4,0.5
		c-0.4,0.3-0.8,0.5-1.2,0.7c-0.3,0.1-0.5,0.2-0.8,0.2c-0.5,0-1.1,0-1.6,0l-0.4,0.1l-9.4,2.1v0l-1.3-0.8l5-1.1
		c0.1,0.1,0.2,0.2,0.4,0.2c0.2,0.1,0.5,0,0.7-0.1c0.2-0.1,0.3-0.2,0.3-0.3c0-0.1,0-0.1,0-0.2l4.8-1.1c1.5,0.3,2.4,0,2.8-0.8l0-0.1
		c0-0.2-0.1-0.5-0.2-0.7c-0.1-0.1-0.2-0.3-0.3-0.3c-0.3-0.2-0.6-0.3-0.9-0.3c-0.3-0.1-0.6-0.1-0.9,0c-0.3,0-0.5,0.2-0.8,0.3
		c-0.2,0.1-0.3,0.3-0.4,0.4c0,0.1-0.1,0.1-0.1,0.2l-11.7,2.6l-1.7-9c-0.3,0.2-0.6,0.2-1,0.2c-0.3,0-0.5-0.1-0.8-0.2
		c-0.2-0.1-0.5-0.3-0.7-0.4l0.1,0.3l1.4,7.7l-1.3-0.8L247,323v0c0.1-0.2,0.3-0.5,0.4-0.6c0.6-0.6,1.3-0.9,2.1-1l-0.1,0l0,0l-0.2,0.5
		v0.5l0.7,0.4l1-0.1l0.3-0.6v-0.6l-0.2-0.2c0.3,0.1,0.6,0.2,0.8,0.3C253.1,322.3,254.3,322.8,255.5,323.4z M255.3,341.9v-0.3
		l5.2-1.5l0-0.1l0.2,0l-0.3,0.4L255.3,341.9z M252.5,327.5c0.1,0.6,0.3,1.1,0.4,1.7c0,0.1,0.1,0.2,0.1,0.3c0.1,0.2,0.3,0.4,0.5,0.5
		c0.2,0.2,0.5,0.3,0.8,0.4c0.5,0.2,1,0.3,1.5,0.3c0.6,0,1.1-0.1,1.6-0.3l3-0.8c0.3-0.1,0.6-0.3,0.7-0.6l0-0.1l0-0.1
		c-0.1-0.2-0.3-0.4-0.5-0.5c-1.1-0.5-2.1-1-3.1-1.5l-3.2-1.5c-0.4-0.2-0.7-0.3-1.1-0.4c-0.1,0-0.3-0.1-0.4,0c-0.1,0-0.3,0.1-0.4,0.2
		c-0.1,0.1-0.2,0.1-0.2,0.2l0,0.2l0,0l0.2,1l0.1,0.4L252.5,327.5z"/>
	<polygon class="st69" points="260.6,340.1 260.6,340.1 255.3,341.6 255.3,338.4 258.1,338.7 258.1,340.4 	"/>
	<path class="st70" d="M247.4,335.4l0.9-1c0.4-0.7,1.5-0.3,3.2,1.1c0.2,0.4,0.3,0.9,0.4,1.4c0,0,0,0.1,0,0.3c0,0.2-0.1,0.4-0.1,0.5
		c-0.2,0.5-0.4,0.8-0.8,0.8c-0.1,0-0.2-0.1-0.2-0.3c-0.1-0.3-0.1-0.5-0.2-0.7c-0.1-0.6-0.7-1-1.3-1c-0.2,0-0.3,0-0.4,0.1
		c-0.1,0.1-0.1,0.1-0.1,0.2c0,0,0,0.3,0.1,0.9c0,0.6,0.1,0.8,0.1,0.9c0,0.3,0,0.6-0.1,0.9c-0.1,0.4-0.2,0.7-0.4,0.8
		c-0.1,0-0.1-0.1-0.1-0.2c0-0.1,0-0.1,0-0.2c0.1-0.4,0.1-0.8,0-1.2c-0.1-0.7-0.5-1.1-1.2-1.1c-0.3,0-0.6,0.5-0.7,1.5l-0.2,1.2
		c0,0.3-0.1,0.6-0.3,0.9h-0.4c-0.1-0.2-0.2-0.4-0.2-0.6c-0.1-0.3-0.1-0.6-0.2-0.7c-0.2-0.6-0.5-0.9-0.9-0.9c-0.3,0-0.6,0.2-0.7,0.6
		c-0.1,0.2-0.1,0.4-0.1,0.7c0,0,0,0.2,0,0.4c0,0.3,0,0.6,0,1c-0.1,0.9-0.4,1.4-1,1.3c-0.1,0-0.3-0.1-0.4-0.3c0-0.1-0.2-0.3-0.4-0.8
		c-0.4-0.7-0.7-1.1-1.1-1.1c-0.4,0-0.6,0.1-0.6,0.3c0,0.1-0.1,0.3,0,0.4v0c-0.2-0.2-0.5-0.4-0.8-0.5c-0.1,0-0.3,0-0.4-0.1
		c-0.1,0-0.2,0-0.3,0c-0.4,0.3-0.5,0.7-0.4,1.3c-0.1-0.1-0.3-0.2-0.4-0.3l0,0c0-0.2,0-0.3,0-0.5c0-0.3,0.1-0.6,0.3-0.8
		c0.4-0.4,0.9-0.8,1.4-1c0.4-0.2,0.8-0.5,1.2-0.7l1.2-0.6l1.3-0.7c0.4-0.2,0.8-0.4,1.2-0.6l1.3-0.7l1.2-0.6
		C246.7,335.7,247,335.6,247.4,335.4L247.4,335.4z"/>
	<path class="st71" d="M251.5,335.5L251.5,335.5L251.5,335.5l0.6,0.5l0,0l0,0l0.2,0.2c0.1,0.2,0.3,0.4,0.4,0.6
		c0.3,0.4,0.4,0.9,0.6,1.3c0.1,0.3,0.1,0.7,0,1c-0.1,0.2-0.3,0.4-0.5,0.5c-0.5,0.3-1.1,0.5-1.6,0.7l-1.8,0.4
		c-0.4,0.8-1.2,1.2-2.5,1.3c-0.4,0.9-1.2,1.3-2.4,1.3c-0.5,0.9-1.4,1.4-2.4,1.3l0,0c-0.2,0.2-0.4,0.4-0.6,0.6
		c-0.2,0.2-0.5,0.2-0.7,0.2c-0.4,0-0.7-0.2-1.1-0.4c-0.4-0.2-0.7-0.5-1-0.8l-0.1-0.2c-0.3-0.4-0.6-0.8-0.8-1.3
		c-0.1-0.2-0.2-0.5-0.2-0.8l0,0c0.2,0.1,0.3,0.2,0.4,0.3h0l0,0.1l0.4,0.9c0.2,0.3,0.4,0.5,0.7,0.8c0.4,0.5,1.1,0.8,1.7,0.8
		c0.1-0.1,0.2-0.1,0.2-0.2c0.1-0.2,0.2-0.3,0.3-0.5c0-0.1,0-0.1,0-0.2c0-0.2-0.1-0.5-0.2-0.7c0-0.1-0.1-0.2-0.1-0.2
		c-0.2-0.4-0.3-0.7-0.6-1c-0.1-0.1-0.1-0.2-0.2-0.3c-0.1-0.1-0.1-0.1-0.2-0.2l0,0v0c0-0.2,0-0.3,0-0.4c0.1-0.2,0.3-0.3,0.6-0.3
		c0.3,0,0.7,0.4,1.1,1.1c0.2,0.4,0.4,0.7,0.4,0.8c0.1,0.2,0.3,0.3,0.4,0.3c0.6,0,0.9-0.4,1-1.3c0-0.3,0-0.6,0-1c0-0.3,0-0.4,0-0.4
		c0-0.2,0-0.5,0.1-0.7c0.1-0.3,0.3-0.5,0.6-0.5c0.4,0,0.7,0.3,0.9,0.9c0,0.2,0.1,0.4,0.2,0.7c0,0.2,0.1,0.4,0.3,0.6h0.4
		c0.2-0.3,0.3-0.6,0.3-0.9l0.2-1.2c0.2-1,0.4-1.5,0.7-1.5c0.7,0,1.1,0.4,1.2,1.1c0.1,0.4,0.1,0.8,0,1.2c0,0.1,0,0.1,0,0.2
		c0,0.1,0.1,0.1,0.1,0.2c0.1-0.1,0.3-0.3,0.4-0.8c0.1-0.3,0.1-0.6,0.1-0.9c0,0,0-0.3-0.1-0.9c0-0.6-0.1-0.8-0.1-0.9
		c0-0.1,0-0.2,0.1-0.2c0.1-0.1,0.3-0.1,0.4-0.1c0.6,0,1.1,0.4,1.3,1c0.1,0.2,0.1,0.4,0.2,0.7c0.1,0.2,0.1,0.3,0.2,0.3
		c0.3,0,0.6-0.3,0.8-0.8c0.1-0.2,0.1-0.4,0.1-0.5c0-0.2,0-0.2,0-0.3C251.8,336.4,251.7,336,251.5,335.5z"/>
	<path class="st72" d="M255.3,341.6v0.3l-0.3-0.2h0v-6.6l0.2-0.4V341.6z M269.4,326.4l1,2.2c-0.7-0.3-1.4-0.6-2.1-0.8L269.4,326.4z
		 M250.9,322.8l-1,0.1v-0.5l0.3-0.1c0.2-0.1,0.5-0.1,0.7,0L250.9,322.8z M250.6,321.4L250.6,321.4L250.6,321.4l0.1,0.1v0.1l0,0.1
		l-0.1,0.1l-0.1,0.1l-0.1,0l-0.3,0l-0.2,0l-0.1,0l-0.1-0.1l0-0.1v-0.1l0-0.1l0.1-0.1l0.1-0.1l0.1,0l0.2,0h0.1h0.1L250.6,321.4z
		 M258.1,335.2l6.6-1.5V333l0.4-0.1c0.5,0,1.1,0,1.6,0c0.3,0,0.5-0.1,0.8-0.2c0.4-0.2,0.8-0.4,1.2-0.7c0.2-0.1,0.3-0.3,0.4-0.5
		l0.1,0v0.7c-0.2,0.2-0.3,0.4-0.5,0.6c-0.4,0.3-0.8,0.5-1.2,0.7c-0.3,0.1-0.5,0.2-0.8,0.2c-0.5,0-1.2,0.1-2.1,0.2v5.6
		c0.1,0,0.2,0.1,0.3,0.1c0.3,0,0.6,0.1,0.9,0.1c0.3,0,0.6,0,0.8-0.1c0.5-0.1,1-0.3,1.4-0.6c0.4-0.2,0.7-0.5,0.9-0.8
		c0.1-0.1,0.2-0.3,0.2-0.4v-0.3l0.3-0.2l0-5.2l0.8-0.4v4.2l0.7,0.3c0.4,0.2,0.6,0.7,0.4,1.1c0,0.1-0.1,0.1-0.1,0.2
		c-0.1,0.1-0.1,0.1-0.2,0.2l-0.3,0.2c-1.1,0.6-2.2,1.1-3.3,1.7c-0.5,0.2-1.1,0.4-1.6,0.4c-0.5,0-1.1,0-1.6-0.2l-3.5,0.4l-0.2,0
		l-2.5,0.3L258.1,335.2L258.1,335.2z"/>
	<path class="st73" d="M258.9,332.3c0,0.1,0.1,0.1,0.1,0.2c0.1,0.1,0.2,0.1,0.2,0.2c0.2,0.1,0.5,0.1,0.7,0c0.1,0,0.3-0.1,0.3-0.3
		l0-0.1v0.1c0,0.1,0,0.1,0,0.2c0,0.1-0.1,0.1-0.3,0.3c-0.2,0.1-0.4,0.1-0.7,0.1c-0.1,0-0.3-0.1-0.4-0.2c0,0-0.1-0.1-0.1-0.1
		L258.9,332.3z M263.3,326.9c0,0.1,0.1,0.1,0.1,0.2c0.2,0.2,0.6,0.3,0.9,0.2c0.2,0,0.3-0.2,0.4-0.4c0,0.1,0,0.2,0,0.2
		c0,0.1-0.1,0.2-0.3,0.3c-0.2,0.1-0.5,0.1-0.7,0c-0.3-0.1-0.4-0.2-0.4-0.3L263.3,326.9z M250.9,322.2l0.1-0.2c0-0.1,0.1-0.2,0.2-0.3
		v0.6l-0.3,0.6V322.2z M265.4,329.7c0,0.1,0.1,0.1,0.1,0.2c0.2,0.2,0.6,0.3,0.9,0.2c0.2,0,0.3-0.2,0.4-0.4c0,0.1,0,0.2,0,0.2
		c0,0.1-0.1,0.2-0.3,0.3c-0.2,0.1-0.4,0.1-0.7,0.1c-0.3-0.1-0.4-0.2-0.4-0.3L265.4,329.7z"/>
	<path class="st74" d="M252.5,332.9l-2.6-1.6l-1.4-7.7c0.2,0.2,0.4,0.3,0.6,0.4c0.3,0.1,0.5,0.2,0.8,0.2c0.3,0,0.7,0,1-0.2l1.6,8.7
		L252.5,332.9z M258.9,332.3v0.3c0,0.1,0,0.1,0.1,0.1l-5,1.1l-1.4-0.9l11.7-2.6c0,0,0-0.1,0-0.1l0.8,1.1l-4.8,1.1v-0.1
		c0-0.1-0.1-0.1-0.1-0.2c-0.1-0.2-0.4-0.3-0.6-0.3C259.3,331.9,259,332.1,258.9,332.3L258.9,332.3z"/>
	<path class="st75" d="M248.6,330.5l-0.1,0.1l-0.6-3l-0.2-0.8l-0.1-0.5l-0.6-2.9v-0.2c0,0,0-0.1,0-0.1L248.6,330.5z M252.5,332.8
		l-1.6-8.7c-0.3,0.2-0.6,0.2-1,0.2c-0.3,0-0.5-0.1-0.8-0.2c-0.2-0.1-0.4-0.2-0.6-0.4l-0.1-0.3c0.2,0.2,0.4,0.3,0.7,0.4
		c0.3,0.1,0.5,0.2,0.8,0.2c0.3,0,0.7,0,1-0.2L252.5,332.8L252.5,332.8z M265.1,331.4l-0.7-1.2l0,0v-0.1c0-0.1,0-0.1,0.1-0.2
		c0.1-0.2,0.3-0.3,0.4-0.4c0.2-0.2,0.5-0.3,0.8-0.3c0.3-0.1,0.6-0.1,0.9,0c0.3,0.1,0.6,0.2,0.9,0.3c0.1,0.1,0.2,0.2,0.3,0.3
		c0.1,0.2,0.1,0.5,0.2,0.7l0,0.1C267.5,331.4,266.5,331.6,265.1,331.4L265.1,331.4z M265.4,329.7v0.3c0,0.1,0.2,0.3,0.4,0.3
		c0.2,0.1,0.5,0,0.7-0.1c0.2-0.1,0.3-0.2,0.3-0.3c0-0.1,0-0.2,0-0.2c0-0.1-0.1-0.1-0.1-0.2c-0.1-0.2-0.4-0.3-0.6-0.3
		c-0.2,0-0.3,0-0.4,0.1C265.5,329.5,265.5,329.6,265.4,329.7L265.4,329.7z M261.1,328.9c-0.1-0.2-0.3-0.3-0.4-0.4
		c-1.1-0.5-2.1-1-3.1-1.5l-1.7-0.8l-1-0.4l-0.6-0.3c-0.4-0.2-0.8-0.3-1.1-0.4c-0.1,0-0.3-0.1-0.4,0c-0.1,0-0.3,0.1-0.4,0.2
		c-0.1,0-0.1,0.1-0.2,0.1l0-0.2c0.1-0.1,0.2-0.1,0.2-0.2c0.1-0.1,0.3-0.1,0.4-0.2c0.1,0,0.3,0,0.4,0c0.4,0.1,0.8,0.3,1.1,0.4
		l3.2,1.5c1,0.5,2.1,1,3.1,1.5c0.2,0.1,0.4,0.3,0.5,0.5L261.1,328.9z"/>
	<path class="st76" d="M252.5,332.9l0-0.2h0l11.7-2.6v0.1l0,0c0,0,0,0.1,0,0.1l-11.6,2.7L252.5,332.9z M264.7,332.9l-6.6,1.5
		l-2.8,0.6v-0.3l9.4-2.1l0.4-0.1c0.5,0,1.1,0,1.6,0c0.3,0,0.5-0.1,0.8-0.2c0.4-0.2,0.8-0.4,1.2-0.7c0.2-0.1,0.3-0.3,0.4-0.5l1.1-0.6
		c0.2-0.1,0.5-0.3,0.7-0.4l0.1-0.1c0.1,0,0.1-0.1,0.1-0.1c0.1-0.1,0.1-0.2,0.1-0.2c0-0.1,0-0.2,0-0.3v0c0,0.2,0,0.4,0,0.5
		c0,0.1-0.1,0.2-0.1,0.2l-0.1,0.1c-0.1,0.1-0.1,0.1-0.2,0.2c-0.2,0.1-0.5,0.3-0.7,0.4l-0.8,0.4l-0.2,0.1l-0.1,0
		c-0.1,0.2-0.3,0.4-0.4,0.5c-0.4,0.3-0.8,0.5-1.2,0.7c-0.3,0.1-0.5,0.2-0.8,0.2c-0.5,0-1.1,0-1.6,0L264.7,332.9z"/>
	<path class="st77" d="M270.3,331.5l-0.8,0.4v-0.7l0.8-0.4L270.3,331.5z M258.1,334.4l6.6-1.4v0.7l-6.6,1.5V334.4z"/>
	<path class="st78" d="M270.3,331.5v-0.7c0.2-0.1,0.5-0.3,0.7-0.4c0.1,0,0.1-0.1,0.2-0.2l0.2,0.4l-1.1,1.4V331.5z"/>
</g>
</svg>
