<?xml version="1.0" encoding="utf-8"?>
<!-- Generator: Adobe Illustrator 22.0.1, SVG Export Plug-In . SVG Version: 6.00 Build 0)  -->
<svg version="1.1" id="Layer_1" xmlns="http://www.w3.org/2000/svg" xmlns:xlink="http://www.w3.org/1999/xlink" x="0px" y="0px"
	 viewBox="0 0 360 99.9" style="enable-background:new 0 0 360 99.9;" xml:space="preserve">
<style type="text/css">
	.st0{fill:#231F20;}
</style>
<title>logo</title>
<path class="st0" d="M43.5,55.9c-1.3,7.7-5.7,14.3-13.2,19.8C23.7,80.6,16,83.8,7.9,85c-0.2,0-0.5,0.1-0.8,0.1
	c-0.9,0-2.3-2.7-4.4-8.1s-3-8.6-2.8-9.7c0.1-0.4,0.4-0.7,1-0.8c3.9-0.7,7.7-1.8,11.5-3.2c4.3-2,6.8-4.9,7.4-8.8
	c0.4-2.5-0.4-5.2-2.4-8.2c-3.6-5.1-5.5-8-5.8-8.6c-1.9-4.1-2.5-8.7-1.6-13.1c1.2-6.9,5.4-12.7,12.6-17.3C29,3.5,36,1,43.3,0.1
	c0.4,0,0.8-0.1,1-0.1c0.6,0,0.9,0.5,1.1,1.4c1.1,5.1,2.5,10.1,4.2,15c0.1,0.2,0.1,0.4,0.1,0.6c0,0.6-0.5,1-1.1,1c0,0,0,0-0.1,0
	c-0.5,0-1-0.1-1.5-0.2c-0.5-0.1-1.1-0.2-1.6-0.2c-2.6,0-5.2,0.6-7.5,1.9c-2.5,1.1-4.2,3.4-4.8,6c-0.4,2.3,0.5,5.1,2.6,8.5
	c3.7,6,5.7,9.2,5.8,9.5C43.6,47.3,44.2,51.7,43.5,55.9z"/>
<path class="st0" d="M111.8,40.9l-7,39.2c0,1.1-0.9,2.1-2,2.2c-1.2,0.2-4,0.2-8.3,0.2c-2.9,0.1-5.8-0.1-8.6-0.4
	c-1.2-0.2-1.7-1-1.4-2.4c0.6-3.3,1.5-8.2,2.8-14.7c1.3-6.6,2.2-11.5,2.8-14.7c0.8-4.4-1.1-6.7-5.6-6.7c-2,0.1-3.9,0.8-5.7,1.8
	c-2.5,1.3-3.8,2.7-4.1,4.2l-2.5,14c-0.3,1.8-0.8,4.6-1.3,8.2s-1,6.4-1.3,8.3c-0.1,1.2-1,2.2-2.2,2.3c-1.2,0.2-4.5,0.2-9.9,0.2
	c-2.2,0.1-4.4-0.1-6.6-0.4c-1.3-0.3-1.9-1-1.7-2c0.5-3,1.3-7.5,2.4-13.5s1.9-10.5,2.4-13.5c2.2-12.4,3.8-22.6,5-30.7
	c0.4-2.8,0.8-5.7,1.2-8.5c0.4-2.8,0.5-5.6,0.5-8.5c0-0.4,0-0.7,0-1.1c0.1-0.6,0.5-1,1-1.1c1.7-0.4,3.5-0.6,5.3-0.6
	c3-0.1,4.8-0.2,5.3-0.3l10.5-1.2c0.6,0,0.8,0.4,0.7,1.2c-0.2,1.2-0.6,2.9-1.1,4.9c-0.6,2.4-0.9,4.1-1.1,4.9
	c-1.7,8.6-3,15.3-3.9,20.3c-0.1,0.8,0,1.1,0.4,1.1c0.1,0,1.2-0.7,3.2-2c2.2-1.4,4.6-2.7,7-3.7c2.8-1.2,5.9-1.9,9-2
	c4.8,0,8.7,1.3,11.5,3.8C111.6,32.4,112.7,36.2,111.8,40.9z"/>
<path class="st0" d="M139.4,56c-0.5,2.8-1.2,6.9-2,12.3c-0.8,5.5-1.5,9.6-2,12.3c-0.2,0.8-0.8,1.4-1.7,1.4c-2.9,0.3-5.8,0.4-8.8,0.3
	c-2.9,0.1-5.8,0-8.7-0.3c-0.8-0.2-1.3-0.4-1.4-0.7c0-0.6,0.1-1.1,0.2-1.7c0.5-2.6,1.2-6.5,2.2-11.8c1-5.2,1.8-9.2,2.2-11.9
	c1.6-8.5,2.7-17.1,3.3-25.7c0-0.4,0-0.8,0.1-1.2c0.1-0.8,0.7-1.1,1.7-1.1s2.6,0.1,4.8,0.3c2.1,0.2,3.8,0.3,4.9,0.3
	c1.1,0,2.8-0.1,5-0.3c2.2-0.2,3.9-0.3,5-0.3c0.9,0,1.3,0.4,1.2,1.1c0,0.1-0.1,0.5-0.3,1.1C142.9,38.8,140.9,47.4,139.4,56z
	 M148.4,13.8c-1.2,6.6-5.4,9.9-12.9,9.9c-2.7,0.2-5.4-0.7-7.4-2.5c-2-1.8-2.7-4.3-2.1-7.4c0.5-3,2.3-5.6,4.8-7.3
	c2.4-1.7,5.3-2.6,8.3-2.6c2.7-0.1,5.3,0.9,7.2,2.7C148.1,8.4,149,11.2,148.4,13.8L148.4,13.8z"/>
<path class="st0" d="M213.3,54.7c-1.2,7.7-5,14.8-10.7,20.2c-5.6,5.4-13.1,8.4-20.8,8.3c-3.1,0-6.2-0.8-9-2.2
	c-3.1-1.4-4.5-2.2-4.2-2.2c-0.5,0-0.8,0.6-1,1.7c-0.3,1.9-0.8,4.8-1.2,8.7c-0.5,3.9-0.9,6.8-1.3,8.7c-0.1,1.1-1.1,1.9-2.2,1.8
	c0,0,0,0,0,0l-11.6,0.1c-1.7,0.1-3.3,0-5-0.3c-0.9-0.1-1.5-0.9-1.4-1.8c0-0.1,0-0.2,0.1-0.3l7.8-43.7c1.4-7.4,2.1-14.8,1.9-22.3
	c0-0.3,0-0.7,0.1-1c0.1-0.5,0.4-1,0.9-1.1c2.9-0.8,5.8-1.5,8.8-1.8c3-0.5,6-0.9,9-1c1.5,0,2.1,1,2,2.9s-0.1,2.9,0.2,2.9
	c-0.4,0,1.4-1,5.4-3.1c4-2.1,7.4-3.1,10.4-3.1c8.2,0,14.3,2.7,18.3,8.1C213.6,39.5,214.7,46.4,213.3,54.7z M192.3,54.6
	c0.6-2.7,0.1-5.6-1.4-8c-1.5-2.3-4.1-3.7-6.9-3.5c-3,0-5.9,1.3-7.9,3.6c-2,2.2-3.3,5-3.8,8c-0.6,3.2-0.2,5.9,1.1,8
	c1.4,2.3,3.6,3.5,6.8,3.5C186.9,66.1,190.9,62.3,192.3,54.6L192.3,54.6z"/>
<path class="st0" d="M241.4,56c-0.5,2.8-1.2,6.9-2,12.3c-0.8,5.5-1.5,9.6-2,12.3c-0.2,0.8-0.8,1.4-1.7,1.4c-2.9,0.3-5.8,0.4-8.8,0.3
	c-2.9,0.1-5.8,0-8.7-0.3c-0.8-0.2-1.3-0.4-1.4-0.7c0-0.6,0.1-1.1,0.2-1.7c0.5-2.6,1.2-6.5,2.2-11.8c1-5.2,1.8-9.2,2.2-11.9
	c1.6-8.5,2.7-17.1,3.3-25.7c0-0.6,0-1,0.1-1.2c0.1-0.8,0.7-1.1,1.7-1.1c1,0,2.6,0.1,4.8,0.3c2.1,0.2,3.7,0.3,4.9,0.3s2.8-0.1,5-0.3
	c2.2-0.2,3.9-0.3,5-0.3c0.9,0,1.3,0.4,1.2,1.1c0,0.1-0.1,0.5-0.3,1.1C244.9,38.8,242.9,47.4,241.4,56z M250.4,13.8
	c-1.2,6.6-5.5,9.9-12.9,9.9c-2.7,0.2-5.4-0.7-7.4-2.5c-2-1.8-2.7-4.3-2.1-7.4c0.5-3,2.3-5.6,4.8-7.3c2.4-1.7,5.3-2.6,8.3-2.6
	c2.7-0.1,5.3,0.9,7.2,2.7C250.1,8.4,251,11.2,250.4,13.8L250.4,13.8z"/>
<path class="st0" d="M288.7,65.4c-0.4,1.7-0.8,3.5-1.3,5.2c-0.5,1.7-1,3.4-1.3,5.1c-0.1,0.7-0.3,1.4-0.7,2.1
	c-0.6,0.5-1.4,0.9-2.1,1.3c-5.3,2.7-11.1,4-17,4c-10.9,0-15.7-4.2-14.2-12.6c0.4-2.5,1.2-6.3,2.3-11.3s1.8-8.7,2.3-11.2
	c0.3-1.7-0.5-2.5-2.5-2.5h-0.7c-0.4,0-0.6,0.1-0.8,0.1c-1.4,0-2.1-0.5-1.9-1.5c0.1-0.6,0.3-1.5,0.6-2.8c0.3-1.2,0.5-2.2,0.6-2.8
	c0.1-0.8,0.3-2,0.5-3.6s0.4-2.8,0.5-3.6c0.1-0.8,1.4-1.2,3.9-1.2c1.4,0,2.2-0.4,2.4-1.1c0.7-2.2,1.1-4.5,1.4-6.8c0.7-4.9,1-7.2,1-7
	c0.8-4.4,1.6-6.6,2.4-6.6c1.4,0.1,2.9,0.3,4.2,0.7c1.4,0.4,2.9,0.7,4.3,0.9c1.9,0.3,4.7,0.6,8.6,1.1c0.9,0.1,1.3,0.4,1.2,1
	c-0.3,1.5-0.8,3.8-1.6,6.9s-1.3,5.4-1.6,6.9c-0.3,1.9,0.1,2.8,1.2,2.8c1.3,0,3.3-0.1,6-0.2s4.7-0.2,6.1-0.2c0.8,0,1.2,0.3,1.1,0.9
	c-0.2,0.9-0.5,2.2-1,3.9c-0.5,1.7-0.8,3-1,3.9c-0.2,0.9-0.4,2.2-0.6,4s-0.5,3.1-0.6,4c-0.1,0.8-0.8,1.2-1.9,1.2c-0.8,0-2,0-3.8-0.1
	c-1.8-0.1-3-0.1-3.8-0.1h-4.2c-0.6,0-1,0.8-1.3,2.5l-0.7,4c-0.3,1.8-0.5,3.2-0.6,4c-0.6,3.2-0.6,5.4-0.1,6.6
	c0.7,1.6,2.6,2.4,5.6,2.4c1.4-0.1,2.8-0.3,4.2-0.7c1.3-0.3,2.5-0.6,3.8-0.7C288.6,64.2,288.9,64.6,288.7,65.4z"/>
<path class="st0" d="M351.3,54.1c-1.3,8.2-5.4,15.6-11.6,21c-6.2,5.3-14.1,8.2-22.2,8.1c-8.3,0-14.7-2.7-19.2-7.9
	s-5.9-12.1-4.5-20.4c1.5-8.8,5.4-15.9,11.5-21.4c6.1-5.5,13.6-8.2,22.4-8.2c8.6,0,15,2.7,19.4,8S352.8,45.5,351.3,54.1z M332.7,54.1
	c0.6-2.7,0.1-5.6-1.4-7.9c-1.4-2.3-3.9-3.6-6.6-3.4c-3,0-5.9,1.3-8,3.5c-2.2,2.1-3.6,4.9-4.1,7.8c-0.6,2.7-0.1,5.5,1.3,7.9
	c1.4,2.3,4,3.7,6.8,3.5c3,0,5.9-1.3,7.9-3.5C330.8,59.9,332.2,57.1,332.7,54.1z"/>
<path class="st0" d="M355.6,14.8c0,0,0,0-0.1,0.1c-0.3,0-0.7,0-1,0c-0.3,0-0.6,0-0.9,0h-0.1c0,0-0.1-0.1-0.1-0.1l-0.2-0.6
	c-0.1-0.3-0.3-0.8-0.6-1.5c-0.1-0.2-0.3-0.2-0.4-0.2h-0.5c0,0-0.1,0.1-0.1,0.3s0,0.6,0.1,1s0.1,0.8,0.1,1c0,0.1,0,0.1,0,0.1h-0.1
	h-0.9c-0.3,0-0.6,0-0.9,0c-0.1,0-0.1-0.1-0.1-0.2c0-0.4,0-0.9,0-1.7c0-0.8,0.1-1.3,0-1.7c0-1.4,0-2.6-0.1-3.4v0c0-0.1,0-0.1,0.2-0.1
	s0.6,0,1.6-0.1h1.5c0.7,0,1.3,0.2,1.9,0.5c0.6,0.4,0.9,1,0.8,1.7c0,0.4-0.1,0.8-0.2,1.2c-0.2,0.4-0.5,0.6-0.8,0.9
	c-0.1,0.1-0.1,0.1-0.1,0.1l0.6,1.3C355.2,13.8,355.4,14.3,355.6,14.8z M353.5,10.2c0-0.3-0.1-0.7-0.4-0.9c-0.3-0.1-0.7-0.2-1-0.2
	c-0.3,0-0.5,0-0.5,0.1c0,0.3,0,0.7,0,1c0,0.1,0,0.2,0,0.4c0,0.1,0,0.3,0,0.3s0,0,0.2,0.1c0.2,0,0.4,0,0.7,0
	C353.1,11,353.5,10.8,353.5,10.2L353.5,10.2z"/>
<path class="st0" d="M352.7,18.5c-4,0-7.3-3.3-7.3-7.3s3.3-7.3,7.3-7.3c4,0,7.3,3.3,7.3,7.3v0C360,15.3,356.7,18.5,352.7,18.5z
	 M352.7,5.4c-3.2,0-5.9,2.6-5.9,5.8s2.6,5.9,5.8,5.9c3.2,0,5.9-2.6,5.9-5.8c0,0,0,0,0,0C358.5,8,355.9,5.4,352.7,5.4z"/>
</svg>
