<?xml version="1.0" encoding="utf-8"?>
<!-- Generator: Adobe Illustrator 22.1.0, SVG Export Plug-In . SVG Version: 6.00 Build 0)  -->
<svg version="1.1" id="Layer_1" xmlns="http://www.w3.org/2000/svg" xmlns:xlink="http://www.w3.org/1999/xlink" x="0px" y="0px"
	 viewBox="0 0 41.2 61" style="enable-background:new 0 0 41.2 61;" xml:space="preserve">
<style type="text/css">
	.st0{fill:#D7D7D7;}
</style>
<title>NV</title>
<g>
	<path class="st0" d="M40.6,61h-40c-0.3,0-0.5-0.2-0.5-0.5v-60C0.1,0.2,0.3,0,0.6,0h40c0.3,0,0.5,0.2,0.5,0.5v60
		C41.1,60.8,40.9,61,40.6,61z M1.1,60h39V1h-39V60z"/>
	<path class="st0" d="M15.1,44.5c-0.1,0-0.3,0-0.4-0.1c-0.2-0.2-0.2-0.5,0-0.7l13.1-13.1L14.8,17.4c-0.2-0.2-0.2-0.5,0-0.7
		s0.5-0.2,0.7,0L29,30.1c0.1,0.1,0.1,0.2,0.1,0.4s-0.1,0.3-0.1,0.4L15.5,44.4C15.4,44.5,15.3,44.5,15.1,44.5z"/>
</g>
</svg>
