<?xml version="1.0" encoding="utf-8"?>
<!-- Generator: Adobe Illustrator 22.1.0, SVG Export Plug-In . SVG Version: 6.00 Build 0)  -->
<svg version="1.1" id="Layer_1" xmlns="http://www.w3.org/2000/svg" xmlns:xlink="http://www.w3.org/1999/xlink" x="0px" y="0px"
	 viewBox="0 0 450 170.6" style="enable-background:new 0 0 450 170.6;" xml:space="preserve">
<style type="text/css">
	.st0{fill:none;}
	.st1{fill:#3F3B39;}
	.st2{fill:#F6F6F6;}
	.st3{fill:#888888;}
	.st4{fill:#ACD7F2;}
	.st5{fill:#FFFFFF;}
	.st6{fill:#EDEEEE;}
	.st7{fill:#DCDCDC;}
	.st8{fill:#2EA7E0;}
	.st9{fill:#00AAD0;}
	.st10{fill:#929090;}
	.st11{fill:#78CDE7;stroke:#156081;stroke-width:0.5;stroke-linecap:round;stroke-linejoin:round;stroke-miterlimit:10;}
	.st12{fill:#A7003D;}
	.st13{fill:#D60051;}
	.st14{fill:#BF2345;}
	.st15{fill:#252221;}
	.st16{fill:#595757;}
	.st17{fill:#9E9EA0;}
	.st18{fill:#C8C8C9;}
	.st19{fill:#F29600;}
	.st20{fill:#F7B52D;}
	.st21{fill:#EA5515;}
	.st22{fill:#045993;}
	.st23{fill:#066EB7;}
	.st24{fill:#0462A4;}
	.st25{fill:#C30E24;}
	.st26{fill:#156081;}
	.st27{fill:#0D435D;}
	.st28{fill:#980C22;}
</style>
<rect x="-0.7" class="st0" width="450" height="170.2"/>
<g>
	<path class="st1" d="M151.3,159.7h-51.1c-0.6,0-1-0.4-1-1V61.2c0-0.6,0.4-1,1-1h51.1c0.6,0,1,0.4,1,1v97.5
		C152.3,159.3,151.8,159.7,151.3,159.7z"/>
	<rect x="102.1" y="72.1" class="st2" width="47.3" height="74.1"/>
	<g>
		<path class="st3" d="M130.7,67.5h-9.9c-0.4,0-0.7-0.3-0.7-0.7c0-0.4,0.3-0.7,0.7-0.7h9.9c0.4,0,0.7,0.3,0.7,0.7
			C131.4,67.2,131,67.5,130.7,67.5z"/>
		<path class="st3" d="M118.6,66.8c0-0.5-0.4-0.9-0.9-0.9c-0.5,0-0.9,0.4-0.9,0.9c0,0.5,0.4,0.9,0.9,0.9
			C118.2,67.7,118.6,67.3,118.6,66.8z"/>
	</g>
	<g>
		<path class="st4" d="M105.2,91.5V116c0,0.8,0.6,1.4,1.4,1.4h38.2c0.8,0,1.4-0.6,1.4-1.4V91.5H105.2z"/>
		<g>
			<path class="st2" d="M117.4,100.5c1.4-0.8,8-3.7,8.2-3.8c1-0.8,3.6-2.1,4.1-2.3c0.5-0.1,0.6,0.6,0.9,0.9c0.2,0.4,2.7,2.2,0.7,3.6
				c-2,1.4-15,4.7-15.4,3.9C115.2,101.5,116.6,100.9,117.4,100.5z"/>
			<g>
				<path class="st1" d="M129.6,96.1c-0.1-0.4-0.3-1-0.5-1.5c-1,0.4-2.7,1.4-3.5,2c0,0-0.2,0.1-0.5,0.2c0.3,0.6,0.6,1.2,0.8,1.3
					C126.4,98.5,129.7,96.8,129.6,96.1z"/>
			</g>
			<path class="st5" d="M109.9,109.6c-0.8,0-1-1.6-0.8-2.1c-0.3-5,3.9-6,6.6-5.5c0.5-0.1,10-4.8,11.8-5.4c2.3-0.8,4.3,3.1,6.3,3.2
				c2.2,0.1,5.1-1.2,5.3-2c0.3-1,1-2.5,2-1c1,1.6,1.9,8.6,1,10.7c0.2,0.3,0.2,2.1-0.2,2.1c-5.2,0-16.4,0-21.8,0
				C117.2,109.6,111,109.6,109.9,109.6z"/>
			<g>
				<path class="st1" d="M137.2,100.8c0.7,0,1.9-0.2,2.5-0.5c0.6,0.7,1.4,0.8,2.4,0.9c-0.3-1.9-0.7-3.6-1.1-4.3c-1-1.6-1.7,0-2,1
					c-0.2,0.6-2,1.6-3.8,1.9C135.6,100.8,135.9,100.8,137.2,100.8z"/>
				<path class="st6" d="M130,97.3c-0.8-0.6-1.6-1-2.5-0.7c-1.8,0.6-11.3,5.3-11.8,5.4c-0.1,0.2-0.3,1-0.4,2.1
					C116.6,103.6,126.2,98.9,130,97.3z"/>
				<path class="st5" d="M115.2,107.5h26.9c0.5-1.2,0.4-3.9,0.1-6.4c-1.1,0-1.8-0.2-2.4-0.9c-0.7,0.3-1.8,0.5-2.5,0.5
					c-1.3,0-1.6,0-1.9-1.1c-0.5,0.1-1,0.1-1.5,0.1c-1.2,0-2.5-1.6-3.8-2.5c-3.8,1.7-13.4,6.3-14.7,6.8
					C115.2,105.1,115.1,106.3,115.2,107.5z"/>
				<path class="st2" d="M115.3,104.1c-0.1,0-0.1,0-0.1,0C115.2,104.1,115.2,104.1,115.3,104.1c0.1-1.1,0.3-1.9,0.4-2.1
					c-2.7-0.5-6.9,0.5-6.6,5.5h6.1C115.1,106.3,115.2,105.1,115.3,104.1z"/>
				<path class="st7" d="M142.1,107.5h-26.9h-6.1c-0.2,0.5,0,2.1,0.8,2.1c0.6,0,3.1,0,5.6,0c1.7,0,3.5,0,4.7,0c5.4,0,16.5,0,21.8,0
					C142.3,109.6,142.3,107.9,142.1,107.5z"/>
			</g>
			<path class="st5" d="M116.7,102.8c-0.2-0.1-0.3-0.3-0.2-0.4l0,0l0.6-2c0-0.1,0.1-0.2,0.2-0.2l0,0c0.1,0,0.2,0,0.3,0l0,0l1.3,0.8
				l0.7-1.8c0.1-0.2,0.3-0.3,0.5-0.2l0,0l1.8,0.7l0.9-1.9c0.1-0.2,0.3-0.3,0.5-0.2l0,0l1.6,0.7l0.5-1.6c0-0.1,0.1-0.2,0.2-0.2l0,0
				c0.1,0,0.2-0.1,0.3,0l0,0l2.2,0.7c0.2,0.1,0.3,0.3,0.2,0.4l0,0c-0.1,0.2-0.3,0.3-0.4,0.2l0,0l-1.8-0.6l-0.5,1.6
				c0,0.1-0.1,0.2-0.2,0.2l0,0c-0.1,0-0.2,0-0.3,0l0,0l-1.6-0.7l-0.9,1.9c-0.1,0.2-0.3,0.3-0.4,0.2l0,0l-1.7-0.7l-0.8,1.9
				c0,0.1-0.1,0.2-0.2,0.2l0,0c-0.1,0-0.2,0-0.3,0l0,0l-1.3-0.7l-0.5,1.6v0C117.1,102.8,117,102.9,116.7,102.8L116.7,102.8
				C116.8,102.9,116.7,102.9,116.7,102.8L116.7,102.8z"/>
			<g>
				<path class="st1" d="M120.6,101.6l2.2,5.9h2l-2.5-6.7C121.8,101.1,121.2,101.4,120.6,101.6z"/>
				<path class="st1" d="M124.1,100l2.8,7.5h2l-3.1-8.3C125.2,99.5,124.6,99.7,124.1,100z"/>
			</g>
		</g>
		<path class="st8" d="M144.8,89.2h-38.2c-0.8,0-1.4,0.6-1.4,1.3v1.3h41v-1.3C146.2,89.8,145.6,89.2,144.8,89.2z"/>
	</g>
	<rect x="112" y="129.5" class="st9" width="26.3" height="11.4"/>
	<g>
		<path class="st5" d="M120.1,132.5c1,0,1.6,0.5,1.6,1.2c0,0.6-0.3,1-0.9,1.1c0.7,0.1,1.1,0.6,1.1,1.2c0,0.8-0.7,1.3-1.8,1.3H118
			v-4.9H120.1z M118.6,134.7h1.5c0.7,0,1-0.3,1-0.8c0-0.5-0.4-0.8-1-0.8h-1.5V134.7z M118.6,136.9h1.5c0.8,0,1.3-0.3,1.3-0.9
			c0-0.5-0.5-0.9-1.3-0.9h-1.5V136.9z"/>
		<path class="st5" d="M127.1,135.4c0,1.3-0.8,2.1-2.1,2.1c-1.3,0-2.1-0.8-2.1-2.1v-2.9h0.6v2.9c0,1,0.6,1.5,1.5,1.5
			c0.9,0,1.5-0.6,1.5-1.5v-2.9h0.6V135.4z"/>
		<path class="st5" d="M130.2,137.5h-0.6v-1.7l-1.9-3.3h0.6l1.6,2.6l1.6-2.6h0.6l-1.9,3.2V137.5z"/>
	</g>
	<g>
		<path class="st10" d="M335.2,119H188.4c-1.1,0-1.9-0.9-1.9-1.9V11.1c0-1.1,0.9-1.9,1.9-1.9h146.8c1.1,0,1.9,0.9,1.9,1.9v105.9
			C337.1,118.1,336.3,119,335.2,119z"/>
		<path class="st6" d="M174.3,115.3h175.1v9.3c0,0.4-0.3,0.8-0.8,0.8H175c-0.4,0-0.8-0.3-0.8-0.8V115.3z"/>
		<g>
			<path class="st10" d="M174.3,122.6c0,1.5,1.4,2.8,3.1,2.8h169c1.7,0,3.1-1.2,3.1-2.8V122H174.3V122.6z"/>
		</g>
		<rect x="194.1" y="16.8" class="st11" width="135.7" height="90.5"/>
		<rect x="209.3" y="27.2" class="st5" width="43.5" height="46.4"/>
		<rect x="256.6" y="27.2" class="st5" width="28.4" height="30.8"/>
		<rect x="256.6" y="61.6" class="st5" width="28.4" height="31"/>
		<rect x="288.7" y="27.2" class="st5" width="28.4" height="30.8"/>
		<rect x="288.7" y="61.6" class="st5" width="28.4" height="31"/>
		<g>
			<g>
				<path class="st12" d="M260.7,48.2l-0.3,1.4c-0.2,0.9,0,1.2,0.8,1.4c0.4,0.1,1.3,0.3,1.4-0.2l0.4-2.1L260.7,48.2z"/>
			</g>
			<g>
				<path class="st12" d="M281,48.2l0.3,1.4c0.2,0.9,0,1.2-0.8,1.4c-0.4,0.1-1.3,0.3-1.4-0.2l-0.4-2.1L281,48.2z"/>
			</g>
			<path class="st12" d="M276.6,38.1c-0.2-0.9-0.5-1.8-1-2.2c-1.3-1-3.2-1.2-4.6-1.2c-1.5,0-3.4,0.2-4.6,1.2c-0.4,0.3-0.8,1.3-1,2.2
				c-1.1,5.3-0.8,15.2-0.8,15.2c0,0.4,0.3,0.8,0.7,0.8h11.3c0.4,0,0.7-0.4,0.7-0.8C277.3,53.3,277.6,43.3,276.6,38.1z"/>
			<g>
				<path class="st13" d="M281.2,48.1L279,37.6c-0.4-1.9-1.4-4.5-2.7-4.7c-0.9-0.2-1,1.3-0.8,2.4l3,14.4c0.1,0.5,1.2,0.3,1.7,0.2
					C281.2,49.6,281.5,49.2,281.2,48.1z"/>
				<path class="st13" d="M265.3,32.8c-1.2,0.3-2.3,2.9-2.7,4.7l-2.3,10.5c-0.2,1.1,0,1.5,1,1.7c0.5,0.1,1.6,0.3,1.7-0.2l3-14.4
					C266.3,34.1,266.2,32.7,265.3,32.8z"/>
			</g>
			<path class="st14" d="M277,35c-0.2-0.9-0.6-2-1-2.4c-1.4-1.1-3.4-1.3-5.1-1.3c-1.6,0-3.7,0.3-5.1,1.3c-0.5,0.4-0.9,1.4-1,2.4
				c-1.2,5.7-0.8,16.5-0.8,16.5c0,0.5,0.4,0.9,0.8,0.9h12.3c0.4,0,0.8-0.4,0.8-0.9C277.9,51.5,278.2,40.7,277,35z"/>
			<g>
				<g>
					<path class="st13" d="M273.5,47.7h-5c-0.2,0-0.3-0.2-0.3-0.4c0-0.2,0.1-0.4,0.3-0.4h5c0.2,0,0.3,0.2,0.3,0.4
						C273.8,47.6,273.6,47.7,273.5,47.7z"/>
				</g>
				<path class="st13" d="M275.2,39.6c-0.4-0.7-1.4-0.2-2.4,1.4c-0.4,0.6-0.7,1.4-0.9,2.1c0.1-0.7,0.2-1.5,0.2-2.2
					c0-2.3-0.5-3.7-1.1-3.7c-0.6,0-1.1,1.4-1.1,3.7c0,0.7,0.1,1.5,0.2,2.2c-0.2-0.7-0.5-1.5-0.9-2.1c-1-1.6-2-2.1-2.4-1.4
					c-0.4,0.7-0.1,2.2,0.9,3.8c1,1.6,2.8,2.2,3.3,2.2c0.5,0,2.3-0.5,3.3-2.1C275.3,41.8,275.6,40.3,275.2,39.6z"/>
			</g>
			<g>
				<path class="st12" d="M270.9,34.4c1.4,0,2.4-1.1,2.6-2.8c-0.9-0.2-1.8-0.3-2.6-0.3c-0.8,0-1.7,0.1-2.6,0.3
					C268.6,33.3,269.5,34.4,270.9,34.4z"/>
			</g>
			<g>
				<path class="st13" d="M270.9,34.9c-1.7,0-2.9-1.3-2.9-3.2c0-0.3,0.2-0.5,0.5-0.5c0.3,0,0.5,0.2,0.5,0.5c0,1.3,0.8,2.2,2,2.2
					c1.2,0,2-0.9,2-2.2c0-0.3,0.2-0.5,0.5-0.5c0.3,0,0.5,0.2,0.5,0.5C273.9,33.5,272.7,34.9,270.9,34.9z"/>
			</g>
		</g>
		<g>
			<rect x="225" y="60.8" class="st15" width="11.2" height="7.1"/>
			<g>
				<path class="st16" d="M247.2,58.9l0.5,2.2c0.3,1.4,0,1.9-1.3,2.2c-0.6,0.2-2.1,0.4-2.2-0.2l-0.7-3.3L247.2,58.9z"/>
			</g>
			<g>
				<path class="st16" d="M215,58.9l-0.5,2.2c-0.3,1.4,0,1.9,1.3,2.2c0.6,0.2,2.1,0.4,2.2-0.2l0.7-3.3L215,58.9z"/>
			</g>
			<g>
				<path class="st1" d="M214.5,58.8l3.6-16.2c0.6-2.9,2.3-6.8,4.3-7.2c1.4-0.3,1.6,2,1.2,3.7l-4.8,22.1c-0.2,0.8-1.9,0.5-2.7,0.3
					C214.5,61,214.1,60.4,214.5,58.8z"/>
				<path class="st1" d="M239.9,35.3c2,0.4,3.7,4.4,4.3,7.2l3.6,16.2c0.4,1.7,0,2.3-1.6,2.7c-0.8,0.2-2.5,0.5-2.7-0.3L238.6,39
					C238.3,37.3,238.5,35.1,239.9,35.3z"/>
			</g>
			<path class="st15" d="M221.2,38.6c0.3-1.4,0.9-3,1.7-3.6c2.2-1.7,5.5-2,8.1-2c2.6,0,5.9,0.4,8.1,2c0.8,0.6,1.4,2.2,1.7,3.6
				C242.5,47.4,242,64,242,64c0,0.7-0.6,1.3-1.3,1.3h-19.6c-0.7,0-1.3-0.6-1.3-1.3C219.8,64,219.4,47.4,221.2,38.6z"/>
			<g>
				<path class="st1" d="M233.3,63.9h7.8c0,1.7,0,2.8,0,2.8c0,0.7-0.6,1.2-1.2,1.2h-6.6V63.9z"/>
				<path class="st1" d="M228.5,63.9v4h-6.6c-0.6,0-1.2-0.6-1.2-1.2c0,0,0-1.1,0-2.8H228.5z"/>
			</g>
			<g>
				<path class="st15" d="M230.9,37.7c-2.2,0-3.8-1.7-4.2-4.3c1.4-0.3,2.9-0.4,4.2-0.4c1.3,0,2.8,0.1,4.2,0.4
					C234.7,36,233.1,37.7,230.9,37.7z"/>
			</g>
			<g>
				<path class="st16" d="M232.6,33L232.6,33c0,0,0.1,0,0.1,0C232.7,33,232.6,33,232.6,33z"/>
				<path class="st16" d="M234.7,33.3c-0.4-0.1-0.8-0.1-1.2-0.2C233.9,33.2,234.3,33.2,234.7,33.3z"/>
				<path class="st16" d="M235.1,33.4c1.4,0.3,2.8,0.8,3.9,1.6c0.8,0.6,1.4,2.2,1.7,3.6C242.5,47.4,242,64,242,64
					c0,0.7-0.6,1.3-1.3,1.3h-8.1v-28C233.9,36.7,234.8,35.3,235.1,33.4z"/>
			</g>
			<g>
				<g>
					<g>
						<path class="st1" d="M232.3,37.8c0.2,0,0.3,0,0.5,0c1-0.3,3.5-1.4,3.8-4.2c0-0.2-0.2-0.3-0.8-0.4c-0.6-0.2-0.9-0.3-1,0
							c-0.4,1.8-1.2,2.4-2.6,2.9c-0.5,0.2-0.5,0.6-0.3,1.1C231.9,37.5,231.9,37.8,232.3,37.8z"/>
					</g>
				</g>
				<g>
					<path class="st16" d="M233.3,37.8c-0.1,0-0.1,0-0.2-0.1l-0.8-1.7c0-0.1,0-0.2,0.1-0.2c0.1,0,0.2,0,0.3,0.1l0.8,1.7
						C233.5,37.6,233.5,37.7,233.3,37.8C233.4,37.8,233.3,37.8,233.3,37.8z"/>
				</g>
				<g>
					<path class="st16" d="M234.7,37c-0.1,0-0.1,0-0.1-0.1l-1.3-1.4c-0.1-0.1-0.1-0.2,0-0.3c0.1-0.1,0.2-0.1,0.3,0l1.3,1.4
						c0.1,0.1,0.1,0.2,0,0.3C234.8,36.9,234.7,37,234.7,37z"/>
				</g>
				<g>
					<path class="st16" d="M235.8,35.8c0,0-0.1,0-0.1,0l-1.6-1c-0.1-0.1-0.1-0.2-0.1-0.3c0.1-0.1,0.2-0.1,0.3-0.1l1.6,1
						c0.1,0.1,0.1,0.2,0.1,0.3C235.9,35.8,235.8,35.8,235.8,35.8z"/>
				</g>
				<g>
					<path class="st16" d="M236.4,34.4C236.4,34.4,236.4,34.4,236.4,34.4l-1.9-0.5c-0.1,0-0.2-0.1-0.1-0.2c0-0.1,0.1-0.2,0.2-0.1
						l1.9,0.5c0.1,0,0.2,0.1,0.1,0.2C236.6,34.4,236.5,34.4,236.4,34.4z"/>
				</g>
			</g>
			<g>
				<path class="st16" d="M229.3,33L229.3,33c0,0-0.1,0-0.1,0C229.2,33,229.2,33,229.3,33z"/>
				<path class="st16" d="M227.2,33.3c0.4-0.1,0.8-0.1,1.2-0.2C228,33.2,227.6,33.2,227.2,33.3z"/>
				<path class="st16" d="M226.7,33.4c-1.4,0.3-2.8,0.8-3.9,1.6c-0.8,0.6-1.4,2.2-1.7,3.6c-1.8,8.8-1.3,25.4-1.3,25.4
					c0,0.7,0.6,1.3,1.3,1.3h8.1v-28C227.9,36.7,227,35.3,226.7,33.4z"/>
			</g>
			<g>
				<g>
					<g>
						<path class="st1" d="M229.6,37.8c-0.2,0-0.3,0-0.5,0c-1-0.3-3.5-1.4-3.8-4.2c0-0.2,0.2-0.3,0.8-0.4c0.6-0.2,0.9-0.3,1,0
							c0.4,1.8,1.2,2.4,2.6,2.9c0.5,0.2,0.5,0.6,0.3,1.1C229.9,37.5,229.9,37.8,229.6,37.8z"/>
					</g>
				</g>
				<g>
					<path class="st16" d="M228.5,37.8C228.5,37.8,228.5,37.8,228.5,37.8c-0.2-0.1-0.2-0.2-0.2-0.3l0.8-1.7c0-0.1,0.2-0.1,0.3-0.1
						c0.1,0,0.1,0.2,0.1,0.2l-0.8,1.7C228.7,37.7,228.6,37.8,228.5,37.8z"/>
				</g>
				<g>
					<path class="st16" d="M227.1,37c0,0-0.1,0-0.1-0.1c-0.1-0.1-0.1-0.2,0-0.3l1.3-1.4c0.1-0.1,0.2-0.1,0.3,0
						c0.1,0.1,0.1,0.2,0,0.3l-1.3,1.4C227.2,36.9,227.2,37,227.1,37z"/>
				</g>
				<g>
					<path class="st16" d="M226.1,35.8c-0.1,0-0.1,0-0.2-0.1c-0.1-0.1,0-0.2,0.1-0.3l1.6-1c0.1-0.1,0.2,0,0.3,0.1
						c0.1,0.1,0,0.2-0.1,0.3l-1.6,1C226.1,35.8,226.1,35.8,226.1,35.8z"/>
				</g>
				<g>
					<path class="st16" d="M225.4,34.4c-0.1,0-0.2-0.1-0.2-0.1c0-0.1,0-0.2,0.1-0.2l1.9-0.5c0.1,0,0.2,0,0.2,0.1
						c0,0.1,0,0.2-0.1,0.2L225.4,34.4C225.5,34.4,225.5,34.4,225.4,34.4z"/>
				</g>
			</g>
			<path class="st1" d="M236.6,63.2c-0.7-1.1-1-3.4-0.9-7.1c1.2-0.1,1.9-0.4,4.8-0.7c0.5,4.1,0.6,6.6-0.1,7.8H236.6z"/>
			<path class="st1" d="M225.2,63.2c0.7-1.1,1-3.4,0.9-7.1c-1.2-0.1-1.9-0.4-4.8-0.7c-0.5,4.1-0.6,6.6,0.1,7.8H225.2z"/>
			<g>
				<path class="st15" d="M238.7,42.4c0,1-0.8,1.8-1.9,1.8c-1,0-1.9-0.8-1.9-1.8c0-1,0.8-1.8,1.9-1.8
					C237.8,40.6,238.7,41.4,238.7,42.4z"/>
				<path class="st1" d="M238.4,42.4c0,0.8-0.7,1.5-1.6,1.5c-0.9,0-1.6-0.7-1.6-1.5c0-0.8,0.7-1.5,1.6-1.5
					C237.7,40.9,238.4,41.5,238.4,42.4z"/>
				<polygon class="st16" points="236.8,41.1 237.2,41.8 238.1,42 237.5,42.6 237.6,43.4 236.8,43.1 236,43.4 236.1,42.6 235.5,42 
					236.4,41.8 				"/>
			</g>
		</g>
		<g>
			<g>
				<path class="st1" d="M261.2,82.4l-0.3,1.4c-0.2,0.9,0,1.2,0.8,1.4c0.4,0.1,1.2,0.3,1.3-0.2l0.4-2L261.2,82.4z"/>
			</g>
			<g>
				<path class="st1" d="M280.4,82.4l0.3,1.4c0.2,0.9,0,1.2-0.8,1.4c-0.4,0.1-1.2,0.3-1.3-0.2l-0.4-2L280.4,82.4z"/>
			</g>
			<path class="st17" d="M276.3,72.8c-0.2-0.8-0.5-1.7-0.9-2.1c-1.2-0.9-3-1.2-4.4-1.2c-1.4,0-3.2,0.2-4.4,1.2
				c-0.4,0.3-0.7,1.3-0.9,2.1c-1,5-0.7,14.5-0.7,14.5c0,0.4,0.3,0.8,0.7,0.8h10.7c0.4,0,0.7-0.3,0.7-0.8
				C277,87.3,277.3,77.8,276.3,72.8z"/>
			<g>
				<path class="st16" d="M280.7,82.3l-2.1-10c-0.3-1.8-1.4-4.2-2.5-4.5c-0.8-0.2-1,1.2-0.7,2.3l2.9,13.7c0.1,0.5,1.1,0.3,1.6,0.2
					C280.7,83.7,280.9,83.4,280.7,82.3z"/>
				<path class="st16" d="M265.6,67.8c-1.2,0.2-2.2,2.7-2.5,4.5l-2.1,10c-0.2,1,0,1.4,0.9,1.7c0.5,0.1,1.5,0.3,1.6-0.2l2.9-13.7
					C266.6,69.1,266.4,67.6,265.6,67.8z"/>
			</g>
			<path class="st6" d="M276.7,69.8c-0.2-0.9-0.5-1.9-1-2.2c-1.3-1-3.3-1.3-4.8-1.3c-1.5,0-3.5,0.2-4.8,1.3c-0.5,0.4-0.8,1.4-1,2.2
				c-1.1,5.4-0.8,15.7-0.8,15.7c0,0.5,0.4,0.8,0.8,0.8h11.6c0.4,0,0.7-0.4,0.8-0.8C277.5,85.6,277.8,75.3,276.7,69.8z"/>
			<g>
				<path class="st17" d="M270.9,69.3c1.3,0,2.3-1.1,2.5-2.7c-0.8-0.2-1.7-0.2-2.5-0.2c-0.8,0-1.6,0.1-2.5,0.2
					C268.7,68.2,269.6,69.3,270.9,69.3z"/>
			</g>
			<g>
				<path class="st18" d="M270.9,69.7c-1.6,0-2.8-1.2-2.8-3c0-0.3,0.2-0.5,0.5-0.5c0.3,0,0.5,0.2,0.5,0.5c0,1.3,0.7,2.1,1.9,2.1
					c1.1,0,1.9-0.8,1.9-2.1c0-0.3,0.2-0.5,0.5-0.5s0.5,0.2,0.5,0.5C273.7,68.5,272.6,69.7,270.9,69.7z"/>
			</g>
			<g>
				<g>
					<path class="st18" d="M271.9,72v2.4h0.6v1.2h-0.7v0.3h0.4v1.4H270v-1.4h0.5v-0.3h-2v-1l1.9-2.6H271.9z M270.5,73.9l-0.4,0.5
						h0.4V73.9z"/>
				</g>
				<g>
					<path class="st18" d="M269.7,78.9v0.7l-0.1,0.1l0.1,0.1v0.7l-0.5,0.4h-1.5v-0.7h0.2v-1.2h-0.2v-0.7h1.6L269.7,78.9z
						 M268.9,79.1h-0.3v0.2h0.3V79.1z M268.9,80h-0.3v0.3h0.3V80z"/>
					<path class="st18" d="M272,78.9v1.6l-0.4,0.4h-1l-0.4-0.4v-1.7l0.4-0.4h1L272,78.9z M271.2,79.1h-0.3v1.2h0.3V79.1z"/>
					<path class="st18" d="M274.5,78.5v0.7h-0.2l-0.5,0.9v0.3h0.2V81h-1.1v-0.7h0.2V80l-0.5-0.9h-0.2v-0.7h1v0.6h-0.1l0.2,0.3
						l0.2-0.3h-0.1v-0.6H274.5z"/>
				</g>
				<g>
					<path class="st1" d="M269.7,78.9v0.7l-0.1,0.1l0.1,0.1v0.7l-0.5,0.4h-1.5v-0.7h0.2v-1.2h-0.2v-0.7h1.6L269.7,78.9z M269.4,79
						l-0.3-0.3h-1.2v0.2h0.2v1.6h-0.2v0.2h1.2l0.4-0.4v-0.5l-0.2-0.2l0.2-0.2V79z M269,78.9l0.1,0.1v0.4l-0.1,0.1h-0.6v-0.7H269z
						 M269,79.8l0.1,0.1v0.4l-0.2,0.2h-0.6v-0.7H269z M268.9,79.1h-0.3v0.2h0.3V79.1z M268.9,80h-0.3v0.3h0.3V80z"/>
					<path class="st1" d="M272,78.9v1.6l-0.4,0.4h-1l-0.4-0.4v-1.7l0.4-0.4h1L272,78.9z M271.8,79l-0.3-0.3h-0.7l-0.3,0.3v1.4
						l0.3,0.3h0.8l0.3-0.3V79z M271.5,79.1v1.3l-0.1,0.2h-0.5l-0.1-0.2v-1.3l0.2-0.1h0.5L271.5,79.1z M271.2,79.1h-0.3v1.2h0.3V79.1
						z"/>
					<path class="st1" d="M274.5,78.5v0.7h-0.2l-0.5,0.9v0.3h0.2V81h-1.1v-0.7h0.2V80l-0.5-0.9h-0.2v-0.7h1v0.6h-0.1l0.2,0.3
						l0.2-0.3h-0.1v-0.6H274.5z M274.3,78.7h-0.6v0.2h0.1l-0.4,0.8l-0.4-0.8h0.1v-0.2h-0.6v0.2h0.1l0.6,1.1v0.6h-0.2v0.2h0.7v-0.2
						h-0.2V80l0.6-1.1h0.1V78.7z"/>
				</g>
				<g>
					<path class="st1" d="M271.9,72v2.4h0.6v1.2h-0.7v0.3h0.4v1.4H270v-1.4h0.5v-0.3h-2v-1l1.9-2.6H271.9z M271.4,72.5h-1l-1.6,2.2
						v0.6h2v1.1h-0.4v0.5h1.4v-0.5h-0.4v-1.1h0.7v-0.4h-0.7V72.5z M270.8,72.9v1.8h-1.5L270.8,72.9L270.8,72.9z M270.5,73.9
						l-0.4,0.5h0.4V73.9z"/>
				</g>
			</g>
		</g>
		<g>
			<g>
				<path class="st19" d="M312.4,47.9l0.3,1.4c0.2,0.9,0,1.1-0.8,1.4c-0.4,0.1-1.2,0.3-1.3-0.1l-0.4-2L312.4,47.9z"/>
			</g>
			<g>
				<path class="st19" d="M293.3,47.9l-0.3,1.4c-0.2,0.9,0,1.1,0.8,1.4c0.4,0.1,1.2,0.3,1.3-0.1l0.4-2L293.3,47.9z"/>
			</g>
			<path class="st19" d="M297.5,38.3c0.2-0.8,0.5-1.7,0.9-2.1c1.2-0.9,3-1.2,4.4-1.2c1.4,0,3.2,0.2,4.4,1.2c0.4,0.3,0.7,1.2,0.9,2.1
				c1,5,0.7,14.4,0.7,14.4c0,0.4-0.3,0.8-0.7,0.8h-10.6c-0.4,0-0.7-0.3-0.7-0.8C296.7,52.7,296.5,43.3,297.5,38.3z"/>
			<g>
				<path class="st20" d="M293,47.8l2.1-10c0.3-1.8,1.4-4.2,2.5-4.5c0.8-0.2,0.9,1.2,0.7,2.3l-2.8,13.6c-0.1,0.5-1.1,0.3-1.6,0.2
					C293.1,49.2,292.8,48.8,293,47.8z"/>
				<path class="st20" d="M308,33.3c1.2,0.2,2.2,2.7,2.5,4.5l2.1,10c0.2,1,0,1.4-0.9,1.6c-0.5,0.1-1.5,0.3-1.6-0.2l-2.8-13.6
					C307.1,34.5,307.2,33.1,308,33.3z"/>
			</g>
			<path class="st6" d="M297,35.4c0.2-0.9,0.5-1.9,1-2.2c1.3-1,3.2-1.3,4.8-1.3s3.5,0.2,4.8,1.3c0.5,0.4,0.8,1.4,1,2.2
				c1.1,5.4,0.8,15.6,0.8,15.6c0,0.5-0.4,0.8-0.8,0.8H297c-0.4,0-0.7-0.4-0.8-0.8C296.2,51,295.9,40.8,297,35.4z"/>
			<g>
				<path class="st19" d="M302.8,34.8c-1.3,0-2.3-1-2.5-2.7c0.8-0.2,1.7-0.2,2.5-0.2c0.8,0,1.6,0.1,2.5,0.2
					C305,33.8,304.1,34.8,302.8,34.8z"/>
			</g>
			<g>
				<path class="st20" d="M302.8,35.3c1.6,0,2.8-1.2,2.8-3c0-0.3-0.2-0.5-0.5-0.5c-0.3,0-0.5,0.2-0.5,0.5c0,1.3-0.7,2.1-1.9,2.1
					c-1.1,0-1.9-0.8-1.9-2.1c0-0.3-0.2-0.5-0.5-0.5S300,32,300,32.2C300,34,301.1,35.3,302.8,35.3z"/>
			</g>
			<path class="st21" d="M305.5,40.5L305.5,40.5c0.3-0.1,0.5-0.2,0.6-0.4c0.1-0.2,0.2-0.4,0.2-0.6c0-0.2,0-0.3-0.1-0.4
				c-0.1-0.1-0.2-0.2-0.3-0.3c-0.1-0.1-0.3-0.1-0.4-0.2c-0.1,0-0.3,0-0.6,0H304h-1h-0.2l-0.5,2.4h0l-1-2.4h-1.2l-0.9,4.1h1.2
				l0.5-2.4h0l1,2.4h0.2h1h1.5c0.5,0,0.9-0.1,1.2-0.4c0.3-0.3,0.4-0.6,0.4-0.9C306.2,40.9,306,40.7,305.5,40.5z M304.2,41.8h-0.7
				l0.2-0.8h0.7c0.2,0,0.4,0,0.4,0.1c0.1,0.1,0.1,0.2,0.1,0.3C305,41.6,304.7,41.8,304.2,41.8z M305,40c-0.1,0.1-0.1,0.1-0.2,0.2
				c-0.1,0-0.2,0-0.4,0h-0.4l0.2-0.8h0.5c0.2,0,0.3,0,0.4,0.1c0.1,0.1,0.1,0.1,0.1,0.2C305.1,39.8,305.1,39.9,305,40z"/>
			<g>
				<path class="st21" d="M305.6,44.6h-5.7c-0.2,0-0.3-0.2-0.3-0.3c0-0.2,0.2-0.3,0.3-0.3h5.7c0.2,0,0.3,0.2,0.3,0.3
					C306,44.5,305.8,44.6,305.6,44.6z"/>
			</g>
		</g>
		<g>
			<rect x="299.7" y="83.8" class="st22" width="7" height="4.6"/>
			<g>
				<path class="st23" d="M292.8,82.6l-0.3,1.4c-0.2,0.9,0,1.2,0.8,1.4c0.4,0.1,1.3,0.3,1.4-0.2l0.4-2.1L292.8,82.6z"/>
			</g>
			<g>
				<path class="st23" d="M312.9,82.6l0.3,1.4c0.2,0.9,0,1.2-0.8,1.4c-0.4,0.1-1.3,0.3-1.4-0.2l-0.4-2.1L312.9,82.6z"/>
			</g>
			<g>
				<path class="st24" d="M313.2,82.5L311,72c-0.4-1.8-1.4-4.4-2.6-4.7c-0.9-0.2-1,1.3-0.8,2.4l3,14.3c0.1,0.5,1.2,0.3,1.7,0.2
					C313.2,84,313.4,83.6,313.2,82.5z"/>
				<path class="st24" d="M297.4,67.3c-1.2,0.3-2.3,2.8-2.6,4.7l-2.2,10.5c-0.2,1.1,0,1.5,1,1.7c0.5,0.1,1.6,0.3,1.7-0.2l3-14.3
					C298.4,68.6,298.3,67.2,297.4,67.3z"/>
			</g>
			<path class="st22" d="M309,69.5c-0.2-0.9-0.6-2-1-2.3c-1.4-1.1-3.4-1.3-5-1.3c-1.6,0-3.6,0.3-5,1.3c-0.5,0.4-0.9,1.4-1,2.3
				c-1.1,5.7-0.8,16.4-0.8,16.4c0,0.5,0.4,0.9,0.8,0.9h12.2c0.4,0,0.8-0.4,0.8-0.9C309.9,85.9,310.2,75.1,309,69.5z"/>
			<g>
				<path class="st24" d="M301.5,85.9h-4.9c0,1.1,0,1.8,0,1.8c0,0.4,0.3,0.8,0.7,0.8h4.1V85.9z"/>
				<path class="st24" d="M304.5,85.9v2.6h4.1c0.4,0,0.7-0.4,0.7-0.8c0,0,0-0.7,0-1.8H304.5z"/>
			</g>
			<g>
				<path class="st22" d="M303,68.9c1.4,0,2.4-1.1,2.6-2.8c-0.9-0.2-1.8-0.3-2.6-0.3c-0.8,0-1.7,0.1-2.6,0.3
					C300.6,67.8,301.6,68.9,303,68.9z"/>
			</g>
			<g>
				<path class="st23" d="M301.9,65.8L301.9,65.8C301.9,65.8,301.9,65.8,301.9,65.8C301.9,65.8,301.9,65.8,301.9,65.8z"/>
				<path class="st23" d="M300.6,66c0.2,0,0.5-0.1,0.7-0.1C301.1,65.9,300.9,66,300.6,66z"/>
				<path class="st23" d="M300.4,66.1c-0.9,0.2-1.7,0.5-2.4,1c-0.5,0.4-0.9,1.4-1,2.3c-1.1,5.7-0.8,16.4-0.8,16.4
					c0,0.5,0.4,0.9,0.8,0.9h5V68.6C301.1,68.2,300.6,67.3,300.4,66.1z"/>
			</g>
			<g>
				<g>
					<path class="st24" d="M302.1,69c-0.1,0-0.2,0-0.3,0c-0.6-0.2-2.2-0.9-2.3-2.7c0-0.1,0.1-0.2,0.5-0.3c0.4-0.1,0.6-0.2,0.6,0
						c0.2,1.1,0.8,1.6,1.6,1.9c0.3,0.1,0.3,0.4,0.2,0.7C302.4,68.7,302.4,68.9,302.1,69z"/>
				</g>
				<path class="st23" d="M301.3,69.2c-0.2-0.1-0.4-0.4-0.3-0.6l0,0l0.5-1.1c0.1-0.2,0.4-0.4,0.6-0.2l0,0c0.2,0.1,0.4,0.4,0.2,0.6
					l0,0l-0.5,1.1c-0.1,0.2-0.3,0.3-0.4,0.3l0,0C301.4,69.3,301.4,69.3,301.3,69.2L301.3,69.2z"/>
				<path class="st23" d="M300.3,68.6c-0.2-0.2-0.2-0.5,0-0.7l0,0l0.8-0.9c0.2-0.2,0.5-0.2,0.7,0l0,0c0.2,0.2,0.2,0.5,0,0.7l0,0
					l-0.8,0.9c-0.1,0.1-0.2,0.2-0.4,0.2l0,0C300.5,68.8,300.4,68.7,300.3,68.6L300.3,68.6z"/>
				<path class="st23" d="M299.6,67.8c-0.1-0.2-0.1-0.5,0.1-0.7l0,0l1-0.7c0.2-0.1,0.5-0.1,0.7,0.1l0,0c0.1,0.2,0.1,0.5-0.1,0.7l0,0
					l-1,0.7c-0.1,0.1-0.2,0.1-0.3,0.1l0,0C299.8,68,299.7,67.9,299.6,67.8L299.6,67.8z"/>
				<path class="st23" d="M299.1,66.8c-0.1-0.3,0.1-0.5,0.3-0.6l0,0l1.2-0.3c0.3-0.1,0.5,0.1,0.6,0.3l0,0c0.1,0.3-0.1,0.5-0.3,0.6
					l0,0l-1.2,0.3c0,0-0.1,0-0.1,0l0,0C299.4,67.1,299.2,67,299.1,66.8L299.1,66.8z"/>
			</g>
			<g>
				<path class="st23" d="M304,65.8L304,65.8C304,65.8,304.1,65.8,304,65.8C304.1,65.8,304,65.8,304,65.8z"/>
				<path class="st23" d="M305.3,66c-0.2,0-0.5-0.1-0.7-0.1C304.8,65.9,305.1,66,305.3,66z"/>
				<path class="st23" d="M305.6,66.1c0.9,0.2,1.7,0.5,2.4,1c0.5,0.4,0.9,1.4,1,2.3c1.1,5.7,0.8,16.4,0.8,16.4
					c0,0.5-0.4,0.9-0.8,0.9h-5V68.6C304.8,68.2,305.4,67.3,305.6,66.1z"/>
			</g>
			<g>
				<g>
					<path class="st24" d="M303.8,69c0.1,0,0.2,0,0.3,0c0.6-0.2,2.2-0.9,2.3-2.7c0-0.1-0.1-0.2-0.5-0.3c-0.4-0.1-0.6-0.2-0.6,0
						c-0.2,1.1-0.8,1.6-1.6,1.9c-0.3,0.1-0.3,0.4-0.2,0.7C303.6,68.7,303.6,68.9,303.8,69z"/>
				</g>
				<path class="st23" d="M304,69l-0.5-1.1c-0.1-0.2,0-0.5,0.3-0.6l0,0c0.2-0.1,0.5,0,0.6,0.3l0,0l0.5,1.1c0.1,0.2,0,0.5-0.3,0.6
					l0,0c-0.1,0-0.1,0-0.2,0l0,0C304.3,69.3,304.1,69.2,304,69L304,69z"/>
				<path class="st23" d="M305,68.6l-0.8-0.9c-0.2-0.2-0.2-0.5,0-0.7l0,0c0.2-0.2,0.5-0.2,0.7,0l0,0l0.8,0.9c0.2,0.2,0.2,0.5,0,0.7
					l0,0c-0.1,0.1-0.2,0.1-0.3,0.1l0,0C305.2,68.8,305.1,68.7,305,68.6L305,68.6z"/>
				<path class="st23" d="M305.7,67.9l-1-0.7c-0.2-0.1-0.3-0.4-0.1-0.7l0,0c0.1-0.2,0.5-0.3,0.7-0.1l0,0l1,0.7
					c0.2,0.1,0.3,0.4,0.1,0.7l0,0c-0.1,0.1-0.2,0.2-0.4,0.2l0,0C305.9,68,305.8,68,305.7,67.9L305.7,67.9z"/>
				<path class="st23" d="M306.2,67.1l-1.2-0.3c-0.3-0.1-0.4-0.3-0.3-0.6l0,0c0.1-0.3,0.3-0.4,0.6-0.3l0,0l1.2,0.3
					c0.3,0.1,0.4,0.3,0.3,0.6l0,0c-0.1,0.2-0.3,0.4-0.5,0.4l0,0C306.3,67.1,306.3,67.1,306.2,67.1L306.2,67.1z"/>
			</g>
			<path class="st24" d="M299.5,85.4c0.4-0.7,0.6-2.2,0.6-4.6c-0.7,0-1.2-0.2-3-0.5c-0.3,2.6-0.4,4.3,0.1,5.1H299.5z"/>
			<path class="st24" d="M306.5,85.4c-0.4-0.7-0.6-2.2-0.6-4.6c0.7,0,1.2-0.2,3-0.5c0.3,2.6,0.4,4.3-0.1,5.1H306.5z"/>
			<g>
				<g>
					<path class="st5" d="M299.3,70.1c-0.7,0-1.3,0.5-1.3,1.1c0,0.6,0.6,1.1,1.3,1.1c0.7,0,1.3-0.5,1.3-1.1
						C300.6,70.6,300,70.1,299.3,70.1z M299.5,71.8v-1.3c0.4,0,0.8,0.3,0.8,0.7C300.3,71.5,299.9,71.8,299.5,71.8z"/>
					<path class="st22" d="M299.2,70.5v1.3c-0.4,0-0.8-0.3-0.8-0.7C298.4,70.8,298.7,70.5,299.2,70.5z"/>
				</g>
				<g>
					<path class="st22" d="M300.2,73.1h-1.7c-0.1,0-0.1-0.1-0.1-0.1c0-0.1,0.1-0.1,0.1-0.1h1.7c0.1,0,0.1,0.1,0.1,0.1
						C300.3,73,300.2,73.1,300.2,73.1z"/>
				</g>
			</g>
		</g>
		<rect x="209.1" y="77.9" class="st9" width="43.8" height="15.5"/>
		<g>
			<path class="st5" d="M223.7,82.9c1.3,0,2.2,0.6,2.2,1.7c0,0.8-0.4,1.3-1.2,1.5c1,0.1,1.5,0.8,1.5,1.7c0,1.1-0.9,1.8-2.4,1.8h-2.9
				v-6.7H223.7z M221.7,85.8h2c0.9,0,1.4-0.4,1.4-1.1c0-0.7-0.5-1.1-1.4-1.1h-2V85.8z M221.7,88.8h2c1.1,0,1.7-0.4,1.7-1.2
				c0-0.7-0.6-1.2-1.7-1.2h-2V88.8z"/>
			<path class="st5" d="M233.2,86.8c0,1.7-1.1,2.8-2.8,2.8c-1.8,0-2.8-1.1-2.8-2.8v-3.9h0.8v3.9c0,1.3,0.8,2.1,2.1,2.1s2-0.8,2-2.1
				v-3.9h0.8V86.8z"/>
			<path class="st5" d="M237.5,89.6h-0.8v-2.3l-2.6-4.4h0.8l2.2,3.5l2.1-3.5h0.8l-2.5,4.4V89.6z"/>
		</g>
		<path class="st10" d="M276.1,120.3h-28.6c-0.1,0-0.2-0.1-0.2-0.2v-1.2c0-0.1,0.1-0.2,0.2-0.2h28.6c0.1,0,0.2,0.1,0.2,0.2v1.2
			C276.3,120.2,276.2,120.3,276.1,120.3z"/>
	</g>
	<circle class="st3" cx="126" cy="153.3" r="3.3"/>
	<g>
		<g>
			<path class="st7" d="M217.9,132.7V119c0-5.4-4.4-9.8-9.8-9.8l0,0c-5.4,0-9.8,4.4-9.8,9.8l0,0v13.7c0,0.4-0.3,0.8-0.8,0.8l0,0
				c-0.4,0-0.8-0.3-0.8-0.8l0,0V119c0-6.3,5.1-11.3,11.3-11.3l0,0c6.3,0,11.3,5.1,11.3,11.3l0,0v13.7c0,0.4-0.3,0.8-0.8,0.8l0,0
				C218.2,133.4,217.9,133.1,217.9,132.7L217.9,132.7z"/>
		</g>
		
			<rect x="190.1" y="127" transform="matrix(-1 -1.224647e-16 1.224647e-16 -1 429.2131 287.1945)" class="st20" width="49" height="33.2"/>
		<rect x="190.1" y="127" class="st25" width="9.4" height="33.2"/>
		<g>
			<path class="st6" d="M229.5,131.6l0-13.7c0-5.4-4.4-9.8-9.8-9.8l0,0c-5.4,0-9.8,4.4-9.8,9.8l0,0l0,13.7c0,0.4-0.3,0.8-0.8,0.8
				l0,0c-0.4,0-0.8-0.3-0.8-0.8l0,0v-13.7c0-6.3,5.1-11.3,11.3-11.3l0,0c6.3,0,11.3,5.1,11.3,11.3l0,0v13.7c0,0.4-0.3,0.8-0.8,0.8
				l0,0C229.8,132.4,229.5,132.1,229.5,131.6L229.5,131.6z"/>
		</g>
		<g>
			
				<rect x="219.4" y="142.4" transform="matrix(-1 -1.224647e-16 1.224647e-16 -1 443.5532 287.5544)" class="st5" width="4.7" height="2.7"/>
			
				<rect x="213.2" y="142.4" transform="matrix(-1 -1.224647e-16 1.224647e-16 -1 431.0354 287.5544)" class="st5" width="4.7" height="2.7"/>
			
				<rect x="206.9" y="142.4" transform="matrix(-1 -1.224647e-16 1.224647e-16 -1 418.5192 287.5544)" class="st5" width="4.7" height="2.7"/>
			
				<rect x="219.4" y="142.4" transform="matrix(-1 -1.224647e-16 1.224647e-16 -1 443.5532 287.5544)" class="st5" width="4.7" height="2.7"/>
			
				<rect x="219.4" y="146.8" transform="matrix(-1 -1.224647e-16 1.224647e-16 -1 443.5532 296.33)" class="st5" width="4.7" height="2.7"/>
			
				<rect x="213.2" y="146.8" transform="matrix(-1 -1.224647e-16 1.224647e-16 -1 431.0354 296.33)" class="st5" width="4.7" height="2.7"/>
			
				<rect x="206.9" y="146.8" transform="matrix(-1 -1.224647e-16 1.224647e-16 -1 418.5192 296.33)" class="st5" width="4.7" height="2.7"/>
			
				<rect x="225.7" y="146.8" transform="matrix(-1 -1.224647e-16 1.224647e-16 -1 456.0694 296.33)" class="st5" width="4.7" height="2.7"/>
			
				<rect x="219.4" y="146.8" transform="matrix(-1 -1.224647e-16 1.224647e-16 -1 443.5532 296.33)" class="st5" width="4.7" height="2.7"/>
			
				<rect x="213.2" y="151.2" transform="matrix(-1 -1.224647e-16 1.224647e-16 -1 431.0354 305.1055)" class="st5" width="4.7" height="2.7"/>
			
				<rect x="206.9" y="151.2" transform="matrix(-1 -1.224647e-16 1.224647e-16 -1 418.5192 305.1055)" class="st5" width="4.7" height="2.7"/>
		</g>
		<rect x="206.9" y="138.8" class="st5" width="14.8" height="1.4"/>
	</g>
	<g>
		<g>
			<path class="st7" d="M182.7,120v-15.4c0-4.8-3.9-8.7-8.7-8.7l0,0c-4.8,0-8.7,3.9-8.7,8.7l0,0l0,15.4c0,0.4-0.3,0.8-0.8,0.8l0,0
				c-0.4,0-0.8-0.3-0.8-0.8l0,0v-15.4c0-5.7,4.6-10.2,10.2-10.2l0,0c5.7,0,10.2,4.6,10.2,10.2l0,0V120c0,0.4-0.3,0.8-0.8,0.8l0,0
				C183.1,120.7,182.7,120.4,182.7,120L182.7,120z"/>
		</g>
		
			<rect x="157.4" y="114.2" transform="matrix(-1 -1.224647e-16 1.224647e-16 -1 359.5779 274.3817)" class="st26" width="44.8" height="46"/>
		<polygon class="st27" points="157.4,160.2 166.4,160.2 166.4,114.2 161.9,117.2 157.4,114.2 		"/>
		<g>
			<path class="st6" d="M193.1,119.1l0-15.4c0-4.8-3.9-8.7-8.7-8.7l0,0c-4.8,0-8.7,3.9-8.7,8.7l0,0v15.4c0,0.4-0.3,0.8-0.8,0.8l0,0
				c-0.4,0-0.8-0.3-0.8-0.8l0,0v-15.4c0-5.7,4.6-10.2,10.2-10.2l0,0c5.7,0,10.2,4.6,10.2,10.2l0,0v15.4c0,0.4-0.3,0.8-0.8,0.8l0,0
				C193.5,119.8,193.1,119.5,193.1,119.1L193.1,119.1z"/>
		</g>
		
			<rect x="166.4" y="128.3" transform="matrix(-1 -1.224647e-16 1.224647e-16 -1 368.5482 261.171)" class="st5" width="35.8" height="4.5"/>
		
			<rect x="166.4" y="137.2" transform="matrix(-1 -1.224647e-16 1.224647e-16 -1 368.5482 286.2774)" class="st5" width="35.8" height="11.9"/>
	</g>
	<g>
		<g>
			<path class="st7" d="M252.9,139.8v-10.1c0-3.9-3.2-7.1-7.1-7.1l0,0c-3.9,0-7.1,3.2-7.1,7.1l0,0l0,10.1c0,0.4-0.3,0.8-0.8,0.8l0,0
				c-0.4,0-0.8-0.3-0.8-0.8l0,0v-10.1c0-4.7,3.8-8.6,8.6-8.6l0,0c4.7,0,8.6,3.8,8.6,8.6l0,0v10.1c0,0.4-0.3,0.8-0.8,0.8l0,0
				C253.2,140.6,252.9,140.2,252.9,139.8L252.9,139.8z"/>
		</g>
		
			<rect x="231.3" y="135.6" transform="matrix(-1 -1.224647e-16 1.224647e-16 -1 501.2843 295.8344)" class="st14" width="38.7" height="24.6"/>
		<rect x="231.3" y="135.6" class="st28" width="7.4" height="24.6"/>
		<g>
			<path class="st6" d="M261.5,139.1v-10.1c0-3.9-3.2-7.1-7.1-7.1l0,0c-3.9,0-7.1,3.2-7.1,7.1l0,0l0,10.1c0,0.4-0.3,0.8-0.8,0.8l0,0
				c-0.4,0-0.8-0.3-0.8-0.8l0,0v-10.1c0-4.7,3.8-8.6,8.6-8.6l0,0c4.7,0,8.6,3.8,8.6,8.6l0,0v10.1c0,0.4-0.3,0.8-0.8,0.8l0,0
				C261.8,139.8,261.5,139.5,261.5,139.1L261.5,139.1z"/>
		</g>
		<g>
			
				<rect x="258" y="145.6" transform="matrix(-1 -1.224647e-16 1.224647e-16 -1 521.0913 298.232)" class="st5" width="5.1" height="7.1"/>
			
				<rect x="251.1" y="145.6" transform="matrix(-1 -1.224647e-16 1.224647e-16 -1 507.2601 298.232)" class="st5" width="5.2" height="7.1"/>
			
				<rect x="244.1" y="145.6" transform="matrix(-1 -1.224647e-16 1.224647e-16 -1 493.43 298.232)" class="st5" width="5.1" height="7.1"/>
		</g>
	</g>
</g>
</svg>
