<?xml version="1.0" encoding="utf-8"?>
<!-- Generator: Adobe Illustrator 22.1.0, SVG Export Plug-In . SVG Version: 6.00 Build 0)  -->
<svg version="1.1" id="Layer_1" xmlns="http://www.w3.org/2000/svg" xmlns:xlink="http://www.w3.org/1999/xlink" x="0px" y="0px"
	 viewBox="0 0 450 170.6" style="enable-background:new 0 0 450 170.6;" xml:space="preserve">
<style type="text/css">
	.st0{fill:#FFFFFF;}
	.st1{fill:#C9905C;}
	.st2{fill:#EABC8C;}
	.st3{fill:#945C49;}
	.st4{fill:#AF784A;}
	.st5{fill:#00A9CE;}
	.st6{fill:#A5714F;}
	.st7{fill:#BF8D5E;}
	.st8{fill:#242E3F;}
	.st9{fill:#364765;}
	.st10{fill:#5A82AB;}
	.st11{fill:#8E745D;}
	.st12{fill:#1F272D;}
	.st13{fill:#67CDF1;}
	.st14{fill:#19C2ED;}
	.st15{fill:#767676;}
	.st16{fill:#0391C5;}
	.st17{fill:#DB4B42;}
	.st18{fill:#F1D418;}
	.st19{fill:#3AB986;}
	.st20{fill:#98989A;}
</style>
<rect x="-0.8" class="st0" width="450" height="170.6"/>
<g>
	<g>
		<polygon class="st1" points="121,87.9 142,75.8 122.1,66.3 102.3,75.8 		"/>
		<polygon class="st2" points="102.3,75.8 93.1,76.8 113.8,66.7 122.1,66.3 		"/>
		<polygon class="st2" points="122.1,66.3 131.6,66.3 150.6,75.3 142,75.8 		"/>
		<polygon class="st3" points="122.1,66.3 122.1,87.2 142,75.8 		"/>
		<polygon class="st4" points="122.1,66.3 117.5,85.6 121,87.9 122.1,87.2 		"/>
	</g>
	<g>
		<path class="st5" d="M116.5,92.8c-4.8-60.1,17.2-74.6,26.9-78.2c11.9-4.4,25.5,0.2,33.2,11l-4.1,2.7c-6.5-9.1-17.7-12.8-27.6-9.4
			c-18,6.6-26.7,34-23.7,73.5L116.5,92.8z"/>
		<g>
			<polygon class="st5" points="168.5,28.5 178.2,34.6 178.7,23.1 			"/>
		</g>
	</g>
	<g>
		<polygon class="st6" points="102.3,75.8 102.3,99.2 121,110.5 121,87.9 		"/>
		<polygon class="st1" points="142,75.8 121,87.9 121,110.5 142,98.4 		"/>
		<polygon class="st7" points="93.1,85.6 93.1,85.9 110.9,99.8 121,87.9 		"/>
		<polygon class="st2" points="102.3,75.8 93.1,85.6 110.9,98.9 120.7,87.7 		"/>
		<polygon class="st7" points="150.6,86 150.6,86.3 130.5,100.2 121,87.9 		"/>
		<polygon class="st2" points="142,75.8 150.6,86 130.7,99.5 121.3,87.7 		"/>
	</g>
	<g>
		<polygon class="st1" points="325.6,87.9 346.8,75.6 326.7,66.3 306.8,75.8 		"/>
		<polygon class="st2" points="306.8,75.8 297.7,76.8 318.4,66.7 326.7,66.3 		"/>
		<polygon class="st2" points="326.7,66.3 336.2,66 355.2,75 346.8,75.6 		"/>
		<polygon class="st3" points="326.7,66.3 326.8,87.2 346.8,75.6 		"/>
		<polygon class="st4" points="326.7,66.3 322.2,85.6 325.6,87.9 326.8,87.2 		"/>
	</g>
	<g>
		<g>
			<g>
				<polygon class="st1" points="221.8,102.5 273.4,73.4 225,49.7 176.1,72.8 				"/>
				<polygon class="st2" points="176.1,72.8 154.2,74.6 204.6,50.4 225,49.7 				"/>
				<polygon class="st2" points="225,49.7 247.9,49.8 294.4,72.2 273.4,73.4 				"/>
				<polygon class="st3" points="225,49.7 224.5,100.8 273.4,73.4 				"/>
				<polygon class="st4" points="225,49.7 213.4,96.9 221.8,102.5 224.5,100.8 				"/>
			</g>
			<g>
				<polygon class="st8" points="214.1,22.4 221.7,19.3 231.2,22.5 241.6,123.8 223,125.6 221.1,103.5 219.5,125.4 200.2,123.5 				
					"/>
				<path class="st9" d="M189.5,47.7c1.8-5.3,3.6-10.6,5.7-15.8c0,0-1.4-3.9,15.5-7.1l6-1.4l-0.3,42.7l-9.4,66.6l-16-3
					c0,0-1.1-0.6-0.9-2.6c0.2-2,8.8-53,8.8-53L198.1,53L194,73.5l12.4,16.8c0,0.2-4.1,0.3-4.1,0.6v0.3c-0.2,1.8-3,2.1-3.6,0.5
					l-15.4-16.3c-0.6-0.9-0.8-2-0.5-3C184.5,64.2,186.8,55.9,189.5,47.7z"/>
				<path class="st9" d="M253.2,48.2c-1.7-5.4-3.5-10.7-5.4-16c0,0,1.5-3.9-15.4-7.2l-6-1.4L226,66.3l8.3,66.6l16-2.9
					c0,0,1.1-0.6,0.9-2.4c-0.2-2-8-53.1-8-53.1l1.4-21.1l3.6,20.7l-8.5,16.8c0,0.2-0.2,0.5,0,0.6v0.3c0.2,1.8,3,2.1,3.6,0.5
					l15.7-16.1c0.6-0.9,0.8-2,0.6-3C257.9,64.8,255.8,56.5,253.2,48.2z"/>
				<path class="st10" d="M240.2,24.2c-2.4-3-5.3-5.7-8.8-7.8c-2.7-1.7-5.9-2.9-9.4-3c-2,0-3.9,0.2-5.7,0.8
					c-2.9,0.9-5.4,2.6-7.7,4.4c-2.1,1.7-4.1,3.5-5.6,5.4c-0.3,0.5-0.2,0.9,0.5,1.1l11.6,2.4l1.7,3.9l-9.2,0.9
					c-0.5,0-0.8,0.5-0.6,0.8l9.8,31.2l1.1-38.2c0-1.7,1.7-2.9,3.5-2.9h0.3c2,0.2,3.5,1.4,3.5,3l0.6,38.2L236,33.2
					c0.2-0.3-0.2-0.8-0.6-0.8l-9.1-1.1l1.8-4.1l11.8-2.3C240.2,25.1,240.5,24.5,240.2,24.2z"/>
				<ellipse class="st11" cx="206.1" cy="50" rx="2" ry="2"/>
				<ellipse class="st11" cx="208.1" cy="63.3" rx="2" ry="2"/>
				<ellipse class="st11" cx="207.9" cy="76.8" rx="2" ry="2"/>
				<ellipse class="st11" cx="204.2" cy="90.1" rx="2" ry="2"/>
				<polygon class="st12" points="214.1,34.6 209.9,35.3 209.7,34.9 214,34.1 				"/>
				<ellipse class="st11" cx="236.9" cy="50.3" rx="2" ry="2"/>
				<ellipse class="st11" cx="234.9" cy="63.7" rx="2" ry="2"/>
				<ellipse class="st11" cx="234.8" cy="77" rx="2" ry="2"/>
				<ellipse class="st11" cx="238.4" cy="90.3" rx="2" ry="2"/>
				<polygon class="st12" points="228.9,34.7 233,35.5 233.3,35 229.1,34.3 				"/>
			</g>
			<g>
				<path class="st0" d="M222.7,120.1l-23.8,3.2c-2.4,0.3-4.7-1.5-5-3.9L188,74.6c-0.3-2.4,1.5-4.7,3.9-5l23.8-3.2
					c2.4-0.3,4.7,1.5,5,3.9l5.9,44.8C226.9,117.6,225.1,119.8,222.7,120.1z"/>
				
					<rect x="193.1" y="70.6" transform="matrix(0.9916 -0.1297 0.1297 0.9916 -10.4072 27.6705)" class="st13" width="28.2" height="46.2"/>
				<polygon class="st14" points="218.8,74 196.2,118.5 224.2,115 				"/>
			</g>
			<g>
				<path class="st0" d="M249.6,103.5c-0.5,0.5-0.9,0.9-1.7,1.4c-2.7,1.1-5.7-0.3-8.1-2.1c-5-3.5-8.8-8.5-12.5-13.3
					c-0.3-0.5-0.8-0.9-0.9-1.7c-0.2-0.6-0.2-1.4-0.2-2c0.2-2,0.5-4.1,1.1-5.9c0.2-0.5,0.3-0.9,0.8-1.4c0.3-0.3,0.8-0.3,1.1-0.5
					c1.4-0.3,2.6-0.5,3.9-0.8c0.6-0.2,1.5-0.3,2-0.6c0.6-0.5,1.1-1.1,1.5-1.8c0.9-1.7,1.8-3.2,2.7-4.8c0.2-0.3,0.3-0.6,0.5-1.1
					c0-0.5-0.2-0.9-0.2-1.5c-0.5-1.4-0.8-2.6-1.4-3.6c-0.2-0.6-0.3-1.4-0.3-2c0.2-0.6,0.6-1.4,1.1-1.8c1.4-1.4,2.6-2.7,4.2-3.6
					c0.8-0.5,1.7-0.8,2.6-0.9c0.9-0.2,2,0.2,2.9,0.3c4.8,0.6,9.7,1.7,14.2,3.3c0.6,0.3,1.4,0.5,2,0.8c2.6,1.4,5.3,3,5.6,5.9
					c0.2,1.4-0.2,2.7-1.5,3.5c-0.5,0.3-1.4,0.5-1.8,0.5c-2.1,0.3-4.2,0.9-6,1.7c-0.9,0.3-2.1,0.8-2.9,1.5c-0.9,0.8-1.7,2-2.3,3
					c-2,3.3-4.1,6.8-5.9,10.1c-0.8,1.4-1.7,2.7-1.8,4.4s0.2,3.2,0.6,4.7c0.5,1.8,0.8,3.3,1.4,5.1c0.2,0.6,0.3,1.4,0.2,1.8
					C249.9,102.9,249.7,103.2,249.6,103.5z"/>
				<ellipse class="st15" cx="233.7" cy="85.3" rx="2.7" ry="2.7"/>
				<ellipse class="st15" cx="249.7" cy="72.8" rx="2.7" ry="2.7"/>
				<ellipse class="st0" cx="238.3" cy="77.4" rx="0.9" ry="0.9"/>
				<ellipse class="st0" cx="241.9" cy="71.4" rx="0.9" ry="0.9"/>
				<ellipse class="st16" cx="244.6" cy="66.6" rx="1.5" ry="1.5"/>
				<ellipse class="st17" cx="247.9" cy="60.7" rx="1.5" ry="1.5"/>
				<ellipse class="st18" cx="243.4" cy="61.7" rx="1.5" ry="1.5"/>
				<ellipse class="st19" cx="249.3" cy="65.2" rx="1.5" ry="1.5"/>
				<path class="st20" d="M244.1,80.8l-0.9,1.8l-1.8-0.9c-0.2-0.2-0.5,0-0.6,0.2l-0.6,1.4c-0.2,0.2,0,0.5,0.2,0.6l1.8,0.9l-0.9,1.8
					c-0.2,0.2,0,0.5,0.2,0.6l1.4,0.6c0.2,0.2,0.5,0,0.6-0.2l0.9-1.8l1.8,0.9c0.2,0.2,0.5,0,0.6-0.2l0.6-1.4c0.2-0.2,0-0.5-0.2-0.6
					l-1.8-0.9l0.9-1.8c0.2-0.2,0-0.5-0.2-0.6l-1.4-0.6C244.6,80.5,244.3,80.5,244.1,80.8z"/>
			</g>
			<g>
				<polygon class="st6" points="176.1,72.8 175.8,129.7 221.5,157.6 221.8,102.5 				"/>
				<polygon class="st1" points="273.4,73.4 221.8,102.5 221.5,157.6 273.1,128.6 				"/>
				<polygon class="st7" points="153.9,96.3 153.9,97.2 196.9,131 221.8,102.5 				"/>
				<polygon class="st2" points="176.1,72.8 153.9,96.3 196.8,129.2 221.1,101.7 				"/>
				<polygon class="st7" points="294.1,98.6 294.1,99.5 244.8,132.7 221.8,102.5 				"/>
				<polygon class="st2" points="273.4,73.4 294.1,98.6 245.1,130.9 222.7,102 				"/>
			</g>
		</g>
		<circle class="st15" cx="203.7" cy="69.6" r="0.5"/>
	</g>
	<g>
		<path class="st5" d="M329.6,92.8l-4.8-0.3c3-39.2-5.7-66.7-23.7-73.3c-10-3.5-21.1,0.3-27.6,9.4l-4.1-2.7
			c7.7-10.7,21.3-15.2,33.2-11C312.4,18.3,334.4,32.8,329.6,92.8z"/>
		<g>
			<polygon class="st5" points="267.5,23.1 267.8,34.6 277.7,28.5 			"/>
		</g>
	</g>
	<g>
		<polygon class="st6" points="306.8,75.8 306.9,99.2 325.8,110.3 325.6,87.9 		"/>
		<polygon class="st1" points="346.8,75.6 325.6,87.9 325.8,110.3 346.9,98.1 		"/>
		<polygon class="st7" points="297.7,85.7 297.7,86 315.8,99.8 325.6,87.9 		"/>
		<polygon class="st2" points="306.8,75.8 297.7,85.7 315.5,98.9 325.3,87.6 		"/>
		<polygon class="st7" points="355.2,85.7 355.2,86 335.1,100.1 325.6,87.9 		"/>
		<polygon class="st2" points="346.8,75.6 355.2,85.7 335.3,99.2 326.1,87.6 		"/>
	</g>
</g>
</svg>
