<?xml version="1.0" encoding="utf-8"?>
<!-- Generator: Adobe Illustrator 22.1.0, SVG Export Plug-In . SVG Version: 6.00 Build 0)  -->
<svg version="1.1" id="Layer_1" xmlns="http://www.w3.org/2000/svg" xmlns:xlink="http://www.w3.org/1999/xlink" x="0px" y="0px"
	 viewBox="0 0 391.3 391.3" style="enable-background:new 0 0 391.3 391.3;" xml:space="preserve">
<style type="text/css">
	.st0{fill:#D4D4D4;}
	.st1{fill:#E6CC80;}
	.st2{fill:#C2AB5C;}
	.st3{opacity:0.5;fill:#FFFFFF;enable-background:new    ;}
	.st4{fill-rule:evenodd;clip-rule:evenodd;fill:#CC8575;}
	.st5{fill-rule:evenodd;clip-rule:evenodd;fill:#AB6154;}
	.st6{fill-rule:evenodd;clip-rule:evenodd;fill:#F0A696;}
	.st7{fill-rule:evenodd;clip-rule:evenodd;fill:#F5B382;}
	.st8{fill-rule:evenodd;clip-rule:evenodd;fill:#E3A370;}
	.st9{fill-rule:evenodd;clip-rule:evenodd;fill:#CCCCCC;}
	.st10{fill-rule:evenodd;clip-rule:evenodd;fill:#666666;}
	.st11{fill-rule:evenodd;clip-rule:evenodd;fill:#2E5273;}
	.st12{fill-rule:evenodd;clip-rule:evenodd;fill:#698099;}
	.st13{fill-rule:evenodd;clip-rule:evenodd;fill:#ABABAB;}
	.st14{fill-rule:evenodd;clip-rule:evenodd;fill:#454545;}
	.st15{fill-rule:evenodd;clip-rule:evenodd;fill:#D19161;}
	.st16{fill-rule:evenodd;clip-rule:evenodd;fill:#EDC9C2;}
	.st17{fill-rule:evenodd;clip-rule:evenodd;fill:#361200;}
	.st18{fill-rule:evenodd;clip-rule:evenodd;fill:#57331A;}
	.st19{fill-rule:evenodd;clip-rule:evenodd;fill:#3B210F;}
	.st20{fill-rule:evenodd;clip-rule:evenodd;fill:#FFFFFF;}
	.st21{fill-rule:evenodd;clip-rule:evenodd;}
	.st22{fill-rule:evenodd;clip-rule:evenodd;fill:#4F7396;}
	.st23{fill-rule:evenodd;clip-rule:evenodd;fill:#8AA3BA;}
	.st24{fill:#00A9CE;}
</style>
<rect x="-0.1" y="0.1" class="st0" width="391.3" height="391.3"/>
<polygon class="st1" points="29.4,279 126.6,272.6 126.6,390.5 29.4,390.5 "/>
<polygon class="st2" points="157.1,286.6 126.6,272.6 126.6,390.5 157.1,390.5 "/>
<polygon class="st3" points="87.1,275.5 87.1,390.5 71,390.5 71,276.5 "/>
<polygon class="st3" points="157.1,349.1 126.6,342.5 29.4,345.6 29.4,321.9 126.6,318.7 128.2,318.7 157.1,327.6 157.1,337.1 "/>
<polygon class="st3" points="147.6,282.2 147.6,390.5 138.7,390.5 138.7,278 "/>
<g>
	<path class="st4" d="M241.9,178.1c-2.6-2.2-4.4-4-4.7-4.8c-1-3.1,0.6-27.4,5.1-44c-3.1-3.2-13.1-6.2-16.8-2.1
		c-1.2,23.2-4.1,39.9-7,49.2c-3,9.3-31.2,34.6-40.3,67.2c0.2,8.4,5.9,12.1,8.6,14.7l10.4-13.4C206.9,218.7,225.2,194,241.9,178.1
		L241.9,178.1z"/>
	<path class="st5" d="M241.9,178.1c-0.5-0.5-1-0.9-1.5-1.3l-1.5,3.9l-7.5-2.8l2.8-7.5l2.7,1c0-0.7,0-1.5,0-2.4l-1.9-0.7l2.2-5.7
		c0.2-2.5,0.4-5.3,0.7-8.2l-1.3,3.5l-7.5-2.8l2.8-7.5l6.5,2.5c0.1-0.8,0.2-1.5,0.3-2.3l-6-2.3l2.8-7.5l4.5,1.7
		c0.1-0.7,0.3-1.5,0.4-2.2l-4.1-1.5l2.8-7.5l3,1.1l0-0.2c-2-2.1-7.1-4.1-11.3-4.1l6.2,2.3l-2.8,7.5l-7.5-2.8l2.6-6.9
		c-1,0.2-2,0.5-2.8,0.9l-1.3,3.4c-0.1,2.6-0.3,5.2-0.5,7.7l1.1-3l7.5,2.8l-2.8,7.5l-6.2-2.4c-0.1,0.8-0.1,1.5-0.2,2.3l5.7,2.1
		l-2.8,7.5l-3.8-1.4c-0.1,0.8-0.2,1.5-0.3,2.3l3.3,1.2l-2.8,7.5l-1.7-0.7c-0.1,0.8-0.3,1.5-0.4,2.2l1.4,0.5l-2.8,7.5l-0.4-0.1
		c-0.2,0.8-0.4,1.5-0.6,2.2l0.2,0.1l-2.8,7.5l-1.2-0.4c-0.4,0.6-0.9,1.2-1.4,1.9l1.7,0.7l-2.8,7.5l-4-1.5c-0.5,0.6-1,1.2-1.4,1.8
		l4.7,1.8l-2.8,7.5l-6.9-2.6c-2.5,3.3-5,6.8-7.5,10.5l0.4,0.2l-2.8,7.5L190,217c-0.4,0.6-0.8,1.3-1.2,2l2.3,0.9l-2.8,7.5l-3.3-1.2
		c-0.3,0.7-0.7,1.3-1,2l3.5,1.3l-2.8,7.5l-3.8-1.4c-0.3,0.7-0.5,1.4-0.8,2.1l3.8,1.4l-2.8,7.5l-2.7-1c0.1,0.9,0.3,1.8,0.6,2.6
		l1.3,0.5l-0.5,1.4c0.4,0.9,0.9,1.7,1.5,2.5l1.2-3.1l7.5,2.8l-1.5,3.9l4.7-6l2.5-6.7l1.8,0.7c0.3-0.7,0.5-1.4,0.8-2.1l-1.8-0.7
		l2.8-7.5l2.2,0.8c0.3-0.7,0.6-1.4,1-2l-2.3-0.9l2.8-7.5l3.2,1.2c0.4-0.7,0.7-1.3,1.1-2l-3.4-1.3l2.8-7.5l4.7,1.8
		c0.4-0.6,0.8-1.3,1.2-1.9l-5.1-1.9l2.8-7.5l6.8,2.6c0.4-0.6,0.9-1.3,1.3-1.9l-7.3-2.8l2.8-7.5l7.5,2.8l-2.6,6.8
		c1.9-2.7,3.9-5.4,6-7.9l-0.5-0.2l2.8-7.5l3,1.1c0.5-0.6,1-1.2,1.6-1.8l-3.8-1.4l2.8-7.5l6.8,2.6C238.9,181,240.4,179.5,241.9,178.1
		L241.9,178.1z M183.1,247.3l7.5,2.8l2.8-7.5l-7.5-2.8L183.1,247.3L183.1,247.3z M186.7,237.7l7.5,2.8l2.8-7.5l-7.5-2.8L186.7,237.7
		L186.7,237.7z M190.4,228.1l7.5,2.8l2.8-7.5l-7.5-2.8L190.4,228.1L190.4,228.1z M194,218.5l7.5,2.8l2.8-7.5l-7.5-2.8L194,218.5
		L194,218.5z M197.6,208.9l7.5,2.8l2.8-7.5l-7.5-2.8L197.6,208.9L197.6,208.9z M214.5,193.4l7.5,2.8l2.8-7.5l-7.5-2.8L214.5,193.4
		L214.5,193.4z M218.1,183.8l7.5,2.8l2.8-7.5l-7.5-2.8L218.1,183.8L218.1,183.8z M221.8,174.2l7.5,2.8l2.8-7.5l-7.5-2.8L221.8,174.2
		L221.8,174.2z M225.4,164.6l7.5,2.8l2.8-7.5l-7.5-2.8L225.4,164.6L225.4,164.6z"/>
	<path class="st6" d="M234.8,264.1c2.3-4.1,10-35,14.1-37.9c4.1-2.9,56.4-11.4,77-16.3c2.5-3.5,4.3-14.4,1.6-18.9
		c-18.8,9-49.8,3.1-58.3,2.8c-3.6-0.2-9.7-3.3-15.7-7.1c-4.4-2.8-8.6-5.9-11.7-8.5c-16.6,15.9-35,40.6-44.8,66.7l0.4-0.6l-1.2,13.9
		l-0.5,5.7C205.1,266.8,228,272.9,234.8,264.1L234.8,264.1z"/>
	<path class="st4" d="M236.7,259.1c0.2-0.7,0.4-1.4,0.7-2.1l-2.7-1l2.8-7.5l2.2,0.8c0.2-0.7,0.4-1.4,0.7-2.1l-2.1-0.8l2.8-7.5
		l1.7,0.6c0.2-0.7,0.5-1.4,0.7-2.1l-1.6-0.6l2.8-7.5l1.7,0.6c0.4-0.8,0.7-1.4,1-2l-2-0.7l2.8-7.5l7.5,2.8l-0.6,1.7
		c0.8-0.2,1.7-0.4,2.6-0.6l0.1-0.2l0.4,0.1c1.2-0.3,2.6-0.6,4-0.9l-3.6-1.3l2.8-7.5l7.5,2.8l-1.9,5c0.8-0.2,1.7-0.3,2.6-0.5l1.4-3.7
		l5.9,2.2c1.5-0.3,3-0.6,4.6-0.9l2.8-7.3l7.5,2.8l-1,2.7l2.6-0.5l0.5-1.4l2.3,0.9c1.4-0.3,2.8-0.5,4.2-0.8l-5.7-2.2l2.8-7.5l7.5,2.8
		l-2.4,6.4c0.9-0.2,1.7-0.3,2.6-0.5l1.9-5.1l7.5,2.8l-0.1,0.4c1.7-0.3,3.3-0.7,4.8-1l-1.8-0.7l2.8-7.5l7.1,2.7
		c0.2-0.7,0.4-1.4,0.5-2.2l-6.9-2.6l2.8-7.5l4.5,1.7c-0.1-0.9-0.3-1.8-0.5-2.6l-2.4-0.9c-1.2,0.5-2.5,1-3.9,1.4l-2.7,7.1l-7.5-2.8
		l0.9-2.2c-0.8,0.1-1.7,0.2-2.5,0.3l-0.4,1.2l-2.4-0.9c-1.9,0.1-3.8,0.2-5.6,0.3l7.2,2.7l-2.8,7.5l-7.5-2.8l2.8-7.4
		c-0.8,0-1.6,0-2.4,0l-2.5,6.6l-7.5-2.8l1.5-4c-0.8,0-1.6-0.1-2.3-0.2l-1.3,3.4l-7.5-2.8l0.5-1.3c-0.8-0.1-1.6-0.2-2.3-0.2l-0.3,0.7
		l-2.7-1c-2.2-0.2-4-0.4-5.3-0.5c-3.6-0.2-9.7-3.3-15.7-7.1c-0.5-0.3-1-0.6-1.4-0.9l-1.5-0.6l0.1-0.4c-0.6-0.4-1.3-0.9-1.9-1.3
		l-0.3,0.9l-7.5-2.8l1.2-3.1l-0.3-0.3c-1.5,1.4-2.9,2.9-4.4,4.4l0.7,0.3l-2.8,7.5l-3.7-1.4c-0.5,0.6-1,1.2-1.6,1.8l4.5,1.7l-2.8,7.5
		l-7-2.7c-2,2.6-4,5.2-6,7.9l-0.3,0.7l-0.2-0.1c-0.4,0.6-0.9,1.3-1.3,1.9l0.7,0.3l-2.8,7.5l-2.4-0.9c-0.4,0.6-0.8,1.3-1.2,1.9
		l2.8,1.1l-2.8,7.5l-4.1-1.5c-0.4,0.7-0.7,1.3-1.1,2l4.3,1.7l-2.8,7.5l-5.2-2c-0.3,0.7-0.6,1.4-1,2l5.3,2l-2.8,7.5l-5.7-2.1
		c-0.3,0.7-0.5,1.4-0.8,2.1l5.7,2.2l-2.8,7.5l-3.4-1.3l-0.2,2.3l2.8,1.1l-2.8,7.5l-0.6-0.2l-0.1,0.8c2.1,0.6,4.9,1.5,8,2.2l-5.2-2
		l2.8-7.5l7.5,2.8l-2.7,7.2c0.7,0.2,1.5,0.3,2.2,0.5l2.6-6.9l7.5,2.8l-2,5.2c0.8,0.1,1.6,0.1,2.3,0.2l1.8-4.6l7.5,2.8l-0.5,1.2
		c1.9-0.4,3.5-1,4.9-2l-1.5-0.6l2.8-7.5L236.7,259.1L236.7,259.1z M202.3,254.6l7.5,2.8l2.8-7.5l-7.5-2.8L202.3,254.6L202.3,254.6z
		 M205.9,245l7.5,2.8l2.8-7.5l-7.5-2.8L205.9,245L205.9,245z M209.6,235.4l7.5,2.8l2.8-7.5l-7.5-2.8L209.6,235.4L209.6,235.4z
		 M213.2,225.8l7.5,2.8l2.8-7.5l-7.5-2.8L213.2,225.8L213.2,225.8z M216.8,216.2l7.5,2.8l2.8-7.5l-7.5-2.8L216.8,216.2L216.8,216.2z
		 M220.5,206.6l7.5,2.8l2.8-7.5l-7.5-2.8L220.5,206.6L220.5,206.6z M211.9,258.2l7.5,2.8l2.8-7.5l-7.5-2.8L211.9,258.2L211.9,258.2z
		 M215.5,248.6l7.5,2.8l2.8-7.5l-7.5-2.8L215.5,248.6L215.5,248.6z M219.1,239l7.5,2.8l2.8-7.5l-7.5-2.8L219.1,239L219.1,239z
		 M222.8,229.4l7.5,2.8l2.8-7.5l-7.5-2.8L222.8,229.4L222.8,229.4z M226.4,219.8l7.5,2.8l2.8-7.5l-7.5-2.8L226.4,219.8L226.4,219.8z
		 M230.1,210.3l7.5,2.8l2.8-7.5l-7.5-2.8L230.1,210.3L230.1,210.3z M233.7,200.7l7.5,2.8l2.8-7.5l-7.5-2.8L233.7,200.7L233.7,200.7z
		 M237.3,191.1l7.5,2.8l2.8-7.5l-7.5-2.8L237.3,191.1L237.3,191.1z M221.5,261.9l7.5,2.8l2.8-7.5l-7.5-2.8L221.5,261.9L221.5,261.9z
		 M225.1,252.3l7.5,2.8l2.8-7.5l-7.5-2.8L225.1,252.3L225.1,252.3z M228.7,242.7l7.5,2.8l2.8-7.5l-7.5-2.8L228.7,242.7L228.7,242.7z
		 M232.4,233.1l7.5,2.8l2.8-7.5l-7.5-2.8L232.4,233.1L232.4,233.1z M236,223.5l7.5,2.8l2.8-7.5l-7.5-2.8L236,223.5L236,223.5z
		 M239.7,213.9l7.5,2.8l2.8-7.5l-7.5-2.8L239.7,213.9L239.7,213.9z M243.3,204.3l7.5,2.8l2.8-7.5l-7.5-2.8L243.3,204.3L243.3,204.3z
		 M246.9,194.7l7.5,2.8l2.8-7.5l-7.5-2.8L246.9,194.7L246.9,194.7z M249.2,217.5l7.5,2.8l2.8-7.5l-7.5-2.8L249.2,217.5L249.2,217.5z
		 M252.9,207.9l7.5,2.8l2.8-7.5l-7.5-2.8L252.9,207.9L252.9,207.9z M256.5,198.3l7.5,2.8l2.8-7.5l-7.5-2.8L256.5,198.3L256.5,198.3z
		 M262.5,211.6l7.5,2.8l2.8-7.5l-7.5-2.8L262.5,211.6L262.5,211.6z M266.1,202l7.5,2.8l2.8-7.5l-7.5-2.8L266.1,202L266.1,202z
		 M272.1,215.2l7.5,2.8l2.8-7.5l-7.5-2.8L272.1,215.2L272.1,215.2z M275.7,205.6l7.5,2.8l2.8-7.5l-7.5-2.8L275.7,205.6L275.7,205.6z
		 M285.3,209.3l7.5,2.8l2.8-7.5l-7.5-2.8L285.3,209.3L285.3,209.3z M308.1,206.9l7.5,2.8l2.8-7.5l-7.5-2.8L308.1,206.9L308.1,206.9z
		"/>
	<path class="st7" d="M228.6,131c0.8,3.9,11.2,2.5,10-1.7c0.4-2.5,2.2-18.1,3.1-19c0.9-0.9,8.7-3.2,8.3-4.4
		c-0.4-1.2,1.6-8.6,0.1-10.1c-1.4-1.5-10.5-3.7-11.6-3.2c-1.1,0.5-1.9,4.6-1,5.5c1,0.9,6.1,1.8,7.7,2.5c1.6,0.7,1,2-1.3,1.9
		s-12.7-1.3-15.9-1.1c-3.2,0.2,2.6,5.8,2.1,9c-0.5,3.2-0.6,14.8-1.6,21C228.6,131.1,228.6,130.8,228.6,131L228.6,131z"/>
	<path class="st8" d="M248.3,94.9c0.5-2.6,0.4-5.2-0.5-6.7c-1.5-2.3-4.4-1.6-5.3-0.8c-0.9,0.8-1,2.1-0.9,2.6
		c-1.8-1.9-10.8-0.2-12.1,1c-1.2,1-3.1,7.6-2.2,10.6c0.2-0.1,0.4-0.2,0.7-0.2c3.2-0.2,13.5,1,15.9,1.1s2.8-1.2,1.3-1.9
		c-1.6-0.7-6.7-1.6-7.7-2.5c-1-0.9-0.1-5,1-5.5C239.4,92.3,245.2,93.6,248.3,94.9L248.3,94.9z"/>
	<path class="st7" d="M321.9,204.6c-3.9-0.7-2.6-11.1,1.6-10c2.5-0.4,18.1-2.4,19-3.3c0.9-0.9,3.1-8.7,4.3-8.4
		c1.2,0.3,8.6-1.6,10.1-0.2c1.5,1.4,3.8,10.5,3.4,11.6c-0.5,1.1-4.5,2-5.5,1c-0.9-1-1.8-6.1-2.6-7.6c-0.7-1.5-2-1-1.8,1.3
		c0.2,2.3,1.5,12.7,1.3,15.9c-0.2,3.2-5.9-2.5-9-2c-3.2,0.5-14.8,0.8-21,1.8C321.9,204.6,322.2,204.5,321.9,204.6L321.9,204.6z"/>
	<path class="st8" d="M357.9,184.5c2.6-0.5,5.2-0.5,6.7,0.4c2.3,1.5,1.7,4.4,0.8,5.3c-0.8,0.9-2.1,1-2.6,0.9
		c1.9,1.7,0.3,10.8-0.8,12.1c-1,1.2-7.5,3.2-10.5,2.3c0.1-0.2,0.2-0.4,0.2-0.7c0.2-3.2-1.1-13.5-1.3-15.9c-0.2-2.3,1.1-2.9,1.8-1.3
		c0.7,1.5,1.6,6.7,2.6,7.6c0.9,1,5,0.1,5.5-1C360.6,193.4,359.2,187.6,357.9,184.5L357.9,184.5z"/>
	<path class="st9" d="M286.6,294.7c3.7-2.2,2.5-9.4,2.9-11.1c0.4-2.3-8.2-16.5-10-19.3c-3.3-5.3-10.1-0.2-12.9-3.3
		c0.1-0.2,0.1-0.3,0.2-0.5c1.2-2.7,2.5-5.1,3.9-5.1c2.9-0.1,5.7,0.3,8.7,3.8c2.9,3.5,6,11,6.7,11.4c0.7,0.4,4.3,5.1,5.1,7.6
		c0.9,2.5,1.4,10-0.4,13.7C290,293.4,288.4,294.3,286.6,294.7L286.6,294.7z"/>
	<path class="st10" d="M263.3,267.6c1,1.5,3.8,0,6.4-0.7c2.2-0.6,4.2-0.7,4.7,2.2c0.6,3.2,0.1,4.9-1,6.1c-0.9,1-2.3,1.6-3.7,2.2
		c2.4,2.4,6.9,8.6,7.6,9.3c0.9,0.9,1.4,4.6,3.2,6.7c0.4,0.4,1,0.8,1.7,1c1.2,0.4,2.8,0.5,4.2,0.3c3.7-2.2,2.5-9.4,2.9-11.1
		c0.4-2.3-8.2-16.5-10-19.3c-3.3-5.3-10.1-0.2-12.9-3.3c-1,2.2-1.9,4.5-2.9,6C263.6,267.2,263.5,267.4,263.3,267.6L263.3,267.6z"/>
	<path class="st7" d="M260.1,284.2c-2.5,1.8-8.3-7.2-5.8-7.1c0.9-1.5,6.4-6.8,8.9-9.3c0.1-0.1,0.1-0.2,0.2-0.2
		c1.8,2.8,10-4.7,11.2,1.4c1.1,6-1.6,6.9-4.6,8.3c-0.6-0.6-1.1-0.9-1.3-0.9c-0.2,0-0.5,0.2-0.9,0.5
		C265.2,278.6,260.2,284.3,260.1,284.2L260.1,284.2z"/>
	<path class="st11" d="M182.8,254.5c-1.5,23.7,5.7,57.1,10.9,60.7c7,4.9,30.5-11.9,36.3-15.8c0.5-3.1-2.7-11.7-5.1-11.9
		c-6.4-2.5-20.9,14.5-22.5,6.8c-1.3-6.2,5.8-20.3,8.3-26.7c-5.8-1-11.3-2.6-14.8-3.7l1.7-19.6l-10.8,13.9
		C185.7,257.2,184.2,256.1,182.8,254.5L182.8,254.5z"/>
	<path class="st12" d="M225.6,283.2c-2.1-0.8-11.2,3.7-11.3,4.7c-0.1,1,6.3,18.6,8.8,19.1c2.4,0.5,11.2-3.3,12.2-5.7
		C236.3,298.9,227.8,284.1,225.6,283.2L225.6,283.2z"/>
	<path class="st13" d="M246.8,315.2c4-0.7,5.3-7.3,6.1-8.7c1.1-1.9-1.7-17-2.3-20c-1.1-5.7-8.7-3.5-10.1-7.1
		c0.1-0.1,0.2-0.2,0.3-0.3c1.9-1.9,3.8-3.6,5-3.2c2.5,0.8,4.9,2.1,6.3,6.1c1.4,4,1.6,11.6,2.1,12.1c0.5,0.6,2,5.8,1.9,8.3
		c-0.1,2.5-2.1,9.1-4.9,11.7C250.1,315.2,248.4,315.5,246.8,315.2L246.8,315.2z"/>
	<path class="st14" d="M235.6,284c0.3,1.7,3.3,1.3,5.8,1.5c2.1,0.2,3.9,0.8,3.4,3.4c-0.5,2.9-1.5,4.3-2.8,4.9
		c-1.1,0.6-2.5,0.6-3.9,0.7c1.3,2.8,3.2,9.7,3.5,10.6c0.4,1.1-0.3,4.5,0.6,6.9c0.2,0.5,0.6,1,1.1,1.5c0.9,0.8,2.2,1.4,3.6,1.6
		c4-0.7,5.3-7.3,6.1-8.7c1.1-1.9-1.7-17-2.3-20c-1.1-5.7-8.7-3.5-10.1-7.1c-1.6,1.6-3.1,3.3-4.5,4.2
		C235.9,283.8,235.7,283.9,235.6,284L235.6,284z"/>
	<path class="st15" d="M227.2,297.4c-2.7,0.7-4.8-9-2.7-8.1c1.3-1,7.8-3.8,10.7-5.1c0.1,0,0.2-0.1,0.3-0.1c0.6,3.1,10.2-0.8,9.2,4.9
		c-1,5.5-3.7,5.4-6.8,5.7c-0.3-0.7-0.6-1.1-0.8-1.2c-0.2-0.1-0.5,0-1,0.1C233.6,294.2,227.4,297.5,227.2,297.4L227.2,297.4z"/>
	<path class="st16" d="M243.8,209.7c33.5-10.8,27.4-22.3,22.7-24.9c-4.7-2.6-36.3-6-48.3,1.7c6.7,0.8,16.6,5.7,16.7,5.8
		C238.2,194.1,244.5,203.1,243.8,209.7L243.8,209.7z"/>
	<path class="st8" d="M283.3,141.6c-6.6-2.2-14.5-2.7-22.7,1.6c-8.5,4.4-35.1,34.6-34.4,43.3c0.1,0.9,0.4,1.8,0.8,2.6
		c3.8-6.3,18.6-17.7,19.6-19c1.1-1.5-1.3-7.7,0.8-11C249.3,156.4,272,144.5,283.3,141.6L283.3,141.6z"/>
	<path class="st17" d="M241.4,161.6c-8.2,9.7-15.5,20.3-15.1,24.9c0.1,0.9,0.4,1.8,0.8,2.6c3.4-5.7,16.1-15.7,19-18.4
		C241.3,166.1,241.4,164.4,241.4,161.6L241.4,161.6z"/>
	<path class="st7" d="M282.6,186.5c-2.2-19.7,11.4-24.4,2.4-42.8c-0.3-0.6-0.6-1.2-1-1.9c-0.2-0.1-0.5-0.2-0.7-0.2
		c-11.3,2.8-34,14.8-35.9,17.5c-2.1,3.3,0.3,9.5-0.8,11c-1,1.3-15.8,12.7-19.6,19c0.2,0.4,0.5,0.9,0.9,1.3c5.1,6.2,20,9.7,26,9.4
		c7-0.4,12.2-3.4,14.4-4.7C275.8,204.8,297.8,190.6,282.6,186.5L282.6,186.5z"/>
	<path class="st18" d="M282.6,186.4c0-0.1,0-0.1,0-0.2c-5.8,0.4-15.9,5.6-21.6,3.3c-5.7-2.3-7.9-11.9-14.7-18.5l-0.2-0.2
		c-2.9,2.7-15.6,12.7-19,18.4c0.2,0.4,0.5,0.9,0.9,1.3c5.1,6.2,20,9.7,26,9.4c6.4-0.3,11.3-2.9,13.7-4.3
		C272.4,189.2,278.2,187.8,282.6,186.4L282.6,186.4z"/>
	<path class="st19" d="M267.2,140.7c-2.5-11.3,8.7-23,20.5-21c0.1,0.1-5.1-0.6-10.6,7.8c-1.4,2.1-3,2.9-3.1,5.5
		c5.7-4.2,8.8-14.1,24-5.1c0,0.1-7.4,2.4-7.7,2.4c2.8,1.4,18.2-1.1,25.6,12.3c-3.8-1.6-7.8-3.1-11.9-3.3
		c10.1,5.4,15.2,18.3,10.4,28.9c-1.6-4.3,4.3-1.8-5.1-17c2.2,8.6,0.4,15.3-6.1,22.3c-1.3,0.4,3.5,5.2,0.3,9
		c-0.2,0.2-0.3,0.5-0.2,0.6c-0.6-0.7,1.2-5-2.4-5.1c-3,1.3,3,5.1-14.6,10c-0.8-0.6-2-1.1-3.5-1.5c-2.3-20.4,12.3-24.7,1.5-44.7
		C279.1,140.1,273.3,139.3,267.2,140.7L267.2,140.7z"/>
	<path class="st20" d="M251.4,180c-3.2,2.3-12.7,2.9-14.8-0.4c-2.1-3.3,2-9.1,3.8-13.7C240,172.8,246.8,177.3,251.4,180L251.4,180z"
		/>
	<path d="M247.4,159.2c-0.2,0-0.4-0.1-0.6-0.1c-0.7-0.2-1.4-0.4-1.9-0.7c-0.8-0.5-1.2-1.2-1.5-1.9c-0.3-1.2,0-2.8,0.7-4.3
		c0.7-1.5,1.7-3,2.9-4.3c1.9-2.2,4.2-3.8,5.6-3.9l0,0c0.4,0,0.9,0,1.5,0.2c2,0.4,5,1.6,7.4,3c1,0.6,2,1.3,2.8,1.9
		c-0.4,0.2-0.8,0.4-1.2,0.6c-6.4,3.2-12.1,6.4-14.6,8.3C248.1,158.5,247.7,158.9,247.4,159.2C247.5,159.2,247.5,159.2,247.4,159.2
		L247.4,159.2z M263.2,149.7c-0.6-0.5-1.4-1-2.2-1.5c-2.3-1.4-5.1-2.5-7-2.9c-0.5-0.1-0.9-0.2-1.2-0.1l0,0c-1.1,0-3,1.5-4.8,3.5
		c-1.1,1.2-2.1,2.6-2.7,4c-0.6,1.3-0.9,2.5-0.6,3.4c0.1,0.5,0.4,0.9,0.9,1.2c0.4,0.3,0.9,0.4,1.5,0.6c0.5,0.1,1,0.2,1.5,0.2
		L263.2,149.7L263.2,149.7z"/>
	<path d="M264.8,152.7c1.1-0.5,2.5-0.2,3.9,0.5c1.9,0.9,4,2.7,6,4.8c1.9,2.1,3.7,4.4,4.8,6.5c1.2,2.2,1.7,4.1,1.2,5.2
		c-0.2,0.3-0.4,0.6-0.7,0.9c-0.3,0.3-0.6,0.6-1,0.8c0,0,0,0,0,0.1c0.2,1.3,0.4,2.6,0.6,3.9l0,0c0.6,3.7,1.2,7.5,1.2,10.9
		c-0.4,0-0.8,0.1-1.3,0.1c0-3.3-0.6-7.1-1.2-10.8l0,0c-0.2-1.2-0.4-2.4-0.6-3.5c-1.8,1-4.2,1.8-6.6,2.4c-3.8,0.8-7.8,1-10.2-0.2
		c-0.5-0.2-0.9-0.5-1.3-0.9c-0.3-0.3-0.6-0.7-0.9-1.2c-1.2-2.3-1.2-5.8-0.3-9.4c0.7-2.7,1.8-5.4,3.2-7.4c0-0.1,0.1-0.3,0.1-0.4
		c0.8-0.9,1.5-2.2,1.9-3.3l0,0l0,0c0.2-0.6,0.4-1.2,0.4-1.7c0-0.3,0-0.6-0.1-0.6l0,0c-0.1,0-0.1-0.1-0.2-0.1
		c0.4-0.2,0.8-0.4,1.2-0.6c0.2,0.4,0.3,0.8,0.3,1.4c0,0.6-0.2,1.3-0.5,2.1l0,0C264.9,152.4,264.9,152.5,264.8,152.7L264.8,152.7z
		 M268.2,154.3c-1.2-0.6-2.3-0.8-3.1-0.4c-0.4,0.2-0.9,0.6-1.3,1c-1.8,1.8-3.3,5-4.1,8.3c-0.8,3.2-0.9,6.5,0.2,8.5
		c0.2,0.3,0.4,0.6,0.6,0.9c0.3,0.3,0.6,0.5,1,0.7c2.2,1.1,5.9,0.9,9.4,0.1c3.5-0.8,6.8-2.2,8.2-3.6c0.2-0.2,0.4-0.4,0.5-0.6
		c0.4-0.7-0.1-2.2-1.1-4.1c-1.1-2-2.8-4.2-4.6-6.2C272,156.8,270,155.1,268.2,154.3L268.2,154.3z"/>
	<path class="st21" d="M267.6,159.5c0.8,0.7,0.3,2.5-1,4c-1.4,1.5-3.1,2.2-3.8,1.5c-0.8-0.7-0.3-2.5,1-4
		C265.1,159.5,266.8,158.8,267.6,159.5L267.6,159.5z"/>
	<path class="st21" d="M257.3,150.6c0.5,0.4,0.5,1.2,0.1,2.1c-2,1.1-3.8,2.1-5.3,3c-0.3-0.8,0.2-2.3,1.3-3.6
		C254.8,150.6,256.5,149.9,257.3,150.6L257.3,150.6z"/>
	<path class="st21" d="M261.3,144.1c3.1-0.5,5.2-1.7,6.4,2.3C266.5,143.9,263.8,144.2,261.3,144.1L261.3,144.1z"/>
	<path class="st21" d="M274.1,150.4c5.5-0.2,5.8,3.8,6.8,8.4C279.6,155.1,278.5,150.6,274.1,150.4L274.1,150.4z"/>
	<polygon class="st16" points="316.5,188.3 329.5,187.3 331.4,212 318.4,213 316.5,188.3 	"/>
	<polygon class="st16" points="221.9,135.1 223.9,122.3 246,125.8 244,138.6 221.9,135.1 	"/>
	<path class="st22" d="M196.1,246.1c0.2,1.6,0.5,3.3,0.8,5l0.6-6.8L196.1,246.1L196.1,246.1z M201.4,265.5
		c8.8,22.9,25.7,48.1,31.7,49.6c9,2.2,26.2-23.7,30.5-29.9c-0.7-3.3-7.2-10.7-9.7-10c-7.4,0-15.5,22.7-20.1,15.5
		c-2.9-4.5-2.4-15.8-2.1-24.1C224.3,270.5,210.6,268,201.4,265.5L201.4,265.5z"/>
	<path class="st23" d="M253,270.6c-2.5,0-9.8,8-9.6,9.1c0.2,1,13.6,16.3,16.2,15.9c2.6-0.4,10-7.7,10.1-10.5
		C269.7,282.3,255.5,270.6,253,270.6L253,270.6z"/>
</g>
<g>
	<path class="st24" d="M55.8,333.6c-0.2,1.3-1,2.5-2.3,3.4c-1.1,0.8-2.5,1.4-3.9,1.6c0,0-0.1,0-0.1,0c-0.1,0-0.4-0.5-0.8-1.4
		s-0.5-1.5-0.5-1.7c0-0.1,0.1-0.1,0.2-0.1c0.7-0.1,1.3-0.3,2-0.6c0.7-0.3,1.2-0.9,1.3-1.5c0.1-0.4-0.1-0.9-0.4-1.4
		c-0.6-0.9-0.9-1.4-1-1.5c-0.3-0.7-0.4-1.5-0.3-2.3c0.2-1.2,0.9-2.2,2.2-3c1.1-0.7,2.3-1.1,3.6-1.3c0.1,0,0.1,0,0.2,0
		c0.1,0,0.2,0.1,0.2,0.2c0.2,0.9,0.4,1.7,0.7,2.6c0,0,0,0.1,0,0.1c0,0.1-0.1,0.2-0.2,0.2c0,0,0,0,0,0c-0.1,0-0.2,0-0.3,0
		c-0.1,0-0.2,0-0.3,0c-0.5,0-0.9,0.1-1.3,0.3c-0.4,0.2-0.7,0.6-0.8,1c-0.1,0.4,0.1,0.9,0.4,1.5c0.6,1,1,1.6,1,1.6
		C55.8,332.1,55.9,332.9,55.8,333.6z"/>
	<path class="st24" d="M67.6,331l-1.2,6.8c0,0.2-0.2,0.4-0.3,0.4c-0.2,0-0.7,0-1.4,0c-0.5,0-1,0-1.5-0.1c-0.2,0-0.3-0.2-0.2-0.4
		c0.1-0.6,0.3-1.4,0.5-2.5c0.2-1.1,0.4-2,0.5-2.5c0.1-0.8-0.2-1.2-1-1.2c-0.3,0-0.7,0.1-1,0.3c-0.4,0.2-0.7,0.5-0.7,0.7l-0.4,2.4
		c-0.1,0.3-0.1,0.8-0.2,1.4s-0.2,1.1-0.2,1.4c0,0.2-0.2,0.4-0.4,0.4c-0.2,0-0.8,0-1.7,0c-0.4,0-0.8,0-1.1-0.1
		c-0.2-0.1-0.3-0.2-0.3-0.3c0.1-0.5,0.2-1.3,0.4-2.3c0.2-1,0.3-1.8,0.4-2.3c0.4-2.1,0.7-3.9,0.9-5.3c0.1-0.5,0.1-1,0.2-1.5
		c0.1-0.5,0.1-1,0.1-1.5c0-0.1,0-0.1,0-0.2c0-0.1,0.1-0.2,0.2-0.2c0.3-0.1,0.6-0.1,0.9-0.1c0.5,0,0.8,0,0.9,0l1.8-0.2
		c0.1,0,0.1,0.1,0.1,0.2c0,0.2-0.1,0.5-0.2,0.9c-0.1,0.4-0.2,0.7-0.2,0.9c-0.3,1.5-0.5,2.7-0.7,3.5c0,0.1,0,0.2,0.1,0.2
		c0,0,0.2-0.1,0.6-0.3c0.4-0.2,0.8-0.5,1.2-0.6c0.5-0.2,1-0.3,1.6-0.3c0.8,0,1.5,0.2,2,0.7C67.6,329.5,67.8,330.2,67.6,331z"/>
	<path class="st24" d="M72.4,333.6c-0.1,0.5-0.2,1.2-0.3,2.1s-0.3,1.7-0.3,2.1c0,0.1-0.1,0.2-0.3,0.2c-0.5,0.1-1,0.1-1.5,0.1
		c-0.5,0-1,0-1.5-0.1c-0.1,0-0.2-0.1-0.2-0.1c0-0.1,0-0.2,0-0.3c0.1-0.5,0.2-1.1,0.4-2c0.2-0.9,0.3-1.6,0.4-2.1
		c0.3-1.5,0.5-3,0.6-4.4c0-0.1,0-0.1,0-0.2c0-0.1,0.1-0.2,0.3-0.2c0.2,0,0.5,0,0.8,0.1c0.4,0,0.6,0.1,0.8,0.1s0.5,0,0.9,0
		c0.4,0,0.7,0,0.9,0c0.2,0,0.2,0.1,0.2,0.2c0,0,0,0.1-0.1,0.2C73,330.6,72.7,332.1,72.4,333.6z M74,326.3c-0.2,1.1-0.9,1.7-2.2,1.7
		c-0.5,0-0.9-0.1-1.3-0.4c-0.3-0.3-0.5-0.7-0.4-1.3c0.1-0.5,0.4-1,0.8-1.3c0.4-0.3,0.9-0.5,1.4-0.5c0.5,0,0.9,0.1,1.2,0.5
		C73.9,325.4,74.1,325.9,74,326.3L74,326.3z"/>
	<path class="st24" d="M85.2,333.4c-0.2,1.3-0.9,2.6-1.9,3.5c-1,0.9-2.3,1.4-3.6,1.4c-0.5,0-1.1-0.1-1.6-0.4
		c-0.5-0.2-0.8-0.4-0.7-0.4c-0.1,0-0.1,0.1-0.2,0.3c-0.1,0.3-0.1,0.8-0.2,1.5s-0.2,1.2-0.2,1.5c0,0.2-0.2,0.3-0.4,0.3c0,0,0,0,0,0
		l-2,0c-0.3,0-0.6,0-0.9,0c-0.2,0-0.3-0.2-0.2-0.3c0,0,0,0,0,0l1.4-7.6c0.2-1.3,0.4-2.6,0.3-3.9c0-0.1,0-0.1,0-0.2
		c0-0.1,0.1-0.2,0.2-0.2c0.5-0.1,1-0.3,1.5-0.3c0.5-0.1,1-0.2,1.6-0.2c0.3,0,0.4,0.2,0.3,0.5c0,0.3,0,0.5,0,0.5
		c-0.1,0,0.2-0.2,0.9-0.5s1.3-0.5,1.8-0.5c1.4,0,2.5,0.5,3.2,1.4C85.2,330.8,85.4,331.9,85.2,333.4z M81.6,333.4
		c0.1-0.5,0-1-0.2-1.4c-0.3-0.4-0.7-0.6-1.2-0.6c-0.5,0-1,0.2-1.4,0.6c-0.3,0.4-0.6,0.9-0.7,1.4c-0.1,0.6,0,1,0.2,1.4
		c0.2,0.4,0.6,0.6,1.2,0.6C80.6,335.4,81.3,334.7,81.6,333.4L81.6,333.4z"/>
	<path class="st24" d="M90.1,333.6c-0.1,0.5-0.2,1.2-0.3,2.1s-0.3,1.7-0.3,2.1c0,0.1-0.1,0.2-0.3,0.2c-0.5,0.1-1,0.1-1.5,0.1
		c-0.5,0-1,0-1.5-0.1c-0.1,0-0.2-0.1-0.2-0.1c0-0.1,0-0.2,0-0.3c0.1-0.5,0.2-1.1,0.4-2c0.2-0.9,0.3-1.6,0.4-2.1
		c0.3-1.5,0.5-3,0.6-4.4c0-0.1,0-0.2,0-0.2c0-0.1,0.1-0.2,0.3-0.2c0.2,0,0.5,0,0.8,0.1c0.4,0,0.6,0.1,0.8,0.1c0.2,0,0.5,0,0.9,0
		c0.4,0,0.7,0,0.9,0c0.2,0,0.2,0.1,0.2,0.2c0,0,0,0.1-0.1,0.2C90.7,330.6,90.3,332.1,90.1,333.6z M91.6,326.3
		c-0.2,1.1-0.9,1.7-2.2,1.7c-0.5,0-0.9-0.1-1.3-0.4c-0.3-0.3-0.5-0.7-0.4-1.3c0.1-0.5,0.4-1,0.8-1.3c0.4-0.3,0.9-0.5,1.4-0.5
		c0.5,0,0.9,0.1,1.2,0.5C91.6,325.4,91.7,325.9,91.6,326.3L91.6,326.3z"/>
	<path class="st24" d="M98.2,335.2c-0.1,0.3-0.1,0.6-0.2,0.9c-0.1,0.3-0.2,0.6-0.2,0.9c0,0.1-0.1,0.3-0.1,0.4
		c-0.1,0.1-0.2,0.2-0.4,0.2c-0.9,0.5-1.9,0.7-2.9,0.7c-1.9,0-2.7-0.7-2.5-2.2c0.1-0.4,0.2-1.1,0.4-1.9s0.3-1.5,0.4-1.9
		c0.1-0.3-0.1-0.4-0.4-0.4h-0.1c-0.1,0-0.1,0-0.1,0c-0.2,0-0.4-0.1-0.3-0.3c0-0.1,0.1-0.3,0.1-0.5c0.1-0.2,0.1-0.4,0.1-0.5
		c0-0.1,0.1-0.3,0.1-0.6c0-0.3,0.1-0.5,0.1-0.6c0-0.1,0.2-0.2,0.7-0.2c0.2,0,0.4-0.1,0.4-0.2c0.1-0.4,0.2-0.8,0.2-1.2
		c0.1-0.8,0.2-1.2,0.2-1.2c0.1-0.8,0.3-1.1,0.4-1.1c0.2,0,0.5,0.1,0.7,0.1c0.2,0.1,0.5,0.1,0.8,0.1c0.3,0,0.8,0.1,1.5,0.2
		c0.2,0,0.2,0.1,0.2,0.2c0,0.3-0.1,0.7-0.3,1.2c-0.1,0.5-0.2,0.9-0.3,1.2c-0.1,0.3,0,0.5,0.2,0.5c0.2,0,0.6,0,1,0c0.5,0,0.8,0,1.1,0
		c0.1,0,0.2,0,0.2,0.1c0,0.2-0.1,0.4-0.2,0.7s-0.1,0.5-0.2,0.7c0,0.2-0.1,0.4-0.1,0.7s-0.1,0.5-0.1,0.7c0,0.1-0.1,0.2-0.3,0.2
		c-0.1,0-0.4,0-0.7,0s-0.5,0-0.7,0h-0.7c-0.1,0-0.2,0.1-0.2,0.4l-0.1,0.7c0,0.3-0.1,0.5-0.1,0.7c-0.1,0.6-0.1,0.9,0,1.1
		c0.1,0.3,0.4,0.4,1,0.4c0.2,0,0.5,0,0.7-0.1c0.2-0.1,0.4-0.1,0.7-0.1C98.2,335,98.3,335.1,98.2,335.2z"/>
	<path class="st24" d="M109.1,333.3c-0.2,1.4-0.9,2.7-2,3.6c-1.1,0.9-2.4,1.4-3.8,1.4c-1.4,0-2.5-0.5-3.3-1.4s-1-2.1-0.8-3.5
		c0.3-1.5,0.9-2.8,2-3.7s2.3-1.4,3.9-1.4c1.5,0,2.6,0.5,3.4,1.4C109.1,330.6,109.3,331.8,109.1,333.3z M105.9,333.3
		c0.1-0.5,0-1-0.2-1.4c-0.2-0.4-0.7-0.6-1.1-0.6c-0.5,0-1,0.2-1.4,0.6c-0.4,0.4-0.6,0.8-0.7,1.4c-0.1,0.5,0,1,0.2,1.4
		c0.3,0.4,0.7,0.6,1.2,0.6c0.5,0,1-0.2,1.4-0.6C105.5,334.3,105.8,333.8,105.9,333.3z"/>
	<path class="st24" d="M109.8,326.5C109.8,326.5,109.8,326.5,109.8,326.5c-0.1,0-0.1,0-0.2,0c-0.1,0-0.1,0-0.2,0h0c0,0,0,0,0,0
		l0-0.1c0-0.1-0.1-0.1-0.1-0.3c0,0,0,0-0.1,0h-0.1c0,0,0,0,0,0c0,0,0,0.1,0,0.2c0,0.1,0,0.1,0,0.2c0,0,0,0,0,0h0h-0.2
		c-0.1,0-0.1,0-0.2,0c0,0,0,0,0,0c0-0.1,0-0.2,0-0.3c0-0.1,0-0.2,0-0.3c0-0.3,0-0.4,0-0.6v0c0,0,0,0,0,0c0,0,0.1,0,0.3,0h0.3
		c0.1,0,0.2,0,0.3,0.1c0.1,0.1,0.2,0.2,0.1,0.3c0,0.1,0,0.1,0,0.2c0,0.1-0.1,0.1-0.1,0.2c0,0,0,0,0,0l0.1,0.2
		C109.8,326.3,109.8,326.4,109.8,326.5z M109.4,325.7c0-0.1,0-0.1-0.1-0.2c-0.1,0-0.1,0-0.2,0c-0.1,0-0.1,0-0.1,0c0,0.1,0,0.1,0,0.2
		c0,0,0,0,0,0.1c0,0,0,0,0,0.1s0,0,0,0c0,0,0.1,0,0.1,0C109.4,325.8,109.4,325.8,109.4,325.7L109.4,325.7z"/>
	<path class="st24" d="M109.3,327.1c-0.7,0-1.3-0.6-1.3-1.3c0-0.7,0.6-1.3,1.3-1.3c0.7,0,1.3,0.6,1.3,1.3l0,0
		C110.6,326.6,110,327.1,109.3,327.1z M109.3,324.9c-0.6,0-1,0.5-1,1c0,0.6,0.5,1,1,1c0.6,0,1-0.5,1-1c0,0,0,0,0,0
		C110.3,325.3,109.9,324.9,109.3,324.9z"/>
</g>
</svg>
