<svg xmlns="http://www.w3.org/2000/svg" viewBox="0 0 258.1 155.9"><defs><style>.cls-1{fill:#403d3c;}.cls-2{fill:#f7f7f7;}.cls-3{fill:#888;}.cls-4{fill:#b9d7f2;}.cls-5{fill:#fff;}.cls-6{fill:#eeefef;}.cls-7{fill:#dcdcdc;}.cls-8{fill:#65a6de;}.cls-9{fill:#00a9ce;}.cls-10{isolation:isolate;}.cls-11{fill:#919090;}.cls-12{fill:#96cde6;stroke:#3a6080;stroke-linecap:round;stroke-linejoin:round;stroke-width:0.5px;}.cls-13{fill:#8f003e;}.cls-14{fill:#b80050;}.cls-15{fill:#c54354;}.cls-16{fill:#292726;}.cls-17{fill:#595858;}.cls-18{fill:#9e9e9f;}.cls-19{fill:#c8c8c9;}.cls-20{fill:#dd9610;}.cls-21{fill:#e7b53e;}.cls-22{fill:#cd5621;}.cls-23{fill:#335991;}.cls-24{fill:#3f6eb4;}.cls-25{fill:#3862a1;}.cls-26{fill:#a71628;}.cls-27{fill:#3a6080;}.cls-28{fill:#2a455c;}.cls-29{fill:#db4665;}</style></defs><g id="Layer_2" data-name="Layer 2"><g id="Layer_1-2" data-name="Layer 1"><path class="cls-1" d="M51.3,155.9H3.3A3.1,3.1,0,0,1,0,152.6v-96a3.26,3.26,0,0,1,3.3-3.3h48a3.55,3.55,0,0,1,3.3,3.3v96A3.33,3.33,0,0,1,51.3,155.9Z"/><rect class="cls-2" x="3" y="65.5" width="48.7" height="76.5"/><path class="cls-3" d="M32.4,60.6H22.2a.7.7,0,1,1,0-1.4H32.5a.75.75,0,0,1,.7.7A1,1,0,0,1,32.4,60.6Z"/><path class="cls-3" d="M19.8,59.9c0-.7-.3-1-1-1s-1,.3-1,1,.3,1,1,1S19.8,60.6,19.8,59.9Z"/><path class="cls-4" d="M6.3,85.4v25.2a1.4,1.4,0,0,0,1.3,1.3H47a1.4,1.4,0,0,0,1.3-1.3V85.4Z"/><path class="cls-2" d="M18.8,94.7c1.3-.7,8.3-3.6,8.6-4a10.71,10.71,0,0,1,4.3-2.3c.7,0,.7.7,1,1s2.6,2.3.7,3.6-15.6,5-15.9,4C16.5,95.6,17.9,95,18.8,94.7Z"/><path class="cls-1" d="M31.4,90.4a5,5,0,0,0-.7-1.7,16.21,16.21,0,0,0-3.6,2,.29.29,0,0,0-.3.3c.3.7.7,1.3,1,1.3C28.1,92.7,31.4,91,31.4,90.4Z"/><path class="cls-5" d="M10.9,104.3c-.7,0-1-1.7-.7-2.3-.3-5.3,4-6.3,7-5.6.3,0,10.3-5,12.2-5.6,2.3-1,4.6,3.3,6.6,3.3,2.3,0,5.3-1.3,5.3-2,.3-1,1-2.6,2-1s2,8.9,1,10.9c.3.3.3,2.3-.3,2.3H10.9Z"/><path class="cls-1" d="M39,95a5.94,5.94,0,0,0,2.6-.7c.7,1,1.3,1,2.6,1a21.1,21.1,0,0,0-1-4.3c-1-1.7-1.7,0-2,1-.3.7-2,1.7-4,2C37.4,95,37.7,95,39,95Z"/><path class="cls-6" d="M31.8,91.3c-1-.7-1.7-1-2.6-.7-2,.7-11.6,5.6-12.2,5.6a12.29,12.29,0,0,0-.3,2C17.9,98,27.8,93,31.8,91.3Z"/><path class="cls-5" d="M16.5,101.9H44.3c.7-1.3.3-4,0-6.6-1,0-2,0-2.6-1-.7.3-2,.3-2.6.7-1.3,0-1.7,0-2-1H35.4c-1.3,0-2.6-1.7-4-2.6-4,1.7-13.9,6.6-15.2,7C16.5,99.3,16.2,100.6,16.5,101.9Z"/><path class="cls-2" d="M16.5,98.3h0a8,8,0,0,1,.3-2c-3-.3-7.3.7-7,5.6h6.4C16.2,100.6,16.5,99.3,16.5,98.3Z"/><path class="cls-7" d="M44,101.9H10.2c-.3.7,0,2.3.7,2.3H43.6C44.3,104.3,44.3,102.3,44,101.9Z"/><path class="cls-5" d="M17.9,97.3a.29.29,0,0,1-.3-.3h0l.7-2a.29.29,0,0,1,.3-.3h.3l1.3.7.7-2a.29.29,0,0,1,.3-.3h0l1.7.7,1-2a.29.29,0,0,1,.3-.3h0l1.7.7.7-1.7a.29.29,0,0,1,.3-.3h.3l2.3.7a.29.29,0,0,1,.3.3h0a.29.29,0,0,1-.3.3h0l-2-.7-.7,1.7a.29.29,0,0,1-.3.3h-.3l-1.7-.7-1,2a.29.29,0,0,1-.3.3h0l-1.7-.7-.7,2a.29.29,0,0,1-.3.3h-.3l-1.3-.7L18.6,97h0c-.1,0-.4.3-.7.3Z"/><path class="cls-1" d="M22.2,96l2,6h2l-2.6-7A7.1,7.1,0,0,0,22.2,96Z"/><path class="cls-1" d="M25.5,94.3l3,7.6h2l-3.3-8.6A6.93,6.93,0,0,1,25.5,94.3Z"/><path class="cls-8" d="M47,83.1H7.6a1.4,1.4,0,0,0-1.3,1.3v1.3H48.7V84.4A2.36,2.36,0,0,0,47,83.1Z"/><rect class="cls-9" x="13.2" y="124.8" width="27.1" height="11.9"/><g class="cls-10"><path class="cls-5" d="M21.5,127.8c1,0,1.6.5,1.6,1.3a1,1,0,0,1-.9,1.1,1.3,1.3,0,0,1,1.2,1.3c0,.9-.7,1.4-1.8,1.4H19.4v-5.1ZM19.9,130h1.5c.7,0,1.1-.3,1.1-.8s-.4-.8-1.1-.8H19.9Zm0,2.3h1.5c.8,0,1.3-.3,1.3-.9s-.5-.9-1.3-.9H19.9Z"/><path class="cls-5" d="M28.7,130.8a1.94,1.94,0,0,1-2.1,2.1,1.94,1.94,0,0,1-2.1-2.1v-3h.6v3a1.47,1.47,0,0,0,1.6,1.6,1.4,1.4,0,0,0,1.5-1.6v-3h.6v3Z"/><path class="cls-5" d="M31.9,132.8h-.6v-1.7l-2-3.4h.6l1.6,2.7,1.6-2.7h.6L31.8,131v1.8Z"/></g><path class="cls-11" d="M239,113.2H96.3a6.34,6.34,0,0,1-6.3-6.3V6.3A6.34,6.34,0,0,1,96.3,0H239a6.34,6.34,0,0,1,6.3,6.3V106.6A6.61,6.61,0,0,1,239,113.2Z"/><path class="cls-6" d="M77.4,109.2H257.8v7.9a2.58,2.58,0,0,1-2.6,2.6H79.8a2.58,2.58,0,0,1-2.6-2.6v-7.9Z"/><path class="cls-11" d="M77.4,116.8a3,3,0,0,0,3.3,3H254.8a3.21,3.21,0,0,0,3.3-3v-.7H77.4Z"/><rect class="cls-12" x="97.6" y="7.6" width="139.7" height="93.4"/><rect class="cls-5" x="113.5" y="18.5" width="45" height="47.7"/><rect class="cls-5" x="162.2" y="18.5" width="29.1" height="31.8"/><rect class="cls-5" x="162.2" y="53.9" width="29.1" height="31.8"/><rect class="cls-5" x="195.3" y="18.5" width="29.1" height="31.8"/><rect class="cls-5" x="195.3" y="53.9" width="29.1" height="31.8"/><path class="cls-13" d="M166.5,40l-.3,1.7c-.3,1,0,1.3,1,1.3.3,0,1.3.3,1.3,0l.3-2.3Z"/><path class="cls-13" d="M187.4,40l.3,1.7c.3,1,0,1.3-1,1.3-.3,0-1.3.3-1.3,0l-.7-2.3Z"/><path class="cls-13" d="M182.7,29.8a7.29,7.29,0,0,0-1-2.3,8.08,8.08,0,0,0-4.6-1.3c-1.7,0-3.6.3-4.6,1.3a7.29,7.29,0,0,0-1,2.3c-1,5.3-.7,15.6-.7,15.6,0,.3.3,1,.7,1h11.6c.3,0,.7-.3.7-1C183.7,45.3,183.7,35.1,182.7,29.8Z"/><path class="cls-14" d="M187.7,40l-2.3-10.9c-.3-2-1.3-4.6-2.6-5-1,0-1.3,1.7-1,2.6l3,14.9c0,.7,1.3.3,1.7.3C187.7,41.7,187.7,41.4,187.7,40Z"/><path class="cls-14" d="M171.1,24.5c-1.3.3-2.3,3-2.6,5l-2.3,10.9c-.3,1,0,1.7,1,1.7.7,0,1.7.3,1.7-.3l3-14.9C172.1,25.8,172.1,24.1,171.1,24.5Z"/><path class="cls-15" d="M183.4,26.5a7.29,7.29,0,0,0-1-2.3c-1.3-1-3.6-1.3-5.3-1.3a10.39,10.39,0,0,0-5.3,1.3c-.7.3-1,1.3-1,2.3-1.3,6-1,16.9-1,16.9,0,.7.3,1,1,1h12.6c.3,0,.7-.3,1-1C184,43.7,184.4,32.4,183.4,26.5Z"/><path class="cls-14" d="M179.4,39.7h-5.3a.29.29,0,0,1-.3-.3c0-.3,0-.3.3-.3h5.3a.3.3,0,0,1,0,.6Z"/><path class="cls-14" d="M181.4,31.4c-.3-.7-1.3-.3-2.6,1.3a17.43,17.43,0,0,0-1,2.3c0-.7.3-1.7.3-2.3,0-2.3-.7-4-1-4-.7,0-1,1.3-1,4a5.83,5.83,0,0,0,.3,2.3,9.22,9.22,0,0,0-1-2c-1-1.7-2-2-2.6-1.3-.3.7,0,2.3,1,4a5.19,5.19,0,0,0,3.3,2.3,4.74,4.74,0,0,0,3.3-2.3C181.4,33.4,181.7,32.1,181.4,31.4Z"/><path class="cls-13" d="M177.1,25.8c1.3,0,2.3-1,2.6-3a9,9,0,0,0-2.6-.3,7.43,7.43,0,0,0-2.6.3C174.4,24.8,175.4,25.8,177.1,25.8Z"/><path class="cls-14" d="M177.1,26.5a3,3,0,0,1-3-3.3.75.75,0,0,1,.7-.7v.7a2,2,0,1,0,4,0,.7.7,0,1,1,1.4,0A3.3,3.3,0,0,1,177.1,26.5Z"/><rect class="cls-16" x="129.4" y="53.3" width="11.6" height="7.3"/><path class="cls-17" d="M152.6,51.3l.7,2.3c.3,1.3,0,2-1.3,2.3-.7.3-2,.3-2.3-.3l-.7-3.3Z"/><path class="cls-17" d="M119.2,51.3l-.7,2.3c-.3,1.3,0,2,1.3,2.3.7.3,2,.3,2.3-.3l.7-3.3Z"/><path class="cls-1" d="M118.8,51l3.6-16.6c.7-3,2.3-7,4.3-7.6,1.7-.3,1.7,2.3,1.3,4l-5,22.8c-.3,1-2,.7-2.6.3C118.8,53.3,118.5,52.6,118.8,51Z"/><path class="cls-1" d="M145,26.8c2,.3,3.6,4.6,4.3,7.6L152.9,51c.3,1.7,0,2.3-1.7,2.6-.7.3-2.6.7-2.6-.3l-5-22.8C143.3,29.1,143.7,26.5,145,26.8Z"/><path class="cls-16" d="M125.8,30.4a8.06,8.06,0,0,1,1.7-3.6c2.3-1.7,5.6-2,8.3-2s6,.3,8.3,2a10.06,10.06,0,0,1,1.7,3.6c2,8.9,1.3,26.2,1.3,26.2a1.4,1.4,0,0,1-1.3,1.3H125.6a1.4,1.4,0,0,1-1.3-1.3C124.5,56.3,123.8,39.4,125.8,30.4Z"/><path class="cls-1" d="M138.4,56.3h7.9v3a1.4,1.4,0,0,1-1.3,1.3h-6.6V56.3Z"/><path class="cls-1" d="M133.1,56.3v4h-6.6a1.4,1.4,0,0,1-1.3-1.3V56h7.9v.3Z"/><path class="cls-16" d="M135.7,29.4c-2.3,0-4-1.7-4.3-4.6a20.75,20.75,0,0,1,4.3-.3,20.75,20.75,0,0,1,4.3.3C139.7,27.5,138,29.4,135.7,29.4Z"/><path class="cls-17" d="M139.7,24.8a2.58,2.58,0,0,1-1.3-.3C138.7,24.8,139,24.8,139.7,24.8Z"/><path class="cls-17" d="M140,24.8a8.41,8.41,0,0,1,4,1.7,10.06,10.06,0,0,1,1.7,3.6c2,8.9,1.3,26.2,1.3,26.2a1.4,1.4,0,0,1-1.3,1.3h-8.3V28.8C138.7,28.4,139.7,26.8,140,24.8Z"/><path class="cls-1" d="M137,29.4h.3a5.3,5.3,0,0,0,4-4.3,1.45,1.45,0,0,0-1-.3c-.7-.3-1-.3-1,0a3.56,3.56,0,0,1-2.6,3c-.7.3-.7.7-.3,1S136.7,29.4,137,29.4Z"/><path class="cls-17" d="M138,29.4h0l-1-2v-.3h.3l.7,2.3c.4-.3.4,0,0,0Z"/><path class="cls-17" d="M139.7,28.4h0L138,27.1v-.3h.3l1.4,1.6Z"/><path class="cls-17" d="M140.7,27.5h0l-1.7-1v-.3h.3l1.7,1c0-.1,0-.1-.3.3Z"/><path class="cls-17" d="M141.3,26.1h0l-2-.7s-.3,0,0-.3h.3l2,.7c.1,0,.1,0-.3.3Z"/><path class="cls-17" d="M131.7,24.8a2.58,2.58,0,0,0,1.3-.3C132.7,24.8,132.4,24.8,131.7,24.8Z"/><path class="cls-17" d="M131.4,24.8a13.06,13.06,0,0,0-4,1.7,10.06,10.06,0,0,0-1.7,3.6c-2,8.9-1.3,26.2-1.3,26.2a1.4,1.4,0,0,0,1.3,1.3H134V28.8C132.7,28.4,131.7,26.8,131.4,24.8Z"/><path class="cls-1" d="M134.4,29.4h-.3a5.3,5.3,0,0,1-4-4.3,1.45,1.45,0,0,1,1-.3c.7-.3,1-.3,1,0a3.56,3.56,0,0,0,2.6,3c.3,0,.3.3,0,1C134.7,29.1,134.7,29.4,134.4,29.4Z"/><path class="cls-17" d="M133.4,29.4h0c-.3,0-.3-.3,0,0l.7-2h.3v.3l-1,1.7Z"/><path class="cls-17" d="M131.7,28.4h0l1.3-1.7h.3V27l-1.6,1.4Z"/><path class="cls-17" d="M130.7,27.5h0c-.3-.3-.3-.3,0-.3l1.7-1h.3v.3l-2,1Z"/><path class="cls-17" d="M130.1,26.1h0c-.3-.3,0-.3,0-.3l2-.7h.3v.3l-2.3.7Z"/><path class="cls-1" d="M141.7,55.6c-.7-1.3-1-3.3-1-7.3a49.46,49.46,0,0,0,5-.7c.7,4.3.7,6.6,0,7.9h-4Z"/><path class="cls-1" d="M129.8,55.6c.7-1.3,1-3.3,1-7.3a49.46,49.46,0,0,1-5-.7c-.7,4.3-.7,6.6,0,7.9h4Z"/><path class="cls-16" d="M143.7,34.1a2.15,2.15,0,0,1-2,2,1.94,1.94,0,0,1-2-2,2.15,2.15,0,0,1,2-2C143,32.4,143.7,33.1,143.7,34.1Z"/><path class="cls-1" d="M143.3,34.1a1.7,1.7,0,1,1-1.7-1.7A1.82,1.82,0,0,1,143.3,34.1Z"/><polygon class="cls-17" points="141.7 32.7 142.3 33.7 143 33.7 142.7 34.4 142.7 35.4 141.7 34.7 141 35.4 141 34.4 140.3 33.7 141.3 33.7 141.7 32.7"/><path class="cls-1" d="M166.8,75.5l-.3,1.3c-.3,1,0,1.3.7,1.3.3,0,1.3.3,1.3,0l.3-2Z"/><path class="cls-1" d="M186.7,75.5l.3,1.3c.3,1,0,1.3-.7,1.3-.3,0-1.3.3-1.3,0l-.3-2Z"/><path class="cls-18" d="M182.4,65.5a5.15,5.15,0,0,0-1-2,7.49,7.49,0,0,0-4.6-1.3,8.08,8.08,0,0,0-4.6,1.3,9.22,9.22,0,0,0-1,2c-1,5.3-.7,14.9-.7,14.9a.75.75,0,0,0,.7.7h10.9a.75.75,0,0,0,.7-.7C183.1,80.4,183.4,70.8,182.4,65.5Z"/><path class="cls-17" d="M187,75.5l-2.3-10.6c-.3-2-1.3-4.3-2.6-4.6-.7,0-.7,1.3-.7,2.6l3,14.2c0,.7,1.3.3,1.7.3C187,76.8,187.4,76.4,187,75.5Z"/><path class="cls-17" d="M171.5,60.2c-1.3.3-2.3,2.6-2.6,4.6l-2,10.6c-.3,1,0,1.3,1,1.7.3,0,1.7.3,1.7-.3l3-14.2C172.5,61.5,172.5,60.2,171.5,60.2Z"/><path class="cls-6" d="M183.1,62.5a7.29,7.29,0,0,0-1-2.3,8.52,8.52,0,0,0-5-1.3,8.72,8.72,0,0,0-5,1.3,3.8,3.8,0,0,0-1,2.3c-1,5.6-.7,16.2-.7,16.2,0,.3.3,1,.7,1H183c.3,0,.7-.3.7-1C183.7,78.8,184,68.2,183.1,62.5Z"/><path class="cls-18" d="M177.1,61.9c1.3,0,2.3-1,2.6-2.6a9,9,0,0,0-2.6-.3,8.32,8.32,0,0,0-2.6.3C174.8,60.9,175.4,61.9,177.1,61.9Z"/><path class="cls-19" d="M177.1,62.2a3,3,0,0,1-3-3,.3.3,0,1,1,.6,0,2,2,0,1,0,4,0,.29.29,0,0,1,.3-.3l.3.3C179.7,61.2,178.7,62.2,177.1,62.2Z"/><path class="cls-19" d="M178.1,64.9v2.3h.7v1.3h-.7v.3h.3v1.3h-2.3V68.8h.3v-.3h-2v-1l2-2.6Zm-1.7,1.6-.3.7h.3Z"/><path class="cls-19" d="M175.8,71.8v.7h0v.7l-.3.3h-1.7v-.7h.3v-.7h-.3v-.7h1.7Z"/><path class="cls-19" d="M178.1,71.8v1.7l-.3.3h-1l-.3-.3V71.8l.3-.3h1Zm-.7.3h-.3v1.3h.3Z"/><path class="cls-19" d="M180.7,71.5v.7h-.3l-.7,1v.3h.3v.7h-1v-.7h.3v-.3l-.7-1h-.3v-.7h1v.7h0v0h0v-.7Z"/><path class="cls-1" d="M175.8,71.8v.7h0v.7l-.3.3h-1.7v-.7h.3v-.7h-.3v-.7h1.7Zm-.4,0-.3-.3h-1.3v.3h.3v1.7h-.3v.3h1.3l.3-.3v-.7l-.3-.3.3-.3Zm-.3,0h0v.7h-.7v-.7Zm0,1h0v.7h-.7v-.7Z"/><path class="cls-1" d="M178.1,71.8v1.7l-.3.3h-1l-.3-.3V71.8l.3-.3h1Zm-.3,0-.3-.3h-.7l-.3.3v1.7l.3.3h.7l.3-.3Zm-.4,0v1.3h-.7V71.8h.7Zm0,.3h-.3v1.3h.3Z"/><path class="cls-1" d="M180.7,71.5v.7h-.3l-.7,1v.3h.3v.7h-1v-.7h.3v-.3l-.7-1h-.3v-.7h1v.7h0v0h0v-.7Zm-.3,0h-.7v.3h0l-.3,1-.3-1h0v-.3h-.7v.3h0l.7,1v.7h-.3v.3h.7v-.3h-.3v-.7l1.2-1.3Z"/><path class="cls-1" d="M178.1,64.9v2.3h.7v1.3h-.7v.3h.3v1.3h-2.3V68.8h.3v-.3h-2v-1l2-2.6Zm-.7.3h-1l-1.7,2.3v.7h2v1h-.3v.7h1.3v-.7h-.3v-1h.7v-.3h-.7Zm-.6.3v2h-1.7l1.7-2Zm-.4,1-.3.7h.3Z"/><path class="cls-20" d="M219.8,39.7l.3,1.3c.3,1,0,1.3-.7,1.3-.3,0-1.3.3-1.3,0l-.3-2Z"/><path class="cls-20" d="M199.9,39.7l-.3,1.3c-.3,1,0,1.3.7,1.3.3,0,1.3.3,1.3,0l.3-2Z"/><path class="cls-20" d="M204.2,30.1a7.29,7.29,0,0,1,1-2.3,7.49,7.49,0,0,1,4.6-1.3,8.08,8.08,0,0,1,4.6,1.3,9.22,9.22,0,0,1,1,2c1,5,.7,14.9.7,14.9a.75.75,0,0,1-.7.7H204.5a.75.75,0,0,1-.7-.7A62.68,62.68,0,0,1,204.2,30.1Z"/><path class="cls-21" d="M199.6,39.7l2.3-10.3c.3-1.7,1.3-4.3,2.6-4.6,1-.3,1,1.3.7,2.3l-3,13.9c0,.7-1.3.3-1.7.3C199.9,41.4,199.6,40.7,199.6,39.7Z"/><path class="cls-21" d="M215.2,24.8c1.3.3,2.3,2.6,2.6,4.6l2.3,10.3c.3,1,0,1.3-1,1.7-.3,0-1.7.3-1.7-.3l-3-13.9C214.2,26.1,214.5,24.5,215.2,24.8Z"/><path class="cls-6" d="M203.9,26.8a7.29,7.29,0,0,1,1-2.3,8.52,8.52,0,0,1,5-1.3,8.72,8.72,0,0,1,5,1.3,3.8,3.8,0,0,1,1,2.3c1,5.6.7,16.2.7,16.2,0,.3-.3,1-.7,1H204c-.3,0-.7-.3-.7-1C202.9,43,202.6,32.4,203.9,26.8Z"/><path class="cls-20" d="M209.9,26.5c-1.3,0-2.3-1-2.6-2.6a8,8,0,0,1,2.6-.3,8.32,8.32,0,0,1,2.6.3C212.2,25.1,211.2,26.5,209.9,26.5Z"/><path class="cls-21" d="M209.9,26.8a3,3,0,0,0,3-3,.3.3,0,0,0-.6,0,2,2,0,0,1-2,2.3c-1.7-.3-2.3-1-2.3-2.3a.29.29,0,0,0-.3-.3l-.3.3A2.35,2.35,0,0,0,209.9,26.8Z"/><path class="cls-22" d="M212.5,32.4h0c.3,0,.3-.3.7-.3,0-.3.3-.3.3-.7v-.3l-.3-.3h-3.3l-.7,2.3h0l-1-2.3h-1.3l-1,4.3h1.3l.7-3h0l1,2.3h3c.7,0,1,0,1.3-.3a1.31,1.31,0,0,0,.3-1C213.2,32.7,213.2,32.4,212.5,32.4Zm-1.3,1h-.7l.3-1h1v.3C212.2,33.4,211.9,33.4,211.2,33.4Zm1-1.6h0a1.08,1.08,0,0,1-.7.3h-.3v-.7h1v.4Z"/><path class="cls-22" d="M212.8,36.4h-6c-.3,0-.3,0-.3-.3s0-.3.3-.3h6c.3,0,.3,0,.3.3S212.8,36.4,212.8,36.4Z"/><rect class="cls-23" x="206.6" y="76.8" width="7.3" height="4.6"/><path class="cls-24" d="M199.6,75.8l-.3,1.3c-.3,1,0,1.3.7,1.3.3,0,1.3.3,1.3,0l.3-2.3Z"/><path class="cls-24" d="M220.1,75.8l.3,1.3c.3,1,0,1.3-1,1.3-.3,0-1.3.3-1.3,0l-.3-2.3Z"/><path class="cls-25" d="M220.5,75.5l-2.3-10.9c-.3-2-1.3-4.6-2.6-5-1,0-1,1.7-.7,2.6l3,14.9c0,.7,1.3.3,1.7.3C220.5,77.1,220.8,76.8,220.5,75.5Z"/><path class="cls-25" d="M204.2,59.9c-1.3.3-2.3,3-2.6,5l-2.3,10.6c-.3,1,0,1.7,1,1.7.7,0,1.7.3,1.7-.3L205,62C205.2,61.2,205.2,59.6,204.2,59.9Z"/><path class="cls-23" d="M216.2,62.2a7.29,7.29,0,0,0-1-2.3c-1.3-1-3.6-1.3-5.3-1.3a10.39,10.39,0,0,0-5.3,1.3,3.8,3.8,0,0,0-1,2.3c-1.3,6-1,16.9-1,16.9,0,.3.3,1,.7,1h12.6c.3,0,.7-.3.7-1C217.1,79.1,217.5,67.8,216.2,62.2Z"/><path class="cls-25" d="M208.5,79.1h-5v2c0,.3.3,1,.7,1h4.3Z"/><path class="cls-25" d="M211.5,79.1v2.6h4.3c.3,0,.7-.3.7-1v-2h-5Z"/><path class="cls-23" d="M209.9,61.5c1.3,0,2.3-1,2.6-3a9,9,0,0,0-2.6-.3,7.43,7.43,0,0,0-2.6.3C207.5,60.2,208.5,61.5,209.9,61.5Z"/><path class="cls-24" d="M207.5,58.6h0Z"/><path class="cls-24" d="M207.2,58.6c-1,.3-1.7.7-2.6,1a3.8,3.8,0,0,0-1,2.3c-1.3,6-1,16.9-1,16.9,0,.3.3,1,.7,1h5.3V60.9C208.2,60.9,207.5,59.9,207.2,58.6Z"/><path class="cls-25" d="M209.2,61.5h0a3.13,3.13,0,0,1-2.6-3s0-.3.7-.3c.3,0,.7-.3.7,0,.3,1.3.7,1.7,1.7,2,.3,0,.3.3.3.7A4.52,4.52,0,0,0,209.2,61.5Z"/><path class="cls-24" d="M208.2,61.9c-.3,0-.3-.3-.3-.7h0l.7-1c0-.3.3-.3.7-.3h0c.3,0,.3.3.3.7h0l-.7,1c0,.3-.4.3-.7.3Z"/><path class="cls-24" d="M207.2,61.2c-.3-.3-.3-.7,0-.7h0l1-1c.3-.3.7-.3.7,0h0c.3.3.3.7,0,.7h0l-1,1h-.7Z"/><path class="cls-24" d="M206.6,60.2v-.7h0l1-.7h.7v.7h0l-1,.7H207c-.1.4-.4.4-.4,0Z"/><path class="cls-24" d="M205.9,59.2c0-.3,0-.7.3-.7h0l1.3-.3c.3,0,.7,0,.7.3h0c0,.3,0,.7-.3.7h0l-1.3.3h0c-.4.1-.4.1-.7-.3Z"/><path class="cls-24" d="M212.5,58.6h0Z"/><path class="cls-24" d="M212.5,58.6c1,.3,1.7.7,2.6,1a3.8,3.8,0,0,1,1,2.3c1.3,6,1,16.9,1,16.9,0,.3-.3,1-.7,1h-5.2V60.9C211.9,60.9,212.5,59.9,212.5,58.6Z"/><path class="cls-25" d="M210.9,61.5h0a3.13,3.13,0,0,0,2.6-3s0-.3-.7-.3c-.3,0-.7-.3-.7,0-.3,1.3-.7,1.7-1.7,2-.3,0-.3.3-.3.7C210.5,61.2,210.5,61.5,210.9,61.5Z"/><path class="cls-24" d="M211.2,61.5l-.7-1c0-.3,0-.7.3-.7h0c.3,0,.7,0,.7.3h0l.7,1c0,.3,0,.7-.3.7h-.3c-.4.1-.4.1-.4-.3Z"/><path class="cls-24" d="M212.2,61.2l-1-1c-.3-.3-.3-.7,0-.7h0c.3-.3.7-.3.7,0h0l1,1c.3.3.3.7,0,.7h-.7Z"/><path class="cls-24" d="M212.8,60.6l-1-.7c-.3,0-.3-.3,0-.7h0c0-.3.3-.3.7,0h0l1,.7c.3,0,.3.3,0,.7h-.7Z"/><path class="cls-24" d="M213.5,59.6l-1.3-.3c-.3,0-.3-.3-.3-.7h0c0-.3.3-.3.7-.3h0l1.3.3c.3,0,.3.3.3.7h0c-.4.3-.4.3-.7.3Z"/><path class="cls-25" d="M206.2,78.4a12.72,12.72,0,0,0,.7-4.6,28.61,28.61,0,0,0-3-.3,14.93,14.93,0,0,0,0,5.3h2.3Z"/><path class="cls-25" d="M213.5,78.4a12.72,12.72,0,0,1-.7-4.6,28.61,28.61,0,0,1,3-.3,14.93,14.93,0,0,1,0,5.3h-2.3Z"/><path class="cls-5" d="M206.2,62.9c-.7,0-1.3.3-1.3,1s.7,1,1.3,1,1.3-.3,1.3-1S206.9,62.9,206.2,62.9Zm0,1.6V63.2c.3,0,1,.3,1,.7S206.9,64.5,206.2,64.5Z"/><path class="cls-23" d="M206.2,63.2v1.3c-.3,0-1-.3-1-.7S205.6,63.2,206.2,63.2Z"/><path class="cls-23" d="M207.2,65.9h0Z"/><rect class="cls-9" x="113.2" y="70.8" width="45" height="15.9"/><g class="cls-10"><path class="cls-5" d="M128.3,75.9c1.4,0,2.2.6,2.2,1.7a1.6,1.6,0,0,1-1.3,1.6,1.66,1.66,0,0,1,1.6,1.7c0,1.2-.9,1.9-2.5,1.9h-3V75.9Zm-2.1,3h2.1c.9,0,1.5-.4,1.5-1.1s-.5-1.1-1.5-1.1h-2.1Zm0,3.2h2.1c1.1,0,1.8-.4,1.8-1.2s-.7-1.2-1.8-1.2h-2.1Z"/><path class="cls-5" d="M138.1,80a2.9,2.9,0,0,1-5.8,0V75.9h.8V80a2.1,2.1,0,1,0,4.2,0V75.9h.8V80Z"/><path class="cls-5" d="M142.5,82.8h-.8V80.5L139,75.9h.8l2.2,3.6,2.2-3.6h.8l-2.6,4.5v2.4Z"/></g><path class="cls-11" d="M181.7,114.5H153.2a.75.75,0,0,1-.7-.7v-.3a.75.75,0,0,1,.7-.7h28.5a.75.75,0,0,1,.7.7v.3A.68.68,0,0,1,181.7,114.5Z"/><circle class="cls-3" cx="27.5" cy="148.9" r="3.3"/><path class="cls-7" d="M122.1,127.1V112.9a10.35,10.35,0,0,0-10.3-10.3h0a10.35,10.35,0,0,0-10.3,10.3h0v14.2a.75.75,0,0,1-.7.7h0a.75.75,0,0,1-.7-.7h0V112.9a11.74,11.74,0,0,1,11.6-11.6h0a11.74,11.74,0,0,1,11.6,11.6h0v14.2a.75.75,0,0,1-.7.7h0c-.1.3-.5,0-.5-.7Z"/><rect class="cls-21" x="93.5" y="121.4" width="50.7" height="34.1"/><rect class="cls-26" x="93.7" y="121.5" width="9.6" height="34.1"/><path class="cls-6" d="M134.4,126.1V111.9a10.35,10.35,0,0,0-10.3-10.3h0a10.35,10.35,0,0,0-10.3,10.3h0v14.2a.75.75,0,0,1-.7.7h0a.75.75,0,0,1-.7-.7h0V111.9A11.74,11.74,0,0,1,124,100.3h0a11.74,11.74,0,0,1,11.6,11.6h0v14.2a.75.75,0,0,1-.7.7h0c-.2.3-.5,0-.5-.7Z"/><rect class="cls-5" x="123.8" y="137" width="5" height="3"/><rect class="cls-5" x="117.2" y="137" width="5" height="3"/><rect class="cls-5" x="110.9" y="137" width="5" height="3"/><rect class="cls-5" x="123.8" y="137" width="5" height="3"/><rect class="cls-5" x="123.8" y="141.8" width="5" height="3"/><rect class="cls-5" x="117.2" y="141.8" width="5" height="3"/><rect class="cls-5" x="110.9" y="141.8" width="5" height="3"/><rect class="cls-5" x="130.1" y="141.8" width="5" height="3"/><rect class="cls-5" x="123.8" y="141.8" width="5" height="3"/><rect class="cls-5" x="117.2" y="146.2" width="5" height="3"/><rect class="cls-5" x="110.9" y="146.2" width="5" height="3"/><rect class="cls-5" x="110.9" y="133.7" width="15.2" height="1.7"/><path class="cls-7" d="M86.1,114.2V98.3a8.86,8.86,0,0,0-8.9-8.9h0a8.86,8.86,0,0,0-8.9,8.9h0v15.9a.75.75,0,0,1-.7.7h0a.75.75,0,0,1-.7-.7h0V98.3A10.42,10.42,0,0,1,77.5,87.7h0A10.42,10.42,0,0,1,88.1,98.3h0v15.9a.75.75,0,0,1-.7.7h0c-1-.1-1.3-.4-1.3-.7Z"/><rect class="cls-27" x="60.1" y="108.2" width="46" height="47.3"/><polygon class="cls-28" points="59.9 155.6 69.2 155.6 69.2 108.2 64.5 111.2 59.9 108.2 59.9 155.6"/><path class="cls-6" d="M96.6,113.2V97.3a8.86,8.86,0,0,0-8.9-8.9h0a8.86,8.86,0,0,0-8.9,8.9h0v15.9a.75.75,0,0,1-.7.7h0a.75.75,0,0,1-.7-.7h0V97.3A10.42,10.42,0,0,1,88,86.7h0A10.42,10.42,0,0,1,98.6,97.3h0v15.9a.75.75,0,0,1-.7.7h0c-.9,0-1.3-.4-1.3-.7Z"/><rect class="cls-5" x="69" y="122.8" width="37.1" height="4.6"/><rect class="cls-5" x="69" y="131.8" width="37.1" height="12.2"/><path class="cls-7" d="M158.2,134.7V124.1a7.34,7.34,0,0,0-7.3-7.3h0a7.34,7.34,0,0,0-7.3,7.3h0v10.6a.75.75,0,0,1-.7.7h0a.75.75,0,0,1-.7-.7h0V124.1a8.86,8.86,0,0,1,8.9-8.9h0a8.86,8.86,0,0,1,8.9,8.9h0v10.6a.75.75,0,0,1-.7.7h0c-.7,0-1.1-.4-1.1-.7Z"/><rect class="cls-29" x="136.3" y="130.4" width="39.7" height="25.2"/><rect class="cls-26" x="136" y="130.4" width="7.6" height="25.2"/><path class="cls-6" d="M167.2,133.7V123.1a7.34,7.34,0,0,0-7.3-7.3h0a7.34,7.34,0,0,0-7.3,7.3h0v10.6a.75.75,0,0,1-.7.7h0a.75.75,0,0,1-.7-.7h0V123.1a8.86,8.86,0,0,1,8.9-8.9h0a8.86,8.86,0,0,1,8.9,8.9h0v10.6a.75.75,0,0,1-.7.7h0c-.8.3-1.1,0-1.1-.7Z"/><rect class="cls-5" x="163.7" y="140.4" width="5.3" height="7.3"/><rect class="cls-5" x="156.4" y="140.4" width="5.3" height="7.3"/><rect class="cls-5" x="149.4" y="140.4" width="5.3" height="7.3"/></g></g></svg>