<svg xmlns="http://www.w3.org/2000/svg" xmlns:xlink="http://www.w3.org/1999/xlink" viewBox="0 0 139.4 139.4"><defs><style>.cls-1{fill:none;}.cls-2{isolation:isolate;}.cls-3{fill:url(#_ÂÁ_Ï_ÌÌ_È_ËÂÌÚ_13);}.cls-4{fill:url(#_ÂÁ_Ï_ÌÌ_È_ËÂÌÚ_18);}.cls-10,.cls-11,.cls-12,.cls-13,.cls-14,.cls-15,.cls-16,.cls-17,.cls-18,.cls-20,.cls-30,.cls-5,.cls-6,.cls-7,.cls-8,.cls-9{mix-blend-mode:multiply;}.cls-5{fill:url(#_ÂÁ_Ï_ÌÌ_È_ËÂÌÚ_18-2);}.cls-6{fill:url(#_ÂÁ_Ï_ÌÌ_È_ËÂÌÚ_17);}.cls-7{fill:url(#_ÂÁ_Ï_ÌÌ_È_ËÂÌÚ_17-2);}.cls-8{fill:url(#_ÂÁ_Ï_ÌÌ_È_ËÂÌÚ_17-3);}.cls-9{fill:url(#_ÂÁ_Ï_ÌÌ_È_ËÂÌÚ_17-4);}.cls-10{fill:url(#_ÂÁ_Ï_ÌÌ_È_ËÂÌÚ_17-5);}.cls-11{fill:url(#_ÂÁ_Ï_ÌÌ_È_ËÂÌÚ_17-6);}.cls-12{fill:url(#_ÂÁ_Ï_ÌÌ_È_ËÂÌÚ_17-7);}.cls-13{fill:url(#_ÂÁ_Ï_ÌÌ_È_ËÂÌÚ_17-8);}.cls-14{fill:url(#_ÂÁ_Ï_ÌÌ_È_ËÂÌÚ_17-9);}.cls-15{fill:url(#_ÂÁ_Ï_ÌÌ_È_ËÂÌÚ_17-10);}.cls-16{fill:url(#_ÂÁ_Ï_ÌÌ_È_ËÂÌÚ_17-11);}.cls-17{fill:url(#_ÂÁ_Ï_ÌÌ_È_ËÂÌÚ_17-12);}.cls-18{fill:url(#_ÂÁ_Ï_ÌÌ_È_ËÂÌÚ_17-13);}.cls-19{fill:#232c39;}.cls-20{fill:url(#_ÂÁ_Ï_ÌÌ_È_ËÂÌÚ_18-3);}.cls-21{fill:url(#_ÂÁ_Ï_ÌÌ_È_ËÂÌÚ_21);}.cls-22{fill:#eff1f3;}.cls-23{fill:#b4bed8;}.cls-24{mix-blend-mode:screen;}.cls-25{fill:url(#_ÂÁ_Ï_ÌÌ_È_ËÂÌÚ_21-2);}.cls-26{fill:#ff5f82;}.cls-27{fill:#cfd6e3;}.cls-28{fill:#fff;}.cls-29{fill:#5b5c70;}.cls-31{fill:#ffde95;}.cls-32{fill:#577af7;}.cls-33{fill:url(#_ÂÁ_Ï_ÌÌ_È_ËÂÌÚ_21-3);}.cls-34{fill:#e32a56;}.cls-35{fill:url(#_ÂÁ_Ï_ÌÌ_È_ËÂÌÚ_23);}.cls-36{clip-path:url(#clip-path);}.cls-37{fill:#748afd;}.cls-38{fill:#97d997;}</style><radialGradient id="_ÂÁ_Ï_ÌÌ_È_ËÂÌÚ_13" cx="83.49" cy="67.15" r="63.86" gradientTransform="translate(69.7 -28.87) rotate(45)" gradientUnits="userSpaceOnUse"><stop offset="0" stop-color="#b6c8d6"/><stop offset="0.32" stop-color="#d2dde5"/><stop offset="0.76" stop-color="#f3f6f8"/><stop offset="1" stop-color="#fff"/></radialGradient><linearGradient id="_ÂÁ_Ï_ÌÌ_È_ËÂÌÚ_18" x1="87.7" y1="55.18" x2="103.02" y2="30.16" gradientTransform="matrix(0.89, 0, 0.03, 0.88, 9.34, 15.77)" gradientUnits="userSpaceOnUse"><stop offset="0" stop-color="#c9cfe3"/><stop offset="1" stop-color="#fff"/></linearGradient><linearGradient id="_ÂÁ_Ï_ÌÌ_È_ËÂÌÚ_18-2" x1="80.81" y1="52.14" x2="106.51" y2="22.52" xlink:href="#_ÂÁ_Ï_ÌÌ_È_ËÂÌÚ_18"/><linearGradient id="_ÂÁ_Ï_ÌÌ_È_ËÂÌÚ_17" x1="58.28" y1="32.59" x2="83.99" y2="2.97" gradientTransform="matrix(0.89, 0, 0.03, 0.88, 9.34, 15.77)" gradientUnits="userSpaceOnUse"><stop offset="0" stop-color="#c9cfe3"/><stop offset="1" stop-color="#e3e6f1"/></linearGradient><linearGradient id="_ÂÁ_Ï_ÌÌ_È_ËÂÌÚ_17-2" x1="66.38" y1="39.61" x2="92.08" y2="9.99" xlink:href="#_ÂÁ_Ï_ÌÌ_È_ËÂÌÚ_17"/><linearGradient id="_ÂÁ_Ï_ÌÌ_È_ËÂÌÚ_17-3" x1="59.88" y1="33.97" x2="85.58" y2="4.35" xlink:href="#_ÂÁ_Ï_ÌÌ_È_ËÂÌÚ_17"/><linearGradient id="_ÂÁ_Ï_ÌÌ_È_ËÂÌÚ_17-4" x1="63.68" y1="37.26" x2="89.38" y2="7.64" xlink:href="#_ÂÁ_Ï_ÌÌ_È_ËÂÌÚ_17"/><linearGradient id="_ÂÁ_Ï_ÌÌ_È_ËÂÌÚ_17-5" x1="72.82" y1="45.2" x2="98.52" y2="15.58" xlink:href="#_ÂÁ_Ï_ÌÌ_È_ËÂÌÚ_17"/><linearGradient id="_ÂÁ_Ï_ÌÌ_È_ËÂÌÚ_17-6" x1="96.39" y1="65.66" x2="122.1" y2="36.04" xlink:href="#_ÂÁ_Ï_ÌÌ_È_ËÂÌÚ_17"/><linearGradient id="_ÂÁ_Ï_ÌÌ_È_ËÂÌÚ_17-7" x1="74.65" y1="46.8" x2="100.36" y2="17.18" xlink:href="#_ÂÁ_Ï_ÌÌ_È_ËÂÌÚ_17"/><linearGradient id="_ÂÁ_Ï_ÌÌ_È_ËÂÌÚ_17-8" x1="84.1" y1="54.99" x2="109.8" y2="25.37" xlink:href="#_ÂÁ_Ï_ÌÌ_È_ËÂÌÚ_17"/><linearGradient id="_ÂÁ_Ï_ÌÌ_È_ËÂÌÚ_17-9" x1="89.59" y1="59.75" x2="115.29" y2="30.13" xlink:href="#_ÂÁ_Ï_ÌÌ_È_ËÂÌÚ_17"/><linearGradient id="_ÂÁ_Ï_ÌÌ_È_ËÂÌÚ_17-10" x1="98.3" y1="67.31" x2="124" y2="37.69" xlink:href="#_ÂÁ_Ï_ÌÌ_È_ËÂÌÚ_17"/><linearGradient id="_ÂÁ_Ï_ÌÌ_È_ËÂÌÚ_17-11" x1="109.79" y1="77.29" x2="135.5" y2="47.67" xlink:href="#_ÂÁ_Ï_ÌÌ_È_ËÂÌÚ_17"/><linearGradient id="_ÂÁ_Ï_ÌÌ_È_ËÂÌÚ_17-12" x1="107.03" y1="74.89" x2="132.73" y2="45.27" xlink:href="#_ÂÁ_Ï_ÌÌ_È_ËÂÌÚ_17"/><linearGradient id="_ÂÁ_Ï_ÌÌ_È_ËÂÌÚ_17-13" x1="95.54" y1="64.92" x2="121.25" y2="35.3" xlink:href="#_ÂÁ_Ï_ÌÌ_È_ËÂÌÚ_17"/><linearGradient id="_ÂÁ_Ï_ÌÌ_È_ËÂÌÚ_18-3" x1="117.33" y1="66.47" x2="63.62" y2="54.47" gradientTransform="matrix(1, 0, 0, 1, 0, 0)" xlink:href="#_ÂÁ_Ï_ÌÌ_È_ËÂÌÚ_18"/><linearGradient id="_ÂÁ_Ï_ÌÌ_È_ËÂÌÚ_21" x1="112.22" y1="47.44" x2="117.67" y2="47.44" gradientUnits="userSpaceOnUse"><stop offset="0" stop-color="#fb5f81"/><stop offset="0.3" stop-color="#fa5c7b"/><stop offset="0.72" stop-color="#f75268"/><stop offset="1" stop-color="#f54a59"/></linearGradient><linearGradient id="_ÂÁ_Ï_ÌÌ_È_ËÂÌÚ_21-2" x1="-2096.8" y1="99.74" x2="-2099.15" y2="102.87" gradientTransform="matrix(-1, 0, 0, 1, -1973.23, 0)" xlink:href="#_ÂÁ_Ï_ÌÌ_È_ËÂÌÚ_21"/><linearGradient id="_ÂÁ_Ï_ÌÌ_È_ËÂÌÚ_21-3" x1="64.7" y1="22.82" x2="27.68" y2="60.09" xlink:href="#_ÂÁ_Ï_ÌÌ_È_ËÂÌÚ_21"/><linearGradient id="_ÂÁ_Ï_ÌÌ_È_ËÂÌÚ_23" x1="65.16" y1="74.04" x2="46.14" y2="23.87" gradientUnits="userSpaceOnUse"><stop offset="0" stop-color="#dd1d30"/><stop offset="0.37" stop-color="#eb4a61"/><stop offset="0.79" stop-color="#f97a94"/><stop offset="1" stop-color="#ff8da8"/></linearGradient><clipPath id="clip-path"><path class="cls-1" d="M35.26,45c0,4.33,2.15,8.69,5.71,10.55,1.39.72,27.72,9.94,27.72,9.94L86.87,29.05S59,14.64,56.35,14.92C43.67,16.23,35.27,30.3,35.26,45Z"/></clipPath></defs><g class="cls-2"><g id="Layer_2" data-name="Layer 2"><g id="Layer_1-2" data-name="Layer 1"><circle class="cls-3" cx="69.7" cy="69.7" r="69.7" transform="translate(-28.87 69.7) rotate(-45)"/><path class="cls-4" d="M129.34,43.11,91.23,17.62c-1.91-1.27-4.58-1.37-6-.14l-5.87,5.09c-.87.75-.67,2,.46,2.67a.6.6,0,0,1,.17,1l-6.88,6.43a1.34,1.34,0,0,1-1.53.15,4.12,4.12,0,0,0-4.53.45l-8.39,7.27c-3.26,2.84-3.3,6.83.1,8.69l63.71,34.85Z"/><polygon class="cls-5" points="70.85 55.82 87.07 64.69 105.25 55.18 102.28 41.89 70.85 55.82"/><path class="cls-6" d="M65.17,37.81l-4.82,1.26-7.78,6.75,11.62,6.35C64.34,51.09,65.17,37.81,65.17,37.81Z"/><path class="cls-7" d="M69.05,36.8c0,.15-.15,16-.15,16l17-6.93-1.73-13Z"/><polygon class="cls-8" points="64.29 35.65 83.75 31.15 82.63 19.75 64.29 35.65"/><path class="cls-9" d="M97.34,22.54s-.27-1-.29-1l-9.3-6.21-3,2.61L86,25.29Z"/><path class="cls-10" d="M86.74,27.28c0,.65,3,17,3,17l12-4.89s-2.54-9.71-3.88-14.69C96.51,25.09,86.91,27.29,86.74,27.28Z"/><path class="cls-11" d="M90.71,66.68l16.74,9.16c-.25-.71-2.09-17.26-2.09-17.26S91.68,66,90.71,66.68Z"/><path class="cls-12" d="M107.1,28.24l-7.25-4.85c.06.28.72,2.73,1.59,6A32.24,32.24,0,0,0,107.1,28.24Z"/><path class="cls-13" d="M102.05,31.62l4,14.84,10.81-5.69s-3.11-7.65-3.49-8.34l-3.87-2.58Z"/><polygon class="cls-14" points="118.34 39.67 121.23 37.69 115.52 33.87 118.34 39.67"/><path class="cls-15" d="M129.34,43.11,123.2,39c-.08.06-6.09,4.49-6.84,5,0,0,4.23,9.17,5,11.08.7-.47,4.48-2.71,6.64-4.26Z"/><polygon class="cls-16" points="124.93 69.42 120.78 58.98 109.41 68.06 111.83 78.23 122.48 84.06 124.93 69.42"/><path class="cls-17" d="M127.46,54.33c-.79.51-1.6,1-2.42,1.56s-1.66,1.16-2.51,1.79c1,2.31,2.17,4.66,3.17,7.15Z"/><path class="cls-18" d="M119.64,56.25c-.85-2.06-5-11.32-5-11.32l-7.33,4s1.57,14.14,1.7,15C110.17,62.89,118.84,56.81,119.64,56.25Z"/><path class="cls-19" d="M110.48,60.75l-.06-.37c-.13-.83-1.64-14.41-1.7-15l0-.13,7.65-4.18.09.19c0,.1,4.14,9.29,5,11.33l.06.15-.13.09c-.09.06-9.42,6.58-10.6,7.66Zm-1.35-15.27c.15,1.34,1.37,12.25,1.64,14.48,1.82-1.47,9.14-6.6,10.22-7.36-.88-2.1-4.24-9.64-4.83-11Z"/><path class="cls-20" d="M62,37.67l-3.29,2.85c-3.26,2.84-3.3,6.83.1,8.69l63.71,34.85,4.26-25.48Z"/><path class="cls-21" d="M112.22,46.76a2.73,2.73,0,1,1,5.45,0c0,1.5-2.73,4.09-2.73,4.09S112.22,48.26,112.22,46.76Z"/><rect class="cls-19" x="15.41" y="124.24" width="1" height="8.63"/><rect class="cls-19" x="12.68" y="119.42" width="1" height="12.12"/><rect class="cls-19" x="9.95" y="115.13" width="1" height="14.86"/><rect class="cls-19" x="7.22" y="107.85" width="1" height="19.44"/><path class="cls-22" d="M5.43,41.68,65.12,6.89A3.52,3.52,0,0,1,70.3,8.76s-2.52-2.26-4-1.38L6.59,42.16A4.22,4.22,0,0,0,4.5,45.79l15,53.84a1.68,1.68,0,0,0,1.59,1.08,2,2,0,0,1-2.71-1.42l-15-54A4.14,4.14,0,0,1,5.43,41.68Z"/><path class="cls-23" d="M43.26,120.75,19.52,107.52a4.49,4.49,0,0,1-2.45-3.86,4.4,4.4,0,0,1,2.3-3.84L82,63.33a7,7,0,0,1,6.63,0l44.55,24.82A4.53,4.53,0,0,1,135.62,92a4.43,4.43,0,0,1-2.31,3.84l-9.09,5.37-.2-.34,9.09-5.37a4.05,4.05,0,0,0,2.11-3.5A4.13,4.13,0,0,0,133,88.48L88.42,63.66a6.4,6.4,0,0,0-3.11-.77,6.27,6.27,0,0,0-3.12.79L19.57,100.16a4,4,0,0,0-2.1,3.5,4.1,4.1,0,0,0,2.24,3.51L43.45,120.4Z"/><path class="cls-19" d="M39.53,120.12a3.35,3.35,0,1,0,3.35-3.35A3.35,3.35,0,0,0,39.53,120.12Z"/><g class="cls-24"><path class="cls-19" d="M40.52,119.54c.2.32.82-.07,1.58-.56s1.37-.89,1.17-1.2-1.15-.43-1.9.06S40.32,119.23,40.52,119.54Z"/></g><path class="cls-25" d="M121.31,101.19a3.35,3.35,0,1,0,3.35-3.35A3.35,3.35,0,0,0,121.31,101.19Z"/><g class="cls-24"><path class="cls-26" d="M122.3,100.62c.2.31.82-.08,1.58-.57s1.37-.89,1.17-1.2-1.15-.42-1.9.06S122.1,100.3,122.3,100.62Z"/></g><path class="cls-22" d="M131.54,89,87,64.13a3.71,3.71,0,0,0-3.31,0L21.06,100.61c-.89.52-.86,1.37.08,1.89l44.55,24.82a3.74,3.74,0,0,0,3.31,0l62.63-36.49C132.52,90.32,132.48,89.48,131.54,89Z"/><path class="cls-27" d="M54.16,118.1a1.53,1.53,0,0,0,.58-.1l61.05-35.57L86,66a1.46,1.46,0,0,0-.66-.13,1.24,1.24,0,0,0-.57.1L23.68,101.51,53.5,118A1.46,1.46,0,0,0,54.16,118.1Z"/><path class="cls-28" d="M77.29,104.4,92,95.82a4.59,4.59,0,0,1,4.1,0L108,102.47c1.16.65,1.21,1.69.11,2.33l-14.73,8.59a4.59,4.59,0,0,1-4.1,0l-11.93-6.65C76.23,106.09,76.19,105,77.29,104.4Z"/><path class="cls-28" d="M67.37,126.49a3.67,3.67,0,0,1-1.77-.42L21.05,101.25a1.39,1.39,0,0,1-.84-1.14A1.28,1.28,0,0,1,21,99L83.58,62.53a3.85,3.85,0,0,1,3.51,0l44.55,24.82a1.39,1.39,0,0,1,.83,1.14,1.3,1.3,0,0,1-.74,1.09L69.1,126.08A3.54,3.54,0,0,1,67.37,126.49Zm17.94-64a3,3,0,0,0-1.53.37L21.16,99.36a.92.92,0,0,0-.55.74,1,1,0,0,0,.63.8l44.55,24.82a3.47,3.47,0,0,0,3.11,0l62.63-36.48a.93.93,0,0,0,.54-.74,1,1,0,0,0-.63-.8L86.89,62.89A3.3,3.3,0,0,0,85.31,62.51Z"/><path class="cls-19" d="M91.4,112.28a4.58,4.58,0,0,1-2.18-.51L77.3,105.12a1.67,1.67,0,0,1-1-1.37,1.56,1.56,0,0,1,.9-1.31l14.73-8.58a4.83,4.83,0,0,1,4.29,0l11.93,6.65a1.67,1.67,0,0,1,1,1.37,1.53,1.53,0,0,1-.89,1.31l-14.73,8.58A4.29,4.29,0,0,1,91.4,112.28ZM94,93.75a3.92,3.92,0,0,0-1.92.45l-14.73,8.59a1.18,1.18,0,0,0-.7.95,1.31,1.31,0,0,0,.8,1l11.93,6.65a4.38,4.38,0,0,0,3.9,0l14.73-8.59a1.15,1.15,0,0,0,.69-1,1.31,1.31,0,0,0-.79-1L96,94.21A4.16,4.16,0,0,0,94,93.75Z"/><path class="cls-23" d="M21.14,102.5l44.55,24.82a3.61,3.61,0,0,0,3.31,0s62.88-36.67,62.93-36.71a.79.79,0,0,0,.17-.2l0,0a1.24,1.24,0,0,0,.14-.46v1.46a1.36,1.36,0,0,1-.68,1.08L69.11,128.88a3.58,3.58,0,0,1-3.31,0L21.25,104.05a1.24,1.24,0,0,1-.73-1l-.11-1.55A1.25,1.25,0,0,0,21.14,102.5Z"/><path class="cls-19" d="M28,101.92l0,.76a.28.28,0,0,0,.18.24l2.26,1.26.08,0,.08,0h.06a.11.11,0,0,0,.06,0h.35s0,0,0,0h.05l.13-.06,1.47-.86,0,.53a.28.28,0,0,0,.18.23l2.2,1.22.06,0a.3.3,0,0,0,.08,0l.08,0H36l.12-.06,2.8-1.63h0l.07-.06,0,0s0,0,0,0h0s0,0,0,0a0,0,0,0,0,0,0v0l0-.6.24.13.08,0,.07,0h.05a0,0,0,0,1,0,0h.18s0,0,0,0h.24l.05,0,.12,0,2.25-1.31,0,.53a.31.31,0,0,0,.18.25l1.93,1.07a0,0,0,0,0,0,0h0a.63.63,0,0,1-.12.1l-6.12,3.57a.64.64,0,0,1-.18.06h0l-.2,0h0a.82.82,0,0,1-.22,0h0l-.2-.08L35.11,106a.31.31,0,0,1-.18-.24l0,.77a.31.31,0,0,0,.19.24L37.39,108l.09,0,.07,0h.55a.45.45,0,0,0,.12-.06l.17-.09,0,.52a.29.29,0,0,0,.18.24L40.85,110a.2.2,0,0,0,.08,0l.08,0h.45s0,0,0,0h.08l.12-.05.16-.1,0,.52q0,.14.18.24l2.26,1.26.08,0,.07,0H45l0,0,.12-.05.88-.51,0,.56a.28.28,0,0,0,.18.24l2.26,1.26.08,0,.07,0h.16l0,.73a.31.31,0,0,0,.18.25l2.26,1.25.08,0,.08,0H52l.12-.06,2.17-1.26h0a.18.18,0,0,0,.07,0s0,0,0,0a0,0,0,0,1,0,0h0s0,0,0,0v-.66l.22.13.09,0,.07,0h.55l.13,0,2.8-1.63h0l.07-.05,0,0a0,0,0,0,1,0,0h0s0,0,0,0a0,0,0,0,1,0,0v0l0-.61.23.13.09,0,.07,0h.55l.13-.06,2.79-1.62h0l.07,0,0,0v0h0v0a.08.08,0,0,0,0,0s0,0,0,0h0l0-.59.23.13.09,0,.08,0h.49l.05,0,.13,0,2.8-1.63h0a.18.18,0,0,0,.07,0l0,0a0,0,0,0,0,0,0h0a0,0,0,0,0,0,0l0,0s0,0,0,0v0h0l0-.61.23.13.09,0,.07,0h.55l.13,0,2.8-1.63h0l.08-.05,0,0v0h0a0,0,0,0,0,0,0,.06.06,0,0,0,0,0,0,0,0,0,0,0,0s0,0,0,0l0-.6.23.13.09,0,.08,0h.55l.12-.06,18.83-11h0l.07,0,0-.05h0a0,0,0,0,1,0,0v0s0,0,0,0v0h0l0-.6.23.12.09,0,.07,0h.56l.12,0,2.8-1.63h0l.08,0,0,0h0s0,0,0,0,0,0,0,0v0h0l0-.6.23.13.09,0,.07,0h.55l.13,0,2.79-1.63h0l.07,0,0,0a0,0,0,0,1,0,0h0l0,0s0,0,0,0a0,0,0,0,0,0,0s0,0,0,0l0-.66.27.15.09,0,.07,0h.56l.12,0,2.8-1.63h0l.08,0,0,0h0s0,0,0,0v0a0,0,0,0,0,0,0v0h0l0-.6.23.13.09,0,.07,0h.55a.34.34,0,0,0,.12-.06l2.8-1.63h0l.07-.05,0,0h0a0,0,0,0,1,0,0s0,0,0,0a0,0,0,0,0,0,0s0,0,0,0l0-.79a.19.19,0,0,1,0,.13h0a.29.29,0,0,1-.11.11L103.55,85l-.18.07h0a.65.65,0,0,1-.2,0h0a.82.82,0,0,1-.22,0h0l-.2-.07-2.25-1.26a.33.33,0,0,1-.19-.24l0,.78a.32.32,0,0,0,.19.23l2,1.1a.53.53,0,0,1-.11.09l-2.8,1.63-.17.07h0a.64.64,0,0,1-.2,0h0a.78.78,0,0,1-.22,0h0l-.19-.07-2.26-1.26s0,0-.06,0l.49-.29h0l.08-.06,0,0h0v0a0,0,0,0,0,0,0s0,0,0,0a0,0,0,0,0,0,0h0l0-.76.37.21.09,0,.07,0h.55l.13-.06L99.8,84h0l.07,0,0,0h0v0l0,0s0,0,0,0v0h0l0-.62.25.14.09,0,.07,0h.55a.52.52,0,0,0,.13-.06l3.19-1.86h0l.07-.05,0,0a0,0,0,0,1,0,0h0s0,0,0,0,0,0,0,0,0,0,0,0a0,0,0,0,0,0,0h0l0-.51,3.61,2,.09,0,.07,0h.55l.13-.05,2.11-1.24h0l.07-.06,0,0h0v0l0,0v0s0,0,0,0l0-.78a.19.19,0,0,1,0,.12h0a.4.4,0,0,1-.12.1l-2.12,1.24a.75.75,0,0,1-.18.07h0a.64.64,0,0,1-.2,0h0a.76.76,0,0,1-.21,0h0l-.2-.07-5.71-3.19s0,0-.08-.06L104,77.61h0a.18.18,0,0,0,.07,0l0,0h0v0l0,0v0s0,0,0,0h0l0-.77a.19.19,0,0,1,0,.12h0a.36.36,0,0,1-.13.11l-2.11,1.24-.19.07h0a.68.68,0,0,1-.2,0h0a.68.68,0,0,1-.21,0h0a.7.7,0,0,1-.2-.08L95.32,74.9a.46.46,0,0,1-.07-.07l1.84-1.07h0s.05,0,.06-.06a.08.08,0,0,0,0,0h0l0,0s0,0,0,0v0l0-.78a.19.19,0,0,1,0,.12h0a.44.44,0,0,1-.12.11l-3,1.76a.49.49,0,0,1-.17.06h0l-.21,0h0a.71.71,0,0,1-.21,0h0l-.2-.07L91,73.49a.29.29,0,0,1-.08-.07l2.74-1.6h0l.08-.06,0,0h0l0,0a0,0,0,0,1,0,0v0a0,0,0,0,0,0,0h0l0-.78a.19.19,0,0,1,0,.12h0a.63.63,0,0,1-.12.1l-9.44,5.5a.51.51,0,0,1-.17.07h0l-.21,0h0a.78.78,0,0,1-.22,0h0l-.2-.07-2.26-1.26,0,0,1.23-.72h0l.08-.05,0,0h0v-.05a55561924516,55561924516,0,0,1,0-.06h0l0-.6.23.13.09,0,.08,0h0s0,0,0,0h.5l.12-.06,2.8-1.63h0l.08-.05,0,0h0l0,0V72a0,0,0,0,0,0,0h0l0-.51.15.08.09,0,.07,0h.5l0,0,.12,0,2.81-1.63h0l.07-.06,0,0h0a0,0,0,0,1,0,0v0s0,0,0,0,0,0,0,0h0l0-.78a.28.28,0,0,1,0,.13h0a.36.36,0,0,1-.11.1l-2.8,1.63-.18.07h0l-.2,0h0a.83.83,0,0,1-.22,0h0l-.2-.07-2.25-1.26a.31.31,0,0,1-.19-.24l0,.78a.33.33,0,0,0,.19.24l2,1.1s0,0,0,0L83.4,73a.49.49,0,0,1-.17.06h0a.75.75,0,0,1-.21,0h0a.78.78,0,0,1-.22,0h0L82.57,73l-2.26-1.26a.31.31,0,0,1-.18-.24l0,.78a.28.28,0,0,0,.18.23l2,1.1a.3.3,0,0,1-.1.09l-2.8,1.63a.55.55,0,0,1-.18.06h0a.65.65,0,0,1-.2,0h0a.86.86,0,0,1-.22,0h0l-.2-.07-2.25-1.26a.3.3,0,0,1-.18-.23l0,.77a.35.35,0,0,0,.19.24L78.28,76s0,0,0,0h0a.43.43,0,0,1-.12.11l-2.8,1.63-.17.07h0a.75.75,0,0,1-.21,0h0a.82.82,0,0,1-.22,0h0l-.19-.07-2.26-1.26a.31.31,0,0,1-.18-.24l0,.78a.3.3,0,0,0,.18.23l2,1.1a.3.3,0,0,1-.1.09l-2.8,1.63a1,1,0,0,1-.18.07h0a.68.68,0,0,1-.21,0h0a.86.86,0,0,1-.22,0h0l-.2-.07L68.26,78.8a.31.31,0,0,1-.19-.24l0,.78a.35.35,0,0,0,.19.24l1.95,1.09a.24.24,0,0,1-.1.1l-2.8,1.63a.48.48,0,0,1-.18.06s0,0,0,0l-.21,0h0l-.22,0h0a.84.84,0,0,1-.2-.08l-2.25-1.26a.3.3,0,0,1-.18-.23l0,.77a.28.28,0,0,0,.18.24l2,1.09a.36.36,0,0,1-.11.1l-2.79,1.63a.48.48,0,0,1-.18.06h0l-.2,0h0l-.22,0h0a.77.77,0,0,1-.19-.08l-2.25-1.25a.31.31,0,0,1-.18-.24l0,.78a.31.31,0,0,0,.17.24l2,1.09a.22.22,0,0,1-.1.09l-2.8,1.63a.48.48,0,0,1-.18.07h0l-.2,0h0a.76.76,0,0,1-.21,0h0a.84.84,0,0,1-.19-.07L56.24,85.8a.28.28,0,0,1-.18-.23l0,.77a.31.31,0,0,0,.19.24l2,1.09a.24.24,0,0,1-.11.09l-2.79,1.63a.62.62,0,0,1-.19.07h0l-.2,0h0l-.22,0h0a.93.93,0,0,1-.2-.08l-2.26-1.26a.29.29,0,0,1-.17-.23l0,.77a.28.28,0,0,0,.18.24l2,1.09a.38.38,0,0,1-.11.11l-2.8,1.62a1,1,0,0,1-.18.08h0a.65.65,0,0,1-.2,0h0l-.21,0h0a.68.68,0,0,1-.2-.07l-2.25-1.25-.14-.11a.33.33,0,0,1,0-.14l0,.78a.31.31,0,0,0,.19.24l2,1.1a.53.53,0,0,1-.11.09l-2.79,1.63-.18.07h0a.65.65,0,0,1-.2,0h0a.68.68,0,0,1-.21,0h0l-.2-.07-2.25-1.26a.57.57,0,0,1-.14-.11.24.24,0,0,1,0-.13l0,.78a.3.3,0,0,0,.19.23l2,1.09a.52.52,0,0,1-.11.1L43.3,96.4a.75.75,0,0,1-.18.07h0l-.2,0h0l-.22,0h0l-.2-.07-2.25-1.26A.31.31,0,0,1,40,94.9l0,.78a.31.31,0,0,0,.19.24l2,1.09-.1.1-2.81,1.63a.49.49,0,0,1-.17.06h0l-.21,0h0l-.22,0h0a.77.77,0,0,1-.19-.08l-2.25-1.25a.33.33,0,0,1-.19-.24l0,.78a.3.3,0,0,0,.18.23l2,1.09a.36.36,0,0,1-.11.1l-2.79,1.63a.75.75,0,0,1-.18.07h0a.64.64,0,0,1-.2,0h0a.76.76,0,0,1-.21,0h0l-.19-.07L32.2,99.81Q32,99.7,32,99.57l0,.78a.33.33,0,0,0,.18.24l2,1.09a.33.33,0,0,1-.11.09l-2.8,1.63a.48.48,0,0,1-.18.07h0l-.21,0h0a.76.76,0,0,1-.21,0h0a.54.54,0,0,1-.19-.07l-2.26-1.26A.31.31,0,0,1,28,101.92ZM82.53,78.27l.41-.23a0,0,0,0,1,0,0L83,78l0,0h0v0l0,0s0,0,0,0v0h0l0-.63.26.15.09,0,.07,0h.12l0,0H84l0,0H84l.13-.06L86.6,75.9l0,.55a.33.33,0,0,0,.18.25L89.06,78l.09,0,.07,0h.55l.12-.06,1-.59,0,.54a.33.33,0,0,0,.19.24l2.25,1.25.08,0,.08,0H94l0,0,.12,0,.15-.09,0,.5c0,.09.06.17.18.25l1.87,1a.15.15,0,0,1,0,.07h0a.43.43,0,0,1-.12.11l-3.69,2.15a.48.48,0,0,1-.18.06s0,0,0,0l-.2,0h0l-.23,0h0l-.19-.07L89.5,82.18l0-.05L92,80.66h0l.08-.06,0,0h0a0,0,0,0,0,0,0s0,0,0,0a0,0,0,0,1,0,0v0h0l0-.77a.19.19,0,0,1,0,.12h0a.43.43,0,0,1-.12.11L86.4,83.11a.75.75,0,0,1-.18.07H86a.78.78,0,0,1-.22,0h0l-.19-.07-2.26-1.26s0,0-.06,0l1.21-.71h0l.07-.06a.08.08,0,0,0,0,0h0s0,0,0,0l0,0v0a.08.08,0,0,0,0,0l0-.65,1.05.58,0-.77-3-1.69Z"/><path class="cls-29" d="M97.24,77.63l.07,0,0,0h0s0,0,0,0,0,0,0,0,0,0,0,0v0h0l0-.61,3.37,1.88a.27.27,0,0,1-.11.1l-3,1.76a.75.75,0,0,1-.18.07h0l-.2,0h0l-.21,0h0l-.19-.08-2.26-1.25s0,0,0,0l2.75-1.61Z"/><path class="cls-29" d="M92.92,76.19l.08-.06,0,0h0v0s0,0,0,0,0,0,0,0v0h0l0-.52.17.09.09,0,.07,0h.55l.12-.06,1.09-.63,0,.54a.28.28,0,0,0,.18.24l2,1.09a.36.36,0,0,1-.11.1l-3,1.76a1,1,0,0,1-.18.07h0a.64.64,0,0,1-.2,0h0a.83.83,0,0,1-.22,0h0l-.2-.07-2.25-1.26A.55.55,0,0,1,91,77.3l1.91-1.11Z"/><path class="cls-29" d="M90.79,74a.32.32,0,0,0,.19.23l2,1.1-.06,0-3,1.76a.45.45,0,0,1-.18.07h0l-.21,0h0l-.21,0h0a.7.7,0,0,1-.2-.08l-2.25-1.25a.71.71,0,0,1-.09-.07l4.08-2.38Z"/><path class="cls-29" d="M85.38,84.39a0,0,0,0,0,0,0h0l0-.6.23.13.09,0,.08,0h.54l.13,0,2.9-1.69,0,.51a.31.31,0,0,0,.18.25L91.47,84h0a.26.26,0,0,1-.12.11l-2.8,1.63-.17.07h0l-.2,0h0l-.22,0h0a.68.68,0,0,1-.2-.07l-2.25-1.25-.1-.08v0A.08.08,0,0,0,85.38,84.39Z"/><path class="cls-29" d="M83.37,89.6l.07,0,0,0h0s0,0,0,0,0,0,0,0v0h0l0-.6.23.13.09,0,.07,0h.37l.07,0h.11a.52.52,0,0,0,.13-.06l1.5-.87,0,.56a.35.35,0,0,0,.19.24l2,1.09a.33.33,0,0,1-.11.09l-2.8,1.63a.75.75,0,0,1-.18.07h0l-.21,0h0l-.22,0h0a.62.62,0,0,1-.19-.07l-2.25-1.25-.1-.08,1.21-.7Z"/><path class="cls-29" d="M79.36,91.94l.07-.06a.08.08,0,0,0,0,0h0v0s0,0,0,0a0,0,0,0,1,0,0v0h0l0-.59.23.13.08,0,.07,0h.5l.05,0,.13-.05,1.51-.88,0,.56a.28.28,0,0,0,.18.24l2,1.09a.36.36,0,0,1-.11.1L81.33,94a.55.55,0,0,1-.18.06h0a.65.65,0,0,1-.2,0h0a.82.82,0,0,1-.22,0h0l-.2-.07-2.25-1.26a.34.34,0,0,1-.09-.08l1.2-.7Z"/><path class="cls-29" d="M75.36,94.27l.07,0,0,0h0v0s0,0,0,0,0,0,0,0v0h0l0-.6.23.13.09,0,.07,0h.55l.13-.06,1.5-.88,0,.56a.34.34,0,0,0,.19.25l2,1.09a.3.3,0,0,1-.1.09l-2.8,1.63a.75.75,0,0,1-.18.07h0l-.2,0h0a.76.76,0,0,1-.21,0h0a.54.54,0,0,1-.19-.07l-2.26-1.26a.31.31,0,0,1-.09-.07l1.21-.71Z"/><path class="cls-29" d="M71.35,96.6a.18.18,0,0,0,.07,0s0,0,0,0h0s0,0,0,0v-.06h0l0-.6.24.13a.2.2,0,0,0,.08,0l.07,0h.55l.13,0,1.5-.88,0,.56a.28.28,0,0,0,.18.24l2,1.09a.33.33,0,0,1-.11.09l-2.79,1.63a.67.67,0,0,1-.18.07h0l-.2,0h0l-.22,0h0a.68.68,0,0,1-.2-.07l-2.25-1.25a.36.36,0,0,1-.09-.08l1.2-.7Z"/><path class="cls-29" d="M67.33,98.94l.08,0,0,0h0l0,0s0,0,0,0v0h0l0-.61.24.14.09,0,.07,0h.5l0,0,.13-.05,1.5-.88,0,.56a.29.29,0,0,0,.19.24l1.95,1.09a.57.57,0,0,1-.11.11L69.3,101a.48.48,0,0,1-.18.07h0l-.2,0h0l-.21,0h0a.54.54,0,0,1-.19-.08l-2.26-1.25a.34.34,0,0,1-.09-.08l1.21-.7Z"/><path class="cls-29" d="M63.33,101.28l.07-.06a.08.08,0,0,0,0,0h0v0a0,0,0,0,0,0,0,.06.06,0,0,0,0,0s0,0,0,0h0l0-.59.24.13.08,0,.07,0h.5l.05,0,.13,0L66,99.7l0,.56a.28.28,0,0,0,.18.24l2,1.1a.53.53,0,0,1-.11.09l-2.79,1.63a.64.64,0,0,1-.18.06h0a.65.65,0,0,1-.2,0h0l-.21,0h0l-.2-.07-2.25-1.26a.24.24,0,0,1-.09-.08l1.21-.7Z"/><path class="cls-29" d="M59.32,103.61l.07,0,0,0h0v0l0,0a0,0,0,0,1,0,0v0h0l0-.6.23.13.09,0,.07,0h.55l.13-.06L62,102l0,.56a.32.32,0,0,0,.19.25l1.95,1.08a.32.32,0,0,1-.1.1l-2.8,1.63a1,1,0,0,1-.18.07h0l-.2,0h0l-.22,0h0a.54.54,0,0,1-.19-.07l-2.26-1.26a.71.71,0,0,1-.09-.07l1.21-.7Z"/><path class="cls-29" d="M55.32,105.94a.18.18,0,0,0,.07,0l0,0h0s0,0,0,0a0,0,0,0,0,0,0v0h0l0-.6.24.13a.2.2,0,0,0,.08,0l.07,0h.55l.13,0,1.5-.88,0,.56a.33.33,0,0,0,.19.24l2,1.09a.33.33,0,0,1-.11.09L57.29,108a.67.67,0,0,1-.18.07h0l-.21,0h0l-.22,0h0a.64.64,0,0,1-.19-.08l-2.25-1.25a.39.39,0,0,1-.1-.08l1.21-.7Z"/><path class="cls-29" d="M51.25,108.31l.08,0,0,0h0l0,0s0,0,0,0a0,0,0,0,1,0,0v0h0l0-.67.29.17.09,0,.07,0h.24s0,0,0,0h.24l0,0,.12,0L54,106.7l0,.56a.28.28,0,0,0,.18.24l2,1.09a.36.36,0,0,1-.11.1l-2.79,1.63a1,1,0,0,1-.18.07h0a.64.64,0,0,1-.2,0h0l-.22,0h0a.84.84,0,0,1-.19-.07l-2.26-1.26a.71.71,0,0,1-.09-.07l1.15-.67Z"/><path class="cls-29" d="M46.89,99,47,99l0,0v0h0v0a0,0,0,0,0,0,0,0,0,0,0,0,0,0v0h0l0-.6.23.13.09,0,.07,0H48l.13-.06L50.33,97l0,.53a.31.31,0,0,0,.18.24l2,1.09a.53.53,0,0,1-.11.09l-2.8,1.63-.17.07h0l-.21,0h0a.83.83,0,0,1-.22,0h0l-.2-.07L46.5,99.36a.18.18,0,0,1-.07,0l.45-.27Z"/><path class="cls-29" d="M50.89,96.71l.07-.06,0,0h0v0l0,0v-.07h0l0-.6.23.13.09,0,.07,0H52l.12,0,2.24-1.31,0,.53a.29.29,0,0,0,.19.24l2,1.09a.24.24,0,0,1-.1.1l-2.8,1.63a.48.48,0,0,1-.18.06h0a.75.75,0,0,1-.21,0h0a.78.78,0,0,1-.22,0h0l-.19-.07L50.5,97,50.43,97l.45-.26Z"/><path class="cls-29" d="M54.9,94.37a.18.18,0,0,0,.07-.05l0,0h0v0a224773240088.63,224773240088.63,0,0,1,0-.06v0h0l0-.6.23.13.09,0,.07,0H56l.13-.06,2.25-1.31,0,.53a.28.28,0,0,0,.18.24l2,1.09a.4.4,0,0,1-.12.1L57.6,96a.67.67,0,0,1-.18.07h0l-.2,0h0L57,96h0a.68.68,0,0,1-.2-.07L54.51,94.7l-.07-.06.45-.26Z"/><path class="cls-29" d="M58.9,92,59,92l0,0v0h0v0l0,0s0,0,0,0v0h0l0-.61.24.13.09,0,.07,0H60a.45.45,0,0,0,.12-.06L62.35,90l0,.53a.33.33,0,0,0,.19.24l2,1.09a.22.22,0,0,1-.1.09l-2.8,1.63a.51.51,0,0,1-.17.07h0l-.21,0h0l-.22,0h0a.62.62,0,0,1-.19-.07l-2.25-1.25-.07-.06L58.9,92Z"/><path class="cls-29" d="M62.92,89.7l.07-.06,0,0v0h0s0,0,0,0l0,0v0a0,0,0,0,0,0,0h0l0-.6.24.13.08,0,.08,0H64l.13-.06,2.24-1.31,0,.53a.32.32,0,0,0,.19.25l2,1.09a.45.45,0,0,1-.1.09l-2.8,1.63-.18.07h0l-.2,0h0a.83.83,0,0,1-.22,0h0a.68.68,0,0,1-.2-.07L62.53,90a.18.18,0,0,1-.07,0l.45-.27Z"/><path class="cls-29" d="M66.92,87.37l.08-.06,0,0h0s0,0,0,0,0,0,0,0,0,0,0,0v0h0l0-.6.23.14.09,0,.07,0H68l.13,0,2.23-1.31,0,.53a.31.31,0,0,0,.19.24l2,1.09a.24.24,0,0,1-.1.1L69.62,89a.49.49,0,0,1-.17.06h0a.71.71,0,0,1-.2,0h0L69,89h0a.64.64,0,0,1-.19-.08l-2.25-1.25-.07-.06.45-.26Z"/><path class="cls-29" d="M70.93,85,71,85l0,0h0v0l0,0v0s0,0,0,0h0l0-.6.23.13.09,0,.07,0H72a.52.52,0,0,0,.13-.06L74.37,83l0,.53a.32.32,0,0,0,.19.24l2,1.09a.45.45,0,0,1-.1.09l-2.8,1.63a.48.48,0,0,1-.18.07h0l-.2,0h0l-.21,0h0a.48.48,0,0,1-.2-.07l-2.25-1.25-.07-.06.46-.27Z"/><path class="cls-29" d="M74.94,82.7l.07-.06,0,0v0h0l0,0v0s0,0,0,0v0h0l0-.6.23.13.09,0,.07,0H76l.05,0,.13,0,2.24-1.31v.53a.31.31,0,0,0,.19.24l2,1.09a.36.36,0,0,1-.11.1l-2.8,1.63-.17.07h0a.69.69,0,0,1-.2,0h0a.83.83,0,0,1-.22,0h0l-.2-.07L74.55,83s0,0-.07-.06l.45-.26Z"/><path class="cls-29" d="M78.94,80.36l.08,0,0,0h0a0,0,0,0,0,0,0s0,0,0,0a0,0,0,0,1,0,0v0h0l0-.59.23.12.08,0,.08,0H80l.13,0,2.28-1.33,0,.53a.32.32,0,0,0,.19.24l1.94,1.08a0,0,0,0,0,0,0h0a.65.65,0,0,1-.12.11l-2.8,1.62a.36.36,0,0,1-.18.07h0l-.2,0h0L81,82h0a.54.54,0,0,1-.19-.08l-2.26-1.25-.07-.06.46-.26Z"/><path class="cls-29" d="M80.47,83.42a.18.18,0,0,0,.07,0l0,0h0v0s0,0,0,0a0,0,0,0,0,0,0v0h0l0-.6.24.13.08,0,.07,0h.55l.13-.06,1.47-.85,0,.52a.31.31,0,0,0,.18.24l2,1.09-.1.09-2.8,1.63a.75.75,0,0,1-.18.07h0l-.2,0h0a.83.83,0,0,1-.22,0h0a.68.68,0,0,1-.2-.07l-2.25-1.26s0,0-.06-.05l1.21-.71Z"/><path class="cls-29" d="M77.37,89.06v0h0l0-.6.23.13.09,0,.08,0h.54a.52.52,0,0,0,.13-.06l2.8-1.63h0l.06,0,0,.52a.31.31,0,0,0,.18.25l2,1.09a.53.53,0,0,1-.11.09l-2.8,1.63-.17.07h0l-.21,0h0a.78.78,0,0,1-.22,0h0a.62.62,0,0,1-.19-.07L77.44,89.2a.34.34,0,0,1-.09-.08,0,0,0,0,0,0,0A0,0,0,0,0,77.37,89.06Z"/><path class="cls-29" d="M73.36,91.4a.08.08,0,0,0,0,0h0l0-.61.23.13.09,0,.07,0h.55l.12,0,2.8-1.63h0l0,0,0,.52q0,.14.18.24l2,1.09a.28.28,0,0,1-.1.09l-2.8,1.63a.48.48,0,0,1-.18.07h0l-.2,0h0l-.22,0h0a.54.54,0,0,1-.19-.07l-2.26-1.25-.1-.08,0,0Z"/><path class="cls-29" d="M69.36,93.73v0h0l0-.6.23.13.09,0,.07,0h.55l.13-.06,2.8-1.63h0l.06,0v.52a.31.31,0,0,0,.19.24l2,1.09a.36.36,0,0,1-.11.1l-2.8,1.63a.75.75,0,0,1-.18.07h0a.76.76,0,0,1-.21,0h0l-.21,0h0l-.19-.07-2.26-1.26a.34.34,0,0,1-.09-.08v0A0,0,0,0,0,69.36,93.73Z"/><path class="cls-29" d="M65.33,95.41l.24.14.09,0,.07,0h.55a.27.27,0,0,0,.12-.06l2.8-1.63h0l.05,0,0,.53a.31.31,0,0,0,.18.24l2,1.09-.1.09-2.8,1.63a.75.75,0,0,1-.18.07h0l-.2,0h0a.76.76,0,0,1-.21,0h0a.84.84,0,0,1-.19-.07L65.43,96.2a.39.39,0,0,1-.1-.08v-.05a.06.06,0,0,0,0,0h0Z"/><path class="cls-29" d="M61.34,98.4v0h0l0-.6.23.13.09,0,.07,0h.55a.52.52,0,0,0,.13-.06l2.79-1.63h0a.1.1,0,0,0,.06-.05l0,.53a.33.33,0,0,0,.19.24l2,1.09a.27.27,0,0,1-.11.1L64.5,99.8a.75.75,0,0,1-.18.07h0l-.2,0h0a.76.76,0,0,1-.21,0h0a.62.62,0,0,1-.19-.07l-2.26-1.26a.34.34,0,0,1-.09-.08v0A0,0,0,0,0,61.34,98.4Z"/><path class="cls-29" d="M57.33,100.73a0,0,0,0,0,0,0h0l0-.61.24.13.09,0,.07,0h.55l.12,0,2.8-1.63h0l.05,0,0,.52q0,.14.18.24l2,1.09a.43.43,0,0,1-.1.09l-2.8,1.63a.56.56,0,0,1-.18.07h0l-.2,0h0l-.22,0h0a.7.7,0,0,1-.2-.08l-2.25-1.25-.1-.08,0,0Z"/><path class="cls-29" d="M53.33,103.07v0h0l0-.6.23.13.09,0,.07,0h.55l.13-.06,2.8-1.63h0l0,0,0,.52a.31.31,0,0,0,.19.24l2,1.09a.24.24,0,0,1-.1.1l-2.8,1.63a.75.75,0,0,1-.18.07h0a.64.64,0,0,1-.2,0h0a.76.76,0,0,1-.21,0h0l-.19-.07-2.26-1.26a.34.34,0,0,1-.09-.08v-.06Z"/><path class="cls-29" d="M52.42,99.76a.18.18,0,0,0,.07-.05s0,0,0,0h0s0,0,0,0a0,0,0,0,0,0,0v0h0l0-.6.24.13.08,0,.07,0h.37l.08,0h.1l.13-.06,1.47-.85,0,.52c0,.09.07.17.19.24l2,1.09a.29.29,0,0,1-.1.09l-2.8,1.64a.55.55,0,0,1-.18.06h0l-.2,0h0l-.21,0h0l-.2-.08-2.25-1.25-.06,0,1.21-.71Z"/><path class="cls-29" d="M56.43,97.43l.07-.05,0,0v0h0v0l0,0s0,0,0,0v0h0l0-.6.23.13.09,0,.07,0h.55l.12-.06,1.48-.86v.53a.32.32,0,0,0,.19.23l2,1.1a.53.53,0,0,1-.11.09l-2.79,1.63-.18.07h0a.64.64,0,0,1-.2,0h0a.83.83,0,0,1-.22,0h0l-.2-.07-2.25-1.26s0,0-.07,0l1.22-.71Z"/><path class="cls-29" d="M60.43,95.1,60.5,95l0,0h0v0a.08.08,0,0,0,0,0v0h0l0-.61.25.14.08,0,.08,0h.54l.13-.06,1.47-.86,0,.53a.3.3,0,0,0,.18.23l2,1.1a.36.36,0,0,1-.11.1l-2.8,1.63a.75.75,0,0,1-.18.07h0a.65.65,0,0,1-.2,0h0a.75.75,0,0,1-.21,0h0a.7.7,0,0,1-.2-.08l-2.25-1.25-.06,0,1.21-.71Z"/><path class="cls-29" d="M64.45,92.76l.07-.06,0,0h0l0,0s0,0,0,0v-.07h0l0-.59.23.13.09,0,.07,0H65l.06,0h.38l0,0,.12,0,1.48-.86,0,.52a.28.28,0,0,0,.18.24l2,1.1a.53.53,0,0,1-.11.09l-2.79,1.63-.18.07h0a.68.68,0,0,1-.2,0h0a.82.82,0,0,1-.22,0h0a.7.7,0,0,1-.2-.08l-2.25-1.25-.06,0,1.21-.71Z"/><path class="cls-29" d="M68.45,90.42a.18.18,0,0,0,.07,0s0,0,0,0h0a.06.06,0,0,0,0,0,0,0,0,0,0,0,0v0h0l0-.6.24.13.09,0,.07,0h.36l.09,0h.09l.13-.06,1.47-.85,0,.52a.33.33,0,0,0,.19.24l2,1.09a.22.22,0,0,1-.1.09l-2.8,1.63a.48.48,0,0,1-.18.07h0l-.2,0h0l-.22,0h0l-.2-.08-2.25-1.25-.06,0,1.21-.71Z"/><path class="cls-29" d="M72.46,88.09l.07-.06,0,0h0v0s0,0,0,0v0h0l0-.6.23.13.09,0,.07,0h.5l0,0,.13,0,1.47-.86,0,.52a.28.28,0,0,0,.18.24l2,1.1a.53.53,0,0,1-.11.09l-2.79,1.63-.18.07h0a.64.64,0,0,1-.2,0h0a.83.83,0,0,1-.22,0h0l-.2-.07L71.3,88.85s0,0-.06,0l1.21-.71Z"/><path class="cls-29" d="M76.46,85.75a.18.18,0,0,0,.07,0,.08.08,0,0,0,0,0h0v0a0,0,0,0,0,0,0,.06.06,0,0,0,0,0s0,0,0,0h0l0-.6.24.13.08,0,.08,0h.55l.12,0,1.48-.86v.52a.33.33,0,0,0,.19.24l2,1.09a.36.36,0,0,1-.11.1l-2.8,1.63a.48.48,0,0,1-.18.06h0a.75.75,0,0,1-.21,0h0l-.22,0h0a.54.54,0,0,1-.19-.08L75.3,86.52l-.06,0,1.21-.71Z"/><path class="cls-29" d="M48.41,102.1l.07-.06,0,0h0v0l0,0a.06.06,0,0,1,0,0v0h0l0-.59.23.13.09,0,.07,0h.24a0,0,0,0,1,0,0h.24l.05,0,.12,0,1.47-.86,0,.52a.31.31,0,0,0,.19.24l2,1.09a.36.36,0,0,1-.11.1l-2.79,1.63a.64.64,0,0,1-.18.06h0a.71.71,0,0,1-.2,0h0a.78.78,0,0,1-.22,0h0l-.19-.07-2.26-1.26-.06,0,1.22-.71Z"/><path class="cls-29" d="M49.32,105.4v0h0l0-.6.24.13.08,0,.07,0h.56a.27.27,0,0,0,.12-.06l2.8-1.63h0l0,0,0,.53a.31.31,0,0,0,.18.24l2,1.09a.33.33,0,0,1-.11.09l-2.8,1.63-.17.07h0l-.2,0h0a.83.83,0,0,1-.22,0h0a.68.68,0,0,1-.2-.07l-2.25-1.26a.39.39,0,0,1-.1-.08,0,0,0,0,0,0,0A.08.08,0,0,0,49.32,105.4Z"/><path class="cls-29" d="M81.38,86.73v0h0l0-.6.23.13.09,0,.07,0h.5l0,0,.13,0,2.8-1.63h0l0,0,0,.52c0,.09.07.17.19.24l2,1.09a.32.32,0,0,1-.1.1l-2.8,1.63a.48.48,0,0,1-.18.06h0l-.2,0h0l-.21,0h0a.84.84,0,0,1-.19-.07l-2.26-1.26a.24.24,0,0,1-.09-.08,73806138536.78,73806138536.78,0,0,0,0-.06Z"/><path class="cls-29" d="M78.19,76.87l.07-.05,0,0h0v0s0,0,0,0v-.06h0l0-.65.27.15.09,0,.07,0h.55l.13,0,1.45-.85,0,.52q0,.14.18.24l2,1.09h0a.26.26,0,0,1-.12.11l-2.8,1.63-.17.07h0a.69.69,0,0,1-.2,0h0a.83.83,0,0,1-.22,0h0l-.2-.07L77,77.63s0,0-.07,0l1.22-.71Z"/><path class="cls-29" d="M74.18,79.2l.07,0,0,0h0s0,0,0,0v0a0,0,0,0,0,0,0h0l0-.6.24.13.08,0,.08,0h.54a.52.52,0,0,0,.13-.06l1.47-.85,0,.52a.33.33,0,0,0,.18.24l2,1.09a.45.45,0,0,1-.1.09l-2.8,1.63a.75.75,0,0,1-.18.07h0l-.2,0h0a.76.76,0,0,1-.21,0h0a.68.68,0,0,1-.2-.07L73,80a.34.34,0,0,1-.06-.06l1.22-.7Z"/><path class="cls-29" d="M70.18,81.54l.07-.06,0,0h0v0s0,0,0,0a.08.08,0,0,1,0,0v0h0l0-.61.23.13.09,0,.07,0h.55l.13,0L72.85,80l0,.52a.28.28,0,0,0,.18.24l2,1.09a.36.36,0,0,1-.11.1l-2.8,1.63a.48.48,0,0,1-.18.06h0a.75.75,0,0,1-.21,0h0a.78.78,0,0,1-.22,0h0l-.19-.07L69,82.3l-.06,0,1.21-.71Z"/><path class="cls-29" d="M66.17,83.87l.07-.05,0,0h0v0a109889139599.44,109889139599.44,0,0,0,0-.06s0,0,0,0h0l0-.6.23.13.09,0,.08,0h.54l.13-.06,1.47-.86,0,.53a.28.28,0,0,0,.18.23l2,1.1-.1.09-2.8,1.63a.75.75,0,0,1-.18.07h0a.64.64,0,0,1-.2,0h0a.76.76,0,0,1-.21,0h0l-.2-.07L65,84.63s0,0-.06,0l1.21-.71Z"/><path class="cls-29" d="M62.16,86.2l.08,0,0,0h0v0l0,0v0a0,0,0,0,0,0,0h0l0-.6.23.13.09,0,.07,0h.55a.52.52,0,0,0,.13-.06l1.47-.85,0,.52q0,.14.18.24l2,1.09a.33.33,0,0,1-.11.09l-2.8,1.63a.48.48,0,0,1-.18.07h0l-.21,0h0l-.22,0h0a.62.62,0,0,1-.19-.07L61,87l-.06,0,1.22-.71Z"/><path class="cls-29" d="M58.16,88.54l.07-.06,0,0h0s0,0,0,0,0,0,0,0,0,0,0,0v0h0l0-.6.23.13.09,0,.07,0h.5l0,0,.13,0L60.83,87l0,.52a.28.28,0,0,0,.18.24l2,1.09a.36.36,0,0,1-.11.1l-2.79,1.63a.55.55,0,0,1-.18.06h0a.65.65,0,0,1-.2,0h0a.75.75,0,0,1-.21,0h0l-.2-.07L57,89.3s0,0-.06,0l1.21-.71Z"/><path class="cls-29" d="M54.14,90.88l.07-.06a.08.08,0,0,0,0,0h0s0,0,0,0l0,0a.08.08,0,0,1,0,0v0h0l0-.62.24.14.09,0,.07,0h.55l.12-.06,1.48-.86v.53a.35.35,0,0,0,.19.24L59,91.17a.36.36,0,0,1-.11.1l-2.8,1.63a.48.48,0,0,1-.18.06h0a.65.65,0,0,1-.2,0h0a.75.75,0,0,1-.21,0h0l-.19-.07L53,91.64l-.06,0,1.21-.71Z"/><path class="cls-29" d="M50.14,93.21l.07,0,0,0h0v0s0,0,0,0a0,0,0,0,0,0,0v0h0l0-.6.23.13.09,0,.07,0h.55l.13-.06,1.47-.86,0,.53a.31.31,0,0,0,.18.24l2,1.09a.53.53,0,0,1-.11.09l-2.79,1.63-.18.07h0l-.2,0h0a.76.76,0,0,1-.21,0h0l-.2-.07L49,94s0,0-.06,0l1.21-.71Z"/><path class="cls-29" d="M46.13,95.54a.18.18,0,0,0,.07-.05.08.08,0,0,0,0,0h0v0a0,0,0,0,0,0,0,.06.06,0,0,0,0,0v0h0l0-.61.24.13.09,0,.07,0H47l.09,0h.1a.75.75,0,0,0,.13-.06L48.81,94v.52a.33.33,0,0,0,.19.24l2,1.09a.29.29,0,0,1-.1.09l-2.8,1.63a.48.48,0,0,1-.18.07h0l-.2,0h0l-.21,0h0a.54.54,0,0,1-.19-.08L45,96.31l-.06,0,1.21-.71Z"/><path class="cls-29" d="M42.13,97.88l.07-.06,0,0v0h0v0s0,0,0,0,0,0,0,0v0h0l0-.6.23.13.09,0,.07,0h.5l.05,0,.13,0,1.47-.86,0,.53a.28.28,0,0,0,.18.23l2,1.09a.36.36,0,0,1-.11.1L44.06,99.9l-.18.07h0a.71.71,0,0,1-.21,0h0a.82.82,0,0,1-.22,0h0l-.2-.07L41,98.64l-.07,0,1.22-.71Z"/><path class="cls-29" d="M34.12,102.55l.07-.06,0,0h0l0,0s0,0,0,0,0,0,0,0v0h0l0-.6.23.13.09,0,.07,0h.55l.13-.05,1.47-.86v.52a.33.33,0,0,0,.19.24l2,1.09a.33.33,0,0,1-.11.09L36,104.56a.51.51,0,0,1-.17.07h0l-.21,0h0l-.22,0h0a.64.64,0,0,1-.19-.08L33,103.31l-.06,0,1.21-.71Z"/><path class="cls-29" d="M38.12,100.21a.18.18,0,0,0,.07,0s0,0,0,0h0a.08.08,0,0,0,0,0,0,0,0,0,0,0,0v0h0l0-.6.24.13.08,0,.08,0h.55l.12-.06,1.47-.85,0,.52c0,.09.07.17.18.24l2,1.09a.53.53,0,0,1-.11.09l-2.79,1.63a1,1,0,0,1-.18.07h0l-.2,0h0l-.22,0h0a.54.54,0,0,1-.19-.07L37,101s0,0-.06,0l1.22-.71Z"/><path class="cls-29" d="M42.88,101.37a.18.18,0,0,0,.07-.05s0,0,0,0h0v0a.06.06,0,0,0,0,0,224773240087.46,224773240087.46,0,0,0,0-.06h0l0-.6.24.13.08,0,.08,0H44a.52.52,0,0,0,.13-.06l2.24-1.3,0,.53c0,.09.07.17.19.24l1.95,1.09a.22.22,0,0,1-.1.09L45.58,103a.48.48,0,0,1-.18.07h0l-.21,0h0L45,103h0l-.19-.08-2.26-1.25-.07-.06.45-.26Z"/><path class="cls-29" d="M44.35,104.46a.18.18,0,0,0,.07,0s0,0,0,0h0a0,0,0,0,1,0,0s0,0,0,0a0,0,0,0,0,0,0v0h0l0-.66.3.16a.2.2,0,0,0,.08,0l.07,0h.55l.13-.06,1.47-.86,0,.53a.31.31,0,0,0,.18.24l2,1.09a.53.53,0,0,1-.11.09l-2.79,1.63a1,1,0,0,1-.18.07h0l-.2,0h0a.83.83,0,0,1-.22,0h0a.68.68,0,0,1-.2-.07l-2.25-1.26s0,0-.06,0l1.15-.67Z"/><path class="cls-29" d="M43.09,105.73a.33.33,0,0,0,.19.24l2,1.09a.36.36,0,0,1-.11.1l-3.48,2-.17.07h0l-.21,0h0a.78.78,0,0,1-.22,0h0a.84.84,0,0,1-.19-.07l-2.26-1.26-.06,0,4.57-2.66Z"/><path class="cls-29" d="M45.16,107.93l.08-.06,0,0v0h0l0,0s0,0,0,0,0,0,0,0v0h0l0-.6.23.13.09,0,.07,0h.5l.05,0,.13,0,2.79-1.63h0a.1.1,0,0,0,0,0l0,.53a.33.33,0,0,0,.19.24l1.92,1.08a0,0,0,0,1,0,0h0a.43.43,0,0,1-.12.11L45.1,111.1l-.17.07h0l-.21,0h0l-.22,0h0a.62.62,0,0,1-.19-.07L42,109.85l-.06,0,3.2-1.87Z"/><path class="cls-29" d="M50,109.6a.35.35,0,0,0,.19.24l2,1.09a.53.53,0,0,1-.11.09l-2.8,1.63a.75.75,0,0,1-.18.07h0l-.21,0h0a.78.78,0,0,1-.22,0h0a.62.62,0,0,1-.19-.07l-2.25-1.25-.1-.08L50,109Z"/><path class="cls-29" d="M48.86,113.52h.26l.05,0,.13,0,2.8-1.63h0l.07,0,0,.54q0,.13.18.24l2,1.09a.33.33,0,0,1-.11.09L52.05,115a.49.49,0,0,1-.17.06h0a.68.68,0,0,1-.2,0h0l-.22,0h0a.64.64,0,0,1-.19-.08L49,113.72a.35.35,0,0,1-.17-.2h.06Z"/><path class="cls-29" d="M52.26,111.6v0h0l0-.6.23.13.09,0,.07,0h.55l.13-.05,2.79-1.63h0a.15.15,0,0,0,.06,0l0,.54a.31.31,0,0,0,.19.24l2,1.1a.53.53,0,0,1-.11.09L55.43,113a.75.75,0,0,1-.18.07h0a.76.76,0,0,1-.21,0h0a.76.76,0,0,1-.21,0h0l-.2-.07-2.25-1.26a.21.21,0,0,1-.1-.08s0,0,0,0Z"/><path class="cls-29" d="M56.26,109.27s0,0,0,0h0l0-.6.24.13.08,0,.08,0h.55l.12-.06,2.8-1.63h0l.06,0,0,.54q0,.13.18.24l2,1.09-.1.1-2.8,1.62a.36.36,0,0,1-.18.07h0l-.2,0h0l-.21,0h0a.7.7,0,0,1-.2-.08l-2.25-1.25a.53.53,0,0,1-.11-.09v0A0,0,0,0,0,56.26,109.27Z"/><path class="cls-29" d="M60.27,106.93v0h0l0-.6.23.13.09,0,.07,0h.5l0,0,.13,0,2.79-1.63h0l.07,0,0,.54a.31.31,0,0,0,.18.24l2,1.09a.53.53,0,0,1-.11.09l-2.8,1.63a.75.75,0,0,1-.18.07h0l-.21,0h0a.78.78,0,0,1-.22,0h0a.62.62,0,0,1-.19-.07l-2.26-1.26a.39.39,0,0,1-.1-.08s0,0,0,0S60.27,107,60.27,106.93Z"/><path class="cls-29" d="M64.27,104.6a0,0,0,0,0,0,0h0l0-.6.24.13.09,0,.07,0H65l.09,0h.1a.45.45,0,0,0,.12-.06l2.8-1.63h0l.06,0,0,.54a.28.28,0,0,0,.18.24l2,1.1a.3.3,0,0,1-.1.09L67.45,106a.75.75,0,0,1-.18.07h0a1.2,1.2,0,0,1-.2,0h0a.75.75,0,0,1-.21,0h0a.7.7,0,0,1-.2-.08l-2.25-1.25a.53.53,0,0,1-.11-.09l0,0Z"/><path class="cls-29" d="M68.28,102.27v0h0l0-.6.23.13.09,0,.07,0h.55l.13-.06,2.8-1.63h0l.07-.06a.08.08,0,0,0,0,0h0v0l0,0v0a0,0,0,0,0,0,0h0l0-.61.24.14.09,0,.07,0h.55l.12-.06,2.8-1.63h0l.07-.06,0,0h0v0s0,0,0,0,0,0,0,0v0h0l0-.6.23.13.09,0,.07,0h.5l0,0,.13,0,2.8-1.63h0a.13.13,0,0,0,.07,0l0,0h0s0,0,0,0a0,0,0,0,1,0,0v0h0l0-.6.23.13.09,0,.07,0,0,0h.51a.45.45,0,0,0,.12-.06l2.8-1.63h0l.07-.05,0,0v0h0v0a54944569798.2,54944569798.2,0,0,1,0-.06.1.1,0,0,1,0,0h0l0-.6.24.13.08,0,.08,0h.54l.13-.06,2.8-1.63h0l.07-.05,0,.54a.31.31,0,0,0,.18.24l2,1.09a.33.33,0,0,1-.11.09l-18.83,11a.49.49,0,0,1-.17.06h0l-.21,0h0l-.22,0h0l-.19-.08-2.26-1.25-.1-.09a74924413363.4,74924413363.4,0,0,1,0-.06Z"/><path class="cls-29" d="M88.32,90.59v0h0l0-.61.23.14.09,0,.07,0h.55a.31.31,0,0,0,.13-.06l2.86-1.67,0,.53a.31.31,0,0,0,.19.24l2,1.1a.53.53,0,0,1-.11.09L91.49,92a.75.75,0,0,1-.18.07h0a.76.76,0,0,1-.21,0h0a.78.78,0,0,1-.22,0h0a.84.84,0,0,1-.19-.07L88.4,90.74l-.1-.09s0,0,0,0Z"/><path class="cls-29" d="M94,87.41l.07,0,0,0h0s0,0,0,0,0,0,0,0a0,0,0,0,0,0,0v0h0l0-.67.29.17.09,0,.07,0h.06l.06,0H95l0,0,.13,0,1.06-.62,0,.53q0,.14.18.24l1.94,1.08h0a.65.65,0,0,1-.12.11l-2.8,1.63a1,1,0,0,1-.18.07h0a.65.65,0,0,1-.2,0h0a.71.71,0,0,1-.21,0h0a.7.7,0,0,1-.2-.08l-2.25-1.25-.07-.06L94,87.41Z"/><path class="cls-29" d="M87.37,87.27l.07-.06,0,0v0h0v0l0,0a.08.08,0,0,1,0,0v0h0l0-.6.23.13.09,0,.07,0h.49l.06,0,.12-.05,2.8-1.63h0l.07-.06s0,0,0,0h0v0s0,0,0,0a.06.06,0,0,0,0,0v0h0l0-.64.27.15.09,0,.07,0h.55l.13-.06,2.3-1.34,0,.56a.31.31,0,0,0,.19.24l1.87,1a.19.19,0,0,1,0,.1h0a.4.4,0,0,1-.12.1l-1.66,1A.75.75,0,0,1,95,86h0l-.2,0h0a.76.76,0,0,1-.21,0h0a.54.54,0,0,1-.19-.07L92.1,84.64a.28.28,0,0,1-.18-.24l0,.78a.33.33,0,0,0,.19.24l1.93,1.08s0,0,0,0h0a.43.43,0,0,1-.12.11l-4.59,2.67a.75.75,0,0,1-.18.07h0a.64.64,0,0,1-.2,0h0l-.22,0h0a.84.84,0,0,1-.19-.07l-2.26-1.26a.71.71,0,0,1-.09-.07l1.21-.71Z"/><path class="cls-29" d="M96.31,82.06l.08-.06,0,0h0v0l0,0s0,0,0,0v0h0l0-.72.36.2.09,0,.07,0h.55l.13-.06.09-.06,0,.55a.35.35,0,0,0,.19.24l2,1.09a.63.63,0,0,1-.12.1l-1.58.92a.75.75,0,0,1-.18.07h0l-.2,0h0l-.21,0h0a.68.68,0,0,1-.2-.07L95.1,82.9a.36.36,0,0,1-.09-.08l1.3-.76Z"/><path class="cls-29" d="M100.67,79.54a.18.18,0,0,0,.07-.05s0,0,0,0h0v0a.08.08,0,0,0,0,0,0,0,0,0,0,0,0s0,0,0,0h0l0-.6.24.13.09,0,.07,0h.54a.52.52,0,0,0,.13-.06l.18-.1,0,.54a.33.33,0,0,0,.19.24l2,1.1,0,0L101,82.52a.55.55,0,0,1-.18.06h0l-.2,0h0a.82.82,0,0,1-.22,0h0l-.2-.07-2.25-1.26-.08-.06,2.83-1.65Z"/><path class="cls-29" d="M84.22,69,87,67.39a1,1,0,0,1,.84,0l2.25,1.26c.24.13.25.34,0,.47l-2.79,1.63a1,1,0,0,1-.84,0l-2.25-1.26C84,69.36,84,69.15,84.22,69Z"/><path class="cls-29" d="M80.29,71.3l2.8-1.63a.9.9,0,0,1,.83,0l2.26,1.25c.23.13.25.35,0,.48L83.4,73a.9.9,0,0,1-.83,0l-2.26-1.25C80.08,71.65,80.07,71.44,80.29,71.3Z"/><path class="cls-29" d="M76.29,73.64,79.09,72a.93.93,0,0,1,.83,0l2.25,1.25c.24.14.25.35,0,.48l-2.8,1.63a1,1,0,0,1-.84,0l-2.25-1.26C76.07,74,76.06,73.77,76.29,73.64Z"/><path class="cls-29" d="M72.24,76,75,74.36a.9.9,0,0,1,.83,0l2.26,1.25c.23.13.25.35,0,.48l-2.8,1.63a.9.9,0,0,1-.83,0l-2.26-1.25C72,76.34,72,76.12,72.24,76Z"/><path class="cls-29" d="M68.24,78.32,71,76.7a.93.93,0,0,1,.83,0L74.12,78c.24.14.25.35,0,.48l-2.8,1.63a1,1,0,0,1-.84,0L68.26,78.8C68,78.67,68,78.46,68.24,78.32Z"/><path class="cls-29" d="M64,80.66,66.83,79a.93.93,0,0,1,.83,0l2.25,1.26c.24.13.25.34,0,.47l-2.8,1.63a.9.9,0,0,1-.83,0l-2.26-1.26C63.82,81,63.8,80.79,64,80.66Z"/><path class="cls-29" d="M60.23,83,63,81.36a1,1,0,0,1,.84,0l2.25,1.26c.24.13.25.35,0,.48l-2.8,1.63a.92.92,0,0,1-.84,0l-2.25-1.25C60,83.34,60,83.12,60.23,83Z"/><path class="cls-29" d="M56.22,85.33,59,83.7a.93.93,0,0,1,.83,0L62.1,85c.24.13.25.34,0,.47l-2.8,1.63a1,1,0,0,1-.84,0L56.24,85.8C56,85.67,56,85.46,56.22,85.33Z"/><path class="cls-29" d="M52.22,87.66,55,86a1,1,0,0,1,.84,0l2.25,1.26c.24.13.25.34,0,.48l-2.79,1.62a.92.92,0,0,1-.84,0l-2.25-1.26C52,88,52,87.79,52.22,87.66Z"/><path class="cls-29" d="M48.2,90,51,88.37a.93.93,0,0,1,.83,0l2.25,1.26c.24.13.25.34,0,.48l-2.8,1.62a1,1,0,0,1-.84,0l-2.25-1.25C48,90.35,48,90.13,48.2,90Z"/><path class="cls-29" d="M44.2,92.33,47,90.7a1,1,0,0,1,.84,0L50.08,92c.24.13.25.35,0,.48l-2.79,1.63a.92.92,0,0,1-.84,0l-2.25-1.25C44,92.68,44,92.46,44.2,92.33Z"/><path class="cls-29" d="M40.19,94.67,43,93a1,1,0,0,1,.84,0l2.25,1.26c.24.13.25.34,0,.47L43.3,96.4a1,1,0,0,1-.84,0l-2.25-1.26C40,95,40,94.8,40.19,94.67Z"/><path class="cls-29" d="M36.19,97,39,95.37a1,1,0,0,1,.84,0l2.25,1.26c.24.13.25.35,0,.47L39.3,98.73a1,1,0,0,1-.84,0L36.2,97.48C36,97.35,36,97.13,36.19,97Z"/><path class="cls-29" d="M32.18,99.34,35,97.71a.9.9,0,0,1,.83,0L38.06,99c.24.14.25.35,0,.48l-2.8,1.63a1,1,0,0,1-.84,0L32.2,99.81C32,99.68,32,99.47,32.18,99.34Z"/><path class="cls-29" d="M28,101.67l2.8-1.63a.93.93,0,0,1,.83,0l2.26,1.26c.24.13.24.34,0,.47l-2.8,1.63a.93.93,0,0,1-.83,0L28,102.14C27.76,102,27.75,101.8,28,101.67Z"/><path class="cls-29" d="M81,74.81l9.44-5.5a.93.93,0,0,1,.83,0l2.26,1.26c.23.13.24.34,0,.47l-9.44,5.5a.93.93,0,0,1-.83,0l-2.25-1.26C80.82,75.15,80.81,74.94,81,74.81Z"/><path class="cls-29" d="M77,77.16l2.8-1.63a1,1,0,0,1,.84,0l2.25,1.25c.24.14.25.35,0,.48l-2.8,1.63a.93.93,0,0,1-.83,0L77,77.63C76.79,77.5,76.78,77.29,77,77.16Z"/><path class="cls-29" d="M73,79.49l2.8-1.63a.93.93,0,0,1,.83,0l2.26,1.26c.23.13.24.34,0,.47l-2.8,1.63a1,1,0,0,1-.84,0L73,80C72.78,79.83,72.78,79.62,73,79.49Z"/><path class="cls-29" d="M69,81.82l2.8-1.62a.87.87,0,0,1,.83,0l2.26,1.25c.24.13.24.35,0,.48l-2.8,1.63a.93.93,0,0,1-.83,0L69,82.3C68.78,82.17,68.77,82,69,81.82Z"/><path class="cls-29" d="M65,84.16l2.8-1.63a.93.93,0,0,1,.83,0l2.26,1.25c.23.14.24.35,0,.48l-2.8,1.63a1,1,0,0,1-.84,0L65,84.63C64.77,84.5,64.77,84.29,65,84.16Z"/><path class="cls-29" d="M61,86.49l2.8-1.63a.93.93,0,0,1,.83,0l2.26,1.26c.23.13.24.34,0,.47l-2.8,1.63a.9.9,0,0,1-.83,0L61,87C60.77,86.83,60.76,86.62,61,86.49Z"/><path class="cls-29" d="M57,88.83l2.8-1.63a.87.87,0,0,1,.83,0l2.26,1.25c.23.13.24.35,0,.48l-2.79,1.63a1,1,0,0,1-.84,0L57,89.3C56.76,89.17,56.76,89,57,88.83Z"/><path class="cls-29" d="M53,91.16l2.8-1.63a.9.9,0,0,1,.83,0l2.26,1.25c.24.13.24.35,0,.48l-2.8,1.63a.93.93,0,0,1-.83,0L53,91.64C52.75,91.51,52.74,91.29,53,91.16Z"/><path class="cls-29" d="M49,93.5l2.8-1.63a.93.93,0,0,1,.83,0l2.25,1.26c.24.13.25.34,0,.47l-2.79,1.63a1,1,0,0,1-.84,0L49,94C48.74,93.84,48.73,93.63,49,93.5Z"/><path class="cls-29" d="M45,95.83l2.8-1.63a.93.93,0,0,1,.83,0l2.26,1.26c.23.13.24.34,0,.47l-2.8,1.63a.93.93,0,0,1-.83,0L45,96.31C44.73,96.17,44.73,96,45,95.83Z"/><path class="cls-29" d="M41,98.17l2.8-1.64a.9.9,0,0,1,.83,0l2.25,1.25c.24.13.25.35,0,.48L44.06,99.9a1,1,0,0,1-.84,0L41,98.64C40.73,98.51,40.72,98.3,41,98.17Z"/><path class="cls-29" d="M36.94,100.5l2.8-1.63a.93.93,0,0,1,.83,0l2.25,1.26c.24.13.25.34,0,.47l-2.79,1.63a.93.93,0,0,1-.83,0L37,101C36.72,100.84,36.71,100.63,36.94,100.5Z"/><path class="cls-29" d="M32.94,102.83l2.79-1.63a1,1,0,0,1,.84,0l2.25,1.26c.24.13.25.34,0,.47L36,104.56a.87.87,0,0,1-.83,0L33,103.31C32.72,103.18,32.71,103,32.94,102.83Z"/><path class="cls-29" d="M90.93,73l3-1.76a.93.93,0,0,1,.83,0L97,72.51c.23.13.24.34,0,.47l-3,1.77a.92.92,0,0,1-.84,0L91,73.49C90.71,73.36,90.7,73.15,90.93,73Z"/><path class="cls-29" d="M86.76,75.44l3-1.76a1,1,0,0,1,.84,0l2.25,1.26c.24.13.24.34,0,.47l-3,1.76a.89.89,0,0,1-.84,0l-2.25-1.25C86.54,75.79,86.53,75.57,86.76,75.44Z"/><path class="cls-29" d="M95.3,74.42l2.12-1.24a.93.93,0,0,1,.83,0l5.69,3.17c.24.13.25.34,0,.47l-2.11,1.24a.92.92,0,0,1-.84,0L95.32,74.9C95.09,74.76,95.07,74.55,95.3,74.42Z"/><path class="cls-29" d="M91.07,76.89l3-1.77a.93.93,0,0,1,.83,0l2.26,1.25c.23.13.25.35,0,.48l-3,1.76a1,1,0,0,1-.84,0l-2.25-1.26C90.85,77.23,90.84,77,91.07,76.89Z"/><path class="cls-29" d="M78.33,80.21l2.79-1.63a.92.92,0,0,1,.84,0l2.25,1.25c.24.13.25.34,0,.48l-2.8,1.62a.9.9,0,0,1-.83,0l-2.26-1.25C78.11,80.56,78.1,80.34,78.33,80.21Z"/><path class="cls-29" d="M82.57,77.86l2.8-1.63a.92.92,0,0,1,.84,0l3.45,1.92.83.46,1.43.8c.23.13.24.34,0,.47L86.4,83.11a.93.93,0,0,1-.83,0l-2.26-1.26c-.23-.13-.24-.34,0-.47L85.62,80l-3-1.69C82.36,78.2,82.35,78,82.57,77.86Z"/><path class="cls-29" d="M74.32,82.55l2.8-1.63a.89.89,0,0,1,.84,0l2.25,1.25c.24.13.25.35,0,.48l-2.8,1.63a.93.93,0,0,1-.83,0L74.35,83C74.11,82.89,74.1,82.68,74.32,82.55Z"/><path class="cls-29" d="M70.32,84.88l2.79-1.63a1,1,0,0,1,.84,0l2.25,1.26c.24.13.25.34,0,.47l-2.8,1.63a1,1,0,0,1-.84,0l-2.25-1.25C70.1,85.23,70.09,85,70.32,84.88Z"/><path class="cls-29" d="M66.31,87.21l2.8-1.63a1,1,0,0,1,.84,0l2.25,1.26c.24.13.25.35,0,.48L69.42,89a.93.93,0,0,1-.83,0l-2.25-1.25C66.1,87.56,66.09,87.34,66.31,87.21Z"/><path class="cls-29" d="M62.5,89.55l2.8-1.63a1,1,0,0,1,.84,0l2.25,1.26c.24.13.25.34,0,.47l-2.8,1.63a1,1,0,0,1-.84,0L62.53,90C62.29,89.89,62.28,89.68,62.5,89.55Z"/><path class="cls-29" d="M58.5,91.88l2.8-1.63a1,1,0,0,1,.84,0l2.25,1.26c.23.13.25.34,0,.47l-2.8,1.63a.93.93,0,0,1-.83,0l-2.25-1.25C58.29,92.22,58.28,92,58.5,91.88Z"/><path class="cls-29" d="M54.48,94.22l2.8-1.63a1,1,0,0,1,.84,0l2.25,1.26c.24.13.25.34,0,.47L57.6,96a.92.92,0,0,1-.84,0L54.51,94.7C54.27,94.56,54.26,94.35,54.48,94.22Z"/><path class="cls-29" d="M50.48,96.55l2.8-1.63a.92.92,0,0,1,.84,0l2.25,1.25c.23.13.24.35,0,.48l-2.8,1.63a.93.93,0,0,1-.83,0L50.5,97C50.27,96.9,50.26,96.68,50.48,96.55Z"/><path class="cls-29" d="M46.47,98.89l2.8-1.63a1,1,0,0,1,.84,0l2.25,1.26c.24.13.25.34,0,.47l-2.8,1.63a.93.93,0,0,1-.83,0L46.5,99.36C46.26,99.23,46.25,99,46.47,98.89Z"/><path class="cls-29" d="M42.47,101.22l2.8-1.63a.93.93,0,0,1,.83,0l2.26,1.26c.23.13.24.34,0,.47L45.58,103a.93.93,0,0,1-.83,0l-2.26-1.25C42.26,101.56,42.25,101.35,42.47,101.22Z"/><path class="cls-29" d="M35.09,105.52,41.2,102a1,1,0,0,1,.84,0l2.25,1.26c.24.13.25.34,0,.47l-6.11,3.57a.93.93,0,0,1-.83,0L35.11,106C34.87,105.87,34.86,105.65,35.09,105.52Z"/><path class="cls-29" d="M79.29,83.71l2.8-1.63a.93.93,0,0,1,.83,0l2.25,1.26c.24.13.25.34,0,.47l-2.8,1.63a1,1,0,0,1-.84,0l-2.25-1.26C79.07,84.05,79.06,83.84,79.29,83.71Z"/><path class="cls-29" d="M75.28,86l2.8-1.63a.93.93,0,0,1,.83,0l2.25,1.26c.24.13.25.35,0,.48l-2.8,1.63a.9.9,0,0,1-.83,0L75.3,86.52C75.07,86.39,75.06,86.17,75.28,86Z"/><path class="cls-29" d="M71.28,88.38l2.79-1.63a1,1,0,0,1,.84,0L77.16,88c.24.13.25.35,0,.48l-2.79,1.63a1,1,0,0,1-.84,0L71.3,88.85C71.06,88.72,71.05,88.51,71.28,88.38Z"/><path class="cls-29" d="M67.27,90.71l2.8-1.63a.93.93,0,0,1,.83,0l2.25,1.26c.24.13.25.34,0,.47l-2.8,1.63a.92.92,0,0,1-.84,0l-2.25-1.25C67.05,91.06,67,90.84,67.27,90.71Z"/><path class="cls-29" d="M63.26,93l2.8-1.63a.9.9,0,0,1,.83,0l2.26,1.25c.24.13.25.35,0,.48l-2.79,1.63a.92.92,0,0,1-.84,0l-2.25-1.25C63.05,93.39,63,93.18,63.26,93Z"/><path class="cls-29" d="M59.25,95.38l2.8-1.63a.93.93,0,0,1,.83,0L65.13,95c.24.13.25.35,0,.48l-2.8,1.63a.92.92,0,0,1-.84,0l-2.25-1.25C59,95.73,59,95.51,59.25,95.38Z"/><path class="cls-29" d="M55.25,97.72,58,96.09a.9.9,0,0,1,.83,0l2.26,1.25c.24.14.25.35,0,.48l-2.79,1.63a1,1,0,0,1-.84,0l-2.25-1.26C55,98.06,55,97.85,55.25,97.72Z"/><path class="cls-29" d="M51.24,100.05,54,98.42a1,1,0,0,1,.84,0l2.25,1.26c.24.13.25.34,0,.47l-2.8,1.64a1,1,0,0,1-.84,0l-2.25-1.25C51,100.39,51,100.18,51.24,100.05Z"/><path class="cls-29" d="M47.23,102.38l2.8-1.63a.9.9,0,0,1,.83,0L53.12,102c.24.13.25.35,0,.48l-2.79,1.63a1,1,0,0,1-.84,0l-2.26-1.26C47,102.73,47,102.51,47.23,102.38Z"/><path class="cls-29" d="M43.23,104.72,46,103.09a1,1,0,0,1,.84,0l2.25,1.26c.24.13.25.34,0,.47l-2.79,1.63a1,1,0,0,1-.84,0l-2.25-1.26C43,105.06,43,104.85,43.23,104.72Z"/><path class="cls-29" d="M38.54,107.45l3.48-2a.93.93,0,0,1,.83,0l2.26,1.26c.24.13.24.34,0,.48l-3.48,2a.93.93,0,0,1-.83,0l-2.26-1.26C38.33,107.79,38.32,107.58,38.54,107.45Z"/><path class="cls-29" d="M94.5,78.8l3-1.76a.93.93,0,0,1,.83,0l2.25,1.26c.24.13.25.34,0,.47l-3,1.76a.93.93,0,0,1-.83,0l-2.26-1.25C94.28,79.14,94.28,78.93,94.5,78.8Z"/><path class="cls-29" d="M89.48,81.7l3.69-2.15a1,1,0,0,1,.84,0l2.25,1.26c.24.13.24.34,0,.48l-3.69,2.15a.93.93,0,0,1-.83,0L89.5,82.18C89.27,82.05,89.26,81.83,89.48,81.7Z"/><path class="cls-29" d="M85.43,84.06l2.8-1.63a1,1,0,0,1,.84,0l2.25,1.26c.23.13.25.34,0,.47l-2.8,1.63a.93.93,0,0,1-.83,0l-2.25-1.25C85.22,84.4,85.21,84.19,85.43,84.06Z"/><path class="cls-29" d="M81.43,86.39l2.8-1.63a.9.9,0,0,1,.83,0L87.32,86c.23.13.24.35,0,.48l-2.8,1.63a1,1,0,0,1-.83,0l-2.26-1.26C81.22,86.74,81.21,86.52,81.43,86.39Z"/><path class="cls-29" d="M77.42,88.73l2.8-1.63a1,1,0,0,1,.84,0l2.25,1.26c.23.13.24.34,0,.47l-2.8,1.63a.93.93,0,0,1-.83,0L77.44,89.2C77.21,89.07,77.2,88.86,77.42,88.73Z"/><path class="cls-29" d="M73.42,91.06l2.8-1.63a.93.93,0,0,1,.83,0l2.26,1.26c.23.13.24.34,0,.47l-2.8,1.63a.9.9,0,0,1-.83,0l-2.26-1.25C73.21,91.4,73.19,91.19,73.42,91.06Z"/><path class="cls-29" d="M69.41,93.4l2.8-1.64a.92.92,0,0,1,.84,0L75.3,93c.23.13.24.35,0,.48l-2.8,1.63a.93.93,0,0,1-.83,0l-2.26-1.26C69.2,93.74,69.19,93.52,69.41,93.4Z"/><path class="cls-29" d="M65.41,95.73,68.2,94.1a1,1,0,0,1,.84,0l2.25,1.26c.24.13.25.34,0,.47l-2.8,1.63a.93.93,0,0,1-.83,0L65.43,96.2C65.19,96.07,65.18,95.86,65.41,95.73Z"/><path class="cls-29" d="M61.39,98.07l2.8-1.63a1,1,0,0,1,.84,0l2.25,1.26c.23.13.24.34,0,.47L64.5,99.8a.93.93,0,0,1-.83,0l-2.26-1.26C61.18,98.41,61.16,98.2,61.39,98.07Z"/><path class="cls-29" d="M57.39,100.4l2.8-1.63a.93.93,0,0,1,.83,0L63.27,100c.24.13.25.34,0,.47l-2.8,1.63a1,1,0,0,1-.84,0l-2.25-1.25C57.17,100.74,57.16,100.53,57.39,100.4Z"/><path class="cls-29" d="M53.38,102.74l2.8-1.63a.9.9,0,0,1,.83,0l2.26,1.25c.23.13.24.35,0,.48l-2.8,1.63a.93.93,0,0,1-.83,0l-2.26-1.26C53.17,103.08,53.15,102.87,53.38,102.74Z"/><path class="cls-29" d="M49.37,105.07l2.8-1.63a1,1,0,0,1,.84,0l2.25,1.26c.24.13.25.34,0,.47l-2.8,1.63a.93.93,0,0,1-.83,0l-2.25-1.26C49.16,105.41,49.15,105.2,49.37,105.07Z"/><path class="cls-29" d="M41.79,109.37l6.12-3.56a.9.9,0,0,1,.83,0L51,107.07c.23.13.25.34,0,.47L44.9,111.1a.93.93,0,0,1-.83,0l-2.26-1.25C41.58,109.71,41.57,109.5,41.79,109.37Z"/><path class="cls-29" d="M102,78.27,104.12,77a.92.92,0,0,1,.84,0l5.71,3.18c.24.13.25.34,0,.48l-2.12,1.23a1,1,0,0,1-.84,0L102,78.74C101.79,78.61,101.78,78.4,102,78.27Z"/><path class="cls-29" d="M97.89,80.78l3.19-1.86a.9.9,0,0,1,.83,0l2.26,1.25c.23.13.25.35,0,.48L101,82.52a1,1,0,0,1-.84,0l-2.25-1.26C97.67,81.13,97.66,80.91,97.89,80.78Z"/><path class="cls-29" d="M95.08,82.42l1.58-.92a1,1,0,0,1,.84,0l2.25,1.26c.24.13.25.34,0,.47l-1.58.92a1,1,0,0,1-.84,0L95.1,82.9C94.86,82.76,94.85,82.55,95.08,82.42Z"/><path class="cls-29" d="M92.08,84.17l1.65-1a1,1,0,0,1,.84,0l2.26,1.26c.23.13.24.34,0,.47l-1.66,1a1,1,0,0,1-.84,0L92.1,84.64C91.86,84.51,91.85,84.3,92.08,84.17Z"/><path class="cls-29" d="M86.23,87.57l4.58-2.67a.92.92,0,0,1,.84,0l2.25,1.25c.24.13.25.35,0,.48l-4.59,2.67a.93.93,0,0,1-.83,0l-2.26-1.26C86,87.92,86,87.71,86.23,87.57Z"/><path class="cls-29" d="M82.22,89.91,85,88.28a.93.93,0,0,1,.83,0l2.26,1.26c.23.13.24.34,0,.47l-2.8,1.63a.93.93,0,0,1-.83,0l-2.25-1.25C82,90.25,82,90,82.22,89.91Z"/><path class="cls-29" d="M78.22,92.24,81,90.61a.92.92,0,0,1,.84,0l2.25,1.25c.24.13.25.35,0,.48L81.33,94a1,1,0,0,1-.84,0l-2.25-1.26C78,92.59,78,92.37,78.22,92.24Z"/><path class="cls-29" d="M74.21,94.58,77,93a.93.93,0,0,1,.83,0l2.26,1.26c.23.13.24.34,0,.47l-2.8,1.63a.93.93,0,0,1-.83,0l-2.26-1.26C74,94.92,74,94.71,74.21,94.58Z"/><path class="cls-29" d="M70.2,96.91,73,95.28a1,1,0,0,1,.84,0l2.25,1.26c.24.13.25.34,0,.47l-2.79,1.63a.92.92,0,0,1-.84,0l-2.25-1.25C70,97.25,70,97,70.2,96.91Z"/><path class="cls-29" d="M66.19,99.25,69,97.62a.93.93,0,0,1,.83,0l2.26,1.26c.23.13.24.34,0,.48L69.3,101a.93.93,0,0,1-.83,0l-2.26-1.25C66,99.59,66,99.38,66.19,99.25Z"/><path class="cls-29" d="M62.19,101.58,65,100a.92.92,0,0,1,.84,0l2.25,1.25c.24.13.25.35,0,.48l-2.79,1.63a1,1,0,0,1-.84,0l-2.25-1.26C62,101.93,62,101.71,62.19,101.58Z"/><path class="cls-29" d="M58.18,103.92,61,102.29a1,1,0,0,1,.84,0l2.26,1.26c.23.13.24.34,0,.47l-2.8,1.63a.93.93,0,0,1-.83,0l-2.26-1.26C58,104.26,58,104.05,58.18,103.92Z"/><path class="cls-29" d="M54.17,106.25l2.8-1.63a1,1,0,0,1,.84,0l2.25,1.26c.24.13.25.34,0,.47L57.29,108a.92.92,0,0,1-.84,0l-2.25-1.25C54,106.6,54,106.38,54.17,106.25Z"/><path class="cls-29" d="M50.17,108.59,53,107a.92.92,0,0,1,.84,0l2.25,1.26c.24.12.25.34,0,.47l-2.79,1.63a.93.93,0,0,1-.83,0l-2.26-1.26C50,108.93,49.94,108.72,50.17,108.59Z"/><path class="cls-29" d="M46.16,110.92l2.8-1.63a1,1,0,0,1,.84,0l2.25,1.26c.24.13.25.34,0,.47l-2.8,1.63a.93.93,0,0,1-.83,0l-2.25-1.25C46,111.26,45.94,111.05,46.16,110.92Z"/><path class="cls-29" d="M100.44,83.24l2.79-1.63a.92.92,0,0,1,.84,0l2.25,1.25c.24.13.25.35,0,.48L103.55,85a.92.92,0,0,1-.84,0l-2.25-1.25C100.22,83.59,100.21,83.37,100.44,83.24Z"/><path class="cls-29" d="M96.43,85.58,99.23,84a.93.93,0,0,1,.83,0l2.26,1.25c.24.14.24.35,0,.48l-2.8,1.63a.93.93,0,0,1-.83,0l-2.26-1.26C96.22,85.92,96.21,85.71,96.43,85.58Z"/><path class="cls-29" d="M92.39,87.93l2.79-1.63a1,1,0,0,1,.84,0l2.25,1.26c.24.13.25.35,0,.48l-2.8,1.63a1,1,0,0,1-.84,0l-2.25-1.25C92.17,88.28,92.16,88.07,92.39,87.93Z"/><path class="cls-29" d="M88.38,90.27l2.8-1.63a.93.93,0,0,1,.83,0l2.26,1.25c.24.13.24.35,0,.48L91.49,92a.93.93,0,0,1-.83,0L88.4,90.74C88.17,90.61,88.16,90.4,88.38,90.27Z"/><path class="cls-29" d="M68.14,101.94,87,91a1,1,0,0,1,.84,0l2.25,1.26c.24.13.25.34,0,.47l-18.83,11a.93.93,0,0,1-.83,0l-2.26-1.25C67.93,102.29,67.92,102.07,68.14,101.94Z"/><path class="cls-28" d="M66.73,81.45a.91.91,0,0,1-.47-.11L64,80.08a.38.38,0,0,1-.23-.33.36.36,0,0,1,.21-.31l2.8-1.63a1,1,0,0,1,.93,0L70,79.06a.42.42,0,0,1,.24.34.36.36,0,0,1-.21.31l-2.8,1.63A.87.87,0,0,1,66.73,81.45Zm.51-3.55a.66.66,0,0,0-.36.08l-2.8,1.63c-.07,0-.11.09-.11.14s0,.11.13.16l2.25,1.26a.87.87,0,0,0,.74,0l2.8-1.63c.07,0,.11-.09.11-.14s0-.11-.13-.16L67.61,78A.75.75,0,0,0,67.24,77.9Z"/><path class="cls-28" d="M42.89,95.46a1.09,1.09,0,0,1-.48-.11l-2.25-1.26a.38.38,0,0,1-.23-.33.36.36,0,0,1,.21-.32h0l2.79-1.63a1.07,1.07,0,0,1,.94,0l2.25,1.25a.41.41,0,0,1,.24.33.38.38,0,0,1-.21.32l-2.8,1.63A1,1,0,0,1,42.89,95.46Zm-2.65-1.84c-.07,0-.12.09-.11.14s0,.11.13.16l2.25,1.25a.84.84,0,0,0,.74,0l2.8-1.63a.2.2,0,0,0,.11-.14c0-.06,0-.12-.14-.16L43.77,92A.82.82,0,0,0,43,92Z"/><path class="cls-28" d="M30.67,102.46a1,1,0,0,1-.47-.11l-2.26-1.26a.4.4,0,0,1-.23-.33.38.38,0,0,1,.21-.32l2.8-1.63a1.08,1.08,0,0,1,.93,0l2.26,1.26a.4.4,0,0,1,.23.33.36.36,0,0,1-.21.32l-2.8,1.63A.87.87,0,0,1,30.67,102.46ZM28,100.62h0c-.07,0-.11.09-.11.14s.05.11.13.16l2.25,1.25a.84.84,0,0,0,.74,0l2.8-1.63a.19.19,0,0,0,.11-.15c0-.05,0-.11-.13-.16L31.55,99a.82.82,0,0,0-.73,0Z"/><path class="cls-28" d="M81,81a.91.91,0,0,1-.47-.11L78.3,79.64a.41.41,0,0,1-.23-.34.34.34,0,0,1,.21-.31l2.79-1.63a1,1,0,0,1,.94,0l2.25,1.26a.39.39,0,0,1,.24.33.38.38,0,0,1-.21.31l-2.8,1.63A.87.87,0,0,1,81,81Zm-2.65-1.84c-.07,0-.11.09-.11.14s0,.11.13.16l2.26,1.26a.85.85,0,0,0,.73,0l2.8-1.63c.07,0,.11-.09.11-.14s0-.11-.13-.16l-2.26-1.26a.85.85,0,0,0-.73,0Z"/><path class="cls-28" d="M86,82.17a.91.91,0,0,1-.47-.12L83.26,80.8a.4.4,0,0,1-.23-.33.36.36,0,0,1,.21-.32l2.18-1.27-2.87-1.6a.39.39,0,0,1-.24-.33.38.38,0,0,1,.21-.32L85.32,75a1,1,0,0,1,.94,0L92,78.18a.39.39,0,0,1,.24.33.36.36,0,0,1-.21.32l-5.54,3.23A1,1,0,0,1,86,82.17ZM82.62,76.8h0c-.07,0-.11.1-.11.15s0,.11.14.16l3.18,1.77-2.49,1.44c-.07.05-.11.1-.11.15s0,.11.13.15l2.26,1.26a.79.79,0,0,0,.73,0l5.54-3.22c.07,0,.11-.09.11-.14a.2.2,0,0,0-.13-.16l-5.71-3.18a.84.84,0,0,0-.74,0Z"/><path class="cls-28" d="M77,83.34a1,1,0,0,1-.47-.11L74.3,82a.39.39,0,0,1-.24-.33.38.38,0,0,1,.21-.32l2.8-1.63a1,1,0,0,1,.94,0L80.26,81a.38.38,0,0,1,.23.33.36.36,0,0,1-.21.32l-2.8,1.63A1,1,0,0,1,77,83.34Zm-2.65-1.85c-.07.05-.11.1-.11.15s0,.11.14.16l2.25,1.25a.79.79,0,0,0,.73,0l2.8-1.63c.07,0,.11-.09.11-.14s0-.11-.13-.16l-2.25-1.25a.84.84,0,0,0-.74,0Z"/><path class="cls-28" d="M73,85.67a1,1,0,0,1-.47-.11l-2.25-1.25a.43.43,0,0,1-.24-.33.4.4,0,0,1,.22-.33h0L73.06,82A1.07,1.07,0,0,1,74,82l2.25,1.25a.41.41,0,0,1,.24.33.38.38,0,0,1-.21.32l-2.8,1.63A.91.91,0,0,1,73,85.67Zm-2.64-1.84c-.08,0-.12.09-.12.14s0,.11.14.16l2.25,1.26a.87.87,0,0,0,.74,0l2.8-1.63a.2.2,0,0,0,.11-.14.2.2,0,0,0-.13-.16L73.9,82.2a.87.87,0,0,0-.74,0Z"/><path class="cls-28" d="M69,88a1,1,0,0,1-.47-.12l-2.25-1.25a.42.42,0,0,1-.24-.34.36.36,0,0,1,.21-.31l2.8-1.63a1,1,0,0,1,.94,0l2.25,1.25a.41.41,0,0,1,.23.33.37.37,0,0,1-.21.33l-2.8,1.62A.85.85,0,0,1,69,88Zm.51-3.56a.71.71,0,0,0-.36.08l-2.8,1.63c-.07,0-.11.09-.11.14s0,.12.14.16l2.25,1.26a.85.85,0,0,0,.73,0l2.8-1.63c.07,0,.11-.09.11-.14s0-.11-.13-.16L69.9,84.53A.89.89,0,0,0,69.52,84.45Z"/><path class="cls-28" d="M44.49,110.16a1,1,0,0,1-.47-.11l-2.25-1.26a.39.39,0,0,1-.24-.33.38.38,0,0,1,.21-.32h0l6.12-3.56a1,1,0,0,1,.93,0l2.26,1.26a.4.4,0,0,1,.23.33.36.36,0,0,1-.21.32L45,110.05A1,1,0,0,1,44.49,110.16Zm-2.65-1.84c-.07,0-.11.09-.11.14s.05.11.13.16l2.26,1.26a.85.85,0,0,0,.73,0L51,106.31c.07,0,.11-.09.11-.14s0-.11-.13-.16l-2.25-1.25a.84.84,0,0,0-.74,0Z"/><path class="cls-28" d="M108.17,81a1,1,0,0,1-.48-.12L102,77.69a.39.39,0,0,1-.24-.33A.38.38,0,0,1,102,77l2.12-1.23a1,1,0,0,1,.94,0L110.72,79a.42.42,0,0,1,.24.34.38.38,0,0,1-.21.31l-2.12,1.24A1,1,0,0,1,108.17,81Zm-6.11-3.78h0q-.12.08-.12.15s0,.11.14.16l5.71,3.18a.81.81,0,0,0,.74,0l2.12-1.23c.07,0,.11-.09.11-.14s-.05-.11-.14-.16L104.91,76a.87.87,0,0,0-.74,0Z"/><path class="cls-28" d="M95.09,88.73a1,1,0,0,1-.48-.12l-2.25-1.25a.44.44,0,0,1-.24-.33.38.38,0,0,1,.22-.32l2.79-1.63a1,1,0,0,1,.94,0l2.25,1.26a.39.39,0,0,1,.24.33.38.38,0,0,1-.21.31l-2.8,1.63A.88.88,0,0,1,95.09,88.73Zm-2.65-1.85c-.07,0-.12.1-.12.14a.22.22,0,0,0,.14.16l2.25,1.26a.87.87,0,0,0,.74,0l2.8-1.63c.07,0,.11-.09.11-.14s0-.11-.14-.16L96,85.25a.87.87,0,0,0-.74,0Z"/><path class="cls-28" d="M70.84,102.73a.91.91,0,0,1-.47-.11l-2.26-1.25a.43.43,0,0,1-.23-.33.36.36,0,0,1,.21-.32l18.83-11a1,1,0,0,1,.93,0L90.11,91a.41.41,0,0,1,.23.33.35.35,0,0,1-.21.32l-18.83,11A.85.85,0,0,1,70.84,102.73Zm-2.65-1.84c-.07,0-.11.09-.11.14s0,.11.13.16l2.26,1.26a.85.85,0,0,0,.73,0L90,91.48c.07,0,.12-.09.11-.14a.18.18,0,0,0-.13-.16l-2.25-1.26a.87.87,0,0,0-.74,0Z"/><path class="cls-29" d="M64.34,104.27l2.8-1.63a1,1,0,0,1,.83,0l2.25,1.26c.24.13.25.35,0,.48L67.45,106a.92.92,0,0,1-.84,0l-2.25-1.25C64.12,104.62,64.11,104.4,64.34,104.27Z"/><path class="cls-29" d="M60.33,106.61l2.8-1.63a.93.93,0,0,1,.83,0l2.26,1.26c.23.13.25.34,0,.47l-2.8,1.63a.93.93,0,0,1-.83,0l-2.26-1.26C60.12,107,60.11,106.74,60.33,106.61Z"/><path class="cls-29" d="M56.33,108.94l2.79-1.63a1,1,0,0,1,.84,0l2.25,1.26c.24.13.25.34,0,.48l-2.8,1.62a.92.92,0,0,1-.84,0l-2.25-1.25C56.11,109.29,56.1,109.07,56.33,108.94Z"/><path class="cls-29" d="M52.32,111.28l2.8-1.63a.93.93,0,0,1,.83,0l2.26,1.25c.23.14.24.35,0,.48L55.43,113a1,1,0,0,1-.84,0l-2.25-1.26C52.1,111.62,52.1,111.41,52.32,111.28Z"/><path class="cls-29" d="M48.94,113.24,51.11,112a1,1,0,0,1,.84,0l2.25,1.26c.24.13.25.34,0,.47L52.05,115a.9.9,0,0,1-.83,0L49,113.72C48.73,113.59,48.72,113.37,48.94,113.24Z"/><path class="cls-28" d="M70.42,9.1a2.71,2.71,0,0,0-3.89-1.88L6.59,42.16a4.38,4.38,0,0,0-.42.28,4.17,4.17,0,0,0-1.36,4.45L19.46,99.63c.29,1,1,1.45,1.74,1L84.81,63.56a1.16,1.16,0,0,0,.58-1Z"/><path class="cls-23" d="M83.2,61.72,68.45,9.34a.37.37,0,0,0-.54-.22l-61,35.59a.36.36,0,0,0-.17.42L21.45,97.51a.36.36,0,0,0,.54.22L83,62.14A.35.35,0,0,0,83.2,61.72Z"/><path class="cls-19" d="M24,98.86a.52.52,0,0,1-.21,0,.56.56,0,0,1-.33-.37L8.68,46.07a.58.58,0,0,1,.26-.65L70,9.83a.59.59,0,0,1,.5,0,.57.57,0,0,1,.33.38L85.58,62.55a.58.58,0,0,1-.26.65l-61,35.59A.59.59,0,0,1,24,98.86Zm46.3-88.71-.09,0-61,35.6a.18.18,0,0,0-.07.19L23.82,98.34a.18.18,0,0,0,.1.11.16.16,0,0,0,.15,0L85.12,62.85a.16.16,0,0,0,.07-.19h0L70.44,10.27a.18.18,0,0,0-.1-.11Z"/><path class="cls-23" d="M67.37,133.16a6.77,6.77,0,0,1-3.31-.82l-20.8-11.59a.19.19,0,0,1-.08-.27.2.2,0,0,1,.27-.08L64.26,132a6.43,6.43,0,0,0,3.11.77,6.21,6.21,0,0,0,3.11-.79L123.58,101a.19.19,0,0,1,.27.07.2.2,0,0,1-.07.27L70.69,132.32A6.71,6.71,0,0,1,67.37,133.16Z"/><g class="cls-30"><path class="cls-23" d="M65.1,96.73C54.54,95.2,46.5,90.38,47.14,86s9.72-6.78,20.27-5.26S86,87,85.38,91.46,75.66,98.25,65.1,96.73Z"/></g><path class="cls-31" d="M107.12,122.55a2.73,2.73,0,1,1,2.72,2.73A2.72,2.72,0,0,1,107.12,122.55Z"/><path class="cls-32" d="M99.64,8.32a2.16,2.16,0,1,1,2.16,2.16A2.16,2.16,0,0,1,99.64,8.32Z"/><path class="cls-19" d="M129.8,132.73l-4.18-4.17,4.18-4.18,4.17,4.18ZM127,128.56l2.77,2.76,2.76-2.76-2.76-2.77Z"/><path class="cls-19" d="M7,17.57,10.49,7.35l7.08,8ZM10.88,9.3,8.52,16.23l7.16-1.52Z"/><polygon class="cls-19" points="129.86 77.83 126.19 74.16 122.63 77.72 121.92 77.02 126.19 72.75 130.56 77.12 129.86 77.83"/><polygon class="cls-29" points="125.03 13.32 124.28 12.65 127.6 8.95 129.77 10.01 132.27 6.81 133.06 7.42 130.06 11.26 127.84 10.18 125.03 13.32"/><polygon class="cls-29" points="125.03 16.68 124.28 16.02 127.6 12.32 129.77 13.38 132.27 10.18 133.06 10.79 130.06 14.63 127.84 13.55 125.03 16.68"/><path class="cls-33" d="M67.37,13.1s-5.21-4.79-7.79-5.86a19.46,19.46,0,0,0-14.71.16c-12.81,5-22.2,20.53-21,34.67a21,21,0,0,0,4.3,11.69c2.31,2.83,17,19.37,17,19.37l4.46,3.7Zm-26,39.65c-6.63.67-10.35-5.41-10.58-11.43-.51-11.19,8.4-28.72,21.09-30,8.26-.85,12.61,7.75,9.7,19.2S49.65,51.9,41.39,52.75Z"/><path class="cls-34" d="M57,14.9a21.32,21.32,0,0,1,3.49,11.88c-.12,12.79-9.73,25.1-23.27,25.31a9,9,0,0,0,3.2,3.24,8.25,8.25,0,0,0,3.27,1,9.74,9.74,0,0,0,2.16,0c8.26-.84,17.31-10.8,20.21-22.25C68.89,23,64.83,14.57,57,14.9Z"/><path class="cls-35" d="M73.23,29.17C73.23,16.29,66.62,12,64,10.94a19.46,19.46,0,0,0-14.71.16c-12.81,5-22.2,20.53-21,34.67a21.11,21.11,0,0,0,4.3,11.69c2.32,2.83,17,19.37,17,19.37S73.23,41.44,73.23,29.17ZM45.85,56.45c-6.63.67-10.58-5.4-10.58-11.43,0-14.56,8.4-28.72,21.09-30,8.26-.85,12.61,7.75,9.7,19.2S54.11,55.6,45.85,56.45Z"/><path class="cls-28" d="M32.5,57.59a21.41,21.41,0,0,1-4.34-11.8C26.93,31.59,36.39,16,49.26,10.92a19.62,19.62,0,0,1,14.86-.16l-.16.37a19.23,19.23,0,0,0-14.56.16c-12.71,5-22.06,20.43-20.84,34.47a21.09,21.09,0,0,0,4.25,11.58Zm3-12.57h-.4c0-13.78,8-28.85,21.27-30.23a8.8,8.8,0,0,1,9.07,4.79l-.35.19a8.42,8.42,0,0,0-8.68-4.58C43.29,16.54,35.47,31.42,35.47,45Z"/><path class="cls-19" d="M53.23,78.82l-.17-.19c-.15-.17-14.68-16.58-17-19.38a21.34,21.34,0,0,1-4.35-11.8C30.51,33.25,40,17.61,52.84,12.58a19.57,19.57,0,0,1,14.86-.16c2.18.9,9.31,4.89,9.31,18.41C77,43,54.34,77.16,53.38,78.6Zm7.44-67.39A21.09,21.09,0,0,0,53,13c-12.71,5-22.06,20.43-20.84,34.47A21,21,0,0,0,36.39,59c2.16,2.62,15.14,17.29,16.8,19.17,2-3,23.42-35.76,23.42-47.34,0-13.27-6.94-17.16-9.07-18A17.76,17.76,0,0,0,60.67,11.43Z"/><g class="cls-36"><path class="cls-37" d="M54.19,17.85A20.13,20.13,0,1,1,34.07,38,20.13,20.13,0,0,1,54.19,17.85Z"/><path class="cls-38" d="M44.6,40.76c.14-.13.22.06.36,0s.37-.17.47,0,.22.11.15-.1.25-.19.36-.33.2-.16.53-.23.41-.15.55-.17.2.32.37.4-.17-.4-.1-.49.55,0,.71-.2.29.17.55.49.17,0-.09-.26a5,5,0,0,1-.52-.59c-.11-.18.09-.22.3-.38s.16-.48.3-.67.22,0,.32-.24.54-.35.86-.54.42-.06.61.06.72,0,.75-.1.05-.08.31-.13.22,0,.22-.24.27-.32.5-.39.25-.07.31-.29.1-.24.58-.33.32-.42.83-.48.25.15.48.33.5-.07.69-.26.2,0,.57.09.28,0,.22-.2.21-.22.46-.28a1.37,1.37,0,0,1,.83.16c.15.12-.06.62,0,.82s.54-.09.34-.34-.13-.31-.06-.55-.27-.26-.31-.45.31,0,.48.15.38.14.49.2a1.25,1.25,0,0,0,.49,0,.4.4,0,0,1,.42.4c0,.25,0,.39.18.39a.38.38,0,0,1,.35.33c0,.21.34-.32.65-.47s.54,0,.79.13a.75.75,0,0,0,.67,0,1.06,1.06,0,0,0,.55-.75c.06-.31-.2-.52-.19-.77s-.13-.39-.14-.62,0-.16-.09-.31.39-.19.65-.29a3.87,3.87,0,0,1,1.12,0c.37,0,.36,0,.17-.16a4.17,4.17,0,0,1-.53-1c-.17-.35-.27-.61-.48-1s.22-.11.37-.05.48-.12.76-.07.37.74.82,1.06.38,0,.81,0,.57-.35.68-.61a2.06,2.06,0,0,0,.1-.74,5.83,5.83,0,0,0-.82-2,6.2,6.2,0,0,0-.86-.32c-.5-.19-.52-.08-.91,0s-.27,0-.54-.2-.17-.1-.63-.21-.33.1-.67.22-.38,0-.59.19,0,.73-.1.87a1.1,1.1,0,0,1-.55.58c-.34.14-.38-.48-.4-.67a2,2,0,0,1,.14-.79,1.1,1.1,0,0,0,.13-.73c-.06-.3-.92-.83-1.55-1s-.78-.42-.69-.62,0-.52,0-.63,0-.16-.12-.11-.26-.16-.52-.23-.18-.34-.4-.44a2.07,2.07,0,0,0-.74-.08c-.32,0,.35-.54-.36-.72s-1,0-1-.24-.1-.15-.31-.17,0,.08.22.27-.07.33-.41.26a3.21,3.21,0,0,1-.82-.36c-.17-.1-.42,0-.4-.18s.35-.17.52-.19.1-.05.25-.11.12-.16.25-.24,0-.12,0-.25-.16-.06-.29-.2.33-.21.65-.17a3.41,3.41,0,0,1,.88.22c.2.1.31.14.29.07a.8.8,0,0,0-.53-.26.37.37,0,0,1-.35-.08c-.1-.08,0-.18-.55-.17s-1.08.16-1.41-.08a1.27,1.27,0,0,0-.74-.25c-.34-.08-.29-.32-.25-.4s.21-.16.27-.22.12,0,.23,0,0,0,.13-.2.54-.1.64-.16a.3.3,0,0,1,.28-.05c.11,0,0-.1,0-.2s.44-.32.73-.53.25,0,.27.14.32.14.42.2.23,0,.33-.13a.29.29,0,0,0,0-.34c0-.15.11-.07.21,0s.3-.18.45-.27a3.19,3.19,0,0,1,.87,0c.13,0,.23.06.24.3s.16.14.24.36-.22.24-.24.37.34.34.7.37.28.71.29.89a.34.34,0,0,0,.36.32c.18,0,.29-.54.26-.82s0-.4.21-.37a.83.83,0,0,0,.5-.11c.17-.08.22,0,.38-.21s.45-.13.63,0,.22.06.16-.14.1-.13,0-.3a2,2,0,0,0-.89-.4,1.9,1.9,0,0,1-.61-.21c-.21-.11-.48,0-.6-.07s-.37-.24-.47-.29-.23,0-.37,0-.51,0-.61-.14.12-.18,0-.28-.34.05-.48.1-.12-.09-.2-.2-.08.11-.27.23.42,0,.29.15-.61-.22-.72-.11,1,.3,1.13.36,0,.15-.34.14a1.5,1.5,0,0,0-.78.17c-.18.1-.89.19-1,.06s.54-.14.53-.21-.51.06-.63,0,.2-.08.35-.22-.33-.09-.6,0-.17,0-.22-.12.22-.11.58-.18.12-.08.07-.17.34-.09.59-.11.28-.11.19-.23.34,0,.5,0,.16.07.43,0,.64.3.7.18.23,0,.41,0,0,.15-.16.26.33.18.39.26.23,0,.11-.08-.08-.19.11-.21.4.21.5.23,0-.07,0-.23.34.22.47.33.42,0,.64.09a1.31,1.31,0,0,0,.69.05c.12-.05,0-.1-.32-.18s0-.13.35,0,.32.15.31.29.21.1.41,0,.34.21.39.1.13-.06.13-.06A22.41,22.41,0,0,1,67,22.55c.54.43.55.89,1,1.18s.79,1.11,1.17,1.55a2.57,2.57,0,0,1,.45,1.88c-.15.38.18,1.32.09,1.58s.23.47.14.72a1.43,1.43,0,0,0-.08.85.45.45,0,0,1-.71.38c-.14-.19.29-2.06.19-2.24s-.17.1-.14.36a8.81,8.81,0,0,1-.41,1.55,13,13,0,0,0,0,1.66c-.06.7-2.19,1.42-2.48,1.52s-.32-.4-.6-.32-.8.81-1.15.89-.35.24-.61.26-.44.58-.7.65-.15.06-.1.2a.46.46,0,0,1-.32.53c-.29.12-.14.43-.42.68s-.48.14-.8.3-.42.46-.76.1-.27-.35-.62-.12-.12,1-.05,1.52.81.63,1,1a8.65,8.65,0,0,0,.44,1.68c.21.21-.07.7-.1,1.49S60.24,44.17,59.63,45s-2.44,1.38-2.72,2.13.1,3,.07,3.27a7.42,7.42,0,0,1,0,1.12,2.27,2.27,0,0,0,.29,1.22c.07,0,.05,0,.07.12s.06,0,.14.09-.13.46-.16.55,0,.12.1.23a.3.3,0,0,1,.06.33.33.33,0,0,0,.08.36c.13.13.14.26-.06.28s-.19-.19-.28-.41-.14,0-.07.22a2.65,2.65,0,0,1,0,.62c0,.18.17,0,.24-.12s.12.15.22.23.36,0,.36.1-.27.1-.37.07-.14,0-.21,0,0,.07,0,.14,0,.09.11.09.12.11,0,.16-.06,0-.15.13-.09.17,0,.24-.16.18-.26.18-.07.1,0,.17.12.15-.5.42a3,3,0,0,1-1.79.08c-.17-.09.58-.5.79-.73s-.72-.47-.92-.7.31-.39,0-.54S54,54.66,54,54.4s-.32-.2-.56-.44.16-.31-.31-.31A5.49,5.49,0,0,1,51.57,53c-.18-.07,0-.27.2-.6s.09-.19-.43-.07-.51-.08-1-.54-.34-.57-.69-.8-.12.06.08.36-1.13.31-1.52-1.06-1.9-1.58-2.32-2.66S42.66,45,42.32,42.74,44.46,40.88,44.6,40.76Z"/><path class="cls-38" d="M58.14,19.44s.23,0,.2,0-.16.08-.23.05-.15,0-.12-.07S58.13,19.44,58.14,19.44Z"/><path class="cls-38" d="M57.88,19.34s.15.12,0,.11h-.27c-.1,0-.22,0-.16-.05S57.69,19.2,57.88,19.34Z"/><path class="cls-38" d="M57.42,19.35s0,.09-.06.08-.08-.11,0-.13S57.39,19.32,57.42,19.35Z"/><path class="cls-38" d="M57.4,19.51a.13.13,0,0,1,.09.12s-.05.05-.12,0-.15,0-.13-.08S57.28,19.47,57.4,19.51Z"/><path class="cls-38" d="M57.85,19.5s.18,0,.19.08,0,.08-.14.09-.13,0-.18,0-.08-.06,0-.11A.19.19,0,0,1,57.85,19.5Z"/><path class="cls-38" d="M52.92,22.92c0-.16,0-.29.08-.32s0,0,.13.08a.91.91,0,0,1,.24.25s-.17.18-.2.22-.06-.06-.09,0,0,.11-.15.08-.2,0-.14-.13S52.87,23.08,52.92,22.92Z"/><path class="cls-38" d="M51.11,22.28c-.07,0-.17-.07,0-.15a1.66,1.66,0,0,1,.59-.09c.13,0,.42,0,.31-.1s-.33-.4-.19-.42.29.15.44.15,0,.21.13.27.07.29.15.32.29,0,.27.12-.27,0-.23.05.28.12.22.17a1,1,0,0,1-.49,0c-.22-.05-.29,0-.34.06s-.12,0-.21,0-.23-.07-.16,0,.23.12.2.18-.08.14-.2,0-.35-.13-.39-.21-.21-.12-.12-.23S51.19,22.31,51.11,22.28Z"/><path class="cls-38" d="M50.92,22.59c.14-.05.25.12.31.2s-.07.07-.08.16-.24.05-.33,0-.11-.32-.14-.42S50.86,22.61,50.92,22.59Z"/><path class="cls-38" d="M58.11,31.52c.1-.05.36-.39.62-.4s.37-.22.66-.33a5,5,0,0,1,.78-.34,4.91,4.91,0,0,1,1.29-.06c.51.06.38.1.67.26s.15.41,0,.47-.83-.24-1.19-.15-.69.17-.88.19-.18.27-.36.39,0,.32-.1.29-1,.06-1.44,0S58,31.57,58.11,31.52Z"/><path class="cls-38" d="M56.36,31.93a3.17,3.17,0,0,1,.84-.22.5.5,0,0,1,.56.37c0,.17.5.18.68.2s.07.27-.27.34-.76.05-.9.23-.37-.15-.6-.23a.73.73,0,0,0-.63,0c-.25.11-.19,0-.28-.25S56.12,32.06,56.36,31.93Z"/><path class="cls-38" d="M55,32.43a.66.66,0,0,1,.42.1c.09.07-.17.21-.34.24s-.16.09-.3,0a1.32,1.32,0,0,1-.32-.17C54.42,32.56,54.75,32.45,55,32.43Z"/><path class="cls-38" d="M59.52,29.53c.39-.1.3.24.22.45s-.19.27-.45.28-.12-.4-.08-.53S59.4,29.56,59.52,29.53Z"/><path class="cls-38" d="M52,18.05A6.32,6.32,0,0,1,53.85,18c.33,0,.66,0,.77,0a4.72,4.72,0,0,1,.73,0c.25.05-.17.13-.52.2a8.58,8.58,0,0,1-1.22,0c-.45,0-.49.22-.78.29s0,.13-.13.18-.05.08-.18.15a3.35,3.35,0,0,1-.91.63,2.36,2.36,0,0,1-1,.3c-.36.08-.68.23-1,.29s0-.62,0-.83-.55,0-.5-.24-.26,0-.54-.16.91-.33,1.48-.43S51.07,18.21,52,18.05Z"/><path class="cls-38" d="M47.11,19.26c.22-.09.79-.26.77-.09s-.07.32-.21.34c-.54.1-.85.16-.84,0S46.9,19.35,47.11,19.26Z"/><path class="cls-38" d="M42.89,21.53c.48,0,1.15-.17.72.31a2,2,0,0,1-.77.67c-.28.1-.65.16-.53-.25S42.41,21.52,42.89,21.53Z"/><path class="cls-38" d="M39.47,24.42c.34-.25,2.94-3.12,2.09-1.43-.12.24-1.21,1-.89,1.07s.42.18.11.54-.73.47-.83.95a1.08,1.08,0,0,1-.64.83c-.31.15-.21-.1-.41,0s-.29.24-.28-.11-.09-.23.22-.72S39.12,24.67,39.47,24.42Z"/><path class="cls-38" d="M37.69,26.66c1.43-1.7.45.05.86,0s.42,0,.43.13c0,.45-.24,1.16-.17,1.53a2.93,2.93,0,0,1,.08.8c0,.05,0,.06-.46.2s-.54.29-.25.26.46-.15.36.14.11.42.07.64-.49.66-.11.65.68-.13.49.62a7.43,7.43,0,0,0-.32,1.87,5.78,5.78,0,0,1-.94,2.28c-.56.94-1,2-1.57,1.69s-.65-.72-.95-.31-.79.68-.84-.06a9,9,0,0,1,.19-3.28C35,32,36.25,28.35,37.69,26.66Z"/><path class="cls-38" d="M52.76,56.16c.2.05.22,0,.39,0a.59.59,0,0,0,.35-.14c.1-.09.07.07.09.17s.09.13.19.14-.1.21-.17.2-.27-.06-.26,0-.12.06-.18,0a2.51,2.51,0,0,0-.71-.1c-.21,0,0-.17-.16-.25S52.56,56.11,52.76,56.16Z"/><path class="cls-38" d="M47.71,56.36a.67.67,0,0,1,.31,0c.16,0,.18.17.16.24s-.24.18-.34.2-.4-.09-.3-.23S47.53,56.39,47.71,56.36Z"/><path class="cls-38" d="M40.34,32.71c.1,0,.22.13.15.22s-.19.14-.24,0S40.3,32.69,40.34,32.71Z"/><path class="cls-38" d="M40.37,33.36c0,.14-.14.18-.17.15s-.13-.15-.06-.19S40.39,33.3,40.37,33.36Z"/><path class="cls-38" d="M40,33.35s.12.19,0,.23-.16,0-.17-.12S40,33.3,40,33.35Z"/><path class="cls-38" d="M39.77,33.3a.15.15,0,0,1-.1.16c-.05,0-.08-.05,0-.13S39.74,33.24,39.77,33.3Z"/><path class="cls-38" d="M39.77,33c.06,0,0,0,0,.09s-.08.12-.14,0S39.74,33,39.77,33Z"/><path class="cls-38" d="M39.85,32.78s.14,0,.08.11a.14.14,0,0,1-.16,0,.13.13,0,0,1,0-.11S39.82,32.77,39.85,32.78Z"/><path class="cls-38" d="M40.13,32.93c.06,0,.13,0,0,.12s-.12.17-.17.09-.08-.12-.07-.14S40.06,32.89,40.13,32.93Z"/><path class="cls-28" d="M35.66,27.18a3.92,3.92,0,0,0-.73,3,11.23,11.23,0,0,0,.84,3A26.33,26.33,0,0,0,39,38.49a52.71,52.71,0,0,0,8.76,8.84,53.15,53.15,0,0,0,10.54,6.61,26.91,26.91,0,0,0,5.92,2,10.9,10.9,0,0,0,3.12.16,3.92,3.92,0,0,0,2.73-1.36,3.92,3.92,0,0,1-2.74,1.19,10.79,10.79,0,0,1-3-.29,26.59,26.59,0,0,1-5.77-2.1,55.11,55.11,0,0,1-10.36-6.67,55.62,55.62,0,0,1-8.78-8.64A27,27,0,0,1,36.05,33a10.79,10.79,0,0,1-.95-2.91A3.94,3.94,0,0,1,35.66,27.18Z"/><path class="cls-28" d="M36.8,48.83a3,3,0,0,0,1,2.15,8.88,8.88,0,0,0,2,1.43,20.67,20.67,0,0,0,4.52,1.69,41.68,41.68,0,0,0,19.11,0,21.06,21.06,0,0,0,4.52-1.69,8.59,8.59,0,0,0,2-1.43,3,3,0,0,0,1-2.15,3.08,3.08,0,0,1-1.09,2,8.29,8.29,0,0,1-2,1.28,20.23,20.23,0,0,1-4.49,1.49,42.29,42.29,0,0,1-9.45,1,42.73,42.73,0,0,1-9.44-1,20.06,20.06,0,0,1-4.49-1.49,8.4,8.4,0,0,1-2-1.28A3,3,0,0,1,36.8,48.83Z"/><path class="cls-28" d="M72.25,30.9a3.05,3.05,0,0,0-.71-2.25A8.92,8.92,0,0,0,69.77,27a21,21,0,0,0-4.29-2.22,41.37,41.37,0,0,0-19-2.28,20.34,20.34,0,0,0-4.69,1.14,8.58,8.58,0,0,0-2.11,1.18,3,3,0,0,0-1.23,2A3,3,0,0,1,39.81,25a8.26,8.26,0,0,1,2.11-1,21.61,21.61,0,0,1,4.64-1,43.65,43.65,0,0,1,9.49.18,42.74,42.74,0,0,1,9.27,2.08,20.94,20.94,0,0,1,4.28,2,8.41,8.41,0,0,1,1.81,1.5A3.13,3.13,0,0,1,72.25,30.9Z"/><path class="cls-28" d="M73,42.75a3.63,3.63,0,0,0,.31-2.67,9.16,9.16,0,0,0-1-2.56,22.2,22.2,0,0,0-3.44-4.28,44.3,44.3,0,0,0-19-10.69,21.81,21.81,0,0,0-5.45-.73,9.27,9.27,0,0,0-2.72.44,3.66,3.66,0,0,0-2.13,1.66,3.69,3.69,0,0,1,2.18-1.5,8.87,8.87,0,0,1,2.67-.29,21.52,21.52,0,0,1,5.33.88,44.66,44.66,0,0,1,10,4.25,44.56,44.56,0,0,1,8.79,6.32,21.5,21.5,0,0,1,3.52,4.1,8.88,8.88,0,0,1,1.13,2.44A3.62,3.62,0,0,1,73,42.75Z"/><path class="cls-28" d="M35.86,51.33A4,4,0,0,0,38.44,53a10.89,10.89,0,0,0,3.12.15,26.86,26.86,0,0,0,6.09-1.36A52.94,52.94,0,0,0,58.8,46.2a52.77,52.77,0,0,0,9.6-7.91,26.78,26.78,0,0,0,3.73-5,11.22,11.22,0,0,0,1.14-2.91,4,4,0,0,0-.43-3,4,4,0,0,1,.26,3,10.61,10.61,0,0,1-1.23,2.8A26.82,26.82,0,0,1,68.05,38a55.75,55.75,0,0,1-9.59,7.72,55.37,55.37,0,0,1-11,5.61,26.73,26.73,0,0,1-6,1.51,10.75,10.75,0,0,1-3.05,0A4,4,0,0,1,35.86,51.33Z"/><path class="cls-28" d="M66.26,20a3.9,3.9,0,0,0-3-.38,11,11,0,0,0-2.89,1.18,26.39,26.39,0,0,0-4.93,3.81,54.66,54.66,0,0,0-13.12,21A27,27,0,0,0,41,51.68a11.27,11.27,0,0,0,.21,3.12,3.9,3.9,0,0,0,1.66,2.55,4,4,0,0,1-1.5-2.58,10.82,10.82,0,0,1-.06-3.06,26.3,26.3,0,0,1,1.42-6,55.06,55.06,0,0,1,5.42-11.06A55.27,55.27,0,0,1,55.74,25a26.53,26.53,0,0,1,4.76-3.89,10.56,10.56,0,0,1,2.77-1.28A4,4,0,0,1,66.26,20Z"/><path class="cls-28" d="M53.21,18.6a4,4,0,0,0-2,1.89,8.58,8.58,0,0,0-.86,2.65,19.91,19.91,0,0,0,0,5.56,39.46,39.46,0,0,0,3.07,10.64,39.34,39.34,0,0,0,5.81,9.44,20,20,0,0,0,4.11,3.73,9.1,9.1,0,0,0,2.54,1.15,4,4,0,0,0,2.73-.19,4,4,0,0,1-2.68,0,8.56,8.56,0,0,1-2.42-1.25,19.77,19.77,0,0,1-3.92-3.78A40.67,40.67,0,0,1,54,39.09a40.78,40.78,0,0,1-3.17-10.46,19.85,19.85,0,0,1-.16-5.44,8.47,8.47,0,0,1,.7-2.62A4.05,4.05,0,0,1,53.21,18.6Z"/><path class="cls-31" d="M56.88,46.51a.86.86,0,1,0,.86-.85A.85.85,0,0,0,56.88,46.51Z"/><path class="cls-28" d="M56.26,46.51A1.48,1.48,0,1,1,57.74,48,1.48,1.48,0,0,1,56.26,46.51Zm1.24,0a.24.24,0,1,0,.24-.23A.23.23,0,0,0,57.5,46.51Z"/><path class="cls-31" d="M50.89,49.86a.64.64,0,0,0,1.28,0,.64.64,0,0,0-1.28,0Z"/><path class="cls-28" d="M50.27,49.86a1.26,1.26,0,1,1,1.26,1.26A1.26,1.26,0,0,1,50.27,49.86Zm1.25,0v0S51.52,49.85,51.52,49.86Z"/><path class="cls-31" d="M59.34,54.42a.85.85,0,1,0,.85-.86A.85.85,0,0,0,59.34,54.42Z"/><path class="cls-28" d="M58.71,54.42a1.48,1.48,0,1,1,1.48,1.47A1.48,1.48,0,0,1,58.71,54.42Zm1.25,0a.23.23,0,1,0,.46,0,.23.23,0,1,0-.46,0Z"/><path class="cls-31" d="M40.16,53.08a.86.86,0,0,0,.86.85.85.85,0,0,0,.85-.85.86.86,0,1,0-1.71,0Z"/><path class="cls-28" d="M39.54,53.08A1.48,1.48,0,1,1,41,54.55,1.48,1.48,0,0,1,39.54,53.08Zm1.25,0a.23.23,0,0,0,.23.23.23.23,0,0,0,0-.46A.23.23,0,0,0,40.79,53.08Z"/><path class="cls-31" d="M69,35.31a1.56,1.56,0,1,0,1.56-1.56A1.55,1.55,0,0,0,69,35.31Z"/><path class="cls-28" d="M68.34,35.31a2.18,2.18,0,1,1,2.18,2.18A2.19,2.19,0,0,1,68.34,35.31Zm1.25,0a.93.93,0,1,0,.93-.94A.93.93,0,0,0,69.59,35.31Z"/><path class="cls-31" d="M42.05,43.16a1.56,1.56,0,0,0,3.11,0,1.56,1.56,0,1,0-3.11,0Z"/><path class="cls-28" d="M41.42,43.16a2.18,2.18,0,1,1,2.18,2.18A2.18,2.18,0,0,1,41.42,43.16Zm1.25,0a.94.94,0,1,0,.93-.94A.93.93,0,0,0,42.67,43.16Z"/><path class="cls-31" d="M54.66,25a.85.85,0,1,0,.85-.85A.85.85,0,0,0,54.66,25Z"/><path class="cls-28" d="M54,25a1.48,1.48,0,1,1,1.48,1.47A1.48,1.48,0,0,1,54,25Zm1.25,0a.23.23,0,1,0,.23-.23A.23.23,0,0,0,55.28,25Z"/><path class="cls-31" d="M57.16,23a.47.47,0,0,0,.46.46.46.46,0,0,0,.46-.46.45.45,0,0,0-.46-.46A.46.46,0,0,0,57.16,23Z"/><path class="cls-28" d="M56.54,23a1.09,1.09,0,1,1,1.08,1.08A1.08,1.08,0,0,1,56.54,23Zm.92,0c0,.18.32.18.32,0a.16.16,0,1,0-.32,0Z"/><path class="cls-31" d="M49.28,22.7a1.29,1.29,0,1,0,2.57,0,1.29,1.29,0,0,0-2.57,0Z"/><path class="cls-28" d="M48.66,22.7a1.91,1.91,0,1,1,1.91,1.91A1.91,1.91,0,0,1,48.66,22.7Zm1.25,0a.66.66,0,1,0,1.32,0,.66.66,0,1,0-1.32,0Z"/></g></g></g></g></svg>